<?xml version="1.0" encoding="iso-8859-1"?>
<!-- Generator: Adobe Illustrator 19.0.0, SVG Export Plug-In . SVG Version: 6.00 Build 0)  -->
<svg version="1.1" id="Capa_1" xmlns="http://www.w3.org/2000/svg" xmlns:xlink="http://www.w3.org/1999/xlink" x="0px" y="0px"
	 viewBox="0 0 512 512" style="enable-background:new 0 0 512 512;" xml:space="preserve">
<g>
	<g>
		<path d="M169.791,230.242c-2.613-3.484-7.556-4.19-11.039-1.577c-7.928,5.946-16.247,6.834-20.501,6.834
			c-9.91,0-17.098-4.281-20.501-6.834c-3.483-2.612-8.426-1.906-11.039,1.577c-2.613,3.483-1.906,8.426,1.577,11.039
			c4.973,3.73,15.48,9.988,29.963,9.988c6.217,0,18.376-1.297,29.963-9.988C171.697,238.669,172.403,233.726,169.791,230.242z"/>
	</g>
</g>
<g>
	<g>
		<circle cx="105.133" cy="210.267" r="7.885"/>
	</g>
</g>
<g>
	<g>
		<circle cx="171.368" cy="210.267" r="7.885"/>
	</g>
</g>
<g>
	<g>
		<path d="M213.947,193.446c-0.176,0-0.35,0.014-0.526,0.017v-25.775c0-41.449-33.722-75.17-75.17-75.17H37.322
			c-5.479,0-9.359,5.718-7.32,10.814l33.078,82.696v7.435c-0.176-0.004-0.35-0.017-0.526-0.017
			c-13.623,0-24.706,11.083-24.706,24.706c0,13.623,11.083,24.706,24.706,24.706c0.942,0,1.879-0.064,2.81-0.17
			c7.016,24.352,29.485,42.224,56.065,42.224h33.643c26.58,0,49.049-17.871,56.065-42.224c0.93,0.106,1.868,0.17,2.81,0.17
			c13.623,0,24.706-11.083,24.706-24.706C238.653,204.529,227.57,193.446,213.947,193.446z M62.554,227.088
			c-4.928,0-8.936-4.009-8.936-8.936s4.009-8.936,8.936-8.936c0.177,0,0.35,0.024,0.526,0.035v17.312
			c0,0.165,0.012,0.327,0.013,0.491C62.913,227.064,62.736,227.088,62.554,227.088z M197.651,226.563
			c0,23.478-19.101,42.579-42.579,42.579h-33.643c-23.478,0-42.579-19.101-42.579-42.579v-37.833l18.269-12.18l38.202,15.281
			c1.88,0.753,3.977,0.753,5.857,0l38.202-15.281l18.27,12.18V226.563z M197.651,169.776l-12.973-8.649
			c-2.159-1.44-4.891-1.724-7.303-0.76l-39.124,15.65l-39.124-15.65c-2.389-0.955-5.162-0.668-7.303,0.76l-17.146,11.431
			l-25.708-64.27h89.281c32.753,0,59.4,26.647,59.4,59.4V169.776z M213.947,227.088c-0.181,0-0.358-0.024-0.538-0.035
			c0.001-0.164,0.013-0.326,0.013-0.491v-17.313c0.176-0.01,0.348-0.034,0.526-0.034c4.928,0,8.936,4.009,8.936,8.936
			S218.874,227.088,213.947,227.088z"/>
	</g>
</g>
<g>
	<g>
		<path d="M230.768,285.963H45.733c-22.898,0-41.528,18.63-41.528,41.528v16.821c0,4.355,3.53,7.885,7.885,7.885
			c4.355,0,7.885-3.53,7.885-7.885v-16.821c0-14.203,11.555-25.758,25.758-25.758h61.129l6.552,26.209L96.791,452.609
			c-0.377,2.827,0.802,5.638,3.085,7.35l33.643,25.232c2.772,2.08,6.69,2.08,9.462,0l33.643-25.232
			c2.282-1.712,3.462-4.523,3.085-7.35l-16.623-124.667l6.554-26.209h61.129c14.202,0,25.758,11.555,25.758,25.758V496.23H19.975
			V382.51c0-4.355-3.53-7.885-7.885-7.885c-4.355,0-7.885,3.53-7.885,7.885v121.605c0,4.355,3.53,7.885,7.885,7.885h252.32
			c4.355,0,7.885-3.53,7.885-7.885V327.491C272.296,304.593,253.666,285.963,230.768,285.963z M153.383,301.733l-4.468,17.873
			h-21.33l-4.468-17.873H153.383z M163.467,450.114l-25.216,18.912l-25.216-18.912l15.298-114.738h19.836L163.467,450.114z"/>
	</g>
</g>
<g>
	<g>
		<path d="M466.267,0H298.053c-22.898,0-41.528,18.63-41.528,41.528v134.571c0,22.898,18.63,41.528,41.528,41.528H315.4v42.579
			c0,6.355,7.51,10.138,12.616,6.308l65.183-48.887h73.068c22.898,0,41.528-18.63,41.528-41.528V41.528
			C507.795,18.63,489.165,0,466.267,0z M492.025,176.099c0,14.202-11.555,25.758-25.758,25.758h-75.696
			c-1.706,0-3.366,0.553-4.731,1.577l-54.669,41.002v-34.694c0-4.355-3.53-7.885-7.885-7.885h-25.232
			c-14.203,0-25.758-11.555-25.758-25.758V41.528c0-14.202,11.555-25.758,25.758-25.758h168.214
			c14.202,0,25.758,11.555,25.758,25.758V176.099z"/>
	</g>
</g>
<g>
	<g>
		<path d="M459.981,67.753c-5.89-13.545-18.912-22.352-33.987-22.984c-16.403-0.691-31.917,7.955-43.834,24.071
			c-11.917-16.116-27.426-24.766-43.834-24.071c-15.074,0.632-28.098,9.439-33.986,22.984c-7.238,16.647-2.515,36.55,12.96,54.602
			c29.845,34.819,59.795,51.543,61.054,52.238c2.347,1.294,5.267,1.294,7.614,0c1.261-0.695,31.21-17.419,61.054-52.238
			C462.495,104.303,467.218,84.4,459.981,67.753z M435.049,112.092c-21.887,25.534-44.181,40.892-52.888,46.388
			c-8.711-5.498-31.003-20.855-52.888-46.388c-11.39-13.289-15.206-27.158-10.47-38.051c3.461-7.96,11.196-13.14,20.186-13.516
			c0.373-0.016,0.746-0.023,1.121-0.023c13.155,0,25.896,9.707,35.11,26.817c2.921,5.424,10.964,5.425,13.885,0
			c9.476-17.596,22.683-27.378,36.231-26.794c8.99,0.376,16.725,5.556,20.186,13.516C450.255,84.934,446.439,98.803,435.049,112.092
			z"/>
	</g>
</g>
<g>
</g>
<g>
</g>
<g>
</g>
<g>
</g>
<g>
</g>
<g>
</g>
<g>
</g>
<g>
</g>
<g>
</g>
<g>
</g>
<g>
</g>
<g>
</g>
<g>
</g>
<g>
</g>
<g>
</g>
</svg>
