<?xml version="1.0" encoding="iso-8859-1"?>
<!-- Generator: Adobe Illustrator 19.0.0, SVG Export Plug-In . SVG Version: 6.00 Build 0)  -->
<svg version="1.1" id="Capa_1" xmlns="http://www.w3.org/2000/svg" xmlns:xlink="http://www.w3.org/1999/xlink" x="0px" y="0px"
	 viewBox="0 0 512 512" style="enable-background:new 0 0 512 512;" xml:space="preserve">
<g>
	<g>
		<path d="M480.438,79.155c4.151,0,7.515-3.365,7.515-7.515V39.577C487.953,17.755,470.198,0,448.376,0H288.063
			c-21.823,0-39.577,17.755-39.577,39.577v24.708C146.156,68.248,64.125,152.717,64.125,256c0,16.485,2.088,32.798,6.211,48.595
			h-6.712c-21.823,0-39.577,17.755-39.577,39.577v128.25c0,21.823,17.755,39.577,39.577,39.577h160.313
			c21.823,0,39.577-17.755,39.577-39.577v-24.708c102.33-3.963,184.36-88.432,184.36-191.714c0-16.477-2.094-32.798-6.216-48.595
			h6.717c21.823,0,39.577-17.755,39.577-39.577v-59.366c0-4.15-3.364-7.515-7.515-7.515s-7.515,3.365-7.515,7.515v59.366
			c0,13.535-11.012,24.548-24.548,24.548h-72.141c-1.626,0-3.208,0.527-4.509,1.503l-52.102,39.076V199.89
			c0-4.15-3.364-7.515-7.515-7.515h-24.047c-13.536,0-24.548-11.013-24.548-24.548V39.577c0-13.535,11.012-24.548,24.548-24.548
			h160.313c13.536,0,24.548,11.013,24.548,24.548V71.64C472.924,75.79,476.287,79.155,480.438,79.155z M248.485,81.979v70.318
			h-31.217c1.842-8.662,3.927-16.852,6.245-24.472C231.576,101.335,240.78,87.443,248.485,81.979z M226.131,84.635
			c-10.373,15.862-18.447,39.781-24.093,67.662h-43.773C174.59,119.379,198.462,94.988,226.131,84.635z M135.38,248.485
			c0.846-29.476,6.637-57.109,16.193-81.159h47.715c-4.19,25.492-6.505,53.456-6.86,81.159H135.38z M188.034,263.515l-48.923,36.692
			c-2.115-11.973-3.376-24.25-3.732-36.692H188.034z M180.943,95.897c-7.785,7.31-15.093,15.808-21.799,25.449
			c-6.641,9.546-12.482,19.922-17.497,30.951h-28.802C130.343,128.21,153.758,108.693,180.943,95.897z M103.061,167.295
			c0.211,0.018,0.425,0.032,0.641,0.032h31.775c-9.16,24.882-14.357,52.473-15.132,81.159H79.325
			C80.564,218.996,89.054,191.353,103.061,167.295z M120.339,263.515c0.379,13.934,1.828,27.688,4.29,41.08H85.918
			c-3.805-13.344-6.016-27.12-6.6-41.08H120.339z M248.485,472.423c0,13.535-11.013,24.548-24.548,24.548H63.624
			c-13.535,0-24.548-11.013-24.548-24.548v-128.25c0-13.535,11.013-24.548,24.548-24.548h70.149c2.334,0,4.531-0.026,6.501-1.503
			l52.102-39.076v33.065c0,4.15,3.365,7.515,7.515,7.515h24.047c13.535,0,24.548,11.013,24.548,24.548V472.423z M223.937,304.595
			h-16.532v-40.579c0-0.169-0.024-0.334-0.035-0.501h97.176c-0.355,28.891-2.743,56.545-6.943,81.159h-34.089v-0.501
			C263.515,322.35,245.76,304.595,223.937,304.595z M263.515,430.021v-70.318h31.217c-1.842,8.662-3.927,16.852-6.245,24.472
			C280.424,410.665,271.22,424.557,263.515,430.021z M331.056,416.103c7.785-7.311,15.092-15.808,21.8-25.449
			c6.641-9.546,12.483-19.922,17.498-30.951h28.802C381.657,383.79,358.241,403.307,331.056,416.103z M408.939,344.705
			c-0.211-0.018-0.425-0.032-0.641-0.032h-31.775c9.16-24.882,14.357-52.472,15.132-81.159h41.021
			C431.436,293.004,422.946,320.647,408.939,344.705z M378.74,207.405h47.337c3.803,13.341,6.009,27.124,6.593,41.08H323.966
			L378.74,207.405z M319.572,263.515h57.046c-0.845,29.476-6.636,57.109-16.192,81.159h-47.715
			C316.901,319.181,319.216,291.217,319.572,263.515z M353.735,359.703c-16.325,32.918-40.196,57.31-67.866,67.662
			c10.373-15.862,18.446-39.781,24.093-67.662H353.735z M288.063,207.405h16.532v40.579c0,0.169,0.024,0.334,0.035,0.501h-97.175
			c0.354-28.891,2.742-56.545,6.943-81.159h34.088v0.501C248.485,189.65,266.24,207.405,288.063,207.405z"/>
	</g>
</g>
<g>
	<g>
		<path d="M442.385,64.571c-5.613-12.909-18.024-21.303-32.39-21.905c-15.649-0.668-30.417,7.582-41.776,22.941
			c-11.357-15.359-26.116-23.594-41.776-22.941c-14.366,0.602-26.777,8.996-32.39,21.905c-6.898,15.865-2.397,34.833,12.351,52.038
			c28.444,33.184,56.985,49.122,58.187,49.784c2.236,1.233,5.02,1.233,7.256,0c1.201-0.662,29.744-16.6,58.187-49.784
			C444.782,99.404,449.283,80.436,442.385,64.571z M418.624,106.828c-20.859,24.335-42.106,38.971-50.404,44.209
			c-8.301-5.24-29.547-19.876-50.404-44.209c-10.855-12.665-14.492-25.883-9.979-36.264c3.298-7.586,10.669-12.522,19.237-12.881
			c0.356-0.015,0.712-0.022,1.067-0.022c12.539,0,24.681,9.251,33.461,25.558c2.784,5.169,10.448,5.169,13.233,0
			c9.031-16.77,21.636-26.091,34.529-25.536c8.568,0.359,15.938,5.295,19.237,12.881C433.116,80.945,429.479,94.163,418.624,106.828
			z"/>
	</g>
</g>
<g>
	<g>
		<path d="M217.947,369.166c-5.613-12.909-18.024-21.303-32.39-21.905c-15.633-0.661-30.418,7.582-41.776,22.941
			c-11.357-15.359-26.137-23.609-41.776-22.941c-14.366,0.602-26.778,8.996-32.39,21.905c-6.898,15.865-2.397,34.833,12.351,52.038
			c28.444,33.184,56.986,49.122,58.187,49.784c2.236,1.233,5.02,1.233,7.256,0c1.201-0.662,29.744-16.6,58.187-49.784
			C220.342,403.999,224.844,385.031,217.947,369.166z M194.185,411.423c-20.859,24.335-42.106,38.971-50.404,44.209
			c-8.302-5.24-29.547-19.876-50.404-44.209c-10.855-12.665-14.492-25.883-9.979-36.264c3.298-7.586,10.67-12.522,19.238-12.881
			c0.356-0.015,0.711-0.022,1.068-0.022c12.537,0,24.68,9.251,33.461,25.558c2.783,5.169,10.449,5.17,13.233,0
			c9.031-16.77,21.63-26.076,34.529-25.536c8.568,0.359,15.939,5.295,19.238,12.881C208.678,385.54,205.04,398.758,194.185,411.423z
			"/>
	</g>
</g>
<g>
</g>
<g>
</g>
<g>
</g>
<g>
</g>
<g>
</g>
<g>
</g>
<g>
</g>
<g>
</g>
<g>
</g>
<g>
</g>
<g>
</g>
<g>
</g>
<g>
</g>
<g>
</g>
<g>
</g>
</svg>
