<?xml version="1.0" encoding="iso-8859-1"?>
<!-- Generator: Adobe Illustrator 19.0.0, SVG Export Plug-In . SVG Version: 6.00 Build 0)  -->
<svg version="1.1" id="Capa_1" xmlns="http://www.w3.org/2000/svg" xmlns:xlink="http://www.w3.org/1999/xlink" x="0px" y="0px"
	 viewBox="0 0 512 512" style="enable-background:new 0 0 512 512;" xml:space="preserve">
<g>
	<g>
		<path d="M436.795,420.233c-2.26-3.481-6.917-4.468-10.396-2.205l-84.753,55.09L71.309,496.971H7.515
			c-4.151,0-7.515,3.365-7.515,7.515C0,508.635,3.364,512,7.515,512H71.64c0.22,0,0.441-0.01,0.66-0.029l272.532-24.047
			c1.225-0.108,2.404-0.515,3.436-1.185l86.323-56.11C438.071,428.367,439.058,423.713,436.795,420.233z"/>
	</g>
</g>
<g>
	<g>
		<path d="M509.135,370.33l-12.335-9.713c-0.213-0.167-0.436-0.325-0.666-0.468c-13.115-8.197-28.096-12.238-43.068-12.081
			c-0.183-0.177-0.378-0.348-0.582-0.509l-3.776-2.974c-0.214-0.168-0.437-0.325-0.667-0.469
			c-22.424-14.015-50.305-15.89-74.268-5.362c-22.431-9.869-48.636-8.773-70.173,2.957l-8.021,4.235v-9.79
			c0-4.15-3.364-7.515-7.515-7.515h-128.25c-1.072,0-2.133,0.229-3.11,0.673l-86.69,39.405H7.515c-4.151,0-7.515,3.365-7.515,7.515
			c0,4.15,3.364,7.515,7.515,7.515H71.64c1.072,0,2.133-0.229,3.11-0.673l86.69-39.405h119.108v14.637c0,0.019,0,0.037,0,0.056v1.84
			c0,13.535-11.012,24.548-24.548,24.548h-64.125c-1.903,0-3.736,0.722-5.127,2.021l-25.764,24.047
			c-2.32,2.165-3.024,5.768-1.694,8.648c0.664,1.438,1.802,2.67,3.195,3.429c1.639,0.893,3.523,0.932,5.343,0.932h160.313
			c1.305,0,2.585-0.339,3.718-0.984l91.17-51.914c20.33-11.062,45.115-10.381,64.802,1.756l3.765,2.965l-39.301,25.545
			c-3.48,2.262-4.467,6.917-2.204,10.396c2.261,3.48,6.914,4.467,10.396,2.205l48.094-31.261c2.031-1.321,3.301-3.539,3.411-5.96
			C512.102,374.155,511.038,371.83,509.135,370.33z M295.468,363l15.193-8.021c0.029-0.016,0.06-0.032,0.09-0.048
			c13.52-7.374,29.309-9.561,44.198-6.475l-67.365,35.564C292.07,378.088,294.916,370.856,295.468,363z M415.772,357.768
			c-0.04,0.021-0.08,0.044-0.119,0.066l-89.501,50.964H185.175l9.662-9.018H256c1.499,0,2.977-0.091,4.434-0.255
			c0.611,0.16,1.249,0.255,1.912,0.255h25.717c1.223,0,2.427-0.299,3.509-0.87l83.215-43.933c0.029-0.016,0.06-0.032,0.09-0.048
			c17.105-9.33,37.375-10.337,55.109-3.198C425.111,353.265,420.349,355.272,415.772,357.768z"/>
	</g>
</g>
<g>
	<g>
		<path d="M378.294,116.98c-9.55-21.963-30.059-36.218-53.524-37.202c-25.819-1.08-50.209,13.836-68.378,41.333
			c-18.169-27.496-42.572-42.414-68.378-41.333c-23.467,0.984-43.976,15.239-53.526,37.202c-11.816,27.178-4.524,59.18,20.009,87.8
			c48.524,56.611,96.513,80.978,98.532,81.987c2.097,1.048,4.625,1.048,6.722,0c2.019-1.009,50.009-25.377,98.532-81.987
			C382.817,176.16,390.11,144.159,378.294,116.98z M346.873,195c-39.263,45.805-78.906,69.991-90.483,76.502
			c-11.586-6.517-51.226-30.703-90.483-76.502c-20.64-24.081-27.069-50.333-17.636-72.027c7.236-16.64,22.705-27.438,40.372-28.178
			c0.652-0.027,1.304-0.041,1.954-0.041c22.389,0,43.862,16.131,59.178,44.574c2.782,5.169,10.45,5.17,13.233,0
			c15.76-29.269,38.031-45.513,61.131-44.533c17.667,0.74,33.136,11.538,40.371,28.178C373.941,144.667,367.513,170.92,346.873,195z
			"/>
	</g>
</g>
<g>
	<g>
		<path d="M280.047,184.36h-16.532v-16.532c0-4.15-3.364-7.515-7.515-7.515c-4.151,0-7.515,3.365-7.515,7.515v16.532h-16.532
			c-4.151,0-7.515,3.365-7.515,7.515s3.364,7.515,7.515,7.515h16.532v16.532c0,4.15,3.364,7.515,7.515,7.515
			c4.151,0,7.515-3.365,7.515-7.515v-16.532h16.532c4.151,0,7.515-3.365,7.515-7.515S284.198,184.36,280.047,184.36z"/>
	</g>
</g>
<g>
	<g>
		<path d="M256,0c-4.151,0-7.515,3.365-7.515,7.515v24.047c0,4.15,3.364,7.515,7.515,7.515c4.151,0,7.515-3.365,7.515-7.515V7.515
			C263.515,3.365,260.151,0,256,0z"/>
	</g>
</g>
<g>
	<g>
		<path d="M147.957,73.203L130.953,56.2c-2.936-2.936-7.693-2.935-10.628,0c-2.935,2.935-2.935,7.693,0,10.627l17.003,17.003
			c3.056,3.056,8.217,2.851,11.028-0.431C150.874,80.458,150.692,75.939,147.957,73.203z"/>
	</g>
</g>
<g>
	<g>
		<path d="M95.687,184.36H71.64c-4.151,0-7.515,3.365-7.515,7.515s3.364,7.515,7.515,7.515h24.047c4.151,0,7.515-3.365,7.515-7.515
			S99.838,184.36,95.687,184.36z"/>
	</g>
</g>
<g>
	<g>
		<path d="M440.36,184.36h-24.047c-4.151,0-7.515,3.365-7.515,7.515s3.364,7.515,7.515,7.515h24.047
			c4.151,0,7.515-3.365,7.515-7.515S444.511,184.36,440.36,184.36z"/>
	</g>
</g>
<g>
	<g>
		<path d="M391.677,56.2c-2.935-2.935-7.692-2.935-10.628,0l-17.004,17.003c-4.63,4.629-1.258,12.828,5.313,12.828
			c1.923,0,3.846-0.733,5.314-2.201l17.004-17.003C394.612,63.892,394.612,59.135,391.677,56.2z"/>
	</g>
</g>
<g>
</g>
<g>
</g>
<g>
</g>
<g>
</g>
<g>
</g>
<g>
</g>
<g>
</g>
<g>
</g>
<g>
</g>
<g>
</g>
<g>
</g>
<g>
</g>
<g>
</g>
<g>
</g>
<g>
</g>
</svg>
