<?xml version="1.0" encoding="iso-8859-1"?>
<!-- Generator: Adobe Illustrator 19.0.0, SVG Export Plug-In . SVG Version: 6.00 Build 0)  -->
<svg version="1.1" id="Capa_1" xmlns="http://www.w3.org/2000/svg" xmlns:xlink="http://www.w3.org/1999/xlink" x="0px" y="0px"
	 viewBox="0 0 512 512" style="enable-background:new 0 0 512 512;" xml:space="preserve">
<g>
	<g>
		<path d="M508.963,209.887l-37.041-27.483V7.515c0-4.15-3.364-7.515-7.515-7.515H47.593c-4.151,0-7.515,3.365-7.515,7.515v174.89
			L3.037,209.887C1.158,211.281,0,213.581,0,215.922v288.481C0,508.516,3.363,512,7.515,512h496.971
			c3.718,0,6.945-2.843,7.441-6.517c0.048-0.359,0.074-0.718,0.074-1.081v-288.48C512,213.581,510.842,211.281,508.963,209.887z
			 M471.922,201.119l19.952,14.803l-19.952,14.803V201.119z M40.078,201.119v29.606l-19.952-14.803L40.078,201.119z M15.029,230.854
			l178.48,132.421L15.029,489.938V230.854z M31.088,496.971L256,337.356l224.912,159.615H31.088z M496.971,489.937l-178.48-126.662
			l74.036-54.929c3.333-2.473,4.03-7.18,1.558-10.513c-2.473-3.333-7.18-4.03-10.513-1.558L305.6,354.126l-45.249-32.113
			c-2.605-1.849-6.094-1.849-8.699,0l-45.249,32.113L55.108,241.875V15.029h401.785v226.846l-44.664,33.138
			c-3.333,2.473-4.03,7.18-1.558,10.513c2.473,3.332,7.18,4.03,10.513,1.558l75.788-56.23V489.937z"/>
	</g>
</g>
<g>
	<g>
		<path d="M330.166,200.837c-5.614-12.909-18.024-21.303-32.39-21.905c-15.641-0.659-30.417,7.583-41.776,22.941
			c-11.357-15.359-26.111-23.606-41.776-22.941c-14.366,0.602-26.777,8.996-32.39,21.905c-6.898,15.865-2.397,34.833,12.351,52.038
			c28.444,33.184,56.985,49.122,58.187,49.784c2.236,1.233,5.02,1.233,7.256,0c1.201-0.662,29.744-16.6,58.187-49.784
			C332.563,235.67,337.063,216.702,330.166,200.837z M306.403,243.094c-20.859,24.335-42.106,38.971-50.404,44.209
			c-8.301-5.24-29.547-19.876-50.404-44.209c-10.855-12.665-14.492-25.883-9.979-36.264c3.298-7.586,10.669-12.522,19.237-12.881
			c0.356-0.015,0.712-0.022,1.067-0.022c12.54-0.001,24.683,9.25,33.463,25.558c2.784,5.169,10.448,5.169,13.233,0
			c9.032-16.77,21.652-26.089,34.529-25.536c8.568,0.359,15.938,5.295,19.237,12.881
			C320.896,217.211,317.259,230.429,306.403,243.094z"/>
	</g>
</g>
<g>
	<g>
		<path d="M426.354,80.602c-5.614-12.909-18.024-21.303-32.39-21.905c-15.657-0.666-30.417,7.582-41.776,22.941
			c-11.356-15.359-26.121-23.605-41.776-22.941c-14.366,0.602-26.777,8.996-32.39,21.905c-6.898,15.865-2.397,34.833,12.351,52.038
			c28.443,33.184,56.985,49.122,58.187,49.784c2.236,1.233,5.02,1.233,7.256,0c1.201-0.662,29.744-16.6,58.187-49.784
			C428.75,115.435,433.251,96.467,426.354,80.602z M402.59,122.859c-20.859,24.335-42.106,38.971-50.404,44.209
			c-8.301-5.24-29.547-19.876-50.404-44.209c-10.853-12.665-14.49-25.883-9.977-36.264c3.298-7.586,10.669-12.522,19.237-12.881
			c0.356-0.015,0.712-0.022,1.067-0.022c12.539,0,24.681,9.251,33.461,25.558c2.784,5.169,10.448,5.169,13.233,0
			c9.032-16.77,21.649-26.086,34.529-25.536c8.568,0.359,15.938,5.295,19.237,12.881C417.083,96.976,413.445,110.194,402.59,122.859
			z"/>
	</g>
</g>
<g>
	<g>
		<path d="M233.978,80.602c-5.614-12.909-18.024-21.303-32.39-21.905c-15.651-0.666-30.418,7.582-41.776,22.941
			c-11.357-15.359-26.125-23.605-41.776-22.941c-14.366,0.602-26.777,8.996-32.39,21.905c-6.898,15.865-2.397,34.833,12.351,52.038
			c28.443,33.184,56.985,49.122,58.187,49.784c2.236,1.233,5.02,1.233,7.256,0c1.201-0.662,29.744-16.6,58.187-49.784
			C236.375,115.435,240.875,96.467,233.978,80.602z M210.215,122.859c-20.859,24.335-42.106,38.971-50.404,44.209
			c-8.301-5.24-29.547-19.876-50.404-44.209c-10.853-12.665-14.49-25.883-9.977-36.264c3.298-7.586,10.669-12.522,19.237-12.881
			c0.356-0.015,0.712-0.022,1.067-0.022c12.539,0,24.681,9.251,33.461,25.558c2.784,5.169,10.448,5.169,13.233,0
			c9.032-16.77,21.655-26.086,34.529-25.536c8.568,0.359,15.938,5.295,19.237,12.881C224.707,96.976,221.07,110.194,210.215,122.859
			z"/>
	</g>
</g>
<g>
</g>
<g>
</g>
<g>
</g>
<g>
</g>
<g>
</g>
<g>
</g>
<g>
</g>
<g>
</g>
<g>
</g>
<g>
</g>
<g>
</g>
<g>
</g>
<g>
</g>
<g>
</g>
<g>
</g>
</svg>
