<?xml version="1.0" encoding="iso-8859-1"?>
<!-- Generator: Adobe Illustrator 19.0.0, SVG Export Plug-In . SVG Version: 6.00 Build 0)  -->
<svg version="1.1" id="Capa_1" xmlns="http://www.w3.org/2000/svg" xmlns:xlink="http://www.w3.org/1999/xlink" x="0px" y="0px"
	 viewBox="0 0 512 512" style="enable-background:new 0 0 512 512;" xml:space="preserve">
<g>
	<g>
		<path d="M509.585,458.887L377.114,337.935l4.459-4.459c2.935-2.935,2.935-7.693,0-10.627c-2.935-2.935-7.694-2.935-10.627,0
			l-4.942,4.942l-9.841-8.985l1.362-1.362c2.935-2.935,2.935-7.693,0-10.627c-2.935-2.935-7.694-2.935-10.627,0l-1.845,1.845
			l-14.864-13.571c23.548-30.905,37.554-69.454,37.554-111.218C367.742,82.485,285.258,0,183.871,0S0,82.485,0,183.871
			s82.484,183.871,183.871,183.871c41.764,0,80.313-14.006,111.218-37.555l13.571,14.864l-1.845,1.845
			c-2.935,2.935-2.935,7.694,0,10.627c1.467,1.467,3.391,2.201,5.314,2.201c1.923,0,3.847-0.733,5.314-2.201l1.362-1.362
			l8.985,9.841l-4.942,4.942c-2.935,2.935-2.935,7.694,0,10.627c2.895,2.895,7.733,2.895,10.627,0l4.459-4.459l120.952,132.471
			c2.847,3.119,7.877,3.234,10.864,0.247l40.081-40.081C512.819,466.765,512.703,461.734,509.585,458.887z M183.871,352.712
			c-93.099,0-168.841-75.742-168.841-168.841S90.772,15.03,183.871,15.03s168.841,75.742,168.841,168.841
			S276.97,352.712,183.871,352.712z M319.301,334.412l-12.62-13.821c4.88-4.388,9.523-9.031,13.911-13.911l13.822,12.619
			L319.301,334.412z M329.445,345.523l16.078-16.078l9.84,8.985l-16.934,16.934L329.445,345.523z M464.685,493.643l-116.11-127.169
			l17.901-17.901l127.168,116.11L464.685,493.643z"/>
	</g>
</g>
<g>
	<g>
		<path d="M281.776,78.561c-3.039-2.827-7.795-2.655-10.621,0.385c-2.827,3.039-2.654,7.795,0.385,10.621
			c26.115,24.288,41.091,58.66,41.091,94.304c0,70.998-57.762,128.76-128.76,128.76s-128.76-57.762-128.76-128.76
			s57.762-128.76,128.76-128.76c21.151,0,42.121,5.237,60.641,15.144c3.658,1.958,8.214,0.578,10.172-3.082
			c1.958-3.659,0.578-8.214-3.082-10.172c-20.694-11.069-44.114-16.92-67.731-16.92c-79.286,0-143.79,64.504-143.79,143.79
			s64.504,143.79,143.79,143.79s143.79-64.504,143.79-143.79C327.661,144.067,310.937,105.682,281.776,78.561z"/>
	</g>
</g>
<g>
	<g>
		<path d="M258.042,152.753c-5.612-12.91-18.024-21.304-32.392-21.906c-15.644-0.668-30.42,7.582-41.778,22.942
			c-11.357-15.36-26.146-23.602-41.778-22.942c-14.367,0.602-26.78,8.996-32.392,21.906c-6.899,15.866-2.397,34.835,12.352,52.041
			c28.445,33.186,56.99,49.125,58.19,49.787c2.237,1.233,5.02,1.233,7.257,0c1.201-0.662,29.746-16.602,58.19-49.787
			C260.437,187.589,264.94,168.619,258.042,152.753z M234.279,195.013c-20.86,24.336-42.109,38.974-50.408,44.212
			c-8.303-5.241-29.549-19.877-50.408-44.212c-10.856-12.666-14.493-25.884-9.979-36.266c3.299-7.586,10.671-12.523,19.239-12.882
			c0.356-0.015,0.711-0.022,1.068-0.022c12.538,0,24.682,9.252,33.464,25.56c2.784,5.169,10.45,5.17,13.234,0
			c9.031-16.771,21.617-26.089,34.532-25.538c8.568,0.359,15.94,5.296,19.239,12.882
			C248.772,169.128,245.135,182.347,234.279,195.013z"/>
	</g>
</g>
<g>
	<g>
		<path d="M448.217,87.864c-2.935-2.936-7.693-2.935-10.627,0c-2.935,2.935-2.935,7.693,0,10.627
			c22.805,22.806,35.364,53.127,35.364,85.379s-12.559,62.573-35.364,85.379c-2.737,2.737-2.918,7.256-0.4,10.197
			c2.811,3.282,7.97,3.488,11.027,0.431c25.645-25.645,39.767-59.741,39.767-96.007S473.862,113.509,448.217,87.864z"/>
	</g>
</g>
<g>
	<g>
		<path d="M391.534,144.548c-2.935-2.936-7.694-2.935-10.627,0c-2.935,2.935-2.935,7.694,0,10.628
			c7.664,7.665,11.886,17.856,11.886,28.696s-4.221,21.03-11.886,28.696c-2.935,2.934-2.935,7.693,0,10.627
			c2.895,2.896,7.733,2.895,10.627,0c10.504-10.503,16.289-24.468,16.289-39.323S402.038,155.051,391.534,144.548z"/>
	</g>
</g>
<g>
	<g>
		<path d="M419.876,116.206c-2.935-2.935-7.694-2.935-10.627,0c-2.935,2.935-2.935,7.694,0,10.627
			c15.235,15.236,23.625,35.493,23.625,57.038s-8.391,41.802-23.626,57.037c-2.737,2.735-2.918,7.256-0.4,10.197
			c2.811,3.282,7.97,3.488,11.027,0.431c18.075-18.073,28.029-42.104,28.029-67.664C447.904,158.311,437.95,134.28,419.876,116.206z
			"/>
	</g>
</g>
<g>
	<g>
		<path d="M287.894,445.606c-2.934-2.935-7.693-2.935-10.627,0c-22.805,22.805-53.127,35.364-85.379,35.364
			s-62.573-12.559-85.379-35.364c-2.935-2.935-7.693-2.935-10.627,0c-2.935,2.935-2.935,7.693,0,10.627
			c25.645,25.645,59.741,39.767,96.007,39.767s70.363-14.122,96.007-39.767C290.829,453.299,290.829,448.54,287.894,445.606z"/>
	</g>
</g>
<g>
	<g>
		<path d="M231.211,388.923c-2.935-2.936-7.694-2.935-10.627,0c-7.665,7.664-17.857,11.886-28.697,11.886
			s-21.03-4.221-28.696-11.886c-2.934-2.935-7.693-2.935-10.627,0c-2.935,2.935-2.935,7.693,0,10.627
			c10.503,10.504,24.469,16.289,39.323,16.289c14.854,0,28.821-5.785,39.324-16.289
			C234.146,396.615,234.146,391.857,231.211,388.923z"/>
	</g>
</g>
<g>
	<g>
		<path d="M259.553,417.265c-2.935-2.935-7.694-2.935-10.627,0c-15.236,15.234-35.492,23.625-57.038,23.625
			c-21.546,0-41.802-8.391-57.037-23.626c-2.935-2.934-7.694-2.934-10.627,0c-2.935,2.935-2.935,7.694,0,10.627
			c18.073,18.074,42.104,28.029,67.664,28.029s49.591-9.954,67.666-28.028C262.488,424.958,262.488,420.199,259.553,417.265z"/>
	</g>
</g>
<g>
</g>
<g>
</g>
<g>
</g>
<g>
</g>
<g>
</g>
<g>
</g>
<g>
</g>
<g>
</g>
<g>
</g>
<g>
</g>
<g>
</g>
<g>
</g>
<g>
</g>
<g>
</g>
<g>
</g>
</svg>
