<?xml version="1.0" encoding="iso-8859-1"?>
<!-- Generator: Adobe Illustrator 19.0.0, SVG Export Plug-In . SVG Version: 6.00 Build 0)  -->
<svg version="1.1" id="Capa_1" xmlns="http://www.w3.org/2000/svg" xmlns:xlink="http://www.w3.org/1999/xlink" x="0px" y="0px"
	 viewBox="0 0 512 512" style="enable-background:new 0 0 512 512;" xml:space="preserve">
<g>
	<g>
		<path d="M491.065,256l18.734-18.734c2.935-2.935,2.935-7.693,0-10.627c-2.935-2.935-7.693-2.935-10.627,0l-21.846,21.846h-18.824
			l11.219-11.219c2.935-2.935,2.935-7.693,0-10.627c-2.935-2.935-7.693-2.935-10.627,0l-21.847,21.846h-37.622
			c-3.968-106.75-92.032-192.376-199.735-192.376C89.67,56.109,0,145.78,0,256s89.67,199.89,199.89,199.89
			c107.703,0,195.767-85.625,199.735-192.376h37.622l21.846,21.846c3.057,3.057,8.216,2.851,11.027-0.431
			c2.519-2.941,2.337-7.461-0.4-10.196l-11.219-11.219h18.824l21.846,21.846c3.057,3.057,8.216,2.851,11.027-0.431
			c2.519-2.941,2.337-7.461-0.4-10.196L491.065,256z M278.168,186.458c15.371,17.289,24.487,39.079,26.131,62.026h-30.174
			c4.097-10.957,4.167-21.873-0.069-31.617c-5.613-12.909-18.024-21.303-32.39-21.905c-15.631-0.661-30.418,7.582-41.776,22.941
			c-11.357-15.359-26.137-23.601-41.776-22.941c-14.366,0.602-26.778,8.996-32.39,21.905c-6.898,15.865-2.397,34.833,12.351,52.038
			c28.444,33.184,56.986,49.122,58.187,49.784c2.236,1.233,5.02,1.233,7.256,0c1.201-0.662,29.744-16.6,58.187-49.784
			c1.526-1.779,2.935-3.579,4.24-5.392h38.377c-3.866,54.24-49.225,97.19-104.432,97.19C142.156,360.704,95.186,313.735,95.186,256
			c0-57.735,46.97-104.705,104.704-104.705c18.71,0,37.067,4.992,53.089,14.436c3.576,2.108,8.183,0.919,10.29-2.657
			c2.108-3.575,0.918-8.182-2.657-10.29c-18.333-10.806-39.33-16.518-60.722-16.518c-66.022,0-119.734,53.712-119.734,119.734
			s53.712,119.734,119.734,119.734c63.497,0,115.599-49.686,119.491-112.219h25.098c-3.923,76.355-67.276,137.268-144.589,137.268
			c-79.834,0-144.783-64.949-144.783-144.783s64.949-144.783,144.783-144.783c77.313,0,140.666,60.913,144.589,137.268h-25.096
			c-1.667-26.637-12.162-51.967-29.984-72.013c-2.758-3.101-7.508-3.381-10.609-0.623
			C275.689,178.607,275.411,183.357,278.168,186.458z M192.376,256c0,4.15,3.365,7.515,7.515,7.515h46.545
			c-19.57,21.713-38.759,34.904-46.545,39.82c-8.302-5.24-29.547-19.876-50.404-44.209c-10.855-12.665-14.492-25.883-9.979-36.264
			c3.298-7.586,10.67-12.522,19.238-12.881c0.356-0.015,0.711-0.022,1.068-0.022c12.537,0,24.68,9.251,33.461,25.558
			c2.783,5.169,10.449,5.17,13.233,0c9.03-16.77,21.622-26.082,34.529-25.536c8.568,0.359,15.939,5.295,19.238,12.881
			c3.256,7.49,2.248,16.455-2.628,25.624H199.89v0C195.74,248.485,192.376,251.85,192.376,256z M199.89,96.188
			c-88.121,0-159.812,71.691-159.812,159.812s71.691,159.812,159.812,159.812c85.601,0,155.692-67.652,159.631-152.297h25.065
			c-3.958,98.461-85.281,177.346-184.696,177.346C97.957,440.861,15.029,357.933,15.029,256S97.957,71.139,199.89,71.139
			c99.415,0,180.738,78.885,184.696,177.346h-25.065C355.583,163.84,285.492,96.188,199.89,96.188z"/>
	</g>
</g>
<g>
</g>
<g>
</g>
<g>
</g>
<g>
</g>
<g>
</g>
<g>
</g>
<g>
</g>
<g>
</g>
<g>
</g>
<g>
</g>
<g>
</g>
<g>
</g>
<g>
</g>
<g>
</g>
<g>
</g>
</svg>
