<?xml version="1.0" encoding="iso-8859-1"?>
<!-- Generator: Adobe Illustrator 19.0.0, SVG Export Plug-In . SVG Version: 6.00 Build 0)  -->
<svg version="1.1" id="Capa_1" xmlns="http://www.w3.org/2000/svg" xmlns:xlink="http://www.w3.org/1999/xlink" x="0px" y="0px"
	 viewBox="0 0 512 512" style="enable-background:new 0 0 512 512;" xml:space="preserve">
<g>
	<g>
		<path d="M488.454,0H23.546C10.563,0,0,10.563,0,23.546v384.751c0,12.983,10.563,23.546,23.546,23.546h176.845v65.127h-16.532
			c-4.15,0-7.515,3.365-7.515,7.515c0,4.15,3.365,7.515,7.515,7.515h144.282c4.151,0,7.515-3.365,7.515-7.515
			c0-4.15-3.364-7.515-7.515-7.515h-16.532v-17.033h120.736c21.823,0,39.577-17.755,39.577-39.577v-8.517h16.532
			c12.983,0,23.546-10.563,23.546-23.546V23.546C512,10.563,501.437,0,488.454,0z M296.579,496.971h-81.159v-65.127h17.033v8.517
			c0,21.823,17.755,39.577,39.577,39.577h24.548V496.971z M241.145,287.404c-46.809-7.217-81.834-47.866-81.834-95.53
			c0-53.314,43.375-96.689,96.689-96.689s96.689,43.375,96.689,96.689c0,22.283-7.705,43.832-21.724,61.036l-30.903-19.315
			c-4.919-3.076-11.497,0.591-11.497,6.372v32.564h-16.532C259.549,272.532,248.404,278.348,241.145,287.404z M456.892,440.36
			c0,13.535-11.012,24.548-24.548,24.548H272.031c-13.536,0-24.548-11.013-24.548-24.548V312.11
			c0-13.535,11.012-24.548,24.548-24.548h24.047c4.151,0,7.515-3.365,7.515-7.515v-26.52l52.628,32.892
			c1.193,0.746,2.574,1.142,3.983,1.142h72.141c13.536,0,24.548,11.013,24.548,24.548V440.36z M496.971,408.297
			c0,4.696-3.82,8.517-8.517,8.517h-16.532V383.75h25.049V408.297z M496.971,368.72h-25.049V312.11
			c0-21.823-17.755-39.577-39.577-39.577h-69.986l-18.549-11.594c15.451-19.632,23.909-43.951,23.909-69.064
			c0-61.601-50.117-111.718-111.718-111.718s-111.718,50.117-111.718,111.718c0,53.391,38.036,99.193,89.653,109.537
			c-0.958,3.406-1.481,6.991-1.481,10.698v8.517h-97.19v-8.517c0-4.15-3.365-7.515-7.515-7.515s-7.515,3.365-7.515,7.515v8.517
			H95.687c-4.15,0-7.515,3.365-7.515,7.515c0,4.15,3.365,7.515,7.515,7.515h24.548v8.517c0,4.15,3.365,7.515,7.515,7.515
			s7.515-3.365,7.515-7.515v-8.517h97.19v33.065H99.695c-4.15,0-7.515,3.365-7.515,7.515c0,4.15,3.365,7.515,7.515,7.515h132.759
			v33.065H23.546c-4.696,0-8.517-3.82-8.517-8.517V383.75h48.261c4.15,0,7.515-3.365,7.515-7.515c0-4.15-3.365-7.515-7.515-7.515
			H15.029V63.123h481.941V368.72z M496.971,48.094H15.029V23.546c0-4.696,3.82-8.517,8.517-8.517h464.908
			c4.696,0,8.517,3.82,8.517,8.517V48.094z"/>
	</g>
</g>
<g>
	<g>
		<path d="M272.031,24.047h-32.063c-4.15,0-7.515,3.365-7.515,7.515s3.365,7.515,7.515,7.515h32.063
			c4.151,0,7.515-3.365,7.515-7.515S276.182,24.047,272.031,24.047z"/>
	</g>
</g>
<g>
	<g>
		<path d="M324.293,185.623l-96.188-64.125c-4.905-3.27-11.683,0.37-11.683,6.252V256c0,5.874,6.773,9.528,11.683,6.252
			l96.188-64.125c2.091-1.393,3.346-3.739,3.346-6.252S326.384,187.015,324.293,185.623z M231.452,241.959V141.79l75.126,50.084
			L231.452,241.959z"/>
	</g>
</g>
<g>
	<g>
		<path d="M426.354,337.103c-5.613-12.909-18.024-21.303-32.39-21.905c-15.651-0.667-30.417,7.582-41.776,22.941
			c-11.357-15.359-26.119-23.605-41.776-22.941c-14.366,0.602-26.777,8.996-32.39,21.905c-6.898,15.865-2.397,34.833,12.351,52.038
			c28.444,33.184,56.985,49.122,58.187,49.784c2.236,1.233,5.02,1.233,7.256,0c1.201-0.662,29.744-16.6,58.187-49.784
			C428.75,371.936,433.251,352.968,426.354,337.103z M402.592,379.36c-20.859,24.335-42.106,38.971-50.404,44.209
			c-8.301-5.24-29.547-19.876-50.404-44.209c-10.855-12.665-14.492-25.883-9.979-36.264c3.298-7.586,10.669-12.522,19.237-12.881
			c0.356-0.015,0.712-0.022,1.067-0.022c12.539,0,24.681,9.251,33.461,25.558c2.784,5.169,10.448,5.169,13.233,0
			c9.031-16.77,21.647-26.086,34.529-25.536c8.568,0.359,15.938,5.295,19.237,12.881
			C417.085,353.477,413.448,366.695,402.592,379.36z"/>
	</g>
</g>
<g>
</g>
<g>
</g>
<g>
</g>
<g>
</g>
<g>
</g>
<g>
</g>
<g>
</g>
<g>
</g>
<g>
</g>
<g>
</g>
<g>
</g>
<g>
</g>
<g>
</g>
<g>
</g>
<g>
</g>
</svg>
