<?xml version="1.0" encoding="iso-8859-1"?>
<!-- Generator: Adobe Illustrator 19.0.0, SVG Export Plug-In . SVG Version: 6.00 Build 0)  -->
<svg version="1.1" id="Capa_1" xmlns="http://www.w3.org/2000/svg" xmlns:xlink="http://www.w3.org/1999/xlink" x="0px" y="0px"
	 viewBox="0 0 512 512" style="enable-background:new 0 0 512 512;" xml:space="preserve">
<g>
	<g>
		<circle cx="215.922" cy="31.061" r="7.515"/>
	</g>
</g>
<g>
	<g>
		<circle cx="255.499" cy="31.061" r="7.515"/>
	</g>
</g>
<g>
	<g>
		<circle cx="176.344" cy="31.061" r="7.515"/>
	</g>
</g>
<g>
	<g>
		<path d="M231.953,472.924H199.89c-4.151,0-7.515,3.365-7.515,7.515s3.364,7.515,7.515,7.515h32.063
			c4.151,0,7.515-3.365,7.515-7.515S236.104,472.924,231.953,472.924z"/>
	</g>
</g>
<g>
	<g>
		<circle cx="215.922" cy="31.061" r="7.515"/>
	</g>
</g>
<g>
	<g>
		<circle cx="255.499" cy="31.061" r="7.515"/>
	</g>
</g>
<g>
	<g>
		<circle cx="176.344" cy="31.061" r="7.515"/>
	</g>
</g>
<g>
	<g>
		<path d="M191.875,344.673h-40.078c-4.151,0-7.515,3.365-7.515,7.515s3.364,7.515,7.515,7.515h40.078
			c4.151,0,7.515-3.365,7.515-7.515S196.026,344.673,191.875,344.673z"/>
	</g>
</g>
<g>
	<g>
		<path d="M247.984,344.673h-24.047c-4.151,0-7.515,3.365-7.515,7.515s3.364,7.515,7.515,7.515h24.047
			c4.151,0,7.515-3.365,7.515-7.515S252.135,344.673,247.984,344.673z"/>
	</g>
</g>
<g>
	<g>
		<path d="M175.843,376.736h-24.047c-4.151,0-7.515,3.365-7.515,7.515s3.364,7.515,7.515,7.515h24.047
			c4.151,0,7.515-3.365,7.515-7.515S179.995,376.736,175.843,376.736z"/>
	</g>
</g>
<g>
	<g>
		<path d="M280.047,376.736H199.89c-4.151,0-7.515,3.365-7.515,7.515s3.364,7.515,7.515,7.515h80.157
			c4.151,0,7.515-3.365,7.515-7.515S284.198,376.736,280.047,376.736z"/>
	</g>
</g>
<g>
	<g>
		<path d="M408.297,88.172h-40.579V31.562C367.718,14.159,353.56,0,336.157,0H95.687C78.284,0,64.125,14.159,64.125,31.562v48.595
			c0,4.15,3.364,7.515,7.515,7.515c4.151,0,7.515-3.364,7.515-7.515V63.123h273.534v25.049H247.984
			c-21.823,0-39.577,17.755-39.577,39.577V256c0,21.823,17.755,39.577,39.577,39.577h16.532v17.033H127.75
			c-12.983,0-23.546,10.563-23.546,23.546v64.125c0,12.983,10.563,23.546,23.546,23.546h176.344
			c12.983,0,23.546-10.563,23.546-23.546v-64.125c0-9.682-5.875-18.015-14.247-21.628l25.268-18.951h14.027v153.299H79.155V115.476
			c0-4.15-3.364-7.515-7.515-7.515c-4.151,0-7.515,3.365-7.515,7.515v364.963c0,17.403,14.159,31.562,31.562,31.562h240.47
			c17.403,0,31.562-14.159,31.562-31.562V295.577h40.579c21.823,0,39.577-17.755,39.577-39.577V127.75
			C447.875,105.927,430.12,88.172,408.297,88.172z M352.689,480.438c0,9.116-7.417,16.532-16.532,16.532H95.687
			c-9.116,0-16.532-7.417-16.532-16.532v-16.532h273.534V480.438z M79.155,48.094V31.562c0-9.116,7.417-16.532,16.532-16.532h240.47
			c9.116,0,16.532,7.417,16.532,16.532v16.532H79.155z M312.611,400.282c0,4.696-3.82,8.517-8.517,8.517H127.75
			c-4.696,0-8.517-3.82-8.517-8.517v-64.125c0-4.696,3.82-8.517,8.517-8.517h136.767v8.517c0,6.057,7.157,9.662,12.023,6.012
			l19.482-14.612c0.347,0.049,5.723,0.048,8.054,0.083c4.641,0.069,8.535,3.814,8.535,8.517V400.282z M432.845,256
			c0,13.535-11.011,24.548-24.548,24.548h-48.084c-0.003,0-0.006,0-0.01,0c-0.004,0-0.006,0-0.01,0h-24.037
			c-1.626,0-3.208,0.527-4.509,1.503l-52.102,39.076v-33.065c0-4.15-3.364-7.515-7.515-7.515h-24.047
			c-13.536,0-24.548-11.012-24.548-24.548V127.75c0-13.535,11.012-24.548,24.548-24.548h112.209c0.003,0,0.006,0,0.01,0
			c0.004,0,0.006,0,0.01,0h48.084c13.536,0,24.548,11.013,24.548,24.548V256z"/>
	</g>
</g>
<g>
	<g>
		<path d="M402.307,152.743c-5.613-12.909-18.024-21.303-32.39-21.905c-15.65-0.668-30.418,7.582-41.776,22.941
			c-11.357-15.359-26.131-23.601-41.776-22.941c-14.366,0.602-26.777,8.996-32.39,21.905c-6.897,15.865-2.397,34.833,12.351,52.038
			c28.444,33.184,56.985,49.122,58.187,49.784c2.236,1.233,5.02,1.233,7.256,0c1.201-0.662,29.744-16.6,58.187-49.784
			C404.703,187.576,409.204,168.608,402.307,152.743z M378.545,195c-20.859,24.335-42.106,38.971-50.404,44.209
			c-8.301-5.24-29.547-19.876-50.404-44.209c-10.855-12.665-14.492-25.883-9.979-36.264c3.298-7.586,10.669-12.522,19.237-12.881
			c0.356-0.015,0.712-0.022,1.067-0.022c12.539,0,24.681,9.251,33.461,25.558c2.784,5.169,10.448,5.169,13.233,0
			c9.031-16.77,21.632-26.087,34.529-25.536c8.568,0.359,15.938,5.295,19.237,12.881C393.038,169.117,389.401,182.335,378.545,195z"
			/>
	</g>
</g>
<g>
	<g>
		<path d="M143.781,160.313h-32.063c-4.151,0-7.515,3.365-7.515,7.515c0,4.15,3.364,7.515,7.515,7.515h32.063
			c4.151,0,7.515-3.365,7.515-7.515C151.295,163.678,147.932,160.313,143.781,160.313z"/>
	</g>
</g>
<g>
	<g>
		<path d="M191.875,160.313h-16.031c-4.151,0-7.515,3.365-7.515,7.515c0,4.15,3.364,7.515,7.515,7.515h16.031
			c4.151,0,7.515-3.365,7.515-7.515C199.389,163.678,196.026,160.313,191.875,160.313z"/>
	</g>
</g>
<g>
	<g>
		<path d="M175.843,200.391h-64.125c-4.151,0-7.515,3.365-7.515,7.515s3.364,7.515,7.515,7.515h64.125
			c4.151,0,7.515-3.365,7.515-7.515S179.995,200.391,175.843,200.391z"/>
	</g>
</g>
<g>
	<g>
		<path d="M175.843,240.47h-64.125c-4.151,0-7.515,3.365-7.515,7.515c0,4.15,3.364,7.515,7.515,7.515h64.125
			c4.151,0,7.515-3.365,7.515-7.515C183.358,243.834,179.995,240.47,175.843,240.47z"/>
	</g>
</g>
<g>
</g>
<g>
</g>
<g>
</g>
<g>
</g>
<g>
</g>
<g>
</g>
<g>
</g>
<g>
</g>
<g>
</g>
<g>
</g>
<g>
</g>
<g>
</g>
<g>
</g>
<g>
</g>
<g>
</g>
</svg>
