<?xml version="1.0" encoding="iso-8859-1"?>
<!-- Generator: Adobe Illustrator 19.0.0, SVG Export Plug-In . SVG Version: 6.00 Build 0)  -->
<svg version="1.1" id="Capa_1" xmlns="http://www.w3.org/2000/svg" xmlns:xlink="http://www.w3.org/1999/xlink" x="0px" y="0px"
	 viewBox="0 0 512.002 512.002" style="enable-background:new 0 0 512.002 512.002;" xml:space="preserve">
<g>
	<g>
		<path d="M510.555,251.568c-1.157-1.584-28.86-39.238-73.993-77.451c-26.596-22.519-53.709-40.482-80.586-53.391
			c-33.9-16.281-67.537-24.537-99.975-24.537s-66.074,8.255-99.975,24.537c-26.878,12.909-53.99,30.872-80.586,53.391
			C30.307,212.33,2.605,249.984,1.447,251.568c-1.929,2.64-1.929,6.224,0,8.865c1.157,1.584,28.86,39.238,73.993,77.451
			c26.596,22.519,53.709,40.482,80.586,53.391c33.901,16.282,67.537,24.537,99.975,24.537s66.074-8.255,99.975-24.537
			c26.878-12.909,53.99-30.872,80.586-53.391c45.132-38.214,72.834-75.867,73.992-77.451
			C512.484,257.793,512.484,254.209,510.555,251.568z M426.85,326.415c-40.068,33.926-102.235,74.368-170.85,74.368
			c-68.506,0-130.579-40.323-170.589-74.149c-35.033-29.619-59.766-59.594-68.432-70.636c8.632-11.006,33.219-40.818,68.171-70.411
			c40.069-33.926,102.236-74.369,170.85-74.369c68.506,0,130.579,40.323,170.589,74.149c35.033,29.619,59.767,59.595,68.432,70.636
			C486.39,267.01,461.803,296.82,426.85,326.415z"/>
	</g>
</g>
<g>
	<g>
		<path d="M342.603,173.318c-2.867-3.002-7.625-3.111-10.625-0.244c-3.002,2.867-3.111,7.623-0.245,10.625
			c18.683,19.563,28.972,45.24,28.972,72.302c0,57.735-46.971,104.704-104.705,104.704s-104.705-46.97-104.705-104.704
			c0-57.735,46.971-104.705,104.705-104.705c18.804,0,37.241,5.039,53.319,14.571c3.571,2.117,8.179,0.939,10.296-2.631
			c2.116-3.57,0.939-8.18-2.631-10.296c-18.397-10.907-39.485-16.674-60.984-16.674c-66.021,0-119.734,53.713-119.734,119.734
			s53.713,119.734,119.734,119.734s119.734-53.712,119.734-119.734C375.735,225.054,363.969,195.691,342.603,173.318z"/>
	</g>
</g>
<g>
	<g>
		<path d="M330.167,224.885c-5.614-12.909-18.024-21.303-32.39-21.905c-15.641-0.666-30.417,7.583-41.776,22.941
			c-11.357-15.359-26.111-23.596-41.776-22.941c-14.366,0.602-26.777,8.996-32.39,21.905c-6.898,15.865-2.397,34.833,12.351,52.038
			c28.444,33.184,56.985,49.122,58.187,49.784c2.236,1.233,5.02,1.233,7.256,0c1.201-0.662,29.744-16.6,58.187-49.784
			C332.563,259.718,337.064,240.75,330.167,224.885z M306.405,267.142c-20.859,24.335-42.106,38.971-50.404,44.209
			c-8.301-5.24-29.547-19.876-50.404-44.209c-10.855-12.665-14.492-25.883-9.979-36.264c3.298-7.586,10.669-12.522,19.237-12.881
			c0.356-0.015,0.712-0.022,1.067-0.022c12.538,0,24.681,9.251,33.461,25.558c2.784,5.169,10.448,5.169,13.233,0
			c9.032-16.77,21.652-26.089,34.529-25.536c8.569,0.359,15.94,5.295,19.239,12.881C320.898,241.259,317.26,254.477,306.405,267.142
			z"/>
	</g>
</g>
<g>
	<g>
		<path d="M256.001,448.878c-4.151,0-7.515,3.365-7.515,7.515v24.047c0,4.15,3.364,7.515,7.515,7.515
			c4.151,0,7.515-3.365,7.515-7.515v-24.047C263.515,452.242,260.152,448.878,256.001,448.878z"/>
	</g>
</g>
<g>
	<g>
		<path d="M256.001,24.048c-4.151,0-7.515,3.365-7.515,7.515v24.047c0,4.15,3.365,7.515,7.515,7.515
			c4.151,0,7.515-3.365,7.515-7.515V31.562C263.515,27.412,260.152,24.048,256.001,24.048z"/>
	</g>
</g>
<g>
	<g>
		<path d="M162.314,78.7L150.29,57.874c-2.074-3.594-6.672-4.825-10.265-2.75c-3.594,2.075-4.825,6.671-2.75,10.265l12.022,20.826
			c2.208,3.826,7.402,4.914,10.967,2.292C163.308,86.268,164.2,81.969,162.314,78.7z"/>
	</g>
</g>
<g>
	<g>
		<path d="M159.562,423.037c-3.597-2.076-8.191-0.844-10.265,2.75l-12.023,20.826c-1.888,3.269-0.995,7.569,2.049,9.807
			c3.565,2.621,8.759,1.534,10.967-2.292l12.023-20.826C164.389,429.708,163.156,425.112,159.562,423.037z"/>
	</g>
</g>
<g>
	<g>
		<path d="M374.729,446.613l-12.025-20.826c-2.074-3.594-6.673-4.825-10.265-2.75c-3.594,2.075-4.825,6.671-2.75,10.265
			l12.023,20.826c2.208,3.826,7.402,4.914,10.967,2.292C375.724,454.182,376.615,449.882,374.729,446.613z"/>
	</g>
</g>
<g>
	<g>
		<path d="M371.977,55.123c-3.596-2.076-8.191-0.844-10.265,2.75L349.689,78.7c-2.075,3.595-0.844,8.19,2.75,10.265
			c3.55,2.05,8.219,0.795,10.265-2.75l12.023-20.826C376.803,61.794,375.571,57.198,371.977,55.123z"/>
	</g>
</g>
<g>
</g>
<g>
</g>
<g>
</g>
<g>
</g>
<g>
</g>
<g>
</g>
<g>
</g>
<g>
</g>
<g>
</g>
<g>
</g>
<g>
</g>
<g>
</g>
<g>
</g>
<g>
</g>
<g>
</g>
</svg>
