<?xml version="1.0" encoding="iso-8859-1"?>
<!-- Generator: Adobe Illustrator 19.0.0, SVG Export Plug-In . SVG Version: 6.00 Build 0)  -->
<svg version="1.1" id="Capa_1" xmlns="http://www.w3.org/2000/svg" xmlns:xlink="http://www.w3.org/1999/xlink" x="0px" y="0px"
	 viewBox="0 0 512 512" style="enable-background:new 0 0 512 512;" xml:space="preserve">
<g>
	<g>
		<circle cx="256" cy="448.877" r="7.515"/>
	</g>
</g>
<g>
	<g>
		<circle cx="256" cy="479.937" r="7.515"/>
	</g>
</g>
<g>
	<g>
		<path d="M256,0c-61.601,0-111.718,50.117-111.718,111.718c0,67.054,102.762,146.873,107.136,150.238
			c2.67,2.054,6.493,2.054,9.164,0c4.375-3.366,107.136-83.185,107.136-150.238C367.718,50.117,317.601,0,256,0z M256,246.373
			c-19.777-16.162-96.689-82.387-96.689-134.655c0-53.314,43.375-96.689,96.689-96.689s96.689,43.375,96.689,96.689
			C352.689,163.986,275.777,230.212,256,246.373z"/>
	</g>
</g>
<g>
	<g>
		<path d="M330.166,88.618c-5.613-12.909-18.024-21.303-32.39-21.905c-15.642-0.664-30.418,7.582-41.776,22.941
			c-11.357-15.359-26.136-23.609-41.776-22.941c-14.366,0.602-26.778,8.996-32.39,21.905c-6.898,15.865-2.397,34.833,12.351,52.038
			c28.444,33.184,56.986,49.122,58.187,49.784c1.129,0.622,2.379,0.934,3.628,0.934s2.499-0.312,3.628-0.934
			c1.201-0.662,29.744-16.6,58.187-49.784C332.562,123.451,337.063,104.483,330.166,88.618z M306.405,130.875
			c-20.859,24.335-42.106,38.971-50.404,44.209c-8.303-5.241-29.548-19.876-50.405-44.209
			c-10.855-12.665-14.492-25.883-9.979-36.264c3.298-7.586,10.67-12.522,19.238-12.881c0.356-0.015,0.711-0.022,1.068-0.022
			c12.537,0,24.68,9.251,33.461,25.558c2.783,5.169,10.449,5.17,13.233,0c9.031-16.77,21.631-26.09,34.529-25.536
			c8.568,0.359,15.939,5.295,19.238,12.881C320.898,104.992,317.261,118.21,306.405,130.875z"/>
	</g>
</g>
<g>
	<g>
		<path d="M344.172,272.532H167.828c-21.823,0-39.577,17.755-39.577,39.577v80.157c0,4.15,3.365,7.515,7.515,7.515
			c4.15,0,7.515-3.365,7.515-7.515V312.11c0-13.535,11.013-24.548,24.548-24.548h19.278l62.095,131.951
			c2.652,5.638,10.946,5.639,13.599,0l62.095-131.951h19.278c13.535,0,24.548,11.013,24.548,24.548v184.861H143.28v-67.632
			c0-4.15-3.365-7.515-7.515-7.515c-4.15,0-7.515,3.365-7.515,7.515v75.147c0,4.15,3.365,7.515,7.515,7.515h240.47
			c4.15,0,7.515-3.365,7.515-7.515V312.11C383.75,290.287,365.995,272.532,344.172,272.532z M270.422,287.562l-4.258,17.033h-20.328
			l-4.258-17.033H270.422z M228.607,340.457l-24.892-52.895h22.37l6.244,24.978L228.607,340.457z M256,398.665l-15.577-33.102
			l6.125-45.939h18.904l5.97,44.768c0.047,0.356,0.127,0.697,0.22,1.033L256,398.665z M283.391,340.457l-3.722-27.918l6.245-24.978
			h22.37L283.391,340.457z"/>
	</g>
</g>
<g>
	<g>
		<circle cx="256" cy="448.877" r="7.515"/>
	</g>
</g>
<g>
	<g>
		<circle cx="256" cy="479.937" r="7.515"/>
	</g>
</g>
<g>
	<g>
		<path d="M488.454,160.313h-80.157c-12.983,0-23.546,10.563-23.546,23.546v88.172c0,5.72,6.456,9.399,11.381,6.444l38.294-22.976
			h54.027c12.983,0,23.546-10.563,23.546-23.546v-48.094C512,170.876,501.437,160.313,488.454,160.313z M496.971,231.953
			c0,4.696-3.82,8.517-8.517,8.517h-56.11c-1.362,0-2.698,0.371-3.867,1.071l-28.697,17.218v-74.899c0-4.696,3.82-8.517,8.517-8.517
			h80.157c4.696,0,8.517,3.82,8.517,8.517V231.953z"/>
	</g>
</g>
<g>
	<g>
		<circle cx="424.329" cy="208.407" r="7.515"/>
	</g>
</g>
<g>
	<g>
		<circle cx="448.877" cy="208.407" r="7.515"/>
	</g>
</g>
<g>
	<g>
		<circle cx="473.425" cy="208.407" r="7.515"/>
	</g>
</g>
<g>
	<g>
		<path d="M103.703,104.203H23.546C10.563,104.203,0,114.766,0,127.75v48.094c0,12.983,10.563,23.546,23.546,23.546h54.028
			l38.294,22.976c4.926,2.955,11.381-0.722,11.381-6.444V127.75C127.249,114.766,116.686,104.203,103.703,104.203z M112.219,202.649
			L83.522,185.43c-1.168-0.699-2.505-1.07-3.867-1.07h-56.11c-4.696,0-8.517-3.82-8.517-8.517V127.75
			c0-4.696,3.82-8.517,8.517-8.517h80.157c4.696,0,8.517,3.82,8.517,8.517V202.649z"/>
	</g>
</g>
<g>
	<g>
		<circle cx="87.671" cy="152.297" r="7.515"/>
	</g>
</g>
<g>
	<g>
		<circle cx="63.123" cy="152.297" r="7.515"/>
	</g>
</g>
<g>
	<g>
		<circle cx="38.575" cy="152.297" r="7.515"/>
	</g>
</g>
<g>
</g>
<g>
</g>
<g>
</g>
<g>
</g>
<g>
</g>
<g>
</g>
<g>
</g>
<g>
</g>
<g>
</g>
<g>
</g>
<g>
</g>
<g>
</g>
<g>
</g>
<g>
</g>
<g>
</g>
</svg>
