<?xml version="1.0" encoding="iso-8859-1"?>
<!-- Generator: Adobe Illustrator 19.0.0, SVG Export Plug-In . SVG Version: 6.00 Build 0)  -->
<svg version="1.1" id="Capa_1" xmlns="http://www.w3.org/2000/svg" xmlns:xlink="http://www.w3.org/1999/xlink" x="0px" y="0px"
	 viewBox="0 0 511.999 511.999" style="enable-background:new 0 0 511.999 511.999;" xml:space="preserve">
<g>
	<g>
		<path d="M488.457,0H23.543c-4.15,0-7.515,3.365-7.515,7.515v56.444c0,4.15,3.365,7.515,7.515,7.515s7.515-3.365,7.515-7.515V15.03
			h449.885v189.691l-83.153-90.082c-2.813-3.047-7.727-3.197-10.722-0.329L199.296,294.259l-91.086-68.314
			c-2.992-2.244-7.179-1.946-9.822,0.698l-67.329,67.329V95.688c0-4.15-3.365-7.515-7.515-7.515c-4.15,0-7.515,3.365-7.515,7.515
			v296.583c0,4.15,3.365,7.515,7.515,7.515h184.392c4.277,9.986,10.527,19.9,18.703,29.439
			c48.524,56.611,96.515,80.979,98.534,81.988c2.097,1.048,4.624,1.048,6.721,0c2.019-1.009,50.01-25.377,98.534-81.988
			c8.176-9.539,14.425-19.453,18.703-29.439h39.327c4.15,0,7.515-3.365,7.515-7.515V7.515C495.972,3.365,492.607,0,488.457,0z
			 M419.016,419.444c-39.263,45.806-78.907,69.992-90.484,76.503c-11.586-6.517-51.226-30.703-90.484-76.503
			c-20.641-24.081-27.069-50.334-17.637-72.028c7.235-16.641,22.705-27.438,40.371-28.178c0.652-0.027,1.303-0.041,1.954-0.041
			c22.388,0,43.862,16.132,59.178,44.575c2.783,5.169,10.45,5.17,13.233,0c15.76-29.27,38.035-45.519,61.132-44.534
			c17.667,0.74,33.137,11.538,40.371,28.178C446.085,369.11,439.657,395.363,419.016,419.444z M480.942,384.757h-26.874
			c3.406-14.966,2.272-29.753-3.632-43.333c-9.549-21.963-30.059-36.218-53.525-37.202c-25.776-1.074-50.21,13.836-68.379,41.333
			c-18.168-27.497-42.608-42.411-68.378-41.333c-23.466,0.984-43.976,15.239-53.525,37.202c-5.905,13.581-7.038,28.367-3.632,43.333
			H31.057v-69.531l73.348-73.348l90.975,68.231c2.943,2.208,7.051,1.959,9.708-0.586l186.85-179.065l89.003,96.42V384.757z"/>
	</g>
</g>
<g>
	<g>
		<path d="M199.889,72.142c-30.663,0-55.609,24.946-55.609,55.609c0,30.663,24.946,55.609,55.609,55.609
			c30.663,0,55.609-24.946,55.609-55.609C255.499,97.088,230.553,72.142,199.889,72.142z M199.889,168.331
			c-22.376,0-40.58-18.204-40.58-40.58c0-22.376,18.205-40.58,40.58-40.58c22.376,0,40.58,18.204,40.58,40.58
			C240.469,150.127,222.265,168.331,199.889,168.331z"/>
	</g>
</g>
<g>
	<g>
		<path d="M199.889,24.047c-4.15,0-7.515,3.365-7.515,7.515v16.032c0,4.15,3.365,7.515,7.515,7.515c4.15,0,7.515-3.365,7.515-7.515
			V31.562C207.404,27.412,204.04,24.047,199.889,24.047z"/>
	</g>
</g>
<g>
	<g>
		<path d="M166.318,54.575l-8.016-13.883c-2.075-3.594-6.672-4.826-10.265-2.75c-3.594,2.075-4.826,6.671-2.75,10.265l8.016,13.883
			c1.392,2.411,3.918,3.758,6.515,3.758C165.517,65.849,169.151,59.481,166.318,54.575z"/>
	</g>
</g>
<g>
	<g>
		<path d="M134.228,81.165l-13.883-8.016c-3.595-2.076-8.19-0.844-10.265,2.75c-2.075,3.594-0.844,8.19,2.75,10.265l13.883,8.016
			c3.834,2.214,8.871,0.545,10.644-3.499C138.874,87.222,137.498,83.051,134.228,81.165z"/>
	</g>
</g>
<g>
	<g>
		<path d="M119.732,120.236H103.7c-4.15,0-7.515,3.365-7.515,7.515c0,4.15,3.365,7.515,7.515,7.515h16.032
			c4.15,0,7.515-3.365,7.515-7.515C127.246,123.601,123.882,120.236,119.732,120.236z"/>
	</g>
</g>
<g>
	<g>
		<path d="M136.979,164.074c-2.075-3.594-6.671-4.828-10.265-2.751l-13.883,8.016c-3.269,1.887-4.646,6.057-3.129,9.518
			c1.772,4.044,6.81,5.713,10.644,3.499l13.883-8.016C137.822,172.264,139.054,167.668,136.979,164.074z"/>
	</g>
</g>
<g>
	<g>
		<path d="M163.569,190.662c-3.596-2.075-8.19-0.844-10.266,2.75l-8.016,13.883c-1.888,3.269-0.995,7.569,2.049,9.807
			c3.565,2.621,8.758,1.534,10.968-2.292l8.016-13.883C168.394,197.333,167.163,192.737,163.569,190.662z"/>
	</g>
</g>
<g>
	<g>
		<path d="M199.889,200.394c-4.15,0-7.515,3.365-7.515,7.515v16.031c0,4.15,3.365,7.515,7.515,7.515c4.15,0,7.515-3.365,7.515-7.515
			v-16.031C207.404,203.759,204.04,200.394,199.889,200.394z"/>
	</g>
</g>
<g>
	<g>
		<path d="M254.493,207.296l-8.016-13.883c-2.076-3.595-6.672-4.826-10.266-2.75s-4.826,6.671-2.75,10.265l8.016,13.883
			c2.208,3.826,7.403,4.914,10.968,2.292C255.488,214.865,256.379,210.565,254.493,207.296z"/>
	</g>
</g>
<g>
	<g>
		<path d="M286.95,169.337l-13.883-8.016c-3.594-2.076-8.19-0.844-10.265,2.75c-2.076,3.595-0.845,8.191,2.75,10.266l13.883,8.016
			c3.833,2.214,8.871,0.545,10.644-3.499C291.596,175.395,290.219,171.225,286.95,169.337z"/>
	</g>
</g>
<g>
	<g>
		<path d="M296.079,120.236h-16.031c-4.15,0-7.515,3.365-7.515,7.515c0,4.15,3.365,7.515,7.515,7.515h16.031
			c4.15,0,7.515-3.365,7.515-7.515C303.593,123.601,300.229,120.236,296.079,120.236z"/>
	</g>
</g>
<g>
	<g>
		<path d="M289.7,75.9c-2.075-3.596-6.672-4.828-10.265-2.751l-13.883,8.016c-3.269,1.887-4.646,6.057-3.129,9.518
			c1.772,4.044,6.81,5.713,10.644,3.499l13.883-8.016C290.544,84.09,291.775,79.494,289.7,75.9z"/>
	</g>
</g>
<g>
	<g>
		<path d="M251.742,37.942c-3.595-2.076-8.19-0.844-10.265,2.75l-8.016,13.883c-2.834,4.906,0.801,11.273,6.501,11.273
			c2.597,0,5.123-1.349,6.515-3.758l8.016-13.883C256.568,44.613,255.336,40.017,251.742,37.942z"/>
	</g>
</g>
<g>
</g>
<g>
</g>
<g>
</g>
<g>
</g>
<g>
</g>
<g>
</g>
<g>
</g>
<g>
</g>
<g>
</g>
<g>
</g>
<g>
</g>
<g>
</g>
<g>
</g>
<g>
</g>
<g>
</g>
</svg>
