<?xml version="1.0" encoding="iso-8859-1"?>
<!-- Generator: Adobe Illustrator 19.0.0, SVG Export Plug-In . SVG Version: 6.00 Build 0)  -->
<svg version="1.1" id="Capa_1" xmlns="http://www.w3.org/2000/svg" xmlns:xlink="http://www.w3.org/1999/xlink" x="0px" y="0px"
	 viewBox="0 0 512 512" style="enable-background:new 0 0 512 512;" xml:space="preserve">
<g>
	<g>
		<path d="M472.423,128.25h-83.528l-38.001-76.002c-1.273-2.546-3.875-4.154-6.721-4.154h-96.188c-2.847,0-5.449,1.608-6.721,4.154
			l-38.001,76.002h-67.998v-8.517c0-12.983-10.563-23.546-23.546-23.546H63.624c-12.983,0-23.546,10.563-23.546,23.546v8.517h-0.501
			C17.755,128.25,0,146.005,0,167.828v256.501c0,21.823,17.755,39.577,39.577,39.577h432.845c21.823,0,39.577-17.755,39.577-39.577
			V167.828C512,146.005,494.245,128.25,472.423,128.25z M252.628,63.123h86.9l32.564,65.127h-22.57l-14.913-43.04
			c-1.049-3.026-3.9-5.054-7.101-5.054h-62.859c-3.201,0-6.052,2.029-7.101,5.054l-14.913,43.04h-22.57L252.628,63.123z
			 M333.616,128.25h-75.075l11.457-33.065h52.161L333.616,128.25z M55.108,119.734c0-4.696,3.82-8.517,8.517-8.517h48.094
			c4.696,0,8.517,3.82,8.517,8.517v8.517H55.108V119.734z M496.971,424.329c0,13.535-11.011,24.548-24.548,24.548h-353.19V404.29
			c0-4.15-3.365-7.515-7.515-7.515s-7.515,3.365-7.515,7.515v44.587H39.577c-13.535,0-24.548-11.013-24.548-24.548V167.828
			c0-13.535,11.013-24.548,24.548-24.548h120.736v98.367c0,9.304-5.127,17.68-13.381,21.856
			c-5.836,2.953-11.264,6.621-16.131,10.901c-21.145,18.599-25.621,43.27-26.564,53.013c-0.023,0.24-0.035,0.482-0.035,0.723v40.078
			c0,4.15,3.365,7.515,7.515,7.515c4.15,0,7.515-3.365,7.515-7.515v-39.705c0.843-8.192,4.622-27.984,21.496-42.826
			c3.914-3.443,8.284-6.396,12.989-8.776c13.339-6.749,21.625-20.263,21.625-35.265V143.28h297.08
			c13.536,0,24.548,11.013,24.548,24.548V424.329z"/>
	</g>
</g>
<g>
	<g>
		<path d="M296.078,192.376c-61.601,0-111.718,50.117-111.718,111.718s50.117,111.718,111.718,111.718
			s111.718-50.117,111.718-111.718S357.68,192.376,296.078,192.376z M296.078,400.783c-53.314,0-96.689-43.375-96.689-96.689
			s43.375-96.689,96.689-96.689c53.314,0,96.689,43.375,96.689,96.689S349.392,400.783,296.078,400.783z"/>
	</g>
</g>
<g>
	<g>
		<path d="M370.244,270.424c-5.613-12.908-18.024-21.302-32.39-21.904c-15.64-0.652-30.417,7.582-41.776,22.941
			c-11.357-15.359-26.141-23.609-41.776-22.941c-14.366,0.602-26.777,8.996-32.39,21.904c-6.898,15.866-2.397,34.833,12.351,52.039
			c28.444,33.184,56.985,49.122,58.187,49.784c2.236,1.233,5.02,1.233,7.256,0c1.201-0.662,29.744-16.6,58.187-49.784
			C372.641,305.257,377.142,286.29,370.244,270.424z M346.483,312.682c-20.859,24.335-42.106,38.971-50.404,44.209
			c-8.301-5.24-29.547-19.876-50.404-44.209c-10.855-12.665-14.492-25.884-9.979-36.265c3.298-7.586,10.67-12.521,19.237-12.88
			c0.357-0.015,0.712-0.022,1.068-0.022c12.537,0,24.681,9.251,33.461,25.558c2.784,5.169,10.448,5.169,13.233,0
			c9.031-16.77,21.638-26.075,34.529-25.536c8.568,0.359,15.938,5.295,19.237,12.88
			C360.975,286.798,357.338,300.017,346.483,312.682z"/>
	</g>
</g>
<g>
	<g>
		<path d="M464.407,152.297h-64.125c-12.983,0-23.546,10.563-23.546,23.546v16.031c0,12.983,10.563,23.546,23.546,23.546h64.125
			c12.983,0,23.546-10.563,23.546-23.546v-16.031C487.953,162.86,477.39,152.297,464.407,152.297z M472.924,191.875
			c0,4.696-3.82,8.517-8.517,8.517h-64.125c-4.696,0-8.517-3.82-8.517-8.517v-16.031c0-4.696,3.82-8.517,8.517-8.517h64.125
			c4.696,0,8.517,3.82,8.517,8.517V191.875z"/>
	</g>
</g>
<g>
	<g>
		<path d="M448.376,272.532c-17.403,0-31.562,14.159-31.562,31.562s14.159,31.562,31.562,31.562s31.562-14.159,31.562-31.562
			S465.779,272.532,448.376,272.532z M448.376,320.626c-9.116,0-16.532-7.417-16.532-16.532s7.417-16.532,16.532-16.532
			s16.532,7.417,16.532,16.532S457.492,320.626,448.376,320.626z"/>
	</g>
</g>
<g>
</g>
<g>
</g>
<g>
</g>
<g>
</g>
<g>
</g>
<g>
</g>
<g>
</g>
<g>
</g>
<g>
</g>
<g>
</g>
<g>
</g>
<g>
</g>
<g>
</g>
<g>
</g>
<g>
</g>
</svg>
