<?xml version="1.0" encoding="iso-8859-1"?>
<!-- Generator: Adobe Illustrator 19.0.0, SVG Export Plug-In . SVG Version: 6.00 Build 0)  -->
<svg version="1.1" id="Capa_1" xmlns="http://www.w3.org/2000/svg" xmlns:xlink="http://www.w3.org/1999/xlink" x="0px" y="0px"
	 viewBox="0 0 512 512" style="enable-background:new 0 0 512 512;" xml:space="preserve">
<g>
	<g>
		<path d="M348.18,368.72h-84.665v-64.626c0-4.15-3.365-7.515-7.515-7.515s-7.515,3.365-7.515,7.515v64.626H47.593
			c-4.15,0-7.515,3.365-7.515,7.515v40.078c0,0.37,0.036,0.729,0.087,1.084C17.438,420.975,0,440.691,0,464.407
			C0,490.649,21.351,512,47.593,512s47.593-21.351,47.593-47.593c0-23.716-17.438-43.432-40.165-47.01
			c0.051-0.355,0.087-0.714,0.087-1.084V383.75h193.378v33.664c-22.684,3.614-40.078,23.309-40.078,46.994
			C208.407,490.649,229.758,512,256,512s47.593-21.351,47.593-47.593c0-23.685-17.394-43.38-40.078-46.994V383.75h84.665
			c4.15,0,7.515-3.365,7.515-7.515C355.695,372.085,352.33,368.72,348.18,368.72z M80.157,464.407
			c0,17.955-14.609,32.564-32.564,32.564s-32.564-14.609-32.564-32.564s14.609-32.564,32.564-32.564S80.157,446.452,80.157,464.407z
			 M288.564,464.407c0,17.955-14.609,32.564-32.564,32.564s-32.564-14.609-32.564-32.564s14.609-32.564,32.564-32.564
			S288.564,446.452,288.564,464.407z"/>
	</g>
</g>
<g>
	<g>
		<path d="M471.835,417.397c0.051-0.355,0.087-0.715,0.087-1.084v-40.078c0-4.15-3.365-7.515-7.515-7.515H384.25
			c-4.15,0-7.515,3.365-7.515,7.515c0,4.15,3.365,7.515,7.515,7.515h72.642v32.564c0,0.37,0.036,0.729,0.087,1.084
			c-22.727,3.578-40.165,23.294-40.165,47.01c0,26.242,21.351,47.593,47.593,47.593S512,490.649,512,464.407
			C512,440.691,494.562,420.975,471.835,417.397z M464.407,496.971c-17.955,0-32.564-14.609-32.564-32.564
			s14.609-32.564,32.564-32.564s32.564,14.609,32.564,32.564S482.362,496.971,464.407,496.971z"/>
	</g>
</g>
<g>
	<g>
		<path d="M324.878,26.186C305.886,9.3,281.425,0,256,0s-49.886,9.3-68.879,26.186c-3.102,2.757-3.381,7.508-0.623,10.609
			c2.758,3.102,7.509,3.381,10.61,0.623C213.346,22.981,234.261,15.029,256,15.029c21.74,0,42.654,7.952,58.892,22.389
			c3.308,2.943,8.594,2.323,11.142-1.295C328.206,33.041,327.693,28.69,324.878,26.186z"/>
	</g>
</g>
<g>
	<g>
		<path d="M301.979,48.774C289.116,37.997,272.787,32.063,256,32.063s-33.116,5.935-45.979,16.712
			c-3.181,2.666-3.599,7.405-0.934,10.587c2.666,3.181,7.405,3.599,10.587,0.934c10.162-8.514,23.062-13.203,36.326-13.203
			s26.164,4.689,36.326,13.203c1.408,1.179,3.119,1.754,4.822,1.754C304.037,62.049,307.233,53.178,301.979,48.774z"/>
	</g>
</g>
<g>
	<g>
		<path d="M278.597,71.219c-6.658-4.641-14.472-7.094-22.597-7.094s-15.939,2.453-22.599,7.093
			c-3.406,2.373-4.242,7.056-1.871,10.461c2.373,3.406,7.057,4.242,10.461,1.871c4.127-2.876,8.971-4.395,14.007-4.395
			c5.037,0,9.881,1.52,14.007,4.395c3.629,2.529,8.792,1.297,10.902-2.583C282.713,77.649,281.695,73.376,278.597,71.219z"/>
	</g>
</g>
<g>
	<g>
		<path d="M332.149,200.391c-0.167,0-0.334,0.012-0.501,0.016v-24.564c0-39.502-32.138-71.64-71.64-71.64H163.82
			c-5.221,0-8.919,5.45-6.977,10.306l31.525,78.812v7.087c-0.167-0.004-0.334-0.017-0.501-0.017
			c-12.983,0-23.546,10.563-23.546,23.546s10.563,23.546,23.546,23.546c0.898,0,1.789-0.067,2.676-0.167
			c6.685,23.211,28.1,40.246,53.433,40.246h32.063c25.331,0,46.745-17.031,53.431-40.24c0.888,0.101,1.78,0.161,2.678,0.161
			c12.983,0,23.546-10.563,23.546-23.546S345.132,200.391,332.149,200.391z M187.867,232.454c-4.696,0-8.517-3.82-8.517-8.517
			s3.82-8.517,8.517-8.517c0.168,0,0.334,0.025,0.501,0.035v16.497c0,0.155,0.01,0.309,0.012,0.463
			C188.209,232.426,188.039,232.454,187.867,232.454z M316.618,231.953c0,22.376-18.204,40.579-40.579,40.579h-32.063
			c-22.376,0-40.579-18.204-40.579-40.579v-36.056l17.411-11.608l36.408,14.563c1.792,0.717,3.79,0.717,5.582,0l36.408-14.563
			l17.412,11.608V231.953z M316.618,177.833l-12.364-8.243c-2.058-1.373-4.661-1.643-6.96-0.724l-37.287,14.915l-37.287-14.915
			c-2.276-0.91-4.92-0.636-6.96,0.724l-16.341,10.894l-24.501-61.252h85.088c31.215,0,56.611,25.396,56.611,56.611V177.833z
			 M332.149,232.454c-0.172,0-0.342-0.023-0.513-0.033c0.001-0.156,0.012-0.311,0.012-0.468v-16.501
			c0.167-0.01,0.333-0.031,0.501-0.031c4.696,0,8.517,3.82,8.517,8.517S336.845,232.454,332.149,232.454z"/>
	</g>
</g>
<g>
	<g>
		<path d="M290.067,235.46c-2.49-3.32-7.201-3.993-10.521-1.503c-7.556,5.667-15.484,6.513-19.538,6.513
			c-9.444,0-16.295-4.08-19.538-6.513c-3.319-2.49-8.031-1.817-10.521,1.503c-2.49,3.319-1.817,8.031,1.503,10.521
			c4.739,3.555,14.753,9.519,28.556,9.519c5.925,0,17.513-1.236,28.556-9.519C291.883,243.491,292.556,238.78,290.067,235.46z"/>
	</g>
</g>
<g>
	<g>
		<circle cx="228.446" cy="216.423" r="7.515"/>
	</g>
</g>
<g>
	<g>
		<circle cx="291.569" cy="216.423" r="7.515"/>
	</g>
</g>
<g>
</g>
<g>
</g>
<g>
</g>
<g>
</g>
<g>
</g>
<g>
</g>
<g>
</g>
<g>
</g>
<g>
</g>
<g>
</g>
<g>
</g>
<g>
</g>
<g>
</g>
<g>
</g>
<g>
</g>
</svg>
