<?xml version="1.0" encoding="iso-8859-1"?>
<!-- Generator: Adobe Illustrator 19.0.0, SVG Export Plug-In . SVG Version: 6.00 Build 0)  -->
<svg version="1.1" id="Capa_1" xmlns="http://www.w3.org/2000/svg" xmlns:xlink="http://www.w3.org/1999/xlink" x="0px" y="0px"
	 viewBox="0 0 512 512" style="enable-background:new 0 0 512 512;" xml:space="preserve">
<g>
	<g>
		<path d="M506.465,97.001c-9.548-21.958-30.052-36.21-53.513-37.193c-25.797-1.08-50.199,13.833-68.362,41.323
			c-18.163-27.491-42.573-42.406-68.362-41.323c-23.461,0.984-43.966,15.235-53.513,37.193c-1.597,3.673-2.833,7.438-3.736,11.268
			h-125.34c1.82-1.989,3.647-4.047,5.474-6.178c14.745-17.201,19.244-36.165,12.348-52.027
			c-5.612-12.905-18.02-21.297-32.383-21.899c-15.637-0.667-30.412,7.58-41.766,22.936C65.957,35.744,51.159,27.497,35.545,28.164
			c-14.363,0.603-26.771,8.995-32.383,21.9c-6.896,15.862-2.396,34.825,12.348,52.027c9.903,11.554,19.815,21.011,28.584,28.466
			c-2.607,5.362-3.991,11.251-3.991,17.281v48.083c0,4.149,3.364,7.513,7.513,7.513c4.149,0,7.513-3.364,7.513-7.513v-48.083
			c0-2.581,0.416-5.116,1.194-7.534c10.009,7.457,16.789,11.245,17.361,11.56c2.236,1.233,5.019,1.233,7.255,0
			c0.912-0.503,17.586-9.82,38.007-28.795c0.577,0.142,1.177,0.225,1.797,0.225h136.443c-0.138,20.304,8.575,41.703,25.532,61.487
			c48.513,56.598,96.492,80.96,98.51,81.969c2.097,1.048,4.624,1.048,6.721,0c0.79-0.396,8.631-4.374,20.792-12.466v109.926
			c0,11.33-7.718,20.886-18.171,23.699c2.049-8.802,1.435-17.435-1.985-25.306c-5.613-12.905-18.02-21.297-32.383-21.899
			c-15.642-0.663-30.411,7.58-41.766,22.936c-11.355-15.355-26.144-23.593-41.765-22.936c-14.364,0.602-26.772,8.994-32.384,21.899
			c-3.531,8.121-4.067,17.056-1.778,26.149h-14.586c-1.757,0-3.46,0.616-4.809,1.741l-83.844,69.87v-64.098
			c0-4.149-3.364-7.513-7.513-7.513H79.673c-13.532,0-24.542-11.01-24.542-24.542V231.649c0-4.149-3.364-7.513-7.513-7.513
			s-7.513,3.364-7.513,7.513v132.562c0,21.818,17.751,39.568,39.568,39.568h40.57v72.626c0,6.223,7.517,9.777,12.322,5.772
			l94.077-78.398h18.178c2.162,3.663,4.765,7.296,7.814,10.852c28.437,33.176,56.973,49.111,58.174,49.773
			c2.236,1.233,5.019,1.233,7.255,0c1.201-0.662,29.737-16.597,58.174-49.773c3.048-3.556,5.651-7.187,7.814-10.852h0.15
			c21.818,0,39.568-17.751,39.568-39.568V243.665c17.75-13.269,40.163-32.597,62.693-58.883
			C510.987,156.167,518.279,124.172,506.465,97.001z M77.312,136.51c-8.3-5.239-29.54-19.871-50.393-44.199
			c-10.853-12.662-14.489-25.878-9.976-36.257c3.298-7.584,10.666-12.519,19.232-12.877c0.356-0.015,0.712-0.022,1.068-0.022
			c12.535,0,24.676,9.249,33.454,25.552c2.783,5.168,10.447,5.169,13.23,0c9.028-16.766,21.6-26.078,34.522-25.53
			c8.566,0.359,15.936,5.293,19.233,12.877c4.513,10.379,0.877,23.595-9.976,36.257C106.851,116.641,85.608,131.274,77.312,136.51z
			 M364.827,404.852c-20.853,24.33-42.096,38.963-50.392,44.199c-8.299-5.239-29.54-19.871-50.393-44.199
			c-10.853-12.662-14.489-25.877-9.976-36.256c3.298-7.585,10.666-12.52,19.232-12.878c0.356-0.015,0.712-0.022,1.067-0.022
			c12.536,0,24.676,9.249,33.454,25.552c1.31,2.433,3.852,3.951,6.615,3.951s5.305-1.518,6.615-3.951
			c9.03-16.766,21.639-26.083,34.522-25.53c8.566,0.359,15.935,5.294,19.232,12.877C379.316,378.974,375.68,392.19,364.827,404.852z
			 M475.052,175.003c-39.254,45.795-78.888,69.975-90.463,76.485c-11.583-6.515-51.215-30.696-90.463-76.485
			c-20.637-24.076-27.063-50.322-17.633-72.011c7.234-16.637,22.699-27.431,40.363-28.172c0.652-0.027,1.302-0.041,1.953-0.041
			c22.383,0,43.852,16.128,59.164,44.564c2.782,5.168,10.448,5.169,13.23,0c15.756-29.263,38.036-45.496,61.118-44.523
			c17.664,0.74,33.128,11.535,40.362,28.172C502.115,124.681,495.688,150.927,475.052,175.003z"/>
	</g>
</g>
<g>
	<g>
		<path d="M159.811,180.393H95.701c-4.149,0-7.513,3.364-7.513,7.513c0,4.149,3.364,7.513,7.513,7.513h64.111
			c4.149,0,7.513-3.364,7.513-7.513C167.324,183.757,163.961,180.393,159.811,180.393z"/>
	</g>
</g>
<g>
	<g>
		<path d="M239.95,180.393h-48.083c-4.149,0-7.513,3.364-7.513,7.513c0,4.149,3.364,7.513,7.513,7.513h48.083
			c4.149,0,7.513-3.364,7.513-7.513C247.463,183.757,244.099,180.393,239.95,180.393z"/>
	</g>
</g>
<g>
	<g>
		<path d="M199.881,244.504H95.701c-4.149,0-7.513,3.364-7.513,7.513c0,4.149,3.364,7.513,7.513,7.513h104.18
			c4.149,0,7.513-3.364,7.513-7.513C207.394,247.868,204.03,244.504,199.881,244.504z"/>
	</g>
</g>
<g>
	<g>
		<path d="M288.033,244.504H239.95c-4.149,0-7.513,3.364-7.513,7.513c0,4.149,3.364,7.513,7.513,7.513h48.083
			c4.15,0,7.513-3.364,7.513-7.513C295.546,247.868,292.182,244.504,288.033,244.504z"/>
	</g>
</g>
<g>
	<g>
		<path d="M159.811,284.574H95.701c-4.149,0-7.513,3.364-7.513,7.513s3.364,7.513,7.513,7.513h64.111
			c4.149,0,7.513-3.364,7.513-7.513S163.961,284.574,159.811,284.574z"/>
	</g>
</g>
<g>
	<g>
		<path d="M328.103,284.574H191.867c-4.149,0-7.513,3.364-7.513,7.513s3.364,7.513,7.513,7.513h136.236
			c4.15,0,7.513-3.364,7.513-7.513S332.253,284.574,328.103,284.574z"/>
	</g>
</g>
<g>
	<g>
		<path d="M239.95,324.643H95.701c-4.149,0-7.513,3.364-7.513,7.513s3.364,7.513,7.513,7.513h144.25
			c4.149,0,7.513-3.364,7.513-7.513S244.099,324.643,239.95,324.643z"/>
	</g>
</g>
<g>
</g>
<g>
</g>
<g>
</g>
<g>
</g>
<g>
</g>
<g>
</g>
<g>
</g>
<g>
</g>
<g>
</g>
<g>
</g>
<g>
</g>
<g>
</g>
<g>
</g>
<g>
</g>
<g>
</g>
</svg>
