<?xml version="1.0" encoding="iso-8859-1"?>
<!-- Generator: Adobe Illustrator 19.0.0, SVG Export Plug-In . SVG Version: 6.00 Build 0)  -->
<svg version="1.1" id="Capa_1" xmlns="http://www.w3.org/2000/svg" xmlns:xlink="http://www.w3.org/1999/xlink" x="0px" y="0px"
	 viewBox="0 0 512 512" style="enable-background:new 0 0 512 512;" xml:space="preserve">
<g>
	<g>
		<circle cx="256" cy="31.061" r="7.515"/>
	</g>
</g>
<g>
	<g>
		<circle cx="295.577" cy="31.061" r="7.515"/>
	</g>
</g>
<g>
	<g>
		<circle cx="216.423" cy="31.061" r="7.515"/>
	</g>
</g>
<g>
	<g>
		<path d="M256,120.235c-4.151,0-7.515,3.365-7.515,7.515v16.031c0,4.15,3.364,7.515,7.515,7.515s7.515-3.365,7.515-7.515V127.75
			C263.515,123.599,260.151,120.235,256,120.235z"/>
	</g>
</g>
<g>
	<g>
		<path d="M293.377,138.467c-2.936-2.935-7.693-2.935-10.628,0l-8.016,8.016c-2.735,2.735-2.918,7.255-0.399,10.196
			c2.81,3.282,7.97,3.487,11.027,0.431l8.016-8.016C296.312,146.159,296.312,141.401,293.377,138.467z"/>
	</g>
</g>
<g>
	<g>
		<path d="M237.267,146.483l-8.016-8.016c-2.936-2.935-7.693-2.935-10.628,0c-2.935,2.935-2.935,7.693,0,10.627l8.016,8.016
			c1.467,1.468,3.391,2.201,5.313,2.201C238.524,159.311,241.896,151.112,237.267,146.483z"/>
	</g>
</g>
<g>
	<g>
		<path d="M375.734,256c0-12.983-10.563-23.546-23.546-23.546h-72.642v-16.532c0-21.823-17.755-39.577-39.577-39.577h-8.016
			c-4.151,0-7.515,3.365-7.515,7.515v48.094c0,0.281-0.216,0.501-0.493,0.501h-24.556v-8.517c0-4.15-3.364-7.515-7.515-7.515
			h-48.094c-4.151,0-7.515,3.365-7.515,7.515v144.282c0,4.15,3.364,7.515,7.515,7.515h48.094c4.151,0,7.515-3.365,7.515-7.515
			v-8.517h21.436l13.83,13.83c1.393,1.393,3.345,2.201,5.314,2.201h96.188c12.983,0,23.546-10.563,23.546-23.546
			c0-4.366-1.198-8.456-3.277-11.964c6.766-4.14,11.292-11.601,11.292-20.098c0-4.366-1.198-8.456-3.277-11.964
			c6.767-4.14,11.293-11.601,11.293-20.098c0-6.189-2.404-11.824-6.322-16.031C373.33,267.824,375.734,262.189,375.734,256z
			 M184.36,360.704h-33.065V231.452h33.065V360.704z M328.141,279.546h24.047c4.696,0,8.517,3.82,8.517,8.517
			s-3.82,8.517-8.517,8.517h-24.047c-4.151,0-7.515,3.365-7.515,7.515s3.364,7.515,7.515,7.515h16.031
			c4.696,0,8.517,3.82,8.517,8.517s-3.82,8.517-8.517,8.517h-16.031c-4.151,0-7.515,3.365-7.515,7.515s3.364,7.515,7.515,7.515
			h8.016c4.696,0,8.517,3.82,8.517,8.517s-3.82,8.517-8.517,8.517h-93.075l-13.83-13.83c-1.41-1.41-3.32-2.201-5.314-2.201h-24.548
			v-97.19h24.556c8.559,0,15.522-6.967,15.522-15.53v-40.579h0.501c13.536,0,24.548,11.013,24.548,24.548v24.047
			c0,4.15,3.364,7.515,7.515,7.515h80.157c4.696,0,8.517,3.82,8.517,8.517s-3.82,8.517-8.517,8.517h-24.047
			c-4.151,0-7.515,3.365-7.515,7.515S323.99,279.546,328.141,279.546z"/>
	</g>
</g>
<g>
	<g>
		<path d="M376.235,0h-240.47c-17.403,0-31.562,14.159-31.562,31.562v48.595c0,4.15,3.364,7.515,7.515,7.515
			s7.515-3.365,7.515-7.515V63.123h273.534v224.939v160.814H119.233V115.476c0-4.15-3.364-7.515-7.515-7.515
			s-7.515,3.365-7.515,7.515v364.963c0,17.403,14.159,31.562,31.562,31.562h240.47c17.403,0,31.562-14.159,31.562-31.562V288.063
			V31.562C407.796,14.159,393.638,0,376.235,0z M392.767,480.438c0,9.116-7.417,16.532-16.532,16.532h-240.47
			c-9.116,0-16.532-7.417-16.532-16.532v-16.532h273.534V480.438z M392.767,48.094H119.233V31.562
			c0-9.116,7.417-16.532,16.532-16.532h240.47c9.116,0,16.532,7.417,16.532,16.532V48.094z"/>
	</g>
</g>
<g>
	<g>
		<path d="M272.031,472.924h-32.063c-4.151,0-7.515,3.365-7.515,7.515s3.364,7.515,7.515,7.515h32.063
			c4.151,0,7.515-3.365,7.515-7.515S276.182,472.924,272.031,472.924z"/>
	</g>
</g>
<g>
	<g>
		<circle cx="256" cy="31.061" r="7.515"/>
	</g>
</g>
<g>
	<g>
		<circle cx="295.577" cy="31.061" r="7.515"/>
	</g>
</g>
<g>
	<g>
		<circle cx="216.423" cy="31.061" r="7.515"/>
	</g>
</g>
<g>
</g>
<g>
</g>
<g>
</g>
<g>
</g>
<g>
</g>
<g>
</g>
<g>
</g>
<g>
</g>
<g>
</g>
<g>
</g>
<g>
</g>
<g>
</g>
<g>
</g>
<g>
</g>
<g>
</g>
</svg>
