<?xml version="1.0" encoding="iso-8859-1"?>
<!-- Generator: Adobe Illustrator 19.0.0, SVG Export Plug-In . SVG Version: 6.00 Build 0)  -->
<svg version="1.1" id="Capa_1" xmlns="http://www.w3.org/2000/svg" xmlns:xlink="http://www.w3.org/1999/xlink" x="0px" y="0px"
	 viewBox="0 0 512.001 512.001" style="enable-background:new 0 0 512.001 512.001;" xml:space="preserve">
<g>
	<g>
		<path d="M357.26,303.217l45.389-14.89c3.094-1.015,5.182-3.906,5.173-7.163l-0.157-55.395l32.434-44.908
			c1.906-2.64,1.896-6.206-0.025-8.836l-32.687-44.723l-0.157-55.395c-0.009-3.257-2.113-6.136-5.214-7.134l-52.733-16.969
			L316.596,3.082c-1.921-2.63-5.318-3.722-8.411-2.707L255.55,17.643L202.816,0.674c-3.099-0.995-6.49,0.115-8.395,2.755
			l-32.434,44.908l-52.635,17.267c-3.094,1.015-5.182,3.906-5.173,7.163l0.157,55.395l-32.434,44.908
			c-1.906,2.64-1.896,6.206,0.025,8.836l32.687,44.723l0.157,55.395c0.009,3.257,2.113,6.136,5.214,7.134l44.606,14.353
			L72.556,464.82c-2.803,5.51,2.18,12.016,8.224,10.767l44.379-9.193l18.711,41.278c2.55,5.626,10.743,5.813,13.545,0.305
			l84.966-167.071l14.072-4.617l12.938,4.164l85.196,167.524c2.801,5.509,10.994,5.322,13.545-0.305l18.711-41.278l44.379,9.193
			c6.044,1.253,11.026-5.258,8.224-10.767L357.26,303.217z M151.104,487.222l-14.737-32.512c-1.451-3.202-4.927-4.967-8.371-4.257
			l-34.954,7.241l74.044-145.593l28.319,38.746c1.9,2.599,5.35,3.712,8.411,2.707l18.323-6.011L151.104,487.222z M258.732,321.232
			c-1.511-0.487-3.138-0.483-4.645,0.012l-49.767,16.327l-30.906-42.286c-0.937-1.282-2.255-2.234-3.766-2.72l-49.858-16.044
			l-0.148-52.377c-0.004-1.587-0.511-3.133-1.448-4.414l-30.906-42.286l30.666-42.461c0.929-1.287,1.427-2.835,1.423-4.422
			l-0.148-52.377l49.767-16.327c1.508-0.495,2.821-1.454,3.75-2.741l30.667-42.46l49.858,16.044
			c1.511,0.486,3.138,0.481,4.645-0.013l49.767-16.327l30.906,42.286c0.937,1.282,2.255,2.234,3.766,2.72l49.858,16.044
			l0.148,52.377c0.004,1.587,0.511,3.133,1.448,4.414l30.906,42.286l-30.666,42.461c-0.929,1.287-1.427,2.835-1.423,4.422
			l0.148,52.377l-49.767,16.327c-1.508,0.495-2.821,1.454-3.75,2.741l-30.667,42.461L258.732,321.232z M384.004,450.454
			c-3.442-0.71-6.919,1.055-8.371,4.257l-14.737,32.512L289.555,346.94l19.63,6.316c3.1,0.997,6.489-0.115,8.395-2.755l27.5-38.077
			l73.878,145.269L384.004,450.454z"/>
	</g>
</g>
<g>
	<g>
		<path d="M338.15,78.098c-3.178-2.671-7.92-2.259-10.589,0.919c-2.671,3.178-2.259,7.919,0.919,10.589
			c25.585,21.498,40.259,52.974,40.259,86.356c0,62.164-50.574,112.738-112.738,112.738s-112.739-50.574-112.739-112.738
			S193.835,63.223,256,63.223c15.742,0,30.969,3.18,45.258,9.45c3.801,1.669,8.235-0.06,9.903-3.862
			c1.669-3.801-0.061-8.234-3.862-9.903C291.093,51.796,273.833,48.19,256,48.19c-70.453,0-127.77,57.317-127.77,127.77
			s57.317,127.77,127.77,127.77s127.771-57.315,127.771-127.768C383.771,138.13,367.143,102.459,338.15,78.098z"/>
	</g>
</g>
<g>
	<g>
		<path d="M330.179,145.844c-5.614-12.911-18.027-21.306-32.396-21.908c-15.634-0.665-30.423,7.583-41.782,22.945
			c-11.359-15.362-26.137-23.607-41.782-22.945c-14.368,0.602-26.783,8.997-32.396,21.908c-6.9,15.868-2.397,34.839,12.353,52.046
			c28.448,33.189,56.996,49.13,58.196,49.792c2.237,1.234,5.021,1.234,7.257,0c1.202-0.662,29.749-16.603,58.196-49.792
			C332.575,180.683,337.077,161.711,330.179,145.844z M306.413,188.107c-20.862,24.338-42.113,38.977-50.413,44.216
			c-8.304-5.241-29.552-19.879-50.413-44.216c-10.857-12.667-14.495-25.887-9.98-36.27c3.299-7.587,10.672-12.525,19.241-12.883
			c0.356-0.015,0.711-0.022,1.068-0.022c12.539,0,24.684,9.253,33.467,25.562c2.784,5.17,10.451,5.171,13.235,0
			c9.032-16.772,21.618-26.09,34.535-25.54c8.568,0.36,15.941,5.296,19.24,12.883C320.908,162.22,317.27,175.44,306.413,188.107z"/>
	</g>
</g>
<g>
</g>
<g>
</g>
<g>
</g>
<g>
</g>
<g>
</g>
<g>
</g>
<g>
</g>
<g>
</g>
<g>
</g>
<g>
</g>
<g>
</g>
<g>
</g>
<g>
</g>
<g>
</g>
<g>
</g>
</svg>
