<?xml version="1.0" encoding="iso-8859-1"?>
<!-- Generator: Adobe Illustrator 19.0.0, SVG Export Plug-In . SVG Version: 6.00 Build 0)  -->
<svg version="1.1" id="Capa_1" xmlns="http://www.w3.org/2000/svg" xmlns:xlink="http://www.w3.org/1999/xlink" x="0px" y="0px"
	 viewBox="0 0 511.999 511.999" style="enable-background:new 0 0 511.999 511.999;" xml:space="preserve">
<g>
	<g>
		<circle cx="400.283" cy="96.186" r="7.515"/>
	</g>
</g>
<g>
	<g>
		<circle cx="440.863" cy="96.186" r="7.515"/>
	</g>
</g>
<g>
	<g>
		<circle cx="359.704" cy="96.186" r="7.515"/>
	</g>
</g>
<g>
	<g>
		<path d="M504.485,232.458H391.753c0.001-0.165,0.011-0.338,0.011-0.501c0-12.232-1.627-24.318-4.833-35.999l9.771-4.631
			c1.208,0.033,2.405,0.05,3.577,0.05c61.602,0,111.719-42.925,111.719-95.687c0-24.026-10.416-46.99-29.331-64.663
			c-3.033-2.835-7.788-2.672-10.622,0.361c-2.833,3.032-2.671,7.787,0.361,10.622c15.84,14.799,24.563,33.862,24.563,53.68
			c0,44.475-43.375,80.658-96.689,80.658c-2.732,0-5.811-0.593-8.364,0.616l-38.591,18.29l2.755-22.041
			c0.399-3.196-1.284-6.292-4.184-7.696c-29.796-14.42-48.307-41.176-48.307-69.827c0-44.475,43.375-80.658,96.689-80.658
			c15.693,0,31.273,3.213,45.059,9.292c3.796,1.674,8.233-0.045,9.908-3.844c1.675-3.797-0.046-8.233-3.844-9.907
			c-15.681-6.915-33.359-10.57-51.123-10.57c-46.703,0-86.796,24.675-103.463,59.601c-6.689-4.307-14.107-8.012-22.149-11.029
			c-4.832-1.812-10.154,1.88-10.154,7.036v8.599c-10.18-10.081-22.873-18-37.941-23.65c-4.831-1.815-10.153,1.883-10.153,7.036
			v8.253c-8.264-9.708-18.029-17.403-29.203-22.99c-4.912-2.456-10.875,1.239-10.875,6.721v82.429
			c-35.21,25.543-56.11,66.344-56.11,109.947c0,0.163,0.01,0.336,0.011,0.501H7.511c-4.667,0-8.284,4.408-7.368,8.989
			c3.739,18.697,16.197,31.141,29.624,39.323c-3.764,0.925-6.257,4.708-5.62,8.534c3.393,20.357,17.222,35.834,40.179,45.125
			c-0.401,1.691-0.208,3.496,0.591,5.094c25.037,50.074,95.779,52.157,123.578,52.244l-19.559,45.639
			c-2.298,5.362,2.396,11.329,8.142,10.373l33.963-5.66l-9.348,32.718L165.035,489.5c-3.602,1.441-5.547,5.54-4.376,9.24
			c1.301,4.107,5.95,6.318,9.958,4.714l25.035-10.014l-2.892,8.676c-1.244,3.735,0.7,7.906,4.358,9.36
			c3.96,1.573,8.555-0.571,9.901-4.607l4.17-12.511l7.434,7.434c3.056,3.057,8.216,2.851,11.027-0.431
			c2.519-2.941,2.337-7.461-0.4-10.196l-12.904-12.904l8.952-31.329c12.088,15.92,24.474,29.807,25.101,30.509
			c2.943,3.292,8.261,3.292,11.204,0c0.627-0.701,13.014-14.589,25.101-30.509l8.951,31.329l-12.904,12.904
			c-2.735,2.735-2.918,7.255-0.399,10.196c2.811,3.282,7.971,3.487,11.028,0.431l7.434-7.434l4.17,12.511
			c1.349,4.045,5.938,6.17,9.901,4.607c3.661-1.443,5.599-5.633,4.357-9.36l-2.892-8.676l25.035,10.014
			c4.007,1.605,8.657-0.608,9.958-4.714c1.171-3.7-0.775-7.799-4.376-9.24l-36.656-14.663l-9.349-32.718l33.963,5.66
			c5.747,0.96,10.439-5.013,8.143-10.373l-19.559-45.639c27.799-0.086,98.54-2.17,123.577-52.244c0.8-1.598,0.992-3.403,0.591-5.094
			c22.957-9.291,36.786-24.769,40.18-45.125c0.637-3.825-1.857-7.609-5.621-8.534c13.427-8.182,25.885-20.626,29.624-39.323
			C512.769,236.865,509.152,232.458,504.485,232.458z M85.401,343.676h26.315c4.15,0,7.515-3.365,7.515-7.515
			c0-4.15-3.365-7.515-7.515-7.515c-0.607,0-56.298-0.411-70.211-33.065h30.132c3.944,0,7.216-3.048,7.496-6.982
			c0.28-3.934-2.529-7.415-6.433-7.973c-0.461-0.065-41.923-6.308-54.815-33.14h103.893c5.469,30.173,25.553,73.466,59.945,129.171
			C156.105,376.147,108.804,372.322,85.401,343.676z M307.035,391.493l16.8,39.2l-34.539-5.756c-2.86-0.474-5.726,0.729-7.387,3.097
			c-8.736,12.452-19.492,25.428-25.911,32.94c-6.419-7.512-17.175-20.486-25.911-32.94c-1.661-2.369-4.534-3.575-7.387-3.097
			l-34.538,5.756l16.8-39.2c0.98-2.286,0.765-4.91-0.574-7.006c-45.223-70.795-69.126-123.539-69.126-152.531
			c0-39.968,19.749-77.29,52.827-99.838c2.054-1.4,3.282-3.724,3.282-6.209V52.928c10.514,7.683,19.186,18.15,25.87,31.249
			c1.607,3.147,5.318,4.772,8.722,3.82c3.207-0.898,5.487-3.907,5.487-7.236V59.036c14.776,7.359,26.239,17.632,34.162,30.634
			c1.76,2.889,5.349,4.259,8.586,3.283c3.137-0.945,5.346-3.916,5.346-7.194V67.047c4.252,2.113,8.212,4.477,11.887,7.047
			c-1.877,6.943-2.87,14.172-2.87,21.595c0,32.848,19.77,63.405,51.955,80.875l-3.802,30.413
			c-0.718,5.761,5.403,10.223,10.675,7.723l25.709-12.185c2.401,9.583,3.636,19.453,3.636,29.442
			c0,28.992-23.903,81.736-69.125,152.531C306.269,386.584,306.055,389.207,307.035,391.493z M439.296,280.627
			c-3.904,0.558-6.712,4.039-6.434,7.973c0.28,3.934,3.553,6.982,7.496,6.982h30.125c-13.913,32.55-69.603,33.064-70.204,33.065
			c-4.151,0-7.515,3.365-7.515,7.515s3.364,7.515,7.515,7.515h26.315c-23.404,28.646-70.703,32.472-96.322,32.983
			c34.391-55.706,54.476-98.998,59.945-129.171h103.885C481.207,274.209,439.748,280.562,439.296,280.627z"/>
	</g>
</g>
<g>
	<g>
		<path d="M207.904,216.426c-12.983,0-23.546,10.563-23.546,23.546c0,12.983,10.563,23.546,23.546,23.546
			c12.983,0,23.546-10.563,23.546-23.546C231.45,226.989,220.887,216.426,207.904,216.426z M207.904,248.489
			c-4.696,0-8.517-3.82-8.517-8.517c0-4.696,3.82-8.517,8.517-8.517c4.696,0,8.517,3.82,8.517,8.517
			C216.42,244.669,212.6,248.489,207.904,248.489z"/>
	</g>
</g>
<g>
	<g>
		<path d="M304.092,216.426c-12.983,0-23.546,10.563-23.546,23.546c0,12.983,10.563,23.546,23.546,23.546
			s23.546-10.563,23.546-23.546C327.638,226.989,317.075,216.426,304.092,216.426z M304.092,248.489
			c-4.696,0-8.517-3.82-8.517-8.517c0-4.696,3.82-8.517,8.517-8.517s8.517,3.82,8.517,8.517
			C312.609,244.669,308.787,248.489,304.092,248.489z"/>
	</g>
</g>
<g>
	<g>
		<path d="M291.421,273.33l-32.064-16.031c-2.115-1.058-4.606-1.057-6.721,0l-32.063,16.031c-4.508,2.254-5.523,8.465-1.953,12.035
			l32.063,32.063c2.896,2.896,7.732,2.895,10.628,0l32.063-32.063C296.943,281.794,295.929,275.583,291.421,273.33z
			 M255.998,301.486l-19.377-19.377l19.376-9.688l19.377,9.688L255.998,301.486z"/>
	</g>
</g>
<g>
	<g>
		<circle cx="400.283" cy="96.186" r="7.515"/>
	</g>
</g>
<g>
	<g>
		<circle cx="440.863" cy="96.186" r="7.515"/>
	</g>
</g>
<g>
	<g>
		<circle cx="359.704" cy="96.186" r="7.515"/>
	</g>
</g>
<g>
</g>
<g>
</g>
<g>
</g>
<g>
</g>
<g>
</g>
<g>
</g>
<g>
</g>
<g>
</g>
<g>
</g>
<g>
</g>
<g>
</g>
<g>
</g>
<g>
</g>
<g>
</g>
<g>
</g>
</svg>
