<?xml version="1.0" encoding="iso-8859-1"?>
<!-- Generator: Adobe Illustrator 19.0.0, SVG Export Plug-In . SVG Version: 6.00 Build 0)  -->
<svg version="1.1" id="Capa_1" xmlns="http://www.w3.org/2000/svg" xmlns:xlink="http://www.w3.org/1999/xlink" x="0px" y="0px"
	 viewBox="0 0 512 512" style="enable-background:new 0 0 512 512;" xml:space="preserve">
<g>
	<g>
		<path d="M408.297,159.562c4.151,0,7.515-3.365,7.515-7.515V39.577c0-4.15-3.364-7.515-7.515-7.515h-48.094
			c-4.151,0-7.515,3.365-7.515,7.515v21.119c-17.358,18.718-147.655,155.726-240.971,155.726H39.577C17.755,216.423,0,234.177,0,256
			v32.063c0,19.254,13.822,35.331,32.063,38.853v97.413c0,4.15,3.364,7.515,7.515,7.515H71.64c3.499,0,6.535-2.416,7.322-5.824
			l7.904-34.254h24.852c4.151,0,7.515-3.365,7.515-7.515v-32.063c0-4.15-3.364-7.515-7.515-7.515H97.734l3.931-17.033h10.054
			c68.284,0,130.513,34.001,170.691,62.524c37.539,26.65,63.377,53.622,70.279,61.111v21.147c0,4.15,3.364,7.515,7.515,7.515h48.094
			c4.151,0,7.515-3.365,7.515-7.515V187.867c0-4.15-3.364-7.515-7.515-7.515c-4.151,0-7.515,3.365-7.515,7.515v277.041h-33.065
			V47.092h33.065v104.955C400.783,156.197,404.146,159.562,408.297,159.562z M65.661,416.814H47.092V327.64H86.24L65.661,416.814z
			 M88.172,312.611H39.577c-13.536,0-24.548-11.012-24.548-24.548V256c0-13.535,11.011-24.548,24.548-24.548h48.595V312.611z
			 M104.204,359.703v17.033H90.334l3.931-17.033H104.204z M352.689,429.631c-12.606-12.514-33.743-31.927-61.273-51.505
			c-42.031-29.888-107.325-65.516-179.698-65.516h-8.517v-81.159h8.517c44.992,0,101.539-27.538,168.071-81.85
			c31.547-25.752,57.98-51.745,72.899-67.094V429.631z"/>
	</g>
</g>
<g>
	<g>
		<path d="M335.82,238.362c-5.612-12.908-18.023-21.302-32.39-21.904c-15.622-0.658-30.418,7.582-41.775,22.941
			c-11.357-15.358-26.141-23.601-41.776-22.941c-14.366,0.602-26.777,8.996-32.39,21.904c-6.897,15.866-2.397,34.833,12.351,52.039
			c28.444,33.184,56.985,49.122,58.187,49.784c2.236,1.233,5.02,1.233,7.256,0c1.201-0.662,29.744-16.6,58.187-49.784
			C338.218,273.196,342.718,254.228,335.82,238.362z M312.058,280.619c-20.859,24.335-42.106,38.971-50.404,44.209
			c-8.301-5.24-29.547-19.876-50.404-44.209c-10.855-12.665-14.492-25.884-9.978-36.265c3.298-7.586,10.669-12.521,19.237-12.88
			c0.356-0.015,0.711-0.022,1.067-0.022c12.537,0,24.681,9.251,33.461,25.558c2.783,5.168,10.449,5.171,13.233,0
			c9.03-16.769,21.588-26.086,34.529-25.536c8.568,0.359,15.938,5.294,19.237,12.881
			C326.551,254.737,322.914,267.954,312.058,280.619z"/>
	</g>
</g>
<g>
	<g>
		<path d="M504.485,248.485h-24.047c-4.151,0-7.515,3.365-7.515,7.515s3.364,7.515,7.515,7.515h24.047
			c4.151,0,7.515-3.365,7.515-7.515S508.636,248.485,504.485,248.485z"/>
	</g>
</g>
<g>
	<g>
		<path d="M474.767,133.082c-2.075-3.594-6.673-4.825-10.265-2.75l-20.825,12.023c-2.95,1.703-4.424,5.375-3.448,8.642
			c0.935,3.128,3.945,5.381,7.212,5.381c1.274,0,2.568-0.325,3.75-1.008l20.825-12.023
			C475.611,141.272,476.842,136.676,474.767,133.082z"/>
	</g>
</g>
<g>
	<g>
		<path d="M472.018,368.653l-20.825-12.023c-3.593-2.076-8.191-0.845-10.265,2.75c-2.075,3.594-0.844,8.19,2.75,10.265
			l20.825,12.023c3.833,2.215,8.871,0.545,10.644-3.499C476.664,374.711,475.286,370.541,472.018,368.653z"/>
	</g>
</g>
<g>
</g>
<g>
</g>
<g>
</g>
<g>
</g>
<g>
</g>
<g>
</g>
<g>
</g>
<g>
</g>
<g>
</g>
<g>
</g>
<g>
</g>
<g>
</g>
<g>
</g>
<g>
</g>
<g>
</g>
</svg>
