<?xml version="1.0" encoding="iso-8859-1"?>
<!-- Generator: Adobe Illustrator 19.0.0, SVG Export Plug-In . SVG Version: 6.00 Build 0)  -->
<svg version="1.1" id="Capa_1" xmlns="http://www.w3.org/2000/svg" xmlns:xlink="http://www.w3.org/1999/xlink" x="0px" y="0px"
	 viewBox="0 0 512 512" style="enable-background:new 0 0 512 512;" xml:space="preserve">
<g>
	<g>
		<circle cx="407.796" cy="80.157" r="7.515"/>
	</g>
</g>
<g>
	<g>
		<circle cx="439.358" cy="80.157" r="7.515"/>
	</g>
</g>
<g>
	<g>
		<circle cx="470.92" cy="80.157" r="7.515"/>
	</g>
</g>
<g>
	<g>
		<path d="M504.485,40.078H7.515C3.364,40.078,0,43.443,0,47.593v416.814c0,4.15,3.364,7.515,7.515,7.515h496.971
			c4.151,0,7.515-3.365,7.515-7.515V47.593C512,43.443,508.636,40.078,504.485,40.078z M496.971,104.203H368.219
			c-4.151,0-7.515,3.365-7.515,7.515s3.364,7.515,7.515,7.515h128.751v337.659H15.029V119.233h317.119
			c4.151,0,7.515-3.365,7.515-7.515s-3.364-7.515-7.515-7.515H15.029V55.108h481.941V104.203z"/>
	</g>
</g>
<g>
	<g>
		<circle cx="407.796" cy="80.157" r="7.515"/>
	</g>
</g>
<g>
	<g>
		<circle cx="439.358" cy="80.157" r="7.515"/>
	</g>
</g>
<g>
	<g>
		<circle cx="470.92" cy="80.157" r="7.515"/>
	</g>
</g>
<g>
	<g>
		<path d="M143.781,72.141H55.609c-4.151,0-7.515,3.365-7.515,7.515s3.364,7.515,7.515,7.515h88.172
			c4.151,0,7.515-3.365,7.515-7.515S147.932,72.141,143.781,72.141z"/>
	</g>
</g>
<g>
	<g>
		<path d="M215.922,72.141h-40.078c-4.151,0-7.515,3.365-7.515,7.515s3.364,7.515,7.515,7.515h40.078
			c4.151,0,7.515-3.365,7.515-7.515S220.073,72.141,215.922,72.141z"/>
	</g>
</g>
<g>
	<g>
		<path d="M71.64,184.36H55.108v-32.564c0-4.15-3.364-7.515-7.515-7.515s-7.515,3.365-7.515,7.515v40.078
			c0,4.15,3.364,7.515,7.515,7.515H71.64c4.151,0,7.515-3.365,7.515-7.515S75.791,184.36,71.64,184.36z"/>
	</g>
</g>
<g>
	<g>
		<path d="M95.687,144.282c-4.151,0-7.515,3.365-7.515,7.515v40.078c0,4.15,3.364,7.515,7.515,7.515s7.515-3.365,7.515-7.515
			v-40.078C103.202,147.646,99.838,144.282,95.687,144.282z"/>
	</g>
</g>
<g>
	<g>
		<path d="M154.587,144.82c-3.849-1.543-8.227,0.332-9.768,4.186l-9.054,22.635l-9.054-22.635c-1.541-3.854-5.917-5.728-9.768-4.186
			c-3.854,1.541-5.728,5.915-4.187,9.768l16.031,40.078c1.142,2.853,3.905,4.723,6.978,4.723c3.073,0,5.835-1.871,6.978-4.723
			l16.031-40.078C160.315,150.734,158.44,146.361,154.587,144.82z"/>
	</g>
</g>
<g>
	<g>
		<path d="M199.89,184.36h-16.532v-1.002h8.517c4.151,0,7.515-3.365,7.515-7.515s-3.364-7.515-7.515-7.515h-8.517v-9.018h16.532
			c4.151,0,7.515-3.365,7.515-7.515c0-4.15-3.364-7.515-7.515-7.515h-24.047c-4.151,0-7.515,3.365-7.515,7.515v40.078
			c0,4.15,3.364,7.515,7.515,7.515h24.047c4.151,0,7.515-3.365,7.515-7.515S204.042,184.36,199.89,184.36z"/>
	</g>
</g>
<g>
	<g>
		<path d="M422.391,323.721c-0.68-0.935-16.974-23.145-45.521-45.575c-38.044-29.892-79.841-45.692-120.87-45.692
			s-82.826,15.8-120.87,45.692c-28.547,22.43-44.841,44.64-45.521,45.575c-1.917,2.635-1.917,6.204,0,8.839
			c0.68,0.935,16.973,23.145,45.521,45.575c38.044,29.892,79.841,45.692,120.87,45.692s82.826-15.8,120.87-45.692
			c28.547-22.43,44.841-44.64,45.521-45.575C424.308,329.925,424.308,326.356,422.391,323.721z M256,408.798
			c-47.381,0-86.648-22.957-111.245-42.214c-19.701-15.425-33.447-31.033-39.509-38.439c14.329-17.463,71.665-80.662,150.754-80.662
			c47.381,0,86.648,22.957,111.245,42.214c19.703,15.426,33.449,31.036,39.509,38.439C392.425,345.6,335.089,408.798,256,408.798z"
			/>
	</g>
</g>
<g>
	<g>
		<path d="M256,256.501c-39.502,0-71.64,32.138-71.64,71.64c0,39.502,32.138,71.64,71.64,71.64s71.64-32.138,71.64-71.64
			C327.64,288.639,295.502,256.501,256,256.501z M256,384.751c-31.215,0-56.611-25.396-56.611-56.611
			c0-31.215,25.396-56.611,56.611-56.611s56.611,25.396,56.611,56.611C312.611,359.356,287.215,384.751,256,384.751z"/>
	</g>
</g>
<g>
	<g>
		<path d="M292.231,321.889l-48.094-32.063c-4.905-3.27-11.683,0.371-11.683,6.252v64.125c0,5.875,6.773,9.528,11.683,6.252
			l48.094-32.063C296.616,331.471,296.616,324.81,292.231,321.889z M247.483,346.162v-36.043l27.032,18.021L247.483,346.162z"/>
	</g>
</g>
<g>
</g>
<g>
</g>
<g>
</g>
<g>
</g>
<g>
</g>
<g>
</g>
<g>
</g>
<g>
</g>
<g>
</g>
<g>
</g>
<g>
</g>
<g>
</g>
<g>
</g>
<g>
</g>
<g>
</g>
</svg>
