<?xml version="1.0" encoding="iso-8859-1"?>
<!-- Generator: Adobe Illustrator 19.0.0, SVG Export Plug-In . SVG Version: 6.00 Build 0)  -->
<svg version="1.1" id="Capa_1" xmlns="http://www.w3.org/2000/svg" xmlns:xlink="http://www.w3.org/1999/xlink" x="0px" y="0px"
	 viewBox="0 0 512 512" style="enable-background:new 0 0 512 512;" xml:space="preserve">
<g>
	<g>
		<path d="M472.423,12.046H167.828c-21.823,0-39.577,17.755-39.577,39.577v16.532h-24.548c-21.823,0-39.577,17.755-39.577,39.577
			v16.532H39.577C17.755,124.265,0,142.02,0,163.842v216.423c0,21.823,17.755,39.577,39.577,39.577h40.579v72.642
			c0,6.224,7.519,9.779,12.325,5.773l94.098-78.415h157.593c21.823,0,39.577-17.755,39.577-39.577v-16.532h24.548
			c21.823,0,39.577-17.755,39.577-39.577v-16.532h24.548c21.823,0,39.577-17.755,39.577-39.577V51.623
			C512,29.8,494.245,12.046,472.423,12.046z M368.72,380.265c0,13.535-11.013,24.548-24.548,24.548H183.859
			c-1.757,0-3.461,0.616-4.81,1.741l-83.863,69.886v-64.112c0-4.15-3.365-7.515-7.515-7.515H39.577
			c-13.535,0-24.548-11.013-24.548-24.548V163.843c0-13.535,11.013-24.548,24.548-24.548h304.595
			c13.535,0,24.548,11.013,24.548,24.548V380.265z M496.971,268.046c0,13.535-11.013,24.548-24.548,24.548h-24.548V167.85
			c0-4.15-3.365-7.515-7.515-7.515c-4.15,0-7.515,3.365-7.515,7.515v156.306c0,13.535-11.013,24.548-24.548,24.548H383.75V163.843
			c0-21.823-17.755-39.577-39.577-39.577H79.155v-16.532c0-13.535,11.013-24.548,24.548-24.548h304.595
			c13.535,0,24.548,11.013,24.548,24.548v24.548c0,4.15,3.365,7.515,7.515,7.515c4.15,0,7.515-3.365,7.515-7.515v-24.548
			c0-21.823-17.755-39.577-39.577-39.577H143.28V51.624c0-13.535,11.013-24.548,24.548-24.548h304.595
			c13.535,0,24.548,11.013,24.548,24.548V268.046z"/>
	</g>
</g>
<g>
	<g>
		<path d="M159.812,196.406H95.687c-4.15,0-7.515,3.365-7.515,7.515s3.365,7.515,7.515,7.515h64.125c4.15,0,7.515-3.365,7.515-7.515
			S163.962,196.406,159.812,196.406z"/>
	</g>
</g>
<g>
	<g>
		<path d="M239.969,196.406h-48.094c-4.15,0-7.515,3.365-7.515,7.515s3.365,7.515,7.515,7.515h48.094
			c4.15,0,7.515-3.365,7.515-7.515S244.119,196.406,239.969,196.406z"/>
	</g>
</g>
<g>
	<g>
		<path d="M199.89,260.531H95.687c-4.15,0-7.515,3.365-7.515,7.515s3.365,7.515,7.515,7.515H199.89c4.15,0,7.515-3.365,7.515-7.515
			S204.041,260.531,199.89,260.531z"/>
	</g>
</g>
<g>
	<g>
		<path d="M328.141,260.531h-88.172c-4.15,0-7.515,3.365-7.515,7.515s3.365,7.515,7.515,7.515h88.172
			c4.15,0,7.515-3.365,7.515-7.515S332.291,260.531,328.141,260.531z"/>
	</g>
</g>
<g>
	<g>
		<path d="M159.812,300.609H95.687c-4.15,0-7.515,3.365-7.515,7.515c0,4.15,3.365,7.515,7.515,7.515h64.125
			c4.15,0,7.515-3.365,7.515-7.515C167.327,303.974,163.962,300.609,159.812,300.609z"/>
	</g>
</g>
<g>
	<g>
		<path d="M328.141,300.609H191.875c-4.15,0-7.515,3.365-7.515,7.515c0,4.15,3.365,7.515,7.515,7.515h136.266
			c4.15,0,7.515-3.365,7.515-7.515C335.656,303.974,332.291,300.609,328.141,300.609z"/>
	</g>
</g>
<g>
	<g>
		<path d="M239.969,340.688H95.687c-4.15,0-7.515,3.365-7.515,7.515s3.365,7.515,7.515,7.515h144.282
			c4.15,0,7.515-3.365,7.515-7.515S244.119,340.688,239.969,340.688z"/>
	</g>
</g>
<g>
</g>
<g>
</g>
<g>
</g>
<g>
</g>
<g>
</g>
<g>
</g>
<g>
</g>
<g>
</g>
<g>
</g>
<g>
</g>
<g>
</g>
<g>
</g>
<g>
</g>
<g>
</g>
<g>
</g>
</svg>
