<?xml version="1.0" encoding="iso-8859-1"?>
<!-- Generator: Adobe Illustrator 19.0.0, SVG Export Plug-In . SVG Version: 6.00 Build 0)  -->
<svg version="1.1" id="Capa_1" xmlns="http://www.w3.org/2000/svg" xmlns:xlink="http://www.w3.org/1999/xlink" x="0px" y="0px"
	 viewBox="0 0 512 512" style="enable-background:new 0 0 512 512;" xml:space="preserve">
<g>
	<g>
		<path d="M466.956,286.884c-3.161-2.688-7.904-2.305-10.593,0.858c-2.688,3.162-2.305,7.904,0.858,10.593
			c25.261,21.477,39.75,52.792,39.75,85.916c0,62.154-50.566,112.72-112.72,112.72c-41.901,0-80.108-23.038-99.714-60.122
			c-1.302-2.463-3.859-4.003-6.643-4.003h-43.787c-2.785,0-5.342,1.54-6.643,4.003c-19.606,37.084-57.814,60.122-99.715,60.122
			c-62.154,0-112.72-50.566-112.72-112.72s50.566-112.72,112.72-112.72H384.25c15.81,0,31.098,3.206,45.438,9.531
			c3.799,1.675,8.234-0.045,9.908-3.844c1.674-3.797-0.046-8.233-3.844-9.908c-16.264-7.172-33.592-10.808-51.503-10.808h-8.517
			v-24.548c0-4.15-3.365-7.515-7.515-7.515h-80.157c-4.15,0-7.515,3.365-7.515,7.515v24.548h-17.033v-57.112h24.548
			c12.983,0,23.546-10.563,23.546-23.546s-10.563-23.546-23.546-23.546h-24.548V127.75c0-4.15-3.365-7.515-7.515-7.515
			s-7.515,3.365-7.515,7.515v32.063c0,4.15,3.365,7.515,7.515,7.515h32.063c4.696,0,8.517,3.82,8.517,8.517s-3.82,8.517-8.517,8.517
			H256c-4.15,0-7.515,3.365-7.515,7.515v64.626h-17.033v-24.548c0-4.15-3.365-7.515-7.515-7.515h-80.157
			c-4.15,0-7.515,3.365-7.515,7.515v24.548h-8.517C57.308,256.501,0,313.809,0,384.25S57.308,512,127.75,512
			c45.959,0,87.997-24.456,110.793-64.125h34.914C296.254,487.544,338.292,512,384.25,512C454.692,512,512,454.692,512,384.25
			C512,346.71,495.582,311.222,466.956,286.884z M295.577,239.468h65.127v17.033h-65.127V239.468z M151.295,239.468h65.127v17.033
			h-65.127V239.468z"/>
	</g>
</g>
<g>
	<g>
		<path d="M183.859,352.689h-24.548v-24.548c0-4.15-3.365-7.515-7.515-7.515h-48.094c-4.15,0-7.515,3.365-7.515,7.515v24.548H71.64
			c-4.15,0-7.515,3.365-7.515,7.515v48.094c0,4.15,3.365,7.515,7.515,7.515h24.548v24.548c0,4.15,3.365,7.515,7.515,7.515h48.094
			c4.15,0,7.515-3.365,7.515-7.515v-24.548h24.548c4.15,0,7.515-3.365,7.515-7.515v-48.094
			C191.374,356.053,188.009,352.689,183.859,352.689z M176.344,400.783h-24.548c-4.15,0-7.515,3.365-7.515,7.515v24.548h-33.065
			v-24.548c0-4.15-3.365-7.515-7.515-7.515H79.155v-33.065h24.548c4.15,0,7.515-3.365,7.515-7.515v-24.548h33.065v24.548
			c0,4.15,3.365,7.515,7.515,7.515h24.548V400.783z"/>
	</g>
</g>
<g>
	<g>
		<path d="M376.235,392.767c-21.823,0-39.577,17.755-39.577,39.577s17.755,39.577,39.577,39.577
			c21.823,0,39.577-17.755,39.577-39.577S398.057,392.767,376.235,392.767z M376.235,456.892c-13.535,0-24.548-11.012-24.548-24.548
			s11.013-24.548,24.548-24.548c13.535,0,24.548,11.013,24.548,24.548S389.77,456.892,376.235,456.892z"/>
	</g>
</g>
<g>
	<g>
		<path d="M424.329,312.611c-21.823,0-39.577,17.755-39.577,39.577s17.755,39.577,39.577,39.577
			c21.823,0,39.577-17.755,39.577-39.577S446.151,312.611,424.329,312.611z M424.329,376.736c-13.535,0-24.548-11.012-24.548-24.548
			s11.013-24.548,24.548-24.548c13.535,0,24.548,11.013,24.548,24.548S437.864,376.736,424.329,376.736z"/>
	</g>
</g>
<g>
	<g>
		<path d="M215.922,288.564h-24.047c-4.15,0-7.515,3.365-7.515,7.515c0,4.15,3.365,7.515,7.515,7.515h24.047
			c4.15,0,7.515-3.365,7.515-7.515C223.436,291.928,220.072,288.564,215.922,288.564z"/>
	</g>
</g>
<g>
	<g>
		<path d="M320.125,288.564h-24.047c-4.15,0-7.515,3.365-7.515,7.515c0,4.15,3.365,7.515,7.515,7.515h24.047
			c4.15,0,7.515-3.365,7.515-7.515C327.64,291.928,324.275,288.564,320.125,288.564z"/>
	</g>
</g>
<g>
	<g>
		<path d="M369.004,46.808C338.82,16.623,298.687,0,256,0s-82.82,16.623-113.005,46.808c-2.935,2.935-2.935,7.693,0,10.627
			c2.935,2.935,7.693,2.935,10.628,0C180.968,30.09,217.327,15.029,256,15.029c38.672,0,75.032,15.06,102.377,42.406
			c3.057,3.056,8.216,2.851,11.027-0.431C371.922,54.064,371.74,49.544,369.004,46.808z"/>
	</g>
</g>
<g>
	<g>
		<path d="M306.657,109.155C293.125,95.624,275.135,88.172,256,88.172s-37.125,7.452-50.657,20.983
			c-2.896,2.896-2.895,7.732,0,10.627c2.895,2.896,7.732,2.896,10.627,0c10.693-10.692,24.91-16.58,40.03-16.58
			s29.337,5.889,40.03,16.58c3.056,3.057,8.217,2.851,11.027-0.431C309.575,116.41,309.393,111.892,306.657,109.155z"/>
	</g>
</g>
<g>
	<g>
		<path d="M334.996,80.816c-21.1-21.101-49.155-32.722-78.996-32.722s-57.896,11.621-78.996,32.722
			c-2.935,2.935-2.935,7.693,0,10.627c2.935,2.935,7.693,2.935,10.627,0c18.263-18.262,42.543-28.319,68.37-28.319
			s50.107,10.058,68.37,28.319c1.467,1.468,3.391,2.201,5.313,2.201C336.254,93.644,339.626,85.445,334.996,80.816z"/>
	</g>
</g>
<g>
</g>
<g>
</g>
<g>
</g>
<g>
</g>
<g>
</g>
<g>
</g>
<g>
</g>
<g>
</g>
<g>
</g>
<g>
</g>
<g>
</g>
<g>
</g>
<g>
</g>
<g>
</g>
<g>
</g>
</svg>
