<?xml version="1.0" encoding="iso-8859-1"?>
<!-- Generator: Adobe Illustrator 19.0.0, SVG Export Plug-In . SVG Version: 6.00 Build 0)  -->
<svg version="1.1" id="Capa_1" xmlns="http://www.w3.org/2000/svg" xmlns:xlink="http://www.w3.org/1999/xlink" x="0px" y="0px"
	 viewBox="0 0 512.002 512.002" style="enable-background:new 0 0 512.002 512.002;" xml:space="preserve">
<g>
	<g>
		<path d="M336.144,264.517c-0.167,0-0.334,0.012-0.501,0.016v-24.564c0-39.502-32.138-71.64-71.64-71.64h-96.188
			c-5.221,0-8.919,5.45-6.977,10.306l31.525,78.812v7.087c-0.167-0.003-0.334-0.017-0.501-0.017
			c-12.983,0-23.546,10.563-23.546,23.546s10.563,23.546,23.546,23.546c0.898,0,1.789-0.067,2.676-0.167
			c6.684,23.211,28.1,40.246,53.433,40.246h32.063c25.331,0,46.745-17.031,53.431-40.24c0.888,0.101,1.781,0.161,2.678,0.161
			c12.983,0,23.546-10.563,23.546-23.546S349.127,264.517,336.144,264.517z M191.862,296.58c-4.696,0-8.517-3.82-8.517-8.517
			s3.82-8.517,8.517-8.517c0.168,0,0.334,0.025,0.501,0.035v16.497c0,0.155,0.01,0.309,0.012,0.463
			C192.203,296.552,192.034,296.58,191.862,296.58z M320.611,296.079c0.001,22.376-18.203,40.579-40.578,40.579H247.97
			c-22.376,0-40.579-18.204-40.579-40.579v-36.056l17.411-11.608l36.408,14.563c1.789,0.716,3.789,0.717,5.581,0l36.409-14.563
			l17.411,11.608V296.079z M320.612,241.959l-12.363-8.242c-2.059-1.373-4.66-1.644-6.959-0.724l-37.289,14.915l-37.287-14.915
			c-2.276-0.91-4.92-0.636-6.96,0.724l-16.341,10.894l-24.501-61.253h85.088c31.215,0,56.611,25.396,56.611,56.611V241.959z
			 M336.143,296.58c-0.172,0-0.342-0.023-0.513-0.033c0.001-0.156,0.012-0.311,0.012-0.468v-16.501
			c0.167-0.009,0.333-0.031,0.501-0.031c4.696,0,8.517,3.82,8.517,8.517S340.839,296.58,336.143,296.58z"/>
	</g>
</g>
<g>
	<g>
		<path d="M294.06,299.586c-2.49-3.32-7.199-3.992-10.521-1.503c-7.555,5.667-15.484,6.513-19.538,6.513
			c-9.443,0-16.295-4.08-19.538-6.513c-3.319-2.49-8.031-1.817-10.521,1.503c-2.49,3.319-1.817,8.031,1.503,10.521
			c4.739,3.555,14.753,9.519,28.556,9.519c5.925,0,17.513-1.236,28.556-9.519C295.877,307.616,296.55,302.905,294.06,299.586z"/>
	</g>
</g>
<g>
	<g>
		<circle cx="232.444" cy="280.548" r="7.515"/>
	</g>
</g>
<g>
	<g>
		<circle cx="295.567" cy="280.548" r="7.515"/>
	</g>
</g>
<g>
	<g>
		<path d="M472.423,216.423c-19.254,0-35.331,13.822-38.853,32.063h-17.938c-0.692-14.965-3.449-29.661-8.233-43.784
			c-1.331-3.931-5.598-6.038-9.529-4.706c-3.931,1.332-6.038,5.597-4.706,9.529c5.055,14.923,7.619,30.561,7.619,46.476
			c0,79.834-64.949,144.783-144.783,144.783s-144.783-64.949-144.783-144.783S176.166,111.218,256,111.218
			c38.854,0,75.067,15.209,101.834,41.799c0.168,0.209,0.348,0.413,0.542,0.606c0.213,0.213,0.439,0.407,0.67,0.589
			c7.518,7.646,14.266,16.205,20.087,25.591c2.188,3.528,6.823,4.613,10.347,2.425c3.527-2.187,4.613-6.819,2.426-10.347
			c-5.18-8.351-11.128-16.195-17.725-23.436l12.693-12.693c6.667,4.509,14.411,6.772,22.158,6.772
			c10.135,0,20.27-3.858,27.987-11.573c7.475-7.475,11.592-17.414,11.592-27.986s-4.117-20.51-11.592-27.986
			c-15.432-15.432-40.539-15.43-55.971,0c-13.613,13.614-15.208,34.756-4.8,50.144l-12.693,12.693
			c-8.734-7.955-18.338-14.956-28.636-20.815c-21.766-12.382-46.308-19.436-71.404-20.616V78.431
			c18.241-3.522,32.063-19.599,32.063-38.853c0-21.823-17.755-39.577-39.577-39.577s-39.577,17.755-39.577,39.577
			c0,19.254,13.822,35.331,32.063,38.853v17.94c-38.409,1.787-73.32,17.191-99.998,41.49l-12.735-12.735
			c10.407-15.388,8.813-36.53-4.801-50.145c-7.475-7.476-17.414-11.592-27.986-11.592s-20.51,4.116-27.986,11.592
			c-7.476,7.475-11.592,17.413-11.592,27.986c0,10.572,4.116,20.51,11.592,27.986c7.715,7.716,17.85,11.574,27.985,11.574
			c7.748,0,15.492-2.263,22.159-6.772l12.735,12.735c-24.297,26.677-39.701,61.588-41.489,99.997H78.43
			c-3.522-18.241-19.599-32.063-38.853-32.063C17.755,216.423,0,234.178,0,256.001s17.755,39.577,39.577,39.577
			c19.254,0,35.331-13.822,38.853-32.063h17.94c1.787,38.409,17.191,73.32,41.49,99.998l-12.735,12.735
			c-15.388-10.408-36.531-8.812-50.145,4.801c-7.476,7.475-11.592,17.414-11.592,27.986c0,10.572,4.116,20.51,11.592,27.986
			c7.475,7.476,17.413,11.592,27.986,11.592c10.572,0,20.51-4.116,27.986-11.592c13.614-13.614,15.209-34.756,4.801-50.145
			l12.735-12.735c26.678,24.299,61.588,39.704,99.998,41.49v17.94c-18.241,3.522-32.063,19.599-32.063,38.853
			c0,21.823,17.755,39.577,39.577,39.577c21.823,0,39.577-17.755,39.577-39.577c0-19.254-13.822-35.331-32.063-38.853v-17.94
			c38.409-1.788,73.32-17.191,99.997-41.49l12.735,12.735c-10.406,15.388-8.812,36.53,4.801,50.144
			c7.717,7.717,17.849,11.574,27.987,11.574c10.133,0,20.27-3.859,27.985-11.574c7.476-7.475,11.593-17.413,11.593-27.986
			c0-10.572-4.117-20.51-11.592-27.986c0,0,0,0-0.001,0c-13.614-13.614-34.755-15.208-50.144-4.801l-12.735-12.735
			c24.299-26.677,39.704-61.588,41.49-99.997h17.94c3.522,18.241,19.599,32.063,38.853,32.063c21.823,0,39.577-17.755,39.577-39.577
			S494.245,216.423,472.423,216.423z M391.676,85.609c9.57-9.573,25.145-9.571,34.716,0c4.636,4.636,7.19,10.801,7.19,17.358
			c0,6.557-2.554,12.722-7.19,17.358c-9.572,9.569-25.145,9.572-34.716,0C382.105,110.753,382.104,95.179,391.676,85.609z
			 M231.452,39.578c0-13.535,11.013-24.548,24.548-24.548c13.536,0,24.548,11.013,24.548,24.548
			c0,13.535-11.012,24.548-24.548,24.548C242.465,64.126,231.452,53.113,231.452,39.578z M120.324,120.325
			c-9.572,9.572-25.145,9.571-34.716,0c-4.636-4.636-7.19-10.801-7.19-17.358c0-6.557,2.553-12.722,7.19-17.358
			c4.637-4.636,10.801-7.19,17.358-7.19c6.557,0,12.722,2.553,17.358,7.19C129.895,95.179,129.895,110.754,120.324,120.325z
			 M39.577,280.548c-13.535,0-24.548-11.012-24.548-24.548s11.013-24.548,24.548-24.548c13.535,0,24.548,11.013,24.548,24.548
			S53.113,280.548,39.577,280.548z M120.324,426.392c-4.636,4.636-10.801,7.19-17.358,7.19c-6.557,0-12.722-2.553-17.358-7.19
			s-7.19-10.801-7.19-17.358s2.553-12.722,7.19-17.358c4.786-4.786,11.071-7.178,17.358-7.178c6.285,0,12.573,2.394,17.358,7.178
			C129.896,401.247,129.896,416.822,120.324,426.392z M280.548,472.423c0,13.535-11.012,24.548-24.548,24.548
			c-13.535,0-24.548-11.013-24.548-24.548c0-13.535,11.013-24.548,24.548-24.548C269.536,447.875,280.548,458.888,280.548,472.423z
			 M391.675,391.677c4.786-4.785,11.073-7.178,17.359-7.178c6.285,0,12.573,2.393,17.357,7.178
			c4.637,4.636,7.191,10.801,7.191,17.358c0,6.557-2.554,12.722-7.191,17.358c-9.57,9.57-25.144,9.573-34.715,0
			C382.104,416.822,382.104,401.247,391.675,391.677z M472.423,280.548c-13.536,0-24.548-11.012-24.548-24.548
			s11.011-24.548,24.548-24.548c13.536,0,24.548,11.013,24.548,24.548S485.959,280.548,472.423,280.548z"/>
	</g>
</g>
<g>
</g>
<g>
</g>
<g>
</g>
<g>
</g>
<g>
</g>
<g>
</g>
<g>
</g>
<g>
</g>
<g>
</g>
<g>
</g>
<g>
</g>
<g>
</g>
<g>
</g>
<g>
</g>
<g>
</g>
</svg>
