<?xml version="1.0" encoding="iso-8859-1"?>
<!-- Generator: Adobe Illustrator 19.0.0, SVG Export Plug-In . SVG Version: 6.00 Build 0)  -->
<svg version="1.1" id="Capa_1" xmlns="http://www.w3.org/2000/svg" xmlns:xlink="http://www.w3.org/1999/xlink" x="0px" y="0px"
	 viewBox="0 0 512 512" style="enable-background:new 0 0 512 512;" xml:space="preserve">
<g>
	<g>
		<circle cx="227.945" cy="31.061" r="7.515"/>
	</g>
</g>
<g>
	<g>
		<circle cx="267.523" cy="31.061" r="7.515"/>
	</g>
</g>
<g>
	<g>
		<circle cx="188.368" cy="31.061" r="7.515"/>
	</g>
</g>
<g>
	<g>
		<path d="M243.977,472.924h-32.063c-4.151,0-7.515,3.365-7.515,7.515s3.364,7.515,7.515,7.515h32.063
			c4.151,0,7.515-3.365,7.515-7.515S248.128,472.924,243.977,472.924z"/>
	</g>
</g>
<g>
	<g>
		<circle cx="227.945" cy="31.061" r="7.515"/>
	</g>
</g>
<g>
	<g>
		<circle cx="267.523" cy="31.061" r="7.515"/>
	</g>
</g>
<g>
	<g>
		<circle cx="188.368" cy="31.061" r="7.515"/>
	</g>
</g>
<g>
	<g>
		<path d="M476.431,224.438c4.151,0,7.515-3.365,7.515-7.515v-33.025c0-21.823-17.755-39.577-39.577-39.577h-64.626V31.562
			C379.742,14.159,365.583,0,348.18,0H107.71C90.307,0,76.149,14.159,76.149,31.562v48.595H51.601
			c-12.983,0-23.546,10.563-23.546,23.546v48.094c0,12.983,10.563,23.546,23.546,23.546h24.573
			c-0.011,0.166-0.025,0.332-0.025,0.501v136.767H51.601c-12.983,0-23.546,10.563-23.546,23.546v48.094
			c0,12.983,10.563,23.546,23.546,23.546h24.548v72.642c0,17.403,14.159,31.562,31.562,31.562h240.47
			c17.403,0,31.562-14.159,31.562-31.562V351.727h64.626c21.823,0,39.577-17.755,39.577-39.577v-59.156
			c0-4.15-3.364-7.515-7.515-7.515s-7.515,3.365-7.515,7.515v59.155c0,13.535-11.011,24.548-24.548,24.548H373
			c-0.254-0.026-0.513-0.04-0.773-0.04c-1.908,0-3.644,0.716-4.97,1.889l-51.641,38.732v-33.065c0-4.15-3.364-7.515-7.515-7.515
			h-24.047c-13.536,0-24.548-11.013-24.548-24.548v-128.25c0-13.535,11.012-24.548,24.548-24.548h160.313
			c13.536,0,24.548,11.013,24.548,24.548v33.025C468.916,221.074,472.279,224.438,476.431,224.438z M51.601,160.312
			c-4.696,0.001-8.517-3.819-8.517-8.516v-48.094c0-4.696,3.82-8.517,8.517-8.517h80.157c4.696,0,8.517,3.82,8.517,8.517v74.899
			l-28.698-17.219c-1.167-0.7-2.504-1.071-3.866-1.071H51.601z M51.601,392.766c-4.696,0.001-8.517-3.819-8.517-8.516v-48.094
			c0-4.696,3.82-8.517,8.517-8.517h80.157c4.696,0,8.517,3.82,8.517,8.517v74.899l-28.698-17.219
			c-1.167-0.7-2.504-1.071-3.866-1.071H51.601z M364.712,480.438c0,9.116-7.417,16.532-16.532,16.532H107.71
			c-9.116,0-16.532-7.417-16.532-16.532v-16.532h273.534V480.438z M364.712,144.322h-80.658c-21.823,0-39.577,17.754-39.577,39.577
			v128.25c0,21.823,17.755,39.577,39.577,39.577h16.532v40.579c0,6.057,7.157,9.662,12.023,6.012l52.102-39.076v89.635H91.178
			v-41.08h14.451l38.294,22.976c4.926,2.955,11.38-0.723,11.38-6.444v-88.172c0-12.983-10.563-23.546-23.546-23.546H91.178V175.843
			c0-0.169-0.014-0.335-0.025-0.501h14.476l38.294,22.976c4.926,2.955,11.38-0.723,11.38-6.444v-88.172
			c0-12.983-10.563-23.546-23.546-23.546H91.178V63.123h273.534V144.322z M364.712,48.094H91.178V31.562
			c0-9.116,7.416-16.532,16.532-16.532h240.47c9.116,0,16.532,7.417,16.532,16.532V48.094z"/>
	</g>
</g>
<g>
	<g>
		<path d="M438.377,208.893c-5.613-12.909-18.024-21.303-32.39-21.905c-15.652-0.667-30.418,7.582-41.776,22.941
			c-11.356-15.359-26.117-23.603-41.776-22.941c-14.366,0.602-26.777,8.996-32.39,21.905c-6.897,15.865-2.397,34.833,12.351,52.038
			c28.444,33.184,56.985,49.122,58.187,49.784c2.236,1.233,5.02,1.233,7.256,0c1.201-0.662,29.744-16.6,58.187-49.784
			C440.774,243.726,445.275,224.758,438.377,208.893z M414.616,251.15c-20.859,24.334-42.106,38.971-50.404,44.209
			c-8.301-5.24-29.547-19.876-50.404-44.209c-10.855-12.665-14.492-25.883-9.979-36.264c3.298-7.586,10.669-12.522,19.237-12.881
			c0.356-0.015,0.712-0.022,1.067-0.022c12.538,0,24.681,9.251,33.461,25.558c2.784,5.169,10.448,5.169,13.233,0
			c9.032-16.77,21.654-26.076,34.529-25.536c8.568,0.359,15.938,5.295,19.237,12.881
			C429.108,225.267,425.471,238.485,414.616,251.15z"/>
	</g>
</g>
<g>
	<g>
		<circle cx="115.726" cy="360.704" r="7.515"/>
	</g>
</g>
<g>
	<g>
		<circle cx="91.178" cy="360.704" r="7.515"/>
	</g>
</g>
<g>
	<g>
		<circle cx="66.63" cy="360.704" r="7.515"/>
	</g>
</g>
<g>
	<g>
		<circle cx="115.726" cy="128.25" r="7.515"/>
	</g>
</g>
<g>
	<g>
		<circle cx="91.178" cy="128.25" r="7.515"/>
	</g>
</g>
<g>
	<g>
		<circle cx="66.63" cy="128.25" r="7.515"/>
	</g>
</g>
<g>
</g>
<g>
</g>
<g>
</g>
<g>
</g>
<g>
</g>
<g>
</g>
<g>
</g>
<g>
</g>
<g>
</g>
<g>
</g>
<g>
</g>
<g>
</g>
<g>
</g>
<g>
</g>
<g>
</g>
</svg>
