<?xml version="1.0" encoding="iso-8859-1"?>
<!-- Generator: Adobe Illustrator 19.0.0, SVG Export Plug-In . SVG Version: 6.00 Build 0)  -->
<svg version="1.1" id="Capa_1" xmlns="http://www.w3.org/2000/svg" xmlns:xlink="http://www.w3.org/1999/xlink" x="0px" y="0px"
	 viewBox="0 0 512 512" style="enable-background:new 0 0 512 512;" xml:space="preserve">
<g>
	<g>
		<path d="M505.831,216.544l-56.167-10.212c-0.355-1.383-0.725-2.767-1.111-4.15l43.535-36.926c2.769-2.35,3.463-6.343,1.647-9.489
			l-32.063-55.534c-1.816-3.145-5.622-4.543-9.04-3.318l-53.804,19.26c-0.99-1.011-1.991-2.012-3.002-3.001l19.261-53.805
			c1.224-3.419-0.173-7.224-3.318-9.04l-55.534-32.063c-3.146-1.817-7.14-1.122-9.489,1.647L309.82,63.449
			c-1.383-0.387-2.767-0.757-4.15-1.111L295.457,6.17c-0.65-3.573-3.761-6.17-7.393-6.17h-64.125c-3.632,0-6.743,2.597-7.393,6.17
			l-10.212,56.167c-1.383,0.355-2.767,0.725-4.15,1.111l-36.926-43.535c-2.349-2.769-6.342-3.464-9.489-1.647l-55.534,32.063
			c-3.145,1.817-4.542,5.621-3.318,9.04l19.261,53.805c-1.011,0.989-2.012,1.99-3.002,3.001L59.37,96.915
			c-3.418-1.223-7.224,0.173-9.04,3.318l-32.063,55.534c-1.817,3.145-1.122,7.139,1.647,9.489l43.535,36.926
			c-0.387,1.383-0.757,2.766-1.111,4.15L6.171,216.544c-3.573,0.65-6.17,3.761-6.17,7.393v64.125c0,3.632,2.597,6.743,6.17,7.393
			l56.167,10.212c0.355,1.383,0.725,2.767,1.111,4.15l-43.535,36.926c-2.769,2.35-3.463,6.343-1.647,9.489l32.063,55.534
			c1.816,3.145,5.62,4.542,9.04,3.318l53.804-19.26c0.989,1.01,1.991,2.012,3.002,3.002l-19.261,53.804
			c-1.224,3.42,0.173,7.224,3.318,9.041l55.534,32.063c3.147,1.817,7.14,1.122,9.489-1.647l36.926-43.535
			c1.383,0.387,2.767,0.758,4.15,1.111l10.212,56.167c0.649,3.573,3.761,6.17,7.393,6.17h64.125c3.632,0,6.743-2.597,7.393-6.17
			l10.212-56.167c1.383-0.355,2.767-0.725,4.15-1.111l36.926,43.535c2.348,2.768,6.341,3.464,9.489,1.647l55.534-32.063
			c3.145-1.817,4.542-5.621,3.318-9.041l-19.261-53.804c1.011-0.99,2.013-1.991,3.002-3.002l53.804,19.26
			c3.42,1.225,7.225-0.172,9.04-3.318l32.063-55.534c1.817-3.145,1.122-7.139-1.647-9.489l-43.535-36.926
			c0.387-1.383,0.757-2.767,1.111-4.15l56.167-10.212c3.573-0.649,6.17-3.761,6.17-7.393v-64.125
			C512.001,220.305,509.404,217.194,505.831,216.544z M496.972,281.791l-54.8,9.963c-2.957,0.538-5.308,2.784-5.981,5.714
			c-0.968,4.22-2.113,8.502-3.406,12.723c-0.88,2.871,0.034,5.99,2.324,7.931l42.475,36.026l-25.79,44.671l-52.495-18.79
			c-2.822-1.012-5.983-0.244-8.031,1.952c-2.972,3.189-6.096,6.313-9.285,9.285c-2.195,2.046-2.964,5.204-1.952,8.031l18.791,52.494
			l-44.671,25.791l-36.026-42.474c-1.942-2.289-5.058-3.204-7.93-2.325c-4.227,1.295-8.508,2.44-12.723,3.406
			c-2.929,0.671-5.177,3.024-5.714,5.981l-9.964,54.799H230.21l-9.963-54.801c-0.537-2.957-2.785-5.309-5.714-5.981
			c-4.215-0.966-8.496-2.111-12.723-3.406c-2.873-0.88-5.989,0.036-7.93,2.325l-36.026,42.474l-44.671-25.791l18.791-52.494
			c1.012-2.826,0.243-5.984-1.952-8.031c-3.189-2.972-6.313-6.096-9.285-9.285c-2.048-2.197-5.207-2.964-8.031-1.952l-52.495,18.79
			l-25.79-44.671l42.475-36.026c2.289-1.942,3.203-5.061,2.324-7.931c-1.293-4.221-2.439-8.502-3.406-12.723
			c-0.672-2.93-3.024-5.177-5.981-5.714l-54.801-9.961V230.21l54.8-9.963c2.957-0.538,5.308-2.784,5.981-5.714
			c0.967-4.219,2.113-8.5,3.406-12.722c0.88-2.871-0.034-5.99-2.323-7.931l-42.475-36.027l25.79-44.671l52.495,18.79
			c2.823,1.011,5.983,0.245,8.03-1.951c2.977-3.194,6.101-6.317,9.285-9.285c2.196-2.046,2.965-5.204,1.953-8.031L113.18,60.209
			l44.671-25.791l36.026,42.474c1.942,2.289,5.058,3.204,7.93,2.325c4.227-1.294,8.508-2.44,12.723-3.406
			c2.929-0.671,5.177-3.024,5.714-5.981l9.964-54.8h51.583l9.963,54.801c0.537,2.957,2.785,5.309,5.714,5.981
			c4.215,0.966,8.496,2.111,12.723,3.406c2.873,0.88,5.989-0.036,7.93-2.325l36.026-42.474l44.671,25.791l-18.791,52.495
			c-1.012,2.827-0.243,5.984,1.953,8.031c3.184,2.967,6.308,6.091,9.285,9.285c2.046,2.195,5.206,2.962,8.03,1.951l52.495-18.79
			l25.79,44.671l-42.475,36.027c-2.289,1.942-3.203,5.061-2.323,7.931c1.292,4.222,2.44,8.503,3.406,12.722
			c0.672,2.93,3.024,5.177,5.981,5.714l54.801,9.961V281.791z"/>
	</g>
</g>
<g>
	<g>
		<path d="M256.001,144.282c-61.601,0-111.718,50.117-111.718,111.718S194.4,367.718,256.001,367.718S367.719,317.601,367.719,256
			S317.602,144.282,256.001,144.282z M256.001,352.689c-53.314,0-96.689-43.375-96.689-96.689s43.375-96.689,96.689-96.689
			S352.69,202.686,352.69,256S309.315,352.689,256.001,352.689z"/>
	</g>
</g>
<g>
	<g>
		<path d="M330.167,224.884c-5.613-12.909-18.024-21.303-32.39-21.905c-15.641-0.665-30.417,7.582-41.776,22.941
			c-11.357-15.358-26.111-23.6-41.776-22.941c-14.366,0.602-26.777,8.996-32.39,21.905c-6.898,15.865-2.397,34.833,12.351,52.038
			c28.444,33.184,56.985,49.122,58.187,49.784c2.236,1.233,5.02,1.233,7.256,0c1.201-0.662,29.744-16.6,58.187-49.784
			C332.564,259.717,337.064,240.749,330.167,224.884z M306.405,267.141c-20.859,24.335-42.106,38.971-50.404,44.209
			c-8.301-5.24-29.547-19.876-50.404-44.209c-10.855-12.665-14.492-25.883-9.979-36.264c3.298-7.586,10.669-12.522,19.237-12.881
			c0.356-0.015,0.712-0.022,1.067-0.022c12.539,0,24.681,9.251,33.461,25.558c2.784,5.169,10.448,5.169,13.233,0
			c9.032-16.77,21.652-26.085,34.529-25.536c8.568,0.359,15.938,5.295,19.237,12.881
			C320.898,241.258,317.261,254.476,306.405,267.141z"/>
	</g>
</g>
<g>
	<g>
		<path d="M368.476,142.468c-2.948-2.921-7.706-2.9-10.628,0.049c-2.921,2.949-2.899,7.706,0.05,10.627
			c27.655,27.401,42.886,63.928,42.886,102.856c0,79.834-64.949,144.783-144.783,144.783S111.218,335.834,111.218,256
			s64.949-144.783,144.783-144.783c27.812,0,54.822,7.903,78.112,22.857c3.491,2.243,8.141,1.23,10.383-2.263
			c2.241-3.493,1.229-8.141-2.264-10.383c-25.716-16.512-55.533-25.239-86.23-25.239c-88.12,0-159.812,71.691-159.812,159.812
			s71.692,159.812,159.812,159.812S415.813,344.121,415.813,256C415.813,213.031,399.002,172.712,368.476,142.468z"/>
	</g>
</g>
<g>
</g>
<g>
</g>
<g>
</g>
<g>
</g>
<g>
</g>
<g>
</g>
<g>
</g>
<g>
</g>
<g>
</g>
<g>
</g>
<g>
</g>
<g>
</g>
<g>
</g>
<g>
</g>
<g>
</g>
</svg>
