<?xml version="1.0" encoding="iso-8859-1"?>
<!-- Generator: Adobe Illustrator 19.0.0, SVG Export Plug-In . SVG Version: 6.00 Build 0)  -->
<svg version="1.1" id="Capa_1" xmlns="http://www.w3.org/2000/svg" xmlns:xlink="http://www.w3.org/1999/xlink" x="0px" y="0px"
	 viewBox="0 0 512 512" style="enable-background:new 0 0 512 512;" xml:space="preserve">
<g>
	<g>
		<circle cx="256" cy="31.061" r="7.515"/>
	</g>
</g>
<g>
	<g>
		<circle cx="295.577" cy="31.061" r="7.515"/>
	</g>
</g>
<g>
	<g>
		<circle cx="216.423" cy="31.061" r="7.515"/>
	</g>
</g>
<g>
	<g>
		<path d="M400.282,316.618c4.15,0,7.515-3.364,7.515-7.515V31.562C407.796,14.159,393.638,0,376.235,0h-240.47
			c-17.403,0-31.562,14.159-31.562,31.562v448.877c0,17.403,14.159,31.562,31.562,31.562h240.47
			c17.403,0,31.562-14.159,31.562-31.562V344.172c0-4.151-3.365-7.515-7.515-7.515s-7.515,3.364-7.515,7.515v104.705H119.233V63.123
			h273.534v245.98C392.767,313.255,396.132,316.618,400.282,316.618z M392.767,463.906v16.532c0,9.116-7.417,16.532-16.532,16.532
			h-240.47c-9.116,0-16.532-7.417-16.532-16.532v-16.532H392.767z M119.233,48.094V31.562c0-9.116,7.417-16.532,16.532-16.532
			h240.47c9.116,0,16.532,7.417,16.532,16.532v16.532H119.233z"/>
	</g>
</g>
<g>
	<g>
		<path d="M272.031,472.924h-32.063c-4.15,0-7.515,3.364-7.515,7.515s3.365,7.515,7.515,7.515h32.063
			c4.15,0,7.515-3.364,7.515-7.515S276.181,472.924,272.031,472.924z"/>
	</g>
</g>
<g>
	<g>
		<circle cx="256" cy="31.061" r="7.515"/>
	</g>
</g>
<g>
	<g>
		<circle cx="295.577" cy="31.061" r="7.515"/>
	</g>
</g>
<g>
	<g>
		<circle cx="216.423" cy="31.061" r="7.515"/>
	</g>
</g>
<g>
	<g>
		<path d="M256,128.25c-61.601,0-111.718,50.117-111.718,111.718S194.399,351.687,256,351.687s111.718-50.117,111.718-111.718
			S317.601,128.25,256,128.25z M256,336.658c-53.314,0-96.689-43.375-96.689-96.689S202.686,143.28,256,143.28
			s96.689,43.375,96.689,96.689S309.314,336.658,256,336.658z"/>
	</g>
</g>
<g>
	<g>
		<path d="M324.064,233.568L219.86,169.443c-4.922-3.027-11.453,0.639-11.453,6.401v128.25c0,5.754,6.526,9.431,11.453,6.401
			l104.204-64.125C328.746,243.487,328.747,236.451,324.064,233.568z M223.436,290.646V189.292l82.351,50.677L223.436,290.646z"/>
	</g>
</g>
<g>
	<g>
		<path d="M344.172,384.751H215.421v-8.517c0-4.151-3.365-7.515-7.515-7.515s-7.515,3.364-7.515,7.515v8.517h-24.548
			c-4.15,0-7.515,3.364-7.515,7.515c0,4.151,3.365,7.515,7.515,7.515h24.548v8.517c0,4.151,3.365,7.515,7.515,7.515
			s7.515-3.364,7.515-7.515v-8.517h128.751c4.15,0,7.515-3.364,7.515-7.515C351.687,388.115,348.322,384.751,344.172,384.751z"/>
	</g>
</g>
<g>
</g>
<g>
</g>
<g>
</g>
<g>
</g>
<g>
</g>
<g>
</g>
<g>
</g>
<g>
</g>
<g>
</g>
<g>
</g>
<g>
</g>
<g>
</g>
<g>
</g>
<g>
</g>
<g>
</g>
</svg>
