<?xml version="1.0" encoding="iso-8859-1"?>
<!-- Generator: Adobe Illustrator 19.0.0, SVG Export Plug-In . SVG Version: 6.00 Build 0)  -->
<svg version="1.1" id="Capa_1" xmlns="http://www.w3.org/2000/svg" xmlns:xlink="http://www.w3.org/1999/xlink" x="0px" y="0px"
	 viewBox="0 0 512 512" style="enable-background:new 0 0 512 512;" xml:space="preserve">
<g>
	<g>
		<path d="M276.039,128.25c-0.167,0-0.334,0.012-0.501,0.016v-24.564c0-39.502-32.138-71.64-71.64-71.64H107.71
			c-5.22,0-8.919,5.45-6.977,10.305l31.525,78.813v7.088c-0.167-0.004-0.334-0.018-0.501-0.018
			c-12.983,0-23.546,10.563-23.546,23.546c0,12.983,10.563,23.546,23.546,23.546c0.898,0,1.789-0.067,2.676-0.167
			c6.685,23.211,28.1,40.246,53.433,40.246h32.063c25.331,0,46.745-17.031,53.431-40.24c0.888,0.101,1.78,0.161,2.678,0.161
			c12.983,0,23.546-10.563,23.546-23.546C299.585,138.813,289.022,128.25,276.039,128.25z M131.757,160.313
			c-4.696,0-8.517-3.82-8.517-8.517s3.82-8.517,8.517-8.517c0.168,0,0.334,0.025,0.501,0.035v16.497c0,0.155,0.01,0.309,0.012,0.463
			C132.099,160.286,131.93,160.313,131.757,160.313z M260.509,159.812c0,22.376-18.204,40.579-40.579,40.579h-32.063
			c-22.376,0-40.579-18.204-40.579-40.579v-36.056l17.411-11.608l36.408,14.563c1.791,0.716,3.79,0.716,5.582,0l36.408-14.563
			l17.412,11.608V159.812z M260.509,105.692l-12.364-8.243c-2.058-1.372-4.661-1.643-6.96-0.725l-37.287,14.916l-37.287-14.915
			c-2.276-0.91-4.92-0.635-6.96,0.725l-16.341,10.893L118.81,47.092h85.088c31.215,0,56.611,25.396,56.611,56.611V105.692z
			 M276.039,160.313c-0.172,0-0.342-0.023-0.513-0.033c0.001-0.156,0.012-0.311,0.012-0.468v-16.501
			c0.167-0.01,0.333-0.031,0.501-0.031c4.696,0,8.517,3.82,8.517,8.517S280.735,160.313,276.039,160.313z"/>
	</g>
</g>
<g>
	<g>
		<path d="M233.958,163.319c-2.492-3.32-7.201-3.992-10.522-1.503c-7.556,5.666-15.484,6.513-19.538,6.513
			c-9.442,0-16.295-4.081-19.538-6.514c-3.32-2.486-8.031-1.816-10.521,1.505c-2.49,3.32-1.817,8.031,1.504,10.521
			c4.74,3.554,14.755,9.518,28.556,9.518c5.925,0,17.513-1.236,28.556-9.519C235.774,171.35,236.448,166.638,233.958,163.319z"/>
	</g>
</g>
<g>
	<g>
		<circle cx="172.337" cy="144.282" r="7.515"/>
	</g>
</g>
<g>
	<g>
		<circle cx="235.46" cy="144.282" r="7.515"/>
	</g>
</g>
<g>
	<g>
		<path d="M498.368,235.323c-1.425-1.811-3.602-2.869-5.906-2.869h-56.611V111.718c0-4.151-3.365-7.515-7.515-7.515h-24.548V47.593
			c0-4.151-3.365-7.515-7.515-7.515H363.71V7.515c0-4.151-3.365-7.515-7.515-7.515H51.601c-4.15,0-7.515,3.364-7.515,7.515v96.689
			H19.538c-4.15,0-7.515,3.364-7.515,7.515v392.767c0,4.087,3.428,7.515,7.515,7.515h408.798c3.468,0,6.486-2.374,7.303-5.744
			l64.125-264.517C500.308,239.499,499.793,237.134,498.368,235.323z M403.789,119.233h17.033v113.221h-17.033V119.233z
			 M363.71,55.108h25.049v177.346H363.71V55.108z M27.053,119.233h17.033v232.621c0,0.188,0.015,0.373,0.028,0.557l-17.061,80.432
			V119.233z M422.426,496.971H28.814l52.921-249.487h223.027c4.15,0,7.515-3.364,7.515-7.515s-3.365-7.515-7.515-7.515H75.648
			c-3.549,0-6.615,2.484-7.351,5.955l-9.181,43.283V15.029h289.566v217.425h-7.848c-4.15,0-7.515,3.364-7.515,7.515
			s3.365,7.515,7.515,7.515h142.076L422.426,496.971z"/>
	</g>
</g>
<g>
	<g>
		<path d="M374.284,309.356c-9.549-21.963-30.059-36.218-53.525-37.202c-25.765-1.096-50.209,13.837-68.377,41.333
			c-18.167-27.496-42.605-42.403-68.378-41.333c-23.466,0.984-43.976,15.239-53.525,37.202c-11.816,27.178-4.524,59.18,20.009,87.8
			c48.524,56.611,96.513,80.977,98.532,81.987c2.096,1.049,4.625,1.049,6.721,0c2.019-1.01,50.01-25.377,98.532-81.987
			C378.808,368.537,386.101,336.533,374.284,309.356z M342.865,387.376c-39.263,45.807-78.906,69.991-90.483,76.502
			c-11.586-6.518-51.225-30.703-90.483-76.502c-20.64-24.08-27.069-50.333-17.636-72.028c7.235-16.639,22.704-27.438,40.371-28.178
			c0.652-0.027,1.303-0.04,1.954-0.04c22.388,0,43.862,16.131,59.178,44.573c2.783,5.17,10.449,5.17,13.233,0
			c15.76-29.27,38.039-45.462,61.131-44.533c17.667,0.741,33.138,11.539,40.372,28.178
			C369.933,337.041,363.505,363.296,342.865,387.376z"/>
	</g>
</g>
<g>
</g>
<g>
</g>
<g>
</g>
<g>
</g>
<g>
</g>
<g>
</g>
<g>
</g>
<g>
</g>
<g>
</g>
<g>
</g>
<g>
</g>
<g>
</g>
<g>
</g>
<g>
</g>
<g>
</g>
</svg>
