<?xml version="1.0" encoding="iso-8859-1"?>
<!-- Generator: Adobe Illustrator 19.0.0, SVG Export Plug-In . SVG Version: 6.00 Build 0)  -->
<svg version="1.1" id="Capa_1" xmlns="http://www.w3.org/2000/svg" xmlns:xlink="http://www.w3.org/1999/xlink" x="0px" y="0px"
	 viewBox="0 0 512 512" style="enable-background:new 0 0 512 512;" xml:space="preserve">
<g>
	<g>
		<path d="M335.535,238.857c0.08-3.309,0.12-6.967,0.12-10.911c0-61.272-36.213-71.03-37.755-71.415
			c-3.349-0.837-6.937,0.793-8.511,3.864c-0.985,1.922-0.827,4.01-0.827,6.096c-12.227-15.115-27.63-24.504-28.698-25.145
			c-3.736-2.243-8.732-0.738-10.63,3.173c-1.048,2.16-0.75,4.706-0.75,7.038c-10.153-7.809-21.863-10.841-22.725-11.058
			c-4.671-1.169-9.337,2.485-9.337,7.29v57.141c-15.684,7.12-29.103,18.298-39.025,32.561
			c-11.176,16.069-17.084,34.943-17.084,54.582c0,52.762,42.925,95.687,95.687,95.687s95.687-42.925,95.687-95.687
			C351.687,272.965,346.111,254.623,335.535,238.857z M256,372.728c-44.475,0-80.658-36.183-80.658-80.658
			c0-33.479,20.147-62.98,51.329-75.159c2.883-1.126,4.78-3.905,4.78-7v-51.289c7.586,3.673,17.033,10.417,17.033,21.229
			c0,4.151,3.365,7.515,7.515,7.515c4.151,0,7.515-3.364,7.515-7.515v-17.334c11.417,9.587,25.049,24.955,25.049,41.381
			c0,4.151,3.364,7.515,7.515,7.515c4.151,0,7.515-3.364,7.515-7.515v-27.059c7.61,6.844,17.033,21.331,17.033,51.106
			c0,4.8-0.062,9.145-0.182,12.915c-0.053,1.64,0.433,3.251,1.383,4.59c9.703,13.67,14.831,29.791,14.831,46.619
			C336.657,336.545,300.475,372.728,256,372.728z"/>
	</g>
</g>
<g>
	<g>
		<path d="M231.953,276.54c-4.15,0-7.515,3.364-7.515,7.515c0,4.696-3.82,8.517-8.517,8.517s-8.517-3.82-8.517-8.517
			c0-4.151-3.365-7.515-7.515-7.515c-4.15,0-7.515,3.364-7.515,7.515c0,12.983,10.563,23.546,23.546,23.546
			c12.983,0,23.546-10.563,23.546-23.546C239.467,279.904,236.103,276.54,231.953,276.54z"/>
	</g>
</g>
<g>
	<g>
		<path d="M304.094,276.54c-4.151,0-7.515,3.364-7.515,7.515c0,4.696-3.82,8.517-8.517,8.517s-8.517-3.82-8.517-8.517
			c0-4.151-3.364-7.515-7.515-7.515s-7.515,3.364-7.515,7.515c0,12.983,10.563,23.546,23.546,23.546s23.546-10.563,23.546-23.546
			C311.608,279.905,308.245,276.54,304.094,276.54z"/>
	</g>
</g>
<g>
	<g>
		<path d="M280.047,316.619h-48.094c-6.551,0-9.95,8.191-5.313,12.829l24.047,24.047c2.896,2.895,7.732,2.894,10.628,0
			l24.047-24.047C289.996,324.811,286.598,316.619,280.047,316.619z M256,337.553l-5.905-5.906h11.81L256,337.553z"/>
	</g>
</g>
<g>
	<g>
		<path d="M509.799,238.662l-22.671-22.671c-2.937-2.935-7.694-2.934-10.628,0l-11.218,11.219V83.664
			c0-26.242-21.351-47.593-47.593-47.593H103.702c-12.983,0-23.546,10.563-23.546,23.546v88.172c0,4.151,3.365,7.515,7.515,7.515
			c4.15,0,7.515-3.364,7.515-7.515V59.617c0-4.696,3.82-8.517,8.517-8.517h313.986c17.956,0,32.564,14.608,32.564,32.564v161.689
			c0,6.551,8.19,9.95,12.829,5.314l18.733-18.734l12.044,12.045l-46.101,46.1c-3.222,3.224-8.82,3.224-12.044,0l-46.101-46.1
			l12.044-12.045l18.733,18.734c4.638,4.634,12.829,1.238,12.829-5.314V91.679c0-12.983-10.563-23.546-23.546-23.546H119.734
			c-4.15,0-7.515,3.364-7.515,7.515v72.141c0,4.151,3.365,7.515,7.515,7.515c4.15,0,7.515-3.364,7.515-7.515V83.163h282.425
			c4.696,0,8.517,3.82,8.517,8.517v135.532l-11.218-11.219c-2.937-2.935-7.694-2.934-10.628,0l-22.671,22.671
			c-2.935,2.936-2.935,7.693,0,10.628l51.413,51.413c9.064,9.062,24.236,9.062,33.299,0l51.413-51.413
			C512.734,246.355,512.734,241.598,509.799,238.662z"/>
	</g>
</g>
<g>
	<g>
		<path d="M424.328,356.697c-4.151,0-7.515,3.364-7.515,7.515v88.172c0,4.696-3.82,8.517-8.517,8.517H94.311
			c-17.955,0-32.564-14.608-32.564-32.564V266.648c0-6.55-8.19-9.95-12.828-5.314l-18.734,18.734l-12.044-12.044l46.1-46.1
			c3.263-3.264,8.779-3.264,12.044,0l46.1,46.1l-12.044,12.044l-18.734-18.735c-4.637-4.637-12.828-1.235-12.828,5.314v153.673
			c0,12.983,10.563,23.546,23.546,23.546h197.759c4.151,0,7.515-3.364,7.515-7.515s-3.364-7.515-7.515-7.515H102.327
			c-4.696,0-8.517-3.82-8.517-8.517V284.79l11.219,11.219c2.935,2.934,7.693,2.934,10.627,0l22.671-22.671
			c2.935-2.936,2.935-7.693,0-10.628l-51.413-51.413c-9.181-9.18-24.118-9.178-33.298,0L2.201,262.709
			c-2.935,2.936-2.935,7.693,0,10.628l22.671,22.671c2.935,2.934,7.693,2.934,10.627,0l11.219-11.219v143.547
			c0,26.242,21.351,47.593,47.593,47.593h313.986c12.983,0,23.546-10.563,23.546-23.546v-88.172
			C431.843,360.061,428.48,356.697,424.328,356.697z"/>
	</g>
</g>
<g>
	<g>
		<path d="M392.266,356.697c-4.151,0-7.515,3.364-7.515,7.515v64.626h-48.595c-4.15,0-7.515,3.365-7.515,7.515
			c0,4.151,3.364,7.515,7.515,7.515h56.11c4.151,0,7.515-3.364,7.515-7.515v-72.141C399.781,360.06,396.417,356.697,392.266,356.697
			z"/>
	</g>
</g>
<g>
</g>
<g>
</g>
<g>
</g>
<g>
</g>
<g>
</g>
<g>
</g>
<g>
</g>
<g>
</g>
<g>
</g>
<g>
</g>
<g>
</g>
<g>
</g>
<g>
</g>
<g>
</g>
<g>
</g>
</svg>
