<?xml version="1.0" encoding="iso-8859-1"?>
<!-- Generator: Adobe Illustrator 19.0.0, SVG Export Plug-In . SVG Version: 6.00 Build 0)  -->
<svg version="1.1" id="Capa_1" xmlns="http://www.w3.org/2000/svg" xmlns:xlink="http://www.w3.org/1999/xlink" x="0px" y="0px"
	 viewBox="0 0 512 512" style="enable-background:new 0 0 512 512;" xml:space="preserve">
<g>
	<g>
		<path d="M408.297,360.704h-32.063c-4.151,0-7.515,3.364-7.515,7.515s3.364,7.515,7.515,7.515h32.063
			c9.116,0,16.532,7.417,16.532,16.532v104.705H87.17V392.266c0-9.116,7.417-16.532,16.532-16.532h236.796
			c4.151,0,7.515-3.364,7.515-7.515s-3.364-7.515-7.515-7.515h-76.983v-9.018h40.579c12.983,0,23.546-10.563,23.546-23.546
			c0-12.983-10.563-23.546-23.546-23.546H159.812c-4.696,0-8.517-3.82-8.517-8.517c0-4.696,3.82-8.517,8.517-8.517H256
			c4.151,0,7.515-3.364,7.515-7.515v-24.775c66.957-3.904,120.235-59.604,120.235-127.522C383.75,57.308,326.442,0,256,0
			S128.25,57.308,128.25,127.75c0,67.918,53.278,123.618,120.235,127.522v17.261h-88.673c-12.983,0-23.546,10.563-23.546,23.546
			c0,12.983,10.563,23.546,23.546,23.546h144.282c4.696,0,8.517,3.82,8.517,8.517c0,4.696-3.82,8.517-8.517,8.517H256
			c-4.151,0-7.515,3.364-7.515,7.515v16.532H103.703c-17.403,0-31.562,14.159-31.562,31.562v112.219
			c0,4.151,3.364,7.515,7.515,7.515h352.689c4.151,0,7.515-3.364,7.515-7.515V392.266
			C439.859,374.863,425.7,360.704,408.297,360.704z M280.101,232.172c3.857-9.065,6.966-20.286,9.356-32.783h16.201
			c-1.584,3.299-3.272,6.485-5.09,9.513C294.514,218.99,287.574,226.828,280.101,232.172z M295.513,120.235
			c-0.273-16.7-1.457-33.53-3.601-49.096h19.841c5.059,14.905,8.047,31.601,8.713,49.096H295.513z M320.467,135.264
			c-0.666,17.495-3.654,34.191-8.713,49.096h-19.841c2.144-15.565,3.328-32.396,3.601-49.096H320.467z M304.478,229.5
			c3.163-3.884,6.164-8.177,8.978-12.865c3.224-5.374,6.103-11.157,8.659-17.246h20.85
			C332.534,212.026,319.409,222.357,304.478,229.5z M353.379,184.463c-0.389-0.062-0.785-0.103-1.191-0.103h-24.662
			c4.634-15.187,7.367-31.819,7.982-49.096h32.956C367.283,153.109,361.934,169.831,353.379,184.463z M352.188,71.139
			c0.407,0,0.803-0.041,1.191-0.103c8.555,14.633,13.904,31.354,15.084,49.199h-32.956c-0.614-17.277-3.348-33.909-7.982-49.096
			H352.188z M342.963,56.11h-20.85c-2.555-6.089-5.435-11.872-8.659-17.246c-2.813-4.688-5.813-8.982-8.978-12.865
			C319.409,33.142,332.534,43.473,342.963,56.11z M300.567,46.597c1.817,3.028,3.506,6.213,5.09,9.513h-16.201
			c-2.391-12.498-5.5-23.718-9.356-32.783C287.573,28.671,294.514,36.509,300.567,46.597z M240.59,44.667
			c6.452-24.192,13.463-29.638,15.41-29.638s8.958,5.446,15.411,29.638c0.965,3.617,1.851,7.452,2.671,11.442h-36.164
			C238.739,52.119,239.625,48.284,240.59,44.667z M276.707,71.139c2.191,14.973,3.483,31.654,3.771,49.096h-48.957
			c0.289-17.442,1.58-34.123,3.771-49.096H276.707z M231.899,23.327c-3.857,9.065-6.966,20.286-9.356,32.783h-16.2
			c1.584-3.299,3.272-6.485,5.09-9.513C217.486,36.509,224.426,28.671,231.899,23.327z M216.487,135.264
			c0.273,16.7,1.457,33.531,3.601,49.096h-19.841c-5.059-14.905-8.047-31.601-8.713-49.096H216.487z M191.534,120.235
			c0.666-17.495,3.654-34.191,8.713-49.096h19.84c-2.144,15.565-3.328,32.396-3.601,49.096H191.534z M207.522,25.999
			c-3.163,3.884-6.164,8.177-8.978,12.865c-3.224,5.374-6.103,11.157-8.659,17.246h-20.85
			C179.466,43.473,192.591,33.142,207.522,25.999z M158.621,71.036c0.389,0.062,0.785,0.103,1.191,0.103h24.662
			c-4.634,15.187-7.367,31.819-7.982,49.096h-32.956C144.717,102.39,150.066,85.668,158.621,71.036z M159.812,184.36
			c-0.407,0-0.803,0.041-1.191,0.103c-8.555-14.633-13.904-31.354-15.084-49.199h32.956c0.614,17.277,3.348,33.909,7.982,49.096
			H159.812z M169.036,199.389h20.85c2.555,6.089,5.435,11.872,8.659,17.246c2.813,4.688,5.813,8.982,8.978,12.865
			C192.591,222.357,179.466,212.026,169.036,199.389z M211.433,208.902c-1.817-3.028-3.506-6.213-5.09-9.513h16.201
			c2.391,12.498,5.5,23.718,9.356,32.783C224.427,226.828,217.486,218.99,211.433,208.902z M231.521,135.264h48.957
			c-0.289,17.442-1.58,34.123-3.771,49.096h-41.414C233.101,169.387,231.81,152.706,231.521,135.264z M240.589,210.832
			c-0.965-3.617-1.851-7.452-2.671-11.442h36.164c-0.821,3.991-1.706,7.825-2.671,11.442c-6.452,24.192-13.463,29.638-15.41,29.638
			S247.042,235.024,240.589,210.832z"/>
	</g>
</g>
<g>
	<g>
		<path d="M328.141,464.908H183.859c-4.151,0-7.515,3.364-7.515,7.515c0,4.151,3.364,7.515,7.515,7.515h144.282
			c4.151,0,7.515-3.364,7.515-7.515C335.656,468.272,332.292,464.908,328.141,464.908z"/>
	</g>
</g>
<g>
	<g>
		<path d="M392.266,464.908h-24.047c-4.151,0-7.515,3.364-7.515,7.515c0,4.151,3.364,7.515,7.515,7.515h24.047
			c4.151,0,7.515-3.364,7.515-7.515C399.781,468.272,396.417,464.908,392.266,464.908z"/>
	</g>
</g>
<g>
	<g>
		<path d="M143.781,464.908h-24.047c-4.151,0-7.515,3.364-7.515,7.515c0,4.151,3.364,7.515,7.515,7.515h24.047
			c4.151,0,7.515-3.364,7.515-7.515C151.295,468.272,147.932,464.908,143.781,464.908z"/>
	</g>
</g>
<g>
	<g>
		<path d="M143.781,432.845h-24.047c-4.151,0-7.515,3.364-7.515,7.515c0,4.151,3.364,7.515,7.515,7.515h24.047
			c4.151,0,7.515-3.364,7.515-7.515C151.295,436.209,147.932,432.845,143.781,432.845z"/>
	</g>
</g>
<g>
	<g>
		<path d="M207.906,432.845h-24.047c-4.151,0-7.515,3.364-7.515,7.515c0,4.151,3.364,7.515,7.515,7.515h24.047
			c4.151,0,7.515-3.364,7.515-7.515C215.421,436.209,212.057,432.845,207.906,432.845z"/>
	</g>
</g>
<g>
	<g>
		<path d="M328.141,432.845h-24.047c-4.151,0-7.515,3.364-7.515,7.515c0,4.151,3.364,7.515,7.515,7.515h24.047
			c4.151,0,7.515-3.364,7.515-7.515C335.656,436.209,332.292,432.845,328.141,432.845z"/>
	</g>
</g>
<g>
	<g>
		<path d="M272.031,432.845h-32.063c-4.151,0-7.515,3.364-7.515,7.515c0,4.151,3.364,7.515,7.515,7.515h32.063
			c4.151,0,7.515-3.364,7.515-7.515C279.546,436.209,276.182,432.845,272.031,432.845z"/>
	</g>
</g>
<g>
	<g>
		<path d="M392.266,432.845h-24.047c-4.151,0-7.515,3.364-7.515,7.515c0,4.151,3.364,7.515,7.515,7.515h24.047
			c4.151,0,7.515-3.364,7.515-7.515C399.781,436.209,396.417,432.845,392.266,432.845z"/>
	</g>
</g>
<g>
	<g>
		<path d="M143.781,400.783h-24.047c-4.151,0-7.515,3.364-7.515,7.515c0,4.151,3.364,7.515,7.515,7.515h24.047
			c4.151,0,7.515-3.364,7.515-7.515C151.295,404.146,147.932,400.783,143.781,400.783z"/>
	</g>
</g>
<g>
	<g>
		<path d="M207.906,400.783h-24.047c-4.151,0-7.515,3.364-7.515,7.515c0,4.151,3.364,7.515,7.515,7.515h24.047
			c4.151,0,7.515-3.364,7.515-7.515C215.421,404.146,212.057,400.783,207.906,400.783z"/>
	</g>
</g>
<g>
	<g>
		<path d="M328.141,400.783h-24.047c-4.151,0-7.515,3.364-7.515,7.515c0,4.151,3.364,7.515,7.515,7.515h24.047
			c4.151,0,7.515-3.364,7.515-7.515C335.656,404.146,332.292,400.783,328.141,400.783z"/>
	</g>
</g>
<g>
	<g>
		<path d="M272.031,400.783h-32.063c-4.151,0-7.515,3.364-7.515,7.515c0,4.151,3.364,7.515,7.515,7.515h32.063
			c4.151,0,7.515-3.364,7.515-7.515C279.546,404.146,276.182,400.783,272.031,400.783z"/>
	</g>
</g>
<g>
	<g>
		<path d="M392.266,400.783h-24.047c-4.151,0-7.515,3.364-7.515,7.515c0,4.151,3.364,7.515,7.515,7.515h24.047
			c4.151,0,7.515-3.364,7.515-7.515C399.781,404.146,396.417,400.783,392.266,400.783z"/>
	</g>
</g>
<g>
	<g>
		<path d="M461.766,58.632c-2.757-3.102-7.507-3.381-10.609-0.622c-3.102,2.757-3.381,7.508-0.622,10.609
			c14.437,16.236,22.389,37.152,22.389,58.891c0,21.74-7.952,42.655-22.389,58.892c-2.504,2.815-2.503,7.197,0.014,10.004
			c2.954,3.294,8.275,3.292,11.217-0.017c16.887-18.991,26.187-43.453,26.187-68.879S478.653,77.623,461.766,58.632z"/>
	</g>
</g>
<g>
	<g>
		<path d="M439.179,81.531c-2.664-3.18-7.405-3.6-10.586-0.935c-3.182,2.665-3.6,7.405-0.935,10.586
			c8.514,10.162,13.203,23.062,13.203,36.327s-4.689,26.165-13.203,36.327c-2.665,3.18-2.247,7.92,0.935,10.586
			c3.139,2.63,7.958,2.203,10.586-0.935c10.776-12.86,16.712-29.189,16.712-45.978C455.89,110.721,449.955,94.392,439.179,81.531z"
			/>
	</g>
</g>
<g>
	<g>
		<path d="M416.735,104.909c-2.373-3.405-7.055-4.241-10.461-1.871c-3.405,2.373-4.242,7.056-1.871,10.461
			c2.876,4.128,4.396,8.973,4.396,14.009c0,5.037-1.52,9.88-4.395,14.007c-3.397,4.875,0.183,11.811,6.158,11.811
			c2.375,0,4.712-1.123,6.172-3.22c4.64-6.659,7.093-14.474,7.093-22.599C423.827,119.385,421.375,111.571,416.735,104.909z"/>
	</g>
</g>
<g>
	<g>
		<path d="M39.076,127.509c0-21.739,7.952-42.654,22.389-58.891c2.758-3.101,2.48-7.851-0.622-10.609
			c-3.101-2.758-7.851-2.48-10.609,0.622c-16.887,18.991-26.187,43.452-26.187,68.878s9.299,49.887,26.186,68.879
			c2.941,3.309,8.262,3.311,11.217,0.017c2.518-2.807,2.518-7.188,0.014-10.004C47.028,170.163,39.076,149.248,39.076,127.509z"/>
	</g>
</g>
<g>
	<g>
		<path d="M71.139,127.509c0-13.264,4.689-26.164,13.203-36.326c2.665-3.181,2.247-7.92-0.935-10.586
			c-3.18-2.665-7.92-2.246-10.586,0.935c-10.776,12.86-16.712,29.189-16.712,45.977c0,16.789,5.936,33.118,16.712,45.978
			c2.842,3.394,8.161,3.554,11.212,0.348c2.599-2.732,2.728-7.112,0.309-10C75.828,153.674,71.139,140.774,71.139,127.509z"/>
	</g>
</g>
<g>
	<g>
		<path d="M103.201,127.509c0-5.037,1.52-9.88,4.395-14.007c2.373-3.405,1.535-8.089-1.87-10.46
			c-3.406-2.373-8.089-1.535-10.46,1.87c-4.64,6.659-7.093,14.473-7.093,22.598s2.453,15.939,7.093,22.599
			c1.46,2.096,3.796,3.219,6.172,3.219c5.975,0,9.556-6.937,6.158-11.811C104.721,137.389,103.201,132.546,103.201,127.509z"/>
	</g>
</g>
<g>
</g>
<g>
</g>
<g>
</g>
<g>
</g>
<g>
</g>
<g>
</g>
<g>
</g>
<g>
</g>
<g>
</g>
<g>
</g>
<g>
</g>
<g>
</g>
<g>
</g>
<g>
</g>
<g>
</g>
</svg>
