<?xml version="1.0" encoding="iso-8859-1"?>
<!-- Generator: Adobe Illustrator 19.0.0, SVG Export Plug-In . SVG Version: 6.00 Build 0)  -->
<svg version="1.1" id="Capa_1" xmlns="http://www.w3.org/2000/svg" xmlns:xlink="http://www.w3.org/1999/xlink" x="0px" y="0px"
	 viewBox="0 0 512.001 512.001" style="enable-background:new 0 0 512.001 512.001;" xml:space="preserve">
<g>
	<g>
		<path d="M324.298,169.603l-96.195-64.13c-4.904-3.272-11.684,0.371-11.684,6.253v128.26c0,2.772,1.525,5.319,3.969,6.625
			c2.419,1.295,5.432,1.149,7.715-0.373l96.195-64.13C328.683,179.187,328.684,172.525,324.298,169.603z M231.451,225.943V125.768
			l75.132,50.087L231.451,225.943z"/>
	</g>
</g>
<g>
	<g>
		<path d="M506.527,128.704c-5.613-12.91-18.024-21.304-32.391-21.905c-15.636-0.65-30.42,7.582-41.779,22.942
			c-3.134-4.24-6.534-7.915-10.133-11.032c-0.07-0.457-0.179-0.915-0.339-1.367C397.127,47.156,330.463,0,256,0
			C159.033,0,80.144,78.889,80.144,175.856c0,27.007,5.762,57.167,17.108,89.708c-6.425,3.88-12.382,9.418-17.609,16.485
			c-11.358-15.359-26.095-23.606-41.779-22.941c-14.367,0.602-26.779,8.996-32.392,21.905c-6.9,15.867-2.398,34.835,12.351,52.042
			c28.446,33.186,56.989,49.125,58.191,49.789c2.238,1.232,5.02,1.232,7.257,0c1.072-0.591,23.917-13.359,49.035-39.678
			c49.427,90.722,117.444,165.657,118.143,166.423c2.937,3.216,8.165,3.218,11.1,0c0.24-0.263,23.356-25.673,52.067-64.272
			c25.872,27.715,49.881,41.131,50.981,41.738c2.237,1.233,5.019,1.233,7.257,0c1.201-0.662,29.746-16.602,58.191-49.789
			c14.749-17.207,19.251-36.175,12.351-52.042c-5.613-12.91-18.024-21.304-32.392-21.905c-15.648-0.659-30.421,7.582-41.779,22.942
			c-2.557-3.459-5.296-6.536-8.17-9.254c33.367-54.278,55.343-104.125,65.423-148.387c1.296,0.796,2.618,1.712,4.034,2.291
			c2.085,0.852,4.495,0.713,6.469-0.374c1.201-0.662,29.746-16.602,58.191-49.789C508.925,163.54,513.427,144.572,506.527,128.704z
			 M130.049,323.274c-20.864,24.341-42.119,38.98-50.412,44.215c-8.283-5.215-29.459-19.783-50.402-44.216
			c-10.856-12.667-14.493-25.884-9.979-36.267c3.299-7.586,10.67-12.522,19.238-12.881c0.356-0.015,0.711-0.022,1.067-0.022
			c12.538,0,24.683,9.252,33.464,25.561c2.785,5.169,10.449,5.17,13.234,0c9.031-16.771,21.648-26.075,34.532-25.538
			c8.568,0.359,15.939,5.295,19.238,12.881C144.543,297.39,140.905,310.609,130.049,323.274z M361.61,403.873
			c2.785,5.169,10.449,5.17,13.234,0c9.031-16.771,21.64-26.067,34.532-25.538c8.568,0.359,15.939,5.295,19.238,12.881
			c4.514,10.383,0.877,23.602-9.979,36.267c-20.865,24.342-42.12,38.981-50.414,44.216c-8.283-5.215-29.459-19.783-50.402-44.216
			c-10.856-12.667-14.493-25.884-9.979-36.267c3.299-7.586,10.67-12.522,19.238-12.881c0.356-0.015,0.711-0.022,1.067-0.022
			C340.685,378.313,352.829,387.564,361.61,403.873z M347.829,368.201c-6.749-3.495-13.96-5.204-21.381-4.883
			c-14.367,0.602-26.779,8.996-32.391,21.905c-6.426,14.778-2.957,32.246,9.465,48.475c-20.79,28.143-38.815,49.474-47.518,59.476
			c-17.437-20.062-72.368-85.757-113.044-161.92c13.548-16.722,17.515-34.927,10.855-50.243
			c-5.613-12.91-18.024-21.304-32.392-21.905c-3.454-0.145-6.862,0.168-10.205,0.872c-10.645-30.698-16.042-58.976-16.042-84.123
			c0-88.679,72.146-160.825,160.825-160.825c62.848,0,119.62,36.73,145.799,92.847c-3.662-0.864-7.413-1.239-11.221-1.078
			c-5.52,0.232-10.747,1.622-15.415,3.969c-10.915-19.955-26.659-36.892-45.906-49.247c-21.849-14.027-47.182-21.44-73.258-21.44
			c-17.256,0-34.072,3.194-49.982,9.498c-3.86,1.528-5.748,5.896-4.22,9.754c1.527,3.86,5.895,5.748,9.754,4.22
			c14.142-5.601,29.096-8.441,44.448-8.441c44.932,0,86.623,25.495,107.254,65.249c-2.023,2.504-3.741,5.293-5.067,8.344
			c-6.9,15.867-2.398,34.836,12.351,52.042c1.895,2.211,3.79,4.34,5.678,6.398C370.502,248.671,318.059,296.6,256,296.6
			c-66.579,0-120.744-54.166-120.744-120.744c0-38.364,17.624-73.59,48.352-96.646c3.32-2.49,3.992-7.202,1.501-10.521
			c-2.491-3.32-7.203-3.993-10.521-1.501c-16.507,12.385-30.184,28.62-39.554,46.949c-9.827,19.223-14.808,39.988-14.808,61.72
			c0,74.866,60.908,135.775,135.775,135.775c34.417,0,67.243-12.899,92.433-36.322c21.541-20.029,35.822-46.159,41.079-74.696
			c8.376,7.883,16.167,14.163,22.566,18.891C403.089,263.294,381.492,313.279,347.829,368.201z M482.765,170.965
			c-20.865,24.342-42.12,38.981-50.414,44.216c-8.283-5.215-29.459-19.783-50.402-44.216c-10.856-12.667-14.493-25.884-9.979-36.267
			c3.299-7.586,10.67-12.522,19.238-12.881c0.356-0.015,0.711-0.022,1.067-0.022c12.538,0,24.683,9.252,33.464,25.561
			c2.785,5.169,10.449,5.17,13.234,0c9.032-16.771,21.626-26.065,34.532-25.538c8.568,0.359,15.939,5.295,19.238,12.881
			C497.257,145.081,493.621,158.299,482.765,170.965z"/>
	</g>
</g>
<g>
</g>
<g>
</g>
<g>
</g>
<g>
</g>
<g>
</g>
<g>
</g>
<g>
</g>
<g>
</g>
<g>
</g>
<g>
</g>
<g>
</g>
<g>
</g>
<g>
</g>
<g>
</g>
<g>
</g>
</svg>
