<?xml version="1.0" encoding="iso-8859-1"?>
<!-- Generator: Adobe Illustrator 19.0.0, SVG Export Plug-In . SVG Version: 6.00 Build 0)  -->
<svg version="1.1" id="Capa_1" xmlns="http://www.w3.org/2000/svg" xmlns:xlink="http://www.w3.org/1999/xlink" x="0px" y="0px"
	 viewBox="0 0 511.999 511.999" style="enable-background:new 0 0 511.999 511.999;" xml:space="preserve">
<g>
	<g>
		<path d="M490.911,292.257c-11.759-14.619-27.667-25.512-45.385-31.207c1.561-6.909,2.349-13.972,2.349-21.082
			c0-52.762-42.925-95.687-95.687-95.687c-7.414,0-14.762,0.849-21.919,2.527c-19.394-35.818-57.315-58.636-98.316-58.636
			c-59.146,0-107.705,46.199-111.482,104.408C53.402,196.365,0,252.127,0,320.125c0,70.441,57.308,127.749,127.749,127.749h33.065
			c4.15,0,7.515-3.364,7.515-7.515c0-4.151-3.365-7.515-7.515-7.515h-33.065c-62.154,0-112.72-50.566-112.72-112.72
			s50.566-112.72,112.72-112.72c4.15,0,7.515-3.364,7.515-7.515c0-53.314,43.375-96.689,96.689-96.689
			c37.32,0,71.692,21.844,87.566,55.648c1.589,3.387,5.429,5.088,9.004,3.991c7.641-2.342,15.603-3.529,23.665-3.529
			c44.475,0,80.657,36.183,80.657,80.657c0,8.18-1.237,16.285-3.678,24.09c-1.286,4.115,1.281,8.59,5.472,9.563
			c36.7,8.523,62.332,40.831,62.332,78.566c0,44.475-36.183,80.657-80.657,80.657H196.383c-4.15,0-7.515,3.364-7.515,7.515
			c0,4.151,3.365,7.515,7.515,7.515h219.929c52.762,0,95.687-42.925,95.687-95.687C511.999,330.448,504.509,309.165,490.911,292.257
			z"/>
	</g>
</g>
<g>
	<g>
		<path d="M511.986,161.547c-1.489-25.37-12.21-49.242-30.188-67.221c-17.978-17.979-41.851-28.698-67.22-30.188
			c-4.14-0.245-7.699,2.919-7.942,7.062c-0.244,4.143,2.92,7.699,7.063,7.943c21.69,1.273,42.101,10.439,57.473,25.812
			c15.372,15.372,24.539,35.783,25.811,57.473c0.234,3.993,3.546,7.075,7.495,7.075c0.147,0,0.298-0.004,0.447-0.013
			C509.067,169.246,512.229,165.69,511.986,161.547z"/>
	</g>
</g>
<g>
	<g>
		<path d="M479.822,161.327c-1.475-16.716-8.824-32.459-20.695-44.329c-11.871-11.87-27.614-19.22-44.328-20.693
			c-4.135-0.373-7.782,2.691-8.146,6.825c-0.364,4.134,2.691,7.781,6.825,8.145c13.205,1.165,25.643,6.972,35.022,16.351
			c9.379,9.378,15.186,21.817,16.351,35.022c0.345,3.91,3.625,6.854,7.477,6.854c0.221,0,0.445-0.009,0.669-0.029
			C477.131,169.109,480.187,165.461,479.822,161.327z"/>
	</g>
</g>
<g>
	<g>
		<path d="M447.42,160.666c-1.428-7.992-5.219-15.252-10.964-20.995c-5.744-5.746-13.004-9.538-20.995-10.966
			c-4.086-0.73-7.99,1.989-8.72,6.075c-0.73,4.086,1.989,7.991,6.075,8.72c4.952,0.886,9.451,3.235,13.013,6.798
			c3.562,3.561,5.911,8.061,6.797,13.011c0.65,3.639,3.817,6.194,7.388,6.194c0.439,0,0.884-0.038,1.331-0.118
			C445.431,168.655,448.15,164.751,447.42,160.666z"/>
	</g>
</g>
<g>
	<g>
		<path d="M105.364,71.2c-0.243-4.143-3.782-7.292-7.943-7.062c-25.368,1.49-49.241,12.21-67.219,30.188
			c-17.978,17.978-28.7,41.852-30.188,67.221c-0.244,4.143,2.918,7.699,7.061,7.943c0.15,0.009,0.299,0.013,0.447,0.013
			c3.949,0,7.261-3.081,7.495-7.075c1.273-21.69,10.439-42.102,25.811-57.473c15.373-15.373,35.784-24.539,57.474-25.812
			C102.445,78.899,105.607,75.343,105.364,71.2z"/>
	</g>
</g>
<g>
	<g>
		<path d="M105.348,103.129c-0.365-4.135-4.021-7.209-8.146-6.825c-16.715,1.475-32.457,8.824-44.328,20.693
			c-11.871,11.871-19.221,27.615-20.695,44.329c-0.365,4.134,2.691,7.782,6.825,8.146c0.225,0.021,0.448,0.029,0.669,0.029
			c3.852,0,7.132-2.945,7.477-6.854c1.165-13.206,6.972-25.644,16.351-35.022c9.379-9.379,21.817-15.186,35.022-16.351
			C102.656,110.91,105.712,107.262,105.348,103.129z"/>
	</g>
</g>
<g>
	<g>
		<path d="M105.259,134.779c-0.731-4.085-4.636-6.809-8.72-6.074c-7.991,1.429-15.25,5.22-20.994,10.964
			c-5.745,5.744-9.538,13.004-10.965,20.996c-0.73,4.085,1.99,7.99,6.075,8.719c0.447,0.08,0.892,0.118,1.331,0.118
			c3.571,0,6.738-2.555,7.388-6.194c0.885-4.951,3.235-9.451,6.798-13.012c3.561-3.562,8.061-5.911,13.012-6.797
			C103.27,142.768,105.99,138.865,105.259,134.779z"/>
	</g>
</g>
<g>
	<g>
		<path d="M336.156,312.611h-24.548V256c0-4.151-3.365-7.515-7.515-7.515h-96.188c-4.15,0-7.515,3.364-7.515,7.515v56.61h-24.548
			c-6.551,0-9.95,8.191-5.313,12.829l80.156,80.156c1.468,1.466,3.391,2.2,5.313,2.2c1.923,0,3.846-0.733,5.313-2.2l80.156-80.156
			C346.105,320.803,342.707,312.611,336.156,312.611z M256,389.654l-62.015-62.015h13.921v0.001c4.15,0,7.515-3.364,7.515-7.515
			v-56.61h81.158v56.61c0,4.151,3.365,7.515,7.515,7.515h13.921L256,389.654z"/>
	</g>
</g>
<g>
	<g>
		<path d="M304.093,224.439h-96.188c-4.15,0-7.515,3.364-7.515,7.515c0,4.151,3.365,7.515,7.515,7.515h96.188
			c4.15,0,7.515-3.364,7.515-7.515C311.608,227.802,308.243,224.439,304.093,224.439z"/>
	</g>
</g>
<g>
	<g>
		<path d="M304.093,200.392h-96.188c-4.15,0-7.515,3.364-7.515,7.515s3.365,7.515,7.515,7.515h96.188
			c4.15,0,7.515-3.364,7.515-7.515S308.243,200.392,304.093,200.392z"/>
	</g>
</g>
<g>
</g>
<g>
</g>
<g>
</g>
<g>
</g>
<g>
</g>
<g>
</g>
<g>
</g>
<g>
</g>
<g>
</g>
<g>
</g>
<g>
</g>
<g>
</g>
<g>
</g>
<g>
</g>
<g>
</g>
</svg>
