<?xml version="1.0" encoding="iso-8859-1"?>
<!-- Generator: Adobe Illustrator 19.0.0, SVG Export Plug-In . SVG Version: 6.00 Build 0)  -->
<svg version="1.1" id="Capa_1" xmlns="http://www.w3.org/2000/svg" xmlns:xlink="http://www.w3.org/1999/xlink" x="0px" y="0px"
	 viewBox="0 0 512 512" style="enable-background:new 0 0 512 512;" xml:space="preserve">
<g>
	<g>
		<path d="M191.687,72.07c-30.633,0-55.554,24.921-55.554,55.554s24.921,55.554,55.554,55.554s55.554-24.921,55.554-55.554
			S222.32,72.07,191.687,72.07z M191.687,168.164c-22.353,0-40.54-18.186-40.54-40.54s18.186-40.54,40.54-40.54
			s40.54,18.186,40.54,40.54S214.04,168.164,191.687,168.164z"/>
	</g>
</g>
<g>
	<g>
		<path d="M191.687,24.023c-4.146,0-7.507,3.36-7.507,7.507v16.016c0,4.147,3.361,7.507,7.507,7.507s7.507-3.36,7.507-7.507V31.531
			C199.195,27.384,195.833,24.023,191.687,24.023z"/>
	</g>
</g>
<g>
	<g>
		<path d="M158.15,54.521l-8.008-13.87c-2.073-3.591-6.665-4.819-10.255-2.748c-3.591,2.073-4.821,6.665-2.748,10.255l8.008,13.87
			c1.39,2.408,3.914,3.755,6.508,3.755C157.348,65.783,160.98,59.423,158.15,54.521z"/>
	</g>
</g>
<g>
	<g>
		<path d="M126.091,81.084l-13.87-8.008c-3.592-2.072-8.182-0.844-10.255,2.748c-2.073,3.591-0.843,8.182,2.748,10.255l13.87,8.008
			c3.637,2.099,8.372,0.701,10.366-2.964C130.851,87.63,129.528,83.068,126.091,81.084z"/>
	</g>
</g>
<g>
	<g>
		<path d="M111.609,120.117H95.593c-4.146,0-7.507,3.36-7.507,7.507s3.361,7.507,7.507,7.507h16.016c4.146,0,7.507-3.36,7.507-7.507
			S115.755,120.117,111.609,120.117z"/>
	</g>
</g>
<g>
	<g>
		<path d="M128.839,163.911c-2.074-3.593-6.664-4.82-10.255-2.749l-13.87,8.008c-3.265,1.886-4.641,6.051-3.126,9.508
			c1.772,4.041,6.803,5.706,10.633,3.495l13.87-8.008C129.682,172.093,130.912,167.502,128.839,163.911z"/>
	</g>
</g>
<g>
	<g>
		<path d="M155.403,190.473c-3.592-2.073-8.183-0.844-10.256,2.748l-8.008,13.87c-1.886,3.265-0.994,7.561,2.047,9.797
			c3.56,2.619,8.751,1.531,10.957-2.289l8.008-13.87C160.224,197.138,158.993,192.546,155.403,190.473z"/>
	</g>
</g>
<g>
	<g>
		<path d="M191.687,200.195c-4.146,0-7.507,3.36-7.507,7.507v16.016c0,4.091,3.416,7.507,7.507,7.507s7.507-3.416,7.507-7.507
			v-16.016C199.195,203.556,195.833,200.195,191.687,200.195z"/>
	</g>
</g>
<g>
	<g>
		<path d="M246.237,207.09l-8.008-13.87c-2.074-3.591-6.667-4.82-10.256-2.748c-3.591,2.073-4.821,6.664-2.748,10.255l8.008,13.87
			c2.206,3.822,7.395,4.909,10.957,2.289C247.229,214.651,248.121,210.355,246.237,207.09z"/>
	</g>
</g>
<g>
	<g>
		<path d="M278.66,169.169l-13.87-8.008c-3.592-2.072-8.183-0.845-10.255,2.748c-2.073,3.592-0.843,8.183,2.748,10.256l13.87,8.008
			c3.831,2.21,8.862,0.546,10.633-3.495C283.302,175.221,281.925,171.055,278.66,169.169z"/>
	</g>
</g>
<g>
	<g>
		<path d="M287.781,120.117h-16.016c-4.147,0-7.507,3.36-7.507,7.507s3.36,7.507,7.507,7.507h16.016c4.147,0,7.507-3.36,7.507-7.507
			S291.928,120.117,287.781,120.117z"/>
	</g>
</g>
<g>
	<g>
		<path d="M281.409,75.825c-2.073-3.592-6.667-4.82-10.255-2.749l-13.87,8.008c-3.265,1.886-4.642,6.052-3.126,9.508
			c1.771,4.04,6.804,5.707,10.633,3.495l13.87-8.008C282.252,84.007,283.482,79.416,281.409,75.825z"/>
	</g>
</g>
<g>
	<g>
		<path d="M243.488,37.904c-3.591-2.072-8.182-0.844-10.255,2.748l-8.008,13.87c-2.83,4.901,0.801,11.262,6.494,11.262
			c2.595,0,5.118-1.346,6.508-3.755l8.008-13.87C248.309,44.569,247.078,39.977,243.488,37.904z"/>
	</g>
</g>
<g>
	<g>
		<path d="M502.556,411.991c-0.382-0.526-5.709-7.787-15.378-18.032c0.19-0.661,0.297-1.355,0.297-2.077V7.507
			c0-4.147-3.36-7.507-7.507-7.507H15.514c-4.145,0-7.506,3.36-7.506,7.507v56.388c0,4.147,3.361,7.507,7.507,7.507
			s7.507-3.36,7.507-7.507V15.015h449.439v189.503l-83.07-89.993c-2.809-3.044-7.721-3.195-10.71-0.328L191.094,293.968
			l-90.996-68.248c-2.989-2.242-7.172-1.944-9.813,0.697L23.023,293.68V95.593c0-4.147-3.361-7.507-7.507-7.507
			s-7.507,3.36-7.507,7.507v216.209c0,0.001,0,0.003,0,0.005v80.075c0,4.147,3.361,7.507,7.507,7.507h164.982
			c-6.507,7.299-10.087,12.175-10.397,12.601c-1.915,2.633-1.915,6.198,0,8.831c0.679,0.934,16.957,23.123,45.476,45.53
			C253.584,496.215,295.339,512,336.328,512c40.989,0,82.745-15.785,120.752-45.648c28.519-22.409,44.797-44.598,45.476-45.53
			C504.471,418.189,504.471,414.624,502.556,411.991z M23.023,384.376v-69.462l73.276-73.276l90.885,68.164
			c2.941,2.204,7.045,1.958,9.698-0.586l186.664-178.888l88.916,96.324v152.848c-4.638-4.233-9.768-8.631-15.381-13.041
			c-38.007-29.862-79.763-45.648-120.752-45.648c-40.989,0-82.745,15.785-120.752,45.648c-8.047,6.322-15.118,12.627-21.14,18.442
			c-0.853-0.336-1.778-0.526-2.75-0.526H23.023z M336.328,496.985c-47.334,0-86.564-22.934-111.137-42.174
			c-19.682-15.41-33.415-31.002-39.47-38.401c14.314-17.446,71.594-80.583,150.606-80.583c47.334,0,86.564,22.934,111.137,42.174
			c19.684,15.411,33.417,31.004,39.471,38.401C472.621,433.849,415.34,496.985,336.328,496.985z"/>
	</g>
</g>
<g>
	<g>
		<path d="M336.328,344.837c-39.464,0-71.57,32.106-71.57,71.57c0,39.464,32.106,71.57,71.57,71.57
			c39.464,0,71.57-32.106,71.57-71.57C407.898,376.943,375.792,344.837,336.328,344.837z M336.328,472.962
			c-31.184,0-56.555-25.371-56.555-56.555c0-31.184,25.371-56.555,56.555-56.555s56.555,25.371,56.555,56.555
			C392.884,447.591,367.513,472.962,336.328,472.962z"/>
	</g>
</g>
<g>
	<g>
		<path d="M351.844,376.368c-12.971,0-23.523,10.552-23.523,23.523c0,12.971,10.552,23.523,23.523,23.523
			c12.971,0,23.523-10.552,23.523-23.523C375.367,386.92,364.814,376.368,351.844,376.368z M351.844,408.399
			c-4.692,0-8.508-3.817-8.508-8.508s3.817-8.508,8.508-8.508c4.692,0,8.508,3.817,8.508,8.508S356.534,408.399,351.844,408.399z"/>
	</g>
</g>
<g>
</g>
<g>
</g>
<g>
</g>
<g>
</g>
<g>
</g>
<g>
</g>
<g>
</g>
<g>
</g>
<g>
</g>
<g>
</g>
<g>
</g>
<g>
</g>
<g>
</g>
<g>
</g>
<g>
</g>
</svg>
