<?xml version="1.0" encoding="iso-8859-1"?>
<!-- Generator: Adobe Illustrator 19.0.0, SVG Export Plug-In . SVG Version: 6.00 Build 0)  -->
<svg version="1.1" id="Capa_1" xmlns="http://www.w3.org/2000/svg" xmlns:xlink="http://www.w3.org/1999/xlink" x="0px" y="0px"
	 viewBox="0 0 512 512" style="enable-background:new 0 0 512 512;" xml:space="preserve">
<g>
	<g>
		<path d="M471.835,417.397c0.052-0.355,0.087-0.714,0.087-1.084v-24.047c0-4.151-3.364-7.515-7.515-7.515H263.515v-25.049h93.182
			c4.151,0,7.515-3.364,7.515-7.515s-3.364-7.515-7.515-7.515H127.75c-62.154,0-112.72-50.566-112.72-112.72
			s50.566-112.72,112.72-112.72c4.151,0,7.515-3.364,7.515-7.515c0-53.314,43.375-96.689,96.689-96.689
			c37.32,0,71.692,21.844,87.566,55.648c1.59,3.386,5.428,5.091,9.004,3.991c7.642-2.341,15.603-3.529,23.665-3.529
			c44.475,0,80.658,36.183,80.658,80.658c0,8.179-1.237,16.285-3.678,24.09c-0.624,1.995-0.389,4.16,0.649,5.976
			c1.039,1.815,2.785,3.114,4.822,3.587c36.701,8.523,62.332,40.831,62.332,78.566c0,44.475-36.183,80.658-80.658,80.658h-23.045
			c-4.151,0-7.515,3.364-7.515,7.515s3.364,7.515,7.515,7.515h23.045c52.762,0,95.687-42.925,95.687-95.687
			c0-21.739-7.49-43.023-21.089-59.93c-11.759-14.62-27.666-25.512-45.385-31.207c1.56-6.909,2.349-13.972,2.349-21.082
			c0-52.762-42.925-95.687-95.687-95.687c-7.413,0-14.761,0.849-21.919,2.527C310.875,22.819,272.954,0,231.953,0
			c-59.146,0-107.704,46.199-111.482,104.408C53.402,108.192,0,163.954,0,231.953c0,70.442,57.308,127.75,127.75,127.75h120.736
			v25.049H47.593c-4.151,0-7.515,3.364-7.515,7.515v24.047c0,0.37,0.035,0.729,0.087,1.084C17.438,420.975,0,440.691,0,464.407
			C0,490.649,21.351,512,47.593,512s47.593-21.351,47.593-47.593c0-23.716-17.438-43.432-40.165-47.01
			c0.052-0.355,0.087-0.714,0.087-1.084v-16.532h193.378v17.632c-22.684,3.614-40.078,23.309-40.078,46.994
			C208.407,490.649,229.758,512,256,512s47.593-21.351,47.593-47.593c0-23.685-17.394-43.38-40.078-46.994v-17.632h193.378v16.532
			c0,0.37,0.035,0.729,0.087,1.084c-22.727,3.578-40.165,23.294-40.165,47.01c0,26.242,21.351,47.593,47.593,47.593
			S512,490.649,512,464.407C512,440.691,494.562,420.975,471.835,417.397z M80.157,464.407c0,17.956-14.608,32.564-32.564,32.564
			s-32.564-14.608-32.564-32.564s14.608-32.564,32.564-32.564S80.157,446.451,80.157,464.407z M288.564,464.407
			c0,17.956-14.608,32.564-32.564,32.564s-32.564-14.608-32.564-32.564s14.608-32.564,32.564-32.564
			C273.956,431.843,288.564,446.451,288.564,464.407z M464.407,496.971c-17.956,0-32.564-14.608-32.564-32.564
			s14.608-32.564,32.564-32.564s32.564,14.608,32.564,32.564S482.363,496.971,464.407,496.971z"/>
	</g>
</g>
<g>
	<g>
		<path d="M324.454,105.575c-1.996-1.407-4.554-1.757-6.856-0.935l-112.219,40.078c-2.991,1.068-4.988,3.902-4.988,7.077v91.411
			c-8.52-6.659-19.974-10.752-32.563-10.752c-26.242,0-47.593,17.755-47.593,39.577s21.351,39.577,47.593,39.577
			s47.593-17.755,47.593-39.577v-114.94l97.19-34.711v72.732c-8.521-6.66-19.975-10.753-32.564-10.753
			c-26.242,0-47.593,17.755-47.593,39.577s21.351,39.577,47.593,39.577s47.593-17.755,47.593-39.577V111.718
			C327.64,109.274,326.452,106.983,324.454,105.575z M167.828,296.579c-17.956,0-32.564-11.011-32.564-24.548
			s14.608-24.548,32.564-24.548c17.956,0,32.564,11.012,32.564,24.548S185.784,296.579,167.828,296.579z M280.047,248.485
			c-17.956,0-32.564-11.011-32.564-24.548s14.608-24.548,32.564-24.548c17.956,0,32.564,11.012,32.564,24.548
			S298.003,248.485,280.047,248.485z"/>
	</g>
</g>
<g>
</g>
<g>
</g>
<g>
</g>
<g>
</g>
<g>
</g>
<g>
</g>
<g>
</g>
<g>
</g>
<g>
</g>
<g>
</g>
<g>
</g>
<g>
</g>
<g>
</g>
<g>
</g>
<g>
</g>
</svg>
