<?xml version="1.0" encoding="iso-8859-1"?>
<!-- Generator: Adobe Illustrator 19.0.0, SVG Export Plug-In . SVG Version: 6.00 Build 0)  -->
<svg version="1.1" id="Capa_1" xmlns="http://www.w3.org/2000/svg" xmlns:xlink="http://www.w3.org/1999/xlink" x="0px" y="0px"
	 viewBox="0 0 512 512" style="enable-background:new 0 0 512 512;" xml:space="preserve">
<g>
	<g>
		<path d="M504.485,40.078H7.515C3.365,40.078,0,43.442,0,47.593v416.814c0,4.151,3.365,7.515,7.515,7.515h496.971
			c4.15,0,7.515-3.364,7.515-7.515V47.593C512,43.442,508.635,40.078,504.485,40.078z M496.971,104.203H367.718
			c-4.15,0-7.515,3.364-7.515,7.515s3.365,7.515,7.515,7.515h129.252v337.659H15.029V119.233h317.119
			c4.15,0,7.515-3.364,7.515-7.515s-3.365-7.515-7.515-7.515H15.029V55.108h481.941V104.203z"/>
	</g>
</g>
<g>
	<g>
		<circle cx="407.796" cy="80.157" r="7.515"/>
	</g>
</g>
<g>
	<g>
		<circle cx="439.358" cy="80.157" r="7.515"/>
	</g>
</g>
<g>
	<g>
		<circle cx="470.92" cy="80.157" r="7.515"/>
	</g>
</g>
<g>
	<g>
		<path d="M143.781,72.642H55.609c-3.874,0-7.014,3.14-7.014,7.014s3.14,7.014,7.014,7.014h88.172c3.874,0,7.014-3.14,7.014-7.014
			S147.654,72.642,143.781,72.642z"/>
	</g>
</g>
<g>
	<g>
		<path d="M215.922,72.642h-40.078c-3.874,0-7.014,3.14-7.014,7.014s3.14,7.014,7.014,7.014h40.078c3.874,0,7.014-3.14,7.014-7.014
			S219.795,72.642,215.922,72.642z"/>
	</g>
</g>
<g>
	<g>
		<path d="M400.282,192.376H268.159l18.609-37.219c1.857-3.712,0.352-8.226-3.361-10.083c-3.712-1.858-8.225-0.353-10.082,3.361
			L256,183.087l-17.326-34.652c-1.856-3.711-6.369-5.215-10.082-3.361c-3.712,1.857-5.217,6.369-3.361,10.083l18.609,37.219H111.718
			c-4.15,0-7.515,3.364-7.515,7.515v208.407c0,4.151,3.365,7.515,7.515,7.515h24.548v16.532c0,4.151,3.365,7.515,7.515,7.515
			s7.515-3.364,7.515-7.515v-16.532h169.331v16.532c0,4.151,3.365,7.515,7.515,7.515c4.15,0,7.515-3.364,7.515-7.515v-16.532h64.626
			c4.15,0,7.515-3.364,7.515-7.515V199.89C407.796,195.739,404.432,192.376,400.282,192.376z M392.767,400.783H119.233V207.405
			h273.534V400.783z"/>
	</g>
</g>
<g>
	<g>
		<path d="M320.125,224.438H143.781c-4.15,0-7.515,3.364-7.515,7.515v144.282c0,4.151,3.365,7.515,7.515,7.515h176.344
			c4.15,0,7.515-3.364,7.515-7.515V231.953C327.64,227.802,324.275,224.438,320.125,224.438z M312.611,368.72H151.295V239.468
			h161.315V368.72z"/>
	</g>
</g>
<g>
	<g>
		<path d="M360.203,336.658c-12.983,0-23.546,10.563-23.546,23.546c0,12.983,10.563,23.546,23.546,23.546
			c12.983,0,23.546-10.563,23.546-23.546C383.75,347.22,373.187,336.658,360.203,336.658z M360.203,368.72
			c-4.696,0-8.517-3.82-8.517-8.517c0-4.696,3.82-8.517,8.517-8.517c4.696,0,8.517,3.82,8.517,8.517
			C368.72,364.9,364.9,368.72,360.203,368.72z"/>
	</g>
</g>
<g>
	<g>
		<path d="M376.235,224.438h-32.063c-4.15,0-7.515,3.364-7.515,7.515c0,4.151,3.365,7.515,7.515,7.515h32.063
			c4.15,0,7.515-3.364,7.515-7.515C383.75,227.802,380.385,224.438,376.235,224.438z"/>
	</g>
</g>
<g>
	<g>
		<path d="M376.235,248.485h-32.063c-4.15,0-7.515,3.364-7.515,7.515s3.365,7.515,7.515,7.515h32.063
			c4.15,0,7.515-3.364,7.515-7.515S380.385,248.485,376.235,248.485z"/>
	</g>
</g>
<g>
	<g>
		<path d="M376.235,272.532h-32.063c-4.15,0-7.515,3.364-7.515,7.515c0,4.151,3.365,7.515,7.515,7.515h32.063
			c4.15,0,7.515-3.364,7.515-7.515C383.75,275.896,380.385,272.532,376.235,272.532z"/>
	</g>
</g>
<g>
	<g>
		<path d="M376.235,296.579h-32.063c-4.15,0-7.515,3.364-7.515,7.515s3.365,7.515,7.515,7.515h32.063
			c4.15,0,7.515-3.364,7.515-7.515S380.385,296.579,376.235,296.579z"/>
	</g>
</g>
<g>
</g>
<g>
</g>
<g>
</g>
<g>
</g>
<g>
</g>
<g>
</g>
<g>
</g>
<g>
</g>
<g>
</g>
<g>
</g>
<g>
</g>
<g>
</g>
<g>
</g>
<g>
</g>
<g>
</g>
</svg>
