<?xml version="1.0" encoding="iso-8859-1"?>
<!-- Generator: Adobe Illustrator 19.0.0, SVG Export Plug-In . SVG Version: 6.00 Build 0)  -->
<svg version="1.1" id="Capa_1" xmlns="http://www.w3.org/2000/svg" xmlns:xlink="http://www.w3.org/1999/xlink" x="0px" y="0px"
	 viewBox="0 0 512 512" style="enable-background:new 0 0 512 512;" xml:space="preserve">
<g>
	<g>
		<path d="M511.898,252.531l-11.645-69.868c-1.663-10.105-9.796-18.202-19.882-19.881l-69.867-11.644
			c-4.149-0.692-8.193,2.204-8.883,6.346l-5.414,32.486c-0.701,4.206,2.14,8.182,6.345,8.883l23.507,3.919l-61.976,61.974
			c-22.429-14.957-49.322-22.147-76.465-20.328c-11.668,0.783-23.065,3.227-33.885,7.176c-37.131-13.548-77.882-8.598-110.417,13.15
			l-37.348-37.347l29.475-29.475c2.972-2.973,2.972-7.945,0-10.917l-23.289-23.289c-3.015-3.014-7.902-3.014-10.916,0
			l-29.475,29.476l-35.298-35.299c-2.971-2.971-7.945-2.971-10.916,0L2.261,181.183c-3.015,3.015-3.015,7.901,0,10.916
			l35.298,35.297L8.083,256.871c-2.972,2.974-2.972,7.945,0,10.917l23.289,23.289c3.015,3.013,7.901,3.015,10.916,0l29.475-29.475
			l37.35,37.35c-14.958,22.429-22.149,49.324-20.328,76.466c1.992,29.68,14.685,57.623,35.743,78.682
			c23.977,23.977,55.474,35.966,86.969,35.966c14.798,0,29.596-2.647,43.614-7.941c0.887,0.988,2.036,1.766,3.393,2.198
			c12.37,3.938,25.02,5.855,37.547,5.855c32.081,0,63.333-12.589,86.824-36.08c10.273-10.273,18.556-22.107,24.618-35.172
			c1.795-3.868,0.114-8.457-3.753-10.251c-3.866-1.795-8.456-0.114-10.251,3.753c-5.299,11.418-12.542,21.765-21.531,30.754
			c-25.721,25.722-62.072,36.483-97.183,29.422c7.224-4.333,14.094-9.475,20.483-15.422c0.228,0.001,0.457,0.005,0.685,0.005
			c24.047,0,46.6-9.334,63.641-26.377c35.113-35.113,35.113-92.248,0-127.362c-17.009-17.009-39.626-26.377-63.681-26.377
			c-24.055,0-46.671,9.368-63.681,26.377c-17.009,17.012-26.377,39.628-26.377,63.683s9.368,46.671,26.377,63.681
			c2.052,2.052,4.205,3.997,6.438,5.839c-6.52,2.545-13.405,4.169-20.502,4.794c-40.124-41.949-39.427-109.248,1.692-150.366
			c37.598-37.599,97.982-41.938,140.458-10.096c3.073,2.302,7.373,1.999,10.089-0.717l77.182-77.181
			c4.357-4.358,1.88-12.063-4.189-13.072l-30.689-5.116l2.876-17.258l62.253,10.376c3.84,0.638,6.526,3.653,7.223,7.391
			l10.343,62.053l-17.259,2.877l-5.114-30.689c-1.012-6.067-8.712-8.546-13.072-4.189l-77.182,77.182
			c-2.716,2.717-3.022,7.015-0.718,10.09c17.031,22.717,24.411,51.947,20.247,80.192c-0.622,4.218,2.294,8.14,6.511,8.763
			c4.215,0.622,8.141-2.294,8.763-6.511c4.431-30.059-2.58-61.102-19.288-86.214l61.979-61.979l3.917,23.508
			c0.692,4.145,4.734,7.034,8.883,6.344l32.487-5.414C509.695,260.724,512.589,256.68,511.898,252.531z M348.669,314.366
			c29.094,29.094,29.094,76.433,0,105.528c-10.651,10.652-23.911,17.658-38.327,20.463c15.445-20.77,23.913-45.818,24.144-72.144
			c0.238-27.071-8.255-52.938-24.153-74.312C324.766,296.713,338.039,303.736,348.669,314.366z M221.286,367.13
			c0-19.931,7.763-38.669,21.856-52.764c3.276-3.277,6.814-6.196,10.549-8.77c3.763,2.589,7.319,5.516,10.572,8.77
			c29.094,29.093,29.094,76.433,0,105.527c-3.276,3.277-6.814,6.196-10.549,8.77c-3.762-2.587-7.317-5.515-10.572-8.77
			C229.048,405.8,221.286,387.061,221.286,367.13z M172.915,366.224c-0.198,27.016,8.295,52.811,24.157,74.135
			c-14.434-2.812-27.707-9.835-38.338-20.465c-14.093-14.093-21.856-32.832-21.856-52.764c0-19.932,7.763-38.67,21.856-52.764
			c10.655-10.656,23.9-17.659,38.325-20.463C181.577,314.72,173.108,339.832,172.915,366.224z M212.13,277.086
			c-24.305-0.21-47.111,9.158-64.313,26.36c-17.01,17.009-26.377,39.626-26.377,63.681c0,24.055,9.368,46.671,26.377,63.681
			c17.557,17.557,40.619,26.335,63.681,26.335c23.062,0,46.124-8.778,63.681-26.335c35.113-35.115,35.113-92.248,0-127.361
			c-2.052-2.052-4.205-3.998-6.438-5.839c6.521-2.546,13.407-4.17,20.505-4.794c40.103,41.924,39.377,109.295-1.695,150.366
			c-41.937,41.937-110.171,41.937-152.107,0.002c-37.598-37.598-41.938-97.982-10.095-140.458c2.303-3.073,1.998-7.372-0.718-10.09
			l-47.409-47.409c-3.014-3.013-7.901-3.015-10.916,0l-29.475,29.475L24.459,262.33l29.475-29.475c2.972-2.973,2.972-7.945,0-10.917
			l-35.298-35.297l12.372-12.372l35.298,35.299c2.971,2.971,7.945,2.971,10.916,0l29.475-29.476l12.372,12.372l-29.475,29.473
			c-3.015,3.016-3.015,7.902,0,10.917l47.41,47.409c2.716,2.715,7.014,3.02,10.089,0.717c24.751-18.557,55.763-25.363,85.566-19.34
			C225.338,266.03,218.454,271.201,212.13,277.086z"/>
	</g>
</g>
<g>
	<g>
		<path d="M370.816,69.903c-31.007-31.007-72.232-48.082-116.08-48.082s-85.074,17.076-116.081,48.082
			c-3.015,3.016-3.015,7.903,0,10.916c3.015,3.016,7.902,3.015,10.917,0.001c28.091-28.091,65.44-43.56,105.164-43.56
			S331.809,52.729,359.9,80.82c3.14,3.139,8.44,2.927,11.327-0.444C373.814,77.356,373.627,72.714,370.816,69.903z"/>
	</g>
</g>
<g>
	<g>
		<path d="M306.772,133.947c-13.899-13.899-32.379-21.553-52.036-21.553c-19.657,0-38.137,7.655-52.036,21.553
			c-3.015,3.016-3.015,7.902,0,10.917c3.015,3.014,7.902,3.014,10.916,0c10.983-10.984,25.587-17.033,41.12-17.033
			c15.533,0,30.136,6.049,41.12,17.033c1.507,1.507,3.483,2.261,5.458,2.261C308.065,147.126,311.527,138.703,306.772,133.947z"/>
	</g>
</g>
<g>
	<g>
		<path d="M335.883,104.836c-21.676-21.676-50.494-33.612-81.147-33.612c-30.653,0-59.472,11.937-81.147,33.612
			c-3.015,3.016-3.015,7.902,0,10.917c3.015,3.014,7.902,3.014,10.916,0c18.76-18.76,43.701-29.091,70.231-29.091
			s51.471,10.331,70.231,29.091c1.507,1.507,3.483,2.261,5.458,2.261C337.176,118.015,340.638,109.593,335.883,104.836z"/>
	</g>
</g>
<g>
	<g>
		<path d="M254.736,153.564c-17.877,0-32.421,14.543-32.421,32.421c0,17.877,14.544,32.421,32.421,32.421
			c17.877,0,32.421-14.544,32.421-32.421S272.613,153.564,254.736,153.564z M254.736,202.967c-9.364,0-16.982-7.618-16.982-16.982
			s7.618-16.982,16.982-16.982c9.364,0,16.982,7.618,16.982,16.982S264.1,202.967,254.736,202.967z"/>
	</g>
</g>
<g>
</g>
<g>
</g>
<g>
</g>
<g>
</g>
<g>
</g>
<g>
</g>
<g>
</g>
<g>
</g>
<g>
</g>
<g>
</g>
<g>
</g>
<g>
</g>
<g>
</g>
<g>
</g>
<g>
</g>
</svg>
