<?xml version="1.0" encoding="iso-8859-1"?>
<!-- Generator: Adobe Illustrator 19.0.0, SVG Export Plug-In . SVG Version: 6.00 Build 0)  -->
<svg version="1.1" id="Capa_1" xmlns="http://www.w3.org/2000/svg" xmlns:xlink="http://www.w3.org/1999/xlink" x="0px" y="0px"
	 viewBox="0 0 512 512" style="enable-background:new 0 0 512 512;" xml:space="preserve">
<g>
	<g>
		<path d="M504.485,40.078H7.515C3.365,40.078,0,43.442,0,47.593v416.814c0,4.151,3.365,7.515,7.515,7.515h496.971
			c4.151,0,7.515-3.364,7.515-7.515V47.593C512,43.442,508.636,40.078,504.485,40.078z M496.971,104.203H368.219
			c-4.151,0-7.515,3.364-7.515,7.515s3.364,7.515,7.515,7.515h128.751v337.659H15.029V119.233h317.119
			c4.151,0,7.515-3.364,7.515-7.515s-3.364-7.515-7.515-7.515H15.029V55.108h481.941V104.203z"/>
	</g>
</g>
<g>
	<g>
		<circle cx="407.796" cy="80.157" r="7.515"/>
	</g>
</g>
<g>
	<g>
		<circle cx="439.358" cy="80.157" r="7.515"/>
	</g>
</g>
<g>
	<g>
		<circle cx="470.92" cy="80.157" r="7.515"/>
	</g>
</g>
<g>
	<g>
		<path d="M143.781,72.141H55.609c-4.15,0-7.515,3.364-7.515,7.515s3.365,7.515,7.515,7.515h88.172c4.15,0,7.515-3.364,7.515-7.515
			S147.931,72.141,143.781,72.141z"/>
	</g>
</g>
<g>
	<g>
		<path d="M215.922,72.141h-40.078c-4.15,0-7.515,3.364-7.515,7.515s3.365,7.515,7.515,7.515h40.078c4.15,0,7.515-3.364,7.515-7.515
			S220.072,72.141,215.922,72.141z"/>
	</g>
</g>
<g>
	<g>
		<path d="M446.304,387.9c-1.072-1.786-26.832-43.727-78.586-43.727s-77.513,41.941-78.586,43.727c-1.428,2.38-1.428,5.352,0,7.732
			c1.071,1.786,26.831,43.727,78.586,43.727s77.513-41.941,78.586-43.727C447.731,393.252,447.731,390.279,446.304,387.9z
			 M367.718,424.329c-35.008,0-55.918-23.093-63.006-32.541c7.103-9.364,28.23-32.587,63.006-32.587
			c35.019,0,55.93,23.107,63.007,32.54C423.623,401.103,402.496,424.329,367.718,424.329z"/>
	</g>
</g>
<g>
	<g>
		<path d="M367.718,360.203c-17.403,0-31.562,14.159-31.562,31.562c0,17.403,14.159,31.562,31.562,31.562
			s31.562-14.159,31.562-31.562C399.28,374.362,385.121,360.203,367.718,360.203z M367.718,408.297
			c-9.116,0-16.532-7.416-16.532-16.532c0-9.116,7.417-16.532,16.532-16.532s16.532,7.417,16.532,16.532
			C384.25,400.881,376.834,408.297,367.718,408.297z"/>
	</g>
</g>
<g>
	<g>
		<path d="M407.797,135.765c-17.403,0-31.562,14.159-31.562,31.562c0,6.175,1.789,11.937,4.867,16.807l-45.604,52.119
			c-4.667-2.728-10.089-4.299-15.873-4.299c-14.309,0-26.418,9.576-30.273,22.652l-67.047-13.409
			c-2.922-14.4-15.68-25.274-30.93-25.274c-17.403,0-31.562,14.159-31.562,31.562c0,6.153,1.776,11.895,4.833,16.755l-53.529,60.22
			c-4.68-2.748-10.123-4.332-15.931-4.332c-17.403,0-31.562,14.159-31.562,31.562s14.159,31.562,31.562,31.562
			s31.562-14.159,31.562-31.562c0-6.153-1.776-11.896-4.833-16.755l53.529-60.22c4.68,2.748,10.123,4.332,15.931,4.332
			c14.309,0,26.418-9.576,30.273-22.652l67.046,13.408c2.923,14.401,15.681,25.275,30.931,25.275
			c17.403,0,31.562-14.159,31.562-31.562c0-6.175-1.789-11.936-4.867-16.807l45.604-52.119c4.667,2.727,10.089,4.299,15.873,4.299
			c17.403,0,31.562-14.159,31.562-31.562C439.358,149.924,425.199,135.765,407.797,135.765z M95.186,368.219
			c-9.116,0-16.532-7.417-16.532-16.532s7.417-16.532,16.532-16.532s16.532,7.417,16.532,16.532S104.302,368.219,95.186,368.219z
			 M191.374,264.016c-9.116,0-16.532-7.416-16.532-16.532c0-9.116,7.416-16.532,16.532-16.532c9.116,0,16.532,7.417,16.532,16.532
			C207.906,256.599,200.49,264.016,191.374,264.016z M319.624,280.047c-9.116,0-16.532-7.416-16.532-16.532
			c0-9.116,7.417-16.532,16.532-16.532s16.532,7.417,16.532,16.532C336.157,272.63,328.74,280.047,319.624,280.047z
			 M407.796,183.859c-9.116,0-16.532-7.416-16.532-16.532c0-9.116,7.417-16.532,16.532-16.532c9.116,0,16.532,7.417,16.532,16.532
			C424.329,176.443,416.912,183.859,407.796,183.859z"/>
	</g>
</g>
<g>
	<g>
		<path d="M127.249,151.796H55.108c-4.15,0-7.515,3.364-7.515,7.515s3.365,7.515,7.515,7.515h72.141c4.15,0,7.515-3.364,7.515-7.515
			S131.399,151.796,127.249,151.796z"/>
	</g>
</g>
<g>
	<g>
		<path d="M127.249,183.859H55.108c-4.15,0-7.515,3.364-7.515,7.515s3.365,7.515,7.515,7.515h72.141c4.15,0,7.515-3.364,7.515-7.515
			S131.399,183.859,127.249,183.859z"/>
	</g>
</g>
<g>
</g>
<g>
</g>
<g>
</g>
<g>
</g>
<g>
</g>
<g>
</g>
<g>
</g>
<g>
</g>
<g>
</g>
<g>
</g>
<g>
</g>
<g>
</g>
<g>
</g>
<g>
</g>
<g>
</g>
</svg>
