<?xml version="1.0" encoding="iso-8859-1"?>
<!-- Generator: Adobe Illustrator 19.0.0, SVG Export Plug-In . SVG Version: 6.00 Build 0)  -->
<svg version="1.1" id="Capa_1" xmlns="http://www.w3.org/2000/svg" xmlns:xlink="http://www.w3.org/1999/xlink" x="0px" y="0px"
	 viewBox="0 0 512.002 512.002" style="enable-background:new 0 0 512.002 512.002;" xml:space="preserve">
<g>
	<g>
		<path d="M404.807,290.656c-2.632-3.211-7.367-3.677-10.577-1.05c-3.209,2.631-3.68,7.366-1.05,10.577
			c83.069,101.38,110.156,170.799,93.98,186.974c-6.002,6.001-19.715,5.876-38.611-0.357c-8.97-2.958-19.087-7.289-30.112-12.861
			c3.826-3.901,7.717-8.106,11.609-12.648c14.748-17.206,19.25-36.173,12.35-52.039c-5.613-12.909-18.023-21.303-32.39-21.904
			c-15.64-0.66-30.418,7.582-41.776,22.941c-11.356-15.358-26.1-23.603-41.776-22.941c-8.6,0.36-16.485,3.529-22.644,8.771
			c-6.232-5.063-12.539-10.294-18.869-15.667c56.553-13.143,98.82-63.951,98.82-124.445c0-60.496-42.269-111.304-98.823-124.446
			C393.518,39.373,469.897,7.587,487.16,24.857c16.101,16.1-10.751,85.177-93.225,186.052c-2.421,2.962-2.186,7.404,0.53,10.095
			c3.105,3.076,8.341,2.799,11.106-0.582c38.406-46.975,67.683-90.501,84.665-125.87c18.914-39.394,21.455-66.418,7.552-80.323
			c-14.974-14.971-45.05-10.909-89.394,12.087c-40.267,20.881-88.94,55.551-140.756,100.264c-0.695,0.6-1.246,1.304-1.665,2.064
			c-3.287-0.254-6.61-0.387-9.963-0.387c-60.497,0-111.305,42.27-124.447,98.825C39.356,118.492,7.546,42.171,24.861,24.857
			c7.244-7.247,25.474-5.486,50.374,4.745c-2.833,14.102,2.317,29.868,14.756,44.379c28.444,33.184,56.986,49.122,58.187,49.786
			c2.237,1.232,5.02,1.232,7.256,0c0.83-0.458,14.704-8.206,32.577-23.886c7.744,5.975,15.597,12.22,23.541,18.725
			c3.389,2.774,8.561,1.995,11.002-1.628c2.136-3.17,1.476-7.581-1.479-10c-7.388-6.049-14.699-11.874-21.923-17.477
			c4.735-4.678,9.602-9.839,14.469-15.517c14.748-17.205,19.249-36.172,12.351-52.038c-5.612-12.91-18.024-21.304-32.391-21.907
			c-15.656-0.673-30.418,7.582-41.776,22.941C140.45,7.621,125.66-0.599,110.03,0.038c-11.917,0.5-22.475,6.372-28.938,15.725
			C48.959,2.514,26.474,1.989,14.232,14.228C-0.814,29.276,3.361,59.559,26.638,104.239
			c21.154,40.604,56.197,89.621,101.339,141.753c0.198,0.229,0.409,0.441,0.628,0.64c-0.225,3.096-0.345,6.222-0.345,9.374
			c0,3.231,0.123,6.434,0.36,9.606c-0.476,0.34-0.923,0.733-1.323,1.195C82.364,318.787,47.503,367.636,26.483,408.074
			c-23.14,44.515-27.262,74.699-12.251,89.71c5.884,5.883,14.114,8.821,24.639,8.821c14.299,0,32.832-5.426,55.45-16.261
			c35.246-16.885,78.636-46.025,125.482-84.269c3.215-2.624,3.694-7.358,1.068-10.574c-2.624-3.214-7.358-3.694-10.574-1.068
			c-45.936,37.501-88.285,65.98-122.47,82.357c-31.51,15.097-54.461,18.874-62.967,10.366
			C7.572,469.867,39.368,393.52,131.564,284.933c13.142,56.555,63.951,98.824,124.446,98.824c3.157,0,6.286-0.12,9.386-0.346
			c0.207,0.23,0.426,0.455,0.667,0.663c9.566,8.282,19.161,16.318,28.58,23.964c-0.193,0.404-0.4,0.8-0.58,1.213
			c-6.9,15.866-2.398,34.833,12.35,52.039c28.444,33.184,56.986,49.122,58.187,49.786c2.237,1.232,5.02,1.232,7.256,0
			c0.868-0.479,16.011-8.938,35.077-26.109c23.867,12.542,47.602,21.668,66.155,21.668c10.002,0,18.502-2.653,24.698-8.849
			c13.945-13.946,11.347-41.089-7.721-80.674C472.939,381.554,443.456,337.826,404.807,290.656z M91.421,27.936
			c3.298-7.586,10.671-12.522,19.239-12.881c0.356-0.015,0.712-0.022,1.067-0.022c12.539,0,24.681,9.25,33.462,25.558
			c2.784,5.169,10.448,5.17,13.233,0c9.031-16.769,21.646-26.052,34.53-25.535c8.568,0.359,15.939,5.294,19.237,12.88
			c4.514,10.381,0.877,23.6-9.979,36.264c-5.089,5.937-10.199,11.292-15.141,16.079c-13.193-9.901-26.047-18.998-38.448-27.197
			c-3.463-2.289-8.124-1.337-10.413,2.125s-1.338,8.123,2.125,10.413c11.433,7.559,23.27,15.902,35.414,24.957
			c-10.503,8.962-19.28,14.889-23.948,17.837C143.517,103.2,122.342,88.632,101.4,64.2C90.545,51.535,86.908,38.317,91.421,27.936z
			 M304.489,357.758c3.163-3.884,6.164-8.177,8.978-12.865c3.224-5.374,6.103-11.157,8.659-17.246h20.849
			C332.546,340.284,319.42,350.615,304.489,357.758z M295.525,263.521h24.953c-0.666,17.495-3.654,34.191-8.713,49.096h-19.841
			C294.068,297.052,295.252,280.221,295.525,263.521z M291.923,199.395h19.841c5.059,14.905,8.047,31.601,8.713,49.096h-24.953
			C295.252,231.792,294.067,214.961,291.923,199.395z M353.391,312.721c-0.389-0.062-0.785-0.103-1.191-0.103h-24.662
			c4.634-15.187,7.367-31.819,7.982-49.096h32.957C367.295,281.366,361.945,298.088,353.391,312.721z M352.199,199.395
			c0.406,0,0.803-0.041,1.191-0.103c8.555,14.633,13.904,31.355,15.085,49.2h-32.957c-0.614-17.277-3.348-33.91-7.982-49.096
			H352.199z M342.974,184.366h-20.85c-2.555-6.089-5.435-11.872-8.659-17.246c-2.813-4.688-5.813-8.982-8.978-12.865
			C319.42,161.398,332.546,171.729,342.974,184.366z M300.578,174.853c1.817,3.028,3.506,6.213,5.09,9.513h-16.201
			c-2.391-12.499-5.5-23.719-9.356-32.783C287.584,156.927,294.525,164.766,300.578,174.853z M240.599,172.924
			c6.452-24.193,13.464-29.638,15.411-29.638c1.947,0,8.959,5.445,15.411,29.638c0.965,3.617,1.851,7.452,2.671,11.442h-36.165
			C238.749,180.375,239.634,176.541,240.599,172.924z M276.718,199.395c2.191,14.973,3.483,31.653,3.771,49.096h-48.957
			c0.289-17.443,1.58-34.123,3.771-49.096H276.718z M231.909,151.583c-3.857,9.065-6.966,20.286-9.356,32.783h-16.201
			c1.584-3.299,3.272-6.485,5.09-9.513C217.496,164.766,224.437,156.927,231.909,151.583z M216.497,263.521
			c0.273,16.7,1.457,33.531,3.601,49.096h-19.841c-5.059-14.905-8.047-31.601-8.713-49.096H216.497z M191.543,248.492
			c0.666-17.495,3.654-34.191,8.713-49.096h19.841c-2.144,15.566-3.328,32.397-3.601,49.096H191.543z M207.532,154.255
			c-3.163,3.884-6.164,8.177-8.978,12.865c-3.224,5.374-6.103,11.157-8.659,17.246h-20.85
			C179.475,171.729,192.601,161.398,207.532,154.255z M158.63,199.292c0.389,0.062,0.785,0.103,1.191,0.103h24.662
			c-4.634,15.187-7.367,31.819-7.982,49.096h-32.957C144.726,230.647,150.076,213.925,158.63,199.292z M159.822,312.618
			c-0.407,0-0.803,0.041-1.191,0.103c-8.555-14.633-13.904-31.355-15.085-49.2h32.957c0.614,17.277,3.348,33.91,7.982,49.096
			H159.822z M169.046,327.647h20.85c2.555,6.089,5.435,11.872,8.659,17.246c2.813,4.688,5.813,8.982,8.978,12.865
			C192.601,350.615,179.475,340.284,169.046,327.647z M211.443,337.16c-1.817-3.028-3.506-6.213-5.09-9.513h16.201
			c2.391,12.499,5.5,23.719,9.356,32.783C224.438,355.086,217.496,347.248,211.443,337.16z M271.421,339.09
			c-6.452,24.193-13.464,29.638-15.411,29.638c-1.946,0-8.958-5.446-15.41-29.638c-0.965-3.617-1.851-7.452-2.671-11.442h36.164
			C273.271,331.638,272.386,335.473,271.421,339.09z M235.303,312.618c-2.191-14.973-3.483-31.653-3.771-49.096h48.957
			c-0.289,17.443-1.58,34.123-3.771,49.096H235.303z M289.468,327.647h16.201c-1.584,3.299-3.272,6.485-5.09,9.513
			c-6.054,10.088-12.995,17.926-20.467,23.271C283.968,351.366,287.077,340.145,289.468,327.647z M404.571,466.538
			c-10.55-5.906-21.75-12.764-33.445-20.513c-3.46-2.292-8.121-1.345-10.415,2.113c-2.292,3.46-1.347,8.123,2.113,10.415
			c9.591,6.354,19.763,12.738,30.096,18.69c-10.83,9.317-19.916,15.463-24.695,18.48c-8.282-5.214-29.457-19.782-50.399-44.214
			c-10.855-12.666-14.492-25.883-9.979-36.265c3.298-7.586,10.669-12.522,19.237-12.88c0.356-0.015,0.711-0.022,1.067-0.022
			c12.538,0,24.681,9.251,33.462,25.559c2.784,5.169,10.448,5.17,13.233,0c9.032-16.77,21.654-26.064,34.53-25.536
			c8.568,0.359,15.938,5.294,19.237,12.88c4.514,10.382,0.877,23.6-9.979,36.265C413.915,457.016,409.176,462.021,404.571,466.538z"
			/>
	</g>
</g>
<g>
</g>
<g>
</g>
<g>
</g>
<g>
</g>
<g>
</g>
<g>
</g>
<g>
</g>
<g>
</g>
<g>
</g>
<g>
</g>
<g>
</g>
<g>
</g>
<g>
</g>
<g>
</g>
<g>
</g>
</svg>
