<?xml version="1.0" encoding="iso-8859-1"?>
<!-- Generator: Adobe Illustrator 19.0.0, SVG Export Plug-In . SVG Version: 6.00 Build 0)  -->
<svg version="1.1" id="Capa_1" xmlns="http://www.w3.org/2000/svg" xmlns:xlink="http://www.w3.org/1999/xlink" x="0px" y="0px"
	 viewBox="0 0 512 512" style="enable-background:new 0 0 512 512;" xml:space="preserve">
<g>
	<g>
		<circle cx="231.953" cy="31.061" r="7.515"/>
	</g>
</g>
<g>
	<g>
		<circle cx="271.53" cy="31.061" r="7.515"/>
	</g>
</g>
<g>
	<g>
		<circle cx="192.376" cy="31.061" r="7.515"/>
	</g>
</g>
<g>
	<g>
		<path d="M247.984,472.924h-32.063c-4.151,0-7.515,3.364-7.515,7.515s3.364,7.515,7.515,7.515h32.063
			c4.151,0,7.515-3.364,7.515-7.515S252.135,472.924,247.984,472.924z"/>
	</g>
</g>
<g>
	<g>
		<circle cx="231.953" cy="31.061" r="7.515"/>
	</g>
</g>
<g>
	<g>
		<circle cx="271.53" cy="31.061" r="7.515"/>
	</g>
</g>
<g>
	<g>
		<circle cx="192.376" cy="31.061" r="7.515"/>
	</g>
</g>
<g>
	<g>
		<path d="M392.266,128.25h-8.517V31.562C383.75,14.159,369.591,0,352.188,0h-240.47C94.315,0,80.157,14.159,80.157,31.562v48.595
			c0,4.151,3.364,7.515,7.515,7.515c4.151,0,7.515-3.364,7.515-7.515V63.123H368.72v32.564v32.564H231.953
			c-21.823,0-39.577,17.755-39.577,39.577v128.25c0,21.823,17.755,39.577,39.577,39.577h16.532v40.579
			c0,6.058,7.157,9.661,12.023,6.012l62.121-46.591h46.09v113.221H95.186V115.476c0-4.151-3.364-7.515-7.515-7.515
			c-4.151,0-7.515,3.364-7.515,7.515v364.963c0,17.403,14.159,31.562,31.562,31.562h240.47c17.403,0,31.562-14.159,31.562-31.562
			V335.656h8.517c21.823,0,39.577-17.755,39.577-39.577v-128.25C431.843,146.005,414.089,128.25,392.266,128.25z M368.72,480.438
			c0,9.116-7.417,16.532-16.532,16.532h-240.47c-9.116,0-16.532-7.417-16.532-16.532v-16.532H368.72V480.438z M95.186,48.094V31.562
			c0-9.116,7.417-16.532,16.532-16.532h240.47c9.116,0,16.532,7.417,16.532,16.532v16.532H95.186z M416.814,296.078
			c0,13.536-11.011,24.548-24.548,24.548h-72.141c-1.626,0-3.208,0.527-4.509,1.503l-52.102,39.076v-33.065
			c0-4.151-3.364-7.515-7.515-7.515h-24.047c-13.536,0-24.548-11.011-24.548-24.548v-128.25c0-13.536,11.012-24.548,24.548-24.548
			h160.313c13.536,0,24.548,11.012,24.548,24.548V296.078z"/>
	</g>
</g>
<g>
	<g>
		<path d="M390.695,228.086c-1.072-1.786-26.832-43.726-78.586-43.726c-51.753,0-77.513,41.941-78.585,43.727
			c-1.428,2.38-1.428,5.352,0,7.732c1.072,1.786,26.832,43.726,78.585,43.726c51.753,0,77.513-41.941,78.586-43.727
			C392.123,233.439,392.123,230.466,390.695,228.086z M312.11,264.517c-35.008,0-55.918-23.093-63.006-32.541
			c7.103-9.363,28.23-32.587,63.006-32.587c35.019,0,55.93,23.107,63.007,32.54C368.015,241.291,346.888,264.517,312.11,264.517z"/>
	</g>
</g>
<g>
	<g>
		<path d="M312.11,200.391c-17.403,0-31.562,14.159-31.562,31.562c0,17.403,14.159,31.562,31.562,31.562
			c17.403,0,31.562-14.159,31.562-31.562C343.671,214.55,329.513,200.391,312.11,200.391z M312.11,248.485
			c-9.116,0-16.532-7.416-16.532-16.532c0-9.116,7.417-16.532,16.532-16.532c9.116,0,16.532,7.417,16.532,16.532
			C328.642,241.069,321.225,248.485,312.11,248.485z"/>
	</g>
</g>
<g>
</g>
<g>
</g>
<g>
</g>
<g>
</g>
<g>
</g>
<g>
</g>
<g>
</g>
<g>
</g>
<g>
</g>
<g>
</g>
<g>
</g>
<g>
</g>
<g>
</g>
<g>
</g>
<g>
</g>
</svg>
