<?xml version="1.0" encoding="iso-8859-1"?>
<!-- Generator: Adobe Illustrator 19.0.0, SVG Export Plug-In . SVG Version: 6.00 Build 0)  -->
<svg version="1.1" id="Capa_1" xmlns="http://www.w3.org/2000/svg" xmlns:xlink="http://www.w3.org/1999/xlink" x="0px" y="0px"
	 viewBox="0 0 512.001 512.001" style="enable-background:new 0 0 512.001 512.001;" xml:space="preserve">
<g>
	<g>
		<path d="M432.343,340.667c-4.15,0-7.515,3.364-7.515,7.515v156.304c0,4.151,3.365,7.515,7.515,7.515s7.515-3.364,7.515-7.515
			V348.182C439.858,344.031,436.494,340.667,432.343,340.667z"/>
	</g>
</g>
<g>
	<g>
		<path d="M408.296,232.888c-6.73,0-12.97,2.124-18.098,5.728c-4.134-12.618-16.014-21.759-29.995-21.759
			c-6.73,0-12.97,2.124-18.098,5.728c-4.134-12.618-16.014-21.759-29.995-21.759c-6.058,0-11.721,1.719-16.532,4.69v-22.397
			c0.758-0.255,1.491-0.629,2.163-1.142c21.708-16.528,41.947-35.678,60.152-56.919c24.532-28.621,31.825-60.623,20.008-87.801
			c-9.55-21.963-30.059-36.217-53.524-37.2c-25.769-1.088-50.209,13.837-68.377,41.332c-18.167-27.496-42.588-42.433-68.377-41.332
			c-23.466,0.983-43.975,15.238-53.524,37.2c-11.816,27.178-4.524,59.179,20.008,87.801c29.165,34.026,58.342,56.542,77.68,69.438
			c0.215,0.144,0.442,0.257,0.666,0.376v118.755l-39.038-52.014c-10.167-14.075-29.884-17.29-43.997-7.155
			c-6.847,4.918-11.37,12.209-12.734,20.527c-1.364,8.319,0.593,16.672,5.47,23.461l90.3,128.263v77.776
			c0,4.151,3.365,7.515,7.515,7.515s7.515-3.364,7.515-7.515v-80.156c0-1.532-0.487-3.073-1.37-4.325l-91.711-130.267
			c-2.576-3.587-3.601-7.962-2.887-12.319c0.714-4.358,3.084-8.176,6.671-10.752c7.404-5.318,17.755-3.62,23.071,3.782
			c0.031,0.043,0.062,0.085,0.093,0.127l52.607,70.092c1.919,2.568,5.467,3.641,8.489,2.577c2.95-1.039,5.037-3.955,5.037-7.087
			V152.231c0-9.116,7.416-16.532,16.532-16.532c9.116,0,16.532,7.416,16.532,16.532v135.833c0,4.151,3.365,7.515,7.515,7.515
			s7.515-3.364,7.515-7.515v-55.677c0-9.116,7.416-16.532,16.532-16.532c9.116,0,16.532,7.416,16.532,16.532v55.677
			c0,4.151,3.365,7.515,7.515,7.515s7.515-3.364,7.515-7.515v-39.646c0-9.116,7.416-16.532,16.532-16.532
			c9.116,0,16.532,7.416,16.532,16.532v39.646c0,4.151,3.365,7.515,7.515,7.515s7.515-3.364,7.515-7.515V264.45
			c0-9.116,7.416-16.532,16.532-16.532s16.532,7.416,16.532,16.532v48.094c0,4.151,3.365,7.515,7.515,7.515s7.515-3.364,7.515-7.515
			V264.45C439.858,247.046,425.7,232.888,408.296,232.888z M295.576,164.593v-12.362c0.001-17.404-14.157-31.561-31.56-31.561
			c-17.403,0-31.561,14.159-31.561,31.561v24.478c-18.143-12.881-42.521-32.945-66.936-61.431
			c-20.64-24.081-27.069-50.333-17.636-72.027c7.235-16.639,22.704-27.437,40.371-28.178c23.071-0.949,45.37,15.263,61.131,44.533
			c2.783,5.17,10.449,5.17,13.233,0c15.76-29.269,38.051-45.504,61.131-44.533c17.666,0.74,33.136,11.538,40.371,28.178
			c9.432,21.693,3.004,47.946-17.636,72.027C330.922,133.43,313.825,149.985,295.576,164.593z"/>
	</g>
</g>
<g>
	<g>
		<path d="M483.541,3.437c-2.757-3.101-7.507-3.381-10.609-0.622c-3.102,2.757-3.381,7.507-0.623,10.609
			c14.437,16.237,22.389,37.151,22.389,58.891c0,21.739-7.952,42.655-22.389,58.892c-2.503,2.815-2.503,7.196,0.015,10.003
			c2.955,3.294,8.275,3.291,11.217-0.017c16.886-18.991,26.186-43.453,26.186-68.878C509.727,46.889,500.427,22.428,483.541,3.437z"
			/>
	</g>
</g>
<g>
	<g>
		<path d="M460.953,26.337c-2.666-3.181-7.404-3.601-10.587-0.935c-3.181,2.665-3.599,7.405-0.934,10.586
			c8.514,10.162,13.203,23.063,13.203,36.326c0,13.265-4.689,26.165-13.203,36.326c-2.42,2.888-2.29,7.267,0.309,9.999
			c3.05,3.208,8.368,3.045,11.212-0.347c10.777-12.862,16.713-29.191,16.713-45.979C477.664,55.528,471.73,39.199,460.953,26.337z"
			/>
	</g>
</g>
<g>
	<g>
		<path d="M438.508,49.713c-2.372-3.404-7.056-4.239-10.46-1.868c-3.406,2.372-4.242,7.056-1.871,10.46
			c2.876,4.127,4.395,8.97,4.395,14.007s-1.52,9.88-4.395,14.007c-2.157,3.097-1.633,7.457,1.209,9.944
			c3.326,2.911,8.596,2.273,11.122-1.354c4.64-6.659,7.093-14.474,7.093-22.599S443.148,56.373,438.508,49.713z"/>
	</g>
</g>
<g>
	<g>
		<path d="M17.303,72.314c0-21.738,7.951-42.653,22.389-58.891c2.757-3.102,2.479-7.851-0.623-10.609
			c-3.1-2.756-7.85-2.48-10.609,0.622C11.574,22.429,2.274,46.89,2.274,72.314c0,25.425,9.3,49.887,26.186,68.878
			c2.942,3.308,8.262,3.312,11.217,0.017c2.518-2.807,2.518-7.188,0.015-10.003C25.254,114.969,17.303,94.054,17.303,72.314z"/>
	</g>
</g>
<g>
	<g>
		<path d="M49.366,72.314c0-13.264,4.689-26.164,13.203-36.326c2.664-3.181,2.246-7.92-0.935-10.587
			c-3.182-2.665-7.921-2.247-10.586,0.935c-10.777,12.861-16.713,29.19-16.713,45.978c0,16.789,5.935,33.117,16.712,45.979
			c2.841,3.394,8.161,3.555,11.212,0.348c2.599-2.732,2.728-7.112,0.309-9.999C54.055,98.479,49.366,85.579,49.366,72.314z"/>
	</g>
</g>
<g>
	<g>
		<path d="M81.428,72.315c0-5.038,1.52-9.881,4.395-14.006c2.373-3.407,1.535-8.091-1.87-10.463
			c-3.405-2.373-8.089-1.535-10.461,1.869c-4.64,6.659-7.093,14.474-7.093,22.6c0,8.126,2.453,15.94,7.093,22.6
			c2.526,3.625,7.796,4.264,11.122,1.353c2.843-2.489,3.367-6.848,1.209-9.945C82.948,82.197,81.428,77.353,81.428,72.315z"/>
	</g>
</g>
<g>
</g>
<g>
</g>
<g>
</g>
<g>
</g>
<g>
</g>
<g>
</g>
<g>
</g>
<g>
</g>
<g>
</g>
<g>
</g>
<g>
</g>
<g>
</g>
<g>
</g>
<g>
</g>
<g>
</g>
</svg>
