<?xml version="1.0" encoding="iso-8859-1"?>
<!-- Generator: Adobe Illustrator 19.0.0, SVG Export Plug-In . SVG Version: 6.00 Build 0)  -->
<svg version="1.1" id="Capa_1" xmlns="http://www.w3.org/2000/svg" xmlns:xlink="http://www.w3.org/1999/xlink" x="0px" y="0px"
	 viewBox="0 0 512 512" style="enable-background:new 0 0 512 512;" xml:space="preserve">
<g>
	<g>
		<path d="M508.807,50.682c-5.664-13.028-18.19-21.498-32.687-22.105c-15.784-0.68-30.697,7.65-42.159,23.151
			c-11.46-15.5-26.377-23.834-42.159-23.151c-14.498,0.608-27.023,9.078-32.687,22.105c-6.962,16.011-2.419,35.152,12.464,52.516
			c28.704,33.488,57.509,49.572,58.72,50.242c2.258,1.244,5.066,1.244,7.323,0c1.212-0.668,30.017-16.753,58.72-50.242
			C511.226,85.833,515.769,66.693,508.807,50.682z M484.828,93.326c-21.055,24.564-42.503,39.336-50.873,44.619
			c-8.358-5.262-29.727-19.963-50.861-44.619c-10.955-12.782-14.625-26.12-10.07-36.596c3.329-7.656,10.767-12.637,19.413-12.999
			c0.359-0.015,0.718-0.022,1.077-0.022c12.652,0,24.907,9.336,33.768,25.793c2.809,5.217,10.545,5.217,13.354,0
			c9.112-16.924,21.795-26.311,34.846-25.77c8.646,0.362,16.085,5.343,19.413,12.999C499.453,67.206,495.783,80.545,484.828,93.326z
			"/>
	</g>
</g>
<g>
	<g>
		<path d="M152.884,131.573c-5.664-13.028-18.189-21.498-32.687-22.105c-15.781-0.682-30.697,7.65-42.159,23.151
			c-11.46-15.5-26.375-23.82-42.159-23.151c-14.498,0.608-27.023,9.078-32.687,22.105c-6.962,16.011-2.419,35.152,12.464,52.516
			c28.704,33.488,57.509,49.572,58.72,50.242c2.258,1.244,5.066,1.244,7.323,0c1.212-0.668,30.017-16.753,58.72-50.242
			C155.303,166.725,159.846,147.585,152.884,131.573z M128.903,174.218c-21.053,24.563-42.501,39.336-50.871,44.618
			c-8.358-5.262-29.727-19.963-50.861-44.619c-10.955-12.782-14.625-26.12-10.07-36.596c3.329-7.656,10.767-12.637,19.413-12.999
			c0.359-0.015,0.718-0.022,1.077-0.022c12.652,0,24.908,9.336,33.768,25.793c2.809,5.217,10.545,5.217,13.354,0
			c9.112-16.924,21.793-26.299,34.846-25.77c8.646,0.362,16.085,5.343,19.413,12.999
			C143.528,148.099,139.858,161.438,128.903,174.218z"/>
	</g>
</g>
<g>
	<g>
		<path d="M414.661,442.12l-34.675-34.676l28.957-28.957c4.206-4.206,1.945-11.634-3.876-12.799l-36.558-7.312
			c17.585-26.242,21.329-54.324,10.112-78.156c-10.103-21.468-30.847-35.195-54.136-35.825c-25.69-0.716-49.991,14.37-68.094,41.75
			c-17.836-26.954-41.803-42-67.032-41.77c-22.835,0.223-43.609,13.196-54.217,33.855c-12.669,24.673-8.804,54.673,10.605,82.304
			c2.406,3.429,7.137,4.255,10.564,1.847c3.428-2.408,4.255-7.138,1.847-10.564c-16.062-22.868-19.533-47.166-9.523-66.66
			c8.026-15.633,23.688-25.448,40.872-25.617c0.153-0.001,0.305-0.002,0.458-0.002c22.587,0,44.342,16.367,59.75,44.982
			c2.809,5.216,10.545,5.218,13.354,0c15.723-29.2,37.961-45.548,61.005-44.966c17.529,0.474,33.172,10.867,40.822,27.122
			c9.572,20.337,4.931,45.2-12.691,68.438l-61.539-12.308c-5.214-1.047-9.966,3.711-8.923,8.923l12.137,60.683
			c-17.442,13.725-31.357,22.06-37.485,25.497c-10.195-5.73-41.952-25.023-76.114-60.482c-2.906-3.015-7.707-3.104-10.723-0.2
			c-3.016,2.906-3.105,7.707-0.2,10.723c43.262,44.903,82.014,64.547,83.643,65.361c2.115,1.059,4.667,1.059,6.783,0
			c0.704-0.352,15.74-7.947,37.416-24.303l7.424,37.119c1.164,5.822,8.591,8.078,12.799,3.876l28.957-28.957l34.676,34.677
			c2.922,2.921,7.803,2.921,10.724,0l22.879-22.879C417.622,449.883,417.622,445.082,414.661,442.12z M386.42,459.638
			l-34.676-34.677c-2.922-2.921-7.803-2.921-10.724,0l-24.3,24.3l-17.87-89.349l89.349,17.87l-24.3,24.299
			c-2.962,2.963-2.962,7.764,0,10.725l34.676,34.677L386.42,459.638z"/>
	</g>
</g>
<g>
	<g>
		<path d="M239.821,25.964c-4.188,0-7.584,3.394-7.584,7.584v16.178c0,4.189,3.395,7.584,7.584,7.584
			c4.188,0,7.584-3.394,7.584-7.584V33.548C247.405,29.359,244.01,25.964,239.821,25.964z"/>
	</g>
</g>
<g>
	<g>
		<path d="M272.178,58.321H256c-4.188,0-7.584,3.394-7.584,7.584c0,4.189,3.395,7.584,7.584,7.584h16.178
			c4.188,0,7.584-3.394,7.584-7.584C279.762,61.716,276.366,58.321,272.178,58.321z"/>
	</g>
</g>
<g>
	<g>
		<path d="M239.821,74.499c-4.188,0-7.584,3.394-7.584,7.584v16.178c0,4.189,3.395,7.584,7.584,7.584
			c4.188,0,7.584-3.394,7.584-7.584V82.083C247.405,77.894,244.01,74.499,239.821,74.499z"/>
	</g>
</g>
<g>
	<g>
		<path d="M223.643,58.321h-16.178c-4.188,0-7.584,3.394-7.584,7.584c0,4.189,3.395,7.584,7.584,7.584h16.178
			c4.188,0,7.584-3.394,7.584-7.584C231.227,61.716,227.831,58.321,223.643,58.321z"/>
	</g>
</g>
<g>
	<g>
		<path d="M61.86,406.155c-4.188,0-7.584,3.394-7.584,7.584v16.178c0,4.189,3.395,7.584,7.584,7.584s7.584-3.394,7.584-7.584
			v-16.178C69.444,409.55,66.048,406.155,61.86,406.155z"/>
	</g>
</g>
<g>
	<g>
		<path d="M94.217,438.511H78.038c-4.188,0-7.584,3.394-7.584,7.584c0,4.189,3.395,7.584,7.584,7.584h16.178
			c4.188,0,7.584-3.394,7.584-7.584C101.8,441.906,98.405,438.511,94.217,438.511z"/>
	</g>
</g>
<g>
	<g>
		<path d="M61.86,454.69c-4.188,0-7.584,3.394-7.584,7.584v16.178c0,4.189,3.395,7.584,7.584,7.584s7.584-3.394,7.584-7.584v-16.178
			C69.444,458.085,66.048,454.69,61.86,454.69z"/>
	</g>
</g>
<g>
	<g>
		<path d="M45.682,438.511H29.503c-4.188,0-7.584,3.394-7.584,7.584c0,4.189,3.395,7.584,7.584,7.584h16.178
			c4.188,0,7.584-3.394,7.584-7.584C53.265,441.906,49.87,438.511,45.682,438.511z"/>
	</g>
</g>
<g>
	<g>
		<path d="M450.14,179.658c-4.188,0-7.584,3.394-7.584,7.584v16.178c0,4.189,3.395,7.584,7.584,7.584s7.584-3.394,7.584-7.584
			v-16.178C457.723,183.054,454.328,179.658,450.14,179.658z"/>
	</g>
</g>
<g>
	<g>
		<path d="M482.496,212.015h-16.178c-4.188,0-7.584,3.394-7.584,7.584c0,4.189,3.395,7.584,7.584,7.584h16.178
			c4.188,0,7.584-3.394,7.584-7.584C490.08,215.409,486.684,212.015,482.496,212.015z"/>
	</g>
</g>
<g>
	<g>
		<path d="M450.14,228.193c-4.188,0-7.584,3.394-7.584,7.584v16.178c0,4.189,3.395,7.584,7.584,7.584s7.584-3.394,7.584-7.584
			v-16.178C457.723,231.589,454.328,228.193,450.14,228.193z"/>
	</g>
</g>
<g>
	<g>
		<path d="M433.961,212.015h-16.178c-4.188,0-7.584,3.394-7.584,7.584c0,4.189,3.395,7.584,7.584,7.584h16.178
			c4.188,0,7.584-3.394,7.584-7.584C441.545,215.409,438.149,212.015,433.961,212.015z"/>
	</g>
</g>
<g>
</g>
<g>
</g>
<g>
</g>
<g>
</g>
<g>
</g>
<g>
</g>
<g>
</g>
<g>
</g>
<g>
</g>
<g>
</g>
<g>
</g>
<g>
</g>
<g>
</g>
<g>
</g>
<g>
</g>
</svg>
