<?xml version="1.0" encoding="iso-8859-1"?>
<!-- Generator: Adobe Illustrator 19.0.0, SVG Export Plug-In . SVG Version: 6.00 Build 0)  -->
<svg version="1.1" id="Capa_1" xmlns="http://www.w3.org/2000/svg" xmlns:xlink="http://www.w3.org/1999/xlink" x="0px" y="0px"
	 viewBox="0 0 512 512" style="enable-background:new 0 0 512 512;" xml:space="preserve">
<g>
	<g>
		<path d="M256,344.673c-4.15,0-7.515,3.364-7.515,7.515v56.11c0,4.151,3.365,7.515,7.515,7.515c4.151,0,7.515-3.364,7.515-7.515
			v-56.11C263.515,348.037,260.151,344.673,256,344.673z"/>
	</g>
</g>
<g>
	<g>
		<path d="M424.329,0H87.671c-4.15,0-7.515,3.364-7.515,7.515v256.501c0,4.151,3.365,7.515,7.515,7.515h128.752v192.877
			c0,1.706,0.581,3.362,1.647,4.695l32.063,40.078c1.426,1.781,3.585,2.82,5.867,2.82s4.443-1.038,5.867-2.82l32.063-40.078
			c1.065-1.333,1.647-2.988,1.647-4.695V271.53h128.751c4.151,0,7.515-3.364,7.515-7.515V7.515C431.843,3.364,428.48,0,424.329,0z
			 M280.548,461.771L256,492.456l-1.019-1.273c0.331-0.847,0.518-1.764,0.518-2.728V440.36c0-4.151-3.365-7.515-7.515-7.515
			c-4.15,0-7.515,3.364-7.515,7.515v32.683l-9.018-11.272V271.53h9.018v24.548c0,4.151,3.365,7.515,7.515,7.515
			c4.15,0,7.515-3.364,7.515-7.515V271.53h25.049V461.771z M416.814,256.501H288.063h-64.125H95.186V15.029h321.628V256.501z"/>
	</g>
</g>
<g>
	<g>
		<circle cx="119.233" cy="39.577" r="7.515"/>
	</g>
</g>
<g>
	<g>
		<circle cx="119.233" cy="232.454" r="7.515"/>
	</g>
</g>
<g>
	<g>
		<circle cx="392.767" cy="39.577" r="7.515"/>
	</g>
</g>
<g>
	<g>
		<circle cx="392.767" cy="232.454" r="7.515"/>
	</g>
</g>
<g>
	<g>
		<path d="M383.75,111.718c0-12.983-10.563-23.546-23.546-23.546h-72.642V71.64c0-21.823-17.755-39.577-39.577-39.577h-8.016
			c-4.15,0-7.515,3.364-7.515,7.515v48.094c0,0.281-0.216,0.501-0.493,0.501h-24.556v-8.517c0-4.151-3.365-7.515-7.515-7.515
			h-48.094c-4.15,0-7.515,3.364-7.515,7.515v144.282c0,4.151,3.365,7.515,7.515,7.515h48.094c4.15,0,7.515-3.364,7.515-7.515v-8.517
			h21.436l13.83,13.831c0.011,0.011,0.024,0.021,0.035,0.032c0.164,0.163,0.336,0.319,0.515,0.466
			c0.087,0.071,0.178,0.133,0.268,0.199c0.107,0.08,0.212,0.163,0.324,0.237c0.105,0.071,0.215,0.131,0.324,0.196
			c0.102,0.061,0.202,0.125,0.308,0.182c0.11,0.059,0.223,0.108,0.337,0.162c0.109,0.052,0.217,0.106,0.33,0.152
			c0.11,0.045,0.222,0.082,0.334,0.122c0.12,0.043,0.238,0.089,0.361,0.126c0.111,0.033,0.223,0.058,0.336,0.086
			c0.125,0.032,0.25,0.067,0.378,0.092c0.129,0.025,0.26,0.041,0.391,0.06c0.112,0.016,0.221,0.037,0.335,0.048
			c0.247,0.024,0.494,0.037,0.741,0.037h96.188c12.983,0,23.546-10.563,23.546-23.546c0-4.366-1.198-8.455-3.277-11.963
			c6.767-4.141,11.293-11.602,11.293-20.099c0-4.366-1.198-8.455-3.277-11.963c6.767-4.141,11.293-11.602,11.293-20.099
			c0-6.189-2.404-11.824-6.322-16.031C381.346,123.542,383.75,117.907,383.75,111.718z M192.376,216.423h-33.065V87.17h33.065
			V216.423z M336.157,135.264h24.047c4.696,0,8.517,3.82,8.517,8.517s-3.82,8.517-8.517,8.517h-8.016h-16.031
			c-4.151,0-7.515,3.364-7.515,7.515s3.364,7.515,7.515,7.515h16.031c4.696,0,8.517,3.82,8.517,8.517s-3.82,8.517-8.517,8.517
			h-8.016h-8.016c-4.151,0-7.515,3.364-7.515,7.515s3.364,7.515,7.515,7.515h8.016c4.696,0,8.517,3.82,8.517,8.517
			s-3.82,8.517-8.517,8.517h-93.075l-13.831-13.831c-1.409-1.409-3.32-2.2-5.313-2.2h-24.548v-97.19h24.556
			c8.559,0,15.522-6.967,15.522-15.53V47.092h0.501c13.536,0,24.548,11.011,24.548,24.548v24.047c0,4.151,3.364,7.515,7.515,7.515
			h80.157c4.696,0,8.517,3.82,8.517,8.517s-3.82,8.517-8.517,8.517h-24.047c-4.151,0-7.515,3.364-7.515,7.515
			S332.005,135.264,336.157,135.264z"/>
	</g>
</g>
<g>
</g>
<g>
</g>
<g>
</g>
<g>
</g>
<g>
</g>
<g>
</g>
<g>
</g>
<g>
</g>
<g>
</g>
<g>
</g>
<g>
</g>
<g>
</g>
<g>
</g>
<g>
</g>
<g>
</g>
</svg>
