<?xml version="1.0" encoding="iso-8859-1"?>
<!-- Generator: Adobe Illustrator 19.0.0, SVG Export Plug-In . SVG Version: 6.00 Build 0)  -->
<svg version="1.1" id="Capa_1" xmlns="http://www.w3.org/2000/svg" xmlns:xlink="http://www.w3.org/1999/xlink" x="0px" y="0px"
	 viewBox="0 0 512.001 512.001" style="enable-background:new 0 0 512.001 512.001;" xml:space="preserve">
<g>
	<g>
		<path d="M184.503,75.703h-67.292c-4.356,0-7.886,3.53-7.886,7.886s3.53,7.886,7.886,7.886h67.292c4.356,0,7.886-3.53,7.886-7.886
			S188.859,75.703,184.503,75.703z"/>
	</g>
</g>
<g>
	<g>
		<path d="M268.618,75.703h-50.469c-4.356,0-7.886,3.53-7.886,7.886s3.53,7.886,7.886,7.886h50.469c4.356,0,7.886-3.53,7.886-7.886
			S272.973,75.703,268.618,75.703z"/>
	</g>
</g>
<g>
	<g>
		<path d="M226.561,142.995H117.211c-4.356,0-7.886,3.53-7.886,7.886c0,4.356,3.53,7.886,7.886,7.886h109.349
			c4.356,0,7.886-3.53,7.886-7.886C234.447,146.525,230.917,142.995,226.561,142.995z"/>
	</g>
</g>
<g>
	<g>
		<path d="M361.145,142.995h-92.526c-4.356,0-7.886,3.53-7.886,7.886c0,4.356,3.53,7.886,7.886,7.886h92.526
			c4.355,0,7.886-3.53,7.886-7.886C369.03,146.525,365.501,142.995,361.145,142.995z"/>
	</g>
</g>
<g>
	<g>
		<path d="M184.503,185.053h-67.292c-4.356,0-7.886,3.53-7.886,7.886s3.53,7.886,7.886,7.886h67.292c4.356,0,7.886-3.53,7.886-7.886
			S188.859,185.053,184.503,185.053z"/>
	</g>
</g>
<g>
	<g>
		<path d="M310.676,185.053h-92.526c-4.356,0-7.886,3.53-7.886,7.886s3.53,7.886,7.886,7.886h92.526c4.356,0,7.886-3.53,7.886-7.886
			S315.032,185.053,310.676,185.053z"/>
	</g>
</g>
<g>
	<g>
		<path d="M268.618,227.11H117.211c-4.356,0-7.886,3.53-7.886,7.886c0,4.356,3.53,7.886,7.886,7.886h151.407
			c4.356,0,7.886-3.53,7.886-7.886C276.504,230.64,272.974,227.11,268.618,227.11z"/>
	</g>
</g>
<g>
	<g>
		<path d="M465.763,346.623v-73.823c0-31.954-18.988-59.539-46.263-72.116V41.532c0-22.9-18.631-41.532-41.532-41.532H58.331
			c-22.9,0-41.532,18.631-41.532,41.532v59.356c0,4.356,3.53,7.886,7.886,7.886c4.356,0,7.886-3.53,7.886-7.886V41.532
			c0-14.205,11.555-25.76,25.76-25.76h319.637c14.205,0,25.76,11.555,25.76,25.76v153.816c-5.588-1.25-11.389-1.932-17.349-1.932
			c-43.772,0-79.383,35.611-79.383,79.383c0,4.356,3.53,7.886,7.886,7.886h25.234c4.356,0,7.886-3.53,7.886-7.886
			c0-21.161,17.216-38.377,38.377-38.377c6.241,0,12.135,1.508,17.349,4.162v30.06c0,14.205-11.555,25.76-25.76,25.76h-63.086
			c-0.178,0-0.351,0.015-0.526,0.026c-0.174-0.012-0.348-0.026-0.526-0.026H209.738c-1.845,0-3.631,0.647-5.049,1.827
			l-88.003,73.337v-67.278c0-4.356-3.53-7.886-7.886-7.886H58.331c-14.205,0-25.76-11.555-25.76-25.76V138.214
			c0-4.356-3.53-7.886-7.886-7.886c-4.356,0-7.886,3.53-7.886,7.886v130.428c0,22.9,18.631,41.532,41.532,41.532h42.583v76.229
			c0,6.533,7.889,10.261,12.935,6.058l98.744-82.288h94.402v36.449c-17.021,5.191-29.44,21.035-29.44,39.732v117.761
			c0,4.356,3.53,7.886,7.886,7.886h201.876c4.356,0,7.886-3.53,7.886-7.886V386.354
			C495.203,367.658,482.783,351.813,465.763,346.623z M386.378,218.649c-27.18,0-49.748,20.129-53.576,46.263h-9.549
			c3.895-31.369,30.72-55.726,63.125-55.726c35.075,0,63.612,28.537,63.612,63.612v72.023h-9.463v-72.023
			C440.527,242.941,416.236,218.649,386.378,218.649z M348.002,310.174h29.966c22.9,0,41.532-18.631,41.532-41.532v-15.195
			c3.335,5.686,5.257,12.297,5.257,19.352v72.023h-76.755V310.174z M322.767,310.174h9.463v34.648h-9.463V310.174z M479.431,496.228
			H293.327V386.353c0-14.205,11.555-25.76,25.76-25.76h134.584c14.205,0,25.76,11.555,25.76,25.76V496.228z"/>
	</g>
</g>
<g>
	<g>
		<path d="M404.954,439.02c9.001-6.078,14.546-16.267,14.546-27.432c0-18.262-14.858-33.12-33.12-33.12s-33.12,14.858-33.12,33.12
			c0,11.165,5.543,21.354,14.546,27.432l-5.981,29.902c-0.961,4.806,2.835,9.432,7.732,9.432h33.646
			c4.898,0,8.693-4.626,7.732-9.432L404.954,439.02z M393.048,427.606c-3.468,1.447-5.434,5.139-4.697,8.825l5.231,26.151h-14.408
			l5.231-26.151c0.737-3.685-1.229-7.378-4.697-8.825c-6.487-2.705-10.678-8.994-10.678-16.019c0-9.566,7.783-17.349,17.349-17.349
			s17.349,7.783,17.349,17.349C403.728,418.614,399.536,424.901,393.048,427.606z"/>
	</g>
</g>
<g>
</g>
<g>
</g>
<g>
</g>
<g>
</g>
<g>
</g>
<g>
</g>
<g>
</g>
<g>
</g>
<g>
</g>
<g>
</g>
<g>
</g>
<g>
</g>
<g>
</g>
<g>
</g>
<g>
</g>
</svg>
