<?xml version="1.0" encoding="iso-8859-1"?>
<!-- Generator: Adobe Illustrator 19.0.0, SVG Export Plug-In . SVG Version: 6.00 Build 0)  -->
<svg version="1.1" id="Capa_1" xmlns="http://www.w3.org/2000/svg" xmlns:xlink="http://www.w3.org/1999/xlink" x="0px" y="0px"
	 viewBox="0 0 512 512" style="enable-background:new 0 0 512 512;" xml:space="preserve">
<g>
	<g>
		<path d="M504.485,40.078H7.515C3.364,40.078,0,43.442,0,47.593v416.814c0,4.151,3.364,7.515,7.515,7.515h496.971
			c4.151,0,7.515-3.364,7.515-7.515V47.593C512,43.442,508.636,40.078,504.485,40.078z M496.971,104.203H368.72
			c-4.151,0-7.515,3.364-7.515,7.515s3.364,7.515,7.515,7.515h128.25v337.659H15.029V119.233h33.065v176.845
			c0,6.237,7.524,9.774,12.326,5.773l43.283-36.069l43.283,36.069c4.807,4.005,12.326,0.453,12.326-5.773V119.233h172.838
			c4.151,0,7.515-3.364,7.515-7.515s-3.364-7.515-7.515-7.515H15.029V55.108h481.941V104.203z M63.123,280.034V119.233h81.159
			v160.801l-35.768-29.807c-2.752-2.294-6.869-2.294-9.623,0L63.123,280.034z"/>
	</g>
</g>
<g>
	<g>
		<circle cx="407.796" cy="80.157" r="7.515"/>
	</g>
</g>
<g>
	<g>
		<circle cx="439.358" cy="80.157" r="7.515"/>
	</g>
</g>
<g>
	<g>
		<circle cx="470.92" cy="80.157" r="7.515"/>
	</g>
</g>
<g>
	<g>
		<path d="M143.781,72.642H55.609c-3.874,0-7.014,3.14-7.014,7.014s3.14,7.014,7.014,7.014h88.172c3.874,0,7.014-3.14,7.014-7.014
			S147.654,72.642,143.781,72.642z"/>
	</g>
</g>
<g>
	<g>
		<path d="M215.922,72.642h-40.078c-3.874,0-7.014,3.14-7.014,7.014s3.14,7.014,7.014,7.014h40.078c3.874,0,7.014-3.14,7.014-7.014
			S219.795,72.642,215.922,72.642z"/>
	</g>
</g>
<g>
	<g>
		<path d="M472.423,208.407H272.031c-4.151,0-7.515,3.364-7.515,7.515c0,4.151,3.364,7.515,7.515,7.515h200.391
			c4.151,0,7.515-3.364,7.515-7.515C479.937,211.771,476.574,208.407,472.423,208.407z"/>
	</g>
</g>
<g>
	<g>
		<path d="M472.423,248.485H272.031c-4.151,0-7.515,3.364-7.515,7.515s3.364,7.515,7.515,7.515h200.391
			c4.151,0,7.515-3.364,7.515-7.515S476.574,248.485,472.423,248.485z"/>
	</g>
</g>
<g>
	<g>
		<path d="M472.423,288.564H272.031c-4.151,0-7.515,3.364-7.515,7.515c0,4.151,3.364,7.515,7.515,7.515h200.391
			c4.151,0,7.515-3.364,7.515-7.515C479.937,291.927,476.574,288.564,472.423,288.564z"/>
	</g>
</g>
<g>
	<g>
		<path d="M472.423,144.282H352.188c-4.151,0-7.515,3.364-7.515,7.515c0,4.151,3.364,7.515,7.515,7.515h120.235
			c4.151,0,7.515-3.364,7.515-7.515C479.937,147.645,476.574,144.282,472.423,144.282z"/>
	</g>
</g>
<g>
	<g>
		<path d="M320.125,144.282h-88.172c-4.151,0-7.515,3.364-7.515,7.515c0,4.151,3.364,7.515,7.515,7.515h88.172
			c4.151,0,7.515-3.364,7.515-7.515C327.64,147.645,324.276,144.282,320.125,144.282z"/>
	</g>
</g>
<g>
	<g>
		<path d="M301.265,377.199c-1.008-3.098-3.894-5.194-7.149-5.194h-23.658l-7.311-22.5c-1.006-3.097-3.892-5.193-7.147-5.193
			s-6.141,2.096-7.147,5.193l-7.311,22.5h-23.658c-3.255,0-6.141,2.096-7.147,5.193c-1.006,3.096,0.096,6.488,2.73,8.401
			l19.14,13.906l-7.311,22.502c-0.962,2.961,0.049,6.296,2.495,8.223c2.613,2.059,6.377,2.134,9.069,0.178l19.141-13.906
			l19.141,13.906c2.823,2.052,6.794,1.855,9.404-0.46c2.213-1.963,3.073-5.127,2.159-7.94l-7.311-22.502l19.14-13.906
			C301.169,383.686,302.271,380.295,301.265,377.199z M266.143,390.556c-2.634,1.913-3.736,5.305-2.73,8.401l1.852,5.699
			l-4.847-3.522c-1.317-0.957-2.867-1.436-4.417-1.436s-3.1,0.479-4.417,1.436l-4.847,3.522l1.852-5.699
			c1.006-3.096-0.096-6.489-2.73-8.401l-4.846-3.522h5.991c3.255,0,6.141-2.096,7.147-5.193l1.852-5.697l1.852,5.697
			c1.006,3.097,3.892,5.193,7.147,5.193h5.991L266.143,390.556z"/>
	</g>
</g>
<g>
	<g>
		<path d="M403.508,377.197c-1.008-3.096-3.894-5.192-7.149-5.192H372.7l-7.311-22.5c-1.006-3.097-3.892-5.193-7.147-5.193
			c-3.255,0-6.141,2.096-7.147,5.193l-7.311,22.5h-23.658c-3.255,0-6.141,2.096-7.147,5.193c-1.006,3.096,0.096,6.489,2.73,8.401
			l19.141,13.907l-7.311,22.501c-0.914,2.814-0.054,5.979,2.159,7.94c2.61,2.315,6.58,2.513,9.404,0.46l19.14-13.906l19.141,13.906
			c2.692,1.956,6.456,1.881,9.069-0.178c2.446-1.927,3.457-5.262,2.495-8.223l-7.311-22.501l19.141-13.907
			C403.412,383.685,404.514,380.293,403.508,377.197z M368.385,390.556c-2.634,1.913-3.736,5.305-2.73,8.401l1.852,5.699
			l-4.847-3.522c-1.317-0.957-2.867-1.436-4.417-1.436c-1.55,0-3.1,0.479-4.417,1.436l-4.846,3.521l1.852-5.698
			c1.006-3.096-0.096-6.489-2.73-8.401l-4.846-3.522h5.991c3.255,0,6.141-2.096,7.147-5.193l1.852-5.697l1.852,5.697
			c1.006,3.097,3.892,5.193,7.147,5.193h5.991L368.385,390.556z"/>
	</g>
</g>
<g>
	<g>
		<path d="M198.977,377.063c-1.037-2.994-3.934-5.059-7.102-5.059h-23.658l-7.311-22.5c-0.994-3.061-3.929-5.193-7.147-5.193
			s-6.152,2.131-7.147,5.193l-7.311,22.5h-23.659c-3.255,0-6.141,2.096-7.147,5.193c-1.006,3.096,0.096,6.489,2.73,8.401
			l19.141,13.907l-7.311,22.501c-0.962,2.961,0.049,6.296,2.495,8.223c2.613,2.059,6.378,2.134,9.069,0.178l19.141-13.906
			l19.14,13.906c2.823,2.052,6.794,1.855,9.404-0.46c2.213-1.963,3.073-5.127,2.159-7.94l-7.311-22.501l19.141-13.907
			C198.942,383.677,200.046,380.155,198.977,377.063z M163.9,390.556c-2.634,1.913-3.736,5.305-2.73,8.401l1.852,5.698l-4.846-3.521
			c-2.634-1.914-6.2-1.914-8.833,0l-4.847,3.522l1.852-5.699c1.006-3.096-0.096-6.489-2.73-8.401l-4.846-3.522h5.991
			c3.255,0,6.141-2.096,7.147-5.193l1.852-5.697l1.852,5.697c1.006,3.097,3.892,5.193,7.147,5.193h5.991L163.9,390.556z"/>
	</g>
</g>
<g>
</g>
<g>
</g>
<g>
</g>
<g>
</g>
<g>
</g>
<g>
</g>
<g>
</g>
<g>
</g>
<g>
</g>
<g>
</g>
<g>
</g>
<g>
</g>
<g>
</g>
<g>
</g>
<g>
</g>
</svg>
