<?xml version="1.0" standalone="no"?>
<!DOCTYPE svg PUBLIC "-//W3C//DTD SVG 1.1//EN" "http://www.w3.org/Graphics/SVG/1.1/DTD/svg11.dtd" >
<svg xmlns="http://www.w3.org/2000/svg" xmlns:xlink="http://www.w3.org/1999/xlink" version="1.1">
<metadata>
Created by FontForge 20170731 at Tue Apr  5 15:43:04 2016
 By Aleksey,,,
(c) 2014 Adobe Systems Incorporated. All Rights Reserved.
</metadata>
<defs>
<font id="AcuminPro-LightItalic" horiz-adv-x="400" >
  <font-face 
    font-family="Acumin Pro"
    font-weight="300"
    font-style="italic"
    font-stretch="normal"
    units-per-em="1000"
    panose-1="2 11 4 4 2 2 2 9 2 4"
    ascent="735"
    descent="-265"
    x-height="503"
    cap-height="698"
    bbox="-289 -262 1186 1042"
    underline-thickness="50"
    underline-position="-200"
    slope="-12"
    unicode-range="U+0020-FB02"
  />
<missing-glyph horiz-adv-x="500" 
d="M0 0v700h500v-700h-500zM250 395l170 255h-340zM280 350l170 -255v510zM80 50h340l-170 255zM50 605v-510l170 255z" />
    <glyph glyph-name="f_f" unicode="ff" horiz-adv-x="521" 
d="M385 448h-194l-94 -448h-63l94 448h-84l13 55h83l18 82q16 76 52 118.5t105 42.5q34 0 53 -7l-13 -57q-14 5 -43 5q-37 0 -58.5 -25t-32.5 -77l-18 -82h195l17 82q17 77 52.5 119t104.5 42q34 0 52 -7l-12 -57q-14 5 -43 5q-37 0 -58.5 -25t-33.5 -77l-17 -82h105
l-12 -55h-105l-94 -448h-63z" />
    <glyph glyph-name=".notdef" horiz-adv-x="500" 
d="M0 0v700h500v-700h-500zM250 395l170 255h-340zM280 350l170 -255v510zM80 50h340l-170 255zM50 605v-510l170 255z" />
    <glyph glyph-name=".null" horiz-adv-x="0" 
 />
    <glyph glyph-name="nonmarkingreturn" horiz-adv-x="333" 
 />
    <glyph glyph-name="space" unicode=" " horiz-adv-x="257" 
 />
    <glyph glyph-name="exclam" unicode="!" horiz-adv-x="285" 
d="M190 229h-54l67 346l26 123h68l-26 -123zM146 0h-65l28 127h64z" />
    <glyph glyph-name="quotedbl" unicode="&#x22;" horiz-adv-x="303" 
d="M150 476h-49l30 177l18 83h63l-17 -83zM293 476h-50l31 177l18 83h63l-17 -83z" />
    <glyph glyph-name="numbersign" unicode="#" horiz-adv-x="542" 
d="M230 0l75 205h-136l-74 -205h-54l75 205h-82l8 59h96l62 169h-99l8 58h112l68 186h52l-68 -186h138l68 186h50l-68 -186h81l-8 -58h-94l-61 -169h98l-8 -59h-112l-74 -205h-53zM327 264l62 169h-137l-61 -169h136z" />
    <glyph glyph-name="dollar" unicode="$" horiz-adv-x="484" 
d="M161 492q0 -35 19.5 -59t67.5 -47l47 224h-8q-55 0 -90.5 -32t-35.5 -86zM370 179q0 41 -20.5 69t-71.5 55l-54 -257q65 2 105.5 36.5t40.5 96.5zM192 -105h-48l21 101q-77 11 -117 60t-34 131h63q-3 -59 24 -93.5t76 -43.5l57 273q-75 34 -107 70t-32 90
q0 81 55.5 130.5t146.5 49.5h9l16 74h48l-17 -79q70 -15 100.5 -62t26.5 -100h-61q-7 89 -77 108l-50 -238q80 -37 112.5 -79t32.5 -98q0 -91 -62 -143.5t-162 -52.5z" />
    <glyph glyph-name="percent" unicode="%" horiz-adv-x="865" 
d="M271 668q61 0 95 -36t34 -101q0 -97 -52.5 -167.5t-142.5 -70.5q-62 0 -95 37.5t-33 102.5q0 89 52 162t142 73zM263 620q-61 0 -94.5 -60.5t-33.5 -123.5q0 -94 78 -94q43 0 74 32.5t43 72t12 78.5q0 95 -79 95zM205 0h-64l555 658h65zM691 365q61 0 95 -36t34 -101
q0 -97 -52.5 -167.5t-143.5 -70.5q-62 0 -95 37.5t-33 102.5q0 41 12.5 81.5t36 75.5t61.5 56.5t85 21.5zM683 316q-61 0 -94.5 -60t-33.5 -123q0 -94 78 -94q43 0 74 32.5t43 72t12 77.5q0 95 -79 95z" />
    <glyph glyph-name="ampersand" unicode="&#x26;" horiz-adv-x="733" 
d="M243 51q50 0 91.5 24.5t95.5 85.5l-158 183q-82 -45 -117 -83.5t-35 -94.5q0 -47 34.5 -81t88.5 -34zM655 429h74l-221 -263l144 -166h-82l-102 118q-57 -64 -108.5 -96t-122.5 -32q-81 0 -132 48t-51 126q0 71 44.5 119.5t140.5 102.5q-62 77 -62 147q0 77 47.5 126
t126.5 49q67 0 107 -40.5t40 -102.5q0 -36 -11.5 -64.5t-38.5 -52t-50 -38t-68 -39.5l141 -162zM347 656q-51 0 -79.5 -34.5t-28.5 -81.5q0 -56 61 -129q70 40 103 72t33 80q0 36 -22 64.5t-67 28.5z" />
    <glyph glyph-name="quotesingle" unicode="'" horiz-adv-x="158" 
d="M151 476h-54l32 177l18 83h65l-17 -83z" />
    <glyph glyph-name="parenleft" unicode="(" horiz-adv-x="311" 
d="M301 736h72q-137 -128 -201.5 -259.5t-64.5 -301.5q0 -84 20 -181t53 -165h-60q-75 159 -75 346q0 336 256 561z" />
    <glyph glyph-name="parenright" unicode=")" horiz-adv-x="311" 
d="M19 -171h-72q137 128 201.5 260t64.5 302q0 84 -20 181t-53 164h61q74 -160 74 -346q0 -334 -256 -561z" />
    <glyph glyph-name="asterisk" unicode="*" horiz-adv-x="371" 
d="M255 699h61l-42 -145l132 87l26 -56l-152 -64l122 -71l-37 -52l-105 89l-20 -150h-63l43 150l-131 -91l-28 55l148 68l-117 67l39 53l103 -87z" />
    <glyph glyph-name="plus" unicode="+" horiz-adv-x="695" 
d="M317 553h60v-243h243v-59h-243v-251h-60v251h-242v59h242v243z" />
    <glyph glyph-name="comma" unicode="," horiz-adv-x="179" 
d="M6 -109h-59q69 107 107 246h64q-36 -148 -112 -246z" />
    <glyph glyph-name="hyphen" unicode="-" horiz-adv-x="360" 
d="M63 286h246l-12 -61h-247z" />
    <glyph glyph-name="period" unicode="." horiz-adv-x="178" 
d="M66 -1h-66l30 138h66z" />
    <glyph glyph-name="slash" unicode="/" horiz-adv-x="403" 
d="M50 -31h-64l403 739h64z" />
    <glyph glyph-name="zero" unicode="0" horiz-adv-x="542" 
d="M343 668q88 0 128 -57.5t40 -148.5q0 -72 -14.5 -148t-45.5 -151.5t-89.5 -124t-135.5 -48.5q-85 0 -127.5 57t-42.5 160q0 54 9.5 113t31.5 122t53.5 112.5t82 81.5t110.5 32zM334 611q-53 0 -96 -42.5t-67 -107.5t-36.5 -131t-12.5 -122q0 -161 113 -161q54 0 96.5 44
t66 110t35.5 133t12 125q0 152 -111 152z" />
    <glyph glyph-name="one" unicode="1" horiz-adv-x="324" 
d="M160 0h-64l122 570q-23 -14 -71.5 -28.5t-77.5 -17.5l13 56q49 9 95.5 31t73.5 47h49z" />
    <glyph glyph-name="two" unicode="2" horiz-adv-x="493" 
d="M411 0h-423l3 13q17 77 75 142t165 139q15 10 46 30.5t41 28t30.5 23.5t27 26t16 26t12.5 33t3 39q0 51 -28.5 81.5t-86.5 30.5q-60 0 -97 -33.5t-58 -104.5h-62q21 90 75.5 142.5t147.5 52.5q86 0 130.5 -47.5t44.5 -118.5q0 -19 -2.5 -36t-5.5 -31t-11.5 -28t-14.5 -24
t-19.5 -23t-21.5 -20.5t-27.5 -21.5t-29.5 -21t-34.5 -23.5t-36.5 -24.5q-85 -58 -129.5 -99t-65.5 -95h357z" />
    <glyph glyph-name="three" unicode="3" horiz-adv-x="502" 
d="M162 508h-64q16 65 66 112.5t138 47.5q86 0 129 -43t43 -108q0 -62 -32.5 -102.5t-84.5 -56.5v-2q98 -40 98 -148q0 -94 -62.5 -156t-172.5 -62q-99 0 -147.5 51.5t-50.5 128.5h64q4 -52 37 -87.5t104 -35.5q78 0 120 45.5t42 110.5q0 125 -149 125h-39l10 58h37
q160 0 160 127q0 47 -29.5 73t-83.5 26q-94 0 -133 -104z" />
    <glyph glyph-name="four" unicode="4" horiz-adv-x="511" 
d="M348 0h-64l37 179h-301l14 61l380 418h74l-91 -424h84l-20 -55h-76zM334 234l44 203q20 91 38 154q-16 -22 -71.5 -86t-135.5 -152t-107 -119h232z" />
    <glyph glyph-name="five" unicode="5" horiz-adv-x="507" 
d="M512 658l-21 -57h-277q-41 -155 -64 -219q59 54 143 54q77 0 124 -49.5t47 -134.5q0 -109 -64.5 -185.5t-181.5 -76.5q-84 0 -136 46.5t-57 131.5h64q6 -56 39.5 -88.5t93.5 -32.5q85 0 130 59.5t45 139.5q0 61 -30.5 96.5t-91.5 35.5q-56 0 -88.5 -21t-62.5 -62l-54 23
q38 111 101 340h341z" />
    <glyph glyph-name="six" unicode="6" horiz-adv-x="521" 
d="M509 520h-64q-10 93 -112 93q-151 0 -206 -260q63 82 171 82q84 0 130 -52.5t46 -138.5q0 -105 -63 -179.5t-168 -74.5q-95 0 -144.5 62t-49.5 168q0 68 15.5 141.5t47.5 145t90.5 117.5t134.5 46q47 0 81.5 -14t53 -37.5t27 -48t10.5 -50.5zM247 47q75 0 117.5 56.5
t42.5 138.5q0 56 -28.5 95.5t-95.5 39.5q-76 0 -123 -48t-47 -124q0 -64 33 -111t101 -47z" />
    <glyph glyph-name="seven" unicode="7" horiz-adv-x="460" 
d="M101 658h417l-11 -57q-108 -122 -214.5 -286t-172.5 -315h-70q63 152 173 316.5t214 284.5h-348z" />
    <glyph glyph-name="eight" unicode="8" horiz-adv-x="506" 
d="M223 -10q-94 0 -145.5 51.5t-51.5 124.5q0 71 44.5 122.5t114.5 70.5q-33 14 -56.5 47t-23.5 77q0 79 55 132t150 53q80 0 127 -42t47 -111q0 -64 -34.5 -107t-81.5 -56q90 -40 90 -146q0 -92 -64 -154t-171 -62zM303 612q-63 0 -98.5 -35t-35.5 -94q0 -44 29.5 -73
t86.5 -29q65 0 99.5 35t34.5 92q0 46 -27.5 75t-88.5 29zM230 46q74 0 118 44t44 114q0 54 -32.5 87t-100.5 33q-75 0 -121 -44.5t-46 -108.5q0 -54 35.5 -89.5t102.5 -35.5z" />
    <glyph glyph-name="nine" unicode="9" horiz-adv-x="526" 
d="M40 149h63q7 -52 34 -77.5t82 -25.5q155 0 207 285q-51 -84 -166 -84q-77 0 -126.5 48.5t-49.5 137.5q0 92 61.5 163.5t166.5 71.5q92 0 139 -60t47 -164q0 -47 -6 -99.5t-25.5 -118t-49 -116t-83 -85.5t-122.5 -35q-89 0 -128.5 45.5t-43.5 113.5zM305 611
q-73 0 -114.5 -52.5t-41.5 -122.5q0 -63 33.5 -98.5t89.5 -35.5q69 0 115 44.5t46 114.5q0 66 -30 108t-98 42z" />
    <glyph glyph-name="colon" unicode=":" horiz-adv-x="225" 
d="M167 367h-64l29 135h64zM90 0h-64l28 137h64z" />
    <glyph glyph-name="semicolon" unicode=";" horiz-adv-x="260" 
d="M193 365h-65l30 137h64zM32 -109h-57q66 106 105 246h65q-17 -69 -51 -142t-62 -104z" />
    <glyph glyph-name="less" unicode="&#x3c;" horiz-adv-x="614" 
d="M84 250v58l446 247v-69l-378 -206l378 -214v-68z" />
    <glyph glyph-name="equal" unicode="=" horiz-adv-x="713" 
d="M84 189h545v-60h-545v60zM84 435h545v-59h-545v59z" />
    <glyph glyph-name="greater" unicode="&#x3e;" horiz-adv-x="614" 
d="M530 303v-58l-446 -247v70l378 205l-378 214v68z" />
    <glyph glyph-name="question" unicode="?" horiz-adv-x="476" 
d="M263 207h-66l4 15q9 45 33.5 84.5t86.5 87.5q65 50 88.5 81t23.5 81q0 40 -26.5 67t-82.5 27q-104 0 -141 -114h-65q5 21 13 40.5t24.5 44.5t38.5 43.5t57 31t78 12.5q84 0 126 -43t42 -106q0 -48 -20 -87t-44 -61.5t-72 -59.5q-81 -60 -96 -136zM218 0h-65l28 127h65z
" />
    <glyph glyph-name="at" unicode="@" horiz-adv-x="946" 
d="M692 -60l16 -50q-91 -64 -259 -64q-170 0 -272.5 100.5t-102.5 276.5q0 123 54 228.5t156.5 170.5t231.5 65q156 0 259.5 -89t103.5 -245q0 -133 -69.5 -218.5t-165.5 -85.5q-89 0 -89 82q-54 -82 -149 -82q-61 0 -98 41t-37 120q0 112 63.5 199t155.5 87q57 0 86.5 -26
t37.5 -60l19 76h59l-68 -269q-15 -65 -8.5 -89.5t38.5 -24.5q67 0 115.5 71t48.5 175q0 132 -83.5 207.5t-223.5 75.5q-164 0 -267.5 -119t-104.5 -290q-1 -145 83.5 -232.5t230.5 -87.5q149 0 239 57zM492 421q-68 0 -112 -70.5t-44 -155.5q0 -111 85 -111q53 0 94 41
t61 125q22 82 0.5 126.5t-84.5 44.5z" />
    <glyph glyph-name="A" unicode="A" horiz-adv-x="605" 
d="M447 231h-277l-127 -231h-72l391 698h78l111 -698h-68zM202 290h238q-45 286 -50 343h-1q-67 -130 -187 -343z" />
    <glyph glyph-name="B" unicode="B" horiz-adv-x="617" 
d="M35 0l147 698h214q101 0 147.5 -45.5t46.5 -115.5q0 -67 -38 -110.5t-102 -59.5q46 -14 77.5 -53t31.5 -96q0 -109 -74.5 -163.5t-194.5 -54.5h-255zM173 344l-61 -286h185q83 0 137 39t54 116q1 60 -40 95.5t-122 35.5h-153zM186 401h157q177 0 177 133q0 107 -135 107
h-148z" />
    <glyph glyph-name="C" unicode="C" horiz-adv-x="647" 
d="M538 202h71q-39 -101 -110.5 -155.5t-188.5 -54.5q-126 0 -188 78.5t-62 200.5q0 82 22.5 159t64.5 139.5t110 100.5t152 38q109 0 173 -58.5t69 -159.5h-69q-7 75 -52.5 117.5t-127.5 42.5q-85 0 -148.5 -55.5t-93 -139t-29.5 -181.5t46.5 -161t142.5 -63q150 0 218 152
z" />
    <glyph glyph-name="D" unicode="D" horiz-adv-x="701" 
d="M35 0l147 698h194q133 0 210.5 -79t77.5 -215q0 -178 -105 -291t-283 -113h-241zM237 640l-123 -582h157q151 0 236 95t86 251q1 110 -58.5 173t-167.5 63h-130z" />
    <glyph glyph-name="E" unicode="E" horiz-adv-x="558" 
d="M515 399l-12 -59h-330l-59 -281h378l-22 -59h-435l147 698h416l-12 -59h-349l-51 -240h329z" />
    <glyph glyph-name="F" unicode="F" horiz-adv-x="537" 
d="M35 0l147 698h417l-13 -59h-349l-54 -254h327l-12 -59h-327l-69 -326h-67z" />
    <glyph glyph-name="G" unicode="G" horiz-adv-x="695" 
d="M647 372l-77 -372h-55q3 40 20 118q-38 -61 -91 -93.5t-142 -32.5q-117 0 -179 76t-62 200q0 66 14.5 129t45 119.5t73 99t103.5 67.5t133 25q109 0 175.5 -57.5t70.5 -151.5h-65q-9 68 -56.5 109.5t-135.5 41.5t-155 -54.5t-100 -138.5t-33 -181q0 -101 46 -163.5
t140 -62.5q58 0 103 20.5t74 58.5t46.5 81t29.5 98l1 4h-221l13 60h284z" />
    <glyph glyph-name="H" unicode="H" horiz-adv-x="694" 
d="M35 0l147 698h68l-63 -294h380l63 294h67l-148 -698h-67l73 345h-381l-72 -345h-67z" />
    <glyph glyph-name="I" unicode="I" horiz-adv-x="247" 
d="M183 698h67l-147 -698h-68z" />
    <glyph glyph-name="J" unicode="J" horiz-adv-x="327" 
d="M158 176l110 522h68l-112 -526q-21 -96 -63 -139t-122 -43q-46 0 -75 9l14 57q27 -7 65 -7q54 0 78 33.5t37 93.5z" />
    <glyph glyph-name="K" unicode="K" horiz-adv-x="588" 
d="M35 0l147 698h67l-75 -353q3 2 171 142t251 211h89l-358 -298l227 -400h-76l-203 360l-117 -88l-56 -272h-67z" />
    <glyph glyph-name="L" unicode="L" horiz-adv-x="518" 
d="M35 0l147 698h68l-136 -639h355l-21 -59h-413z" />
    <glyph glyph-name="M" unicode="M" horiz-adv-x="828" 
d="M616 0l66 310q48 231 75 338h-3q-45 -94 -367 -648h-64q-87 609 -90 649h-2q-12 -80 -70 -359l-60 -290h-67l148 698h103q82 -547 87 -612h2q18 36 354 612h103l-147 -698h-68z" />
    <glyph glyph-name="N" unicode="N" horiz-adv-x="707" 
d="M100 0h-66l148 698h88q234 -585 245 -621h1q6 42 65 323l63 298h66l-148 -698h-83q-221 550 -248 633h-2q-10 -68 -65 -328z" />
    <glyph glyph-name="O" unicode="O" horiz-adv-x="721" 
d="M424 708q125 0 193 -76t68 -212q0 -61 -13.5 -121t-42.5 -116t-70.5 -99t-103 -68.5t-134.5 -25.5q-123 0 -191.5 77t-68.5 204q0 79 23.5 155t67 140t114.5 103t158 39zM419 650q-57 0 -105.5 -23t-81.5 -61t-56 -87.5t-34 -101.5t-11 -104q0 -99 50 -162t149 -63
q91 0 157.5 57t97 140t30.5 177q0 105 -50.5 166.5t-145.5 61.5z" />
    <glyph glyph-name="P" unicode="P" horiz-adv-x="594" 
d="M35 0l147 698h215q99 0 153 -50.5t54 -130.5q0 -108 -71.5 -164t-192.5 -56h-176l-62 -297h-67zM237 640l-61 -284h167q190 0 190 158q0 126 -155 126h-141z" />
    <glyph glyph-name="Q" unicode="Q" horiz-adv-x="721" 
d="M424 708q125 0 193 -76t68 -212q0 -111 -44.5 -213.5t-128.5 -160.5l164 -126l-43 -48l-184 141q-58 -23 -128 -23q-123 0 -191.5 77t-68.5 204q0 79 23.5 155t67 140t114.5 103t158 39zM419 650q-57 0 -105.5 -23t-81.5 -61t-56 -87.5t-34 -101.5t-11 -104
q0 -99 50 -162t149 -63q91 0 157.5 57t97 140t30.5 177q0 105 -50.5 166.5t-145.5 61.5z" />
    <glyph glyph-name="R" unicode="R" horiz-adv-x="608" 
d="M323 323h-154l-67 -323h-67l147 698h224q94 0 143 -44.5t49 -119.5q0 -78 -42 -124.5t-115 -62.5q106 -38 76 -178q-30 -138 -28 -169h-63q-5 45 25 165q17 82 -12.5 120t-115.5 38zM237 640l-55 -259h146q200 0 200 145q0 114 -133 114h-158z" />
    <glyph glyph-name="S" unicode="S" horiz-adv-x="561" 
d="M26 199h67q15 -152 175 -152q76 0 121 36.5t45 103.5q0 53 -31.5 88t-118.5 70q-93 36 -130.5 75t-37.5 99q0 79 56 134t162 55q107 0 159.5 -54t52.5 -135h-66q-8 65 -43.5 98t-109.5 33q-69 0 -106 -36t-37 -87q0 -41 26.5 -68.5t106.5 -58.5q104 -40 145.5 -87.5
t41.5 -115.5q0 -89 -60.5 -148t-183.5 -59q-113 0 -172.5 57.5t-61.5 151.5z" />
    <glyph glyph-name="T" unicode="T" horiz-adv-x="524" 
d="M168 0l134 639h-221l13 59h511l-13 -59h-223l-134 -639h-67z" />
    <glyph glyph-name="U" unicode="U" horiz-adv-x="664" 
d="M172 698h68l-91 -427q-25 -117 19 -169t133 -52q100 0 146.5 48.5t72.5 175.5l91 424h68l-92 -431q-33 -154 -95.5 -214.5t-196.5 -60.5q-124 0 -184 69.5t-29 212.5z" />
    <glyph glyph-name="V" unicode="V" horiz-adv-x="605" 
d="M272 0h-77l-99 698h67l52 -381q25 -171 30 -251h2q32 67 149 268l211 364h72z" />
    <glyph glyph-name="W" unicode="W" horiz-adv-x="880" 
d="M214 0h-74l-36 698h66q24 -579 22 -627h1q10 30 64.5 144.5t127.5 264.5t105 218h68q27 -559 23 -625h1q13 34 67 146t129 265t104 214h69l-348 -698h-75q-26 518 -21 613h-1q-16 -43 -66.5 -149t-130 -268t-95.5 -196z" />
    <glyph glyph-name="X" unicode="X" horiz-adv-x="567" 
d="M513 0h-73l-142 304h-1l-253 -304h-80l304 359l-158 339h72l133 -289h1l250 289h76l-298 -342z" />
    <glyph glyph-name="Y" unicode="Y" horiz-adv-x="544" 
d="M244 0h-67l55 265q2 9 -1 17l-154 416h71q21 -59 72.5 -200t60.5 -167q45 67 283 367h75l-333 -421q-4 -5 -7 -16z" />
    <glyph glyph-name="Z" unicode="Z" horiz-adv-x="555" 
d="M-22 0l12 52l525 587h-400l13 59h483l-12 -56l-522 -583h427l-23 -59h-503z" />
    <glyph glyph-name="bracketleft" unicode="[" horiz-adv-x="323" 
d="M192 -171h-198l193 907h197l-10 -53h-139l-170 -801h139z" />
    <glyph glyph-name="backslash" unicode="\" horiz-adv-x="399" 
d="M183 708l122 -730h-58l-123 730h59z" />
    <glyph glyph-name="bracketright" unicode="]" horiz-adv-x="323" 
d="M139 736h197l-192 -907h-198l11 53h139l170 801h-139z" />
    <glyph glyph-name="asciicircum" unicode="^" horiz-adv-x="473" 
d="M435 317h-62l-138 296l-135 -296h-62l169 352h61z" />
    <glyph glyph-name="underscore" unicode="_" horiz-adv-x="511" 
d="M-70 -78h508l-11 -51h-508z" />
    <glyph glyph-name="grave" unicode="`" 
d="M107 749h74l113 -154h-62z" />
    <glyph glyph-name="a" unicode="a" horiz-adv-x="515" 
d="M454 344l-46 -219q-20 -94 -24 -125h-63q3 35 16 85q-56 -95 -178 -95q-71 0 -104 37t-33 89q0 163 236 182q12 1 125 6l8 38q23 118 -101 118q-62 0 -92 -25.5t-45 -66.5h-64q14 63 64 104t143 41q88 0 131.5 -42.5t26.5 -126.5zM371 245l2 8q-60 0 -109 -5
q-37 -3 -64 -9.5t-54 -19.5t-41.5 -37t-14.5 -58q0 -33 22.5 -55.5t65.5 -22.5q147 0 193 199z" />
    <glyph glyph-name="b" unicode="b" horiz-adv-x="548" 
d="M53 136l127 600h63l-67 -316q63 93 171 93q77 0 120 -48t43 -137q0 -62 -16.5 -120.5t-47.5 -108t-83 -79.5t-117 -30q-56 0 -92.5 24t-50.5 63q-10 -47 -19 -77h-62q14 57 31 136zM251 47q61 0 107 44.5t66 106t20 125.5q0 132 -114 132q-74 0 -125 -59.5t-69 -145.5
q-19 -96 9 -149.5t106 -53.5z" />
    <glyph glyph-name="c" unicode="c" horiz-adv-x="490" 
d="M367 145h64q-60 -155 -216 -155q-88 0 -133 54t-45 144q0 59 16.5 115.5t47 104t80.5 76.5t112 29q91 0 132 -52t36 -115h-63q-4 112 -111 112q-59 0 -102.5 -42t-62.5 -100.5t-19 -122.5q0 -148 122 -148q91 0 142 100z" />
    <glyph glyph-name="d" unicode="d" horiz-adv-x="551" 
d="M509 736h63l-125 -594q-26 -123 -29 -142h-61q1 20 15 87q-59 -97 -174 -97q-79 0 -120 53.5t-41 140.5q0 77 27.5 150t89.5 126t145 53q61 0 98 -27t47 -60zM296 455q-60 0 -105.5 -42.5t-66.5 -101.5t-21 -121q0 -142 114 -142q80 0 128.5 61.5t67.5 157.5
q19 87 -10.5 137.5t-106.5 50.5z" />
    <glyph glyph-name="e" unicode="e" horiz-adv-x="502" 
d="M456 246h-351q-5 -38 -5 -55q0 -71 33 -108t90 -37q95 0 144 91h66q-65 -147 -218 -147q-89 0 -134 53.5t-45 143.5q0 57 15.5 112.5t46 104.5t82 79t116.5 30q90 0 131 -50t41 -124q0 -50 -12 -93zM117 298h285q4 20 4 42q0 119 -115 119q-62 0 -107 -42t-67 -119z" />
    <glyph glyph-name="f" unicode="f" horiz-adv-x="263" 
d="M97 -1h-63l94 448h-84l13 55h83l18 81q35 162 161 162q33 0 55 -8l-13 -56q-18 5 -44 5q-73 0 -96 -104l-17 -80h105l-13 -55h-105z" />
    <glyph glyph-name="g" unicode="g" horiz-adv-x="546" 
d="M490 367l-69 -326q-28 -130 -81 -190.5t-169 -60.5q-56 0 -94.5 14.5t-56 39t-23.5 47.5t-6 49h63q0 -42 31 -69t94 -27q81 0 118.5 49.5t62.5 154.5l13 56q-57 -103 -172 -103q-75 0 -118.5 50t-43.5 143q0 78 28 149t87.5 120.5t138.5 49.5q63 0 100.5 -27.5
t45.5 -62.5q12 52 22 80h60q-7 -28 -31 -136zM292 456q-57 0 -100.5 -38t-64.5 -96t-21 -124q0 -139 114 -139q72 0 120 58.5t68 148.5q19 85 -9.5 137.5t-106.5 52.5z" />
    <glyph glyph-name="h" unicode="h" horiz-adv-x="541" 
d="M24 0l156 736h63l-68 -320q63 97 174 97q29 0 53.5 -7.5t48 -28.5t29 -58t-3.5 -95l-68 -324h-63l65 313q31 142 -82 142q-67 0 -116 -50t-66 -130l-59 -275h-63z" />
    <glyph glyph-name="i" unicode="i" horiz-adv-x="220" 
d="M24 0l107 503h63l-107 -503h-63zM159 633l21 103h63l-21 -103h-63z" />
    <glyph glyph-name="j" unicode="j" horiz-adv-x="220" 
d="M222 633h-63l21 103h63zM131 503h63l-114 -535q-20 -93 -52.5 -135.5t-105.5 -42.5q-17 0 -43 4l14 57q18 -2 27 -2q46 0 64.5 26t33.5 100z" />
    <glyph glyph-name="k" unicode="k" horiz-adv-x="461" 
d="M243 736l-102 -474q23 20 132 112.5t150 128.5h83q-88 -75 -230 -195l140 -308h-72l-118 269l-98 -77l-41 -192h-63l156 736h63z" />
    <glyph glyph-name="l" unicode="l" horiz-adv-x="220" 
d="M87 0h-63l156 736h63z" />
    <glyph glyph-name="m" unicode="m" horiz-adv-x="803" 
d="M24 0l77 362q18 85 28 141h62q-9 -57 -15 -85q59 95 155 95q105 0 117 -96q65 96 169 96q69 0 104.5 -45.5t14.5 -141.5l-68 -326h-63l67 319q30 136 -76 136q-61 0 -102 -47.5t-56 -119.5l-61 -288h-62l65 306q18 67 2.5 108t-72.5 41q-63 0 -106.5 -51.5t-58.5 -126.5
l-58 -277h-63z" />
    <glyph glyph-name="n" unicode="n" horiz-adv-x="541" 
d="M24 0l80 375q1 3 25 128h62q-7 -55 -18 -94q63 104 176 104q76 0 111.5 -47t13.5 -147l-66 -319h-63l66 315q29 140 -86 140q-73 0 -119.5 -59t-65.5 -148l-53 -248h-63z" />
    <glyph glyph-name="o" unicode="o" horiz-adv-x="524" 
d="M300 513q85 0 134.5 -54.5t49.5 -150.5q0 -54 -15.5 -108t-46 -102t-83 -78t-118.5 -30q-86 0 -134.5 53t-48.5 148q0 75 27.5 146.5t89.5 123.5t145 52zM293 457q-59 0 -104 -42.5t-65.5 -101.5t-20.5 -121q0 -68 32.5 -107t92.5 -39q62 0 107 43t64 100.5t19 118.5
q0 71 -31.5 110t-93.5 39z" />
    <glyph glyph-name="p" unicode="p" horiz-adv-x="551" 
d="M-19 -200l118 554q22 102 30 149h62q-2 -24 -17 -94q66 104 178 104q75 0 117 -51t42 -137t-29.5 -161t-90.5 -124.5t-141 -49.5q-114 0 -146 85l-59 -275h-64zM137 249q-20 -94 8.5 -148t107.5 -54q62 0 107 44t65 104t20 124q0 66 -29.5 101t-83.5 35q-72 0 -124.5 -61
t-70.5 -145z" />
    <glyph glyph-name="q" unicode="q" horiz-adv-x="550" 
d="M311 -200l60 282q-64 -92 -177 -92q-68 0 -113 49.5t-45 142.5q0 85 32.5 160t94.5 123t138 48q62 0 97.5 -25t44.5 -60q11 50 20 75h61q-20 -84 -32 -146l-119 -557h-62zM299 456q-87 0 -142 -83t-55 -186q0 -66 29 -102.5t86 -36.5q77 0 125.5 61t67.5 156
q39 191 -111 191z" />
    <glyph glyph-name="r" unicode="r" horiz-adv-x="327" 
d="M350 513l-15 -67q-72 -7 -125.5 -62.5t-71.5 -141.5l-51 -242h-63l76 354q24 118 29 149h60q-2 -31 -19 -112q28 56 76.5 89t103.5 33z" />
    <glyph glyph-name="s" unicode="s" horiz-adv-x="439" 
d="M5 149h64q5 -46 36 -75.5t93 -29.5q54 0 84 25t30 66q0 37 -25.5 60t-84.5 45q-76 29 -106 59t-30 74q0 59 44.5 99.5t127.5 40.5q88 0 129.5 -42t39.5 -101h-64q-5 39 -28.5 64.5t-84.5 25.5q-45 0 -72.5 -22t-27.5 -59q0 -28 23.5 -46t81.5 -40q77 -29 111 -63t34 -86
q0 -71 -51.5 -112.5t-141.5 -41.5t-135.5 43.5t-46.5 115.5z" />
    <glyph glyph-name="t" unicode="t" horiz-adv-x="295" 
d="M50 448l12 55h87l32 149h63l-32 -149h112l-13 -55h-111l-68 -324q-10 -38 -3 -56t39 -18t52 5l-13 -53q-24 -9 -62 -9q-54 0 -73.5 26t-7.5 86l72 343h-86z" />
    <glyph glyph-name="u" unicode="u" horiz-adv-x="531" 
d="M505 503l-79 -368q-11 -50 -26 -135h-62q1 22 16 93q-26 -46 -70 -74.5t-103 -28.5q-74 0 -109 45t-14 143l71 325h62l-68 -320q-6 -36 -7 -66.5t20 -50.5t64 -20q67 0 117 53t73 163l51 241h64z" />
    <glyph glyph-name="v" unicode="v" horiz-adv-x="465" 
d="M67 503h63q47 -343 53 -443h1q9 20 58 108.5t109 195t78 139.5h68l-286 -503h-76z" />
    <glyph glyph-name="w" unicode="w" horiz-adv-x="722" 
d="M73 503h63q26 -339 24 -439h1q31 76 214 439h66q25 -362 23 -428h1q38 85 219 428h66l-266 -503h-68q-25 342 -24 425h-1q-24 -61 -208 -425h-72z" />
    <glyph glyph-name="x" unicode="x" horiz-adv-x="423" 
d="M56 503h68q79 -168 94 -199h1q52 64 170 199h75l-218 -247l123 -256h-70q-25 53 -98 208h-1q-47 -60 -173 -208h-75l221 258z" />
    <glyph glyph-name="y" unicode="y" horiz-adv-x="468" 
d="M61 503h64q58 -378 63 -455h1q10 19 39.5 79t81.5 162t113 214h68l-282 -533q-33 -62 -58.5 -98.5t-52.5 -54.5t-49 -22.5t-60 -4.5q-34 0 -54 6l15 59q30 -5 46 -5q49 0 76.5 24.5t70.5 98.5z" />
    <glyph glyph-name="z" unicode="z" horiz-adv-x="430" 
d="M-23 0l10 52l357 396h-273l12 55h351l-12 -56l-353 -392h295l-21 -55h-366z" />
    <glyph glyph-name="braceleft" unicode="{" horiz-adv-x="351" 
d="M28 259l12 58q67 0 94 29t38 88l30 141q19 90 65.5 125.5t124.5 35.5h20l-11 -53h-8q-57 0 -88 -23t-43 -85l-31 -147q-26 -127 -120 -143q85 -22 58 -147l-27 -124q-16 -78 4.5 -105.5t69.5 -27.5h15l-12 -53h-14q-71 0 -107.5 42t-15.5 140l28 131q6 33 6.5 59
t-21 42.5t-67.5 16.5z" />
    <glyph glyph-name="bar" unicode="|" horiz-adv-x="273" 
d="M100 781h63v-1043h-63v1043z" />
    <glyph glyph-name="braceright" unicode="}" horiz-adv-x="351" 
d="M332 306l-13 -58q-67 0 -93.5 -29t-38.5 -89l-29 -141q-18 -90 -65.5 -125.5t-124.5 -35.5h-21l11 53h9q57 0 87.5 23t43.5 86l31 146q26 127 119 144q-43 11 -57 46t0 100l26 125q17 77 -3.5 104.5t-69.5 27.5h-16l12 53h15q71 0 107.5 -41.5t15.5 -140.5l-28 -131
q-6 -33 -7 -59t21 -42t68 -16z" />
    <glyph glyph-name="asciitilde" unicode="~" horiz-adv-x="661" 
d="M143 210h-56v24q0 63 30 93.5t80 30.5q43 0 94.5 -23t98 -46t75.5 -23t41 17.5t12 53.5v18h56v-20q0 -128 -110 -128q-50 0 -141 46t-125 46q-55 0 -55 -74v-15z" />
    <glyph glyph-name="uni00A0" unicode="&#xa0;" horiz-adv-x="257" 
 />
    <glyph glyph-name="exclamdown" unicode="&#xa1;" horiz-adv-x="212" 
d="M71 275h54l-67 -347l-26 -123h-68l26 123zM116 503h64l-27 -127h-65z" />
    <glyph glyph-name="cent" unicode="&#xa2;" horiz-adv-x="502" 
d="M135 278q0 -58 21.5 -94t60.5 -46l81 378q-73 -6 -118 -78.5t-45 -159.5zM388 229h64q-50 -142 -199 -149l-20 -93h-48l20 95q-66 11 -100 63t-34 129q0 117 65 204.5t173 92.5l17 79h48l-17 -82q65 -10 97.5 -52.5t32.5 -99.5h-62q-9 83 -80 98l-81 -379q83 7 124 94z
" />
    <glyph glyph-name="sterling" unicode="&#xa3;" horiz-adv-x="485" 
d="M416 0h-433l10 50q93 41 116 217q3 24 6 45h-92l12 51h86q6 54 11 91q28 214 193 214q79 0 118 -45.5t37 -111.5h-60q-3 48 -28 75t-71 27q-58 0 -85.5 -37.5t-39.5 -117.5q-6 -43 -11 -95h160l-11 -51h-155q-3 -22 -6 -43q-21 -152 -89 -212h353z" />
    <glyph glyph-name="currency" unicode="&#xa4;" horiz-adv-x="494" 
d="M296 540q66 0 111 -43l78 68l29 -40l-79 -70q23 -51 13 -120q-12 -76 -55 -126l50 -65l-44 -38l-47 64q-52 -38 -118 -38q-69 0 -109 42l-77 -68l-31 43l79 67q-25 51 -14 123q10 70 55 124l-47 65l43 37l46 -63q54 38 117 38zM288 485q-60 0 -99 -42.5t-49 -104.5
q-12 -73 17.5 -114t82.5 -41q56 0 96 39t52 115q10 64 -14.5 106t-85.5 42z" />
    <glyph glyph-name="yen" unicode="&#xa5;" horiz-adv-x="454" 
d="M367 186h-125l-39 -186h-62l39 186h-121l9 46h122l15 69h-123l10 45h111l-112 312h69q84 -256 89 -282h1q17 27 214 282h72l-249 -312h114l-10 -45h-124l-15 -69h125z" />
    <glyph glyph-name="brokenbar" unicode="&#xa6;" horiz-adv-x="226" 
d="M80 689h60v-356h-60v356zM80 179h60v-358h-60v358z" />
    <glyph glyph-name="section" unicode="&#xa7;" horiz-adv-x="540" 
d="M202 418q-41 -15 -70 -51t-29 -77q0 -40 24.5 -69.5t88.5 -61.5q72 -35 116 -68q78 49 78 134q0 44 -23 73.5t-80 59.5q-34 18 -105 60zM509 537h-61q-2 50 -34.5 83.5t-96.5 33.5q-52 0 -86 -28.5t-34 -75.5q0 -40 27 -65t108 -67q75 -38 109.5 -79t34.5 -104
q0 -117 -109 -185q22 -32 22 -75q0 -87 -56.5 -135.5t-150.5 -48.5q-101 0 -151 50.5t-48 133.5h67q-2 -59 34 -93.5t103 -34.5q60 0 98 30.5t38 86.5q0 38 -28 67.5t-110 69.5q-80 40 -112.5 79.5t-32.5 99.5q0 53 33 100.5t90 76.5q-28 35 -28 82q0 71 49 120t140 49
q56 0 96 -17.5t58.5 -45.5t26 -55t4.5 -53z" />
    <glyph glyph-name="dieresis" unicode="&#xa8;" 
d="M199 634h-57l21 102h57zM369 634h-57l22 102h57z" />
    <glyph glyph-name="copyright" unicode="&#xa9;" horiz-adv-x="797" 
d="M413 708q148 0 245 -101t97 -256q0 -158 -97 -259.5t-245 -101.5q-152 0 -249 100t-97 261q0 154 99 255.5t247 101.5zM412 659q-127 0 -210 -84t-83 -228q0 -133 84 -220.5t209 -87.5q127 0 209 85.5t82 226.5q0 134 -82 221t-209 87zM530 283h51q-13 -63 -56.5 -100.5
t-109.5 -37.5q-81 0 -131 55t-50 149q0 98 50.5 153t132.5 55q72 0 115 -40t50 -102h-53q-23 94 -112 94q-59 0 -93 -40t-34 -119q0 -74 35.5 -115t91.5 -41q83 0 113 89z" />
    <glyph glyph-name="ordfeminine" unicode="&#xaa;" horiz-adv-x="364" 
d="M353 483l-28 -140q-3 -14 -9 -46t-7 -38h-50q5 35 9 53q-39 -59 -113 -59q-48 0 -72 27t-24 62t15.5 59t45.5 37t56.5 18.5t64.5 9.5q38 2 59 2l2 10q7 38 -5.5 59t-60.5 21q-39 0 -56 -14t-27 -41h-51q20 98 140 98q62 0 92.5 -30.5t18.5 -87.5zM291 421l2 8
q-17 0 -51 -2q-64 -6 -95.5 -22t-31.5 -58q0 -21 13.5 -35.5t39.5 -14.5q98 0 123 124z" />
    <glyph glyph-name="guillemotleft" unicode="&#xab;" horiz-adv-x="505" 
d="M313 451l-189 -198l101 -188h-61l-107 194l187 192h69zM491 451l-191 -198l103 -188h-63l-106 194l186 192h71z" />
    <glyph glyph-name="logicalnot" unicode="&#xac;" horiz-adv-x="713" 
d="M75 399h545v-311h-61v251h-484v60z" />
    <glyph glyph-name="uni00AD" unicode="&#xad;" horiz-adv-x="360" 
d="M63 286h246l-12 -61h-247z" />
    <glyph glyph-name="registered" unicode="&#xae;" horiz-adv-x="349" 
d="M241 708q71 0 115.5 -48.5t44.5 -118.5q0 -71 -44.5 -119.5t-115.5 -48.5q-70 0 -116 48t-46 120q0 70 45.5 118.5t116.5 48.5zM240 676q-60 0 -93.5 -40t-33.5 -95q0 -56 36.5 -96t91.5 -40q59 0 92 38t33 97q0 57 -35.5 96.5t-90.5 39.5zM212 460h-35v167h68
q63 0 63 -48q0 -32 -28 -39q23 -8 23 -44q0 -23 2 -36h-35q-2 10 -2 35q0 19 -5.5 25t-23.5 6h-27v-66zM212 600v-46h30q30 0 30 24q0 22 -31 22h-29z" />
    <glyph glyph-name="macron" unicode="&#xaf;" 
d="M142 694h259l-13 -57h-259z" />
    <glyph glyph-name="degree" unicode="&#xb0;" horiz-adv-x="306" 
d="M235 687q54 0 84 -32.5t30 -81.5q0 -67 -39.5 -110t-104.5 -43q-52 0 -83.5 32.5t-31.5 84.5q0 63 40.5 106.5t104.5 43.5zM227 644q-41 0 -64 -30.5t-23 -73.5q0 -35 18.5 -55.5t52.5 -20.5q39 0 64 28t25 75q0 33 -17.5 55t-55.5 22z" />
    <glyph glyph-name="plusminus" unicode="&#xb1;" horiz-adv-x="713" 
d="M328 662h57v-235h244v-54h-244v-240h-57v240h-244v54h244v235zM629 0h-545v54h545v-54z" />
    <glyph glyph-name="two.sups" unicode="&#xb2;" horiz-adv-x="343" 
d="M304 425h-281l2 12q19 96 163 179q62 35 80 52.5t18 49.5q0 29 -18.5 46t-52.5 17q-69 0 -94 -78h-53q31 124 153 124q57 0 88.5 -30t31.5 -76q0 -49 -26 -77t-97 -66q-95 -50 -120 -105h223z" />
    <glyph glyph-name="three.sups" unicode="&#xb3;" horiz-adv-x="352" 
d="M34 541h52q5 -36 29.5 -56.5t64.5 -20.5t66 20.5t26 62.5q0 29 -19 48t-59 19h-39l10 46h34q83 0 83 68q0 23 -16 38.5t-50 15.5q-36 0 -53.5 -16.5t-30.5 -45.5h-53q29 107 143 107q56 0 87 -27t31 -71q0 -34 -19.5 -58t-50.5 -33q22 -8 41 -31.5t19 -57.5
q0 -54 -38.5 -91t-114.5 -37q-77 0 -110 37.5t-33 82.5z" />
    <glyph glyph-name="acute" unicode="&#xb4;" 
d="M383 749h90l-199 -154h-74z" />
    <glyph glyph-name="uni00B5" unicode="&#xb5;" horiz-adv-x="534" 
d="M58 169l71 334h62l-67 -317q-32 -140 82 -140q66 0 114.5 50.5t70.5 155.5l53 251h63l-77 -360q-21 -105 -26 -143h-60q-2 23 12 87q-50 -97 -165 -97q-77 0 -102 56q-19 -116 -50 -254h-64q16 67 45 201t38 176z" />
    <glyph glyph-name="paragraph" unicode="&#xb6;" horiz-adv-x="569" 
d="M357 -159h-56l64 302h-96q-126 0 -179.5 71t-25.5 202q48 222 275 222h133q7 32 18 54h50q-6 -18 -21 -91zM342 200h35l82 383h-48q-54 0 -82 -44.5t-48 -138.5q-24 -94 -12.5 -147t73.5 -53z" />
    <glyph glyph-name="periodcentered" unicode="&#xb7;" horiz-adv-x="178" 
d="M72 199h-66l30 138h66z" />
    <glyph glyph-name="cedilla" unicode="&#xb8;" 
d="M118 11l52 -10l-48 -57q35 -6 63.5 -27t28.5 -60q0 -46 -34.5 -72t-91.5 -26q-46 0 -86 15l15 49q30 -13 70 -13q64 0 64 43q0 48 -106 50l6 24z" />
    <glyph glyph-name="one.sups" unicode="&#xb9;" horiz-adv-x="233" 
d="M142 424h-56l71 333q-33 -11 -83 -14l10 44q66 9 104 40h39z" />
    <glyph glyph-name="ordmasculine" unicode="&#xba;" horiz-adv-x="356" 
d="M241 601q59 0 94.5 -36t35.5 -99q0 -87 -50.5 -149.5t-136.5 -62.5q-56 0 -91.5 36.5t-35.5 99.5q0 83 50 147t134 64zM235 556q-58 0 -89.5 -49.5t-31.5 -115.5q0 -92 77 -92q60 0 92 50t32 114q0 45 -21 69t-59 24z" />
    <glyph glyph-name="guillemotright" unicode="&#xbb;" horiz-adv-x="505" 
d="M196 65l189 198l-101 188h61l107 -194l-187 -192h-69zM18 65l191 198l-103 188h63l106 -194l-186 -192h-71z" />
    <glyph glyph-name="onequarter" unicode="&#xbc;" horiz-adv-x="752" 
d="M129 2h-63l552 658h60zM172 257h-56l71 333q-33 -11 -83 -14l10 44q66 9 104 40h39zM620 3h-53l23 107h-195l8 43l232 246h69l-53 -245h61l-14 -44h-55zM464 154h134l22 96q1 4 10 44.5t13 54.5q-10 -13 -179 -195z" />
    <glyph glyph-name="onehalf" unicode="&#xbd;" horiz-adv-x="813" 
d="M121 0h-63l552 658h60zM160 257h-56l71 333q-33 -11 -83 -14l10 44q66 9 104 40h39zM731 0h-281l2 12q19 96 163 179q62 35 80 52.5t18 49.5q0 29 -18.5 46t-52.5 17q-69 0 -94 -78h-53q31 124 153 124q57 0 88.5 -30t31.5 -76q0 -49 -26 -77t-97 -66q-95 -50 -120 -105
h223z" />
    <glyph glyph-name="threequarters" unicode="&#xbe;" horiz-adv-x="830" 
d="M230 0h-63l552 658h60zM697 -15h-53l23 107h-195l8 43l232 246h69l-53 -245h61l-14 -44h-55zM541 136h134l22 96q1 4 10 44.5t13 54.5q-10 -13 -179 -195zM52 374h52q5 -36 29.5 -56.5t64.5 -20.5t66 20.5t26 62.5q0 29 -19 48t-59 19h-39l10 46h34q83 0 83 68
q0 23 -16 38.5t-50 15.5q-36 0 -53.5 -16.5t-30.5 -45.5h-53q29 107 143 107q56 0 87 -27t31 -71q0 -34 -19.5 -58t-50.5 -33q22 -8 41 -31.5t19 -57.5q0 -54 -38.5 -91t-114.5 -37q-77 0 -110 37.5t-33 82.5z" />
    <glyph glyph-name="questiondown" unicode="&#xbf;" horiz-adv-x="443" 
d="M209 295h66l-4 -14q-9 -46 -33.5 -85.5t-86.5 -87.5q-65 -50 -88.5 -81t-23.5 -80q0 -40 26.5 -67t82.5 -27q53 0 87 27.5t54 85.5h64q-6 -27 -18 -52.5t-35 -54.5t-64 -47t-93 -18q-85 0 -127 43t-42 106q0 68 32.5 111t104.5 98q46 34 67 65t29 70zM254 503h65
l-28 -127h-65z" />
    <glyph glyph-name="Agrave" unicode="&#xc0;" horiz-adv-x="605" 
d="M447 231h-277l-127 -231h-72l391 698h78l111 -698h-68zM202 290h238q-45 286 -50 343h-1q-67 -130 -187 -343zM227 890h86l135 -137h-70z" />
    <glyph glyph-name="Aacute" unicode="&#xc1;" horiz-adv-x="605" 
d="M447 231h-277l-127 -231h-72l391 698h78l111 -698h-68zM202 290h238q-45 286 -50 343h-1q-67 -130 -187 -343zM547 890h97l-202 -137h-78z" />
    <glyph glyph-name="Acircumflex" unicode="&#xc2;" horiz-adv-x="605" 
d="M447 231h-277l-127 -231h-72l391 698h78l111 -698h-68zM202 290h238q-45 286 -50 343h-1q-67 -130 -187 -343zM395 878h67l104 -127h-68l-74 86l-110 -86h-76z" />
    <glyph glyph-name="Atilde" unicode="&#xc3;" horiz-adv-x="605" 
d="M447 231h-277l-127 -231h-72l391 698h78l111 -698h-68zM202 290h238q-45 286 -50 343h-1q-67 -130 -187 -343zM303 767h-51l4 22q7 48 27.5 66t55.5 18q31 0 80.5 -27t66.5 -27q28 0 37 45l2 9h50l-5 -26q-9 -46 -29.5 -64.5t-55.5 -18.5q-29 0 -76 27.5t-68 27.5
q-27 0 -35 -33z" />
    <glyph glyph-name="Adieresis" unicode="&#xc4;" horiz-adv-x="605" 
d="M447 231h-277l-127 -231h-72l391 698h78l111 -698h-68zM202 290h238q-45 286 -50 343h-1q-67 -130 -187 -343zM333 768h-57l22 103h57zM531 768h-57l21 103h57z" />
    <glyph glyph-name="Aring" unicode="&#xc5;" horiz-adv-x="605" 
d="M447 231h-277l-127 -231h-72l391 698h78l111 -698h-68zM202 290h238q-45 286 -50 343h-1q-67 -130 -187 -343zM408 746q-40 0 -64 24t-24 60q0 46 31.5 77t79.5 31q39 0 63 -25t24 -60q0 -47 -31 -77t-79 -30zM413 786q23 0 40 18t17 46q0 48 -44 48q-25 0 -41.5 -18
t-16.5 -48q0 -17 12 -31.5t33 -14.5z" />
    <glyph glyph-name="AE" unicode="&#xc6;" horiz-adv-x="913" 
d="M492 698h461l-12 -59h-349l-52 -239h332l-12 -59h-333l-58 -282h377l-22 -59h-435l54 259h-227l-209 -259h-80zM262 317h194l69 327h-2z" />
    <glyph glyph-name="Ccedilla" unicode="&#xc7;" horiz-adv-x="647" 
d="M538 202h71q-78 -203 -284 -210l-34 -40q35 -6 63.5 -27t28.5 -60q0 -46 -34.5 -72t-91.5 -26q-46 0 -86 15l15 49q30 -13 70 -13q64 0 64 43q0 48 -106 50l6 24l48 60q-105 14 -156.5 89.5t-51.5 186.5q0 82 22.5 159t64.5 139.5t110 100.5t152 38q109 0 173 -58.5
t69 -159.5h-69q-7 75 -52.5 117.5t-127.5 42.5q-85 0 -148.5 -55.5t-93 -139t-29.5 -181.5t46.5 -161t142.5 -63q150 0 218 152z" />
    <glyph glyph-name="Egrave" unicode="&#xc8;" horiz-adv-x="558" 
d="M515 399l-12 -59h-330l-59 -281h378l-22 -59h-435l147 698h416l-12 -59h-349l-51 -240h329zM221 903h86l135 -137h-70z" />
    <glyph glyph-name="Eacute" unicode="&#xc9;" horiz-adv-x="558" 
d="M515 399l-12 -59h-330l-59 -281h378l-22 -59h-435l147 698h416l-12 -59h-349l-51 -240h329zM518 903h97l-202 -137h-78z" />
    <glyph glyph-name="Ecircumflex" unicode="&#xca;" horiz-adv-x="558" 
d="M515 399l-12 -59h-330l-59 -281h378l-22 -59h-435l147 698h416l-12 -59h-349l-51 -240h329zM392 893h67l104 -127h-68l-74 86l-110 -86h-76z" />
    <glyph glyph-name="Edieresis" unicode="&#xcb;" horiz-adv-x="558" 
d="M515 399l-12 -59h-330l-59 -281h378l-22 -59h-435l147 698h416l-12 -59h-349l-51 -240h329zM328 771h-57l22 103h57zM526 771h-57l21 103h57z" />
    <glyph glyph-name="Igrave" unicode="&#xcc;" horiz-adv-x="247" 
d="M183 698h67l-147 -698h-68zM42 898h86l135 -137h-70z" />
    <glyph glyph-name="Iacute" unicode="&#xcd;" horiz-adv-x="247" 
d="M183 698h67l-147 -698h-68zM368 898h97l-202 -137h-78z" />
    <glyph glyph-name="Icircumflex" unicode="&#xce;" horiz-adv-x="247" 
d="M183 698h67l-147 -698h-68zM213 888h67l104 -127h-68l-74 86l-110 -86h-76z" />
    <glyph glyph-name="Idieresis" unicode="&#xcf;" horiz-adv-x="247" 
d="M183 698h67l-147 -698h-68zM158 774h-57l22 103h57zM356 774h-57l21 103h57z" />
    <glyph glyph-name="Eth" unicode="&#xd0;" horiz-adv-x="711" 
d="M28 388h99l65 310h194q133 0 210.5 -79t77.5 -215q0 -178 -105 -291t-283 -113h-241l71 335h-100zM247 640l-53 -252h203l-11 -53h-203l-59 -277h157q151 0 236 95t86 251q1 110 -58.5 173t-167.5 63h-130z" />
    <glyph glyph-name="Ntilde" unicode="&#xd1;" horiz-adv-x="707" 
d="M100 0h-66l148 698h88q234 -585 245 -621h1q6 42 65 323l63 298h66l-148 -698h-83q-221 550 -248 633h-2q-10 -68 -65 -328zM345 774h-51l4 22q7 48 27.5 66t55.5 18q31 0 80.5 -27t66.5 -27q28 0 37 45l2 9h50l-5 -26q-9 -46 -29.5 -64.5t-55.5 -18.5q-29 0 -76 27.5
t-68 27.5q-27 0 -35 -33z" />
    <glyph glyph-name="Ograve" unicode="&#xd2;" horiz-adv-x="721" 
d="M424 708q125 0 193 -76t68 -212q0 -61 -13.5 -121t-42.5 -116t-70.5 -99t-103 -68.5t-134.5 -25.5q-123 0 -191.5 77t-68.5 204q0 79 23.5 155t67 140t114.5 103t158 39zM419 650q-57 0 -105.5 -23t-81.5 -61t-56 -87.5t-34 -101.5t-11 -104q0 -99 50 -162t149 -63
q91 0 157.5 57t97 140t30.5 177q0 105 -50.5 166.5t-145.5 61.5zM276 914h86l135 -137h-70z" />
    <glyph glyph-name="Oacute" unicode="&#xd3;" horiz-adv-x="721" 
d="M424 708q125 0 193 -76t68 -212q0 -61 -13.5 -121t-42.5 -116t-70.5 -99t-103 -68.5t-134.5 -25.5q-123 0 -191.5 77t-68.5 204q0 79 23.5 155t67 140t114.5 103t158 39zM419 650q-57 0 -105.5 -23t-81.5 -61t-56 -87.5t-34 -101.5t-11 -104q0 -99 50 -162t149 -63
q91 0 157.5 57t97 140t30.5 177q0 105 -50.5 166.5t-145.5 61.5zM565 911h97l-202 -137h-78z" />
    <glyph glyph-name="Ocircumflex" unicode="&#xd4;" horiz-adv-x="721" 
d="M424 708q125 0 193 -76t68 -212q0 -61 -13.5 -121t-42.5 -116t-70.5 -99t-103 -68.5t-134.5 -25.5q-123 0 -191.5 77t-68.5 204q0 79 23.5 155t67 140t114.5 103t158 39zM419 650q-57 0 -105.5 -23t-81.5 -61t-56 -87.5t-34 -101.5t-11 -104q0 -99 50 -162t149 -63
q91 0 157.5 57t97 140t30.5 177q0 105 -50.5 166.5t-145.5 61.5zM438 896h67l104 -127h-68l-74 86l-110 -86h-76z" />
    <glyph glyph-name="Otilde" unicode="&#xd5;" horiz-adv-x="721" 
d="M424 708q125 0 193 -76t68 -212q0 -61 -13.5 -121t-42.5 -116t-70.5 -99t-103 -68.5t-134.5 -25.5q-123 0 -191.5 77t-68.5 204q0 79 23.5 155t67 140t114.5 103t158 39zM419 650q-57 0 -105.5 -23t-81.5 -61t-56 -87.5t-34 -101.5t-11 -104q0 -99 50 -162t149 -63
q91 0 157.5 57t97 140t30.5 177q0 105 -50.5 166.5t-145.5 61.5zM340 782h-51l4 22q7 48 27.5 66t55.5 18q31 0 80.5 -27t66.5 -27q28 0 37 45l2 9h50l-5 -26q-9 -46 -29.5 -64.5t-55.5 -18.5q-29 0 -76 27.5t-68 27.5q-27 0 -35 -33z" />
    <glyph glyph-name="Odieresis" unicode="&#xd6;" horiz-adv-x="721" 
d="M424 708q125 0 193 -76t68 -212q0 -61 -13.5 -121t-42.5 -116t-70.5 -99t-103 -68.5t-134.5 -25.5q-123 0 -191.5 77t-68.5 204q0 79 23.5 155t67 140t114.5 103t158 39zM419 650q-57 0 -105.5 -23t-81.5 -61t-56 -87.5t-34 -101.5t-11 -104q0 -99 50 -162t149 -63
q91 0 157.5 57t97 140t30.5 177q0 105 -50.5 166.5t-145.5 61.5zM369 781h-57l22 103h57zM567 781h-57l21 103h57z" />
    <glyph glyph-name="multiply" unicode="&#xd7;" horiz-adv-x="713" 
d="M625 43l-40 -43l-228 238l-228 -238l-40 43l228 237l-228 238l40 41l228 -237l228 237l40 -41l-228 -238z" />
    <glyph glyph-name="Oslash" unicode="&#xd8;" horiz-adv-x="721" 
d="M431 708q105 0 172 -59l43 49h61l-74 -84q52 -70 52 -187q0 -82 -23.5 -158.5t-67.5 -139.5t-116.5 -101t-163.5 -38q-108 0 -174 63l-47 -53h-62l79 89q-49 71 -49 179t41 206.5t127.5 166t201.5 67.5zM426 650q-70 0 -128 -33.5t-94.5 -88.5t-56 -122t-19.5 -136
q0 -74 29 -128l402 457q-51 51 -133 51zM322 49q94 0 162 55t100 139.5t32 185.5q0 78 -30 132l-402 -457q52 -55 138 -55z" />
    <glyph glyph-name="Ugrave" unicode="&#xd9;" horiz-adv-x="664" 
d="M172 698h68l-91 -427q-25 -117 19 -169t133 -52q100 0 146.5 48.5t72.5 175.5l91 424h68l-92 -431q-33 -154 -95.5 -214.5t-196.5 -60.5q-124 0 -184 69.5t-29 212.5zM260 896h86l135 -137h-70z" />
    <glyph glyph-name="Uacute" unicode="&#xda;" horiz-adv-x="664" 
d="M172 698h68l-91 -427q-25 -117 19 -169t133 -52q100 0 146.5 48.5t72.5 175.5l91 424h68l-92 -431q-33 -154 -95.5 -214.5t-196.5 -60.5q-124 0 -184 69.5t-29 212.5zM541 896h97l-202 -137h-78z" />
    <glyph glyph-name="Ucircumflex" unicode="&#xdb;" horiz-adv-x="664" 
d="M172 698h68l-91 -427q-25 -117 19 -169t133 -52q100 0 146.5 48.5t72.5 175.5l91 424h68l-92 -431q-33 -154 -95.5 -214.5t-196.5 -60.5q-124 0 -184 69.5t-29 212.5zM420 888h67l104 -127h-68l-74 86l-110 -86h-76z" />
    <glyph glyph-name="Udieresis" unicode="&#xdc;" horiz-adv-x="664" 
d="M172 698h68l-91 -427q-25 -117 19 -169t133 -52q100 0 146.5 48.5t72.5 175.5l91 424h68l-92 -431q-33 -154 -95.5 -214.5t-196.5 -60.5q-124 0 -184 69.5t-29 212.5zM356 766h-57l22 103h57zM554 766h-57l21 103h57z" />
    <glyph glyph-name="Yacute" unicode="&#xdd;" horiz-adv-x="544" 
d="M244 0h-67l55 265q2 9 -1 17l-154 416h71q21 -59 72.5 -200t60.5 -167q45 67 283 367h75l-333 -421q-4 -5 -7 -16zM474 881h97l-202 -137h-78z" />
    <glyph glyph-name="Thorn" unicode="&#xde;" horiz-adv-x="585" 
d="M34 0l148 698h67l-30 -144h138q92 0 151 -47.5t59 -133.5q0 -116 -77 -168.5t-207 -52.5h-149l-32 -152h-68zM206 495l-60 -285h135q100 0 158 34t58 122q0 59 -38.5 94t-118.5 35h-134z" />
    <glyph glyph-name="germandbls" unicode="&#xdf;" horiz-adv-x="574" 
d="M199 530l-112 -530h-63l114 534q25 118 77.5 165t151.5 47q93 0 144 -47t51 -111q0 -33 -7 -59l-198 -120v-1l61 -53q50 -45 72.5 -83t22.5 -87q0 -88 -52 -141.5t-150 -53.5q-107 0 -165 68l13 66q63 -80 157 -80q61 0 96 36t35 96q0 69 -72 132l-67 59q-49 45 18 86
l170 106q2 6 2 24q0 42 -32 75.5t-106 33.5q-62 0 -101 -31.5t-60 -130.5z" />
    <glyph glyph-name="agrave" unicode="&#xe0;" horiz-adv-x="515" 
d="M454 344l-46 -219q-20 -94 -24 -125h-63q3 35 16 85q-56 -95 -178 -95q-71 0 -104 37t-33 89q0 163 236 182q12 1 125 6l8 38q23 118 -101 118q-62 0 -92 -25.5t-45 -66.5h-64q14 63 64 104t143 41q88 0 131.5 -42.5t26.5 -126.5zM371 245l2 8q-60 0 -109 -5
q-37 -3 -64 -9.5t-54 -19.5t-41.5 -37t-14.5 -58q0 -33 22.5 -55.5t65.5 -22.5q147 0 193 199zM176 749h74l113 -154h-62z" />
    <glyph glyph-name="aacute" unicode="&#xe1;" horiz-adv-x="515" 
d="M454 344l-46 -219q-20 -94 -24 -125h-63q3 35 16 85q-56 -95 -178 -95q-71 0 -104 37t-33 89q0 163 236 182q12 1 125 6l8 38q23 118 -101 118q-62 0 -92 -25.5t-45 -66.5h-64q14 63 64 104t143 41q88 0 131.5 -42.5t26.5 -126.5zM371 245l2 8q-60 0 -109 -5
q-37 -3 -64 -9.5t-54 -19.5t-41.5 -37t-14.5 -58q0 -33 22.5 -55.5t65.5 -22.5q147 0 193 199zM441 749h90l-199 -154h-74z" />
    <glyph glyph-name="acircumflex" unicode="&#xe2;" horiz-adv-x="515" 
d="M454 344l-46 -219q-20 -94 -24 -125h-63q3 35 16 85q-56 -95 -178 -95q-71 0 -104 37t-33 89q0 163 236 182q12 1 125 6l8 38q23 118 -101 118q-62 0 -92 -25.5t-45 -66.5h-64q14 63 64 104t143 41q88 0 131.5 -42.5t26.5 -126.5zM371 245l2 8q-60 0 -109 -5
q-37 -3 -64 -9.5t-54 -19.5t-41.5 -37t-14.5 -58q0 -33 22.5 -55.5t65.5 -22.5q147 0 193 199zM321 745h63l72 -143h-64l-47 100l-96 -100h-68z" />
    <glyph glyph-name="atilde" unicode="&#xe3;" horiz-adv-x="515" 
d="M454 344l-46 -219q-20 -94 -24 -125h-63q3 35 16 85q-56 -95 -178 -95q-71 0 -104 37t-33 89q0 163 236 182q12 1 125 6l8 38q23 118 -101 118q-62 0 -92 -25.5t-45 -66.5h-64q14 63 64 104t143 41q88 0 131.5 -42.5t26.5 -126.5zM371 245l2 8q-60 0 -109 -5
q-37 -3 -64 -9.5t-54 -19.5t-41.5 -37t-14.5 -58q0 -33 22.5 -55.5t65.5 -22.5q147 0 193 199zM223 615h-49l4 20q9 48 29 66t57 18q28 0 72 -25t57 -25q27 0 34 42l2 11h49l-4 -19q-9 -49 -28.5 -68.5t-54.5 -19.5q-25 0 -69 26t-62 26q-24 0 -33 -35z" />
    <glyph glyph-name="adieresis" unicode="&#xe4;" horiz-adv-x="515" 
d="M454 344l-46 -219q-20 -94 -24 -125h-63q3 35 16 85q-56 -95 -178 -95q-71 0 -104 37t-33 89q0 163 236 182q12 1 125 6l8 38q23 118 -101 118q-62 0 -92 -25.5t-45 -66.5h-64q14 63 64 104t143 41q88 0 131.5 -42.5t26.5 -126.5zM371 245l2 8q-60 0 -109 -5
q-37 -3 -64 -9.5t-54 -19.5t-41.5 -37t-14.5 -58q0 -33 22.5 -55.5t65.5 -22.5q147 0 193 199zM265 634h-57l21 102h57zM435 634h-57l22 102h57z" />
    <glyph glyph-name="aring" unicode="&#xe5;" horiz-adv-x="515" 
d="M454 344l-46 -219q-20 -94 -24 -125h-63q3 35 16 85q-56 -95 -178 -95q-71 0 -104 37t-33 89q0 163 236 182q12 1 125 6l8 38q23 118 -101 118q-62 0 -92 -25.5t-45 -66.5h-64q14 63 64 104t143 41q88 0 131.5 -42.5t26.5 -126.5zM371 245l2 8q-60 0 -109 -5
q-37 -3 -64 -9.5t-54 -19.5t-41.5 -37t-14.5 -58q0 -33 22.5 -55.5t65.5 -22.5q147 0 193 199zM315 570q-40 0 -64 24t-24 60q0 46 31.5 77t79.5 31q39 0 63 -25t24 -60q0 -47 -31 -77t-79 -30zM320 610q23 0 40 18t17 46q0 48 -44 48q-25 0 -41.5 -18t-16.5 -48
q0 -17 12 -31.5t33 -14.5z" />
    <glyph glyph-name="ae" unicode="&#xe6;" horiz-adv-x="827" 
d="M624 513q88 0 129 -48t41 -118q0 -55 -13 -96h-352q-7 -40 -7 -63q0 -142 122 -142q56 0 88 24t58 68h64q-30 -72 -82.5 -110t-140.5 -38q-68 0 -107.5 33t-51.5 81q-65 -114 -203 -114q-71 0 -108.5 38t-37.5 96q0 88 70 133.5t191 45.5h98l7 41q9 51 -11.5 83.5
t-84.5 32.5q-109 0 -137 -94h-66q34 147 210 147q60 0 99 -22.5t45 -61.5q62 84 180 84zM365 231l5 20h-90q-190 0 -190 -123q0 -36 24 -58.5t66 -22.5q74 0 118.5 44.5t66.5 139.5zM442 303h287q3 17 3 40q0 115 -117 115q-62 0 -107 -39.5t-66 -115.5z" />
    <glyph glyph-name="ccedilla" unicode="&#xe7;" horiz-adv-x="490" 
d="M367 145h64q-52 -138 -186 -153l-39 -47q35 -6 63.5 -27t28.5 -60q0 -46 -34.5 -72t-91.5 -26q-46 0 -86 15l15 49q30 -13 70 -13q64 0 64 43q0 48 -106 50l6 24l51 64q-74 9 -111.5 61.5t-37.5 134.5q0 59 16.5 115.5t47 104t80.5 76.5t112 29q91 0 132 -52t36 -115h-63
q-4 112 -111 112q-59 0 -102.5 -42t-62.5 -100.5t-19 -122.5q0 -148 122 -148q91 0 142 100z" />
    <glyph glyph-name="egrave" unicode="&#xe8;" horiz-adv-x="502" 
d="M456 246h-351q-5 -38 -5 -55q0 -71 33 -108t90 -37q95 0 144 91h66q-65 -147 -218 -147q-89 0 -134 53.5t-45 143.5q0 57 15.5 112.5t46 104.5t82 79t116.5 30q90 0 131 -50t41 -124q0 -50 -12 -93zM117 298h285q4 20 4 42q0 119 -115 119q-62 0 -107 -42t-67 -119z
M175 749h74l113 -154h-62z" />
    <glyph glyph-name="eacute" unicode="&#xe9;" horiz-adv-x="502" 
d="M456 246h-351q-5 -38 -5 -55q0 -71 33 -108t90 -37q95 0 144 91h66q-65 -147 -218 -147q-89 0 -134 53.5t-45 143.5q0 57 15.5 112.5t46 104.5t82 79t116.5 30q90 0 131 -50t41 -124q0 -50 -12 -93zM117 298h285q4 20 4 42q0 119 -115 119q-62 0 -107 -42t-67 -119z
M434 749h90l-199 -154h-74z" />
    <glyph glyph-name="ecircumflex" unicode="&#xea;" horiz-adv-x="502" 
d="M456 246h-351q-5 -38 -5 -55q0 -71 33 -108t90 -37q95 0 144 91h66q-65 -147 -218 -147q-89 0 -134 53.5t-45 143.5q0 57 15.5 112.5t46 104.5t82 79t116.5 30q90 0 131 -50t41 -124q0 -50 -12 -93zM117 298h285q4 20 4 42q0 119 -115 119q-62 0 -107 -42t-67 -119z
M314 746h63l72 -143h-64l-47 100l-96 -100h-68z" />
    <glyph glyph-name="edieresis" unicode="&#xeb;" horiz-adv-x="502" 
d="M456 246h-351q-5 -38 -5 -55q0 -71 33 -108t90 -37q95 0 144 91h66q-65 -147 -218 -147q-89 0 -134 53.5t-45 143.5q0 57 15.5 112.5t46 104.5t82 79t116.5 30q90 0 131 -50t41 -124q0 -50 -12 -93zM117 298h285q4 20 4 42q0 119 -115 119q-62 0 -107 -42t-67 -119z
M258 634h-57l21 102h57zM428 634h-57l22 102h57z" />
    <glyph glyph-name="igrave" unicode="&#xec;" horiz-adv-x="220" 
d="M24 0l107 503h63l-107 -503h-63zM26 749h74l113 -154h-62z" />
    <glyph glyph-name="iacute" unicode="&#xed;" horiz-adv-x="220" 
d="M24 0l107 503h63l-107 -503h-63zM313 749h90l-199 -154h-74z" />
    <glyph glyph-name="icircumflex" unicode="&#xee;" horiz-adv-x="220" 
d="M24 0l107 503h63l-107 -503h-63zM181 747h63l72 -143h-64l-47 100l-96 -100h-68z" />
    <glyph glyph-name="idieresis" unicode="&#xef;" horiz-adv-x="220" 
d="M24 0l107 503h63l-107 -503h-63zM125 634h-57l21 102h57zM295 634h-57l22 102h57z" />
    <glyph glyph-name="eth" unicode="&#xf0;" horiz-adv-x="507" 
d="M151 696l13 49q100 -18 169 -70l123 76l21 -41l-107 -66q99 -99 100 -266q0 -64 -14 -128.5t-43.5 -124.5t-84 -97.5t-125.5 -37.5q-83 0 -128.5 51.5t-45.5 142.5q0 57 16.5 112.5t47.5 103t81.5 77t112.5 29.5q78 0 111 -43q-14 88 -79 150l-131 -81l-21 40l114 71
q-55 38 -130 53zM285 451q-86 0 -138.5 -82t-52.5 -185q0 -64 29.5 -101.5t89.5 -37.5q62 0 107 51t63.5 115.5t18.5 128.5q0 49 -28 80t-89 31z" />
    <glyph glyph-name="ntilde" unicode="&#xf1;" horiz-adv-x="541" 
d="M24 0l80 375q1 3 25 128h62q-7 -55 -18 -94q63 104 176 104q76 0 111.5 -47t13.5 -147l-66 -319h-63l66 315q29 140 -86 140q-73 0 -119.5 -59t-65.5 -148l-53 -248h-63zM247 615h-49l4 20q9 48 29 66t57 18q28 0 72 -25t57 -25q27 0 34 42l2 11h49l-4 -19
q-9 -49 -28.5 -68.5t-54.5 -19.5q-25 0 -69 26t-62 26q-24 0 -33 -35z" />
    <glyph glyph-name="ograve" unicode="&#xf2;" horiz-adv-x="524" 
d="M300 513q85 0 134.5 -54.5t49.5 -150.5q0 -54 -15.5 -108t-46 -102t-83 -78t-118.5 -30q-86 0 -134.5 53t-48.5 148q0 75 27.5 146.5t89.5 123.5t145 52zM293 457q-59 0 -104 -42.5t-65.5 -101.5t-20.5 -121q0 -68 32.5 -107t92.5 -39q62 0 107 43t64 100.5t19 118.5
q0 71 -31.5 110t-93.5 39zM184 749h74l113 -154h-62z" />
    <glyph glyph-name="oacute" unicode="&#xf3;" horiz-adv-x="524" 
d="M300 513q85 0 134.5 -54.5t49.5 -150.5q0 -54 -15.5 -108t-46 -102t-83 -78t-118.5 -30q-86 0 -134.5 53t-48.5 148q0 75 27.5 146.5t89.5 123.5t145 52zM293 457q-59 0 -104 -42.5t-65.5 -101.5t-20.5 -121q0 -68 32.5 -107t92.5 -39q62 0 107 43t64 100.5t19 118.5
q0 71 -31.5 110t-93.5 39zM456 749h90l-199 -154h-74z" />
    <glyph glyph-name="ocircumflex" unicode="&#xf4;" horiz-adv-x="524" 
d="M300 513q85 0 134.5 -54.5t49.5 -150.5q0 -54 -15.5 -108t-46 -102t-83 -78t-118.5 -30q-86 0 -134.5 53t-48.5 148q0 75 27.5 146.5t89.5 123.5t145 52zM293 457q-59 0 -104 -42.5t-65.5 -101.5t-20.5 -121q0 -68 32.5 -107t92.5 -39q62 0 107 43t64 100.5t19 118.5
q0 71 -31.5 110t-93.5 39zM325 745h63l72 -143h-64l-47 100l-96 -100h-68z" />
    <glyph glyph-name="otilde" unicode="&#xf5;" horiz-adv-x="524" 
d="M300 513q85 0 134.5 -54.5t49.5 -150.5q0 -54 -15.5 -108t-46 -102t-83 -78t-118.5 -30q-86 0 -134.5 53t-48.5 148q0 75 27.5 146.5t89.5 123.5t145 52zM293 457q-59 0 -104 -42.5t-65.5 -101.5t-20.5 -121q0 -68 32.5 -107t92.5 -39q62 0 107 43t64 100.5t19 118.5
q0 71 -31.5 110t-93.5 39zM239 615h-49l4 20q9 48 29 66t57 18q28 0 72 -25t57 -25q27 0 34 42l2 11h49l-4 -19q-9 -49 -28.5 -68.5t-54.5 -19.5q-25 0 -69 26t-62 26q-24 0 -33 -35z" />
    <glyph glyph-name="odieresis" unicode="&#xf6;" horiz-adv-x="524" 
d="M300 513q85 0 134.5 -54.5t49.5 -150.5q0 -54 -15.5 -108t-46 -102t-83 -78t-118.5 -30q-86 0 -134.5 53t-48.5 148q0 75 27.5 146.5t89.5 123.5t145 52zM293 457q-59 0 -104 -42.5t-65.5 -101.5t-20.5 -121q0 -68 32.5 -107t92.5 -39q62 0 107 43t64 100.5t19 118.5
q0 71 -31.5 110t-93.5 39zM269 634h-57l21 102h57zM439 634h-57l22 102h57z" />
    <glyph glyph-name="divide" unicode="&#xf7;" horiz-adv-x="713" 
d="M385 1h-60v125h60v-125zM629 251h-545v59h545v-59zM385 428h-60v127h60v-127z" />
    <glyph glyph-name="oslash" unicode="&#xf8;" horiz-adv-x="524" 
d="M302 513q78 0 124 -40l34 39h55l-62 -71q29 -47 29 -123q0 -56 -15.5 -112t-46 -105.5t-82.5 -80t-118 -30.5q-78 0 -124 42l-37 -43h-55l66 75q-30 48 -30 123q0 54 16 109.5t46.5 105t82.5 80.5t117 31zM295 458q-88 0 -139.5 -83.5t-51.5 -187.5q0 -40 11 -70l270 309
q-31 32 -90 32zM227 44q47 0 85.5 27t60.5 69.5t33.5 88.5t11.5 89q0 40 -11 70l-269 -309q30 -35 89 -35z" />
    <glyph glyph-name="ugrave" unicode="&#xf9;" horiz-adv-x="531" 
d="M505 503l-79 -368q-11 -50 -26 -135h-62q1 22 16 93q-26 -46 -70 -74.5t-103 -28.5q-74 0 -109 45t-14 143l71 325h62l-68 -320q-6 -36 -7 -66.5t20 -50.5t64 -20q67 0 117 53t73 163l51 241h64zM178 749h74l113 -154h-62z" />
    <glyph glyph-name="uacute" unicode="&#xfa;" horiz-adv-x="531" 
d="M505 503l-79 -368q-11 -50 -26 -135h-62q1 22 16 93q-26 -46 -70 -74.5t-103 -28.5q-74 0 -109 45t-14 143l71 325h62l-68 -320q-6 -36 -7 -66.5t20 -50.5t64 -20q67 0 117 53t73 163l51 241h64zM454 749h90l-199 -154h-74z" />
    <glyph glyph-name="ucircumflex" unicode="&#xfb;" horiz-adv-x="531" 
d="M505 503l-79 -368q-11 -50 -26 -135h-62q1 22 16 93q-26 -46 -70 -74.5t-103 -28.5q-74 0 -109 45t-14 143l71 325h62l-68 -320q-6 -36 -7 -66.5t20 -50.5t64 -20q67 0 117 53t73 163l51 241h64zM334 745h63l72 -143h-64l-47 100l-96 -100h-68z" />
    <glyph glyph-name="udieresis" unicode="&#xfc;" horiz-adv-x="531" 
d="M505 503l-79 -368q-11 -50 -26 -135h-62q1 22 16 93q-26 -46 -70 -74.5t-103 -28.5q-74 0 -109 45t-14 143l71 325h62l-68 -320q-6 -36 -7 -66.5t20 -50.5t64 -20q67 0 117 53t73 163l51 241h64zM275 634h-57l21 102h57zM445 634h-57l22 102h57z" />
    <glyph glyph-name="yacute" unicode="&#xfd;" horiz-adv-x="468" 
d="M61 503h64q58 -378 63 -455h1q10 19 39.5 79t81.5 162t113 214h68l-282 -533q-33 -62 -58.5 -98.5t-52.5 -54.5t-49 -22.5t-60 -4.5q-34 0 -54 6l15 59q30 -5 46 -5q49 0 76.5 24.5t70.5 98.5zM415 748h90l-199 -154h-74z" />
    <glyph glyph-name="thorn" unicode="&#xfe;" horiz-adv-x="551" 
d="M-19 -200l198 936h63l-68 -325q64 102 178 102q75 0 117 -50.5t42 -135.5q0 -86 -30.5 -161.5t-93 -125.5t-144.5 -50q-57 0 -93 25.5t-47 60.5l-58 -276h-64zM137 249q-21 -95 5.5 -148.5t104.5 -53.5q92 0 145 86.5t53 189.5q0 60 -30 96t-83 36q-73 0 -124.5 -59
t-70.5 -147z" />
    <glyph glyph-name="ydieresis" unicode="&#xff;" horiz-adv-x="468" 
d="M61 503h64q58 -378 63 -455h1q10 19 39.5 79t81.5 162t113 214h68l-282 -533q-33 -62 -58.5 -98.5t-52.5 -54.5t-49 -22.5t-60 -4.5q-34 0 -54 6l15 59q30 -5 46 -5q49 0 76.5 24.5t70.5 98.5zM232 634h-57l21 102h57zM402 634h-57l22 102h57z" />
    <glyph glyph-name="Amacron" unicode="&#x100;" horiz-adv-x="605" 
d="M447 231h-277l-127 -231h-72l391 698h78l111 -698h-68zM202 290h238q-45 286 -50 343h-1q-67 -130 -187 -343zM289 835h260l-12 -56h-260z" />
    <glyph glyph-name="amacron" unicode="&#x101;" horiz-adv-x="515" 
d="M454 344l-46 -219q-20 -94 -24 -125h-63q3 35 16 85q-56 -95 -178 -95q-71 0 -104 37t-33 89q0 163 236 182q12 1 125 6l8 38q23 118 -101 118q-62 0 -92 -25.5t-45 -66.5h-64q14 63 64 104t143 41q88 0 131.5 -42.5t26.5 -126.5zM371 245l2 8q-60 0 -109 -5
q-37 -3 -64 -9.5t-54 -19.5t-41.5 -37t-14.5 -58q0 -33 22.5 -55.5t65.5 -22.5q147 0 193 199zM208 694h259l-13 -57h-259z" />
    <glyph glyph-name="Abreve" unicode="&#x102;" horiz-adv-x="605" 
d="M447 231h-277l-127 -231h-72l391 698h78l111 -698h-68zM202 290h238q-45 286 -50 343h-1q-67 -130 -187 -343zM287 876h52q2 -66 75 -66q72 0 104 66h53q-42 -119 -164 -119q-65 0 -93.5 35t-26.5 84z" />
    <glyph glyph-name="abreve" unicode="&#x103;" horiz-adv-x="515" 
d="M454 344l-46 -219q-20 -94 -24 -125h-63q3 35 16 85q-56 -95 -178 -95q-71 0 -104 37t-33 89q0 163 236 182q12 1 125 6l8 38q23 118 -101 118q-62 0 -92 -25.5t-45 -66.5h-64q14 63 64 104t143 41q88 0 131.5 -42.5t26.5 -126.5zM371 245l2 8q-60 0 -109 -5
q-37 -3 -64 -9.5t-54 -19.5t-41.5 -37t-14.5 -58q0 -33 22.5 -55.5t65.5 -22.5q147 0 193 199zM210 722h51q-1 -31 15 -51t51 -20q27 0 48 13t30 25.5t19 32.5h53q-44 -124 -156 -124q-63 0 -90.5 37t-20.5 87z" />
    <glyph glyph-name="Aogonek" unicode="&#x104;" horiz-adv-x="605" 
d="M447 231h-277l-127 -231h-72l391 698h78l111 -698h-2q-81 -66 -81 -116q0 -26 16 -39t41 -13q30 0 58 11l-10 -54q-25 -14 -70 -14q-47 0 -74 24t-27 67q0 68 81 136zM202 290h238q-45 286 -50 343h-1q-67 -130 -187 -343z" />
    <glyph glyph-name="aogonek" unicode="&#x105;" horiz-adv-x="515" 
d="M454 344l-46 -219q-20 -94 -24 -125h-1q-81 -66 -81 -116q0 -26 16 -39t41 -13q30 0 58 11l-10 -54q-25 -14 -70 -14q-47 0 -74 24t-27 67q0 71 86 140q3 28 15 79q-56 -95 -178 -95q-71 0 -104 37t-33 89q0 163 236 182q12 1 125 6l8 38q23 118 -101 118
q-62 0 -92 -25.5t-45 -66.5h-64q14 63 64 104t143 41q88 0 131.5 -42.5t26.5 -126.5zM371 245l2 8q-60 0 -109 -5q-37 -3 -64 -9.5t-54 -19.5t-41.5 -37t-14.5 -58q0 -33 22.5 -55.5t65.5 -22.5q147 0 193 199z" />
    <glyph glyph-name="Cacute" unicode="&#x106;" horiz-adv-x="647" 
d="M538 202h71q-39 -101 -110.5 -155.5t-188.5 -54.5q-126 0 -188 78.5t-62 200.5q0 82 22.5 159t64.5 139.5t110 100.5t152 38q109 0 173 -58.5t69 -159.5h-69q-7 75 -52.5 117.5t-127.5 42.5q-85 0 -148.5 -55.5t-93 -139t-29.5 -181.5t46.5 -161t142.5 -63q150 0 218 152
zM559 911h97l-202 -137h-78z" />
    <glyph glyph-name="cacute" unicode="&#x107;" horiz-adv-x="490" 
d="M367 145h64q-60 -155 -216 -155q-88 0 -133 54t-45 144q0 59 16.5 115.5t47 104t80.5 76.5t112 29q91 0 132 -52t36 -115h-63q-4 112 -111 112q-59 0 -102.5 -42t-62.5 -100.5t-19 -122.5q0 -148 122 -148q91 0 142 100zM446 749h90l-199 -154h-74z" />
    <glyph glyph-name="Ccircumflex" unicode="&#x108;" horiz-adv-x="647" 
d="M538 202h71q-39 -101 -110.5 -155.5t-188.5 -54.5q-126 0 -188 78.5t-62 200.5q0 82 22.5 159t64.5 139.5t110 100.5t152 38q109 0 173 -58.5t69 -159.5h-69q-7 75 -52.5 117.5t-127.5 42.5q-85 0 -148.5 -55.5t-93 -139t-29.5 -181.5t46.5 -161t142.5 -63q150 0 218 152
zM421 895h67l104 -127h-68l-74 86l-110 -86h-76z" />
    <glyph glyph-name="ccircumflex" unicode="&#x109;" horiz-adv-x="490" 
d="M367 145h64q-60 -155 -216 -155q-88 0 -133 54t-45 144q0 59 16.5 115.5t47 104t80.5 76.5t112 29q91 0 132 -52t36 -115h-63q-4 112 -111 112q-59 0 -102.5 -42t-62.5 -100.5t-19 -122.5q0 -148 122 -148q91 0 142 100zM318 745h63l72 -143h-64l-47 100l-96 -100h-68z
" />
    <glyph glyph-name="Cdotaccent" unicode="&#x10a;" horiz-adv-x="647" 
d="M538 202h71q-39 -101 -110.5 -155.5t-188.5 -54.5q-126 0 -188 78.5t-62 200.5q0 82 22.5 159t64.5 139.5t110 100.5t152 38q109 0 173 -58.5t69 -159.5h-69q-7 75 -52.5 117.5t-127.5 42.5q-85 0 -148.5 -55.5t-93 -139t-29.5 -181.5t46.5 -161t142.5 -63q150 0 218 152
zM453 792h-64l22 102h64z" />
    <glyph glyph-name="cdotaccent" unicode="&#x10b;" horiz-adv-x="490" 
d="M367 145h64q-60 -155 -216 -155q-88 0 -133 54t-45 144q0 59 16.5 115.5t47 104t80.5 76.5t112 29q91 0 132 -52t36 -115h-63q-4 112 -111 112q-59 0 -102.5 -42t-62.5 -100.5t-19 -122.5q0 -148 122 -148q91 0 142 100zM349 634h-64l21 102h64z" />
    <glyph glyph-name="Ccaron" unicode="&#x10c;" horiz-adv-x="647" 
d="M538 202h71q-39 -101 -110.5 -155.5t-188.5 -54.5q-126 0 -188 78.5t-62 200.5q0 82 22.5 159t64.5 139.5t110 100.5t152 38q109 0 173 -58.5t69 -159.5h-69q-7 75 -52.5 117.5t-127.5 42.5q-85 0 -148.5 -55.5t-93 -139t-29.5 -181.5t46.5 -161t142.5 -63q150 0 218 152
zM460 773h-69l-103 123h69l73 -84l108 84h79z" />
    <glyph glyph-name="ccaron" unicode="&#x10d;" horiz-adv-x="490" 
d="M367 145h64q-60 -155 -216 -155q-88 0 -133 54t-45 144q0 59 16.5 115.5t47 104t80.5 76.5t112 29q91 0 132 -52t36 -115h-63q-4 112 -111 112q-59 0 -102.5 -42t-62.5 -100.5t-19 -122.5q0 -148 122 -148q91 0 142 100zM346 592h-64l-74 143h62l50 -103l94 103h69z" />
    <glyph glyph-name="Dcaron" unicode="&#x10e;" horiz-adv-x="701" 
d="M35 0l147 698h194q133 0 210.5 -79t77.5 -215q0 -178 -105 -291t-283 -113h-241zM237 640l-123 -582h157q151 0 236 95t86 251q1 110 -58.5 173t-167.5 63h-130zM426 765h-69l-103 123h69l73 -84l108 84h79z" />
    <glyph glyph-name="dcaron" unicode="&#x10f;" horiz-adv-x="607" 
d="M509 736h63l-125 -594q-26 -123 -29 -142h-61q1 20 15 87q-59 -97 -174 -97q-79 0 -120 53.5t-41 140.5q0 77 27.5 150t89.5 126t145 53q61 0 98 -27t47 -60zM296 455q-60 0 -105.5 -42.5t-66.5 -101.5t-21 -121q0 -142 114 -142q80 0 128.5 61.5t67.5 157.5
q19 87 -10.5 137.5t-106.5 50.5zM654 736h61l-56 -240h-55z" />
    <glyph glyph-name="Dcroat" unicode="&#x110;" horiz-adv-x="711" 
d="M28 388h99l65 310h194q133 0 210.5 -79t77.5 -215q0 -178 -105 -291t-283 -113h-241l71 335h-100zM247 640l-53 -252h203l-11 -53h-203l-59 -277h157q151 0 236 95t86 251q1 110 -58.5 173t-167.5 63h-130z" />
    <glyph glyph-name="dcroat" unicode="&#x111;" horiz-adv-x="551" 
d="M243 642h244l20 94h63l-20 -94h64l-11 -49h-63l-95 -451q-19 -90 -28 -142h-62q2 26 16 87q-59 -97 -178 -97q-77 0 -117 52.5t-40 140.5q0 58 17.5 115t49.5 105.5t84 78.5t116 30q60 0 94 -27t44 -59l36 167h-244zM300 453q-92 0 -145 -81t-53 -186q0 -65 29 -101
t81 -36q80 0 128.5 60t69.5 158q18 87 -8 136.5t-102 49.5z" />
    <glyph glyph-name="Emacron" unicode="&#x112;" horiz-adv-x="558" 
d="M515 399l-12 -59h-330l-59 -281h378l-22 -59h-435l147 698h416l-12 -59h-349l-51 -240h329zM284 854h260l-12 -56h-260z" />
    <glyph glyph-name="emacron" unicode="&#x113;" horiz-adv-x="502" 
d="M456 246h-351q-5 -38 -5 -55q0 -71 33 -108t90 -37q95 0 144 91h66q-65 -147 -218 -147q-89 0 -134 53.5t-45 143.5q0 57 15.5 112.5t46 104.5t82 79t116.5 30q90 0 131 -50t41 -124q0 -50 -12 -93zM117 298h285q4 20 4 42q0 119 -115 119q-62 0 -107 -42t-67 -119z
M201 694h259l-13 -57h-259z" />
    <glyph glyph-name="Ebreve" unicode="&#x114;" horiz-adv-x="558" 
d="M515 399l-12 -59h-330l-59 -281h378l-22 -59h-435l147 698h416l-12 -59h-349l-51 -240h329zM271 885h52q2 -66 75 -66q72 0 104 66h53q-42 -119 -164 -119q-65 0 -93.5 35t-26.5 84z" />
    <glyph glyph-name="ebreve" unicode="&#x115;" horiz-adv-x="502" 
d="M456 246h-351q-5 -38 -5 -55q0 -71 33 -108t90 -37q95 0 144 91h66q-65 -147 -218 -147q-89 0 -134 53.5t-45 143.5q0 57 15.5 112.5t46 104.5t82 79t116.5 30q90 0 131 -50t41 -124q0 -50 -12 -93zM117 298h285q4 20 4 42q0 119 -115 119q-62 0 -107 -42t-67 -119z
M203 723h51q-1 -31 15 -51t51 -20q27 0 48 13t30 25.5t19 32.5h53q-44 -124 -156 -124q-63 0 -90.5 37t-20.5 87z" />
    <glyph glyph-name="Edotaccent" unicode="&#x116;" horiz-adv-x="558" 
d="M515 399l-12 -59h-330l-59 -281h378l-22 -59h-435l147 698h416l-12 -59h-349l-51 -240h329zM422 782h-64l22 102h64z" />
    <glyph glyph-name="edotaccent" unicode="&#x117;" horiz-adv-x="502" 
d="M456 246h-351q-5 -38 -5 -55q0 -71 33 -108t90 -37q95 0 144 91h66q-65 -147 -218 -147q-89 0 -134 53.5t-45 143.5q0 57 15.5 112.5t46 104.5t82 79t116.5 30q90 0 131 -50t41 -124q0 -50 -12 -93zM117 298h285q4 20 4 42q0 119 -115 119q-62 0 -107 -42t-67 -119z
M338 634h-64l21 102h64z" />
    <glyph glyph-name="Eogonek" unicode="&#x118;" horiz-adv-x="558" 
d="M515 399l-12 -59h-330l-59 -281h378l-22 -59h-42q-81 -66 -81 -116q0 -26 16 -39t41 -13q30 0 58 11l-10 -54q-25 -14 -70 -14q-47 0 -74 24t-27 67q0 66 78 134h-324l147 698h416l-12 -59h-349l-51 -240h329z" />
    <glyph glyph-name="eogonek" unicode="&#x119;" horiz-adv-x="502" 
d="M456 246h-351q-5 -38 -5 -55q0 -71 33 -108t90 -37q95 0 144 91h66q-49 -110 -145 -137q-80 -67 -80 -116q0 -26 16 -39t41 -13q30 0 58 11l-10 -54q-25 -14 -70 -14q-47 0 -74 24t-27 67q0 62 67 124q-86 2 -129.5 55.5t-43.5 141.5q0 57 15.5 112.5t46 104.5t82 79
t116.5 30q90 0 131 -50t41 -124q0 -50 -12 -93zM117 298h285q4 20 4 42q0 119 -115 119q-62 0 -107 -42t-67 -119z" />
    <glyph glyph-name="Ecaron" unicode="&#x11a;" horiz-adv-x="558" 
d="M515 399l-12 -59h-330l-59 -281h378l-22 -59h-435l147 698h416l-12 -59h-349l-51 -240h329zM425 767h-69l-103 123h69l73 -84l108 84h79z" />
    <glyph glyph-name="ecaron" unicode="&#x11b;" horiz-adv-x="502" 
d="M456 246h-351q-5 -38 -5 -55q0 -71 33 -108t90 -37q95 0 144 91h66q-65 -147 -218 -147q-89 0 -134 53.5t-45 143.5q0 57 15.5 112.5t46 104.5t82 79t116.5 30q90 0 131 -50t41 -124q0 -50 -12 -93zM117 298h285q4 20 4 42q0 119 -115 119q-62 0 -107 -42t-67 -119z
M343 593h-64l-74 143h62l50 -103l94 103h69z" />
    <glyph glyph-name="Gcircumflex" unicode="&#x11c;" horiz-adv-x="695" 
d="M647 372l-77 -372h-55q3 40 20 118q-38 -61 -91 -93.5t-142 -32.5q-117 0 -179 76t-62 200q0 66 14.5 129t45 119.5t73 99t103.5 67.5t133 25q109 0 175.5 -57.5t70.5 -151.5h-65q-9 68 -56.5 109.5t-135.5 41.5t-155 -54.5t-100 -138.5t-33 -181q0 -101 46 -163.5
t140 -62.5q58 0 103 20.5t74 58.5t46.5 81t29.5 98l1 4h-221l13 60h284zM435 888h67l104 -127h-68l-74 86l-110 -86h-76z" />
    <glyph glyph-name="gcircumflex" unicode="&#x11d;" horiz-adv-x="546" 
d="M490 367l-69 -326q-28 -130 -81 -190.5t-169 -60.5q-56 0 -94.5 14.5t-56 39t-23.5 47.5t-6 49h63q0 -42 31 -69t94 -27q81 0 118.5 49.5t62.5 154.5l13 56q-57 -103 -172 -103q-75 0 -118.5 50t-43.5 143q0 78 28 149t87.5 120.5t138.5 49.5q63 0 100.5 -27.5
t45.5 -62.5q12 52 22 80h60q-7 -28 -31 -136zM292 456q-57 0 -100.5 -38t-64.5 -96t-21 -124q0 -139 114 -139q72 0 120 58.5t68 148.5q19 85 -9.5 137.5t-106.5 52.5zM336 746h63l72 -143h-64l-47 100l-96 -100h-68z" />
    <glyph glyph-name="Gbreve" unicode="&#x11e;" horiz-adv-x="695" 
d="M647 372l-77 -372h-55q3 40 20 118q-38 -61 -91 -93.5t-142 -32.5q-117 0 -179 76t-62 200q0 66 14.5 129t45 119.5t73 99t103.5 67.5t133 25q109 0 175.5 -57.5t70.5 -151.5h-65q-9 68 -56.5 109.5t-135.5 41.5t-155 -54.5t-100 -138.5t-33 -181q0 -101 46 -163.5
t140 -62.5q58 0 103 20.5t74 58.5t46.5 81t29.5 98l1 4h-221l13 60h284zM321 889h52q2 -66 75 -66q72 0 104 66h53q-42 -119 -164 -119q-65 0 -93.5 35t-26.5 84z" />
    <glyph glyph-name="gbreve" unicode="&#x11f;" horiz-adv-x="546" 
d="M490 367l-69 -326q-28 -130 -81 -190.5t-169 -60.5q-56 0 -94.5 14.5t-56 39t-23.5 47.5t-6 49h63q0 -42 31 -69t94 -27q81 0 118.5 49.5t62.5 154.5l13 56q-57 -103 -172 -103q-75 0 -118.5 50t-43.5 143q0 78 28 149t87.5 120.5t138.5 49.5q63 0 100.5 -27.5
t45.5 -62.5q12 52 22 80h60q-7 -28 -31 -136zM292 456q-57 0 -100.5 -38t-64.5 -96t-21 -124q0 -139 114 -139q72 0 120 58.5t68 148.5q19 85 -9.5 137.5t-106.5 52.5zM225 722h51q-1 -31 15 -51t51 -20q27 0 48 13t30 25.5t19 32.5h53q-44 -124 -156 -124q-63 0 -90.5 37
t-20.5 87z" />
    <glyph glyph-name="Gdotaccent" unicode="&#x120;" horiz-adv-x="695" 
d="M647 372l-77 -372h-55q3 40 20 118q-38 -61 -91 -93.5t-142 -32.5q-117 0 -179 76t-62 200q0 66 14.5 129t45 119.5t73 99t103.5 67.5t133 25q109 0 175.5 -57.5t70.5 -151.5h-65q-9 68 -56.5 109.5t-135.5 41.5t-155 -54.5t-100 -138.5t-33 -181q0 -101 46 -163.5
t140 -62.5q58 0 103 20.5t74 58.5t46.5 81t29.5 98l1 4h-221l13 60h284zM480 782h-64l22 102h64z" />
    <glyph glyph-name="gdotaccent" unicode="&#x121;" horiz-adv-x="546" 
d="M490 367l-69 -326q-28 -130 -81 -190.5t-169 -60.5q-56 0 -94.5 14.5t-56 39t-23.5 47.5t-6 49h63q0 -42 31 -69t94 -27q81 0 118.5 49.5t62.5 154.5l13 56q-57 -103 -172 -103q-75 0 -118.5 50t-43.5 143q0 78 28 149t87.5 120.5t138.5 49.5q63 0 100.5 -27.5
t45.5 -62.5q12 52 22 80h60q-7 -28 -31 -136zM292 456q-57 0 -100.5 -38t-64.5 -96t-21 -124q0 -139 114 -139q72 0 120 58.5t68 148.5q19 85 -9.5 137.5t-106.5 52.5zM360 634h-64l21 102h64z" />
    <glyph glyph-name="uni0122" unicode="&#x122;" horiz-adv-x="695" 
d="M647 372l-77 -372h-55q3 40 20 118q-38 -61 -91 -93.5t-142 -32.5q-117 0 -179 76t-62 200q0 66 14.5 129t45 119.5t73 99t103.5 67.5t133 25q109 0 175.5 -57.5t70.5 -151.5h-65q-9 68 -56.5 109.5t-135.5 41.5t-155 -54.5t-100 -138.5t-33 -181q0 -101 46 -163.5
t140 -62.5q58 0 103 20.5t74 58.5t46.5 81t29.5 98l1 4h-221l13 60h284zM233 -261h-63q82 97 101 192h71q-16 -60 -48 -114t-61 -78z" />
    <glyph glyph-name="uni0123" unicode="&#x123;" horiz-adv-x="546" 
d="M411 781h62q-92 -96 -126 -198h-67q16 52 55.5 110.5t75.5 87.5zM490 367l-69 -326q-28 -130 -81 -190.5t-169 -60.5q-56 0 -94.5 14.5t-56 39t-23.5 47.5t-6 49h63q0 -42 31 -69t94 -27q81 0 118.5 49.5t62.5 154.5l13 56q-57 -103 -172 -103q-75 0 -118.5 50t-43.5 143
q0 78 28 149t87.5 120.5t138.5 49.5q63 0 100.5 -27.5t45.5 -62.5q12 52 22 80h60q-7 -28 -31 -136zM292 456q-57 0 -100.5 -38t-64.5 -96t-21 -124q0 -139 114 -139q72 0 120 58.5t68 148.5q19 85 -9.5 137.5t-106.5 52.5z" />
    <glyph glyph-name="Hcircumflex" unicode="&#x124;" horiz-adv-x="694" 
d="M35 0l147 698h68l-63 -294h380l63 294h67l-148 -698h-67l73 345h-381l-72 -345h-67zM435 888h67l104 -127h-68l-74 86l-110 -86h-76z" />
    <glyph glyph-name="hcircumflex" unicode="&#x125;" horiz-adv-x="541" 
d="M204 883h65l86 -105h-63l-60 68l-88 -68h-71zM24 0l156 736h63l-68 -320q63 97 174 97q29 0 53.5 -7.5t48 -28.5t29 -58t-3.5 -95l-68 -324h-63l65 313q31 142 -82 142q-67 0 -116 -50t-66 -130l-59 -275h-63z" />
    <glyph glyph-name="Hbar" unicode="&#x126;" horiz-adv-x="694" 
d="M184 396h383l24 112h-383zM35 0l107 508h-64l12 54h63l29 136h66l-29 -136h383l29 136h66l-29 -136h59l-12 -54h-58l-108 -508h-65l71 337h-384l-71 -337h-65z" />
    <glyph glyph-name="hbar" unicode="&#x127;" horiz-adv-x="541" 
d="M24 0l126 593h-72l10 49h72l20 94h63l-20 -94h227l-10 -49h-227l-38 -179q63 98 175 98q29 0 53 -7.5t47.5 -28.5t29 -57.5t-3.5 -95.5l-68 -323h-63l65 311q15 72 -4 107t-78 35q-66 0 -115.5 -50t-66.5 -130l-59 -273h-63z" />
    <glyph glyph-name="Itilde" unicode="&#x128;" horiz-adv-x="247" 
d="M183 698h67l-147 -698h-68zM124 766h-51l4 22q7 48 27.5 66t55.5 18q31 0 80.5 -27t66.5 -27q28 0 37 45l2 9h50l-5 -26q-9 -46 -29.5 -64.5t-55.5 -18.5q-29 0 -76 27.5t-68 27.5q-27 0 -35 -33z" />
    <glyph glyph-name="itilde" unicode="&#x129;" horiz-adv-x="220" 
d="M24 0l107 503h63l-107 -503h-63zM87 615h-49l4 20q9 48 29 66t57 18q28 0 72 -25t57 -25q27 0 34 42l2 11h49l-4 -19q-9 -49 -28.5 -68.5t-54.5 -19.5q-25 0 -69 26t-62 26q-24 0 -33 -35z" />
    <glyph glyph-name="Imacron" unicode="&#x12a;" horiz-adv-x="247" 
d="M183 698h67l-147 -698h-68zM110 843h260l-12 -56h-260z" />
    <glyph glyph-name="imacron" unicode="&#x12b;" horiz-adv-x="220" 
d="M24 0l107 503h63l-107 -503h-63zM60 694h259l-13 -57h-259z" />
    <glyph glyph-name="Iogonek" unicode="&#x12e;" horiz-adv-x="247" 
d="M183 698h67l-147 -698h-2q-81 -66 -81 -116q0 -26 16 -39t41 -13q30 0 58 11l-10 -54q-25 -14 -70 -14q-47 0 -74 24t-27 67q0 68 82 137z" />
    <glyph glyph-name="iogonek" unicode="&#x12f;" horiz-adv-x="220" 
d="M110 -211q-25 -14 -70 -14q-47 0 -74 24t-27 67q0 70 86 141l106 496h63l-107 -503h-1q-81 -66 -81 -116q0 -26 16 -39t41 -13q30 0 58 11zM159 633l21 103h63l-21 -103h-63z" />
    <glyph glyph-name="Idotaccent" unicode="&#x130;" horiz-adv-x="247" 
d="M183 698h67l-147 -698h-68zM260 776h-64l22 102h64z" />
    <glyph glyph-name="dotlessi" unicode="&#x131;" horiz-adv-x="220" 
d="M24 0l107 503h63l-107 -503h-63z" />
    <glyph glyph-name="Jcircumflex" unicode="&#x134;" horiz-adv-x="327" 
d="M158 176l110 522h68l-112 -526q-21 -96 -63 -139t-122 -43q-46 0 -75 9l14 57q27 -7 65 -7q54 0 78 33.5t37 93.5zM300 888h67l104 -127h-68l-74 86l-110 -86h-76z" />
    <glyph glyph-name="jcircumflex" unicode="&#x135;" horiz-adv-x="220" 
d="M131 503h63l-114 -535q-20 -93 -52.5 -135.5t-105.5 -42.5q-17 0 -43 4l14 57q18 -2 27 -2q46 0 64.5 26t33.5 100zM177 757h63l72 -143h-64l-47 100l-96 -100h-68z" />
    <glyph glyph-name="uni0136" unicode="&#x136;" horiz-adv-x="588" 
d="M35 0l147 698h67l-75 -353q3 2 171 142t251 211h89l-358 -298l227 -400h-76l-203 360l-117 -88l-56 -272h-67zM191 -253h-63q82 97 101 192h71q-16 -60 -48 -114t-61 -78z" />
    <glyph glyph-name="uni0137" unicode="&#x137;" horiz-adv-x="461" 
d="M243 736l-102 -474q23 20 132 112.5t150 128.5h83q-88 -75 -230 -195l140 -308h-72l-118 269l-98 -77l-41 -192h-63l156 736h63zM126 -244h-63q82 97 101 192h71q-16 -60 -48 -114t-61 -78z" />
    <glyph glyph-name="kgreenlandic" unicode="&#x138;" horiz-adv-x="461" 
d="M194 503l-54 -246q4 4 283 246h83q-24 -20 -107.5 -91.5t-126.5 -108.5l144 -303h-71l-123 265l-95 -76l-40 -189h-63l106 503h64z" />
    <glyph glyph-name="Lacute" unicode="&#x139;" horiz-adv-x="518" 
d="M35 0l147 698h68l-136 -639h355l-21 -59h-413zM368 898h97l-202 -137h-78z" />
    <glyph glyph-name="lacute" unicode="&#x13a;" horiz-adv-x="220" 
d="M328 893h90l-164 -105h-73zM87 0h-63l156 736h63z" />
    <glyph glyph-name="uni013B" unicode="&#x13b;" horiz-adv-x="518" 
d="M35 0l147 698h68l-136 -639h355l-21 -59h-413zM174 -261h-63q82 97 101 192h71q-16 -60 -48 -114t-61 -78z" />
    <glyph glyph-name="uni013C" unicode="&#x13c;" horiz-adv-x="220" 
d="M87 0h-63l156 736h63zM-29 -254h-63q82 97 101 192h71q-16 -60 -48 -114t-61 -78z" />
    <glyph glyph-name="Lcaron" unicode="&#x13d;" horiz-adv-x="518" 
d="M35 0l147 698h68l-136 -639h355l-21 -59h-413zM401 699h61l-56 -240h-55z" />
    <glyph glyph-name="lcaron" unicode="&#x13e;" horiz-adv-x="285" 
d="M87 0h-63l156 736h63zM330 738h61l-56 -240h-55z" />
    <glyph glyph-name="Ldot" unicode="&#x13f;" horiz-adv-x="518" 
d="M399 300h-64l29 136h65zM35 0l147 698h68l-136 -639h355l-21 -59h-413z" />
    <glyph glyph-name="ldot" unicode="&#x140;" horiz-adv-x="249" 
d="M286 369h-61l29 134h61zM87 0h-63l156 736h63z" />
    <glyph glyph-name="Lslash" unicode="&#x141;" horiz-adv-x="528" 
d="M372 415l-186 -66l-62 -290h355l-21 -59h-413l68 324l-101 -36l12 58l102 36l66 316h68l-62 -290l186 67z" />
    <glyph glyph-name="lslash" unicode="&#x142;" horiz-adv-x="229" 
d="M97 0h-63l82 388l-78 -34l13 58l78 34l61 290h63l-55 -259l85 38l-12 -59l-85 -37z" />
    <glyph glyph-name="Nacute" unicode="&#x143;" horiz-adv-x="707" 
d="M100 0h-66l148 698h88q234 -585 245 -621h1q6 42 65 323l63 298h66l-148 -698h-83q-221 550 -248 633h-2q-10 -68 -65 -328zM564 888h97l-202 -137h-78z" />
    <glyph glyph-name="nacute" unicode="&#x144;" horiz-adv-x="541" 
d="M24 0l80 375q1 3 25 128h62q-7 -55 -18 -94q63 104 176 104q76 0 111.5 -47t13.5 -147l-66 -319h-63l66 315q29 140 -86 140q-73 0 -119.5 -59t-65.5 -148l-53 -248h-63zM462 749h90l-199 -154h-74z" />
    <glyph glyph-name="uni0145" unicode="&#x145;" horiz-adv-x="707" 
d="M100 0h-66l148 698h88q234 -585 245 -621h1q6 42 65 323l63 298h66l-148 -698h-83q-221 550 -248 633h-2q-10 -68 -65 -328zM222 -253h-63q82 97 101 192h71q-16 -60 -48 -114t-61 -78z" />
    <glyph glyph-name="uni0146" unicode="&#x146;" horiz-adv-x="541" 
d="M24 0l80 375q1 3 25 128h62q-7 -55 -18 -94q63 104 176 104q76 0 111.5 -47t13.5 -147l-66 -319h-63l66 315q29 140 -86 140q-73 0 -119.5 -59t-65.5 -148l-53 -248h-63zM138 -244h-63q82 97 101 192h71q-16 -60 -48 -114t-61 -78z" />
    <glyph glyph-name="Ncaron" unicode="&#x147;" horiz-adv-x="707" 
d="M100 0h-66l148 698h88q234 -585 245 -621h1q6 42 65 323l63 298h66l-148 -698h-83q-221 550 -248 633h-2q-10 -68 -65 -328zM481 742h-69l-103 123h69l73 -84l108 84h79z" />
    <glyph glyph-name="ncaron" unicode="&#x148;" horiz-adv-x="541" 
d="M24 0l80 375q1 3 25 128h62q-7 -55 -18 -94q63 104 176 104q76 0 111.5 -47t13.5 -147l-66 -319h-63l66 315q29 140 -86 140q-73 0 -119.5 -59t-65.5 -148l-53 -248h-63zM363 592h-64l-74 143h62l50 -103l94 103h69z" />
    <glyph glyph-name="napostrophe" unicode="&#x149;" horiz-adv-x="541" 
d="M115 583h-56q73 111 94 198h64q-15 -56 -45.5 -112.5t-56.5 -85.5zM24 0l80 375q1 3 25 128h62q-7 -55 -18 -94q63 104 176 104q76 0 111.5 -47t13.5 -147l-66 -319h-63l66 315q29 140 -86 140q-73 0 -119.5 -59t-65.5 -148l-53 -248h-63z" />
    <glyph glyph-name="Omacron" unicode="&#x14c;" horiz-adv-x="721" 
d="M424 708q125 0 193 -76t68 -212q0 -61 -13.5 -121t-42.5 -116t-70.5 -99t-103 -68.5t-134.5 -25.5q-123 0 -191.5 77t-68.5 204q0 79 23.5 155t67 140t114.5 103t158 39zM419 650q-57 0 -105.5 -23t-81.5 -61t-56 -87.5t-34 -101.5t-11 -104q0 -99 50 -162t149 -63
q91 0 157.5 57t97 140t30.5 177q0 105 -50.5 166.5t-145.5 61.5zM322 857h260l-12 -56h-260z" />
    <glyph glyph-name="omacron" unicode="&#x14d;" horiz-adv-x="524" 
d="M300 513q85 0 134.5 -54.5t49.5 -150.5q0 -54 -15.5 -108t-46 -102t-83 -78t-118.5 -30q-86 0 -134.5 53t-48.5 148q0 75 27.5 146.5t89.5 123.5t145 52zM293 457q-59 0 -104 -42.5t-65.5 -101.5t-20.5 -121q0 -68 32.5 -107t92.5 -39q62 0 107 43t64 100.5t19 118.5
q0 71 -31.5 110t-93.5 39zM203 694h259l-13 -57h-259z" />
    <glyph glyph-name="Ohungarumlaut" unicode="&#x150;" horiz-adv-x="721" 
d="M424 708q125 0 193 -76t68 -212q0 -61 -13.5 -121t-42.5 -116t-70.5 -99t-103 -68.5t-134.5 -25.5q-123 0 -191.5 77t-68.5 204q0 79 23.5 155t67 140t114.5 103t158 39zM419 650q-57 0 -105.5 -23t-81.5 -61t-56 -87.5t-34 -101.5t-11 -104q0 -99 50 -162t149 -63
q91 0 157.5 57t97 140t30.5 177q0 105 -50.5 166.5t-145.5 61.5zM452 906h82l-167 -137h-67zM628 906h79l-166 -137h-68z" />
    <glyph glyph-name="ohungarumlaut" unicode="&#x151;" horiz-adv-x="524" 
d="M300 513q85 0 134.5 -54.5t49.5 -150.5q0 -54 -15.5 -108t-46 -102t-83 -78t-118.5 -30q-86 0 -134.5 53t-48.5 148q0 75 27.5 146.5t89.5 123.5t145 52zM293 457q-59 0 -104 -42.5t-65.5 -101.5t-20.5 -121q0 -68 32.5 -107t92.5 -39q62 0 107 43t64 100.5t19 118.5
q0 71 -31.5 110t-93.5 39zM409 736l-155 -156h-66l147 156h74zM578 736l-157 -156h-65l147 156h75z" />
    <glyph glyph-name="OE" unicode="&#x152;" horiz-adv-x="981" 
d="M472 60l122 578q-36 6 -108 6q-160 0 -256 -94.5t-96 -251.5q0 -111 65.5 -177t176.5 -66q69 0 96 5zM1023 698l-12 -59h-349l-52 -240h333l-13 -59h-333l-58 -281h375l-22 -59h-418q-12 0 -47 -2t-61 -2q-143 0 -222 85.5t-79 214.5q0 178 115.5 292.5t317.5 114.5
q29 0 59 -1.5t49 -2.5t23 -1h394z" />
    <glyph glyph-name="oe" unicode="&#x153;" horiz-adv-x="875" 
d="M587 -10q-66 0 -106.5 31t-55.5 86q-73 -117 -205 -117q-86 0 -134.5 53.5t-48.5 148.5q0 54 16.5 109t48 103t83.5 78.5t115 30.5t106.5 -31.5t60.5 -89.5q71 121 203 121q90 0 130.5 -50t40.5 -124q0 -46 -13 -93h-350q-5 -38 -5 -55q0 -71 33 -108t90 -37q94 0 143 91
h66q-65 -147 -218 -147zM490 298h285q4 20 4 41q0 59 -30 89.5t-88 30.5q-60 0 -105 -42t-66 -119zM294 457q-87 0 -139.5 -84.5t-52.5 -180.5q0 -68 32.5 -107.5t92.5 -39.5q47 0 85 25.5t60 65.5t34 84.5t12 86.5q0 70 -32 110t-92 40z" />
    <glyph glyph-name="Racute" unicode="&#x154;" horiz-adv-x="608" 
d="M323 323h-154l-67 -323h-67l147 698h224q94 0 143 -44.5t49 -119.5q0 -78 -42 -124.5t-115 -62.5q106 -38 76 -178q-30 -138 -28 -169h-63q-5 45 25 165q17 82 -12.5 120t-115.5 38zM237 640l-55 -259h146q200 0 200 145q0 114 -133 114h-158zM513 898h97l-202 -137h-78z
" />
    <glyph glyph-name="racute" unicode="&#x155;" horiz-adv-x="327" 
d="M350 513l-15 -67q-72 -7 -125.5 -62.5t-71.5 -141.5l-51 -242h-63l76 354q24 118 29 149h60q-2 -31 -19 -112q28 56 76.5 89t103.5 33zM380 749h90l-199 -154h-74z" />
    <glyph glyph-name="uni0156" unicode="&#x156;" horiz-adv-x="608" 
d="M323 323h-154l-67 -323h-67l147 698h224q94 0 143 -44.5t49 -119.5q0 -78 -42 -124.5t-115 -62.5q106 -38 76 -178q-30 -138 -28 -169h-63q-5 45 25 165q17 82 -12.5 120t-115.5 38zM237 640l-55 -259h146q200 0 200 145q0 114 -133 114h-158zM191 -243h-63
q82 97 101 192h71q-16 -60 -48 -114t-61 -78z" />
    <glyph glyph-name="uni0157" unicode="&#x157;" horiz-adv-x="327" 
d="M350 513l-15 -67q-72 -7 -125.5 -62.5t-71.5 -141.5l-51 -242h-63l76 354q24 118 29 149h60q-2 -31 -19 -112q28 56 76.5 89t103.5 33zM-23 -254h-63q82 97 101 192h71q-16 -60 -48 -114t-61 -78z" />
    <glyph glyph-name="Rcaron" unicode="&#x158;" horiz-adv-x="608" 
d="M323 323h-154l-67 -323h-67l147 698h224q94 0 143 -44.5t49 -119.5q0 -78 -42 -124.5t-115 -62.5q106 -38 76 -178q-30 -138 -28 -169h-63q-5 45 25 165q17 82 -12.5 120t-115.5 38zM237 640l-55 -259h146q200 0 200 145q0 114 -133 114h-158zM419 761h-69l-103 123h69
l73 -84l108 84h79z" />
    <glyph glyph-name="rcaron" unicode="&#x159;" horiz-adv-x="327" 
d="M350 513l-15 -67q-72 -7 -125.5 -62.5t-71.5 -141.5l-51 -242h-63l76 354q24 118 29 149h60q-2 -31 -19 -112q28 56 76.5 89t103.5 33zM271 592h-64l-74 143h62l50 -103l94 103h69z" />
    <glyph glyph-name="Sacute" unicode="&#x15a;" horiz-adv-x="561" 
d="M26 199h67q15 -152 175 -152q76 0 121 36.5t45 103.5q0 53 -31.5 88t-118.5 70q-93 36 -130.5 75t-37.5 99q0 79 56 134t162 55q107 0 159.5 -54t52.5 -135h-66q-8 65 -43.5 98t-109.5 33q-69 0 -106 -36t-37 -87q0 -41 26.5 -68.5t106.5 -58.5q104 -40 145.5 -87.5
t41.5 -115.5q0 -89 -60.5 -148t-183.5 -59q-113 0 -172.5 57.5t-61.5 151.5zM485 911h97l-202 -137h-78z" />
    <glyph glyph-name="sacute" unicode="&#x15b;" horiz-adv-x="439" 
d="M5 149h64q5 -46 36 -75.5t93 -29.5q54 0 84 25t30 66q0 37 -25.5 60t-84.5 45q-76 29 -106 59t-30 74q0 59 44.5 99.5t127.5 40.5q88 0 129.5 -42t39.5 -101h-64q-5 39 -28.5 64.5t-84.5 25.5q-45 0 -72.5 -22t-27.5 -59q0 -28 23.5 -46t81.5 -40q77 -29 111 -63t34 -86
q0 -71 -51.5 -112.5t-141.5 -41.5t-135.5 43.5t-46.5 115.5zM402 749h90l-199 -154h-74z" />
    <glyph glyph-name="Scircumflex" unicode="&#x15c;" horiz-adv-x="561" 
d="M26 199h67q15 -152 175 -152q76 0 121 36.5t45 103.5q0 53 -31.5 88t-118.5 70q-93 36 -130.5 75t-37.5 99q0 79 56 134t162 55q107 0 159.5 -54t52.5 -135h-66q-8 65 -43.5 98t-109.5 33q-69 0 -106 -36t-37 -87q0 -41 26.5 -68.5t106.5 -58.5q104 -40 145.5 -87.5
t41.5 -115.5q0 -89 -60.5 -148t-183.5 -59q-113 0 -172.5 57.5t-61.5 151.5zM356 896h67l104 -127h-68l-74 86l-110 -86h-76z" />
    <glyph glyph-name="scircumflex" unicode="&#x15d;" horiz-adv-x="439" 
d="M5 149h64q5 -46 36 -75.5t93 -29.5q54 0 84 25t30 66q0 37 -25.5 60t-84.5 45q-76 29 -106 59t-30 74q0 59 44.5 99.5t127.5 40.5q88 0 129.5 -42t39.5 -101h-64q-5 39 -28.5 64.5t-84.5 25.5q-45 0 -72.5 -22t-27.5 -59q0 -28 23.5 -46t81.5 -40q77 -29 111 -63t34 -86
q0 -71 -51.5 -112.5t-141.5 -41.5t-135.5 43.5t-46.5 115.5zM274 745h63l72 -143h-64l-47 100l-96 -100h-68z" />
    <glyph glyph-name="uni015E" unicode="&#x15e;" horiz-adv-x="561" 
d="M26 199h67q15 -152 175 -152q76 0 121 36.5t45 103.5q0 53 -31.5 88t-118.5 70q-93 36 -130.5 75t-37.5 99q0 79 56 134t162 55q107 0 159.5 -54t52.5 -135h-66q-8 65 -43.5 98t-109.5 33q-69 0 -106 -36t-37 -87q0 -41 26.5 -68.5t106.5 -58.5q104 -40 145.5 -87.5
t41.5 -115.5q0 -86 -57 -144.5t-172 -62.5l-39 -46q35 -6 63.5 -27t28.5 -60q0 -46 -34.5 -72t-91.5 -26q-46 0 -86 15l15 49q30 -13 70 -13q64 0 64 43q0 48 -106 50l6 24l52 65q-92 11 -140.5 66.5t-50.5 140.5z" />
    <glyph glyph-name="uni015F" unicode="&#x15f;" horiz-adv-x="439" 
d="M5 149h64q5 -46 36 -75.5t93 -29.5q54 0 84 25t30 66q0 37 -25.5 60t-84.5 45q-76 29 -106 59t-30 74q0 59 44.5 99.5t127.5 40.5q88 0 129.5 -42t39.5 -101h-64q-5 39 -28.5 64.5t-84.5 25.5q-45 0 -72.5 -22t-27.5 -59q0 -28 23.5 -46t81.5 -40q77 -29 111 -63t34 -86
q0 -67 -46.5 -108.5t-128.5 -45.5l-39 -46q35 -6 63.5 -27t28.5 -60q0 -46 -34.5 -72t-91.5 -26q-46 0 -86 15l15 49q30 -13 70 -13q64 0 64 43q0 48 -106 50l6 24l52 66q-71 9 -106 51t-36 105z" />
    <glyph glyph-name="Scaron" unicode="&#x160;" horiz-adv-x="561" 
d="M26 199h67q15 -152 175 -152q76 0 121 36.5t45 103.5q0 53 -31.5 88t-118.5 70q-93 36 -130.5 75t-37.5 99q0 79 56 134t162 55q107 0 159.5 -54t52.5 -135h-66q-8 65 -43.5 98t-109.5 33q-69 0 -106 -36t-37 -87q0 -41 26.5 -68.5t106.5 -58.5q104 -40 145.5 -87.5
t41.5 -115.5q0 -89 -60.5 -148t-183.5 -59q-113 0 -172.5 57.5t-61.5 151.5zM394 768h-69l-103 123h69l73 -84l108 84h79z" />
    <glyph glyph-name="scaron" unicode="&#x161;" horiz-adv-x="439" 
d="M5 149h64q5 -46 36 -75.5t93 -29.5q54 0 84 25t30 66q0 37 -25.5 60t-84.5 45q-76 29 -106 59t-30 74q0 59 44.5 99.5t127.5 40.5q88 0 129.5 -42t39.5 -101h-64q-5 39 -28.5 64.5t-84.5 25.5q-45 0 -72.5 -22t-27.5 -59q0 -28 23.5 -46t81.5 -40q77 -29 111 -63t34 -86
q0 -71 -51.5 -112.5t-141.5 -41.5t-135.5 43.5t-46.5 115.5zM293 592h-64l-74 143h62l50 -103l94 103h69z" />
    <glyph glyph-name="uni0162" unicode="&#x162;" horiz-adv-x="524" 
d="M168 0l134 639h-221l13 59h511l-13 -59h-223l-134 -639h-4l-47 -56q35 -6 63.5 -27t28.5 -60q0 -46 -34.5 -72t-91.5 -26q-46 0 -86 15l15 49q30 -13 70 -13q64 0 64 43q0 48 -106 50l6 24l58 73h-3z" />
    <glyph glyph-name="uni0163" unicode="&#x163;" horiz-adv-x="295" 
d="M50 448l12 55h87l32 149h63l-32 -149h112l-13 -55h-111l-68 -324q-10 -38 -3 -56t39 -18t52 5l-13 -53q-17 -7 -52 -9l-41 -49q35 -6 63.5 -27t28.5 -60q0 -46 -34.5 -72t-91.5 -26q-46 0 -86 15l15 49q30 -13 70 -13q64 0 64 43q0 48 -106 50l6 24l57 72q-55 18 -36 106
l72 343h-86z" />
    <glyph glyph-name="Tcaron" unicode="&#x164;" horiz-adv-x="524" 
d="M168 0l134 639h-221l13 59h511l-13 -59h-223l-134 -639h-67zM386 754h-69l-103 123h69l73 -84l108 84h79z" />
    <glyph glyph-name="tcaron" unicode="&#x165;" horiz-adv-x="295" 
d="M365 815h62l-61 -206h-54zM50 448l12 55h87l32 149h63l-32 -149h112l-13 -55h-111l-68 -324q-10 -38 -3 -56t39 -18t52 5l-13 -53q-24 -9 -62 -9q-54 0 -73.5 26t-7.5 86l72 343h-86z" />
    <glyph glyph-name="Utilde" unicode="&#x168;" horiz-adv-x="664" 
d="M172 698h68l-91 -427q-25 -117 19 -169t133 -52q100 0 146.5 48.5t72.5 175.5l91 424h68l-92 -431q-33 -154 -95.5 -214.5t-196.5 -60.5q-124 0 -184 69.5t-29 212.5zM331 774h-51l4 22q7 48 27.5 66t55.5 18q31 0 80.5 -27t66.5 -27q28 0 37 45l2 9h50l-5 -26
q-9 -46 -29.5 -64.5t-55.5 -18.5q-29 0 -76 27.5t-68 27.5q-27 0 -35 -33z" />
    <glyph glyph-name="utilde" unicode="&#x169;" horiz-adv-x="531" 
d="M505 503l-79 -368q-11 -50 -26 -135h-62q1 22 16 93q-26 -46 -70 -74.5t-103 -28.5q-74 0 -109 45t-14 143l71 325h62l-68 -320q-6 -36 -7 -66.5t20 -50.5t64 -20q67 0 117 53t73 163l51 241h64zM242 615h-49l4 20q9 48 29 66t57 18q28 0 72 -25t57 -25q27 0 34 42l2 11
h49l-4 -19q-9 -49 -28.5 -68.5t-54.5 -19.5q-25 0 -69 26t-62 26q-24 0 -33 -35z" />
    <glyph glyph-name="Umacron" unicode="&#x16a;" horiz-adv-x="664" 
d="M172 698h68l-91 -427q-25 -117 19 -169t133 -52q100 0 146.5 48.5t72.5 175.5l91 424h68l-92 -431q-33 -154 -95.5 -214.5t-196.5 -60.5q-124 0 -184 69.5t-29 212.5zM311 844h260l-12 -56h-260z" />
    <glyph glyph-name="umacron" unicode="&#x16b;" horiz-adv-x="531" 
d="M505 503l-79 -368q-11 -50 -26 -135h-62q1 22 16 93q-26 -46 -70 -74.5t-103 -28.5q-74 0 -109 45t-14 143l71 325h62l-68 -320q-6 -36 -7 -66.5t20 -50.5t64 -20q67 0 117 53t73 163l51 241h64zM216 694h259l-13 -57h-259z" />
    <glyph glyph-name="Ubreve" unicode="&#x16c;" horiz-adv-x="664" 
d="M172 698h68l-91 -427q-25 -117 19 -169t133 -52q100 0 146.5 48.5t72.5 175.5l91 424h68l-92 -431q-33 -154 -95.5 -214.5t-196.5 -60.5q-124 0 -184 69.5t-29 212.5zM304 874h52q2 -66 75 -66q72 0 104 66h53q-42 -119 -164 -119q-65 0 -93.5 35t-26.5 84z" />
    <glyph glyph-name="ubreve" unicode="&#x16d;" horiz-adv-x="531" 
d="M505 503l-79 -368q-11 -50 -26 -135h-62q1 22 16 93q-26 -46 -70 -74.5t-103 -28.5q-74 0 -109 45t-14 143l71 325h62l-68 -320q-6 -36 -7 -66.5t20 -50.5t64 -20q67 0 117 53t73 163l51 241h64zM217 722h51q-1 -31 15 -51t51 -20q27 0 48 13t30 25.5t19 32.5h53
q-44 -124 -156 -124q-63 0 -90.5 37t-20.5 87z" />
    <glyph glyph-name="Uring" unicode="&#x16e;" horiz-adv-x="664" 
d="M172 698h68l-91 -427q-25 -117 19 -169t133 -52q100 0 146.5 48.5t72.5 175.5l91 424h68l-92 -431q-33 -154 -95.5 -214.5t-196.5 -60.5q-124 0 -184 69.5t-29 212.5zM427 746q-40 0 -64 24t-24 60q0 46 31.5 77t79.5 31q39 0 63 -25t24 -60q0 -47 -31 -77t-79 -30z
M432 786q23 0 40 18t17 46q0 48 -44 48q-25 0 -41.5 -18t-16.5 -48q0 -17 12 -31.5t33 -14.5z" />
    <glyph glyph-name="uring" unicode="&#x16f;" horiz-adv-x="531" 
d="M505 503l-79 -368q-11 -50 -26 -135h-62q1 22 16 93q-26 -46 -70 -74.5t-103 -28.5q-74 0 -109 45t-14 143l71 325h62l-68 -320q-6 -36 -7 -66.5t20 -50.5t64 -20q67 0 117 53t73 163l51 241h64zM318 563q-40 0 -64 24t-24 60q0 46 31.5 77t79.5 31q39 0 63 -25t24 -60
q0 -47 -31 -77t-79 -30zM323 603q23 0 40 18t17 46q0 48 -44 48q-25 0 -41.5 -18t-16.5 -48q0 -17 12 -31.5t33 -14.5z" />
    <glyph glyph-name="Uhungarumlaut" unicode="&#x170;" horiz-adv-x="664" 
d="M172 698h68l-91 -427q-25 -117 19 -169t133 -52q100 0 146.5 48.5t72.5 175.5l91 424h68l-92 -431q-33 -154 -95.5 -214.5t-196.5 -60.5q-124 0 -184 69.5t-29 212.5zM443 893h82l-167 -137h-67zM619 893h79l-166 -137h-68z" />
    <glyph glyph-name="uhungarumlaut" unicode="&#x171;" horiz-adv-x="531" 
d="M505 503l-79 -368q-11 -50 -26 -135h-62q1 22 16 93q-26 -46 -70 -74.5t-103 -28.5q-74 0 -109 45t-14 143l71 325h62l-68 -320q-6 -36 -7 -66.5t20 -50.5t64 -20q67 0 117 53t73 163l51 241h64zM421 736l-155 -156h-66l147 156h74zM590 736l-157 -156h-65l147 156h75z
" />
    <glyph glyph-name="Uogonek" unicode="&#x172;" horiz-adv-x="664" 
d="M172 698h68l-91 -427q-25 -117 19 -169t133 -52q100 0 146.5 48.5t72.5 175.5l91 424h68l-92 -431q-28 -135 -78.5 -196.5t-148.5 -74.5q-77 -64 -77 -113q0 -26 16 -39t41 -13q30 0 58 11l-10 -54q-25 -14 -70 -14q-47 0 -74 24t-27 67q0 64 70 127q-120 2 -177.5 71.5
t-27.5 210.5z" />
    <glyph glyph-name="uogonek" unicode="&#x173;" horiz-adv-x="531" 
d="M505 503l-79 -368q-11 -50 -26 -135h-1q-81 -66 -81 -116q0 -26 16 -39t41 -13q30 0 58 11l-10 -54q-25 -14 -70 -14q-47 0 -74 24t-27 67q0 70 87 141q2 16 15 86q-26 -46 -70 -74.5t-103 -28.5q-74 0 -109 45t-14 143l71 325h62l-68 -320q-6 -36 -7 -66.5t20 -50.5
t64 -20q67 0 117 53t73 163l51 241h64z" />
    <glyph glyph-name="Wcircumflex" unicode="&#x174;" horiz-adv-x="880" 
d="M214 0h-74l-36 698h66q24 -579 22 -627h1q10 30 64.5 144.5t127.5 264.5t105 218h68q27 -559 23 -625h1q13 34 67 146t129 265t104 214h69l-348 -698h-75q-26 518 -21 613h-1q-16 -43 -66.5 -149t-130 -268t-95.5 -196zM527 886h67l104 -127h-68l-74 86l-110 -86h-76z
" />
    <glyph glyph-name="wcircumflex" unicode="&#x175;" horiz-adv-x="722" 
d="M73 503h63q26 -339 24 -439h1q31 76 214 439h66q25 -362 23 -428h1q38 85 219 428h66l-266 -503h-68q-25 342 -24 425h-1q-24 -61 -208 -425h-72zM424 745h63l72 -143h-64l-47 100l-96 -100h-68z" />
    <glyph glyph-name="Ycircumflex" unicode="&#x176;" horiz-adv-x="544" 
d="M244 0h-67l55 265q2 9 -1 17l-154 416h71q21 -59 72.5 -200t60.5 -167q45 67 283 367h75l-333 -421q-4 -5 -7 -16zM348 885h67l104 -127h-68l-74 86l-110 -86h-76z" />
    <glyph glyph-name="ycircumflex" unicode="&#x177;" horiz-adv-x="468" 
d="M61 503h64q58 -378 63 -455h1q10 19 39.5 79t81.5 162t113 214h68l-282 -533q-33 -62 -58.5 -98.5t-52.5 -54.5t-49 -22.5t-60 -4.5q-34 0 -54 6l15 59q30 -5 46 -5q49 0 76.5 24.5t70.5 98.5zM296 746h63l72 -143h-64l-47 100l-96 -100h-68z" />
    <glyph glyph-name="Ydieresis" unicode="&#x178;" horiz-adv-x="544" 
d="M244 0h-67l55 265q2 9 -1 17l-154 416h71q21 -59 72.5 -200t60.5 -167q45 67 283 367h75l-333 -421q-4 -5 -7 -16zM284 755h-57l22 103h57zM482 755h-57l21 103h57z" />
    <glyph glyph-name="Zacute" unicode="&#x179;" horiz-adv-x="555" 
d="M-22 0l12 52l525 587h-400l13 59h483l-12 -56l-522 -583h427l-23 -59h-503zM503 911h97l-202 -137h-78z" />
    <glyph glyph-name="zacute" unicode="&#x17a;" horiz-adv-x="430" 
d="M-23 0l10 52l357 396h-273l12 55h351l-12 -56l-353 -392h295l-21 -55h-366zM389 749h90l-199 -154h-74z" />
    <glyph glyph-name="Zdotaccent" unicode="&#x17b;" horiz-adv-x="555" 
d="M-22 0l12 52l525 587h-400l13 59h483l-12 -56l-522 -583h427l-23 -59h-503zM399 780h-64l22 102h64z" />
    <glyph glyph-name="zdotaccent" unicode="&#x17c;" horiz-adv-x="430" 
d="M-23 0l10 52l357 396h-273l12 55h351l-12 -56l-353 -392h295l-21 -55h-366zM301 634h-64l21 102h64z" />
    <glyph glyph-name="Zcaron" unicode="&#x17d;" horiz-adv-x="555" 
d="M-22 0l12 52l525 587h-400l13 59h483l-12 -56l-522 -583h427l-23 -59h-503zM403 765h-69l-103 123h69l73 -84l108 84h79z" />
    <glyph glyph-name="zcaron" unicode="&#x17e;" horiz-adv-x="430" 
d="M-23 0l10 52l357 396h-273l12 55h351l-12 -56l-353 -392h295l-21 -55h-366zM293 593h-64l-74 143h62l50 -103l94 103h69z" />
    <glyph glyph-name="uni018F" unicode="&#x18f;" horiz-adv-x="700" 
d="M580 304h-456q-6 -22 -6 -56q0 -101 52.5 -150.5t137.5 -49.5q97 0 168.5 63t103.5 193zM591 360q5 35 5 72q0 106 -51.5 162t-137.5 56q-83 0 -135 -35t-92 -99h-70q37 81 111.5 136.5t189.5 55.5q127 0 190 -79t63 -197q0 -61 -12 -120.5t-40 -118.5t-69 -103.5
t-104.5 -72t-140.5 -27.5q-112 0 -179.5 66.5t-67.5 188.5q0 58 15 115h525z" />
    <glyph glyph-name="florin" unicode="&#x192;" horiz-adv-x="388" 
d="M438 682l-17 -55q-17 12 -55 12q-32 0 -54.5 -24.5t-32 -53.5t-18.5 -74l-15 -72h119l-12 -53h-118l-54 -257q-23 -111 -58 -166.5t-105 -55.5q-46 0 -79 19l17 55q26 -15 61 -15q40 0 61 37.5t40 126.5l53 256h-98l12 53h97l12 57q10 46 21.5 80.5t31 70.5t50 55.5
t70.5 19.5q54 0 71 -16z" />
    <glyph glyph-name="Ohorn" unicode="&#x1a0;" horiz-adv-x="721" 
d="M424 708q122 0 190 -73q41 6 57.5 26t16.5 57q0 22 -3 36h63q2 -10 2 -30q0 -111 -103 -134q38 -68 38 -170q0 -61 -13.5 -121t-42.5 -116t-70.5 -99t-103 -68.5t-134.5 -25.5q-123 0 -191.5 77t-68.5 204q0 79 23.5 155t67 140t114.5 103t158 39zM419 650
q-57 0 -105.5 -23t-81.5 -61t-56 -87.5t-34 -101.5t-11 -104q0 -99 50 -162t149 -63q91 0 157.5 57t97 140t30.5 177q0 105 -50.5 166.5t-145.5 61.5z" />
    <glyph glyph-name="ohorn" unicode="&#x1a1;" horiz-adv-x="524" 
d="M300 513q86 0 136 -56q39 7 55 27t16 56q0 22 -3 36h63q2 -10 2 -30q0 -113 -104 -134q19 -46 19 -104q0 -54 -15.5 -108t-46 -102t-83 -78t-118.5 -30q-86 0 -134.5 53t-48.5 148q0 75 27.5 146.5t89.5 123.5t145 52zM293 457q-59 0 -104 -42.5t-65.5 -101.5t-20.5 -121
q0 -68 32.5 -107t92.5 -39q62 0 107 43t64 100.5t19 118.5q0 71 -31.5 110t-93.5 39z" />
    <glyph glyph-name="Uhorn" unicode="&#x1af;" horiz-adv-x="664" 
d="M172 698h68l-91 -427q-25 -117 19 -169t133 -52q100 0 146.5 48.5t72.5 175.5l91 424h19q49 4 69 24.5t20 60.5q0 23 -3 36h63q2 -10 2 -30q0 -116 -112 -136l-82 -386q-33 -154 -95.5 -214.5t-196.5 -60.5q-124 0 -184 69.5t-29 212.5z" />
    <glyph glyph-name="uhorn" unicode="&#x1b0;" horiz-adv-x="531" 
d="M354 93q-26 -46 -70 -74.5t-103 -28.5q-74 0 -109 45t-14 143l71 325h62l-68 -320q-6 -36 -7 -66.5t20 -50.5t64 -20q67 0 117 53t73 163l51 241h22q49 4 69 24.5t20 60.5q0 22 -3 36h63q2 -10 2 -30q0 -120 -119 -137l-69 -322q-11 -50 -26 -135h-62q1 22 16 93z" />
    <glyph glyph-name="uni01CD" unicode="&#x1cd;" horiz-adv-x="605" 
d="M447 231h-277l-127 -231h-72l391 698h78l111 -698h-68zM202 290h238q-45 286 -50 343h-1q-67 -130 -187 -343zM439 752h-69l-103 123h69l73 -84l108 84h79z" />
    <glyph glyph-name="uni01CE" unicode="&#x1ce;" horiz-adv-x="515" 
d="M454 344l-46 -219q-20 -94 -24 -125h-63q3 35 16 85q-56 -95 -178 -95q-71 0 -104 37t-33 89q0 163 236 182q12 1 125 6l8 38q23 118 -101 118q-62 0 -92 -25.5t-45 -66.5h-64q14 63 64 104t143 41q88 0 131.5 -42.5t26.5 -126.5zM371 245l2 8q-60 0 -109 -5
q-37 -3 -64 -9.5t-54 -19.5t-41.5 -37t-14.5 -58q0 -33 22.5 -55.5t65.5 -22.5q147 0 193 199zM344 592h-64l-74 143h62l50 -103l94 103h69z" />
    <glyph glyph-name="uni01CF" unicode="&#x1cf;" horiz-adv-x="247" 
d="M183 698h67l-147 -698h-68zM261 761h-69l-103 123h69l73 -84l108 84h79z" />
    <glyph glyph-name="uni01D0" unicode="&#x1d0;" horiz-adv-x="220" 
d="M24 0l107 503h63l-107 -503h-63zM207 592h-64l-74 143h62l50 -103l94 103h69z" />
    <glyph glyph-name="uni01D1" unicode="&#x1d1;" horiz-adv-x="721" 
d="M424 708q125 0 193 -76t68 -212q0 -61 -13.5 -121t-42.5 -116t-70.5 -99t-103 -68.5t-134.5 -25.5q-123 0 -191.5 77t-68.5 204q0 79 23.5 155t67 140t114.5 103t158 39zM419 650q-57 0 -105.5 -23t-81.5 -61t-56 -87.5t-34 -101.5t-11 -104q0 -99 50 -162t149 -63
q91 0 157.5 57t97 140t30.5 177q0 105 -50.5 166.5t-145.5 61.5zM468 768h-69l-103 123h69l73 -84l108 84h79z" />
    <glyph glyph-name="uni01D2" unicode="&#x1d2;" horiz-adv-x="524" 
d="M300 513q85 0 134.5 -54.5t49.5 -150.5q0 -54 -15.5 -108t-46 -102t-83 -78t-118.5 -30q-86 0 -134.5 53t-48.5 148q0 75 27.5 146.5t89.5 123.5t145 52zM293 457q-59 0 -104 -42.5t-65.5 -101.5t-20.5 -121q0 -68 32.5 -107t92.5 -39q62 0 107 43t64 100.5t19 118.5
q0 71 -31.5 110t-93.5 39zM354 593h-64l-74 143h62l50 -103l94 103h69z" />
    <glyph glyph-name="uni01D3" unicode="&#x1d3;" horiz-adv-x="664" 
d="M172 698h68l-91 -427q-25 -117 19 -169t133 -52q100 0 146.5 48.5t72.5 175.5l91 424h68l-92 -431q-33 -154 -95.5 -214.5t-196.5 -60.5q-124 0 -184 69.5t-29 212.5zM460 761h-69l-103 123h69l73 -84l108 84h79z" />
    <glyph glyph-name="uni01D4" unicode="&#x1d4;" horiz-adv-x="531" 
d="M505 503l-79 -368q-11 -50 -26 -135h-62q1 22 16 93q-26 -46 -70 -74.5t-103 -28.5q-74 0 -109 45t-14 143l71 325h62l-68 -320q-6 -36 -7 -66.5t20 -50.5t64 -20q67 0 117 53t73 163l51 241h64zM358 592h-64l-74 143h62l50 -103l94 103h69z" />
    <glyph glyph-name="uni01D5" unicode="&#x1d5;" horiz-adv-x="664" 
d="M172 698h68l-91 -427q-25 -117 19 -169t133 -52q100 0 146.5 48.5t72.5 175.5l91 424h68l-92 -431q-33 -154 -95.5 -214.5t-196.5 -60.5q-124 0 -184 69.5t-29 212.5zM568 887h-241l12 53h241zM352 754h-61l17 81h61zM549 754h-60l17 81h60z" />
    <glyph glyph-name="uni01D6" unicode="&#x1d6;" horiz-adv-x="531" 
d="M505 503l-79 -368q-11 -50 -26 -135h-62q1 22 16 93q-26 -46 -70 -74.5t-103 -28.5q-74 0 -109 45t-14 143l71 325h62l-68 -320q-6 -36 -7 -66.5t20 -50.5t64 -20q67 0 117 53t73 163l51 241h64zM473 721h-241l12 53h241zM262 572h-60l17 82h60zM441 572h-59l17 82h60z
" />
    <glyph glyph-name="uni01D7" unicode="&#x1d7;" horiz-adv-x="664" 
d="M172 698h68l-91 -427q-25 -117 19 -169t133 -52q100 0 146.5 48.5t72.5 175.5l91 424h68l-92 -431q-33 -154 -95.5 -214.5t-196.5 -60.5q-124 0 -184 69.5t-29 212.5zM475 866h-70l150 120h85zM317 828h60l-16 -80h-60zM558 748h-60l17 80h60z" />
    <glyph glyph-name="uni01D8" unicode="&#x1d8;" horiz-adv-x="531" 
d="M505 503l-79 -368q-11 -50 -26 -135h-62q1 22 16 93q-26 -46 -70 -74.5t-103 -28.5q-74 0 -109 45t-14 143l71 325h62l-68 -320q-6 -36 -7 -66.5t20 -50.5t64 -20q67 0 117 53t73 163l51 241h64zM368 696h-68l138 121h80zM219 657h60l-17 -82h-61zM441 575h-59l17 82h60z
" />
    <glyph glyph-name="uni01D9" unicode="&#x1d9;" horiz-adv-x="664" 
d="M172 698h68l-91 -427q-25 -117 19 -169t133 -52q100 0 146.5 48.5t72.5 175.5l91 424h68l-92 -431q-33 -154 -95.5 -214.5t-196.5 -60.5q-124 0 -184 69.5t-29 212.5zM479 874h-60l-100 113h64l71 -74l102 74h72zM317 836h60l-16 -80h-60zM558 756h-60l17 80h60z" />
    <glyph glyph-name="uni01DA" unicode="&#x1da;" horiz-adv-x="531" 
d="M505 503l-79 -368q-11 -50 -26 -135h-62q1 22 16 93q-26 -46 -70 -74.5t-103 -28.5q-74 0 -109 45t-14 143l71 325h62l-68 -320q-6 -36 -7 -66.5t20 -50.5t64 -20q67 0 117 53t73 163l51 241h64zM371 692h-59l-82 121h63l54 -80l88 80h69zM221 657h60l-17 -82h-60z
M444 575h-60l17 82h60z" />
    <glyph glyph-name="uni01DB" unicode="&#x1db;" horiz-adv-x="664" 
d="M172 698h68l-91 -427q-25 -117 19 -169t133 -52q100 0 146.5 48.5t72.5 175.5l91 424h68l-92 -431q-33 -154 -95.5 -214.5t-196.5 -60.5q-124 0 -184 69.5t-29 212.5zM492 871h-65l-131 120h81zM318 840h61l-17 -81h-60zM559 759h-60l17 81h60z" />
    <glyph glyph-name="uni01DC" unicode="&#x1dc;" horiz-adv-x="531" 
d="M505 503l-79 -368q-11 -50 -26 -135h-62q1 22 16 93q-26 -46 -70 -74.5t-103 -28.5q-74 0 -109 45t-14 143l71 325h62l-68 -320q-6 -36 -7 -66.5t20 -50.5t64 -20q67 0 117 53t73 163l51 241h64zM207 819h76l95 -121h-60zM221 658h60l-17 -82h-60zM444 576h-60l17 82h60z
" />
    <glyph glyph-name="Gcaron" unicode="&#x1e6;" horiz-adv-x="695" 
d="M647 372l-77 -372h-55q3 40 20 118q-38 -61 -91 -93.5t-142 -32.5q-117 0 -179 76t-62 200q0 66 14.5 129t45 119.5t73 99t103.5 67.5t133 25q109 0 175.5 -57.5t70.5 -151.5h-65q-9 68 -56.5 109.5t-135.5 41.5t-155 -54.5t-100 -138.5t-33 -181q0 -101 46 -163.5
t140 -62.5q58 0 103 20.5t74 58.5t46.5 81t29.5 98l1 4h-221l13 60h284zM473 770h-69l-103 123h69l73 -84l108 84h79z" />
    <glyph glyph-name="gcaron" unicode="&#x1e7;" horiz-adv-x="546" 
d="M490 367l-69 -326q-28 -130 -81 -190.5t-169 -60.5q-56 0 -94.5 14.5t-56 39t-23.5 47.5t-6 49h63q0 -42 31 -69t94 -27q81 0 118.5 49.5t62.5 154.5l13 56q-57 -103 -172 -103q-75 0 -118.5 50t-43.5 143q0 78 28 149t87.5 120.5t138.5 49.5q63 0 100.5 -27.5
t45.5 -62.5q12 52 22 80h60q-7 -28 -31 -136zM292 456q-57 0 -100.5 -38t-64.5 -96t-21 -124q0 -139 114 -139q72 0 120 58.5t68 148.5q19 85 -9.5 137.5t-106.5 52.5zM357 592h-64l-74 143h62l50 -103l94 103h69z" />
    <glyph glyph-name="uni0218" unicode="&#x218;" horiz-adv-x="561" 
d="M26 199h67q15 -152 175 -152q76 0 121 36.5t45 103.5q0 53 -31.5 88t-118.5 70q-93 36 -130.5 75t-37.5 99q0 79 56 134t162 55q107 0 159.5 -54t52.5 -135h-66q-8 65 -43.5 98t-109.5 33q-69 0 -106 -36t-37 -87q0 -41 26.5 -68.5t106.5 -58.5q104 -40 145.5 -87.5
t41.5 -115.5q0 -89 -60.5 -148t-183.5 -59q-113 0 -172.5 57.5t-61.5 151.5zM163 -254h-63q82 97 101 192h71q-16 -60 -48 -114t-61 -78z" />
    <glyph glyph-name="uni0219" unicode="&#x219;" horiz-adv-x="439" 
d="M5 149h64q5 -46 36 -75.5t93 -29.5q54 0 84 25t30 66q0 37 -25.5 60t-84.5 45q-76 29 -106 59t-30 74q0 59 44.5 99.5t127.5 40.5q88 0 129.5 -42t39.5 -101h-64q-5 39 -28.5 64.5t-84.5 25.5q-45 0 -72.5 -22t-27.5 -59q0 -28 23.5 -46t81.5 -40q77 -29 111 -63t34 -86
q0 -71 -51.5 -112.5t-141.5 -41.5t-135.5 43.5t-46.5 115.5zM90 -261h-63q82 97 101 192h71q-16 -60 -48 -114t-61 -78z" />
    <glyph glyph-name="uni021A" unicode="&#x21a;" horiz-adv-x="524" 
d="M168 0l134 639h-221l13 59h511l-13 -59h-223l-134 -639h-67zM119 -253h-63q82 97 101 192h71q-16 -60 -48 -114t-61 -78z" />
    <glyph glyph-name="uni021B" unicode="&#x21b;" horiz-adv-x="295" 
d="M50 448l12 55h87l32 149h63l-32 -149h112l-13 -55h-111l-68 -324q-10 -38 -3 -56t39 -18t52 5l-13 -53q-24 -9 -62 -9q-54 0 -73.5 26t-7.5 86l72 343h-86zM35 -261h-63q82 97 101 192h71q-16 -60 -48 -114t-61 -78z" />
    <glyph glyph-name="uni0237" unicode="&#x237;" horiz-adv-x="220" 
d="M131 503h63l-114 -535q-20 -93 -52.5 -135.5t-105.5 -42.5q-17 0 -43 4l14 57q18 -2 27 -2q46 0 64.5 26t33.5 100z" />
    <glyph glyph-name="uni0251" unicode="&#x251;" horiz-adv-x="551" 
d="M461 503h62l-76 -361q-3 -17 -9.5 -46t-11 -52.5t-8.5 -43.5h-61q1 20 15 87q-59 -97 -177 -97q-77 0 -117.5 55t-40.5 140q0 77 29 150.5t91.5 125.5t144.5 52q61 0 96.5 -28t44.5 -64q0 2 8.5 41.5t9.5 40.5zM298 454q-59 0 -105 -41.5t-68 -101t-22 -121.5
q0 -68 29 -104.5t81 -36.5q81 0 130.5 60t68.5 154q18 88 -9.5 139.5t-104.5 51.5z" />
    <glyph glyph-name="uni0259" unicode="&#x259;" horiz-adv-x="503" 
d="M38 257h351q5 38 5 55q0 71 -33 108t-90 37q-95 0 -144 -91h-66q65 147 218 147q89 0 134 -53.5t45 -143.5q0 -57 -15.5 -112.5t-46 -104.5t-82 -79t-116.5 -30q-90 0 -131 50t-41 124q0 50 12 93zM377 205h-285q-4 -20 -4 -42q0 -119 115 -119q62 0 107 42t67 119z" />
    <glyph glyph-name="uni0261" unicode="&#x261;" horiz-adv-x="546" 
d="M490 367l-69 -326q-28 -130 -81 -190.5t-169 -60.5q-56 0 -94.5 14.5t-56 39t-23.5 47.5t-6 49h63q0 -42 31 -69t94 -27q81 0 118.5 49.5t62.5 154.5l13 56q-57 -103 -172 -103q-75 0 -118.5 50t-43.5 143q0 78 28 149t87.5 120.5t138.5 49.5q63 0 100.5 -27.5
t45.5 -62.5q12 52 22 80h60q-7 -28 -31 -136zM292 456q-57 0 -100.5 -38t-64.5 -96t-21 -124q0 -139 114 -139q72 0 120 58.5t68 148.5q19 85 -9.5 137.5t-106.5 52.5z" />
    <glyph glyph-name="uni02BB" unicode="&#x2bb;" horiz-adv-x="319" 
d="M264 736h57q-37 -56 -66.5 -127.5t-41.5 -123.5h-66q14 63 49.5 137t67.5 114z" />
    <glyph glyph-name="uni02BC" unicode="&#x2bc;" horiz-adv-x="319" 
d="M205 485h-57q37 56 67 127.5t41 123.5h65q-14 -63 -49 -137.5t-67 -113.5z" />
    <glyph glyph-name="uni02BE" unicode="&#x2be;" horiz-adv-x="305" 
d="M196 709l11 47q37 -4 60.5 -27t23.5 -59q0 -48 -35.5 -79.5t-90.5 -31.5l10 47q27 2 45 18t18 44q0 36 -42 41z" />
    <glyph glyph-name="uni02BF" unicode="&#x2bf;" horiz-adv-x="305" 
d="M279 605l-11 -47q-37 4 -60.5 27t-23.5 59q0 48 35.5 79.5t90.5 31.5l-10 -47q-27 -2 -45 -18t-18 -44q0 -36 42 -41z" />
    <glyph glyph-name="circumflex" unicode="&#x2c6;" 
d="M263 745h63l72 -143h-64l-47 100l-96 -100h-68z" />
    <glyph glyph-name="caron" unicode="&#x2c7;" 
d="M326 592h-64l-74 143h62l50 -103l94 103h69z" />
    <glyph glyph-name="uni02C8" unicode="&#x2c8;" horiz-adv-x="262" 
d="M230 573h-63l37 175h62z" />
    <glyph glyph-name="uni02C9" unicode="&#x2c9;" horiz-adv-x="459" 
d="M193 694h259l-13 -57h-259z" />
    <glyph glyph-name="uni02CA" unicode="&#x2ca;" horiz-adv-x="396" 
d="M354 749h90l-199 -154h-74z" />
    <glyph glyph-name="uni02CB" unicode="&#x2cb;" horiz-adv-x="403" 
d="M185 749h74l113 -154h-62z" />
    <glyph glyph-name="uni02CC" unicode="&#x2cc;" horiz-adv-x="262" 
d="M60 -227h-63l37 175h62z" />
    <glyph glyph-name="breve" unicode="&#x2d8;" 
d="M152 722h51q-1 -31 15 -51t51 -20q27 0 48 13t30 25.5t19 32.5h53q-44 -124 -156 -124q-63 0 -90.5 37t-20.5 87z" />
    <glyph glyph-name="dotaccent" unicode="&#x2d9;" 
d="M287 634h-64l21 102h64z" />
    <glyph glyph-name="ring" unicode="&#x2da;" 
d="M253 563q-40 0 -64 24t-24 60q0 46 31.5 77t79.5 31q39 0 63 -25t24 -60q0 -47 -31 -77t-79 -30zM258 603q23 0 40 18t17 46q0 48 -44 48q-25 0 -41.5 -18t-16.5 -48q0 -17 12 -31.5t33 -14.5z" />
    <glyph glyph-name="ogonek" unicode="&#x2db;" 
d="M181 36l21 -36q-81 -66 -81 -116q0 -26 16 -39t41 -13q30 0 58 11l-10 -54q-25 -14 -70 -14q-47 0 -74 24t-27 67q0 87 126 170z" />
    <glyph glyph-name="tilde" unicode="&#x2dc;" 
d="M177 615h-49l4 20q9 48 29 66t57 18q28 0 72 -25t57 -25q27 0 34 42l2 11h49l-4 -19q-9 -49 -28.5 -68.5t-54.5 -19.5q-25 0 -69 26t-62 26q-24 0 -33 -35z" />
    <glyph glyph-name="hungarumlaut" unicode="&#x2dd;" 
d="M344 736l-155 -156h-66l147 156h74zM513 736l-157 -156h-65l147 156h75z" />
    <glyph glyph-name="uni0300" unicode="&#x300;" horiz-adv-x="0" 
d="M-98 749h74l113 -154h-62z" />
    <glyph glyph-name="uni0301" unicode="&#x301;" horiz-adv-x="0" 
d="M88 749h90l-199 -154h-74z" />
    <glyph glyph-name="uni0302" unicode="&#x302;" horiz-adv-x="0" 
d="M15 745h63l72 -143h-64l-47 100l-96 -100h-68z" />
    <glyph glyph-name="uni0303" unicode="&#x303;" horiz-adv-x="0" 
d="M-71 615h-49l4 20q9 48 29 66t57 18q28 0 72 -25t57 -25q27 0 34 42l2 11h49l-4 -19q-9 -49 -28.5 -68.5t-54.5 -19.5q-25 0 -69 26t-62 26q-24 0 -33 -35z" />
    <glyph glyph-name="uni0304" unicode="&#x304;" horiz-adv-x="0" 
d="M-106 694h259l-13 -57h-259z" />
    <glyph glyph-name="uni0306" unicode="&#x306;" horiz-adv-x="0" 
d="M-96 722h51q-1 -31 15 -51t51 -20q27 0 48 13t30 25.5t19 32.5h53q-44 -124 -156 -124q-63 0 -90.5 37t-20.5 87z" />
    <glyph glyph-name="uni0307" unicode="&#x307;" horiz-adv-x="0" 
d="M39 634h-64l21 102h64z" />
    <glyph glyph-name="uni0308" unicode="&#x308;" horiz-adv-x="0" 
d="M-49 634h-57l21 102h57zM121 634h-57l22 102h57z" />
    <glyph glyph-name="uni0309" unicode="&#x309;" horiz-adv-x="0" 
d="M30 586h-72q84 47 84 88q0 35 -43 35q-32 0 -62 -16l-12 40q38 26 89 26q43 0 65.5 -22t22.5 -51q0 -56 -72 -100z" />
    <glyph glyph-name="uni030A" unicode="&#x30a;" horiz-adv-x="0" 
d="M5 563q-40 0 -64 24t-24 60q0 46 31.5 77t79.5 31q39 0 63 -25t24 -60q0 -47 -31 -77t-79 -30zM10 603q23 0 40 18t17 46q0 48 -44 48q-25 0 -41.5 -18t-16.5 -48q0 -17 12 -31.5t33 -14.5z" />
    <glyph glyph-name="uni030B" unicode="&#x30b;" horiz-adv-x="0" 
d="M61 736l-155 -156h-66l147 156h74zM230 736l-157 -156h-65l147 156h75z" />
    <glyph glyph-name="uni030C" unicode="&#x30c;" horiz-adv-x="0" 
d="M85 592h-64l-74 143h62l50 -103l94 103h69z" />
    <glyph glyph-name="uni031B" unicode="&#x31b;" horiz-adv-x="0" 
d="M12 477l-13 48q49 4 69 24.5t20 60.5q0 22 -3 36h63q2 -10 2 -30q0 -63 -35 -99t-103 -40z" />
    <glyph glyph-name="uni0323" unicode="&#x323;" horiz-adv-x="0" 
d="M-105 -178h-69l20 97h69z" />
    <glyph glyph-name="uni0324" unicode="&#x324;" horiz-adv-x="0" 
d="M-222 -182h-57l21 102h57zM-52 -182h-57l22 102h57z" />
    <glyph glyph-name="uni0326" unicode="&#x326;" horiz-adv-x="0" 
d="M-131 -261h-63q82 97 101 192h71q-16 -60 -48 -114t-61 -78z" />
    <glyph glyph-name="uni0327" unicode="&#x327;" horiz-adv-x="0" 
d="M-130 11l52 -10l-48 -57q35 -6 63.5 -27t28.5 -60q0 -46 -34.5 -72t-91.5 -26q-46 0 -86 15l15 49q30 -13 70 -13q64 0 64 43q0 48 -106 50l6 24z" />
    <glyph glyph-name="uni0328" unicode="&#x328;" horiz-adv-x="0" 
d="M-89 36l21 -36q-81 -66 -81 -116q0 -26 16 -39t41 -13q30 0 58 11l-10 -54q-25 -14 -70 -14q-47 0 -74 24t-27 67q0 87 126 170z" />
    <glyph glyph-name="uni032E" unicode="&#x32e;" horiz-adv-x="0" 
d="M-263 -64h51q-1 -31 15 -51t51 -20q27 0 48 13t30 25.5t19 32.5h53q-44 -124 -156 -124q-63 0 -90.5 37t-20.5 87z" />
    <glyph glyph-name="uni0331" unicode="&#x331;" horiz-adv-x="0" 
d="M-276 -108h259l-13 -57h-259z" />
    <glyph glyph-name="pi" unicode="&#x3c0;" horiz-adv-x="532" 
d="M312 0l97 448h-216l-95 -448h-61l95 448q-75 0 -92 -2l11 53q28 4 159 4h352l-13 -55h-77l-97 -448h-63z" />
    <glyph glyph-name="uni1E0C" unicode="&#x1e0c;" horiz-adv-x="701" 
d="M35 0l147 698h194q133 0 210.5 -79t77.5 -215q0 -178 -105 -291t-283 -113h-241zM237 640l-123 -582h157q151 0 236 95t86 251q1 110 -58.5 173t-167.5 63h-130zM266 -178h-69l20 97h69z" />
    <glyph glyph-name="uni1E0D" unicode="&#x1e0d;" horiz-adv-x="551" 
d="M509 736h63l-125 -594q-26 -123 -29 -142h-61q1 20 15 87q-59 -97 -174 -97q-79 0 -120 53.5t-41 140.5q0 77 27.5 150t89.5 126t145 53q61 0 98 -27t47 -60zM296 455q-60 0 -105.5 -42.5t-66.5 -101.5t-21 -121q0 -142 114 -142q80 0 128.5 61.5t67.5 157.5
q19 87 -10.5 137.5t-106.5 50.5zM225 -178h-69l20 97h69z" />
    <glyph glyph-name="uni1E0E" unicode="&#x1e0e;" horiz-adv-x="701" 
d="M35 0l147 698h194q133 0 210.5 -79t77.5 -215q0 -178 -105 -291t-283 -113h-241zM237 640l-123 -582h157q151 0 236 95t86 251q1 110 -58.5 173t-167.5 63h-130zM110 -108h259l-13 -57h-259z" />
    <glyph glyph-name="uni1E0F" unicode="&#x1e0f;" horiz-adv-x="551" 
d="M509 736h63l-125 -594q-26 -123 -29 -142h-61q1 20 15 87q-59 -97 -174 -97q-79 0 -120 53.5t-41 140.5q0 77 27.5 150t89.5 126t145 53q61 0 98 -27t47 -60zM296 455q-60 0 -105.5 -42.5t-66.5 -101.5t-21 -121q0 -142 114 -142q80 0 128.5 61.5t67.5 157.5
q19 87 -10.5 137.5t-106.5 50.5zM77 -108h259l-13 -57h-259z" />
    <glyph glyph-name="uni1E20" unicode="&#x1e20;" horiz-adv-x="695" 
d="M647 372l-77 -372h-55q3 40 20 118q-38 -61 -91 -93.5t-142 -32.5q-117 0 -179 76t-62 200q0 66 14.5 129t45 119.5t73 99t103.5 67.5t133 25q109 0 175.5 -57.5t70.5 -151.5h-65q-9 68 -56.5 109.5t-135.5 41.5t-155 -54.5t-100 -138.5t-33 -181q0 -101 46 -163.5
t140 -62.5q58 0 103 20.5t74 58.5t46.5 81t29.5 98l1 4h-221l13 60h284zM330 849h260l-12 -56h-260z" />
    <glyph glyph-name="uni1E21" unicode="&#x1e21;" horiz-adv-x="546" 
d="M490 367l-69 -326q-28 -130 -81 -190.5t-169 -60.5q-56 0 -94.5 14.5t-56 39t-23.5 47.5t-6 49h63q0 -42 31 -69t94 -27q81 0 118.5 49.5t62.5 154.5l13 56q-57 -103 -172 -103q-75 0 -118.5 50t-43.5 143q0 78 28 149t87.5 120.5t138.5 49.5q63 0 100.5 -27.5
t45.5 -62.5q12 52 22 80h60q-7 -28 -31 -136zM292 456q-57 0 -100.5 -38t-64.5 -96t-21 -124q0 -139 114 -139q72 0 120 58.5t68 148.5q19 85 -9.5 137.5t-106.5 52.5zM215 694h259l-13 -57h-259z" />
    <glyph glyph-name="uni1E24" unicode="&#x1e24;" horiz-adv-x="694" 
d="M35 0l147 698h68l-63 -294h380l63 294h67l-148 -698h-67l73 345h-381l-72 -345h-67zM293 -168h-69l20 97h69z" />
    <glyph glyph-name="uni1E25" unicode="&#x1e25;" horiz-adv-x="541" 
d="M24 0l156 736h63l-68 -320q63 97 174 97q29 0 53.5 -7.5t48 -28.5t29 -58t-3.5 -95l-68 -324h-63l65 313q31 142 -82 142q-67 0 -116 -50t-66 -130l-59 -275h-63zM219 -178h-69l20 97h69z" />
    <glyph glyph-name="uni1E2A" unicode="&#x1e2a;" horiz-adv-x="694" 
d="M35 0l147 698h68l-63 -294h380l63 294h67l-148 -698h-67l73 345h-381l-72 -345h-67zM152 -64h51q-1 -31 15 -51t51 -20q27 0 48 13t30 25.5t19 32.5h53q-44 -124 -156 -124q-63 0 -90.5 37t-20.5 87z" />
    <glyph glyph-name="uni1E2B" unicode="&#x1e2b;" horiz-adv-x="541" 
d="M24 0l156 736h63l-68 -320q63 97 174 97q29 0 53.5 -7.5t48 -28.5t29 -58t-3.5 -95l-68 -324h-63l65 313q31 142 -82 142q-67 0 -116 -50t-66 -130l-59 -275h-63zM76 -64h51q-1 -31 15 -51t51 -20q27 0 48 13t30 25.5t19 32.5h53q-44 -124 -156 -124q-63 0 -90.5 37
t-20.5 87z" />
    <glyph glyph-name="uni1E36" unicode="&#x1e36;" horiz-adv-x="518" 
d="M35 0l147 698h68l-136 -639h355l-21 -59h-413zM252 -178h-69l20 97h69z" />
    <glyph glyph-name="uni1E37" unicode="&#x1e37;" horiz-adv-x="220" 
d="M87 0h-63l156 736h63zM57 -178h-69l20 97h69z" />
    <glyph glyph-name="uni1E38" unicode="&#x1e38;" horiz-adv-x="518" 
d="M35 0l147 698h68l-136 -639h355l-21 -59h-413zM253 -178h-69l20 97h69zM111 833h260l-12 -56h-260z" />
    <glyph glyph-name="uni1E39" unicode="&#x1e39;" horiz-adv-x="220" 
d="M87 0h-63l156 736h63zM104 860h259l-13 -57h-259zM57 -178h-69l20 97h69z" />
    <glyph glyph-name="uni1E3A" unicode="&#x1e3a;" horiz-adv-x="518" 
d="M35 0l147 698h68l-136 -639h355l-21 -59h-413zM89 -101h259l-13 -57h-259z" />
    <glyph glyph-name="uni1E3B" unicode="&#x1e3b;" horiz-adv-x="220" 
d="M87 0h-63l156 736h63zM-89 -100h259l-13 -57h-259z" />
    <glyph glyph-name="uni1E42" unicode="&#x1e42;" horiz-adv-x="828" 
d="M616 0l66 310q48 231 75 338h-3q-45 -94 -367 -648h-64q-87 609 -90 649h-2q-12 -80 -70 -359l-60 -290h-67l148 698h103q82 -547 87 -612h2q18 36 354 612h103l-147 -698h-68zM351 -178h-69l20 97h69z" />
    <glyph glyph-name="uni1E43" unicode="&#x1e43;" horiz-adv-x="803" 
d="M24 0l77 362q18 85 28 141h62q-9 -57 -15 -85q59 95 155 95q105 0 117 -96q65 96 169 96q69 0 104.5 -45.5t14.5 -141.5l-68 -326h-63l67 319q30 136 -76 136q-61 0 -102 -47.5t-56 -119.5l-61 -288h-62l65 306q18 67 2.5 108t-72.5 41q-63 0 -106.5 -51.5t-58.5 -126.5
l-58 -277h-63zM347 -178h-69l20 97h69z" />
    <glyph glyph-name="uni1E44" unicode="&#x1e44;" horiz-adv-x="707" 
d="M100 0h-66l148 698h88q234 -585 245 -621h1q6 42 65 323l63 298h66l-148 -698h-83q-221 550 -248 633h-2q-10 -68 -65 -328zM476 764h-64l22 102h64z" />
    <glyph glyph-name="uni1E45" unicode="&#x1e45;" horiz-adv-x="541" 
d="M24 0l80 375q1 3 25 128h62q-7 -55 -18 -94q63 104 176 104q76 0 111.5 -47t13.5 -147l-66 -319h-63l66 315q29 140 -86 140q-73 0 -119.5 -59t-65.5 -148l-53 -248h-63zM362 634h-64l21 102h64z" />
    <glyph glyph-name="uni1E46" unicode="&#x1e46;" horiz-adv-x="707" 
d="M100 0h-66l148 698h88q234 -585 245 -621h1q6 42 65 323l63 298h66l-148 -698h-83q-221 550 -248 633h-2q-10 -68 -65 -328zM299 -169h-69l20 97h69z" />
    <glyph glyph-name="uni1E47" unicode="&#x1e47;" horiz-adv-x="541" 
d="M24 0l80 375q1 3 25 128h62q-7 -55 -18 -94q63 104 176 104q76 0 111.5 -47t13.5 -147l-66 -319h-63l66 315q29 140 -86 140q-73 0 -119.5 -59t-65.5 -148l-53 -248h-63zM221 -178h-69l20 97h69z" />
    <glyph glyph-name="uni1E48" unicode="&#x1e48;" horiz-adv-x="707" 
d="M100 0h-66l148 698h88q234 -585 245 -621h1q6 42 65 323l63 298h66l-148 -698h-83q-221 550 -248 633h-2q-10 -68 -65 -328zM157 -107h259l-13 -57h-259z" />
    <glyph glyph-name="uni1E49" unicode="&#x1e49;" horiz-adv-x="541" 
d="M24 0l80 375q1 3 25 128h62q-7 -55 -18 -94q63 104 176 104q76 0 111.5 -47t13.5 -147l-66 -319h-63l66 315q29 140 -86 140q-73 0 -119.5 -59t-65.5 -148l-53 -248h-63zM71 -108h259l-13 -57h-259z" />
    <glyph glyph-name="uni1E5A" unicode="&#x1e5a;" horiz-adv-x="608" 
d="M323 323h-154l-67 -323h-67l147 698h224q94 0 143 -44.5t49 -119.5q0 -78 -42 -124.5t-115 -62.5q106 -38 76 -178q-30 -138 -28 -169h-63q-5 45 25 165q17 82 -12.5 120t-115.5 38zM237 640l-55 -259h146q200 0 200 145q0 114 -133 114h-158zM269 -168h-69l20 97h69z
" />
    <glyph glyph-name="uni1E5B" unicode="&#x1e5b;" horiz-adv-x="327" 
d="M350 513l-15 -67q-72 -7 -125.5 -62.5t-71.5 -141.5l-51 -242h-63l76 354q24 118 29 149h60q-2 -31 -19 -112q28 56 76.5 89t103.5 33zM57 -178h-69l20 97h69z" />
    <glyph glyph-name="uni1E5C" unicode="&#x1e5c;" horiz-adv-x="608" 
d="M323 323h-154l-67 -323h-67l147 698h224q94 0 143 -44.5t49 -119.5q0 -78 -42 -124.5t-115 -62.5q106 -38 76 -178q-30 -138 -28 -169h-63q-5 45 25 165q17 82 -12.5 120t-115.5 38zM237 640l-55 -259h146q200 0 200 145q0 114 -133 114h-158zM269 -168h-69l20 97h69z
M277 844h260l-12 -56h-260z" />
    <glyph glyph-name="uni1E5D" unicode="&#x1e5d;" horiz-adv-x="327" 
d="M350 513l-15 -67q-72 -7 -125.5 -62.5t-71.5 -141.5l-51 -242h-63l76 354q24 118 29 149h60q-2 -31 -19 -112q28 56 76.5 89t103.5 33zM132 694h259l-13 -57h-259zM57 -178h-69l20 97h69z" />
    <glyph glyph-name="uni1E5E" unicode="&#x1e5e;" horiz-adv-x="608" 
d="M323 323h-154l-67 -323h-67l147 698h224q94 0 143 -44.5t49 -119.5q0 -78 -42 -124.5t-115 -62.5q106 -38 76 -178q-30 -138 -28 -169h-63q-5 45 25 165q17 82 -12.5 120t-115.5 38zM237 640l-55 -259h146q200 0 200 145q0 114 -133 114h-158zM115 -108h259l-13 -57h-259
z" />
    <glyph glyph-name="uni1E5F" unicode="&#x1e5f;" horiz-adv-x="327" 
d="M350 513l-15 -67q-72 -7 -125.5 -62.5t-71.5 -141.5l-51 -242h-63l76 354q24 118 29 149h60q-2 -31 -19 -112q28 56 76.5 89t103.5 33zM-71 -108h259l-13 -57h-259z" />
    <glyph glyph-name="uni1E60" unicode="&#x1e60;" horiz-adv-x="561" 
d="M26 199h67q15 -152 175 -152q76 0 121 36.5t45 103.5q0 53 -31.5 88t-118.5 70q-93 36 -130.5 75t-37.5 99q0 79 56 134t162 55q107 0 159.5 -54t52.5 -135h-66q-8 65 -43.5 98t-109.5 33q-69 0 -106 -36t-37 -87q0 -41 26.5 -68.5t106.5 -58.5q104 -40 145.5 -87.5
t41.5 -115.5q0 -89 -60.5 -148t-183.5 -59q-113 0 -172.5 57.5t-61.5 151.5zM384 774h-64l22 102h64z" />
    <glyph glyph-name="uni1E61" unicode="&#x1e61;" horiz-adv-x="439" 
d="M5 149h64q5 -46 36 -75.5t93 -29.5q54 0 84 25t30 66q0 37 -25.5 60t-84.5 45q-76 29 -106 59t-30 74q0 59 44.5 99.5t127.5 40.5q88 0 129.5 -42t39.5 -101h-64q-5 39 -28.5 64.5t-84.5 25.5q-45 0 -72.5 -22t-27.5 -59q0 -28 23.5 -46t81.5 -40q77 -29 111 -63t34 -86
q0 -71 -51.5 -112.5t-141.5 -41.5t-135.5 43.5t-46.5 115.5zM306 634h-64l21 102h64z" />
    <glyph glyph-name="uni1E62" unicode="&#x1e62;" horiz-adv-x="561" 
d="M26 199h67q15 -152 175 -152q76 0 121 36.5t45 103.5q0 53 -31.5 88t-118.5 70q-93 36 -130.5 75t-37.5 99q0 79 56 134t162 55q107 0 159.5 -54t52.5 -135h-66q-8 65 -43.5 98t-109.5 33q-69 0 -106 -36t-37 -87q0 -41 26.5 -68.5t106.5 -58.5q104 -40 145.5 -87.5
t41.5 -115.5q0 -89 -60.5 -148t-183.5 -59q-113 0 -172.5 57.5t-61.5 151.5zM245 -180h-69l20 97h69z" />
    <glyph glyph-name="uni1E63" unicode="&#x1e63;" horiz-adv-x="439" 
d="M5 149h64q5 -46 36 -75.5t93 -29.5q54 0 84 25t30 66q0 37 -25.5 60t-84.5 45q-76 29 -106 59t-30 74q0 59 44.5 99.5t127.5 40.5q88 0 129.5 -42t39.5 -101h-64q-5 39 -28.5 64.5t-84.5 25.5q-45 0 -72.5 -22t-27.5 -59q0 -28 23.5 -46t81.5 -40q77 -29 111 -63t34 -86
q0 -71 -51.5 -112.5t-141.5 -41.5t-135.5 43.5t-46.5 115.5zM183 -178h-69l20 97h69z" />
    <glyph glyph-name="uni1E6C" unicode="&#x1e6c;" horiz-adv-x="524" 
d="M168 0l134 639h-221l13 59h511l-13 -59h-223l-134 -639h-67zM199 -193h-69l20 97h69z" />
    <glyph glyph-name="uni1E6D" unicode="&#x1e6d;" horiz-adv-x="295" 
d="M50 448l12 55h87l32 149h63l-32 -149h112l-13 -55h-111l-68 -324q-10 -38 -3 -56t39 -18t52 5l-13 -53q-24 -9 -62 -9q-54 0 -73.5 26t-7.5 86l72 343h-86zM129 -178h-69l20 97h69z" />
    <glyph glyph-name="uni1E6E" unicode="&#x1e6e;" horiz-adv-x="524" 
d="M168 0l134 639h-221l13 59h511l-13 -59h-223l-134 -639h-67zM58 -108h259l-13 -57h-259z" />
    <glyph glyph-name="uni1E6F" unicode="&#x1e6f;" horiz-adv-x="295" 
d="M50 448l12 55h87l32 149h63l-32 -149h112l-13 -55h-111l-68 -324q-10 -38 -3 -56t39 -18t52 5l-13 -53q-24 -9 -62 -9q-54 0 -73.5 26t-7.5 86l72 343h-86zM-23 -107h259l-13 -57h-259z" />
    <glyph glyph-name="Wgrave" unicode="&#x1e80;" horiz-adv-x="880" 
d="M214 0h-74l-36 698h66q24 -579 22 -627h1q10 30 64.5 144.5t127.5 264.5t105 218h68q27 -559 23 -625h1q13 34 67 146t129 265t104 214h69l-348 -698h-75q-26 518 -21 613h-1q-16 -43 -66.5 -149t-130 -268t-95.5 -196zM353 898h86l135 -137h-70z" />
    <glyph glyph-name="wgrave" unicode="&#x1e81;" horiz-adv-x="722" 
d="M73 503h63q26 -339 24 -439h1q31 76 214 439h66q25 -362 23 -428h1q38 85 219 428h66l-266 -503h-68q-25 342 -24 425h-1q-24 -61 -208 -425h-72zM268 749h74l113 -154h-62z" />
    <glyph glyph-name="Wacute" unicode="&#x1e82;" horiz-adv-x="880" 
d="M214 0h-74l-36 698h66q24 -579 22 -627h1q10 30 64.5 144.5t127.5 264.5t105 218h68q27 -559 23 -625h1q13 34 67 146t129 265t104 214h69l-348 -698h-75q-26 518 -21 613h-1q-16 -43 -66.5 -149t-130 -268t-95.5 -196zM672 903h97l-202 -137h-78z" />
    <glyph glyph-name="wacute" unicode="&#x1e83;" horiz-adv-x="722" 
d="M73 503h63q26 -339 24 -439h1q31 76 214 439h66q25 -362 23 -428h1q38 85 219 428h66l-266 -503h-68q-25 342 -24 425h-1q-24 -61 -208 -425h-72zM556 749h90l-199 -154h-74z" />
    <glyph glyph-name="Wdieresis" unicode="&#x1e84;" horiz-adv-x="880" 
d="M214 0h-74l-36 698h66q24 -579 22 -627h1q10 30 64.5 144.5t127.5 264.5t105 218h68q27 -559 23 -625h1q13 34 67 146t129 265t104 214h69l-348 -698h-75q-26 518 -21 613h-1q-16 -43 -66.5 -149t-130 -268t-95.5 -196zM459 772h-57l22 103h57zM657 772h-57l21 103h57z
" />
    <glyph glyph-name="wdieresis" unicode="&#x1e85;" horiz-adv-x="722" 
d="M73 503h63q26 -339 24 -439h1q31 76 214 439h66q25 -362 23 -428h1q38 85 219 428h66l-266 -503h-68q-25 342 -24 425h-1q-24 -61 -208 -425h-72zM368 634h-57l21 102h57zM538 634h-57l22 102h57z" />
    <glyph glyph-name="uni1E8E" unicode="&#x1e8e;" horiz-adv-x="544" 
d="M244 0h-67l55 265q2 9 -1 17l-154 416h71q21 -59 72.5 -200t60.5 -167q45 67 283 367h75l-333 -421q-4 -5 -7 -16zM384 773h-64l22 102h64z" />
    <glyph glyph-name="uni1E8F" unicode="&#x1e8f;" horiz-adv-x="468" 
d="M61 503h64q58 -378 63 -455h1q10 19 39.5 79t81.5 162t113 214h68l-282 -533q-33 -62 -58.5 -98.5t-52.5 -54.5t-49 -22.5t-60 -4.5q-34 0 -54 6l15 59q30 -5 46 -5q49 0 76.5 24.5t70.5 98.5zM320 634h-64l21 102h64z" />
    <glyph glyph-name="uni1E92" unicode="&#x1e92;" horiz-adv-x="555" 
d="M-22 0l12 52l525 587h-400l13 59h483l-12 -56l-522 -583h427l-23 -59h-503zM251 -188h-69l20 97h69z" />
    <glyph glyph-name="uni1E93" unicode="&#x1e93;" horiz-adv-x="430" 
d="M-23 0l10 52l357 396h-273l12 55h351l-12 -56l-353 -392h295l-21 -55h-366zM178 -180h-69l20 97h69z" />
    <glyph glyph-name="uni1E97" unicode="&#x1e97;" horiz-adv-x="295" 
d="M50 448l12 55h87l32 149h63l-32 -149h112l-13 -55h-111l-68 -324q-10 -38 -3 -56t39 -18t52 5l-13 -53q-24 -9 -62 -9q-54 0 -73.5 26t-7.5 86l72 343h-86zM167 711h-57l21 102h57zM337 711h-57l22 102h57z" />
    <glyph glyph-name="uni1E9E" unicode="&#x1e9e;" horiz-adv-x="639" 
d="M206 512l-109 -512h-65l108 517q22 105 83 148t161 43q112 0 166.5 -46t54.5 -110q0 -24 -7 -52l-195 -111l-1 -5l71 -49q57 -40 83 -78t26 -87q0 -77 -54 -128.5t-158 -51.5q-117 0 -178 71l17 66q65 -80 166 -82q64 0 102 32.5t38 88.5q0 63 -86 122l-99 67
q-16 10 -14.5 28t20.5 29l199 117q2 6 2 15q1 41 -35 74.5t-126 33.5q-66 0 -109.5 -31t-60.5 -109z" />
    <glyph glyph-name="uni1EA0" unicode="&#x1ea0;" horiz-adv-x="605" 
d="M447 231h-277l-127 -231h-72l391 698h78l111 -698h-68zM202 290h238q-45 286 -50 343h-1q-67 -130 -187 -343zM267 -168h-69l20 97h69z" />
    <glyph glyph-name="uni1EA1" unicode="&#x1ea1;" horiz-adv-x="515" 
d="M454 344l-46 -219q-20 -94 -24 -125h-63q3 35 16 85q-56 -95 -178 -95q-71 0 -104 37t-33 89q0 163 236 182q12 1 125 6l8 38q23 118 -101 118q-62 0 -92 -25.5t-45 -66.5h-64q14 63 64 104t143 41q88 0 131.5 -42.5t26.5 -126.5zM371 245l2 8q-60 0 -109 -5
q-37 -3 -64 -9.5t-54 -19.5t-41.5 -37t-14.5 -58q0 -33 22.5 -55.5t65.5 -22.5q147 0 193 199zM213 -180h-69l20 97h69z" />
    <glyph glyph-name="uni1EA2" unicode="&#x1ea2;" horiz-adv-x="605" 
d="M447 231h-277l-127 -231h-72l391 698h78l111 -698h-68zM202 290h238q-45 286 -50 343h-1q-67 -130 -187 -343zM431 745h-72q84 47 84 88q0 35 -43 35q-32 0 -62 -16l-12 40q38 26 89 26q43 0 65.5 -22t22.5 -51q0 -56 -72 -100z" />
    <glyph glyph-name="uni1EA3" unicode="&#x1ea3;" horiz-adv-x="515" 
d="M454 344l-46 -219q-20 -94 -24 -125h-63q3 35 16 85q-56 -95 -178 -95q-71 0 -104 37t-33 89q0 163 236 182q12 1 125 6l8 38q23 118 -101 118q-62 0 -92 -25.5t-45 -66.5h-64q14 63 64 104t143 41q88 0 131.5 -42.5t26.5 -126.5zM371 245l2 8q-60 0 -109 -5
q-37 -3 -64 -9.5t-54 -19.5t-41.5 -37t-14.5 -58q0 -33 22.5 -55.5t65.5 -22.5q147 0 193 199zM344 586h-72q84 47 84 88q0 35 -43 35q-32 0 -62 -16l-12 40q38 26 89 26q43 0 65.5 -22t22.5 -51q0 -56 -72 -100z" />
    <glyph glyph-name="uni1EA4" unicode="&#x1ea4;" horiz-adv-x="605" 
d="M447 231h-277l-127 -231h-72l391 698h78l111 -698h-68zM202 290h238q-45 286 -50 343h-1q-67 -130 -187 -343zM393 863h68l99 -112h-68l-69 73l-99 -73h-78zM659 961h89l-152 -109h-70z" />
    <glyph glyph-name="uni1EA5" unicode="&#x1ea5;" horiz-adv-x="515" 
d="M454 344l-46 -219q-20 -94 -24 -125h-63q3 35 16 85q-56 -95 -178 -95q-71 0 -104 37t-33 89q0 163 236 182q12 1 125 6l8 38q23 118 -101 118q-62 0 -92 -25.5t-45 -66.5h-64q14 63 64 104t143 41q88 0 131.5 -42.5t26.5 -126.5zM371 245l2 8q-60 0 -109 -5
q-37 -3 -64 -9.5t-54 -19.5t-41.5 -37t-14.5 -58q0 -33 22.5 -55.5t65.5 -22.5q147 0 193 199zM312 711h58l81 -135h-64l-52 93l-90 -93h-68zM569 821h85l-160 -129h-64z" />
    <glyph glyph-name="uni1EA6" unicode="&#x1ea6;" horiz-adv-x="605" 
d="M447 231h-277l-127 -231h-72l391 698h78l111 -698h-68zM202 290h238q-45 286 -50 343h-1q-67 -130 -187 -343zM392 866h68l99 -112h-68l-69 73l-99 -73h-78zM481 966h79l113 -122h-61z" />
    <glyph glyph-name="uni1EA7" unicode="&#x1ea7;" horiz-adv-x="515" 
d="M454 344l-46 -219q-20 -94 -24 -125h-63q3 35 16 85q-56 -95 -178 -95q-71 0 -104 37t-33 89q0 163 236 182q12 1 125 6l8 38q23 118 -101 118q-62 0 -92 -25.5t-45 -66.5h-64q14 63 64 104t143 41q88 0 131.5 -42.5t26.5 -126.5zM371 245l2 8q-60 0 -109 -5
q-37 -3 -64 -9.5t-54 -19.5t-41.5 -37t-14.5 -58q0 -33 22.5 -55.5t65.5 -22.5q147 0 193 199zM310 712h59l81 -135h-63l-53 94l-91 -94h-67zM397 824h70l90 -144h-56z" />
    <glyph glyph-name="uni1EA8" unicode="&#x1ea8;" horiz-adv-x="605" 
d="M447 231h-277l-127 -231h-72l391 698h78l111 -698h-68zM202 290h238q-45 286 -50 343h-1q-67 -130 -187 -343zM394 863h68l99 -112h-68l-69 73l-99 -73h-78zM603 841h-69q73 44 73 83q0 28 -35 28q-29 0 -57 -14l-9 39q37 24 81 24q37 0 56.5 -19.5t19.5 -45.5
q0 -52 -60 -95z" />
    <glyph glyph-name="uni1EA9" unicode="&#x1ea9;" horiz-adv-x="515" 
d="M454 344l-46 -219q-20 -94 -24 -125h-63q3 35 16 85q-56 -95 -178 -95q-71 0 -104 37t-33 89q0 163 236 182q12 1 125 6l8 38q23 118 -101 118q-62 0 -92 -25.5t-45 -66.5h-64q14 63 64 104t143 41q88 0 131.5 -42.5t26.5 -126.5zM371 245l2 8q-60 0 -109 -5
q-37 -3 -64 -9.5t-54 -19.5t-41.5 -37t-14.5 -58q0 -33 22.5 -55.5t65.5 -22.5q147 0 193 199zM308 712h59l81 -135h-64l-52 93l-90 -93h-68zM509 679h-63q21 15 32 23t25.5 27t14.5 36q0 25 -32 25q-35 0 -58 -17l-10 38q36 28 84 28q33 0 52.5 -19t19.5 -45q0 -61 -65 -96
z" />
    <glyph glyph-name="uni1EAA" unicode="&#x1eaa;" horiz-adv-x="605" 
d="M447 231h-277l-127 -231h-72l391 698h78l111 -698h-68zM202 290h238q-45 286 -50 343h-1q-67 -130 -187 -343zM335 878h-51l3 14q16 75 85 75q32 0 77.5 -19t63.5 -19q27 0 34 29l2 7h50l-2 -11q-12 -77 -88 -77q-25 0 -70 20t-68 20q-28 0 -34 -33zM386 839h74l102 -94
h-74l-68 57l-91 -57h-83z" />
    <glyph glyph-name="uni1EAB" unicode="&#x1eab;" horiz-adv-x="515" 
d="M454 344l-46 -219q-20 -94 -24 -125h-63q3 35 16 85q-56 -95 -178 -95q-71 0 -104 37t-33 89q0 163 236 182q12 1 125 6l8 38q23 118 -101 118q-62 0 -92 -25.5t-45 -66.5h-64q14 63 64 104t143 41q88 0 131.5 -42.5t26.5 -126.5zM371 245l2 8q-60 0 -109 -5
q-37 -3 -64 -9.5t-54 -19.5t-41.5 -37t-14.5 -58q0 -33 22.5 -55.5t65.5 -22.5q147 0 193 199zM259 718h-44l2 14q13 72 78 72q28 0 67.5 -19t51.5 -19q22 0 30 29l2 8h44l-2 -12q-12 -73 -75 -73q-23 0 -63 19t-56 19q-27 0 -34 -32zM299 675h67l89 -100h-67l-61 65
l-84 -65h-72z" />
    <glyph glyph-name="uni1EAC" unicode="&#x1eac;" horiz-adv-x="605" 
d="M447 231h-277l-127 -231h-72l391 698h78l111 -698h-68zM202 290h238q-45 286 -50 343h-1q-67 -130 -187 -343zM277 -168h-69l20 97h69zM397 877h67l104 -127h-68l-74 86l-110 -86h-76z" />
    <glyph glyph-name="uni1EAD" unicode="&#x1ead;" horiz-adv-x="515" 
d="M454 344l-46 -219q-20 -94 -24 -125h-63q3 35 16 85q-56 -95 -178 -95q-71 0 -104 37t-33 89q0 163 236 182q12 1 125 6l8 38q23 118 -101 118q-62 0 -92 -25.5t-45 -66.5h-64q14 63 64 104t143 41q88 0 131.5 -42.5t26.5 -126.5zM371 245l2 8q-60 0 -109 -5
q-37 -3 -64 -9.5t-54 -19.5t-41.5 -37t-14.5 -58q0 -33 22.5 -55.5t65.5 -22.5q147 0 193 199zM203 -178h-69l20 97h69zM321 745h63l72 -143h-64l-47 100l-96 -100h-68z" />
    <glyph glyph-name="uni1EAE" unicode="&#x1eae;" horiz-adv-x="605" 
d="M447 231h-277l-127 -231h-72l391 698h78l111 -698h-68zM202 290h238q-45 286 -50 343h-1q-67 -130 -187 -343zM502 993h89l-140 -106h-72zM268 866h56q16 -60 83 -60q69 0 106 60h57q-50 -111 -168 -111q-67 0 -98 34.5t-36 76.5z" />
    <glyph glyph-name="uni1EAF" unicode="&#x1eaf;" horiz-adv-x="515" 
d="M454 344l-46 -219q-20 -94 -24 -125h-63q3 35 16 85q-56 -95 -178 -95q-71 0 -104 37t-33 89q0 163 236 182q12 1 125 6l8 38q23 118 -101 118q-62 0 -92 -25.5t-45 -66.5h-64q14 63 64 104t143 41q88 0 131.5 -42.5t26.5 -126.5zM371 245l2 8q-60 0 -109 -5
q-37 -3 -64 -9.5t-54 -19.5t-41.5 -37t-14.5 -58q0 -33 22.5 -55.5t65.5 -22.5q147 0 193 199zM426 827h83l-155 -120h-65zM190 682h51q3 -26 21 -43t51 -17q64 0 96 60h53q-43 -111 -155 -111q-58 0 -88 32.5t-29 78.5z" />
    <glyph glyph-name="uni1EB0" unicode="&#x1eb0;" horiz-adv-x="605" 
d="M447 231h-277l-127 -231h-72l391 698h78l111 -698h-68zM202 290h238q-45 286 -50 343h-1q-67 -130 -187 -343zM280 999h83l96 -114h-63zM268 866h56q15 -60 84 -60q41 0 64.5 16t40.5 44h57q-50 -111 -169 -111q-66 0 -97.5 35t-35.5 76z" />
    <glyph glyph-name="uni1EB1" unicode="&#x1eb1;" horiz-adv-x="515" 
d="M454 344l-46 -219q-20 -94 -24 -125h-63q3 35 16 85q-56 -95 -178 -95q-71 0 -104 37t-33 89q0 163 236 182q12 1 125 6l8 38q23 118 -101 118q-62 0 -92 -25.5t-45 -66.5h-64q14 63 64 104t143 41q88 0 131.5 -42.5t26.5 -126.5zM371 245l2 8q-60 0 -109 -5
q-37 -3 -64 -9.5t-54 -19.5t-41.5 -37t-14.5 -58q0 -33 22.5 -55.5t65.5 -22.5q147 0 193 199zM197 830h76l97 -120h-60zM192 683h51q8 -60 72 -60t96 60h53q-45 -111 -155 -111q-60 0 -89 32.5t-28 78.5z" />
    <glyph glyph-name="uni1EB2" unicode="&#x1eb2;" horiz-adv-x="605" 
d="M447 231h-277l-127 -231h-72l391 698h78l111 -698h-68zM202 290h238q-45 286 -50 343h-1q-67 -130 -187 -343zM446 874h-69q73 44 73 82q0 28 -36 28q-29 0 -57 -14l-7 41q35 23 79 23q37 0 57 -19.5t20 -45.5q0 -54 -60 -95zM268 858h57q15 -60 82 -60q72 0 105 60h58
q-48 -111 -169 -111q-66 0 -98 35.5t-35 75.5z" />
    <glyph glyph-name="uni1EB3" unicode="&#x1eb3;" horiz-adv-x="515" 
d="M454 344l-46 -219q-20 -94 -24 -125h-63q3 35 16 85q-56 -95 -178 -95q-71 0 -104 37t-33 89q0 163 236 182q12 1 125 6l8 38q23 118 -101 118q-62 0 -92 -25.5t-45 -66.5h-64q14 63 64 104t143 41q88 0 131.5 -42.5t26.5 -126.5zM371 245l2 8q-60 0 -109 -5
q-37 -3 -64 -9.5t-54 -19.5t-41.5 -37t-14.5 -58q0 -33 22.5 -55.5t65.5 -22.5q147 0 193 199zM355 701h-67q78 47 78 84q0 27 -35 27q-30 0 -57 -15l-9 39q37 24 80 24q37 0 56.5 -19.5t19.5 -45.5q0 -54 -66 -94zM190 681h51q8 -60 72 -60q63 0 96 60h53
q-45 -111 -155 -111q-60 0 -89 33t-28 78z" />
    <glyph glyph-name="uni1EB4" unicode="&#x1eb4;" horiz-adv-x="605" 
d="M447 231h-277l-127 -231h-72l391 698h78l111 -698h-68zM202 290h238q-45 286 -50 343h-1q-67 -130 -187 -343zM348 899h-49l2 13q8 41 28 56t52 15q28 0 71 -18t57 -18q27 0 34 27l1 8h48l-2 -13q-17 -71 -81 -71q-25 0 -67.5 19t-59.5 19q-27 0 -33 -32zM289 852h52
q8 -55 71 -55q65 0 98 55h52q-18 -48 -58 -76t-96 -28q-60 0 -89.5 31t-29.5 73z" />
    <glyph glyph-name="uni1EB5" unicode="&#x1eb5;" horiz-adv-x="515" 
d="M454 344l-46 -219q-20 -94 -24 -125h-63q3 35 16 85q-56 -95 -178 -95q-71 0 -104 37t-33 89q0 163 236 182q12 1 125 6l8 38q23 118 -101 118q-62 0 -92 -25.5t-45 -66.5h-64q14 63 64 104t143 41q88 0 131.5 -42.5t26.5 -126.5zM371 245l2 8q-60 0 -109 -5
q-37 -3 -64 -9.5t-54 -19.5t-41.5 -37t-14.5 -58q0 -33 22.5 -55.5t65.5 -22.5q147 0 193 199zM249 723h-45l2 13q13 72 77 72q26 0 66 -18t53 -18q26 0 33 27l1 8h45l-3 -13q-13 -71 -76 -71q-24 0 -63.5 19t-55.5 19q-25 0 -33 -33zM194 674h49q7 -54 67 -54q62 0 92 54
h49q-36 -104 -146 -104q-59 0 -85.5 31t-25.5 73z" />
    <glyph glyph-name="uni1EB6" unicode="&#x1eb6;" horiz-adv-x="605" 
d="M447 231h-277l-127 -231h-72l391 698h78l111 -698h-68zM202 290h238q-45 286 -50 343h-1q-67 -130 -187 -343zM268 -160h-69l20 97h69zM285 875h52q2 -66 75 -66q72 0 104 66h53q-42 -119 -164 -119q-65 0 -93.5 35t-26.5 84z" />
    <glyph glyph-name="uni1EB7" unicode="&#x1eb7;" horiz-adv-x="515" 
d="M454 344l-46 -219q-20 -94 -24 -125h-63q3 35 16 85q-56 -95 -178 -95q-71 0 -104 37t-33 89q0 163 236 182q12 1 125 6l8 38q23 118 -101 118q-62 0 -92 -25.5t-45 -66.5h-64q14 63 64 104t143 41q88 0 131.5 -42.5t26.5 -126.5zM371 245l2 8q-60 0 -109 -5
q-37 -3 -64 -9.5t-54 -19.5t-41.5 -37t-14.5 -58q0 -33 22.5 -55.5t65.5 -22.5q147 0 193 199zM205 722h51q-1 -31 15 -51t51 -20q27 0 48 13t30 25.5t19 32.5h53q-44 -124 -156 -124q-63 0 -90.5 37t-20.5 87zM204 -185h-69l20 97h69z" />
    <glyph glyph-name="uni1EB8" unicode="&#x1eb8;" horiz-adv-x="558" 
d="M515 399l-12 -59h-330l-59 -281h378l-22 -59h-435l147 698h416l-12 -59h-349l-51 -240h329zM273 -178h-69l20 97h69z" />
    <glyph glyph-name="uni1EB9" unicode="&#x1eb9;" horiz-adv-x="502" 
d="M456 246h-351q-5 -38 -5 -55q0 -71 33 -108t90 -37q95 0 144 91h66q-65 -147 -218 -147q-89 0 -134 53.5t-45 143.5q0 57 15.5 112.5t46 104.5t82 79t116.5 30q90 0 131 -50t41 -124q0 -50 -12 -93zM117 298h285q4 20 4 42q0 119 -115 119q-62 0 -107 -42t-67 -119z
M224 -178h-69l20 97h69z" />
    <glyph glyph-name="uni1EBA" unicode="&#x1eba;" horiz-adv-x="558" 
d="M515 399l-12 -59h-330l-59 -281h378l-22 -59h-435l147 698h416l-12 -59h-349l-51 -240h329zM417 755h-72q84 47 84 88q0 35 -43 35q-32 0 -62 -16l-12 40q38 26 89 26q43 0 65.5 -22t22.5 -51q0 -56 -72 -100z" />
    <glyph glyph-name="uni1EBB" unicode="&#x1ebb;" horiz-adv-x="502" 
d="M456 246h-351q-5 -38 -5 -55q0 -71 33 -108t90 -37q95 0 144 91h66q-65 -147 -218 -147q-89 0 -134 53.5t-45 143.5q0 57 15.5 112.5t46 104.5t82 79t116.5 30q90 0 131 -50t41 -124q0 -50 -12 -93zM117 298h285q4 20 4 42q0 119 -115 119q-62 0 -107 -42t-67 -119z
M349 586h-72q84 47 84 88q0 35 -43 35q-32 0 -62 -16l-12 40q38 26 89 26q43 0 65.5 -22t22.5 -51q0 -56 -72 -100z" />
    <glyph glyph-name="uni1EBC" unicode="&#x1ebc;" horiz-adv-x="558" 
d="M515 399l-12 -59h-330l-59 -281h378l-22 -59h-435l147 698h416l-12 -59h-349l-51 -240h329zM293 788h-51l4 22q7 48 27.5 66t55.5 18q31 0 80.5 -27t66.5 -27q28 0 37 45l2 9h50l-5 -26q-9 -46 -29.5 -64.5t-55.5 -18.5q-29 0 -76 27.5t-68 27.5q-27 0 -35 -33z" />
    <glyph glyph-name="uni1EBD" unicode="&#x1ebd;" horiz-adv-x="502" 
d="M456 246h-351q-5 -38 -5 -55q0 -71 33 -108t90 -37q95 0 144 91h66q-65 -147 -218 -147q-89 0 -134 53.5t-45 143.5q0 57 15.5 112.5t46 104.5t82 79t116.5 30q90 0 131 -50t41 -124q0 -50 -12 -93zM117 298h285q4 20 4 42q0 119 -115 119q-62 0 -107 -42t-67 -119z
M220 615h-49l4 20q9 48 29 66t57 18q28 0 72 -25t57 -25q27 0 34 42l2 11h49l-4 -19q-9 -49 -28.5 -68.5t-54.5 -19.5q-25 0 -69 26t-62 26q-24 0 -33 -35z" />
    <glyph glyph-name="uni1EBE" unicode="&#x1ebe;" horiz-adv-x="558" 
d="M515 399l-12 -59h-330l-59 -281h378l-22 -59h-435l147 698h416l-12 -59h-349l-51 -240h329zM383 881h68l99 -112h-68l-69 73l-99 -73h-78zM649 979h89l-152 -109h-70z" />
    <glyph glyph-name="uni1EBF" unicode="&#x1ebf;" horiz-adv-x="502" 
d="M456 246h-351q-5 -38 -5 -55q0 -71 33 -108t90 -37q95 0 144 91h66q-65 -147 -218 -147q-89 0 -134 53.5t-45 143.5q0 57 15.5 112.5t46 104.5t82 79t116.5 30q90 0 131 -50t41 -124q0 -50 -12 -93zM117 298h285q4 20 4 42q0 119 -115 119q-62 0 -107 -42t-67 -119z
M312 712h58l81 -135h-64l-52 93l-90 -93h-68zM569 822h85l-160 -129h-64z" />
    <glyph glyph-name="uni1EC0" unicode="&#x1ec0;" horiz-adv-x="558" 
d="M515 399l-12 -59h-330l-59 -281h378l-22 -59h-435l147 698h416l-12 -59h-349l-51 -240h329zM382 883h68l99 -112h-68l-69 73l-99 -73h-78zM471 983h79l113 -122h-61z" />
    <glyph glyph-name="uni1EC1" unicode="&#x1ec1;" horiz-adv-x="502" 
d="M456 246h-351q-5 -38 -5 -55q0 -71 33 -108t90 -37q95 0 144 91h66q-65 -147 -218 -147q-89 0 -134 53.5t-45 143.5q0 57 15.5 112.5t46 104.5t82 79t116.5 30q90 0 131 -50t41 -124q0 -50 -12 -93zM117 298h285q4 20 4 42q0 119 -115 119q-62 0 -107 -42t-67 -119z
M309 710h59l81 -135h-63l-53 94l-91 -94h-67zM396 822h70l90 -144h-56z" />
    <glyph glyph-name="uni1EC2" unicode="&#x1ec2;" horiz-adv-x="558" 
d="M515 399l-12 -59h-330l-59 -281h378l-22 -59h-435l147 698h416l-12 -59h-349l-51 -240h329zM383 878h68l99 -112h-68l-69 73l-99 -73h-78zM592 856h-69q73 44 73 83q0 28 -35 28q-29 0 -57 -14l-9 39q37 24 81 24q37 0 56.5 -19.5t19.5 -45.5q0 -52 -60 -95z" />
    <glyph glyph-name="uni1EC3" unicode="&#x1ec3;" horiz-adv-x="502" 
d="M456 246h-351q-5 -38 -5 -55q0 -71 33 -108t90 -37q95 0 144 91h66q-65 -147 -218 -147q-89 0 -134 53.5t-45 143.5q0 57 15.5 112.5t46 104.5t82 79t116.5 30q90 0 131 -50t41 -124q0 -50 -12 -93zM117 298h285q4 20 4 42q0 119 -115 119q-62 0 -107 -42t-67 -119z
M309 709h59l81 -135h-64l-52 93l-90 -93h-68zM510 676h-63q21 15 32 23t25.5 27t14.5 36q0 25 -32 25q-35 0 -58 -17l-10 38q36 28 84 28q33 0 52.5 -19t19.5 -45q0 -61 -65 -96z" />
    <glyph glyph-name="uni1EC4" unicode="&#x1ec4;" horiz-adv-x="558" 
d="M515 399l-12 -59h-330l-59 -281h378l-22 -59h-435l147 698h416l-12 -59h-349l-51 -240h329zM322 900h-51l3 14q16 75 85 75q32 0 77.5 -19t63.5 -19q27 0 34 29l2 7h50l-2 -11q-12 -77 -88 -77q-25 0 -70.5 20t-67.5 20q-28 0 -34 -33zM373 861h74l102 -94h-74l-68 57
l-91 -57h-83z" />
    <glyph glyph-name="uni1EC5" unicode="&#x1ec5;" horiz-adv-x="502" 
d="M456 246h-351q-5 -38 -5 -55q0 -71 33 -108t90 -37q95 0 144 91h66q-65 -147 -218 -147q-89 0 -134 53.5t-45 143.5q0 57 15.5 112.5t46 104.5t82 79t116.5 30q90 0 131 -50t41 -124q0 -50 -12 -93zM117 298h285q4 20 4 42q0 119 -115 119q-62 0 -107 -42t-67 -119z
M249 712h-44l2 14q13 72 78 72q28 0 67.5 -19t51.5 -19q22 0 30 29l2 8h44l-2 -12q-12 -73 -75 -73q-23 0 -63 19t-56 19q-27 0 -34 -32zM289 669h67l89 -100h-67l-61 65l-84 -65h-72z" />
    <glyph glyph-name="uni1EC6" unicode="&#x1ec6;" horiz-adv-x="558" 
d="M515 399l-12 -59h-330l-59 -281h378l-22 -59h-435l147 698h416l-12 -59h-349l-51 -240h329zM269 -178h-69l20 97h69zM384 895h67l104 -127h-68l-74 86l-110 -86h-76z" />
    <glyph glyph-name="uni1EC7" unicode="&#x1ec7;" horiz-adv-x="502" 
d="M456 246h-351q-5 -38 -5 -55q0 -71 33 -108t90 -37q95 0 144 91h66q-65 -147 -218 -147q-89 0 -134 53.5t-45 143.5q0 57 15.5 112.5t46 104.5t82 79t116.5 30q90 0 131 -50t41 -124q0 -50 -12 -93zM117 298h285q4 20 4 42q0 119 -115 119q-62 0 -107 -42t-67 -119z
M216 -178h-69l20 97h69zM314 745h63l72 -143h-64l-47 100l-96 -100h-68z" />
    <glyph glyph-name="uni1EC8" unicode="&#x1ec8;" horiz-adv-x="247" 
d="M183 698h67l-147 -698h-68zM254 754h-72q84 47 84 88q0 35 -43 35q-32 0 -62 -16l-12 40q38 26 89 26q43 0 65.5 -22t22.5 -51q0 -56 -72 -100z" />
    <glyph glyph-name="uni1EC9" unicode="&#x1ec9;" horiz-adv-x="220" 
d="M24 0l107 503h63l-107 -503h-63zM210 586h-72q84 47 84 88q0 35 -43 35q-32 0 -62 -16l-12 40q38 26 89 26q43 0 65.5 -22t22.5 -51q0 -56 -72 -100z" />
    <glyph glyph-name="uni1ECA" unicode="&#x1eca;" horiz-adv-x="247" 
d="M183 698h67l-147 -698h-68zM68 -178h-69l20 97h69z" />
    <glyph glyph-name="uni1ECB" unicode="&#x1ecb;" horiz-adv-x="220" 
d="M24 0l107 503h63l-107 -503h-63zM159 633l21 103h63l-21 -103h-63zM55 -186h-69l20 97h69z" />
    <glyph glyph-name="uni1ECC" unicode="&#x1ecc;" horiz-adv-x="721" 
d="M424 708q125 0 193 -76t68 -212q0 -61 -13.5 -121t-42.5 -116t-70.5 -99t-103 -68.5t-134.5 -25.5q-123 0 -191.5 77t-68.5 204q0 79 23.5 155t67 140t114.5 103t158 39zM419 650q-57 0 -105.5 -23t-81.5 -61t-56 -87.5t-34 -101.5t-11 -104q0 -99 50 -162t149 -63
q91 0 157.5 57t97 140t30.5 177q0 105 -50.5 166.5t-145.5 61.5zM313 -178h-69l20 97h69z" />
    <glyph glyph-name="uni1ECD" unicode="&#x1ecd;" horiz-adv-x="524" 
d="M300 513q85 0 134.5 -54.5t49.5 -150.5q0 -54 -15.5 -108t-46 -102t-83 -78t-118.5 -30q-86 0 -134.5 53t-48.5 148q0 75 27.5 146.5t89.5 123.5t145 52zM293 457q-59 0 -104 -42.5t-65.5 -101.5t-20.5 -121q0 -68 32.5 -107t92.5 -39q62 0 107 43t64 100.5t19 118.5
q0 71 -31.5 110t-93.5 39zM215 -180h-69l20 97h69z" />
    <glyph glyph-name="uni1ECE" unicode="&#x1ece;" horiz-adv-x="721" 
d="M424 708q125 0 193 -76t68 -212q0 -61 -13.5 -121t-42.5 -116t-70.5 -99t-103 -68.5t-134.5 -25.5q-123 0 -191.5 77t-68.5 204q0 79 23.5 155t67 140t114.5 103t158 39zM419 650q-57 0 -105.5 -23t-81.5 -61t-56 -87.5t-34 -101.5t-11 -104q0 -99 50 -162t149 -63
q91 0 157.5 57t97 140t30.5 177q0 105 -50.5 166.5t-145.5 61.5zM470 762h-72q84 47 84 88q0 35 -43 35q-32 0 -62 -16l-12 40q38 26 89 26q43 0 65.5 -22t22.5 -51q0 -56 -72 -100z" />
    <glyph glyph-name="uni1ECF" unicode="&#x1ecf;" horiz-adv-x="524" 
d="M300 513q85 0 134.5 -54.5t49.5 -150.5q0 -54 -15.5 -108t-46 -102t-83 -78t-118.5 -30q-86 0 -134.5 53t-48.5 148q0 75 27.5 146.5t89.5 123.5t145 52zM293 457q-59 0 -104 -42.5t-65.5 -101.5t-20.5 -121q0 -68 32.5 -107t92.5 -39q62 0 107 43t64 100.5t19 118.5
q0 71 -31.5 110t-93.5 39zM352 586h-72q84 47 84 88q0 35 -43 35q-32 0 -62 -16l-12 40q38 26 89 26q43 0 65.5 -22t22.5 -51q0 -56 -72 -100z" />
    <glyph glyph-name="uni1ED0" unicode="&#x1ed0;" horiz-adv-x="721" 
d="M424 708q125 0 193 -76t68 -212q0 -61 -13.5 -121t-42.5 -116t-70.5 -99t-103 -68.5t-134.5 -25.5q-123 0 -191.5 77t-68.5 204q0 79 23.5 155t67 140t114.5 103t158 39zM419 650q-57 0 -105.5 -23t-81.5 -61t-56 -87.5t-34 -101.5t-11 -104q0 -99 50 -162t149 -63
q91 0 157.5 57t97 140t30.5 177q0 105 -50.5 166.5t-145.5 61.5zM433 883h68l99 -112h-68l-69 73l-99 -73h-78zM699 981h89l-152 -109h-70z" />
    <glyph glyph-name="uni1ED1" unicode="&#x1ed1;" horiz-adv-x="524" 
d="M300 513q85 0 134.5 -54.5t49.5 -150.5q0 -54 -15.5 -108t-46 -102t-83 -78t-118.5 -30q-86 0 -134.5 53t-48.5 148q0 75 27.5 146.5t89.5 123.5t145 52zM293 457q-59 0 -104 -42.5t-65.5 -101.5t-20.5 -121q0 -68 32.5 -107t92.5 -39q62 0 107 43t64 100.5t19 118.5
q0 71 -31.5 110t-93.5 39zM314 712h58l81 -135h-64l-52 93l-90 -93h-68zM571 822h85l-160 -129h-64z" />
    <glyph glyph-name="uni1ED2" unicode="&#x1ed2;" horiz-adv-x="721" 
d="M424 708q125 0 193 -76t68 -212q0 -61 -13.5 -121t-42.5 -116t-70.5 -99t-103 -68.5t-134.5 -25.5q-123 0 -191.5 77t-68.5 204q0 79 23.5 155t67 140t114.5 103t158 39zM419 650q-57 0 -105.5 -23t-81.5 -61t-56 -87.5t-34 -101.5t-11 -104q0 -99 50 -162t149 -63
q91 0 157.5 57t97 140t30.5 177q0 105 -50.5 166.5t-145.5 61.5zM431 878h68l99 -112h-68l-69 73l-99 -73h-78zM520 978h79l113 -122h-61z" />
    <glyph glyph-name="uni1ED3" unicode="&#x1ed3;" horiz-adv-x="524" 
d="M300 513q85 0 134.5 -54.5t49.5 -150.5q0 -54 -15.5 -108t-46 -102t-83 -78t-118.5 -30q-86 0 -134.5 53t-48.5 148q0 75 27.5 146.5t89.5 123.5t145 52zM293 457q-59 0 -104 -42.5t-65.5 -101.5t-20.5 -121q0 -68 32.5 -107t92.5 -39q62 0 107 43t64 100.5t19 118.5
q0 71 -31.5 110t-93.5 39zM313 710h59l81 -135h-63l-53 94l-91 -94h-67zM400 822h70l90 -144h-56z" />
    <glyph glyph-name="uni1ED4" unicode="&#x1ed4;" horiz-adv-x="721" 
d="M424 708q125 0 193 -76t68 -212q0 -61 -13.5 -121t-42.5 -116t-70.5 -99t-103 -68.5t-134.5 -25.5q-123 0 -191.5 77t-68.5 204q0 79 23.5 155t67 140t114.5 103t158 39zM419 650q-57 0 -105.5 -23t-81.5 -61t-56 -87.5t-34 -101.5t-11 -104q0 -99 50 -162t149 -63
q91 0 157.5 57t97 140t30.5 177q0 105 -50.5 166.5t-145.5 61.5zM425 877h68l99 -112h-68l-69 73l-99 -73h-78zM634 855h-69q73 44 73 83q0 28 -35 28q-29 0 -57 -14l-9 39q37 24 81 24q37 0 56.5 -19.5t19.5 -45.5q0 -52 -60 -95z" />
    <glyph glyph-name="uni1ED5" unicode="&#x1ed5;" horiz-adv-x="524" 
d="M300 513q85 0 134.5 -54.5t49.5 -150.5q0 -54 -15.5 -108t-46 -102t-83 -78t-118.5 -30q-86 0 -134.5 53t-48.5 148q0 75 27.5 146.5t89.5 123.5t145 52zM293 457q-59 0 -104 -42.5t-65.5 -101.5t-20.5 -121q0 -68 32.5 -107t92.5 -39q62 0 107 43t64 100.5t19 118.5
q0 71 -31.5 110t-93.5 39zM313 710h59l81 -135h-64l-52 93l-90 -93h-68zM514 677h-63q21 15 32 23t25.5 27t14.5 36q0 25 -32 25q-35 0 -58 -17l-10 38q36 28 84 28q33 0 52.5 -19t19.5 -45q0 -61 -65 -96z" />
    <glyph glyph-name="uni1ED6" unicode="&#x1ed6;" horiz-adv-x="721" 
d="M424 708q125 0 193 -76t68 -212q0 -61 -13.5 -121t-42.5 -116t-70.5 -99t-103 -68.5t-134.5 -25.5q-123 0 -191.5 77t-68.5 204q0 79 23.5 155t67 140t114.5 103t158 39zM419 650q-57 0 -105.5 -23t-81.5 -61t-56 -87.5t-34 -101.5t-11 -104q0 -99 50 -162t149 -63
q91 0 157.5 57t97 140t30.5 177q0 105 -50.5 166.5t-145.5 61.5zM372 897h-51l3 14q16 75 85 75q32 0 77.5 -19t63.5 -19q27 0 34 29l2 7h50l-2 -11q-12 -77 -88 -77q-26 0 -71 20t-67 20q-28 0 -34 -33zM423 858h74l102 -94h-74l-68 57l-91 -57h-83z" />
    <glyph glyph-name="uni1ED7" unicode="&#x1ed7;" horiz-adv-x="524" 
d="M300 513q85 0 134.5 -54.5t49.5 -150.5q0 -54 -15.5 -108t-46 -102t-83 -78t-118.5 -30q-86 0 -134.5 53t-48.5 148q0 75 27.5 146.5t89.5 123.5t145 52zM293 457q-59 0 -104 -42.5t-65.5 -101.5t-20.5 -121q0 -68 32.5 -107t92.5 -39q62 0 107 43t64 100.5t19 118.5
q0 71 -31.5 110t-93.5 39zM260 713h-44l2 14q13 72 78 72q28 0 67.5 -19t51.5 -19q22 0 30 29l2 8h44l-2 -12q-12 -73 -75 -73q-23 0 -63 19t-56 19q-27 0 -34 -32zM300 670h67l89 -100h-67l-61 65l-84 -65h-72z" />
    <glyph glyph-name="uni1ED8" unicode="&#x1ed8;" horiz-adv-x="721" 
d="M424 708q125 0 193 -76t68 -212q0 -61 -13.5 -121t-42.5 -116t-70.5 -99t-103 -68.5t-134.5 -25.5q-123 0 -191.5 77t-68.5 204q0 79 23.5 155t67 140t114.5 103t158 39zM419 650q-57 0 -105.5 -23t-81.5 -61t-56 -87.5t-34 -101.5t-11 -104q0 -99 50 -162t149 -63
q91 0 157.5 57t97 140t30.5 177q0 105 -50.5 166.5t-145.5 61.5zM313 -178h-69l20 97h69zM446 888h67l104 -127h-68l-74 86l-110 -86h-76z" />
    <glyph glyph-name="uni1ED9" unicode="&#x1ed9;" horiz-adv-x="524" 
d="M300 513q85 0 134.5 -54.5t49.5 -150.5q0 -54 -15.5 -108t-46 -102t-83 -78t-118.5 -30q-86 0 -134.5 53t-48.5 148q0 75 27.5 146.5t89.5 123.5t145 52zM293 457q-59 0 -104 -42.5t-65.5 -101.5t-20.5 -121q0 -68 32.5 -107t92.5 -39q62 0 107 43t64 100.5t19 118.5
q0 71 -31.5 110t-93.5 39zM216 -178h-69l20 97h69zM325 746h63l72 -143h-64l-47 100l-96 -100h-68z" />
    <glyph glyph-name="uni1EDA" unicode="&#x1eda;" horiz-adv-x="721" 
d="M424 708q122 0 190 -73q41 6 57.5 26t16.5 57q0 22 -3 36h63q2 -10 2 -30q0 -111 -103 -134q38 -68 38 -170q0 -61 -13.5 -121t-42.5 -116t-70.5 -99t-103 -68.5t-134.5 -25.5q-123 0 -191.5 77t-68.5 204q0 79 23.5 155t67 140t114.5 103t158 39zM419 650
q-57 0 -105.5 -23t-81.5 -61t-56 -87.5t-34 -101.5t-11 -104q0 -99 50 -162t149 -63q91 0 157.5 57t97 140t30.5 177q0 105 -50.5 166.5t-145.5 61.5zM584 908h97l-202 -137h-78z" />
    <glyph glyph-name="uni1EDB" unicode="&#x1edb;" horiz-adv-x="524" 
d="M300 513q86 0 136 -56q39 7 55 27t16 56q0 22 -3 36h63q2 -10 2 -30q0 -113 -104 -134q19 -46 19 -104q0 -54 -15.5 -108t-46 -102t-83 -78t-118.5 -30q-86 0 -134.5 53t-48.5 148q0 75 27.5 146.5t89.5 123.5t145 52zM293 457q-59 0 -104 -42.5t-65.5 -101.5t-20.5 -121
q0 -68 32.5 -107t92.5 -39q62 0 107 43t64 100.5t19 118.5q0 71 -31.5 110t-93.5 39zM452 749h90l-199 -154h-74z" />
    <glyph glyph-name="uni1EDC" unicode="&#x1edc;" horiz-adv-x="721" 
d="M424 708q122 0 190 -73q41 6 57.5 26t16.5 57q0 22 -3 36h63q2 -10 2 -30q0 -111 -103 -134q38 -68 38 -170q0 -61 -13.5 -121t-42.5 -116t-70.5 -99t-103 -68.5t-134.5 -25.5q-123 0 -191.5 77t-68.5 204q0 79 23.5 155t67 140t114.5 103t158 39zM419 650
q-57 0 -105.5 -23t-81.5 -61t-56 -87.5t-34 -101.5t-11 -104q0 -99 50 -162t149 -63q91 0 157.5 57t97 140t30.5 177q0 105 -50.5 166.5t-145.5 61.5zM276 898h86l135 -137h-70z" />
    <glyph glyph-name="uni1EDD" unicode="&#x1edd;" horiz-adv-x="524" 
d="M300 513q86 0 136 -56q39 7 55 27t16 56q0 22 -3 36h63q2 -10 2 -30q0 -113 -104 -134q19 -46 19 -104q0 -54 -15.5 -108t-46 -102t-83 -78t-118.5 -30q-86 0 -134.5 53t-48.5 148q0 75 27.5 146.5t89.5 123.5t145 52zM293 457q-59 0 -104 -42.5t-65.5 -101.5t-20.5 -121
q0 -68 32.5 -107t92.5 -39q62 0 107 43t64 100.5t19 118.5q0 71 -31.5 110t-93.5 39zM184 749h74l113 -154h-62z" />
    <glyph glyph-name="uni1EDE" unicode="&#x1ede;" horiz-adv-x="721" 
d="M424 708q122 0 190 -73q41 6 57.5 26t16.5 57q0 22 -3 36h63q2 -10 2 -30q0 -111 -103 -134q38 -68 38 -170q0 -61 -13.5 -121t-42.5 -116t-70.5 -99t-103 -68.5t-134.5 -25.5q-123 0 -191.5 77t-68.5 204q0 79 23.5 155t67 140t114.5 103t158 39zM419 650
q-57 0 -105.5 -23t-81.5 -61t-56 -87.5t-34 -101.5t-11 -104q0 -99 50 -162t149 -63q91 0 157.5 57t97 140t30.5 177q0 105 -50.5 166.5t-145.5 61.5zM480 758h-72q84 47 84 88q0 35 -43 35q-32 0 -62 -16l-12 40q38 26 89 26q43 0 65.5 -22t22.5 -51q0 -56 -72 -100z" />
    <glyph glyph-name="uni1EDF" unicode="&#x1edf;" horiz-adv-x="524" 
d="M300 513q86 0 136 -56q39 7 55 27t16 56q0 22 -3 36h63q2 -10 2 -30q0 -113 -104 -134q19 -46 19 -104q0 -54 -15.5 -108t-46 -102t-83 -78t-118.5 -30q-86 0 -134.5 53t-48.5 148q0 75 27.5 146.5t89.5 123.5t145 52zM293 457q-59 0 -104 -42.5t-65.5 -101.5t-20.5 -121
q0 -68 32.5 -107t92.5 -39q62 0 107 43t64 100.5t19 118.5q0 71 -31.5 110t-93.5 39zM352 586h-72q84 47 84 88q0 35 -43 35q-32 0 -62 -16l-12 40q38 26 89 26q43 0 65.5 -22t22.5 -51q0 -56 -72 -100z" />
    <glyph glyph-name="uni1EE0" unicode="&#x1ee0;" horiz-adv-x="721" 
d="M424 708q122 0 190 -73q41 6 57.5 26t16.5 57q0 22 -3 36h63q2 -10 2 -30q0 -111 -103 -134q38 -68 38 -170q0 -61 -13.5 -121t-42.5 -116t-70.5 -99t-103 -68.5t-134.5 -25.5q-123 0 -191.5 77t-68.5 204q0 79 23.5 155t67 140t114.5 103t158 39zM419 650
q-57 0 -105.5 -23t-81.5 -61t-56 -87.5t-34 -101.5t-11 -104q0 -99 50 -162t149 -63q91 0 157.5 57t97 140t30.5 177q0 105 -50.5 166.5t-145.5 61.5zM342 774h-51l4 22q7 48 27.5 66t55.5 18q31 0 80.5 -27t66.5 -27q28 0 37 45l2 9h50l-5 -26q-9 -46 -29.5 -64.5
t-55.5 -18.5q-29 0 -76 27.5t-68 27.5q-27 0 -35 -33z" />
    <glyph glyph-name="uni1EE1" unicode="&#x1ee1;" horiz-adv-x="524" 
d="M300 513q86 0 136 -56q39 7 55 27t16 56q0 22 -3 36h63q2 -10 2 -30q0 -113 -104 -134q19 -46 19 -104q0 -54 -15.5 -108t-46 -102t-83 -78t-118.5 -30q-86 0 -134.5 53t-48.5 148q0 75 27.5 146.5t89.5 123.5t145 52zM293 457q-59 0 -104 -42.5t-65.5 -101.5t-20.5 -121
q0 -68 32.5 -107t92.5 -39q62 0 107 43t64 100.5t19 118.5q0 71 -31.5 110t-93.5 39zM239 615h-49l4 20q9 48 29 66t57 18q28 0 72 -25t57 -25q27 0 34 42l2 11h49l-4 -19q-9 -49 -28.5 -68.5t-54.5 -19.5q-25 0 -69 26t-62 26q-24 0 -33 -35z" />
    <glyph glyph-name="uni1EE2" unicode="&#x1ee2;" horiz-adv-x="721" 
d="M424 708q122 0 190 -73q41 6 57.5 26t16.5 57q0 22 -3 36h63q2 -10 2 -30q0 -111 -103 -134q38 -68 38 -170q0 -61 -13.5 -121t-42.5 -116t-70.5 -99t-103 -68.5t-134.5 -25.5q-123 0 -191.5 77t-68.5 204q0 79 23.5 155t67 140t114.5 103t158 39zM419 650
q-57 0 -105.5 -23t-81.5 -61t-56 -87.5t-34 -101.5t-11 -104q0 -99 50 -162t149 -63q91 0 157.5 57t97 140t30.5 177q0 105 -50.5 166.5t-145.5 61.5zM313 -180h-69l20 97h69z" />
    <glyph glyph-name="uni1EE3" unicode="&#x1ee3;" horiz-adv-x="524" 
d="M300 513q86 0 136 -56q39 7 55 27t16 56q0 22 -3 36h63q2 -10 2 -30q0 -113 -104 -134q19 -46 19 -104q0 -54 -15.5 -108t-46 -102t-83 -78t-118.5 -30q-86 0 -134.5 53t-48.5 148q0 75 27.5 146.5t89.5 123.5t145 52zM293 457q-59 0 -104 -42.5t-65.5 -101.5t-20.5 -121
q0 -68 32.5 -107t92.5 -39q62 0 107 43t64 100.5t19 118.5q0 71 -31.5 110t-93.5 39zM216 -178h-69l20 97h69z" />
    <glyph glyph-name="uni1EE4" unicode="&#x1ee4;" horiz-adv-x="664" 
d="M172 698h68l-91 -427q-25 -117 19 -169t133 -52q100 0 146.5 48.5t72.5 175.5l91 424h68l-92 -431q-33 -154 -95.5 -214.5t-196.5 -60.5q-124 0 -184 69.5t-29 212.5zM289 -171h-69l20 97h69z" />
    <glyph glyph-name="uni1EE5" unicode="&#x1ee5;" horiz-adv-x="531" 
d="M505 503l-79 -368q-11 -50 -26 -135h-62q1 22 16 93q-26 -46 -70 -74.5t-103 -28.5q-74 0 -109 45t-14 143l71 325h62l-68 -320q-6 -36 -7 -66.5t20 -50.5t64 -20q67 0 117 53t73 163l51 241h64zM210 -180h-69l20 97h69z" />
    <glyph glyph-name="uni1EE6" unicode="&#x1ee6;" horiz-adv-x="664" 
d="M172 698h68l-91 -427q-25 -117 19 -169t133 -52q100 0 146.5 48.5t72.5 175.5l91 424h68l-92 -431q-33 -154 -95.5 -214.5t-196.5 -60.5q-124 0 -184 69.5t-29 212.5zM447 743h-72q84 47 84 88q0 35 -43 35q-32 0 -62 -16l-12 40q38 26 89 26q43 0 65.5 -22t22.5 -51
q0 -56 -72 -100z" />
    <glyph glyph-name="uni1EE7" unicode="&#x1ee7;" horiz-adv-x="531" 
d="M505 503l-79 -368q-11 -50 -26 -135h-62q1 22 16 93q-26 -46 -70 -74.5t-103 -28.5q-74 0 -109 45t-14 143l71 325h62l-68 -320q-6 -36 -7 -66.5t20 -50.5t64 -20q67 0 117 53t73 163l51 241h64zM349 586h-72q84 47 84 88q0 35 -43 35q-32 0 -62 -16l-12 40q38 26 89 26
q43 0 65.5 -22t22.5 -51q0 -56 -72 -100z" />
    <glyph glyph-name="uni1EE8" unicode="&#x1ee8;" horiz-adv-x="664" 
d="M172 698h68l-91 -427q-25 -117 19 -169t133 -52q100 0 146.5 48.5t72.5 175.5l91 424h19q49 4 69 24.5t20 60.5q0 23 -3 36h63q2 -10 2 -30q0 -116 -112 -136l-82 -386q-33 -154 -95.5 -214.5t-196.5 -60.5q-124 0 -184 69.5t-29 212.5zM549 892h97l-202 -137h-78z" />
    <glyph glyph-name="uni1EE9" unicode="&#x1ee9;" horiz-adv-x="531" 
d="M354 93q-26 -46 -70 -74.5t-103 -28.5q-74 0 -109 45t-14 143l71 325h62l-68 -320q-6 -36 -7 -66.5t20 -50.5t64 -20q67 0 117 53t73 163l51 241h22q49 4 69 24.5t20 60.5q0 22 -3 36h63q2 -10 2 -30q0 -120 -119 -137l-69 -322q-11 -50 -26 -135h-62q1 22 16 93z
M448 749h90l-199 -154h-74z" />
    <glyph glyph-name="uni1EEA" unicode="&#x1eea;" horiz-adv-x="664" 
d="M172 698h68l-91 -427q-25 -117 19 -169t133 -52q100 0 146.5 48.5t72.5 175.5l91 424h19q49 4 69 24.5t20 60.5q0 23 -3 36h63q2 -10 2 -30q0 -116 -112 -136l-82 -386q-33 -154 -95.5 -214.5t-196.5 -60.5q-124 0 -184 69.5t-29 212.5zM265 891h86l135 -137h-70z" />
    <glyph glyph-name="uni1EEB" unicode="&#x1eeb;" horiz-adv-x="531" 
d="M354 93q-26 -46 -70 -74.5t-103 -28.5q-74 0 -109 45t-14 143l71 325h62l-68 -320q-6 -36 -7 -66.5t20 -50.5t64 -20q67 0 117 53t73 163l51 241h22q49 4 69 24.5t20 60.5q0 22 -3 36h63q2 -10 2 -30q0 -120 -119 -137l-69 -322q-11 -50 -26 -135h-62q1 22 16 93z
M191 749h74l113 -154h-62z" />
    <glyph glyph-name="uni1EEC" unicode="&#x1eec;" horiz-adv-x="664" 
d="M172 698h68l-91 -427q-25 -117 19 -169t133 -52q100 0 146.5 48.5t72.5 175.5l91 424h19q49 4 69 24.5t20 60.5q0 23 -3 36h63q2 -10 2 -30q0 -116 -112 -136l-82 -386q-33 -154 -95.5 -214.5t-196.5 -60.5q-124 0 -184 69.5t-29 212.5zM450 743h-72q84 47 84 88
q0 35 -43 35q-32 0 -62 -16l-12 40q38 26 89 26q43 0 65.5 -22t22.5 -51q0 -56 -72 -100z" />
    <glyph glyph-name="uni1EED" unicode="&#x1eed;" horiz-adv-x="531" 
d="M354 93q-26 -46 -70 -74.5t-103 -28.5q-74 0 -109 45t-14 143l71 325h62l-68 -320q-6 -36 -7 -66.5t20 -50.5t64 -20q67 0 117 53t73 163l51 241h22q49 4 69 24.5t20 60.5q0 22 -3 36h63q2 -10 2 -30q0 -120 -119 -137l-69 -322q-11 -50 -26 -135h-62q1 22 16 93z
M362 586h-72q84 47 84 88q0 35 -43 35q-32 0 -62 -16l-12 40q38 26 89 26q43 0 65.5 -22t22.5 -51q0 -56 -72 -100z" />
    <glyph glyph-name="uni1EEE" unicode="&#x1eee;" horiz-adv-x="664" 
d="M172 698h68l-91 -427q-25 -117 19 -169t133 -52q100 0 146.5 48.5t72.5 175.5l91 424h19q49 4 69 24.5t20 60.5q0 23 -3 36h63q2 -10 2 -30q0 -116 -112 -136l-82 -386q-33 -154 -95.5 -214.5t-196.5 -60.5q-124 0 -184 69.5t-29 212.5zM337 768h-51l4 22q7 48 27.5 66
t55.5 18q31 0 80.5 -27t66.5 -27q28 0 37 45l2 9h50l-5 -26q-9 -46 -29.5 -64.5t-55.5 -18.5q-29 0 -76 27.5t-68 27.5q-27 0 -35 -33z" />
    <glyph glyph-name="uni1EEF" unicode="&#x1eef;" horiz-adv-x="531" 
d="M354 93q-26 -46 -70 -74.5t-103 -28.5q-74 0 -109 45t-14 143l71 325h62l-68 -320q-6 -36 -7 -66.5t20 -50.5t64 -20q67 0 117 53t73 163l51 241h22q49 4 69 24.5t20 60.5q0 22 -3 36h63q2 -10 2 -30q0 -120 -119 -137l-69 -322q-11 -50 -26 -135h-62q1 22 16 93z
M242 615h-49l4 20q9 48 29 66t57 18q28 0 72 -25t57 -25q27 0 34 42l2 11h49l-4 -19q-9 -49 -28.5 -68.5t-54.5 -19.5q-25 0 -69 26t-62 26q-24 0 -33 -35z" />
    <glyph glyph-name="uni1EF0" unicode="&#x1ef0;" horiz-adv-x="664" 
d="M172 698h68l-91 -427q-25 -117 19 -169t133 -52q100 0 146.5 48.5t72.5 175.5l91 424h19q49 4 69 24.5t20 60.5q0 23 -3 36h63q2 -10 2 -30q0 -116 -112 -136l-82 -386q-33 -154 -95.5 -214.5t-196.5 -60.5q-124 0 -184 69.5t-29 212.5zM287 -171h-69l20 97h69z" />
    <glyph glyph-name="uni1EF1" unicode="&#x1ef1;" horiz-adv-x="531" 
d="M354 93q-26 -46 -70 -74.5t-103 -28.5q-74 0 -109 45t-14 143l71 325h62l-68 -320q-6 -36 -7 -66.5t20 -50.5t64 -20q67 0 117 53t73 163l51 241h22q49 4 69 24.5t20 60.5q0 22 -3 36h63q2 -10 2 -30q0 -120 -119 -137l-69 -322q-11 -50 -26 -135h-62q1 22 16 93z
M219 -178h-69l20 97h69z" />
    <glyph glyph-name="Ygrave" unicode="&#x1ef2;" horiz-adv-x="544" 
d="M244 0h-67l55 265q2 9 -1 17l-154 416h71q21 -59 72.5 -200t60.5 -167q45 67 283 367h75l-333 -421q-4 -5 -7 -16zM176 888h86l135 -137h-70z" />
    <glyph glyph-name="ygrave" unicode="&#x1ef3;" horiz-adv-x="468" 
d="M61 503h64q58 -378 63 -455h1q10 19 39.5 79t81.5 162t113 214h68l-282 -533q-33 -62 -58.5 -98.5t-52.5 -54.5t-49 -22.5t-60 -4.5q-34 0 -54 6l15 59q30 -5 46 -5q49 0 76.5 24.5t70.5 98.5zM139 748h74l113 -154h-62z" />
    <glyph glyph-name="uni1EF4" unicode="&#x1ef4;" horiz-adv-x="544" 
d="M244 0h-67l55 265q2 9 -1 17l-154 416h71q21 -59 72.5 -200t60.5 -167q45 67 283 367h75l-333 -421q-4 -5 -7 -16zM211 -178h-69l20 97h69z" />
    <glyph glyph-name="uni1EF5" unicode="&#x1ef5;" horiz-adv-x="468" 
d="M61 503h64q58 -378 63 -455h1q10 19 39.5 79t81.5 162t113 214h68l-282 -533q-33 -62 -58.5 -98.5t-52.5 -54.5t-49 -22.5t-60 -4.5q-34 0 -54 6l15 59q30 -5 46 -5q49 0 76.5 24.5t70.5 98.5zM331 -195h-69l20 97h69z" />
    <glyph glyph-name="uni1EF6" unicode="&#x1ef6;" horiz-adv-x="544" 
d="M244 0h-67l55 265q2 9 -1 17l-154 416h71q21 -59 72.5 -200t60.5 -167q45 67 283 367h75l-333 -421q-4 -5 -7 -16zM372 736h-72q84 47 84 88q0 35 -43 35q-32 0 -62 -16l-12 40q38 26 89 26q43 0 65.5 -22t22.5 -51q0 -56 -72 -100z" />
    <glyph glyph-name="uni1EF7" unicode="&#x1ef7;" horiz-adv-x="468" 
d="M61 503h64q58 -378 63 -455h1q10 19 39.5 79t81.5 162t113 214h68l-282 -533q-33 -62 -58.5 -98.5t-52.5 -54.5t-49 -22.5t-60 -4.5q-34 0 -54 6l15 59q30 -5 46 -5q49 0 76.5 24.5t70.5 98.5zM305 586h-72q84 47 84 88q0 35 -43 35q-32 0 -62 -16l-12 40q38 26 89 26
q43 0 65.5 -22t22.5 -51q0 -56 -72 -100z" />
    <glyph glyph-name="uni1EF8" unicode="&#x1ef8;" horiz-adv-x="544" 
d="M244 0h-67l55 265q2 9 -1 17l-154 416h71q21 -59 72.5 -200t60.5 -167q45 67 283 367h75l-333 -421q-4 -5 -7 -16zM259 764h-51l4 22q7 48 27.5 66t55.5 18q31 0 80.5 -27t66.5 -27q28 0 37 45l2 9h50l-5 -26q-9 -46 -29.5 -64.5t-55.5 -18.5q-29 0 -76 27.5t-68 27.5
q-27 0 -35 -33z" />
    <glyph glyph-name="uni1EF9" unicode="&#x1ef9;" horiz-adv-x="468" 
d="M61 503h64q58 -378 63 -455h1q10 19 39.5 79t81.5 162t113 214h68l-282 -533q-33 -62 -58.5 -98.5t-52.5 -54.5t-49 -22.5t-60 -4.5q-34 0 -54 6l15 59q30 -5 46 -5q49 0 76.5 24.5t70.5 98.5zM192 615h-49l4 20q9 48 29 66t57 18q28 0 72 -25t57 -25q27 0 34 42l2 11h49
l-4 -19q-9 -49 -28.5 -68.5t-54.5 -19.5q-25 0 -69 26t-62 26q-24 0 -33 -35z" />
    <glyph glyph-name="uni2007" unicode="&#x2007;" horiz-adv-x="537" 
 />
    <glyph glyph-name="uni2010" unicode="&#x2010;" horiz-adv-x="360" 
d="M63 286h246l-12 -61h-247z" />
    <glyph glyph-name="figuredash" unicode="&#x2012;" horiz-adv-x="537" 
d="M100 361h349l-12 -63h-349z" />
    <glyph glyph-name="endash" unicode="&#x2013;" horiz-adv-x="504" 
d="M63 286h390l-13 -61h-390z" />
    <glyph glyph-name="emdash" unicode="&#x2014;" horiz-adv-x="904" 
d="M63 286h790l-13 -61h-790z" />
    <glyph glyph-name="uni2015" unicode="&#x2015;" horiz-adv-x="904" 
d="M63 286h790l-13 -61h-790z" />
    <glyph glyph-name="quoteleft" unicode="&#x2018;" horiz-adv-x="179" 
d="M192 736h57q-37 -56 -66.5 -127.5t-41.5 -123.5h-66q14 63 49.5 137t67.5 114z" />
    <glyph glyph-name="quoteright" unicode="&#x2019;" horiz-adv-x="184" 
d="M132 485h-57q37 56 67 127.5t41 123.5h65q-14 -63 -49 -137.5t-67 -113.5z" />
    <glyph glyph-name="quotesinglbase" unicode="&#x201a;" horiz-adv-x="184" 
d="M-23 -126h-57q37 56 66.5 127.5t41.5 123.5h66q-14 -63 -49.5 -137t-67.5 -114z" />
    <glyph glyph-name="quotedblleft" unicode="&#x201c;" horiz-adv-x="321" 
d="M334 736h57q-79 -130 -108 -251h-64q15 62 49.5 136t65.5 115zM191 736h56q-34 -55 -65 -127t-43 -124h-63q15 62 49.5 136.5t65.5 114.5z" />
    <glyph glyph-name="quotedblright" unicode="&#x201d;" horiz-adv-x="326" 
d="M132 485h-57q80 131 108 251h63q-14 -63 -48.5 -137t-65.5 -114zM275 485h-56q34 54 65 126.5t43 124.5h63q-15 -63 -49.5 -137.5t-65.5 -113.5z" />
    <glyph glyph-name="quotedblbase" unicode="&#x201e;" horiz-adv-x="299" 
d="M-20 -127h-57q79 130 108 251h64q-14 -62 -49 -136.5t-66 -114.5zM124 -127h-57q34 56 65 127.5t43 123.5h63q-15 -62 -49.5 -137t-64.5 -114z" />
    <glyph glyph-name="dagger" unicode="&#x2020;" horiz-adv-x="480" 
d="M269 649h63l-53 -226l163 5l-13 -62l-161 5l-102 -503h-63l113 503l-164 -5l13 62l163 -5z" />
    <glyph glyph-name="daggerdbl" unicode="&#x2021;" horiz-adv-x="480" 
d="M169 148l53 250l-164 -5l12 62l163 -6l36 200h63l-48 -200l163 6l-12 -62l-161 5l-53 -250l162 4l-13 -62l-161 7l-43 -229h-63l55 229l-165 -7l13 62z" />
    <glyph glyph-name="bullet" unicode="&#x2022;" horiz-adv-x="346" 
d="M105 346h171l-40 -186h-171z" />
    <glyph glyph-name="ellipsis" unicode="&#x2026;" horiz-adv-x="783" 
d="M95 -1h-66l30 138h66zM358 -1h-66l30 138h66zM619 -1h-66l30 138h66z" />
    <glyph glyph-name="perthousand" unicode="&#x2030;" horiz-adv-x="1237" 
d="M1057 365q61 0 95 -36t34 -101q0 -97 -52.5 -167.5t-143.5 -70.5q-62 0 -95 37.5t-33 102.5q0 41 12.5 81.5t36 75.5t61.5 56.5t85 21.5zM1048 316q-60 0 -93.5 -60t-33.5 -123q0 -94 78 -94q43 0 74 32.5t43 72t12 77.5q0 95 -80 95zM271 668q61 0 95 -36t34 -101
q0 -97 -52.5 -167.5t-142.5 -70.5q-62 0 -95 37.5t-33 102.5q0 89 52 162t142 73zM263 620q-61 0 -94.5 -60.5t-33.5 -123.5q0 -94 78 -94q43 0 74 32.5t43 72t12 78.5q0 95 -79 95zM205 0h-64l555 658h65zM691 365q61 0 95 -36t34 -101q0 -97 -52.5 -167.5t-143.5 -70.5
q-62 0 -95 37.5t-33 102.5q0 41 12.5 81.5t36 75.5t61.5 56.5t85 21.5zM683 316q-61 0 -94.5 -60t-33.5 -123q0 -94 78 -94q43 0 74 32.5t43 72t12 77.5q0 95 -79 95z" />
    <glyph glyph-name="uni2032" unicode="&#x2032;" horiz-adv-x="205" 
d="M149 476h-53l95 260h65z" />
    <glyph glyph-name="uni2033" unicode="&#x2033;" horiz-adv-x="344" 
d="M145 476h-49l94 260h63zM289 476h-51l95 260h63z" />
    <glyph glyph-name="guilsinglleft" unicode="&#x2039;" horiz-adv-x="345" 
d="M334 451l-206 -197l116 -189h-64l-123 194l202 192h75z" />
    <glyph glyph-name="guilsinglright" unicode="&#x203a;" horiz-adv-x="347" 
d="M17 65l206 197l-116 189h64l123 -194l-202 -192h-75z" />
    <glyph glyph-name="fraction" unicode="&#x2044;" horiz-adv-x="229" 
d="M-112 0h-63l552 658h60z" />
    <glyph glyph-name="zero.sups" unicode="&#x2070;" horiz-adv-x="367" 
d="M238 827q60 0 92.5 -38t32.5 -108q0 -63 -17.5 -120t-61.5 -99t-107 -42q-60 0 -93 40t-33 109q0 62 18 118t62 98t107 42zM231 780q-41 0 -70.5 -37.5t-40.5 -83t-11 -90.5q0 -101 74 -101q33 0 58.5 22t38.5 56.5t19.5 69.5t6.5 67q0 49 -20.5 73t-54.5 24z" />
    <glyph glyph-name="four.sups" unicode="&#x2074;" horiz-adv-x="348" 
d="M251 428h-53l23 107h-195l8 43l232 246h69l-53 -245h61l-14 -44h-55zM95 579h134l22 96q1 4 10 44.5t13 54.5q-10 -13 -179 -195z" />
    <glyph glyph-name="five.sups" unicode="&#x2075;" horiz-adv-x="362" 
d="M366 824l-17 -48h-187q-6 -20 -16.5 -57t-15.5 -55q37 27 89 27q56 0 87.5 -33.5t31.5 -81.5q0 -68 -44.5 -111t-117.5 -43q-64 0 -99 33.5t-37 83.5h53q4 -34 28 -53t58 -19q47 0 73.5 27t26.5 74q0 77 -75 77q-61 0 -97 -45l-43 13q19 53 63 211h239z" />
    <glyph glyph-name="six.sups" unicode="&#x2076;" horiz-adv-x="358" 
d="M362 724h-53q-10 57 -73 57q-50 0 -81.5 -39t-42.5 -103q44 50 111 50q57 0 88 -34t31 -84q0 -66 -44.5 -108.5t-109.5 -42.5q-63 0 -100.5 39.5t-37.5 115.5q0 59 18.5 114.5t64 96.5t108.5 41q56 0 88 -31t33 -72zM188 466q43 0 69 28t26 74q0 35 -19.5 55.5
t-56.5 20.5q-40 0 -70 -23t-30 -62q0 -38 19.5 -65.5t61.5 -27.5z" />
    <glyph glyph-name="seven.sups" unicode="&#x2077;" horiz-adv-x="324" 
d="M90 824h271l-8 -42q-66 -60 -132 -159t-104 -195h-62q34 89 103.5 191t129.5 157h-208z" />
    <glyph glyph-name="eight.sups" unicode="&#x2078;" horiz-adv-x="344" 
d="M173 420q-61 0 -95.5 30.5t-34.5 73.5q0 82 91 111q-21 9 -32.5 30t-11.5 44q0 52 38.5 85t102.5 33q57 0 87 -29t30 -68q0 -36 -20 -62t-55 -36q27 -11 43.5 -33.5t16.5 -50.5q0 -61 -45 -94.5t-115 -33.5zM226 784q-36 0 -59 -18.5t-23 -53.5q0 -26 17.5 -41.5
t49.5 -15.5q35 0 58.5 18.5t23.5 52.5q0 26 -16.5 42t-50.5 16zM180 465q43 0 69.5 20.5t26.5 61.5q0 29 -21.5 46t-59.5 17q-40 0 -67.5 -21t-27.5 -60q0 -29 22 -46.5t58 -17.5z" />
    <glyph glyph-name="nine.sups" unicode="&#x2079;" horiz-adv-x="347" 
d="M37 526h55q10 -60 78 -60q86 0 116 144q-44 -42 -103 -42q-53 0 -85.5 33t-32.5 82q0 61 41 102.5t108 41.5q61 0 96.5 -36t35.5 -107q0 -46 -8.5 -88.5t-27.5 -84t-57 -66.5t-90 -25q-59 0 -91.5 31.5t-34.5 74.5zM209 781q-41 0 -65 -26t-24 -67q0 -34 21 -53.5
t55 -19.5q44 0 69.5 22.5t25.5 59.5q0 40 -21.5 62t-60.5 22z" />
    <glyph glyph-name="parenleft.sups" unicode="&#x207d;" horiz-adv-x="203" 
d="M197 871h56q-80 -79 -113 -146.5t-33 -162.5q0 -107 38 -199h-49q-39 84 -39 197q0 92 37 173t103 138z" />
    <glyph glyph-name="parenright.sups" unicode="&#x207e;" horiz-adv-x="203" 
d="M48 363h-56q80 80 112.5 147t32.5 163q0 108 -38 198h49q40 -88 40 -197q0 -91 -37.5 -173.5t-102.5 -137.5z" />
    <glyph glyph-name="n.sups" unicode="&#x207f;" horiz-adv-x="362" 
d="M47 261l48 226q13 61 21 106h50q1 -4 -8 -53q45 61 117 61q43 0 72 -30.5t15 -99.5l-45 -210h-55l42 198q11 40 0.5 66.5t-49.5 26.5q-43 0 -75 -30.5t-44 -90.5l-36 -170h-53z" />
    <glyph glyph-name="zero.subs" unicode="&#x2080;" horiz-adv-x="367" 
d="M111 226q60 0 92.5 -38t32.5 -108q0 -63 -17.5 -120t-61.5 -99t-107 -42q-60 0 -93 40t-33 109q0 62 18 118t62 98t107 42zM104 179q-41 0 -70.5 -37.5t-40.5 -83t-11 -90.5q0 -101 74 -101q33 0 58.5 22t38.5 56.5t19.5 69.5t6.5 67q0 49 -20.5 73t-54.5 24z" />
    <glyph glyph-name="one.subs" unicode="&#x2081;" horiz-adv-x="233" 
d="M15 -177h-56l71 333q-33 -11 -83 -14l10 44q66 9 104 40h39z" />
    <glyph glyph-name="two.subs" unicode="&#x2082;" horiz-adv-x="343" 
d="M177 -176h-281l2 12q19 96 163 179q62 35 80 52.5t18 49.5q0 29 -18.5 46t-52.5 17q-69 0 -94 -78h-53q31 124 153 124q57 0 88.5 -30t31.5 -76q0 -49 -26 -77t-97 -66q-95 -50 -120 -105h223z" />
    <glyph glyph-name="three.subs" unicode="&#x2083;" horiz-adv-x="352" 
d="M-93 -60h52q5 -36 29.5 -56.5t64.5 -20.5t66 20.5t26 62.5q0 29 -19 48t-59 19h-39l10 46h34q83 0 83 68q0 23 -16 38.5t-50 15.5q-36 0 -53.5 -16.5t-30.5 -45.5h-53q29 107 143 107q56 0 87 -27t31 -71q0 -34 -19.5 -58t-50.5 -33q22 -8 41 -31.5t19 -57.5
q0 -54 -38.5 -91t-114.5 -37q-77 0 -110 37.5t-33 82.5z" />
    <glyph glyph-name="four.subs" unicode="&#x2084;" horiz-adv-x="348" 
d="M124 -173h-53l23 107h-195l8 43l232 246h69l-53 -245h61l-14 -44h-55zM-32 -22h134l22 96q1 4 10 44.5t13 54.5q-10 -13 -179 -195z" />
    <glyph glyph-name="five.subs" unicode="&#x2085;" horiz-adv-x="362" 
d="M239 223l-17 -48h-187q-6 -20 -16.5 -57t-15.5 -55q37 27 89 27q56 0 87.5 -33.5t31.5 -81.5q0 -68 -44.5 -111t-117.5 -43q-64 0 -99 33.5t-37 83.5h53q4 -34 28 -53t58 -19q47 0 73.5 27t26.5 74q0 77 -75 77q-61 0 -97 -45l-43 13q19 53 63 211h239z" />
    <glyph glyph-name="six.subs" unicode="&#x2086;" horiz-adv-x="358" 
d="M235 123h-53q-10 57 -73 57q-50 0 -81.5 -39t-42.5 -103q44 50 111 50q57 0 88 -34t31 -84q0 -66 -44.5 -108.5t-109.5 -42.5q-63 0 -100.5 39.5t-37.5 115.5q0 59 18.5 114.5t64 96.5t108.5 41q56 0 88 -31t33 -72zM61 -135q43 0 69 28t26 74q0 35 -19.5 55.5
t-56.5 20.5q-40 0 -70 -23t-30 -62q0 -38 19.5 -65.5t61.5 -27.5z" />
    <glyph glyph-name="seven.subs" unicode="&#x2087;" horiz-adv-x="324" 
d="M-37 223h271l-8 -42q-66 -60 -132 -159t-104 -195h-62q34 89 103.5 191t129.5 157h-208z" />
    <glyph glyph-name="eight.subs" unicode="&#x2088;" horiz-adv-x="344" 
d="M46 -181q-61 0 -95.5 30.5t-34.5 73.5q0 82 91 111q-21 9 -32.5 30t-11.5 44q0 52 38.5 85t102.5 33q57 0 87 -29t30 -68q0 -36 -20 -62t-55 -36q27 -11 43.5 -33.5t16.5 -50.5q0 -61 -45 -94.5t-115 -33.5zM99 183q-36 0 -59 -18.5t-23 -53.5q0 -26 17.5 -41.5
t49.5 -15.5q35 0 58.5 18.5t23.5 52.5q0 26 -16.5 42t-50.5 16zM53 -136q43 0 69.5 20.5t26.5 61.5q0 29 -21.5 46t-59.5 17q-40 0 -67.5 -21t-27.5 -60q0 -29 22 -46.5t58 -17.5z" />
    <glyph glyph-name="nine.subs" unicode="&#x2089;" horiz-adv-x="347" 
d="M-90 -75h55q10 -60 78 -60q86 0 116 144q-44 -42 -103 -42q-52 0 -85 32.5t-33 82.5q0 61 41 102.5t108 41.5q61 0 96.5 -36t35.5 -107q0 -46 -8.5 -88.5t-27.5 -84t-57 -66.5t-90 -25q-59 0 -91.5 31.5t-34.5 74.5zM82 180q-41 0 -65 -26t-24 -67q0 -34 21 -53.5
t55 -19.5q44 0 69.5 22.5t25.5 59.5q0 40 -21.5 62t-60.5 22z" />
    <glyph glyph-name="parenleft.subs" unicode="&#x208d;" horiz-adv-x="203" 
d="M70 270h56q-80 -79 -113 -146.5t-33 -162.5q0 -107 38 -199h-49q-39 84 -39 197q0 92 37 173t103 138z" />
    <glyph glyph-name="parenright.subs" unicode="&#x208e;" horiz-adv-x="203" 
d="M-79 -238h-56q80 80 112.5 147t32.5 163q0 108 -38 198h49q40 -88 40 -197q0 -91 -37.5 -173.5t-102.5 -137.5z" />
    <glyph glyph-name="colonmonetary" unicode="&#x20a1;" horiz-adv-x="500" 
d="M216 50h15l117 557q-16 2 -28 2q-13 0 -19 -1l-118 -554q13 -4 33 -4zM96 223q0 -107 50 -149l111 521q-73 -34 -117 -137.5t-44 -234.5zM380 169h63q-54 -147 -181 -170l-20 -93h-42l19 88h-13q-18 0 -35 3l-19 -91h-42l22 103q-50 23 -76.5 78.5t-26.5 135.5
q0 63 13.5 129.5t40.5 130t75.5 111.5t111.5 64l16 74h41l-14 -68q6 1 19 1q10 0 28 -2l15 69h41l-16 -77q52 -18 79 -62t25 -101h-61q-5 77 -56 103l-113 -537q60 21 106 111z" />
    <glyph glyph-name="franc" unicode="&#x20a3;" horiz-adv-x="473" 
d="M43 0l30 141h-90l11 50h90l99 467h339l-13 -57h-275l-48 -226h256l-12 -57h-255l-27 -127h143l-12 -50h-142l-30 -141h-64z" />
    <glyph glyph-name="lira" unicode="&#x20a4;" horiz-adv-x="485" 
d="M339 368h-155q-4 -48 -9 -75h149l-10 -46h-146q-25 -140 -82 -189h351l-21 -58h-433l10 51q86 39 111 196h-101l11 46h97q2 16 5 42t4 33h-92l10 48h88q1 7 5 38q27 214 193 214q81 0 119 -45.5t35 -111.5h-59q-2 49 -27 76t-71 27q-58 0 -87 -38t-39 -118q-3 -22 -6 -42
h161z" />
    <glyph glyph-name="uni20A6" unicode="&#x20a6;" horiz-adv-x="494" 
d="M175 604q-10 -78 -30 -179h63l-30 179h-3zM319 66h5q13 87 32 190h-68zM56 0h-57l54 256h-51l10 47h51l16 75h-53l11 47h52l50 233h84l38 -233h130l50 233h56l-50 -233h50l-10 -47h-50l-16 -75h50l-10 -47h-50l-54 -256h-78l-43 256h-127zM366 303l15 75h-113l13 -75h85z
M228 303l-12 75h-81q-12 -58 -16 -75h109z" />
    <glyph glyph-name="peseta" unicode="&#x20a7;" horiz-adv-x="511" 
d="M9 0l93 436h-58l10 49h58l37 173h147q88 0 139 -46.5t51 -124.5v-2h48l-11 -49h-41q-28 -181 -267 -181h-89l-53 -255h-64zM202 605l-27 -120h247q0 59 -34 89.5t-98 30.5h-88zM136 308h90q168 0 192 128h-254z" />
    <glyph glyph-name="dong" unicode="&#x20ab;" horiz-adv-x="531" 
d="M-2 -78h383l-11 -52h-382zM408 388l33 153h-227l12 51h227l16 75h62l-16 -75h64l-12 -51h-63l-82 -386q-13 -62 -31 -155h-58q2 27 14 78q-54 -88 -163 -88q-68 0 -110 48t-42 135q0 51 15 100.5t43.5 93t76.5 70t107 26.5t92 -23.5t42 -51.5zM272 407q-43 0 -77.5 -22
t-54.5 -56.5t-30.5 -74t-10.5 -78.5q0 -128 105 -128q58 0 107 44.5t70 144.5q19 87 -14 128.5t-95 41.5z" />
    <glyph glyph-name="Euro" unicode="&#x20ac;" horiz-adv-x="508" 
d="M396 139h64q-33 -78 -84 -113.5t-127 -35.5q-85 0 -127.5 60t-42.5 168q0 27 1 41h-65l9 47h60q6 46 11 67h-56l10 48h57q32 110 95.5 178.5t158.5 68.5q86 0 125.5 -50t39.5 -114h-61q-3 48 -31 78.5t-78 30.5q-67 0 -112.5 -53.5t-70.5 -138.5h207l-11 -48h-208
q-5 -21 -11 -67h206l-10 -47h-200q-1 -13 -1 -38q0 -176 114 -176q44 0 76.5 22.5t61.5 71.5z" />
    <glyph glyph-name="uni20B1" unicode="&#x20b1;" horiz-adv-x="523" 
d="M9 0l80 375h-63l9 47h64l12 56h-64l10 47h64l28 133h148q73 0 120.5 -35.5t61.5 -97.5h67l-10 -47h-52v-1q0 -27 -5 -55h45l-9 -47h-49q-54 -139 -245 -139h-99l-49 -236h-64zM202 605l-18 -80h228q-26 80 -121 80h-89zM420 475v3h-246l-12 -56h253q5 27 5 53zM133 290
h97q124 0 169 85h-247z" />
    <glyph glyph-name="uni20B2" unicode="&#x20b2;" horiz-adv-x="525" 
d="M121 242q0 -150 85 -180l115 542q-51 -4 -91 -42t-63 -93.5t-34.5 -114t-11.5 -112.5zM508 498h-62q-4 27 -9.5 44.5t-23 35.5t-45.5 24l-116 -549h7q61 0 106 27l50 242h63l-58 -279q-30 -15 -48 -23t-52 -15.5t-73 -7.5h-6l-22 -102h-48l23 108q-137 33 -137 230
q0 49 8 101.5t28 111t50.5 104.5t79.5 77.5t110 33.5l16 76h48l-17 -79q63 -11 96.5 -54.5t31.5 -105.5z" />
    <glyph glyph-name="uni20B4" unicode="&#x20b4;" horiz-adv-x="494" 
d="M162 513h-62q46 155 205 155q82 0 123.5 -42.5t41.5 -96.5q0 -63 -41 -109h56l-10 -46h-103q-25 -16 -115 -62q-2 -1 -5.5 -2.5t-4.5 -2.5h203l-10 -45h-272q-71 -48 -71 -118q0 -40 32 -68.5t83 -28.5q65 0 100.5 27t59.5 85h62q-28 -87 -82 -128t-149 -41
q-77 0 -125 42.5t-48 106.5q0 71 50 123h-49l10 45h95q39 25 103 58l18 9h-190l10 46h266q63 42 63 104q0 35 -27 62.5t-80 27.5q-96 0 -137 -101z" />
    <glyph glyph-name="uni20B5" unicode="&#x20b5;" horiz-adv-x="500" 
d="M103 223q0 -144 84 -168l118 553q-61 -7 -107.5 -60.5t-70.5 -138.5t-24 -186zM201 -105h-48l22 102q-68 11 -103.5 70t-35.5 156q0 55 9 111.5t30 115t52.5 104.5t80.5 77t109 34l15 72h48l-16 -74q69 -10 105 -58t35 -113h-61q-6 99 -91 115l-118 -556q48 3 82.5 29
t63.5 84h63q-31 -83 -83.5 -124.5t-137.5 -45.5z" />
    <glyph glyph-name="uni20B9" unicode="&#x20b9;" horiz-adv-x="492" 
d="M511 488h-79q-1 -88 -54 -136t-142 -59l144 -293h-73l-139 290h-118l12 55h116q188 0 188 143h-273l10 47h255q-12 34 -43.5 54t-75.5 20h-120v1l10 48h418l-10 -48h-156q34 -30 46 -75h94z" />
    <glyph glyph-name="uni20BA" unicode="&#x20ba;" horiz-adv-x="520" 
d="M351 362l-145 -45l-55 -264q107 0 171.5 50t95.5 152h61q-32 -122 -109.5 -188.5t-226.5 -66.5h-69l63 295l-111 -34l12 50l109 34l17 77l-110 -34l10 50l111 34l39 186h63l-34 -164l145 45l-10 -50l-146 -45l-16 -77l146 45z" />
    <glyph glyph-name="uni20BD" unicode="&#x20bd;" horiz-adv-x="583" 
d="M75 0l39 184h-82l12 52h81l16 74h-81l12 56h81l62 292h172q93 0 141 -45.5t48 -112.5q0 -190 -246 -190h-122l-16 -74h196l-11 -52h-196l-39 -184h-67zM268 600l-48 -234h119q169 0 169 128q0 49 -33.5 77.5t-96.5 28.5h-110z" />
    <glyph glyph-name="uni2113" unicode="&#x2113;" horiz-adv-x="391" 
d="M208 548l-49 -231q55 43 93 82t68.5 98t30.5 119q0 66 -50 66q-35 0 -56.5 -30.5t-36.5 -103.5zM286 154h59q-22 -85 -63 -124.5t-108 -39.5q-74 0 -101 45t-12 122l11 50q-7 -4 -59 -35l-12 49q40 22 84 50l56 263q24 115 64.5 159.5t102.5 44.5q49 0 77 -32t28 -88
q0 -111 -71.5 -200t-198.5 -174l-15 -72q-27 -122 54 -122q34 0 59.5 23t44.5 81z" />
    <glyph glyph-name="uni2116" unicode="&#x2116;" horiz-adv-x="990" 
d="M93 0h-61l143 678h90q188 -554 198 -601h1q9 68 63 324l59 277h61l-144 -678h-82q-170 514 -202 615h-1q-20 -120 -64 -328zM855 627q64 0 99.5 -40.5t35.5 -107.5q0 -59 -22.5 -113t-70.5 -92t-112 -38q-62 0 -96 39t-34 109q0 95 54 169t146 74zM847 575q-63 0 -98 -60
t-35 -129q0 -94 80 -94q64 0 99.5 57t35.5 129q0 97 -82 97zM631 172h269l-12 -57h-268z" />
    <glyph glyph-name="uni2117" unicode="&#x2117;" horiz-adv-x="796" 
d="M410 708q149 0 245.5 -101t96.5 -256q0 -157 -97 -259t-245 -102q-151 0 -248 100.5t-97 260.5q0 154 98.5 255.5t246.5 101.5zM409 658q-126 0 -209 -83.5t-83 -227.5q0 -133 83.5 -220t208.5 -87q127 0 209 85.5t82 225.5q0 134 -82 220.5t-209 86.5zM286 156v392h143
q61 0 104 -30t43 -94q0 -63 -42.5 -96t-110.5 -33h-84v-139h-53zM340 500v-158h83q95 0 95 79q0 39 -24.5 59t-67.5 20h-86z" />
    <glyph glyph-name="uni2120" unicode="&#x2120;" horiz-adv-x="460" 
d="M61 540h41q3 -25 19.5 -38t39.5 -13q51 0 51 36q0 29 -61 43q-46 10 -62.5 27.5t-16.5 42.5q0 29 21.5 47.5t63.5 18.5q85 0 91 -73h-41q-8 42 -53 42q-41 0 -41 -31q0 -13 8.5 -21.5t39.5 -15.5q50 -13 71.5 -29t21.5 -46q0 -33 -23.5 -53t-70.5 -20q-44 0 -70 22
t-29 61zM550 463h-42v78q0 69 5 127h-2q-4 -11 -77 -204h-36q-46 127 -70 204h-2q3 -34 3 -130v-75h-40v235h67q10 -27 31.5 -85.5t31.5 -88.5h1q4 9 28.5 74.5t38.5 99.5h63v-235z" />
    <glyph glyph-name="trademark" unicode="&#x2122;" horiz-adv-x="473" 
d="M72 698h209v-38h-82v-197h-44v197h-83v38zM573 463h-42v78q0 69 5 127h-2q-4 -11 -77 -204h-36q-43 119 -71 204h-1q3 -34 3 -130v-75h-40v235h66q57 -153 64 -174h1q10 25 21 54t24.5 65t20.5 55h64v-235z" />
    <glyph glyph-name="uni2126" unicode="&#x2126;" horiz-adv-x="715" 
d="M417 708q133 0 205 -81t72 -197q0 -129 -63 -224.5t-182 -146.5h182l-12 -59h-255l17 80q124 57 182 140t58 201q0 98 -50 162.5t-161 64.5q-126 0 -197.5 -91t-71.5 -218q0 -84 30 -154.5t86 -104.5l-17 -80h-255l12 59h194q-123 103 -123 277q0 71 23.5 137t67 119
t110.5 84.5t148 31.5z" />
    <glyph glyph-name="estimated" unicode="&#x212e;" horiz-adv-x="834" 
d="M789 314h-626q-4 0 -4 -4v-128q0 -8 8 -22q39 -59 106.5 -92.5t139.5 -33.5q146 0 232 114h86q-62 -77 -133.5 -118t-186.5 -41q-163 0 -264.5 100t-101.5 241q0 139 107.5 239t264.5 100q162 0 267 -101.5t105 -241.5v-12zM675 366v106q0 6 -10 23q-38 60 -106.5 94
t-139.5 34q-74 0 -143 -31.5t-108 -90.5q-9 -13 -9 -23v-112q0 -5 4 -5h508q4 0 4 5z" />
    <glyph glyph-name="onethird" unicode="&#x2153;" horiz-adv-x="794" 
d="M123 0h-63l552 658h60zM158 257h-56l71 333q-33 -11 -83 -14l10 44q66 9 104 40h39zM454 115h52q5 -36 29.5 -56.5t64.5 -20.5t66 20.5t26 62.5q0 29 -19 48t-59 19h-39l10 46h34q83 0 83 68q0 23 -16 38.5t-50 15.5q-36 0 -53.5 -16.5t-30.5 -45.5h-53q29 107 143 107
q56 0 87 -27t31 -71q0 -34 -19.5 -58t-50.5 -33q22 -8 41 -31.5t19 -57.5q0 -54 -38.5 -91t-114.5 -37q-77 0 -110 37.5t-33 82.5z" />
    <glyph glyph-name="twothirds" unicode="&#x2154;" horiz-adv-x="924" 
d="M241 0h-63l552 658h60zM326 258h-281l2 12q19 96 163 179q62 35 80 52.5t18 49.5q0 29 -18.5 46t-52.5 17q-69 0 -94 -78h-53q31 124 153 124q57 0 88.5 -30t31.5 -76q0 -49 -26 -77t-97 -66q-95 -50 -120 -105h223zM556 114h52q5 -36 29.5 -56.5t64.5 -20.5t66 20.5
t26 62.5q0 29 -19 48t-59 19h-39l10 46h34q83 0 83 68q0 23 -16 38.5t-50 15.5q-36 0 -53.5 -16.5t-30.5 -45.5h-53q29 107 143 107q56 0 87 -27t31 -71q0 -34 -19.5 -58t-50.5 -33q22 -8 41 -31.5t19 -57.5q0 -54 -38.5 -91t-114.5 -37q-77 0 -110 37.5t-33 82.5z" />
    <glyph glyph-name="oneeighth" unicode="&#x215b;" horiz-adv-x="794" 
d="M123 0h-63l552 658h60zM160 257h-56l71 333q-33 -11 -83 -14l10 44q66 9 104 40h39zM580 -6q-61 0 -95.5 30.5t-34.5 73.5q0 82 91 111q-21 9 -32.5 30t-11.5 44q0 52 38.5 85t102.5 33q57 0 87 -29t30 -68q0 -36 -20 -62t-55 -36q27 -11 43.5 -33.5t16.5 -50.5
q0 -61 -45 -94.5t-115 -33.5zM633 358q-36 0 -59 -18.5t-23 -53.5q0 -26 17.5 -41.5t49.5 -15.5q35 0 58.5 18.5t23.5 52.5q0 26 -16.5 42t-50.5 16zM587 39q43 0 69.5 20.5t26.5 61.5q0 29 -21.5 46t-59.5 17q-40 0 -67.5 -21t-27.5 -60q0 -29 22 -46.5t58 -17.5z" />
    <glyph glyph-name="threeeighths" unicode="&#x215c;" horiz-adv-x="888" 
d="M222 0h-63l552 658h60zM668 -6q-61 0 -95.5 30.5t-34.5 73.5q0 82 91 111q-21 9 -32.5 30t-11.5 44q0 52 38.5 85t102.5 33q57 0 87 -29t30 -68q0 -36 -20 -62t-55 -36q27 -11 43.5 -33.5t16.5 -50.5q0 -61 -45 -94.5t-115 -33.5zM721 358q-36 0 -59 -18.5t-23 -53.5
q0 -26 17.5 -41.5t49.5 -15.5q35 0 58.5 18.5t23.5 52.5q0 26 -16.5 42t-50.5 16zM675 39q43 0 69.5 20.5t26.5 61.5q0 29 -21.5 46t-59.5 17q-40 0 -67.5 -21t-27.5 -60q0 -29 22 -46.5t58 -17.5zM49 374h52q5 -36 29.5 -56.5t64.5 -20.5t66 20.5t26 62.5q0 29 -19 48
t-59 19h-39l10 46h34q83 0 83 68q0 23 -16 38.5t-50 15.5q-36 0 -53.5 -16.5t-30.5 -45.5h-53q29 107 143 107q56 0 87 -27t31 -71q0 -34 -19.5 -58t-50.5 -33q22 -8 41 -31.5t19 -57.5q0 -54 -38.5 -91t-114.5 -37q-77 0 -110 37.5t-33 82.5z" />
    <glyph glyph-name="fiveeighths" unicode="&#x215d;" horiz-adv-x="888" 
d="M223 0h-63l552 658h60zM383 657l-17 -48h-187q-6 -20 -16.5 -57t-15.5 -55q37 27 89 27q56 0 87.5 -33.5t31.5 -81.5q0 -68 -44.5 -111t-117.5 -43q-64 0 -99 33.5t-37 83.5h53q4 -34 28 -53t58 -19q47 0 73.5 27t26.5 74q0 77 -75 77q-61 0 -97 -45l-43 13q19 53 63 211
h239zM679 -6q-61 0 -95.5 30.5t-34.5 73.5q0 82 91 111q-21 9 -32.5 30t-11.5 44q0 52 38.5 85t102.5 33q57 0 87 -29t30 -68q0 -36 -20 -62t-55 -36q27 -11 43.5 -33.5t16.5 -50.5q0 -61 -45 -94.5t-115 -33.5zM732 358q-36 0 -59 -18.5t-23 -53.5q0 -26 17.5 -41.5
t49.5 -15.5q35 0 58.5 18.5t23.5 52.5q0 26 -16.5 42t-50.5 16zM686 39q43 0 69.5 20.5t26.5 61.5q0 29 -21.5 46t-59.5 17q-40 0 -67.5 -21t-27.5 -60q0 -29 22 -46.5t58 -17.5z" />
    <glyph glyph-name="seveneighths" unicode="&#x215e;" horiz-adv-x="821" 
d="M126 0h-63l552 658h60zM592 -6q-61 0 -95.5 30.5t-34.5 73.5q0 82 91 111q-21 9 -32.5 30t-11.5 44q0 52 38.5 85t102.5 33q57 0 87 -29t30 -68q0 -36 -20 -62t-55 -36q27 -11 43.5 -33.5t16.5 -50.5q0 -61 -45 -94.5t-115 -33.5zM645 358q-36 0 -59 -18.5t-23 -53.5
q0 -26 17.5 -41.5t49.5 -15.5q35 0 58.5 18.5t23.5 52.5q0 26 -16.5 42t-50.5 16zM599 39q43 0 69.5 20.5t26.5 61.5q0 29 -21.5 46t-59.5 17q-40 0 -67.5 -21t-27.5 -60q0 -29 22 -46.5t58 -17.5zM105 657h271l-8 -42q-66 -60 -132 -159t-104 -195h-62q34 89 103.5 191
t129.5 157h-208z" />
    <glyph glyph-name="uni2190" unicode="&#x2190;" horiz-adv-x="873" 
d="M825 330h-671q41 -34 101.5 -88t153 -138t109.5 -100l-37 -42l-434 395v3l434 402l37 -43q-281 -257 -364 -331h671v-58z" />
    <glyph glyph-name="arrowup" unicode="&#x2191;" horiz-adv-x="854" 
d="M393 -44v709q-205 -242 -305 -353l-41 40l375 424h3l382 -424l-42 -40q-53 58 -165 186t-147 167v-709h-60z" />
    <glyph glyph-name="uni2192" unicode="&#x2192;" horiz-adv-x="873" 
d="M48 394h671q-41 34 -101.5 88t-153 138t-109.5 100l37 42l434 -395v-3l-434 -402l-37 43q281 257 364 331h-671v58z" />
    <glyph glyph-name="arrowdown" unicode="&#x2193;" horiz-adv-x="854" 
d="M461 746v-709q205 242 305 353l41 -40l-375 -424h-3l-382 424l42 40q53 -58 165 -186t147 -167v709h60z" />
    <glyph glyph-name="partialdiff" unicode="&#x2202;" horiz-adv-x="531" 
d="M126 651l9 57h16q41 0 84.5 -11.5t87 -38.5t77.5 -65.5t55 -98t21 -131.5q0 -47 -6 -93t-24 -98.5t-46 -91t-77 -64.5t-113 -26q-86 0 -135.5 56.5t-49.5 138.5q0 100 59.5 168.5t160.5 68.5q71 0 113 -28.5t53 -57.5q2 18 2 41q0 123 -82 197.5t-192 76.5h-13zM219 45
q55 0 95 33t57.5 73.5t22.5 85.5q5 47 -34 88.5t-116 41.5q-75 0 -114.5 -54t-39.5 -129q0 -60 36 -99.5t93 -39.5z" />
    <glyph glyph-name="uni2206" unicode="&#x2206;" horiz-adv-x="602" 
d="M533 0h-566l8 44l383 654h78l105 -654zM53 59h416q-86 574 -86 577h-1q-15 -39 -262 -461q-43 -75 -67 -116z" />
    <glyph glyph-name="product" unicode="&#x220f;" horiz-adv-x="664" 
d="M179 698h491l-170 -798h-67l157 739h-355l-157 -739h-68z" />
    <glyph glyph-name="summation" unicode="&#x2211;" horiz-adv-x="497" 
d="M416 -100h-483l8 46l336 369l-168 337l9 46h436l-12 -59h-352l162 -328l-319 -352h404z" />
    <glyph glyph-name="minus" unicode="&#x2212;" horiz-adv-x="713" 
d="M629 251h-545v59h545v-59z" />
    <glyph glyph-name="uni2215" unicode="&#x2215;" horiz-adv-x="229" 
d="M-112 0h-63l552 658h60z" />
    <glyph glyph-name="uni2219" unicode="&#x2219;" horiz-adv-x="178" 
d="M72 199h-66l30 138h66z" />
    <glyph glyph-name="radical" unicode="&#x221a;" horiz-adv-x="562" 
d="M657 852l-389 -1050h-52l-82 441l-98 -38l-16 46l164 68q66 -379 70 -432q4 46 293 824q34 92 52 141h58z" />
    <glyph glyph-name="infinity" unicode="&#x221e;" horiz-adv-x="797" 
d="M208 123q-65 0 -109 47t-44 119q0 69 45.5 118.5t115.5 49.5q31 0 58 -9.5t52 -29.5t40.5 -36.5t40.5 -45.5q54 61 97.5 91t104.5 30q64 0 106.5 -48t42.5 -120q0 -68 -45 -117t-114 -49q-38 0 -75.5 20t-60.5 42.5t-56 60.5q-62 -67 -92 -87q-50 -36 -107 -36zM598 183
q49 0 76 30.5t27 75.5q0 47 -26.5 78t-72.5 31t-80 -24.5t-82 -80.5q2 -3 14 -16t15 -16t14 -14.5t15.5 -15.5t14.5 -13t16 -12t15.5 -9t17.5 -8t17.5 -4t18.5 -2zM213 183q32 0 62.5 17t49 35.5t47.5 52.5q-5 5 -24 27t-29.5 31.5t-28.5 24.5t-36 21t-38 6q-47 0 -75 -32.5
t-28 -76.5q0 -46 27.5 -76t72.5 -30z" />
    <glyph glyph-name="integral" unicode="&#x222b;" horiz-adv-x="275" 
d="M393 869l-17 -63q-21 7 -48 7q-36 0 -57.5 -26.5t-27.5 -50.5t-14 -79l-1.5 -6t-1 -5.5t-0.5 -6.5q-14 -89 -45.5 -343t-37.5 -299q-17 -130 -53 -183t-118 -53q-36 0 -58 11l20 63q24 -9 48 -9q26 0 43.5 10t27 31.5t15 46.5t11.5 64q0 3 0.5 5t1 5t1 5.5t0.5 5.5
q12 82 43.5 338.5t39.5 311.5q5 41 11.5 70.5t19.5 61.5t30.5 52t45.5 33t64 13q33 0 57 -10z" />
    <glyph glyph-name="approxequal" unicode="&#x2248;" horiz-adv-x="713" 
d="M144 117h-55v13q0 57 31 85.5t84 28.5q60 0 160 -36.5t148 -36.5q60 0 60 60v10h54v-15q0 -113 -113 -113q-60 0 -161 35.5t-145 35.5q-63 0 -63 -62v-5zM144 327h-55v12q0 114 117 114q58 0 157.5 -35.5t148.5 -35.5q34 0 47 15t13 45v8h54v-13q0 -63 -30 -89t-84 -26
q-61 0 -160.5 36t-144.5 36q-63 0 -63 -59v-8z" />
    <glyph glyph-name="notequal" unicode="&#x2260;" horiz-adv-x="713" 
d="M507 551l-54 -116h176v-59h-203l-87 -187h290v-60h-318l-55 -118h-57l55 118h-170v60h197l87 187h-284v59h311l54 116h58z" />
    <glyph glyph-name="lessequal" unicode="&#x2264;" horiz-adv-x="686" 
d="M84 384v60l518 244v-69l-442 -203l442 -212v-67zM84 61h518v-61h-518v61z" />
    <glyph glyph-name="greaterequal" unicode="&#x2265;" horiz-adv-x="686" 
d="M602 440v-61l-518 -242v68l442 202l-442 213v68zM602 0h-518v61h518v-61z" />
    <glyph glyph-name="uni25A0" unicode="&#x25a0;" horiz-adv-x="351" 
d="M66 147v217h218v-217h-218z" />
    <glyph glyph-name="triagup" unicode="&#x25b2;" horiz-adv-x="633" 
d="M597 0h-561l276 612h2z" />
    <glyph glyph-name="uni25B3" unicode="&#x25b3;" horiz-adv-x="633" 
d="M597 0h-561l276 612h2zM125 55h379l-191 430z" />
    <glyph glyph-name="uni25B6" unicode="&#x25b6;" horiz-adv-x="694" 
d="M51 16v561l612 -276v-2z" />
    <glyph glyph-name="uni25B7" unicode="&#x25b7;" horiz-adv-x="694" 
d="M51 16v561l612 -276v-2zM108 486v-379l428 191z" />
    <glyph glyph-name="triagdn" unicode="&#x25bc;" horiz-adv-x="633" 
d="M36 602h561l-276 -613h-2z" />
    <glyph glyph-name="uni25BD" unicode="&#x25bd;" horiz-adv-x="633" 
d="M36 602h561l-276 -613h-2zM508 547h-379l191 -430z" />
    <glyph glyph-name="uni25C0" unicode="&#x25c0;" horiz-adv-x="694" 
d="M643 577v-561l-612 276v3z" />
    <glyph glyph-name="uni25C1" unicode="&#x25c1;" horiz-adv-x="694" 
d="M643 577v-561l-612 276v3zM586 106v379l-428 -191z" />
    <glyph glyph-name="uni25C6" unicode="&#x25c6;" horiz-adv-x="386" 
d="M42 255l149 157l152 -161l-148 -154z" />
    <glyph glyph-name="uni25C9" unicode="&#x25c9;" horiz-adv-x="518" 
d="M259 322q31 0 51 -21t20 -50q0 -33 -19.5 -55t-49.5 -22q-32 0 -51.5 22t-19.5 55q0 29 19.5 50t49.5 21zM467 251q-1 -92 -59.5 -154.5t-146.5 -62.5q-89 0 -149 61t-60 156q0 90 60.5 152t149.5 62q87 0 146 -62.5t59 -151.5zM261 414q-67 0 -109.5 -47.5t-42.5 -115.5
q0 -71 43 -119t109 -48t108 47.5t42 119.5q0 68 -43 115.5t-107 47.5z" />
    <glyph glyph-name="lozenge" unicode="&#x25ca;" horiz-adv-x="558" 
d="M449 326l-139 262q-13 21 -30 62h-2l-31 -62l-138 -257l137 -263q27 -53 30 -64h3q2 7 29 61zM515 328l-203 -371h-73l-197 371l201 372h74z" />
    <glyph glyph-name="uni2610" unicode="&#x2610;" horiz-adv-x="1023" 
d="M162 786h757v-783l-63 -63h-751v790zM161 714v-716h682v716h-682z" />
    <glyph glyph-name="uni2611" unicode="&#x2611;" horiz-adv-x="1023" 
d="M694 654h71q-173 -229 -349 -607h-23q-80 125 -144 284l57 37q47 -148 97 -240q62 142 141 285.5t150 240.5zM162 786h757v-783l-63 -63h-751v790zM161 714v-716h682v716h-682z" />
    <glyph glyph-name="uni2713" unicode="&#x2713;" horiz-adv-x="696" 
d="M610 757h84q-211 -299 -460 -823h-24q-104 160 -172 343l64 42q47 -154 119 -285q202 455 389 723z" />
    <glyph glyph-name="uni2752" unicode="&#x2752;" horiz-adv-x="458" 
d="M62 348l76 77h256v-275l-71 -76h-261v274zM109 340v-216h205v216h-205z" />
    <glyph glyph-name="fi" unicode="&#xfb01;" horiz-adv-x="487" 
d="M97 -1h-63l94 448h-84l13 55h83l18 81q35 162 161 162q33 0 55 -8l-13 -56q-18 5 -44 5q-73 0 -96 -104l-17 -80h105l-13 -55h-105zM291 0l107 503h63l-107 -503h-63zM426 633l21 103h63l-21 -103h-63z" />
    <glyph glyph-name="fl" unicode="&#xfb02;" horiz-adv-x="487" 
d="M97 -1h-63l94 448h-84l13 55h83l18 81q35 162 161 162q33 0 55 -8l-13 -56q-18 5 -44 5q-73 0 -96 -104l-17 -80h105l-13 -55h-105zM354 0h-63l156 736h63z" />
    <glyph glyph-name="uni00470303" horiz-adv-x="695" 
d="M647 372l-77 -372h-55q3 40 20 118q-38 -61 -91 -93.5t-142 -32.5q-117 0 -179 76t-62 200q0 66 14.5 129t45 119.5t73 99t103.5 67.5t133 25q109 0 175.5 -57.5t70.5 -151.5h-65q-9 68 -56.5 109.5t-135.5 41.5t-155 -54.5t-100 -138.5t-33 -181q0 -101 46 -163.5
t140 -62.5q58 0 103 20.5t74 58.5t46.5 81t29.5 98l1 4h-221l13 60h284zM342 777h-51l4 22q7 48 27.5 66t55.5 18q31 0 80.5 -27t66.5 -27q28 0 37 45l2 9h50l-5 -26q-9 -46 -29.5 -64.5t-55.5 -18.5q-29 0 -76 27.5t-68 27.5q-27 0 -35 -33z" />
    <glyph glyph-name="uni00670303" horiz-adv-x="546" 
d="M490 367l-69 -326q-28 -130 -81 -190.5t-169 -60.5q-56 0 -94.5 14.5t-56 39t-23.5 47.5t-6 49h63q0 -42 31 -69t94 -27q81 0 118.5 49.5t62.5 154.5l13 56q-57 -103 -172 -103q-75 0 -118.5 50t-43.5 143q0 78 28 149t87.5 120.5t138.5 49.5q63 0 100.5 -27.5
t45.5 -62.5q12 52 22 80h60q-7 -28 -31 -136zM292 456q-57 0 -100.5 -38t-64.5 -96t-21 -124q0 -139 114 -139q72 0 120 58.5t68 148.5q19 85 -9.5 137.5t-106.5 52.5zM241 615h-49l4 20q9 48 29 66t57 18q28 0 72 -25t57 -25q27 0 34 42l2 11h49l-4 -19q-9 -49 -28.5 -68.5
t-54.5 -19.5q-25 0 -69 26t-62 26q-24 0 -33 -35z" />
    <glyph glyph-name="zero.slash" horiz-adv-x="542" 
d="M344 668q167 0 167 -204q0 -57 -8.5 -117.5t-29.5 -125.5t-52.5 -115.5t-82.5 -83t-113 -32.5q-84 0 -126.5 56t-42.5 162q0 54 9.5 113.5t32 122t54.5 112t82 81t110 31.5zM334 611q-53 0 -96.5 -42.5t-68 -107t-37.5 -130.5t-13 -123q0 -26 3 -49l302 410
q-28 42 -90 42zM234 48q54 0 97.5 43.5t67.5 109.5t36.5 133t12.5 125q0 30 -5 60l-304 -416q27 -55 95 -55z" />
    <glyph glyph-name="zero.slashtab" horiz-adv-x="537" 
d="M345 668q167 0 167 -204q0 -57 -8.5 -117.5t-29.5 -125.5t-52.5 -115.5t-82.5 -83t-113 -32.5q-84 0 -126.5 56t-42.5 162q0 54 9.5 113.5t32 122t54.5 112t82 81t110 31.5zM335 611q-53 0 -96.5 -42.5t-68 -107t-37.5 -130.5t-13 -123q0 -26 3 -49l302 410
q-28 42 -90 42zM235 48q54 0 97.5 43.5t67.5 109.5t36.5 133t12.5 125q0 30 -5 60l-304 -416q28 -55 95 -55z" />
    <glyph glyph-name="zero.tab" horiz-adv-x="537" 
d="M345 668q88 0 128 -57.5t40 -148.5q0 -72 -14.5 -148t-45.5 -151.5t-89.5 -124t-135.5 -48.5q-85 0 -127.5 57t-42.5 160q0 54 9.5 113t31.5 122t53.5 112.5t82 81.5t110.5 32zM336 611q-53 0 -96 -42.5t-67 -107.5t-36.5 -131t-12.5 -122q0 -161 113 -161q54 0 96.5 44
t66 110t35.5 133t12 125q0 152 -111 152z" />
    <glyph glyph-name="one.tab" horiz-adv-x="537" 
d="M415 0h-374l12 56h158l110 515q-20 -15 -66 -28t-79 -16l13 55q44 8 91 29.5t76 46.5h48l-128 -602h150z" />
    <glyph glyph-name="two.tab" horiz-adv-x="537" 
d="M438 0h-423l3 13q17 77 75 142t165 139q15 10 46 30.5t41 28t30.5 23.5t27 26t16 26t12.5 33t3 39q0 51 -29 81.5t-86 30.5q-60 0 -97 -33.5t-58 -104.5h-62q21 90 75.5 142.5t147.5 52.5q86 0 130.5 -47.5t44.5 -118.5q0 -19 -2.5 -36t-5.5 -31t-11.5 -28t-14.5 -24
t-19.5 -23t-21.5 -20.5t-27.5 -21.5t-29.5 -21t-34.5 -23.5t-36.5 -24.5q-85 -58 -129.5 -99t-65.5 -95h357z" />
    <glyph glyph-name="three.tab" horiz-adv-x="537" 
d="M182 508h-64q16 65 66 112.5t138 47.5q86 0 129 -43t43 -108q0 -62 -32.5 -102.5t-84.5 -56.5v-2q98 -40 98 -148q0 -94 -62.5 -156t-172.5 -62q-99 0 -147.5 51.5t-50.5 128.5h64q4 -52 37 -87.5t104 -35.5q78 0 120 45.5t42 110.5q0 125 -149 125h-39l10 58h37
q160 0 160 127q0 47 -29.5 73t-83.5 26q-94 0 -133 -104z" />
    <glyph glyph-name="four.tab" horiz-adv-x="537" 
d="M362 0h-64l37 179h-301l14 61l380 418h74l-91 -424h84l-20 -55h-76zM348 234l44 203q20 91 38 154q-16 -22 -71.5 -86t-135.5 -152t-107 -119h232z" />
    <glyph glyph-name="five.tab" horiz-adv-x="537" 
d="M512 658l-21 -57h-277q-41 -155 -64 -219q59 54 143 54q77 0 124 -49.5t47 -134.5q0 -109 -64.5 -185.5t-181.5 -76.5q-84 0 -136 46.5t-57 131.5h64q6 -56 39.5 -88.5t93.5 -32.5q85 0 130 59.5t45 139.5q0 61 -30.5 96.5t-91.5 35.5q-56 0 -88.5 -21t-62.5 -62l-54 23
q38 111 101 340h341z" />
    <glyph glyph-name="six.tab" horiz-adv-x="537" 
d="M519 520h-64q-10 93 -112 93q-151 0 -206 -260q63 82 171 82q84 0 130 -52.5t46 -138.5q0 -105 -63 -179.5t-168 -74.5q-95 0 -144.5 62t-49.5 168q0 68 15.5 141.5t47.5 145t90.5 117.5t134.5 46q47 0 81.5 -14t53 -37.5t27 -48t10.5 -50.5zM257 47q75 0 117.5 56.5
t42.5 138.5q0 56 -28.5 95.5t-95.5 39.5q-76 0 -123 -48t-47 -124q0 -64 33 -111t101 -47z" />
    <glyph glyph-name="seven.tab" horiz-adv-x="537" 
d="M134 658h417l-11 -57q-108 -122 -214.5 -286t-172.5 -315h-70q63 152 173 316.5t214 284.5h-348z" />
    <glyph glyph-name="eight.tab" horiz-adv-x="537" 
d="M233 -10q-94 0 -145.5 51.5t-51.5 124.5q0 71 44.5 122.5t114.5 70.5q-33 14 -56.5 47t-23.5 77q0 79 55 132t150 53q80 0 127 -42t47 -111q0 -64 -34.5 -107t-81.5 -56q90 -40 90 -146q0 -92 -64 -154t-171 -62zM313 612q-63 0 -98.5 -35t-35.5 -94q0 -44 29.5 -73
t86.5 -29q65 0 99.5 35t34.5 92q0 46 -27.5 75t-88.5 29zM240 46q74 0 118 44t44 114q0 54 -32.5 87t-100.5 33q-75 0 -121 -44.5t-46 -108.5q0 -54 35.5 -89.5t102.5 -35.5z" />
    <glyph glyph-name="nine.tab" horiz-adv-x="537" 
d="M40 149h63q7 -52 34 -77.5t82 -25.5q155 0 207 285q-51 -84 -166 -84q-77 0 -126.5 48.5t-49.5 137.5q0 92 61.5 163.5t166.5 71.5q92 0 139 -60t47 -164q0 -47 -6 -99.5t-25.5 -118t-49 -116t-83 -85.5t-122.5 -35q-89 0 -128.5 45.5t-43.5 113.5zM305 611
q-73 0 -114.5 -52.5t-41.5 -122.5q0 -63 33.5 -98.5t89.5 -35.5q69 0 115 44.5t46 114.5q0 66 -30 108t-98 42z" />
    <glyph glyph-name="zero.slashcap" horiz-adv-x="575" 
d="M363 709q179 0 179 -220q0 -59 -9.5 -123t-32 -132t-56 -121.5t-87 -88t-118.5 -34.5q-89 0 -134.5 59.5t-45.5 172.5q0 73 17.5 153t52 157t96 127t138.5 50zM355 651q-56 0 -102 -45t-72.5 -113t-40.5 -139t-14 -131q0 -34 4 -55l326 429q-28 54 -101 54zM249 48
q46 0 85 31t64.5 79t43.5 108t26 116t8 104q0 34 -4 57l-327 -431q29 -64 104 -64z" />
    <glyph glyph-name="zero.cap" horiz-adv-x="575" 
d="M363 709q179 0 179 -220q0 -59 -9 -123t-32 -132t-56 -121.5t-86.5 -88t-119.5 -34.5q-89 0 -134.5 59.5t-45.5 172.5q0 57 10 120t34 129t58 118.5t86.5 86t115.5 33.5zM355 650q-56 0 -102 -45.5t-72 -114t-39.5 -138.5t-13.5 -130q0 -173 121 -173q46 0 85 31.5
t64.5 79.5t43 108t25 116t7.5 104q0 79 -27 120.5t-92 41.5z" />
    <glyph glyph-name="one.cap" horiz-adv-x="349" 
d="M185 0h-66l130 606q-26 -19 -80 -35t-93 -22l13 58q52 10 108 36t88 55h49z" />
    <glyph glyph-name="two.cap" horiz-adv-x="524" 
d="M435 0h-448l4 14q20 81 83 153.5t171 145.5q16 11 46.5 31t42.5 29t33 25.5t29.5 28t19.5 28.5t14.5 35.5t3.5 40.5q0 51 -32 84.5t-94 33.5t-101.5 -33t-60.5 -107h-66q47 199 235 199q91 0 139 -50t48 -125q0 -25 -4.5 -47t-10 -38.5t-20 -35t-24 -29.5t-33 -29
t-36 -26.5t-43.5 -29.5t-46 -32q-87 -61 -134.5 -106.5t-71.5 -101.5h378z" />
    <glyph glyph-name="three.cap" horiz-adv-x="533" 
d="M171 538h-67q20 72 73.5 121t146.5 49q90 0 134.5 -45t44.5 -110q0 -129 -124 -168v-1q46 -18 74.5 -59.5t28.5 -100.5q0 -100 -66.5 -167t-179.5 -67q-104 0 -156 54t-54 140h65q5 -63 42.5 -99.5t107.5 -36.5q82 0 127.5 49t45.5 122q0 135 -156 135h-44l10 60h40
q171 0 171 134q0 49 -31.5 76t-86.5 27q-104 0 -146 -113z" />
    <glyph glyph-name="four.cap" horiz-adv-x="543" 
d="M369 0h-66l39 191h-321l15 63l404 444h78l-97 -449h89l-20 -58h-82zM355 249l47 215q14 71 40 164q-28 -39 -335 -379h248z" />
    <glyph glyph-name="five.cap" horiz-adv-x="539" 
d="M543 698l-19 -59h-292q-45 -164 -70 -234q62 59 152 59q84 0 131 -53t47 -144q0 -116 -68.5 -197t-192.5 -81q-91 0 -144 48t-54 143h65q4 -64 39 -99t99 -35q89 0 138.5 63.5t49.5 151.5q0 144 -129 144q-55 0 -91.5 -24.5t-67.5 -66.5l-56 25q44 128 107 359h356z" />
    <glyph glyph-name="six.cap" horiz-adv-x="557" 
d="M535 540h-62q-11 111 -125 111q-60 0 -105 -42t-69 -103t-38 -141q27 42 75 69.5t110 27.5q88 0 137.5 -53.5t49.5 -142.5q0 -113 -69.5 -195t-181.5 -82q-95 0 -148.5 60t-53.5 181q0 57 9 118.5t31.5 126.5t55 116t84.5 84t116 33q54 0 92.5 -16.5t57 -44t26.5 -53.5
t8 -54zM261 47q80 0 129 63t49 150q0 60 -31.5 101t-103.5 41q-80 0 -130.5 -55t-50.5 -138q0 -72 35 -117t103 -45z" />
    <glyph glyph-name="seven.cap" horiz-adv-x="489" 
d="M108 698h441l-13 -58q-118 -135 -229 -306t-181 -334h-73q64 160 183 339t227 300h-368z" />
    <glyph glyph-name="eight.cap" horiz-adv-x="536" 
d="M235 -11q-98 0 -152.5 50.5t-54.5 130.5q0 76 45 130.5t120 75.5q-36 15 -59 49.5t-23 81.5q0 82 59 142t158 60q86 0 135.5 -44t49.5 -119q0 -69 -35 -115t-86 -63q94 -43 94 -153q0 -96 -66.5 -161t-184.5 -65zM322 653q-67 0 -105.5 -40.5t-38.5 -103.5
q0 -48 30 -79.5t91 -31.5q68 0 107.5 38.5t39.5 102.5q0 49 -30.5 81.5t-93.5 32.5zM241 46q81 0 129 45.5t48 121.5q0 57 -35 92.5t-110 35.5q-79 0 -128 -45t-49 -118q0 -57 36 -94.5t109 -37.5z" />
    <glyph glyph-name="nine.cap" horiz-adv-x="559" 
d="M45 162h63q17 -114 131 -114q161 0 214 309q-55 -91 -181 -91q-82 0 -132.5 50.5t-50.5 141.5q0 99 64 174.5t176 75.5q98 0 148.5 -62t50.5 -171q0 -31 -2.5 -66.5t-11 -84t-21.5 -93t-36 -89.5t-53 -78t-74.5 -53.5t-97.5 -20.5q-95 0 -139 49.5t-48 122.5zM321 650
q-76 0 -120.5 -55t-44.5 -133q0 -65 34.5 -102t96.5 -37q76 0 124.5 48t48.5 123q0 156 -139 156z" />
    <glyph glyph-name="period.sups" horiz-adv-x="131" 
d="M82 424h-54l21 102h54z" />
    <glyph glyph-name="comma.sups" horiz-adv-x="131" 
d="M20 350h-48q56 90 74 167h55q-28 -112 -81 -167z" />
    <glyph glyph-name="dollar.sups" horiz-adv-x="358" 
d="M168 360h-49l13 66q-48 9 -76.5 40t-27.5 80h55q2 -39 29 -59t68 -20t69 17t28 54q0 23 -18.5 38.5t-69.5 31.5q-60 18 -87 42t-27 61q0 53 41 83t102 30l11 55h49l-12 -59q46 -10 69 -39.5t23 -70.5h-53q-5 72 -91 72q-83 0 -83 -65q0 -21 19 -34.5t66 -28.5
q65 -20 91 -46t26 -65q0 -57 -42 -87.5t-109 -32.5z" />
    <glyph glyph-name="cent.sups" horiz-adv-x="361" 
d="M288 556h56q-35 -90 -139 -98l-14 -64h-49l14 66q-47 9 -74 45t-27 87q0 77 45.5 129t122.5 56l11 53h49l-12 -57q45 -9 68 -38.5t21 -64.5h-55q-8 66 -80 66q-51 0 -82.5 -39.5t-31.5 -100.5q0 -43 21.5 -70t62.5 -27q60 0 93 57z" />
    <glyph glyph-name="hyphen.sups" horiz-adv-x="212" 
d="M58 644h153l-11 -47h-153z" />
    <glyph glyph-name="period.subs" horiz-adv-x="131" 
d="M-45 -177h-54l21 102h54z" />
    <glyph glyph-name="comma.subs" horiz-adv-x="131" 
d="M-107 -251h-48q56 90 74 167h55q-28 -112 -81 -167z" />
    <glyph glyph-name="dollar.subs" horiz-adv-x="358" 
d="M41 -241h-49l13 66q-48 9 -76.5 40t-27.5 80h55q2 -39 29 -59t68 -20t69 17t28 54q0 23 -18.5 38.5t-69.5 31.5q-60 18 -87 42t-27 61q0 53 41 83t102 30l11 55h49l-12 -59q46 -10 69 -39.5t23 -70.5h-53q-5 72 -91 72q-83 0 -83 -65q0 -21 19 -34.5t66 -28.5
q65 -20 91 -46t26 -65q0 -57 -42 -87.5t-109 -32.5z" />
    <glyph glyph-name="cent.subs" horiz-adv-x="361" 
d="M161 -45h56q-35 -90 -139 -98l-14 -64h-49l14 66q-47 9 -74 45t-27 87q0 77 45.5 129t122.5 56l11 53h49l-12 -57q45 -9 68 -38.5t21 -64.5h-55q-8 66 -80 66q-51 0 -82.5 -39.5t-31.5 -100.5q0 -43 21.5 -70t62.5 -27q60 0 93 57z" />
    <glyph glyph-name="hyphen.subs" horiz-adv-x="212" 
d="M-69 43h153l-11 -47h-153z" />
    <glyph glyph-name="zero.numr" horiz-adv-x="367" 
d="M258 660q60 0 92.5 -38t32.5 -108q0 -63 -17.5 -120t-61.5 -99t-107 -42q-60 0 -93 40t-33 109q0 62 18 118t62 98t107 42zM251 613q-41 0 -70.5 -37.5t-40.5 -83t-11 -90.5q0 -101 74 -101q33 0 58.5 22t38.5 56.5t19.5 69.5t6.5 67q0 49 -20.5 73t-54.5 24z" />
    <glyph glyph-name="one.numr" horiz-adv-x="233" 
d="M162 257h-56l71 333q-33 -11 -83 -14l10 44q66 9 104 40h39z" />
    <glyph glyph-name="two.numr" horiz-adv-x="343" 
d="M324 258h-281l2 12q19 96 163 179q62 35 80 52.5t18 49.5q0 29 -18.5 46t-52.5 17q-69 0 -94 -78h-53q31 124 153 124q57 0 88.5 -30t31.5 -76q0 -49 -26 -77t-97 -66q-95 -50 -120 -105h223z" />
    <glyph glyph-name="three.numr" horiz-adv-x="352" 
d="M54 374h52q5 -36 29.5 -56.5t64.5 -20.5t66 20.5t26 62.5q0 29 -19 48t-59 19h-39l10 46h34q83 0 83 68q0 23 -16 38.5t-50 15.5q-36 0 -53.5 -16.5t-30.5 -45.5h-53q29 107 143 107q56 0 87 -27t31 -71q0 -34 -19.5 -58t-50.5 -33q22 -8 41 -31.5t19 -57.5
q0 -54 -38.5 -91t-114.5 -37q-77 0 -110 37.5t-33 82.5z" />
    <glyph glyph-name="four.numr" horiz-adv-x="348" 
d="M271 261h-53l23 107h-195l8 43l232 246h69l-53 -245h61l-14 -44h-55zM115 412h134l22 96q1 4 10 44.5t13 54.5q-10 -13 -179 -195z" />
    <glyph glyph-name="five.numr" horiz-adv-x="362" 
d="M386 657l-17 -48h-187q-6 -20 -16.5 -57t-15.5 -55q37 27 89 27q56 0 87.5 -33.5t31.5 -81.5q0 -68 -44.5 -111t-117.5 -43q-64 0 -99 33.5t-37 83.5h53q4 -34 28 -53t58 -19q47 0 73.5 27t26.5 74q0 77 -75 77q-61 0 -97 -45l-43 13q19 53 63 211h239z" />
    <glyph glyph-name="six.numr" horiz-adv-x="358" 
d="M382 557h-53q-10 57 -73 57q-50 0 -81.5 -39t-42.5 -103q44 50 111 50q57 0 88 -34t31 -84q0 -66 -44.5 -108.5t-109.5 -42.5q-63 0 -100.5 39.5t-37.5 115.5q0 59 18.5 114.5t64 96.5t108.5 41q56 0 88 -31t33 -72zM208 299q43 0 69 28t26 74q0 35 -19.5 55.5
t-56.5 20.5q-40 0 -70 -23t-30 -62q0 -38 19.5 -65.5t61.5 -27.5z" />
    <glyph glyph-name="seven.numr" horiz-adv-x="324" 
d="M110 657h271l-8 -42q-66 -60 -132 -159t-104 -195h-62q34 89 103.5 191t129.5 157h-208z" />
    <glyph glyph-name="eight.numr" horiz-adv-x="344" 
d="M193 253q-61 0 -95.5 30.5t-34.5 73.5q0 82 91 111q-21 9 -32.5 30t-11.5 44q0 52 38.5 85t102.5 33q57 0 87 -29t30 -68q0 -36 -20 -62t-55 -36q27 -11 43.5 -33.5t16.5 -50.5q0 -61 -45 -94.5t-115 -33.5zM246 617q-36 0 -59 -18.5t-23 -53.5q0 -26 17.5 -41.5
t49.5 -15.5q35 0 58.5 18.5t23.5 52.5q0 26 -16.5 42t-50.5 16zM200 298q43 0 69.5 20.5t26.5 61.5q0 29 -21.5 46t-59.5 17q-40 0 -67.5 -21t-27.5 -60q0 -29 22 -46.5t58 -17.5z" />
    <glyph glyph-name="nine.numr" horiz-adv-x="347" 
d="M57 359h55q10 -60 78 -60q86 0 116 144q-44 -42 -103 -42q-53 0 -85.5 32.5t-32.5 82.5q0 61 41 102.5t108 41.5q61 0 96.5 -36t35.5 -107q0 -46 -8.5 -88.5t-27.5 -84t-57 -66.5t-90 -25q-59 0 -91.5 31.5t-34.5 74.5zM229 614q-41 0 -65 -26t-24 -67q0 -34 21 -53.5
t55 -19.5q44 0 69.5 22.5t25.5 59.5q0 40 -21.5 62t-60.5 22z" />
    <glyph glyph-name="parenleft.numr" horiz-adv-x="203" 
d="M217 704h56q-80 -79 -113 -146.5t-33 -162.5q0 -107 38 -199h-49q-39 84 -39 197q0 92 37 173t103 138z" />
    <glyph glyph-name="parenright.numr" horiz-adv-x="203" 
d="M68 196h-56q80 80 112.5 147t32.5 163q0 108 -38 198h49q40 -88 40 -197q0 -91 -37.5 -173.5t-102.5 -137.5z" />
    <glyph glyph-name="period.numr" horiz-adv-x="131" 
d="M102 257h-54l21 102h54z" />
    <glyph glyph-name="comma.numr" horiz-adv-x="131" 
d="M40 183h-48q56 90 74 167h55q-28 -112 -81 -167z" />
    <glyph glyph-name="dollar.numr" horiz-adv-x="358" 
d="M188 193h-49l13 66q-48 9 -76.5 40t-27.5 80h55q2 -39 29 -59t68 -20t69 17t28 54q0 23 -18.5 38.5t-69.5 31.5q-60 18 -87 42t-27 61q0 53 41 83t102 30l11 55h49l-12 -59q46 -10 69 -39.5t23 -70.5h-53q-5 72 -91 72q-83 0 -83 -65q0 -21 19 -34.5t66 -28.5
q65 -20 91 -46t26 -65q0 -57 -42 -87.5t-109 -32.5z" />
    <glyph glyph-name="cent.numr" horiz-adv-x="361" 
d="M308 389h56q-35 -90 -139 -98l-14 -64h-49l14 66q-47 9 -74 45t-27 87q0 77 45.5 129t122.5 56l11 53h49l-12 -57q45 -9 68 -38.5t21 -64.5h-55q-8 66 -80 66q-51 0 -82.5 -39.5t-31.5 -100.5q0 -43 21.5 -70t62.5 -27q60 0 93 57z" />
    <glyph glyph-name="hyphen.numr" horiz-adv-x="212" 
d="M78 477h153l-11 -47h-153z" />
    <glyph glyph-name="zero.dnom" horiz-adv-x="367" 
d="M201 401q60 0 92.5 -38t32.5 -108q0 -63 -17.5 -120t-61.5 -99t-107 -42q-60 0 -93 40t-33 109q0 62 18 118t62 98t107 42zM194 354q-41 0 -70.5 -37.5t-40.5 -83t-11 -90.5q0 -101 74 -101q33 0 58.5 22t38.5 56.5t19.5 69.5t6.5 67q0 49 -20.5 73t-54.5 24z" />
    <glyph glyph-name="one.dnom" horiz-adv-x="233" 
d="M105 -2h-56l71 333q-33 -11 -83 -14l10 44q66 9 104 40h39z" />
    <glyph glyph-name="two.dnom" horiz-adv-x="343" 
d="M267 -1h-281l2 12q19 96 163 179q62 35 80 52.5t18 49.5q0 29 -18.5 46t-52.5 17q-69 0 -94 -78h-53q31 124 153 124q57 0 88.5 -30t31.5 -76q0 -49 -26 -77t-97 -66q-95 -50 -120 -105h223z" />
    <glyph glyph-name="three.dnom" horiz-adv-x="352" 
d="M-3 115h52q5 -36 29.5 -56.5t64.5 -20.5t66 20.5t26 62.5q0 29 -19 48t-59 19h-39l10 46h34q83 0 83 68q0 23 -16 38.5t-50 15.5q-36 0 -53.5 -16.5t-30.5 -45.5h-53q29 107 143 107q56 0 87 -27t31 -71q0 -34 -19.5 -58t-50.5 -33q22 -8 41 -31.5t19 -57.5
q0 -54 -38.5 -91t-114.5 -37q-77 0 -110 37.5t-33 82.5z" />
    <glyph glyph-name="four.dnom" horiz-adv-x="348" 
d="M214 2h-53l23 107h-195l8 43l232 246h69l-53 -245h61l-14 -44h-55zM58 153h134l22 96q1 4 10 44.5t13 54.5q-10 -13 -179 -195z" />
    <glyph glyph-name="five.dnom" horiz-adv-x="362" 
d="M329 398l-17 -48h-187q-6 -20 -16.5 -57t-15.5 -55q37 27 89 27q56 0 87.5 -33.5t31.5 -81.5q0 -68 -44.5 -111t-117.5 -43q-64 0 -99 33.5t-37 83.5h53q4 -34 28 -53t58 -19q47 0 73.5 27t26.5 74q0 77 -75 77q-61 0 -97 -45l-43 13q19 53 63 211h239z" />
    <glyph glyph-name="six.dnom" horiz-adv-x="358" 
d="M325 298h-53q-10 57 -73 57q-50 0 -81.5 -39t-42.5 -103q44 50 111 50q57 0 88 -34t31 -84q0 -66 -44.5 -108.5t-109.5 -42.5q-63 0 -100.5 39.5t-37.5 115.5q0 59 18.5 114.5t64 96.5t108.5 41q56 0 88 -31t33 -72zM151 40q43 0 69 28t26 74q0 35 -19.5 55.5t-56.5 20.5
q-40 0 -70 -23t-30 -62q0 -38 19.5 -65.5t61.5 -27.5z" />
    <glyph glyph-name="seven.dnom" horiz-adv-x="324" 
d="M53 398h271l-8 -42q-66 -60 -132 -159t-104 -195h-62q34 89 103.5 191t129.5 157h-208z" />
    <glyph glyph-name="eight.dnom" horiz-adv-x="344" 
d="M136 -6q-61 0 -95.5 30.5t-34.5 73.5q0 82 91 111q-21 9 -32.5 30t-11.5 44q0 52 38.5 85t102.5 33q57 0 87 -29t30 -68q0 -36 -20 -62t-55 -36q27 -11 43.5 -33.5t16.5 -50.5q0 -61 -45 -94.5t-115 -33.5zM189 358q-36 0 -59 -18.5t-23 -53.5q0 -26 17.5 -41.5
t49.5 -15.5q35 0 58.5 18.5t23.5 52.5q0 26 -16.5 42t-50.5 16zM143 39q43 0 69.5 20.5t26.5 61.5q0 29 -21.5 46t-59.5 17q-40 0 -67.5 -21t-27.5 -60q0 -29 22 -46.5t58 -17.5z" />
    <glyph glyph-name="nine.dnom" horiz-adv-x="347" 
d="M0 100h55q10 -60 78 -60q86 0 116 144q-44 -42 -103 -42q-52 0 -85 33t-33 82q0 61 41 102.5t108 41.5q61 0 96.5 -36t35.5 -107q0 -46 -8.5 -88.5t-27.5 -84t-57 -66.5t-90 -25q-59 0 -91.5 31.5t-34.5 74.5zM172 355q-41 0 -65 -26t-24 -67q0 -34 21 -53.5t55 -19.5
q44 0 69.5 22.5t25.5 59.5q0 40 -21.5 62t-60.5 22z" />
    <glyph glyph-name="parenleft.dnom" horiz-adv-x="203" 
d="M160 445h56q-80 -79 -113 -146.5t-33 -162.5q0 -107 38 -199h-49q-39 84 -39 197q0 92 37 173t103 138z" />
    <glyph glyph-name="parenright.dnom" horiz-adv-x="203" 
d="M11 -63h-56q80 80 112.5 147t32.5 163q0 108 -38 198h49q40 -88 40 -197q0 -91 -37.5 -173.5t-102.5 -137.5z" />
    <glyph glyph-name="period.dnom" horiz-adv-x="131" 
d="M45 -2h-54l21 102h54z" />
    <glyph glyph-name="comma.dnom" horiz-adv-x="131" 
d="M-17 -76h-48q56 90 74 167h55q-28 -112 -81 -167z" />
    <glyph glyph-name="dollar.dnom" horiz-adv-x="358" 
d="M131 -66h-49l13 66q-48 9 -76.5 40t-27.5 80h55q2 -39 29 -59t68 -20t69 17t28 54q0 23 -18.5 38.5t-69.5 31.5q-60 18 -87 42t-27 61q0 53 41 83t102 30l11 55h49l-12 -59q46 -10 69 -39.5t23 -70.5h-53q-5 72 -91 72q-83 0 -83 -65q0 -21 19 -34.5t66 -28.5
q65 -20 91 -46t26 -65q0 -57 -42 -87.5t-109 -32.5z" />
    <glyph glyph-name="cent.dnom" horiz-adv-x="361" 
d="M251 130h56q-35 -90 -139 -98l-14 -64h-49l14 66q-47 9 -74 45t-27 87q0 77 45.5 129t122.5 56l11 53h49l-12 -57q45 -9 68 -38.5t21 -64.5h-55q-8 66 -80 66q-51 0 -82.5 -39.5t-31.5 -100.5q0 -43 21.5 -70t62.5 -27q60 0 93 57z" />
    <glyph glyph-name="hyphen.dnom" horiz-adv-x="212" 
d="M21 218h153l-11 -47h-153z" />
    <glyph glyph-name="a.sups" horiz-adv-x="364" 
d="M353 483l-28 -140q-3 -14 -9 -46t-7 -38h-50q5 35 9 53q-39 -59 -113 -59q-48 0 -72 27t-24 62t15.5 59t45.5 37t56.5 18.5t64.5 9.5q38 2 59 2l2 10q7 38 -5.5 59t-60.5 21q-39 0 -56 -14t-27 -41h-51q20 98 140 98q62 0 92.5 -30.5t18.5 -87.5zM291 421l2 8
q-17 0 -51 -2q-64 -6 -95.5 -22t-31.5 -58q0 -21 13.5 -35.5t39.5 -14.5q98 0 123 124z" />
    </font>
</defs>
</svg>
