<?xml version="1.0" standalone="no"?>
<!DOCTYPE svg PUBLIC "-//W3C//DTD SVG 1.1//EN" "http://www.w3.org/Graphics/SVG/1.1/DTD/svg11.dtd" >
<svg xmlns="http://www.w3.org/2000/svg" xmlns:xlink="http://www.w3.org/1999/xlink" version="1.1">
<metadata>
Created by FontForge 20170731 at Tue Apr  5 15:57:11 2016
 By Aleksey,,,
(c) 2014 Adobe Systems Incorporated. All Rights Reserved.
</metadata>
<defs>
<font id="AcuminPro-BoldItalic" horiz-adv-x="400" >
  <font-face 
    font-family="Acumin Pro"
    font-weight="700"
    font-style="italic"
    font-stretch="normal"
    units-per-em="1000"
    panose-1="2 11 8 4 2 2 2 9 2 4"
    ascent="735"
    descent="-265"
    x-height="518"
    cap-height="689"
    bbox="-311 -261 1270 1059"
    underline-thickness="50"
    underline-position="-200"
    slope="-12"
    unicode-range="U+0020-FB02"
  />
<missing-glyph horiz-adv-x="500" 
d="M0 0v700h500v-700h-500zM250 395l170 255h-340zM280 350l170 -255v510zM80 50h340l-170 255zM50 605v-510l170 255z" />
    <glyph glyph-name="f_f" unicode="ff" horiz-adv-x="614" 
d="M408 414h-163l-86 -414h-135l86 414h-74l24 104h72l11 52q37 170 187 170q43 0 64 -7l-24 -108q-14 2 -30 2q-51 0 -62 -59l-11 -50h165l11 52q37 170 186 170q45 0 64 -7l-23 -108q-14 2 -30 2q-28 0 -42 -15.5t-20 -43.5l-11 -50h88l-23 -104h-87l-86 -414h-137z" />
    <glyph glyph-name=".notdef" horiz-adv-x="500" 
d="M0 0v700h500v-700h-500zM250 395l170 255h-340zM280 350l170 -255v510zM80 50h340l-170 255zM50 605v-510l170 255z" />
    <glyph glyph-name=".null" horiz-adv-x="0" 
 />
    <glyph glyph-name="nonmarkingreturn" horiz-adv-x="333" 
 />
    <glyph glyph-name="space" unicode=" " horiz-adv-x="242" 
 />
    <glyph glyph-name="exclam" unicode="!" horiz-adv-x="314" 
d="M235 250h-110l51 320l26 119h144l-26 -120zM193 0h-134l35 166h134z" />
    <glyph glyph-name="quotedbl" unicode="&#x22;" horiz-adv-x="414" 
d="M197 437h-98l29 201l20 92h123l-19 -93zM388 437h-97l30 201l20 92h123l-20 -93z" />
    <glyph glyph-name="numbersign" unicode="#" horiz-adv-x="545" 
d="M227 0l58 173h-103l-57 -173h-95l58 173h-73l16 108h94l40 120h-79l14 108h101l54 160h92l-53 -160h103l54 160h93l-53 -160h70l-16 -108h-90l-40 -120h82l-16 -108h-102l-57 -173h-95zM321 281l40 120h-103l-40 -120h103z" />
    <glyph glyph-name="dollar" unicode="$" horiz-adv-x="532" 
d="M246 -87h-104l18 85q-78 16 -117 65.5t-32 125.5h134q2 -93 103 -93q52 0 78 23t26 62q0 33 -21 54.5t-73 44.5q-95 43 -134.5 82.5t-39.5 99.5q0 87 59.5 141t159.5 60l12 56h104l-14 -64q69 -19 101 -68t26 -112h-130q-6 84 -93 84q-37 0 -61 -18.5t-24 -54.5
q0 -27 21.5 -45t86.5 -48q84 -38 122.5 -81t38.5 -109q0 -94 -62 -150t-168 -62z" />
    <glyph glyph-name="percent" unicode="%" horiz-adv-x="916" 
d="M282 668q66 0 104.5 -36.5t38.5 -105.5q0 -100 -55.5 -168.5t-152.5 -68.5q-69 0 -105.5 39t-36.5 105q0 92 55.5 163.5t151.5 71.5zM272 582q-44 0 -67 -47.5t-23 -95.5q0 -64 51 -64q43 0 65.5 48t22.5 96q0 63 -49 63zM266 0h-102l529 659h101zM736 368
q66 0 104.5 -36.5t38.5 -106.5q0 -100 -55.5 -168.5t-152.5 -68.5q-69 0 -105.5 39.5t-36.5 105.5q0 91 55.5 163t151.5 72zM726 282q-30 0 -51.5 -26.5t-30 -58t-8.5 -59.5q0 -64 51 -64q44 0 66.5 48t22.5 96q0 64 -50 64z" />
    <glyph glyph-name="ampersand" unicode="&#x26;" horiz-adv-x="763" 
d="M271 113q62 0 118 51l-126 139q-84 -43 -84 -108q0 -34 25 -58t67 -24zM606 408h151l-205 -235l154 -173h-169l-71 78q-46 -45 -96 -67t-124 -22q-96 0 -151 54t-55 133q0 72 41 118t125 88q-47 64 -47 130q0 82 51.5 134.5t146.5 52.5q89 0 133 -47t44 -112
q0 -63 -35.5 -103.5t-111.5 -77.5l90 -101zM355 602q-33 0 -50 -21.5t-17 -50.5q0 -52 42 -96q80 44 80 107q0 25 -13 43t-42 18z" />
    <glyph glyph-name="quotesingle" unicode="'" horiz-adv-x="210" 
d="M198 437h-112l31 201l20 92h135l-20 -93z" />
    <glyph glyph-name="parenleft" unicode="(" horiz-adv-x="362" 
d="M286 728h138q-135 -132 -199 -260t-64 -295q0 -84 19.5 -184t50.5 -164h-118q-71 159 -71 347q0 336 244 556z" />
    <glyph glyph-name="parenright" unicode=")" horiz-adv-x="362" 
d="M84 -175h-137q135 132 199 260t64 295q0 84 -20 184.5t-51 163.5h119q71 -163 71 -347q0 -337 -245 -556z" />
    <glyph glyph-name="asterisk" unicode="*" horiz-adv-x="430" 
d="M263 690h96l-49 -151l123 96l43 -88l-158 -58l131 -59l-61 -87l-99 98l-16 -153h-96l49 152l-121 -97l-43 87l156 60l-131 57l65 89l95 -98z" />
    <glyph glyph-name="plus" unicode="+" horiz-adv-x="710" 
d="M298 564h117v-222h218v-116h-218v-226h-117v226h-220v116h220v222z" />
    <glyph glyph-name="comma" unicode="," horiz-adv-x="254" 
d="M46 -107h-115q47 68 80 147.5t46 135.5h140q-19 -78 -61 -156t-90 -127z" />
    <glyph glyph-name="hyphen" unicode="-" horiz-adv-x="374" 
d="M66 315h267l-25 -117h-267z" />
    <glyph glyph-name="period" unicode="." horiz-adv-x="245" 
d="M141 0h-148l37 176h147z" />
    <glyph glyph-name="slash" unicode="/" horiz-adv-x="431" 
d="M93 -31h-116l397 730h116z" />
    <glyph glyph-name="zero" unicode="0" horiz-adv-x="585" 
d="M364 670q97 0 147.5 -61t50.5 -162q0 -57 -9.5 -116.5t-32.5 -122t-57 -110.5t-89 -79t-123 -31q-98 0 -149.5 59.5t-51.5 161.5q0 55 9.5 114.5t33.5 122.5t58.5 112t90 80.5t122.5 31.5zM350 559q-52 0 -90 -62t-53.5 -138.5t-15.5 -148.5q0 -111 73 -111q42 0 75 41
t50.5 101.5t26 116t8.5 96.5q0 105 -74 105z" />
    <glyph glyph-name="one" unicode="1" horiz-adv-x="365" 
d="M216 0h-135l108 495q-42 -14 -129 -21l25 106q54 7 101.5 30t73.5 48h96z" />
    <glyph glyph-name="two" unicode="2" horiz-adv-x="530" 
d="M443 0h-458l5 23q17 81 73.5 153t177.5 149q82 51 110 82t28 79q0 75 -73 75q-45 0 -69 -27.5t-37 -84.5h-132q7 44 23 80.5t43.5 69.5t73.5 52t106 19q105 0 154.5 -54t49.5 -128q0 -79 -37.5 -126.5t-132.5 -107.5q-53 -32 -79 -49.5t-53 -42t-41 -49.5h308z" />
    <glyph glyph-name="three" unicode="3" horiz-adv-x="535" 
d="M222 482h-136q18 82 75.5 134t158.5 52q98 0 148.5 -47t50.5 -115q0 -116 -105 -155v-3q33 -16 57.5 -50.5t24.5 -86.5q0 -102 -69.5 -161.5t-186.5 -59.5q-112 0 -166 55.5t-54 145.5h135q7 -92 96 -92q50 0 77.5 30t27.5 77q0 87 -106 87h-41l22 110h38q55 0 83.5 19.5
t28.5 69.5q0 67 -71 67q-37 0 -56.5 -21t-31.5 -56z" />
    <glyph glyph-name="four" unicode="4" horiz-adv-x="547" 
d="M400 0h-128l33 152h-288l28 123l336 383h159l-85 -396h81l-36 -110h-67zM327 262l30 132q18 85 37 147q-17 -27 -57 -76.5t-93.5 -112.5t-74.5 -90h158z" />
    <glyph glyph-name="five" unicode="5" horiz-adv-x="546" 
d="M559 658l-43 -114h-257q-21 -76 -38 -129q43 31 112 31q83 0 131 -52t48 -136q0 -117 -71 -192.5t-196 -75.5q-101 0 -158.5 52t-59.5 142h134q3 -39 26 -62t67 -23q54 0 85.5 38t31.5 99q0 98 -91 98q-70 0 -106 -64l-112 27q52 145 105 361h392z" />
    <glyph glyph-name="six" unicode="6" horiz-adv-x="565" 
d="M556 495h-133q-8 64 -77 64q-100 0 -140 -171q53 53 140 53q82 0 130 -52.5t48 -141.5q0 -106 -68.5 -182t-186.5 -76q-113 0 -166.5 65.5t-53.5 180.5q0 48 8.5 101t30.5 113t54.5 107.5t88 79t123.5 31.5q103 0 152.5 -50t49.5 -122zM268 99q55 0 85 41.5t30 98.5
q0 95 -88 95q-54 0 -83.5 -37t-29.5 -92q0 -46 22 -76t64 -30z" />
    <glyph glyph-name="seven" unicode="7" horiz-adv-x="482" 
d="M93 658h446l-23 -109q-103 -106 -194.5 -254t-151.5 -295h-151q53 140 154.5 290.5t198.5 253.5h-304z" />
    <glyph glyph-name="eight" unicode="8" horiz-adv-x="539" 
d="M232 -12q-98 0 -157.5 50.5t-59.5 136.5q0 63 37.5 109.5t103.5 68.5q-27 16 -46.5 49t-19.5 72q0 87 62.5 141.5t168.5 54.5q92 0 145.5 -45t53.5 -117q0 -57 -28.5 -99.5t-72.5 -62.5q78 -42 78 -137q0 -97 -72 -159t-193 -62zM312 564q-43 0 -67.5 -25t-24.5 -67
q0 -31 20 -50.5t58 -19.5q45 0 68 24.5t23 65.5q0 31 -19 51.5t-58 20.5zM247 95q52 0 82.5 33t30.5 82q0 42 -25.5 64t-68.5 22q-51 0 -82 -31.5t-31 -79.5q0 -41 24.5 -65.5t69.5 -24.5z" />
    <glyph glyph-name="nine" unicode="9" horiz-adv-x="564" 
d="M36 163h133q7 -31 25 -48t56 -17q104 0 147 182q-45 -48 -135 -48q-81 0 -133 51t-52 139q0 99 69 172.5t183 73.5q110 0 163 -64t53 -172q0 -41 -5.5 -84.5t-18 -95.5t-36 -97t-56 -83t-82 -60t-110.5 -22q-104 0 -150 49.5t-51 123.5zM326 560q-52 0 -81.5 -37.5
t-29.5 -93.5q0 -43 23.5 -66.5t62.5 -23.5q54 0 82.5 33.5t28.5 85.5q0 102 -86 102z" />
    <glyph glyph-name="colon" unicode=":" horiz-adv-x="287" 
d="M233 346h-144l36 167h144zM160 0h-143l34 167h144z" />
    <glyph glyph-name="semicolon" unicode=";" horiz-adv-x="324" 
d="M263 338h-147l38 175h147zM81 -107h-115q87 144 118 283h140q-18 -72 -59.5 -154t-83.5 -129z" />
    <glyph glyph-name="less" unicode="&#x3c;" horiz-adv-x="616" 
d="M79 228v113l458 232v-124l-333 -164l333 -168v-125z" />
    <glyph glyph-name="equal" unicode="=" horiz-adv-x="713" 
d="M79 215h555v-116h-555v116zM79 471h555v-116h-555v116z" />
    <glyph glyph-name="greater" unicode="&#x3e;" horiz-adv-x="616" 
d="M537 337v-113l-458 -232v125l334 164l-334 168v124z" />
    <glyph glyph-name="question" unicode="?" horiz-adv-x="509" 
d="M320 217h-144l5 22q12 54 38.5 92t90.5 85q3 2 17 12.5t18.5 14t16 13t16 16t11 16t9 19t2.5 20.5q0 62 -66 62q-38 0 -60 -22t-34 -65h-137q42 197 238 197q101 0 148 -47.5t47 -115.5q0 -63 -33.5 -109t-98.5 -91q-40 -28 -57.5 -52t-24.5 -56zM274 0h-143l35 166h143z
" />
    <glyph glyph-name="at" unicode="@" horiz-adv-x="965" 
d="M682 -36l19 -87q-91 -54 -243 -54q-174 0 -286.5 102.5t-112.5 280.5q0 199 133.5 332.5t337.5 133.5q75 0 142 -20.5t121 -60t86 -104.5t32 -147q0 -139 -70 -224.5t-190 -85.5q-94 0 -109 62q-54 -61 -139 -61q-65 0 -102 41.5t-37 117.5q0 114 66 196.5t153 82.5
q89 0 104 -56l14 46h121l-65 -264q-9 -38 -3.5 -52.5t30.5 -14.5q50 0 85.5 59.5t35.5 148.5q0 115 -77 179t-208 64q-157 0 -251.5 -104.5t-94.5 -269.5q0 -128 78 -205.5t212 -77.5q133 0 218 42zM503 374q-45 0 -77.5 -53.5t-32.5 -119.5q0 -72 54 -72q70 0 99 118
q17 69 7 98t-50 29z" />
    <glyph glyph-name="A" unicode="A" horiz-adv-x="642" 
d="M432 163h-243l-85 -163h-148l371 689h178l90 -689h-142zM244 279h182q-25 224 -29 303h-1q-46 -100 -152 -303z" />
    <glyph glyph-name="B" unicode="B" horiz-adv-x="650" 
d="M24 0l146 689h263q100 0 152 -47.5t52 -123.5q0 -58 -31.5 -103t-90.5 -64q37 -16 62.5 -53t25.5 -83q0 -102 -73.5 -158.5t-196.5 -56.5h-309zM227 305l-41 -196h136q60 0 96.5 27.5t36.5 79.5q0 89 -116 89h-112zM250 415h120q123 0 123 90q0 75 -93 75h-115z" />
    <glyph glyph-name="C" unicode="C" horiz-adv-x="670" 
d="M481 216h148q-75 -226 -316 -226q-125 0 -192.5 73.5t-67.5 204.5q0 56 12.5 114t41.5 115.5t70.5 102t105.5 72t141 27.5q116 0 183 -60t71 -168h-147q-6 116 -123 116q-64 0 -112.5 -50.5t-70 -121t-21.5 -145.5q0 -167 125 -167q101 0 152 113z" />
    <glyph glyph-name="D" unicode="D" horiz-adv-x="716" 
d="M24 0l146 689h222q137 0 216.5 -77.5t79.5 -215.5q0 -172 -106.5 -284t-290.5 -112h-267zM287 577l-98 -464h107q112 0 177.5 75t65.5 206q0 91 -42 137t-122 46h-88z" />
    <glyph glyph-name="E" unicode="E" horiz-adv-x="596" 
d="M561 417l-25 -116h-310l-39 -185h353l-41 -116h-475l146 689h463l-25 -115h-324l-33 -157h310z" />
    <glyph glyph-name="F" unicode="F" horiz-adv-x="575" 
d="M24 0l146 689h461l-25 -115h-323l-36 -176h302l-25 -115h-302l-59 -283h-139z" />
    <glyph glyph-name="G" unicode="G" horiz-adv-x="712" 
d="M671 387l-74 -387h-110q-3 27 6 75q-64 -85 -193 -85q-118 0 -180.5 77t-62.5 202q0 62 14.5 123t45 116.5t74 98t106 67.5t136.5 25q120 0 189.5 -61.5t69.5 -159.5h-141q-3 44 -35 76.5t-100 32.5q-53 0 -95.5 -29t-67 -75t-37.5 -98.5t-13 -105.5q0 -83 34.5 -129.5
t104.5 -46.5q79 0 116 42.5t52 115.5l1 3h-159l26 123h293z" />
    <glyph glyph-name="H" unicode="H" horiz-adv-x="708" 
d="M24 0l146 689h141l-57 -267h268l57 267h141l-146 -689h-141l65 306h-268l-65 -306h-141z" />
    <glyph glyph-name="I" unicode="I" horiz-adv-x="298" 
d="M170 689h141l-146 -689h-141z" />
    <glyph glyph-name="J" unicode="J" horiz-adv-x="366" 
d="M139 197l104 492h141l-107 -502q-9 -46 -23 -79t-38 -61.5t-63.5 -42.5t-94.5 -14q-50 0 -94 11l24 112q24 -7 61 -7q43 0 61.5 22t28.5 69z" />
    <glyph glyph-name="K" unicode="K" horiz-adv-x="639" 
d="M24 0l146 689h139l-66 -307q29 31 153.5 145t174.5 162h173l-329 -293l197 -396h-155l-149 313l-94 -73l-50 -240h-140z" />
    <glyph glyph-name="L" unicode="L" horiz-adv-x="560" 
d="M24 0l146 689h141l-122 -573h331l-39 -116h-457z" />
    <glyph glyph-name="M" unicode="M" horiz-adv-x="848" 
d="M577 0l54 259q44 204 75 333h-4q-97 -222 -279 -592h-122q-26 442 -26 594h-5q-18 -128 -64 -347l-53 -247h-130l146 689h213q22 -334 22 -505h1q16 41 54.5 121t97.5 199.5t90 184.5h213l-146 -689h-137z" />
    <glyph glyph-name="N" unicode="N" horiz-adv-x="724" 
d="M156 0h-133l146 689h182q135 -449 146 -526h2q8 66 61 314l45 212h132l-147 -689h-172q-135 464 -148 552h-2q-11 -74 -66 -334z" />
    <glyph glyph-name="O" unicode="O" horiz-adv-x="739" 
d="M431 699q136 0 206.5 -79.5t70.5 -207.5q0 -65 -14 -125.5t-44.5 -114.5t-74.5 -94.5t-107.5 -64t-139.5 -23.5q-132 0 -202 77.5t-70 200.5q0 62 14.5 123.5t45.5 117t74.5 98t105.5 67.5t135 25zM422 587q-69 0 -121 -49t-75.5 -119t-23.5 -146q0 -80 36.5 -125
t107.5 -45q73 0 124.5 49t72.5 117t21 145q0 80 -34.5 126.5t-107.5 46.5z" />
    <glyph glyph-name="P" unicode="P" horiz-adv-x="633" 
d="M24 0l146 689h241q106 0 166.5 -53.5t60.5 -140.5q0 -116 -77.5 -176.5t-205.5 -60.5h-138l-54 -258h-139zM285 577l-44 -206h106q144 0 144 115q0 91 -109 91h-97z" />
    <glyph glyph-name="Q" unicode="Q" horiz-adv-x="739" 
d="M431 699q136 0 206.5 -79.5t70.5 -207.5q0 -100 -34 -188.5t-101 -147.5l142 -109l-85 -92l-177 133q-55 -18 -125 -18q-132 0 -202 77.5t-70 200.5q0 62 14.5 123.5t45.5 117t74.5 98t105.5 67.5t135 25zM422 587q-69 0 -121 -49t-75.5 -119t-23.5 -146q0 -80 36.5 -125
t107.5 -45q73 0 124.5 49t72.5 117t21 145q0 80 -34.5 126.5t-107.5 46.5z" />
    <glyph glyph-name="R" unicode="R" horiz-adv-x="644" 
d="M347 281h-124l-59 -281h-140l146 689h263q98 0 154 -47.5t56 -132.5q0 -69 -38 -115.5t-104 -64.5q83 -38 57 -164q-28 -133 -24 -165h-134q-6 43 20 165q13 59 -2.5 87.5t-70.5 28.5zM285 577l-39 -183h116q137 0 137 101q0 82 -100 82h-114z" />
    <glyph glyph-name="S" unicode="S" horiz-adv-x="605" 
d="M15 212h143q10 -114 137 -114q118 0 118 91q0 39 -28 64t-98 49q-103 35 -147.5 80t-44.5 111q0 89 64.5 147.5t189.5 58.5q117 0 182 -55t67 -148h-143q-7 93 -113 93q-45 0 -73 -20.5t-28 -59.5q0 -30 23 -51t87 -43q109 -38 159.5 -86t50.5 -123q0 -43 -14.5 -80
t-45.5 -68.5t-87 -49.5t-133 -18q-126 0 -194.5 59t-71.5 163z" />
    <glyph glyph-name="T" unicode="T" horiz-adv-x="556" 
d="M147 0l122 574h-202l25 115h543l-25 -115h-201l-121 -574h-141z" />
    <glyph glyph-name="U" unicode="U" horiz-adv-x="692" 
d="M160 689h141l-91 -425q-18 -82 12 -122.5t99 -40.5q70 0 103.5 34.5t51.5 117.5l92 436h142l-96 -447q-29 -131 -98 -191.5t-208 -60.5q-63 0 -111.5 15t-84.5 48.5t-45.5 87.5t4.5 132z" />
    <glyph glyph-name="V" unicode="V" horiz-adv-x="632" 
d="M328 0h-160l-92 689h140l36 -318q17 -146 19 -244h2q31 76 126 250l174 312h145z" />
    <glyph glyph-name="W" unicode="W" horiz-adv-x="899" 
d="M259 0h-143l-22 689h139q-1 -60 -1 -207.5t-1.5 -224.5t-5.5 -111h1q14 42 57 136.5t106.5 228.5t83.5 178h123q19 -420 14 -535h1q11 33 32.5 87.5t42 101.5t69 159t80.5 187h139l-330 -689h-143q-1 27 -7.5 226t-5.5 269h-1q-15 -44 -46.5 -115.5t-58 -127t-69 -141
t-54.5 -111.5z" />
    <glyph glyph-name="X" unicode="X" horiz-adv-x="585" 
d="M548 0h-150l-102 245h-1l-197 -245h-158l298 355l-148 334h150l97 -231h1l190 231h154l-287 -336z" />
    <glyph glyph-name="Y" unicode="Y" horiz-adv-x="577" 
d="M291 0h-141l52 250q3 12 -1 23l-144 416h146q7 -25 45.5 -151.5t47.5 -170.5q20 32 60 88t94 129t77 105h151l-326 -424q-8 -12 -10 -22z" />
    <glyph glyph-name="Z" unicode="Z" horiz-adv-x="568" 
d="M-34 0l21 103l443 471h-345l26 115h510l-25 -114l-430 -459h376l-42 -116h-534z" />
    <glyph glyph-name="bracketleft" unicode="[" horiz-adv-x="346" 
d="M217 -175h-234l192 903h234l-20 -95h-119l-152 -713h119z" />
    <glyph glyph-name="backslash" unicode="\" horiz-adv-x="422" 
d="M232 699l99 -726h-107l-97 726h105z" />
    <glyph glyph-name="bracketright" unicode="]" horiz-adv-x="346" 
d="M136 728h233l-192 -903h-234l20 95h119l152 713h-119z" />
    <glyph glyph-name="asciicircum" unicode="^" horiz-adv-x="500" 
d="M469 302h-107l-114 262l-109 -262h-108l168 367h102z" />
    <glyph glyph-name="underscore" unicode="_" horiz-adv-x="513" 
d="M-69 -78h508l-11 -51h-508z" />
    <glyph glyph-name="grave" unicode="`" 
d="M75 736h155l98 -144h-117z" />
    <glyph glyph-name="a" unicode="a" horiz-adv-x="557" 
d="M511 340l-46 -213q-22 -100 -24 -127h-132q0 4 7 58q-17 -21 -31 -33t-47 -23.5t-78 -11.5q-71 0 -108 40.5t-37 92.5q0 51 20.5 88.5t57.5 58.5t75 31.5t87 16.5q23 2 116 5l5 24q16 86 -66 86q-23 0 -39 -5t-26 -16.5t-13 -17.5t-10 -21h-139q35 155 238 155
q102 0 156.5 -46t33.5 -142zM350 224l2 8q-45 0 -90 -5q-56 -9 -81 -28.5t-25 -52.5q0 -24 15.5 -38.5t47.5 -14.5q33 0 57.5 12t39 34t21.5 40.5t13 44.5z" />
    <glyph glyph-name="b" unicode="b" horiz-adv-x="593" 
d="M40 133l126 597h136l-57 -270q56 68 151 68q79 0 122.5 -54t43.5 -141q0 -61 -17 -120.5t-50 -110t-87.5 -81.5t-123.5 -31q-98 0 -127 59q-6 -29 -13 -49h-133q3 17 13 61.5t16 71.5zM276 101q49 0 83.5 38t48 85.5t13.5 94.5q0 97 -86 97q-108 0 -139 -161
q-30 -154 80 -154z" />
    <glyph glyph-name="c" unicode="c" horiz-adv-x="533" 
d="M348 169h136q-51 -179 -251 -179q-97 0 -148.5 53.5t-51.5 147.5q0 59 17 116.5t49.5 108t87.5 81.5t124 31q48 0 86 -13t60.5 -33t36.5 -45.5t18 -49t2 -44.5h-132q-2 81 -75 81q-45 0 -77 -40.5t-44.5 -90t-12.5 -96.5q0 -104 78 -104q66 0 97 76z" />
    <glyph glyph-name="d" unicode="d" horiz-adv-x="599" 
d="M496 730h136l-124 -590q-26 -122 -29 -140h-131q2 29 8 61q-51 -71 -150 -71q-82 0 -127 54.5t-45 150.5q0 82 30 156.5t94.5 125.5t149.5 51q52 0 88 -17t45 -38zM323 415q-67 0 -107 -63.5t-40 -140.5q0 -108 84 -108q114 0 146 175q26 137 -83 137z" />
    <glyph glyph-name="e" unicode="e" horiz-adv-x="547" 
d="M505 228h-332q-4 -22 -4 -31q0 -102 82 -102q38 0 60 16.5t37 46.5h142q-63 -168 -250 -168q-101 0 -154 57.5t-53 154.5q0 43 9 86.5t30.5 87t52.5 77t80 54.5t108 21q107 0 156.5 -55.5t49.5 -143.5q0 -50 -14 -101zM191 319h196q2 9 2 23q0 84 -80 84q-89 0 -118 -107
z" />
    <glyph glyph-name="f" unicode="f" horiz-adv-x="314" 
d="M160 0h-136l86 414h-73l23 103h73l11 51q39 172 190 172q48 0 69 -7l-23 -109q-12 3 -33 3q-56 0 -68 -61l-10 -49h87l-23 -103h-87z" />
    <glyph glyph-name="g" unicode="g" horiz-adv-x="587" 
d="M551 388l-67 -313q-15 -72 -31.5 -116.5t-47.5 -86t-81.5 -61t-123.5 -19.5q-55 0 -96 12t-62.5 28t-34 40.5t-16 43t-3.5 40.5h138q4 -62 85 -62q57 0 86 36t48 122l3 16q-50 -62 -144 -62q-82 0 -127 55t-45 146q0 78 30.5 150.5t92 121.5t140.5 49q56 0 90.5 -17.5
t46.5 -44.5q2 8 18 52h130q-21 -92 -29 -130zM316 418q-66 0 -103.5 -62t-37.5 -139q0 -101 84 -101q104 0 138 156q31 146 -81 146z" />
    <glyph glyph-name="h" unicode="h" horiz-adv-x="578" 
d="M11 0l154 730h136l-58 -278q62 76 156 76q75 0 113 -47t17 -150l-70 -331h-135l65 312q11 52 -1.5 77t-56.5 25q-95 0 -122 -121l-62 -293h-136z" />
    <glyph glyph-name="i" unicode="i" horiz-adv-x="265" 
d="M11 0l110 518h136l-110 -518h-136zM138 602l27 128h136l-27 -128h-136z" />
    <glyph glyph-name="j" unicode="j" horiz-adv-x="265" 
d="M274 602h-136l27 128h136zM121 518h136l-118 -553q-19 -92 -64 -132.5t-124 -40.5q-31 0 -63 4l30 113q6 -1 17 -1q34 0 48.5 16t21.5 53z" />
    <glyph glyph-name="k" unicode="k" horiz-adv-x="534" 
d="M300 730l-91 -423q10 10 220 211h164q-60 -58 -220 -202l120 -316h-152l-74 230l-87 -67l-34 -163h-136l155 730h135z" />
    <glyph glyph-name="l" unicode="l" horiz-adv-x="265" 
d="M147 0h-136l154 730h136z" />
    <glyph glyph-name="m" unicode="m" horiz-adv-x="846" 
d="M11 0l79 372q25 123 29 146h133q-7 -44 -10 -61q28 35 61 53t83 18q102 0 118 -84q66 84 169 84q73 0 109 -46t15 -145l-72 -337h-132l68 320q20 95 -56 95q-45 0 -69.5 -31t-37.5 -93l-62 -291h-134l69 322q18 92 -56 92q-45 0 -70.5 -31.5t-39.5 -98.5l-60 -284h-134z
" />
    <glyph glyph-name="n" unicode="n" horiz-adv-x="578" 
d="M11 0l82 386q22 110 26 132h133q-2 -30 -10 -65q58 75 156 75q81 0 116 -52.5t11 -162.5l-66 -313h-135l66 314q22 100 -58 100q-97 0 -129 -146l-56 -268h-136z" />
    <glyph glyph-name="o" unicode="o" horiz-adv-x="567" 
d="M319 528q97 0 156 -56.5t59 -166.5q0 -50 -15.5 -101t-47 -101t-91 -81.5t-137.5 -31.5q-104 0 -157 58t-53 156q0 43 10.5 87t33.5 87t55.5 76t81 53.5t105.5 20.5zM308 422q-44 0 -76 -38t-45 -86t-13 -95q0 -107 83 -107q46 0 78 38.5t45 87t13 97.5q0 103 -85 103z
" />
    <glyph glyph-name="p" unicode="p" horiz-adv-x="598" 
d="M-31 -198l120 566q22 103 29 150h135q0 -4 -11 -70q56 80 158 80q77 0 121.5 -55t44.5 -148q0 -84 -31.5 -159t-97.5 -125.5t-154 -50.5q-46 0 -79 16.5t-48 41.5l-52 -246h-135zM196 257q-31 -156 82 -156q48 0 82.5 35t49 81t14.5 93q0 106 -86 106q-53 0 -90 -44
t-52 -115z" />
    <glyph glyph-name="q" unicode="q" horiz-adv-x="597" 
d="M301 -198l55 257q-57 -69 -155 -69q-72 0 -120 49t-48 150q0 134 77.5 236.5t193.5 102.5q105 0 135 -57q9 34 14 47h134q-11 -44 -38 -168l-117 -548h-131zM326 418q-69 0 -109.5 -68.5t-40.5 -147.5q0 -103 80 -103q112 0 146 173q30 146 -76 146z" />
    <glyph glyph-name="r" unicode="r" horiz-adv-x="384" 
d="M407 528l-27 -137q-150 -2 -185 -166l-48 -225h-136l78 364q9 40 30 154h131q-3 -37 -15 -94q29 51 69 77.5t103 26.5z" />
    <glyph glyph-name="s" unicode="s" horiz-adv-x="496" 
d="M8 160h137q6 -69 90 -69q74 0 74 59q0 24 -20.5 38.5t-71.5 30.5q-88 28 -123 61t-35 83q0 73 55.5 119t155.5 46q102 0 154.5 -45t50.5 -111h-138q-4 55 -74 55q-68 0 -68 -47q0 -19 18.5 -30t72.5 -29q89 -28 126 -65t37 -92q0 -85 -65.5 -129.5t-163.5 -44.5
q-104 0 -160 44.5t-52 125.5z" />
    <glyph glyph-name="t" unicode="t" horiz-adv-x="346" 
d="M44 414l23 104h77l30 139h135l-29 -139h97l-23 -104h-97l-55 -261q-5 -27 2 -40t35 -13q21 0 44 3l-20 -98q-31 -10 -92 -10q-76 0 -98.5 39t-7.5 113l56 267h-77z" />
    <glyph glyph-name="u" unicode="u" horiz-adv-x="571" 
d="M562 518l-80 -380q-16 -72 -27 -138h-133q3 41 11 72q-56 -82 -164 -82q-74 0 -109 48t-17 135l73 345h135l-70 -327q-9 -44 2.5 -66.5t52.5 -22.5q47 0 82.5 39.5t52.5 122.5l55 254h136z" />
    <glyph glyph-name="v" unicode="v" horiz-adv-x="501" 
d="M52 518h134q25 -319 25 -391h1q19 45 190 391h142l-280 -518h-156z" />
    <glyph glyph-name="w" unicode="w" horiz-adv-x="759" 
d="M60 518h135q5 -312 2 -382h2q38 96 167 382h129q2 -314 -4 -386h1q71 180 167 386h141l-260 -518h-146q-8 231 -3 348h-1q-7 -19 -16 -42t-24.5 -57.5t-28.5 -62.5t-40 -86t-46 -100h-146z" />
    <glyph glyph-name="x" unicode="x" horiz-adv-x="469" 
d="M41 518h144q15 -35 37.5 -93t26.5 -68h1q11 15 27 36t42.5 56.5t50.5 68.5h155l-213 -253l112 -265h-147q-14 35 -36.5 93t-27.5 68h-1q-79 -107 -121 -161h-152l213 262z" />
    <glyph glyph-name="y" unicode="y" horiz-adv-x="506" 
d="M48 518h136q27 -318 29 -407h1q115 252 191 407h142l-282 -541q-32 -62 -60 -99.5t-59 -56t-59.5 -24t-73.5 -5.5q-34 0 -69 7l25 112q18 -4 45 -4q43 0 64 15t38 48z" />
    <glyph glyph-name="z" unicode="z" horiz-adv-x="469" 
d="M-20 0l22 103l295 309h-232l23 106h388l-23 -108l-288 -304h257l-39 -106h-403z" />
    <glyph glyph-name="braceleft" unicode="{" horiz-adv-x="372" 
d="M19 226l22 107q63 0 88 24t36 78l26 122q20 93 72 132t132 39h41l-20 -96h-15q-43 0 -63 -18.5t-29 -62.5l-28 -134q-28 -133 -142 -143q107 -21 78 -157l-19 -91q-12 -62 -0.5 -84t51.5 -22h15l-20 -96h-23q-36 0 -64.5 8.5t-53.5 30t-30.5 58.5t3.5 94l23 110
q10 52 -4 76t-76 25z" />
    <glyph glyph-name="bar" unicode="|" horiz-adv-x="314" 
d="M90 781h124v-1042h-124v1042z" />
    <glyph glyph-name="braceright" unicode="}" horiz-adv-x="372" 
d="M362 327l-22 -108q-64 0 -89 -24t-36 -78l-25 -122q-20 -93 -72 -132t-132 -39h-42l21 96h15q42 0 62 18.5t29 62.5l29 134q28 133 141 143q-107 21 -77 157l19 91q12 62 0.5 84t-52.5 22h-15l21 96h22q79 0 123 -43t23 -148l-23 -110q-11 -51 3.5 -75.5t76.5 -24.5z" />
    <glyph glyph-name="asciitilde" unicode="~" horiz-adv-x="694" 
d="M187 194h-101v37q0 80 36 114.5t90 34.5q43 0 96.5 -22t97 -43.5t63.5 -21.5q21 0 30.5 14t9.5 50v17h99v-25q0 -163 -125 -163q-54 0 -144 43.5t-113 43.5q-39 0 -39 -58v-21z" />
    <glyph glyph-name="uni00A0" unicode="&#xa0;" horiz-adv-x="242" 
 />
    <glyph glyph-name="exclamdown" unicode="&#xa1;" horiz-adv-x="271" 
d="M72 268h110l-50 -320l-26 -120h-145l26 121zM114 518h135l-35 -166h-135z" />
    <glyph glyph-name="cent" unicode="&#xa2;" horiz-adv-x="540" 
d="M365 237h134q-39 -143 -190 -166l-16 -73h-115l17 75q-65 15 -98.5 65.5t-33.5 124.5q0 119 63.5 209.5t176.5 104.5l13 62h113l-15 -68q69 -19 96 -70.5t21 -104.5h-129q0 82 -74 82q-43 0 -73.5 -38t-42.5 -83.5t-12 -88.5q0 -101 74 -101q60 0 91 70z" />
    <glyph glyph-name="sterling" unicode="&#xa3;" horiz-adv-x="524" 
d="M443 0h-462l21 101q46 18 66 60t31 120h-85l20 97h76q3 38 10 78q33 213 220 213q55 0 94 -17.5t57.5 -46t25 -57t4.5 -58.5h-122q-3 76 -65 76q-36 0 -53 -25t-25 -78q-9 -57 -12 -85h132l-21 -97h-124q-19 -121 -66 -168h317z" />
    <glyph glyph-name="currency" unicode="&#xa4;" horiz-adv-x="530" 
d="M315 548q59 0 102 -32l86 74l53 -76l-87 -76q14 -44 5 -100q-11 -63 -42 -109l60 -75l-82 -72l-56 72q-50 -29 -109 -29q-60 0 -100 31l-82 -74l-55 78l82 71q-15 45 -6 105t44 111l-52 72l82 71l51 -69q49 27 106 27zM295 446q-87 0 -104 -109q-9 -59 12.5 -86t57.5 -27
q85 0 104 114q8 53 -11 80.5t-59 27.5z" />
    <glyph glyph-name="yen" unicode="&#xa5;" horiz-adv-x="487" 
d="M407 161h-121l-34 -161h-132l34 161h-119l17 77h118l10 48h-119l17 77h99l-101 295h145q46 -183 53 -239h1q31 59 156 239h148l-230 -295h102l-17 -77h-122l-10 -48h122z" />
    <glyph glyph-name="brokenbar" unicode="&#xa6;" horiz-adv-x="255" 
d="M70 689h115v-356h-115v356zM70 179h115v-358h-115v358z" />
    <glyph glyph-name="section" unicode="&#xa7;" horiz-adv-x="589" 
d="M217 369q-61 -31 -61 -87q0 -53 78 -93q99 -52 113 -61q23 14 37 38.5t14 51.5q0 33 -20 55.5t-65 45.5q-17 9 -50 26t-46 24zM554 519h-130q1 32 -18 55.5t-68 23.5q-37 0 -59.5 -16.5t-22.5 -46.5q0 -25 21.5 -41.5t87.5 -48.5q86 -42 124.5 -85t38.5 -114
q0 -123 -110 -190q22 -28 22 -77q0 -93 -61.5 -141.5t-174.5 -48.5q-112 0 -171 54t-50 147h136q-4 -46 22.5 -72.5t74.5 -26.5q41 0 65.5 18t24.5 52q0 26 -23 45t-89 51q-91 44 -127.5 87.5t-36.5 106.5q0 60 31 107.5t87 76.5q-20 31 -20 73q0 84 53 137.5t165 53.5
q117 0 167.5 -52.5t40.5 -127.5z" />
    <glyph glyph-name="dieresis" unicode="&#xa8;" 
d="M217 601h-111l27 127h111zM406 601h-111l27 127h111z" />
    <glyph glyph-name="copyright" unicode="&#xa9;" horiz-adv-x="786" 
d="M411 698q147 0 245.5 -99t98.5 -255q0 -158 -97.5 -256t-246.5 -98t-247.5 97t-98.5 257q0 153 98.5 253.5t247.5 100.5zM410 635q-120 0 -197.5 -79t-77.5 -213q0 -124 79 -206.5t196 -82.5q120 0 197.5 76.5t77.5 212.5q0 129 -78.5 210.5t-196.5 81.5zM489 291h92
q-25 -137 -170 -137q-81 0 -127.5 51t-46.5 141q0 89 47.5 142.5t133.5 53.5q78 0 118.5 -40.5t44.5 -101.5h-90q-13 64 -77 64q-37 0 -59.5 -28t-22.5 -84t21 -88t60 -32q59 0 76 59z" />
    <glyph glyph-name="ordfeminine" unicode="&#xaa;" horiz-adv-x="377" 
d="M380 479l-28 -137q-2 -14 -6 -33t-7 -32t-3 -17h-95q2 18 6 40q-33 -46 -103 -46q-47 0 -72 27t-25 64q0 34 13.5 58.5t39 37.5t51.5 19.5t60 9.5q36 3 73 3l2 12q6 46 -42 46q-25 0 -36.5 -8.5t-16.5 -26.5h-99q9 42 46 73.5t111 31.5q73 0 108.5 -29.5t22.5 -92.5z
M268 404l1 6q-21 0 -49 -2q-69 -6 -69 -49q0 -29 38 -29q33 0 53.5 22.5t25.5 51.5z" />
    <glyph glyph-name="guillemotleft" unicode="&#xab;" horiz-adv-x="592" 
d="M362 458l-188 -207l94 -188h-115l-101 198l181 197h129zM587 458l-188 -206l94 -189h-116l-100 198l180 197h130z" />
    <glyph glyph-name="logicalnot" unicode="&#xac;" horiz-adv-x="713" 
d="M78 420h555v-348h-117v234h-438v114z" />
    <glyph glyph-name="uni00AD" unicode="&#xad;" horiz-adv-x="374" 
d="M66 315h267l-25 -117h-267z" />
    <glyph glyph-name="registered" unicode="&#xae;" horiz-adv-x="357" 
d="M242 699q75 0 122 -50t47 -123q0 -78 -46.5 -126.5t-122.5 -48.5q-73 0 -120.5 50t-47.5 125q0 76 47 124.5t121 48.5zM242 660q-58 0 -92 -38.5t-34 -95.5t36.5 -95.5t89.5 -38.5q61 0 94 35.5t33 97.5q0 61 -35 98t-92 37zM223 446h-53v166h82q71 0 71 -48
q0 -32 -28 -39q23 -8 23 -43q0 -27 2 -36h-53q-3 7 -3 34q0 14 -6 19.5t-20 5.5h-15v-59zM225 575v-33h20q22 0 22 18q0 15 -23 15h-19z" />
    <glyph glyph-name="macron" unicode="&#xaf;" 
d="M143 709h288l-23 -105h-288z" />
    <glyph glyph-name="degree" unicode="&#xb0;" horiz-adv-x="331" 
d="M241 679q58 0 90.5 -33.5t32.5 -86.5q0 -70 -44.5 -116t-113.5 -46q-55 0 -87.5 33.5t-32.5 89.5q0 69 44 114t111 45zM234 617q-35 0 -56 -27t-21 -66q0 -29 15.5 -47t43.5 -18q33 0 54 26t21 66q0 66 -57 66z" />
    <glyph glyph-name="plusminus" unicode="&#xb1;" horiz-adv-x="713" 
d="M304 687h107v-205h223v-105h-223v-206h-107v206h-225v105h225v205zM635 0h-555v105h555v-105z" />
    <glyph glyph-name="two.sups" unicode="&#xb2;" horiz-adv-x="366" 
d="M320 428h-304l3 12q15 58 47.5 103t112.5 89q54 29 70 42.5t16 32.5q0 38 -43 38q-45 0 -62 -55h-99q30 140 173 140q68 0 104 -35.5t36 -82.5q0 -45 -24.5 -75t-87.5 -62q-74 -37 -92 -65h181z" />
    <glyph glyph-name="three.sups" unicode="&#xb3;" horiz-adv-x="378" 
d="M33 550h104q2 -21 16 -35.5t42 -14.5q59 0 59 50q0 41 -57 41h-36l19 84h30q57 0 57 44q0 34 -41 34t-56 -40h-99q29 117 166 117q65 0 101.5 -29t36.5 -74q0 -68 -71 -89q20 -7 39.5 -27.5t19.5 -54.5q0 -60 -46 -96t-129 -36q-85 0 -123 41t-32 85z" />
    <glyph glyph-name="acute" unicode="&#xb4;" 
d="M340 736h177l-206 -144h-132z" />
    <glyph glyph-name="uni00B5" unicode="&#xb5;" horiz-adv-x="568" 
d="M43 172l73 346h135l-66 -309q-23 -107 54 -107q47 0 78.5 35t48.5 117l57 264h135l-77 -364q-26 -126 -29 -154h-128q-2 20 5 64q-45 -74 -128 -74q-42 0 -65 20q-1 -6 -9 -42t-18.5 -86t-17.5 -87h-131q11 52 45.5 208t37.5 169z" />
    <glyph glyph-name="paragraph" unicode="&#xb6;" horiz-adv-x="620" 
d="M414 -152h-95l60 281h-93q-129 0 -185 82t-30 205q23 110 98 169.5t192 59.5h127q13 44 23 61h88q-9 -33 -15 -63zM370 235h31l67 315h-45q-81 0 -111 -149q-34 -166 58 -166z" />
    <glyph glyph-name="periodcentered" unicode="&#xb7;" horiz-adv-x="245" 
d="M176 200h-148l37 176h147z" />
    <glyph glyph-name="cedilla" unicode="&#xb8;" 
d="M109 10l89 -10l-44 -43q80 -24 80 -89q0 -54 -40 -82.5t-104 -28.5q-57 0 -102 15l19 74q26 -8 64 -8q50 0 50 26q0 29 -93 33l8 35z" />
    <glyph glyph-name="one.sups" unicode="&#xb9;" horiz-adv-x="260" 
d="M179 427h-108l61 289q-12 -1 -24.5 -1t-25 0.5t-17.5 0.5l17 75q69 3 108 38h75z" />
    <glyph glyph-name="ordmasculine" unicode="&#xba;" horiz-adv-x="389" 
d="M256 601q69 0 108.5 -38t39.5 -98q0 -93 -55.5 -151.5t-146.5 -58.5q-65 0 -105.5 38t-40.5 102q0 84 55 145t145 61zM246 524q-40 0 -62 -40.5t-22 -86.5q0 -66 52 -66q42 0 64 41.5t22 88.5q0 63 -54 63z" />
    <glyph glyph-name="guillemotright" unicode="&#xbb;" horiz-adv-x="592" 
d="M233 63l188 207l-94 188h115l101 -198l-181 -197h-129zM8 63l188 206l-94 189h116l100 -198l-180 -197h-130z" />
    <glyph glyph-name="onequarter" unicode="&#xbc;" horiz-adv-x="813" 
d="M177 0h-103l532 658h98zM202 260h-108l61 289h-67l17 75q69 3 108 38h75zM688 1h-99l20 93h-191l17 77l202 226h135l-49 -228h57l-24 -75h-49zM534 169h90l14 59q21 87 21 88q-20 -26 -125 -147z" />
    <glyph glyph-name="onehalf" unicode="&#xbd;" horiz-adv-x="852" 
d="M173 0h-103l532 658h98zM199 260h-108l61 289q-12 -1 -24.5 -1t-25 0.5t-17.5 0.5l17 75q69 3 108 38h75zM762 0h-304l3 12q15 58 47.5 103t112.5 89q54 29 70 42.5t16 32.5q0 38 -43 38q-45 0 -62 -55h-99q30 140 173 140q68 0 104 -35.5t36 -82.5q0 -45 -24.5 -75
t-87.5 -62q-74 -37 -92 -65h181z" />
    <glyph glyph-name="threequarters" unicode="&#xbe;" horiz-adv-x="921" 
d="M289 0h-103l532 658h98zM794 -2h-99l20 93h-191l17 77l202 226h135l-49 -228h57l-24 -75h-49zM640 166h90l14 59q21 87 21 88q-20 -26 -125 -147zM47 383h104q2 -21 16 -35.5t42 -14.5q59 0 59 50q0 41 -57 41h-36l19 84h30q57 0 57 44q0 34 -41 34t-56 -40h-99
q29 117 166 117q65 0 101.5 -29t36.5 -74q0 -68 -71 -89q20 -7 39.5 -27.5t19.5 -54.5q0 -60 -46 -96t-129 -36q-85 0 -123 41t-32 85z" />
    <glyph glyph-name="questiondown" unicode="&#xbf;" horiz-adv-x="504" 
d="M201 300h143l-4 -22q-12 -54 -38.5 -92t-90.5 -85q-3 -2 -17 -12t-18.5 -14t-16 -13.5t-16 -16t-11 -15.5t-9 -19t-2.5 -20q0 -63 66 -63q38 0 60 22.5t34 65.5h137q-42 -198 -238 -198q-101 0 -148 48t-47 116q0 62 33 108t99 92q40 28 57.5 51.5t24.5 56.5zM247 518
h143l-35 -166h-143z" />
    <glyph glyph-name="Agrave" unicode="&#xc0;" horiz-adv-x="642" 
d="M432 163h-243l-85 -163h-148l371 689h178l90 -689h-142zM244 279h182q-25 224 -29 303h-1q-46 -100 -152 -303zM178 886h173l143 -139h-133z" />
    <glyph glyph-name="Aacute" unicode="&#xc1;" horiz-adv-x="642" 
d="M432 163h-243l-85 -163h-148l371 689h178l90 -689h-142zM244 279h182q-25 224 -29 303h-1q-46 -100 -152 -303zM522 886h191l-228 -139h-139z" />
    <glyph glyph-name="Acircumflex" unicode="&#xc2;" horiz-adv-x="642" 
d="M432 163h-243l-85 -163h-148l371 689h178l90 -689h-142zM244 279h182q-25 224 -29 303h-1q-46 -100 -152 -303zM381 875h129l100 -137h-125l-51 70l-78 -70h-136z" />
    <glyph glyph-name="Atilde" unicode="&#xc3;" horiz-adv-x="642" 
d="M432 163h-243l-85 -163h-148l371 689h178l90 -689h-142zM244 279h182q-25 224 -29 303h-1q-46 -100 -152 -303zM335 740h-89l6 32q9 58 36.5 81.5t72.5 23.5q32 0 82 -21t62 -21q13 0 20.5 7t10.5 27l1 8h88l-5 -30q-11 -63 -38 -86.5t-74 -23.5q-34 0 -82 20.5t-60 20.5
q-25 0 -29 -24z" />
    <glyph glyph-name="Adieresis" unicode="&#xc4;" horiz-adv-x="642" 
d="M432 163h-243l-85 -163h-148l371 689h178l90 -689h-142zM244 279h182q-25 224 -29 303h-1q-46 -100 -152 -303zM373 752h-111l27 127h111zM578 752h-111l27 127h111z" />
    <glyph glyph-name="Aring" unicode="&#xc5;" horiz-adv-x="642" 
d="M432 163h-243l-85 -163h-148l371 689h178l90 -689h-142zM244 279h182q-25 224 -29 303h-1q-46 -100 -152 -303zM419 729q-49 0 -77 25t-28 65q0 51 37 83t93 32q49 0 76 -26t27 -66q0 -50 -36 -81.5t-92 -31.5zM424 788q20 0 36.5 13t16.5 37q0 38 -40 38
q-21 0 -36.5 -13t-15.5 -38q0 -13 10 -25t29 -12z" />
    <glyph glyph-name="AE" unicode="&#xc6;" horiz-adv-x="948" 
d="M439 689h546l-24 -115h-324l-34 -157h311l-25 -115h-311l-38 -186h352l-42 -116h-473l43 204h-203l-153 -204h-152zM305 320h140l55 260h-3z" />
    <glyph glyph-name="Ccedilla" unicode="&#xc7;" horiz-adv-x="670" 
d="M481 216h148q-68 -205 -274 -224l-35 -34q80 -24 80 -89q0 -54 -40 -82.5t-104 -28.5q-57 0 -102 15l19 74q26 -8 64 -8q50 0 50 26q0 29 -93 33l8 35l57 61q-100 15 -153 86.5t-53 187.5q0 56 12.5 114t41.5 115.5t70.5 102t105.5 72t141 27.5q116 0 183 -60t71 -168
h-147q-6 116 -123 116q-64 0 -112.5 -50.5t-70 -121t-21.5 -145.5q0 -167 125 -167q101 0 152 113z" />
    <glyph glyph-name="Egrave" unicode="&#xc8;" horiz-adv-x="596" 
d="M561 417l-25 -116h-310l-39 -185h353l-41 -116h-475l146 689h463l-25 -115h-324l-33 -157h310zM164 888h173l143 -139h-133z" />
    <glyph glyph-name="Eacute" unicode="&#xc9;" horiz-adv-x="596" 
d="M561 417l-25 -116h-310l-39 -185h353l-41 -116h-475l146 689h463l-25 -115h-324l-33 -157h310zM500 888h191l-228 -139h-139z" />
    <glyph glyph-name="Ecircumflex" unicode="&#xca;" horiz-adv-x="596" 
d="M561 417l-25 -116h-310l-39 -185h353l-41 -116h-475l146 689h463l-25 -115h-324l-33 -157h310zM369 886h129l100 -137h-125l-51 70l-78 -70h-136z" />
    <glyph glyph-name="Edieresis" unicode="&#xcb;" horiz-adv-x="596" 
d="M561 417l-25 -116h-310l-39 -185h353l-41 -116h-475l146 689h463l-25 -115h-324l-33 -157h310zM363 759h-111l27 127h111zM568 759h-111l27 127h111z" />
    <glyph glyph-name="Igrave" unicode="&#xcc;" horiz-adv-x="298" 
d="M170 689h141l-146 -689h-141zM3 887h173l143 -139h-133z" />
    <glyph glyph-name="Iacute" unicode="&#xcd;" horiz-adv-x="298" 
d="M170 689h141l-146 -689h-141zM344 887h191l-228 -139h-139z" />
    <glyph glyph-name="Icircumflex" unicode="&#xce;" horiz-adv-x="298" 
d="M170 689h141l-146 -689h-141zM217 885h129l100 -137h-125l-51 70l-78 -70h-136z" />
    <glyph glyph-name="Idieresis" unicode="&#xcf;" horiz-adv-x="298" 
d="M170 689h141l-146 -689h-141zM203 759h-111l27 127h111zM408 759h-111l27 127h111z" />
    <glyph glyph-name="Eth" unicode="&#xd0;" horiz-adv-x="726" 
d="M38 399h81l61 290h222q137 0 216.5 -77.5t79.5 -215.5q0 -172 -106.5 -284t-290.5 -112h-267l65 308h-80zM297 577l-38 -178h159l-20 -91h-158l-41 -195h107q112 0 177.5 75t65.5 206q0 91 -42 137t-122 46h-88z" />
    <glyph glyph-name="Ntilde" unicode="&#xd1;" horiz-adv-x="724" 
d="M156 0h-133l146 689h182q135 -449 146 -526h2q8 66 61 314l45 212h132l-147 -689h-172q-135 464 -148 552h-2q-11 -74 -66 -334zM372 752h-89l6 32q9 58 36.5 81.5t72.5 23.5q32 0 82 -21t62 -21q13 0 20.5 7t10.5 27l1 8h88l-5 -30q-11 -63 -38 -86.5t-74 -23.5
q-34 0 -82 20.5t-60 20.5q-25 0 -29 -24z" />
    <glyph glyph-name="Ograve" unicode="&#xd2;" horiz-adv-x="739" 
d="M431 699q136 0 206.5 -79.5t70.5 -207.5q0 -65 -14 -125.5t-44.5 -114.5t-74.5 -94.5t-107.5 -64t-139.5 -23.5q-132 0 -202 77.5t-70 200.5q0 62 14.5 123.5t45.5 117t74.5 98t105.5 67.5t135 25zM422 587q-69 0 -121 -49t-75.5 -119t-23.5 -146q0 -80 36.5 -125
t107.5 -45q73 0 124.5 49t72.5 117t21 145q0 80 -34.5 126.5t-107.5 46.5zM230 889h173l143 -139h-133z" />
    <glyph glyph-name="Oacute" unicode="&#xd3;" horiz-adv-x="739" 
d="M431 699q136 0 206.5 -79.5t70.5 -207.5q0 -65 -14 -125.5t-44.5 -114.5t-74.5 -94.5t-107.5 -64t-139.5 -23.5q-132 0 -202 77.5t-70 200.5q0 62 14.5 123.5t45.5 117t74.5 98t105.5 67.5t135 25zM422 587q-69 0 -121 -49t-75.5 -119t-23.5 -146q0 -80 36.5 -125
t107.5 -45q73 0 124.5 49t72.5 117t21 145q0 80 -34.5 126.5t-107.5 46.5zM521 889h191l-228 -139h-139z" />
    <glyph glyph-name="Ocircumflex" unicode="&#xd4;" horiz-adv-x="739" 
d="M431 699q136 0 206.5 -79.5t70.5 -207.5q0 -65 -14 -125.5t-44.5 -114.5t-74.5 -94.5t-107.5 -64t-139.5 -23.5q-132 0 -202 77.5t-70 200.5q0 62 14.5 123.5t45.5 117t74.5 98t105.5 67.5t135 25zM422 587q-69 0 -121 -49t-75.5 -119t-23.5 -146q0 -80 36.5 -125
t107.5 -45q73 0 124.5 49t72.5 117t21 145q0 80 -34.5 126.5t-107.5 46.5zM418 886h129l100 -137h-125l-51 70l-78 -70h-136z" />
    <glyph glyph-name="Otilde" unicode="&#xd5;" horiz-adv-x="739" 
d="M431 699q136 0 206.5 -79.5t70.5 -207.5q0 -65 -14 -125.5t-44.5 -114.5t-74.5 -94.5t-107.5 -64t-139.5 -23.5q-132 0 -202 77.5t-70 200.5q0 62 14.5 123.5t45.5 117t74.5 98t105.5 67.5t135 25zM422 587q-69 0 -121 -49t-75.5 -119t-23.5 -146q0 -80 36.5 -125
t107.5 -45q73 0 124.5 49t72.5 117t21 145q0 80 -34.5 126.5t-107.5 46.5zM357 753h-89l6 32q9 58 36.5 81.5t72.5 23.5q32 0 82 -21t62 -21q13 0 20.5 7t10.5 27l1 8h88l-5 -30q-11 -63 -38 -86.5t-74 -23.5q-34 0 -82 20.5t-60 20.5q-25 0 -29 -24z" />
    <glyph glyph-name="Odieresis" unicode="&#xd6;" horiz-adv-x="739" 
d="M431 699q136 0 206.5 -79.5t70.5 -207.5q0 -65 -14 -125.5t-44.5 -114.5t-74.5 -94.5t-107.5 -64t-139.5 -23.5q-132 0 -202 77.5t-70 200.5q0 62 14.5 123.5t45.5 117t74.5 98t105.5 67.5t135 25zM422 587q-69 0 -121 -49t-75.5 -119t-23.5 -146q0 -80 36.5 -125
t107.5 -45q73 0 124.5 49t72.5 117t21 145q0 80 -34.5 126.5t-107.5 46.5zM412 760h-111l27 127h111zM617 760h-111l27 127h111z" />
    <glyph glyph-name="multiply" unicode="&#xd7;" horiz-adv-x="713" 
d="M632 80l-76 -80l-199 207l-199 -207l-75 80l199 206l-199 207l73 77l201 -207l200 207l75 -77l-200 -208z" />
    <glyph glyph-name="Oslash" unicode="&#xd8;" horiz-adv-x="739" 
d="M438 699q101 0 169 -51l36 41h90l-79 -88q55 -75 55 -188q0 -81 -24 -155t-70.5 -135t-122.5 -97t-171 -36q-98 0 -165 51l-36 -41h-91l80 90q-52 71 -52 178q0 112 42.5 208.5t131 159.5t207.5 63zM423 589q-69 0 -122 -49t-78.5 -119t-25.5 -144q0 -40 11 -76l313 351
q-39 37 -98 37zM341 100q73 0 127 50t77.5 119.5t23.5 144.5q0 42 -12 78l-313 -353q36 -39 97 -39z" />
    <glyph glyph-name="Ugrave" unicode="&#xd9;" horiz-adv-x="692" 
d="M160 689h141l-91 -425q-18 -82 12 -122.5t99 -40.5q70 0 103.5 34.5t51.5 117.5l92 436h142l-96 -447q-29 -131 -98 -191.5t-208 -60.5q-63 0 -111.5 15t-84.5 48.5t-45.5 87.5t4.5 132zM198 878h173l143 -139h-133z" />
    <glyph glyph-name="Uacute" unicode="&#xda;" horiz-adv-x="692" 
d="M160 689h141l-91 -425q-18 -82 12 -122.5t99 -40.5q70 0 103.5 34.5t51.5 117.5l92 436h142l-96 -447q-29 -131 -98 -191.5t-208 -60.5q-63 0 -111.5 15t-84.5 48.5t-45.5 87.5t4.5 132zM519 878h191l-228 -139h-139z" />
    <glyph glyph-name="Ucircumflex" unicode="&#xdb;" horiz-adv-x="692" 
d="M160 689h141l-91 -425q-18 -82 12 -122.5t99 -40.5q70 0 103.5 34.5t51.5 117.5l92 436h142l-96 -447q-29 -131 -98 -191.5t-208 -60.5q-63 0 -111.5 15t-84.5 48.5t-45.5 87.5t4.5 132zM405 885h129l100 -137h-125l-51 70l-78 -70h-136z" />
    <glyph glyph-name="Udieresis" unicode="&#xdc;" horiz-adv-x="692" 
d="M160 689h141l-91 -425q-18 -82 12 -122.5t99 -40.5q70 0 103.5 34.5t51.5 117.5l92 436h142l-96 -447q-29 -131 -98 -191.5t-208 -60.5q-63 0 -111.5 15t-84.5 48.5t-45.5 87.5t4.5 132zM390 758h-111l27 127h111zM595 758h-111l27 127h111z" />
    <glyph glyph-name="Yacute" unicode="&#xdd;" horiz-adv-x="577" 
d="M291 0h-141l52 250q3 12 -1 23l-144 416h146q7 -25 45.5 -151.5t47.5 -170.5q20 32 60 88t94 129t77 105h151l-326 -424q-8 -12 -10 -22zM460 885h191l-228 -139h-139z" />
    <glyph glyph-name="Thorn" unicode="&#xde;" horiz-adv-x="628" 
d="M21 0l146 689h141l-27 -128h114q88 0 152.5 -49t64.5 -140q0 -122 -80.5 -179.5t-215.5 -57.5h-125l-28 -135h-142zM257 448l-42 -200h113q64 0 101.5 27.5t37.5 81.5q0 42 -26.5 66.5t-80.5 24.5h-103z" />
    <glyph glyph-name="germandbls" unicode="&#xdf;" horiz-adv-x="619" 
d="M255 509l-110 -509h-136l112 519q26 121 90.5 171t175.5 50q114 0 174.5 -52.5t60.5 -124.5q0 -39 -10 -67l-164 -95l-1 -2l40 -41q46 -45 66.5 -84.5t20.5 -85.5q0 -83 -55 -140.5t-161 -57.5q-99 0 -163 52l25 115q63 -60 141 -60q36 0 56.5 19t20.5 54q0 48 -49 97
l-55 55q-81 81 25 152l126 74q1 5 1 14q0 28 -25 49t-80 21q-51 0 -81 -25.5t-45 -97.5z" />
    <glyph glyph-name="agrave" unicode="&#xe0;" horiz-adv-x="557" 
d="M511 340l-46 -213q-22 -100 -24 -127h-132q0 4 7 58q-17 -21 -31 -33t-47 -23.5t-78 -11.5q-71 0 -108 40.5t-37 92.5q0 51 20.5 88.5t57.5 58.5t75 31.5t87 16.5q23 2 116 5l5 24q16 86 -66 86q-23 0 -39 -5t-26 -16.5t-13 -17.5t-10 -21h-139q35 155 238 155
q102 0 156.5 -46t33.5 -142zM350 224l2 8q-45 0 -90 -5q-56 -9 -81 -28.5t-25 -52.5q0 -24 15.5 -38.5t47.5 -14.5q33 0 57.5 12t39 34t21.5 40.5t13 44.5zM165 736h155l98 -144h-117z" />
    <glyph glyph-name="aacute" unicode="&#xe1;" horiz-adv-x="557" 
d="M511 340l-46 -213q-22 -100 -24 -127h-132q0 4 7 58q-17 -21 -31 -33t-47 -23.5t-78 -11.5q-71 0 -108 40.5t-37 92.5q0 51 20.5 88.5t57.5 58.5t75 31.5t87 16.5q23 2 116 5l5 24q16 86 -66 86q-23 0 -39 -5t-26 -16.5t-13 -17.5t-10 -21h-139q35 155 238 155
q102 0 156.5 -46t33.5 -142zM350 224l2 8q-45 0 -90 -5q-56 -9 -81 -28.5t-25 -52.5q0 -24 15.5 -38.5t47.5 -14.5q33 0 57.5 12t39 34t21.5 40.5t13 44.5zM419 736h177l-206 -144h-132z" />
    <glyph glyph-name="acircumflex" unicode="&#xe2;" horiz-adv-x="557" 
d="M511 340l-46 -213q-22 -100 -24 -127h-132q0 4 7 58q-17 -21 -31 -33t-47 -23.5t-78 -11.5q-71 0 -108 40.5t-37 92.5q0 51 20.5 88.5t57.5 58.5t75 31.5t87 16.5q23 2 116 5l5 24q16 86 -66 86q-23 0 -39 -5t-26 -16.5t-13 -17.5t-10 -21h-139q35 155 238 155
q102 0 156.5 -46t33.5 -142zM350 224l2 8q-45 0 -90 -5q-56 -9 -81 -28.5t-25 -52.5q0 -24 15.5 -38.5t47.5 -14.5q33 0 57.5 12t39 34t21.5 40.5t13 44.5zM308 722h128l75 -140h-120l-34 73l-61 -73h-127z" />
    <glyph glyph-name="atilde" unicode="&#xe3;" horiz-adv-x="557" 
d="M511 340l-46 -213q-22 -100 -24 -127h-132q0 4 7 58q-17 -21 -31 -33t-47 -23.5t-78 -11.5q-71 0 -108 40.5t-37 92.5q0 51 20.5 88.5t57.5 58.5t75 31.5t87 16.5q23 2 116 5l5 24q16 86 -66 86q-23 0 -39 -5t-26 -16.5t-13 -17.5t-10 -21h-139q35 155 238 155
q102 0 156.5 -46t33.5 -142zM350 224l2 8q-45 0 -90 -5q-56 -9 -81 -28.5t-25 -52.5q0 -24 15.5 -38.5t47.5 -14.5q33 0 57.5 12t39 34t21.5 40.5t13 44.5zM264 589h-88l7 39q11 58 36.5 79t67.5 21q33 0 74 -23t53 -23q24 0 32 38l2 9h87l-6 -31q-11 -64 -38.5 -87.5
t-72.5 -23.5q-32 0 -72 22t-51 22q-22 0 -28 -27z" />
    <glyph glyph-name="adieresis" unicode="&#xe4;" horiz-adv-x="557" 
d="M511 340l-46 -213q-22 -100 -24 -127h-132q0 4 7 58q-17 -21 -31 -33t-47 -23.5t-78 -11.5q-71 0 -108 40.5t-37 92.5q0 51 20.5 88.5t57.5 58.5t75 31.5t87 16.5q23 2 116 5l5 24q16 86 -66 86q-23 0 -39 -5t-26 -16.5t-13 -17.5t-10 -21h-139q35 155 238 155
q102 0 156.5 -46t33.5 -142zM350 224l2 8q-45 0 -90 -5q-56 -9 -81 -28.5t-25 -52.5q0 -24 15.5 -38.5t47.5 -14.5q33 0 57.5 12t39 34t21.5 40.5t13 44.5zM297 601h-111l27 127h111zM486 601h-111l27 127h111z" />
    <glyph glyph-name="aring" unicode="&#xe5;" horiz-adv-x="557" 
d="M511 340l-46 -213q-22 -100 -24 -127h-132q0 4 7 58q-17 -21 -31 -33t-47 -23.5t-78 -11.5q-71 0 -108 40.5t-37 92.5q0 51 20.5 88.5t57.5 58.5t75 31.5t87 16.5q23 2 116 5l5 24q16 86 -66 86q-23 0 -39 -5t-26 -16.5t-13 -17.5t-10 -21h-139q35 155 238 155
q102 0 156.5 -46t33.5 -142zM350 224l2 8q-45 0 -90 -5q-56 -9 -81 -28.5t-25 -52.5q0 -24 15.5 -38.5t47.5 -14.5q33 0 57.5 12t39 34t21.5 40.5t13 44.5zM340 563q-49 0 -77 25t-28 65q0 51 37 83t93 32q49 0 76 -26t27 -66q0 -50 -36 -81.5t-92 -31.5zM345 622
q20 0 36.5 13t16.5 37q0 38 -40 38q-21 0 -36.5 -13t-15.5 -38q0 -13 10 -25t29 -12z" />
    <glyph glyph-name="ae" unicode="&#xe6;" horiz-adv-x="855" 
d="M633 528q99 0 146.5 -55t47.5 -137q0 -40 -15 -103h-333q-4 -15 -4 -37q0 -46 20.5 -74t63.5 -28q72 0 104 72h136q-13 -39 -30.5 -68.5t-46.5 -55t-73 -39t-102 -13.5q-122 0 -166 79q-37 -42 -82 -60.5t-113 -18.5q-79 0 -123.5 39t-44.5 106q0 94 69 141.5t196 47.5
h90l3 17q3 23 4.5 43t-14 34t-47.5 14q-67 0 -86 -70h-146q40 166 234 166q115 0 150 -56q64 56 162 56zM349 215l4 17h-76q-52 0 -85 -19.5t-33 -62.5q0 -22 15.5 -38t47.5 -16q99 0 127 119zM499 324h197q3 10 3 26q0 34 -20 54.5t-59 20.5q-90 0 -121 -101z" />
    <glyph glyph-name="ccedilla" unicode="&#xe7;" horiz-adv-x="533" 
d="M348 169h136q-45 -156 -205 -176l-32 -32q80 -24 80 -89q0 -54 -40 -82.5t-104 -28.5q-57 0 -102 15l19 74q26 -8 64 -8q50 0 50 26q0 29 -93 33l8 35l54 58q-73 13 -111.5 64.5t-38.5 132.5q0 59 17 116.5t49.5 108t87.5 81.5t124 31q48 0 86 -13t60.5 -33t36.5 -45.5
t18 -49t2 -44.5h-132q-2 81 -75 81q-45 0 -77 -40.5t-44.5 -90t-12.5 -96.5q0 -104 78 -104q66 0 97 76z" />
    <glyph glyph-name="egrave" unicode="&#xe8;" horiz-adv-x="547" 
d="M505 228h-332q-4 -22 -4 -31q0 -102 82 -102q38 0 60 16.5t37 46.5h142q-63 -168 -250 -168q-101 0 -154 57.5t-53 154.5q0 43 9 86.5t30.5 87t52.5 77t80 54.5t108 21q107 0 156.5 -55.5t49.5 -143.5q0 -50 -14 -101zM191 319h196q2 9 2 23q0 84 -80 84q-89 0 -118 -107
zM158 736h155l98 -144h-117z" />
    <glyph glyph-name="eacute" unicode="&#xe9;" horiz-adv-x="547" 
d="M505 228h-332q-4 -22 -4 -31q0 -102 82 -102q38 0 60 16.5t37 46.5h142q-63 -168 -250 -168q-101 0 -154 57.5t-53 154.5q0 43 9 86.5t30.5 87t52.5 77t80 54.5t108 21q107 0 156.5 -55.5t49.5 -143.5q0 -50 -14 -101zM191 319h196q2 9 2 23q0 84 -80 84q-89 0 -118 -107
zM413 736h177l-206 -144h-132z" />
    <glyph glyph-name="ecircumflex" unicode="&#xea;" horiz-adv-x="547" 
d="M505 228h-332q-4 -22 -4 -31q0 -102 82 -102q38 0 60 16.5t37 46.5h142q-63 -168 -250 -168q-101 0 -154 57.5t-53 154.5q0 43 9 86.5t30.5 87t52.5 77t80 54.5t108 21q107 0 156.5 -55.5t49.5 -143.5q0 -50 -14 -101zM191 319h196q2 9 2 23q0 84 -80 84q-89 0 -118 -107
zM302 728h128l75 -140h-120l-34 73l-61 -73h-127z" />
    <glyph glyph-name="edieresis" unicode="&#xeb;" horiz-adv-x="547" 
d="M505 228h-332q-4 -22 -4 -31q0 -102 82 -102q38 0 60 16.5t37 46.5h142q-63 -168 -250 -168q-101 0 -154 57.5t-53 154.5q0 43 9 86.5t30.5 87t52.5 77t80 54.5t108 21q107 0 156.5 -55.5t49.5 -143.5q0 -50 -14 -101zM191 319h196q2 9 2 23q0 84 -80 84q-89 0 -118 -107
zM291 601h-111l27 127h111zM480 601h-111l27 127h111z" />
    <glyph glyph-name="igrave" unicode="&#xec;" horiz-adv-x="265" 
d="M11 0l110 518h136l-110 -518h-136zM9 736h155l98 -144h-117z" />
    <glyph glyph-name="iacute" unicode="&#xed;" horiz-adv-x="265" 
d="M11 0l110 518h136l-110 -518h-136zM291 736h177l-206 -144h-132z" />
    <glyph glyph-name="icircumflex" unicode="&#xee;" horiz-adv-x="265" 
d="M11 0l110 518h136l-110 -518h-136zM162 731h128l75 -140h-120l-34 73l-61 -73h-127z" />
    <glyph glyph-name="idieresis" unicode="&#xef;" horiz-adv-x="265" 
d="M11 0l110 518h136l-110 -518h-136zM160 601h-111l27 127h111zM349 601h-111l27 127h111z" />
    <glyph glyph-name="eth" unicode="&#xf0;" horiz-adv-x="552" 
d="M140 646l22 95q108 -9 195 -61l110 66l31 -61l-84 -50q106 -101 106 -267q0 -51 -8.5 -101t-29.5 -101t-53.5 -89.5t-84.5 -62.5t-118 -24q-98 0 -150.5 53.5t-52.5 149.5q0 74 31.5 140t95 109.5t144.5 43.5q55 0 79 -15q-8 54 -63 102l-125 -74l-31 59l92 55
q-44 22 -106 33zM300 382q-62 0 -99.5 -59.5t-37.5 -132.5q0 -94 79 -94q46 0 79.5 38.5t46 83t12.5 84.5q0 80 -80 80z" />
    <glyph glyph-name="ntilde" unicode="&#xf1;" horiz-adv-x="578" 
d="M11 0l82 386q22 110 26 132h133q-2 -30 -10 -65q58 75 156 75q81 0 116 -52.5t11 -162.5l-66 -313h-135l66 314q22 100 -58 100q-97 0 -129 -146l-56 -268h-136zM276 589h-88l7 39q11 58 36.5 79t67.5 21q33 0 74 -23t53 -23q24 0 32 38l2 9h87l-6 -31
q-11 -64 -38.5 -87.5t-72.5 -23.5q-32 0 -72 22t-51 22q-22 0 -28 -27z" />
    <glyph glyph-name="ograve" unicode="&#xf2;" horiz-adv-x="567" 
d="M319 528q97 0 156 -56.5t59 -166.5q0 -50 -15.5 -101t-47 -101t-91 -81.5t-137.5 -31.5q-104 0 -157 58t-53 156q0 43 10.5 87t33.5 87t55.5 76t81 53.5t105.5 20.5zM308 422q-44 0 -76 -38t-45 -86t-13 -95q0 -107 83 -107q46 0 78 38.5t45 87t13 97.5q0 103 -85 103z
M171 736h155l98 -144h-117z" />
    <glyph glyph-name="oacute" unicode="&#xf3;" horiz-adv-x="567" 
d="M319 528q97 0 156 -56.5t59 -166.5q0 -50 -15.5 -101t-47 -101t-91 -81.5t-137.5 -31.5q-104 0 -157 58t-53 156q0 43 10.5 87t33.5 87t55.5 76t81 53.5t105.5 20.5zM308 422q-44 0 -76 -38t-45 -86t-13 -95q0 -107 83 -107q46 0 78 38.5t45 87t13 97.5q0 103 -85 103z
M425 736h177l-206 -144h-132z" />
    <glyph glyph-name="ocircumflex" unicode="&#xf4;" horiz-adv-x="567" 
d="M319 528q97 0 156 -56.5t59 -166.5q0 -50 -15.5 -101t-47 -101t-91 -81.5t-137.5 -31.5q-104 0 -157 58t-53 156q0 43 10.5 87t33.5 87t55.5 76t81 53.5t105.5 20.5zM308 422q-44 0 -76 -38t-45 -86t-13 -95q0 -107 83 -107q46 0 78 38.5t45 87t13 97.5q0 103 -85 103z
M312 722h128l75 -140h-120l-34 73l-61 -73h-127z" />
    <glyph glyph-name="otilde" unicode="&#xf5;" horiz-adv-x="567" 
d="M319 528q97 0 156 -56.5t59 -166.5q0 -50 -15.5 -101t-47 -101t-91 -81.5t-137.5 -31.5q-104 0 -157 58t-53 156q0 43 10.5 87t33.5 87t55.5 76t81 53.5t105.5 20.5zM308 422q-44 0 -76 -38t-45 -86t-13 -95q0 -107 83 -107q46 0 78 38.5t45 87t13 97.5q0 103 -85 103z
M270 589h-88l7 39q11 58 36.5 79t67.5 21q33 0 74 -23t53 -23q24 0 32 38l2 9h87l-6 -31q-11 -64 -38.5 -87.5t-72.5 -23.5q-32 0 -72 22t-51 22q-22 0 -28 -27z" />
    <glyph glyph-name="odieresis" unicode="&#xf6;" horiz-adv-x="567" 
d="M319 528q97 0 156 -56.5t59 -166.5q0 -50 -15.5 -101t-47 -101t-91 -81.5t-137.5 -31.5q-104 0 -157 58t-53 156q0 43 10.5 87t33.5 87t55.5 76t81 53.5t105.5 20.5zM308 422q-44 0 -76 -38t-45 -86t-13 -95q0 -107 83 -107q46 0 78 38.5t45 87t13 97.5q0 103 -85 103z
M302 601h-111l27 127h111zM491 601h-111l27 127h111z" />
    <glyph glyph-name="divide" unicode="&#xf7;" horiz-adv-x="713" 
d="M416 -1h-118v137h118v-137zM634 226h-555v116h555v-116zM416 431h-118v138h118v-138z" />
    <glyph glyph-name="oslash" unicode="&#xf8;" horiz-adv-x="567" 
d="M323 528q76 0 129 -36l23 27h75l-58 -65q42 -56 42 -144q0 -50 -16 -102.5t-48.5 -103t-92 -82.5t-137.5 -32q-76 0 -126 36l-33 -37h-74l67 76q-41 58 -41 140q0 56 17.5 111.5t51 103.5t91 78t130.5 30zM310 426q-67 0 -105.5 -67.5t-38.5 -159.5q0 -10 2 -28l206 233
q-25 22 -64 22zM254 91q46 0 81.5 40t51.5 93t16 105q0 8 -2 22l-209 -236q22 -24 62 -24z" />
    <glyph glyph-name="ugrave" unicode="&#xf9;" horiz-adv-x="571" 
d="M562 518l-80 -380q-16 -72 -27 -138h-133q3 41 11 72q-56 -82 -164 -82q-74 0 -109 48t-17 135l73 345h135l-70 -327q-9 -44 2.5 -66.5t52.5 -22.5q47 0 82.5 39.5t52.5 122.5l55 254h136zM161 736h155l98 -144h-117z" />
    <glyph glyph-name="uacute" unicode="&#xfa;" horiz-adv-x="571" 
d="M562 518l-80 -380q-16 -72 -27 -138h-133q3 41 11 72q-56 -82 -164 -82q-74 0 -109 48t-17 135l73 345h135l-70 -327q-9 -44 2.5 -66.5t52.5 -22.5q47 0 82.5 39.5t52.5 122.5l55 254h136zM426 736h177l-206 -144h-132z" />
    <glyph glyph-name="ucircumflex" unicode="&#xfb;" horiz-adv-x="571" 
d="M562 518l-80 -380q-16 -72 -27 -138h-133q3 41 11 72q-56 -82 -164 -82q-74 0 -109 48t-17 135l73 345h135l-70 -327q-9 -44 2.5 -66.5t52.5 -22.5q47 0 82.5 39.5t52.5 122.5l55 254h136zM315 722h128l75 -140h-120l-34 73l-61 -73h-127z" />
    <glyph glyph-name="udieresis" unicode="&#xfc;" horiz-adv-x="571" 
d="M562 518l-80 -380q-16 -72 -27 -138h-133q3 41 11 72q-56 -82 -164 -82q-74 0 -109 48t-17 135l73 345h135l-70 -327q-9 -44 2.5 -66.5t52.5 -22.5q47 0 82.5 39.5t52.5 122.5l55 254h136zM304 601h-111l27 127h111zM493 601h-111l27 127h111z" />
    <glyph glyph-name="yacute" unicode="&#xfd;" horiz-adv-x="506" 
d="M48 518h136q27 -318 29 -407h1q115 252 191 407h142l-282 -541q-32 -62 -60 -99.5t-59 -56t-59.5 -24t-73.5 -5.5q-34 0 -69 7l25 112q18 -4 45 -4q43 0 64 15t38 48zM379 728h177l-206 -144h-132z" />
    <glyph glyph-name="thorn" unicode="&#xfe;" horiz-adv-x="596" 
d="M-31 -198l195 928h135l-59 -281q59 79 159 79q79 0 123 -50t44 -143q0 -86 -31.5 -163t-98 -129.5t-154.5 -52.5q-46 0 -81 15.5t-45 37.5l-52 -241h-135zM196 257q-38 -156 80 -156q69 0 108.5 70t39.5 147q0 98 -86 98q-52 0 -88.5 -44.5t-53.5 -114.5z" />
    <glyph glyph-name="ydieresis" unicode="&#xff;" horiz-adv-x="506" 
d="M48 518h136q27 -318 29 -407h1q115 252 191 407h142l-282 -541q-32 -62 -60 -99.5t-59 -56t-59.5 -24t-73.5 -5.5q-34 0 -69 7l25 112q18 -4 45 -4q43 0 64 15t38 48zM261 601h-111l27 127h111zM450 601h-111l27 127h111z" />
    <glyph glyph-name="Amacron" unicode="&#x100;" horiz-adv-x="642" 
d="M432 163h-243l-85 -163h-148l371 689h178l90 -689h-142zM244 279h182q-25 224 -29 303h-1q-46 -100 -152 -303zM292 861h296l-21 -101h-296z" />
    <glyph glyph-name="amacron" unicode="&#x101;" horiz-adv-x="557" 
d="M511 340l-46 -213q-22 -100 -24 -127h-132q0 4 7 58q-17 -21 -31 -33t-47 -23.5t-78 -11.5q-71 0 -108 40.5t-37 92.5q0 51 20.5 88.5t57.5 58.5t75 31.5t87 16.5q23 2 116 5l5 24q16 86 -66 86q-23 0 -39 -5t-26 -16.5t-13 -17.5t-10 -21h-139q35 155 238 155
q102 0 156.5 -46t33.5 -142zM350 224l2 8q-45 0 -90 -5q-56 -9 -81 -28.5t-25 -52.5q0 -24 15.5 -38.5t47.5 -14.5q33 0 57.5 12t39 34t21.5 40.5t13 44.5zM223 709h288l-23 -105h-288z" />
    <glyph glyph-name="Abreve" unicode="&#x102;" horiz-adv-x="642" 
d="M432 163h-243l-85 -163h-148l371 689h178l90 -689h-142zM244 279h182q-25 224 -29 303h-1q-46 -100 -152 -303zM282 882h97q-1 -24 13.5 -39t43.5 -15q57 0 80 54h96q-23 -65 -65.5 -104.5t-123.5 -39.5q-80 0 -114 43t-27 101z" />
    <glyph glyph-name="abreve" unicode="&#x103;" horiz-adv-x="557" 
d="M511 340l-46 -213q-22 -100 -24 -127h-132q0 4 7 58q-17 -21 -31 -33t-47 -23.5t-78 -11.5q-71 0 -108 40.5t-37 92.5q0 51 20.5 88.5t57.5 58.5t75 31.5t87 16.5q23 2 116 5l5 24q16 86 -66 86q-23 0 -39 -5t-26 -16.5t-13 -17.5t-10 -21h-139q35 155 238 155
q102 0 156.5 -46t33.5 -142zM350 224l2 8q-45 0 -90 -5q-56 -9 -81 -28.5t-25 -52.5q0 -24 15.5 -38.5t47.5 -14.5q33 0 57.5 12t39 34t21.5 40.5t13 44.5zM215 719h94q-2 -52 49 -52q20 0 34.5 8.5t21 17.5t15.5 26h93q-47 -144 -178 -144q-74 0 -106 42t-23 102z" />
    <glyph glyph-name="Aogonek" unicode="&#x104;" horiz-adv-x="642" 
d="M432 163h-243l-85 -163h-148l371 689h178l90 -689h-12q-65 -58 -65 -95q0 -40 49 -40q30 0 51 7l-20 -94q-31 -14 -87 -14q-57 0 -88.5 27t-31.5 75q0 69 79 134h-17zM244 279h182q-25 224 -29 303h-1q-46 -100 -152 -303z" />
    <glyph glyph-name="aogonek" unicode="&#x105;" horiz-adv-x="557" 
d="M511 340l-46 -213q-22 -100 -24 -127h-7q-65 -58 -65 -95q0 -40 49 -40q30 0 51 7l-20 -94q-31 -14 -87 -14q-57 0 -88.5 27t-31.5 75q0 69 79 134h-12q0 4 7 58q-17 -21 -31 -33t-47 -23.5t-78 -11.5q-71 0 -108 40.5t-37 92.5q0 51 20.5 88.5t57.5 58.5t75 31.5
t87 16.5q23 2 116 5l5 24q16 86 -66 86q-23 0 -39 -5t-26 -16.5t-13 -17.5t-10 -21h-139q35 155 238 155q102 0 156.5 -46t33.5 -142zM350 224l2 8q-45 0 -90 -5q-56 -9 -81 -28.5t-25 -52.5q0 -24 15.5 -38.5t47.5 -14.5q33 0 57.5 12t39 34t21.5 40.5t13 44.5z" />
    <glyph glyph-name="Cacute" unicode="&#x106;" horiz-adv-x="670" 
d="M481 216h148q-75 -226 -316 -226q-125 0 -192.5 73.5t-67.5 204.5q0 56 12.5 114t41.5 115.5t70.5 102t105.5 72t141 27.5q116 0 183 -60t71 -168h-147q-6 116 -123 116q-64 0 -112.5 -50.5t-70 -121t-21.5 -145.5q0 -167 125 -167q101 0 152 113zM523 889h191l-228 -139
h-139z" />
    <glyph glyph-name="cacute" unicode="&#x107;" horiz-adv-x="533" 
d="M348 169h136q-51 -179 -251 -179q-97 0 -148.5 53.5t-51.5 147.5q0 59 17 116.5t49.5 108t87.5 81.5t124 31q48 0 86 -13t60.5 -33t36.5 -45.5t18 -49t2 -44.5h-132q-2 81 -75 81q-45 0 -77 -40.5t-44.5 -90t-12.5 -96.5q0 -104 78 -104q66 0 97 76zM418 736h177
l-206 -144h-132z" />
    <glyph glyph-name="Ccircumflex" unicode="&#x108;" horiz-adv-x="670" 
d="M481 216h148q-75 -226 -316 -226q-125 0 -192.5 73.5t-67.5 204.5q0 56 12.5 114t41.5 115.5t70.5 102t105.5 72t141 27.5q116 0 183 -60t71 -168h-147q-6 116 -123 116q-64 0 -112.5 -50.5t-70 -121t-21.5 -145.5q0 -167 125 -167q101 0 152 113zM399 882h129l100 -137
h-125l-51 70l-78 -70h-136z" />
    <glyph glyph-name="ccircumflex" unicode="&#x109;" horiz-adv-x="533" 
d="M348 169h136q-51 -179 -251 -179q-97 0 -148.5 53.5t-51.5 147.5q0 59 17 116.5t49.5 108t87.5 81.5t124 31q48 0 86 -13t60.5 -33t36.5 -45.5t18 -49t2 -44.5h-132q-2 81 -75 81q-45 0 -77 -40.5t-44.5 -90t-12.5 -96.5q0 -104 78 -104q66 0 97 76zM305 722h128l75 -140
h-120l-34 73l-61 -73h-127z" />
    <glyph glyph-name="Cdotaccent" unicode="&#x10a;" horiz-adv-x="670" 
d="M481 216h148q-75 -226 -316 -226q-125 0 -192.5 73.5t-67.5 204.5q0 56 12.5 114t41.5 115.5t70.5 102t105.5 72t141 27.5q116 0 183 -60t71 -168h-147q-6 116 -123 116q-64 0 -112.5 -50.5t-70 -121t-21.5 -145.5q0 -167 125 -167q101 0 152 113zM502 758h-136l27 128
h136z" />
    <glyph glyph-name="cdotaccent" unicode="&#x10b;" horiz-adv-x="533" 
d="M348 169h136q-51 -179 -251 -179q-97 0 -148.5 53.5t-51.5 147.5q0 59 17 116.5t49.5 108t87.5 81.5t124 31q48 0 86 -13t60.5 -33t36.5 -45.5t18 -49t2 -44.5h-132q-2 81 -75 81q-45 0 -77 -40.5t-44.5 -90t-12.5 -96.5q0 -104 78 -104q66 0 97 76zM394 601h-136l27 127
h136z" />
    <glyph glyph-name="Ccaron" unicode="&#x10c;" horiz-adv-x="670" 
d="M481 216h148q-75 -226 -316 -226q-125 0 -192.5 73.5t-67.5 204.5q0 56 12.5 114t41.5 115.5t70.5 102t105.5 72t141 27.5q116 0 183 -60t71 -168h-147q-6 116 -123 116q-64 0 -112.5 -50.5t-70 -121t-21.5 -145.5q0 -167 125 -167q101 0 152 113zM495 750h-130l-100 137
h126l50 -72l78 72h136z" />
    <glyph glyph-name="ccaron" unicode="&#x10d;" horiz-adv-x="533" 
d="M348 169h136q-51 -179 -251 -179q-97 0 -148.5 53.5t-51.5 147.5q0 59 17 116.5t49.5 108t87.5 81.5t124 31q48 0 86 -13t60.5 -33t36.5 -45.5t18 -49t2 -44.5h-132q-2 81 -75 81q-45 0 -77 -40.5t-44.5 -90t-12.5 -96.5q0 -104 78 -104q66 0 97 76zM393 581h-127
l-76 139h117l34 -73l60 73h131z" />
    <glyph glyph-name="Dcaron" unicode="&#x10e;" horiz-adv-x="716" 
d="M24 0l146 689h222q137 0 216.5 -77.5t79.5 -215.5q0 -172 -106.5 -284t-290.5 -112h-267zM287 577l-98 -464h107q112 0 177.5 75t65.5 206q0 91 -42 137t-122 46h-88zM457 749h-130l-100 137h126l50 -72l78 72h136z" />
    <glyph glyph-name="dcaron" unicode="&#x10f;" horiz-adv-x="684" 
d="M496 730h136l-124 -590q-26 -122 -29 -140h-131q2 29 8 61q-51 -71 -150 -71q-82 0 -127 54.5t-45 150.5q0 82 30 156.5t94.5 125.5t149.5 51q52 0 88 -17t45 -38zM323 415q-67 0 -107 -63.5t-40 -140.5q0 -108 84 -108q114 0 146 175q26 137 -83 137zM689 730h110
l-70 -273h-94z" />
    <glyph glyph-name="Dcroat" unicode="&#x110;" horiz-adv-x="726" 
d="M38 399h81l61 290h222q137 0 216.5 -77.5t79.5 -215.5q0 -172 -106.5 -284t-290.5 -112h-267l65 308h-80zM297 577l-38 -178h159l-20 -91h-158l-41 -195h107q112 0 177.5 75t65.5 206q0 91 -42 137t-122 46h-88z" />
    <glyph glyph-name="dcroat" unicode="&#x111;" horiz-adv-x="599" 
d="M231 663h246l14 67h136l-14 -67h49l-18 -85h-49l-93 -438q-21 -98 -28 -140h-132q1 16 8 61q-26 -37 -61 -54t-93 -17q-78 0 -121 51.5t-43 148.5q0 79 31 152.5t95.5 125t148.5 51.5q51 0 83.5 -16.5t43.5 -37.5l24 113h-245zM322 406q-70 0 -109 -63.5t-39 -141.5
q0 -45 19.5 -71.5t57.5 -26.5q59 0 96.5 48t51.5 119q13 63 -5 99.5t-72 36.5z" />
    <glyph glyph-name="Emacron" unicode="&#x112;" horiz-adv-x="596" 
d="M561 417l-25 -116h-310l-39 -185h353l-41 -116h-475l146 689h463l-25 -115h-324l-33 -157h310zM280 864h296l-21 -101h-296z" />
    <glyph glyph-name="emacron" unicode="&#x113;" horiz-adv-x="547" 
d="M505 228h-332q-4 -22 -4 -31q0 -102 82 -102q38 0 60 16.5t37 46.5h142q-63 -168 -250 -168q-101 0 -154 57.5t-53 154.5q0 43 9 86.5t30.5 87t52.5 77t80 54.5t108 21q107 0 156.5 -55.5t49.5 -143.5q0 -50 -14 -101zM191 319h196q2 9 2 23q0 84 -80 84q-89 0 -118 -107
zM217 709h288l-23 -105h-288z" />
    <glyph glyph-name="Ebreve" unicode="&#x114;" horiz-adv-x="596" 
d="M561 417l-25 -116h-310l-39 -185h353l-41 -116h-475l146 689h463l-25 -115h-324l-33 -157h310zM261 886h97q-1 -24 13.5 -39t43.5 -15q57 0 80 54h96q-23 -65 -65.5 -104.5t-123.5 -39.5q-80 0 -114 43t-27 101z" />
    <glyph glyph-name="ebreve" unicode="&#x115;" horiz-adv-x="547" 
d="M505 228h-332q-4 -22 -4 -31q0 -102 82 -102q38 0 60 16.5t37 46.5h142q-63 -168 -250 -168q-101 0 -154 57.5t-53 154.5q0 43 9 86.5t30.5 87t52.5 77t80 54.5t108 21q107 0 156.5 -55.5t49.5 -143.5q0 -50 -14 -101zM191 319h196q2 9 2 23q0 84 -80 84q-89 0 -118 -107
zM210 723h94q-2 -52 49 -52q20 0 34.5 8.5t21 17.5t15.5 26h93q-47 -144 -178 -144q-74 0 -106 42t-23 102z" />
    <glyph glyph-name="Edotaccent" unicode="&#x116;" horiz-adv-x="596" 
d="M561 417l-25 -116h-310l-39 -185h353l-41 -116h-475l146 689h463l-25 -115h-324l-33 -157h310zM475 766h-136l27 128h136z" />
    <glyph glyph-name="edotaccent" unicode="&#x117;" horiz-adv-x="547" 
d="M505 228h-332q-4 -22 -4 -31q0 -102 82 -102q38 0 60 16.5t37 46.5h142q-63 -168 -250 -168q-101 0 -154 57.5t-53 154.5q0 43 9 86.5t30.5 87t52.5 77t80 54.5t108 21q107 0 156.5 -55.5t49.5 -143.5q0 -50 -14 -101zM191 319h196q2 9 2 23q0 84 -80 84q-89 0 -118 -107
zM398 601h-136l27 127h136z" />
    <glyph glyph-name="Eogonek" unicode="&#x118;" horiz-adv-x="596" 
d="M561 417l-25 -116h-310l-39 -185h353l-41 -116h-38q-65 -58 -65 -95q0 -40 49 -40q30 0 51 7l-20 -94q-31 -14 -87 -14q-57 0 -88.5 27t-31.5 75q0 69 79 134h-324l146 689h463l-25 -115h-324l-33 -157h310z" />
    <glyph glyph-name="eogonek" unicode="&#x119;" horiz-adv-x="547" 
d="M505 228h-332q-4 -22 -4 -31q0 -102 82 -102q38 0 60 16.5t37 46.5h142q-47 -127 -170 -159q-64 -56 -64 -94q0 -40 49 -40q30 0 51 7l-20 -94q-31 -14 -87 -14q-57 0 -88.5 27t-31.5 75q0 64 70 127q-81 11 -123.5 67t-42.5 142q0 43 9 86.5t30.5 87t52.5 77t80 54.5
t108 21q107 0 156.5 -55.5t49.5 -143.5q0 -50 -14 -101zM191 319h196q2 9 2 23q0 84 -80 84q-89 0 -118 -107z" />
    <glyph glyph-name="Ecaron" unicode="&#x11a;" horiz-adv-x="596" 
d="M561 417l-25 -116h-310l-39 -185h353l-41 -116h-475l146 689h463l-25 -115h-324l-33 -157h310zM467 749h-130l-100 137h126l50 -72l78 72h136z" />
    <glyph glyph-name="ecaron" unicode="&#x11b;" horiz-adv-x="547" 
d="M505 228h-332q-4 -22 -4 -31q0 -102 82 -102q38 0 60 16.5t37 46.5h142q-63 -168 -250 -168q-101 0 -154 57.5t-53 154.5q0 43 9 86.5t30.5 87t52.5 77t80 54.5t108 21q107 0 156.5 -55.5t49.5 -143.5q0 -50 -14 -101zM191 319h196q2 9 2 23q0 84 -80 84q-89 0 -118 -107
zM398 588h-127l-76 139h117l34 -73l60 73h131z" />
    <glyph glyph-name="Gcircumflex" unicode="&#x11c;" horiz-adv-x="712" 
d="M671 387l-74 -387h-110q-3 27 6 75q-64 -85 -193 -85q-118 0 -180.5 77t-62.5 202q0 62 14.5 123t45 116.5t74 98t106 67.5t136.5 25q120 0 189.5 -61.5t69.5 -159.5h-141q-3 44 -35 76.5t-100 32.5q-53 0 -95.5 -29t-67 -75t-37.5 -98.5t-13 -105.5q0 -83 34.5 -129.5
t104.5 -46.5q79 0 116 42.5t52 115.5l1 3h-159l26 123h293zM415 885h129l100 -137h-125l-51 70l-78 -70h-136z" />
    <glyph glyph-name="gcircumflex" unicode="&#x11d;" horiz-adv-x="587" 
d="M551 388l-67 -313q-15 -72 -31.5 -116.5t-47.5 -86t-81.5 -61t-123.5 -19.5q-55 0 -96 12t-62.5 28t-34 40.5t-16 43t-3.5 40.5h138q4 -62 85 -62q57 0 86 36t48 122l3 16q-50 -62 -144 -62q-82 0 -127 55t-45 146q0 78 30.5 150.5t92 121.5t140.5 49q56 0 90.5 -17.5
t46.5 -44.5q2 8 18 52h130q-21 -92 -29 -130zM316 418q-66 0 -103.5 -62t-37.5 -139q0 -101 84 -101q104 0 138 156q31 146 -81 146zM323 729h128l75 -140h-120l-34 73l-61 -73h-127z" />
    <glyph glyph-name="Gbreve" unicode="&#x11e;" horiz-adv-x="712" 
d="M671 387l-74 -387h-110q-3 27 6 75q-64 -85 -193 -85q-118 0 -180.5 77t-62.5 202q0 62 14.5 123t45 116.5t74 98t106 67.5t136.5 25q120 0 189.5 -61.5t69.5 -159.5h-141q-3 44 -35 76.5t-100 32.5q-53 0 -95.5 -29t-67 -75t-37.5 -98.5t-13 -105.5q0 -83 34.5 -129.5
t104.5 -46.5q79 0 116 42.5t52 115.5l1 3h-159l26 123h293zM299 887h97q-1 -24 13.5 -39t43.5 -15q57 0 80 54h96q-23 -65 -65.5 -104.5t-123.5 -39.5q-80 0 -114 43t-27 101z" />
    <glyph glyph-name="gbreve" unicode="&#x11f;" horiz-adv-x="587" 
d="M551 388l-67 -313q-15 -72 -31.5 -116.5t-47.5 -86t-81.5 -61t-123.5 -19.5q-55 0 -96 12t-62.5 28t-34 40.5t-16 43t-3.5 40.5h138q4 -62 85 -62q57 0 86 36t48 122l3 16q-50 -62 -144 -62q-82 0 -127 55t-45 146q0 78 30.5 150.5t92 121.5t140.5 49q56 0 90.5 -17.5
t46.5 -44.5q2 8 18 52h130q-21 -92 -29 -130zM316 418q-66 0 -103.5 -62t-37.5 -139q0 -101 84 -101q104 0 138 156q31 146 -81 146zM230 722h94q-2 -52 49 -52q20 0 34.5 8.5t21 17.5t15.5 26h93q-47 -144 -178 -144q-74 0 -106 42t-23 102z" />
    <glyph glyph-name="Gdotaccent" unicode="&#x120;" horiz-adv-x="712" 
d="M671 387l-74 -387h-110q-3 27 6 75q-64 -85 -193 -85q-118 0 -180.5 77t-62.5 202q0 62 14.5 123t45 116.5t74 98t106 67.5t136.5 25q120 0 189.5 -61.5t69.5 -159.5h-141q-3 44 -35 76.5t-100 32.5q-53 0 -95.5 -29t-67 -75t-37.5 -98.5t-13 -105.5q0 -83 34.5 -129.5
t104.5 -46.5q79 0 116 42.5t52 115.5l1 3h-159l26 123h293zM523 766h-136l27 128h136z" />
    <glyph glyph-name="gdotaccent" unicode="&#x121;" horiz-adv-x="587" 
d="M551 388l-67 -313q-15 -72 -31.5 -116.5t-47.5 -86t-81.5 -61t-123.5 -19.5q-55 0 -96 12t-62.5 28t-34 40.5t-16 43t-3.5 40.5h138q4 -62 85 -62q57 0 86 36t48 122l3 16q-50 -62 -144 -62q-82 0 -127 55t-45 146q0 78 30.5 150.5t92 121.5t140.5 49q56 0 90.5 -17.5
t46.5 -44.5q2 8 18 52h130q-21 -92 -29 -130zM316 418q-66 0 -103.5 -62t-37.5 -139q0 -101 84 -101q104 0 138 156q31 146 -81 146zM419 601h-136l27 127h136z" />
    <glyph glyph-name="uni0122" unicode="&#x122;" horiz-adv-x="712" 
d="M671 387l-74 -387h-110q-3 27 6 75q-64 -85 -193 -85q-118 0 -180.5 77t-62.5 202q0 62 14.5 123t45 116.5t74 98t106 67.5t136.5 25q120 0 189.5 -61.5t69.5 -159.5h-141q-3 44 -35 76.5t-100 32.5q-53 0 -95.5 -29t-67 -75t-37.5 -98.5t-13 -105.5q0 -83 34.5 -129.5
t104.5 -46.5q79 0 116 42.5t52 115.5l1 3h-159l26 123h293zM260 -252h-122q37 43 64.5 98.5t37.5 94.5h135q-16 -60 -48.5 -111.5t-66.5 -81.5z" />
    <glyph glyph-name="uni0123" unicode="&#x123;" horiz-adv-x="587" 
d="M400 794h121q-70 -92 -105 -212h-138q16 55 50.5 116t71.5 96zM551 388l-67 -313q-15 -72 -31.5 -116.5t-47.5 -86t-81.5 -61t-123.5 -19.5q-55 0 -96 12t-62.5 28t-34 40.5t-16 43t-3.5 40.5h138q4 -62 85 -62q57 0 86 36t48 122l3 16q-50 -62 -144 -62q-82 0 -127 55
t-45 146q0 78 30.5 150.5t92 121.5t140.5 49q56 0 90.5 -17.5t46.5 -44.5q2 8 18 52h130q-21 -92 -29 -130zM316 418q-66 0 -103.5 -62t-37.5 -139q0 -101 84 -101q104 0 138 156q31 146 -81 146z" />
    <glyph glyph-name="Hcircumflex" unicode="&#x124;" horiz-adv-x="708" 
d="M24 0l146 689h141l-57 -267h268l57 267h141l-146 -689h-141l65 306h-268l-65 -306h-141zM413 885h129l100 -137h-125l-51 70l-78 -70h-136z" />
    <glyph glyph-name="hcircumflex" unicode="&#x125;" horiz-adv-x="578" 
d="M198 890h138l80 -120h-110l-49 62l-71 -62h-120zM11 0l154 730h136l-58 -278q62 76 156 76q75 0 113 -47t17 -150l-70 -331h-135l65 312q11 52 -1.5 77t-56.5 25q-95 0 -122 -121l-62 -293h-136z" />
    <glyph glyph-name="Hbar" unicode="&#x126;" horiz-adv-x="708" 
d="M249 399h269l18 86h-269zM24 0l103 485h-58l21 98h58l22 106h141l-23 -106h269l23 106h140l-22 -106h60l-22 -98h-59l-103 -485h-141l61 284h-269l-61 -284h-140z" />
    <glyph glyph-name="hbar" unicode="&#x127;" horiz-adv-x="578" 
d="M11 0l122 578h-70l18 85h70l14 67h136l-14 -67h224l-18 -85h-224l-28 -135q62 76 156 76q75 0 113.5 -47.5t16.5 -149.5l-68 -322h-135l64 303q11 53 -2 77.5t-57 24.5q-95 0 -121 -121l-61 -284h-136z" />
    <glyph glyph-name="Itilde" unicode="&#x128;" horiz-adv-x="298" 
d="M170 689h141l-146 -689h-141zM160 751h-89l6 32q9 58 36.5 81.5t72.5 23.5q32 0 82 -21t62 -21q13 0 20.5 7t10.5 27l1 8h88l-5 -30q-11 -63 -38 -86.5t-74 -23.5q-34 0 -82 20.5t-60 20.5q-25 0 -29 -24z" />
    <glyph glyph-name="itilde" unicode="&#x129;" horiz-adv-x="265" 
d="M11 0l110 518h136l-110 -518h-136zM119 589h-88l7 39q11 58 36.5 79t67.5 21q32 0 73.5 -23t53.5 -23q24 0 32 38l2 9h87l-6 -31q-11 -64 -38.5 -87.5t-72.5 -23.5q-33 0 -72 22t-51 22q-22 0 -28 -27z" />
    <glyph glyph-name="Imacron" unicode="&#x12a;" horiz-adv-x="298" 
d="M170 689h141l-146 -689h-141zM120 862h296l-21 -101h-296z" />
    <glyph glyph-name="imacron" unicode="&#x12b;" horiz-adv-x="265" 
d="M11 0l110 518h136l-110 -518h-136zM76 709h288l-23 -105h-288z" />
    <glyph glyph-name="Iogonek" unicode="&#x12e;" horiz-adv-x="298" 
d="M170 689h141l-146 -689h-9q-65 -58 -65 -95q0 -40 49 -40q30 0 51 7l-20 -94q-31 -14 -87 -14q-57 0 -88.5 27t-31.5 75q0 69 79 134h-19z" />
    <glyph glyph-name="iogonek" unicode="&#x12f;" horiz-adv-x="265" 
d="M11 0l110 518h136l-110 -518h-10q-65 -58 -65 -95q0 -40 49 -40q30 0 51 7l-20 -94q-31 -14 -87 -14q-57 0 -88.5 27t-31.5 75q0 69 79 134h-13zM138 602l27 128h136l-27 -128h-136z" />
    <glyph glyph-name="Idotaccent" unicode="&#x130;" horiz-adv-x="298" 
d="M170 689h141l-146 -689h-141zM322 765h-136l27 128h136z" />
    <glyph glyph-name="dotlessi" unicode="&#x131;" horiz-adv-x="265" 
d="M11 0l110 518h136l-110 -518h-136z" />
    <glyph glyph-name="Jcircumflex" unicode="&#x134;" horiz-adv-x="366" 
d="M139 197l104 492h141l-107 -502q-9 -46 -23 -79t-38 -61.5t-63.5 -42.5t-94.5 -14q-50 0 -94 11l24 112q24 -7 61 -7q43 0 61.5 22t28.5 69zM283 885h129l100 -137h-125l-51 70l-78 -70h-136z" />
    <glyph glyph-name="jcircumflex" unicode="&#x135;" horiz-adv-x="265" 
d="M121 518h136l-118 -553q-19 -92 -64 -132.5t-124 -40.5q-31 0 -63 4l30 113q6 -1 17 -1q34 0 48.5 16t21.5 53zM164 732h128l75 -140h-120l-34 73l-61 -73h-127z" />
    <glyph glyph-name="uni0136" unicode="&#x136;" horiz-adv-x="639" 
d="M24 0l146 689h139l-66 -307q29 31 153.5 145t174.5 162h173l-329 -293l197 -396h-155l-149 313l-94 -73l-50 -240h-140zM243 -251h-122q37 43 64.5 98.5t37.5 94.5h135q-16 -60 -48.5 -111.5t-66.5 -81.5z" />
    <glyph glyph-name="uni0137" unicode="&#x137;" horiz-adv-x="534" 
d="M300 730l-91 -423q10 10 220 211h164q-60 -58 -220 -202l120 -316h-152l-74 230l-87 -67l-34 -163h-136l155 730h135zM181 -250h-122q37 43 64.5 98.5t37.5 94.5h135q-16 -60 -48.5 -111.5t-66.5 -81.5z" />
    <glyph glyph-name="kgreenlandic" unicode="&#x138;" horiz-adv-x="533" 
d="M255 518l-46 -215q25 27 107 106t111 109h164q-41 -39 -116 -109t-103 -96l120 -313h-152l-75 232l-85 -69l-35 -163h-136l110 518h136z" />
    <glyph glyph-name="Lacute" unicode="&#x139;" horiz-adv-x="560" 
d="M24 0l146 689h141l-122 -573h331l-39 -116h-457zM352 887h191l-228 -139h-139z" />
    <glyph glyph-name="lacute" unicode="&#x13a;" horiz-adv-x="265" 
d="M327 903h167l-191 -122h-133zM147 0h-136l154 730h136z" />
    <glyph glyph-name="uni013B" unicode="&#x13b;" horiz-adv-x="560" 
d="M24 0l146 689h141l-122 -573h331l-39 -116h-457zM212 -253h-122q37 43 64.5 98.5t37.5 94.5h135q-16 -60 -48.5 -111.5t-66.5 -81.5z" />
    <glyph glyph-name="uni013C" unicode="&#x13c;" horiz-adv-x="265" 
d="M147 0h-136l154 730h136zM19 -251h-122q37 43 64.5 98.5t37.5 94.5h135q-16 -60 -48.5 -111.5t-66.5 -81.5z" />
    <glyph glyph-name="Lcaron" unicode="&#x13d;" horiz-adv-x="560" 
d="M24 0l146 689h141l-122 -573h331l-39 -116h-457zM436 690h110l-70 -273h-94z" />
    <glyph glyph-name="lcaron" unicode="&#x13e;" horiz-adv-x="354" 
d="M147 0h-136l154 730h136zM362 730h110l-70 -273h-94z" />
    <glyph glyph-name="Ldot" unicode="&#x13f;" horiz-adv-x="560" 
d="M491 296h-141l35 167h141zM24 0l146 689h141l-122 -573h331l-39 -116h-457z" />
    <glyph glyph-name="ldot" unicode="&#x140;" horiz-adv-x="350" 
d="M391 360h-121l35 158h121zM147 0h-136l154 730h136z" />
    <glyph glyph-name="Lslash" unicode="&#x141;" horiz-adv-x="570" 
d="M399 400l-150 -51l-50 -233h331l-39 -116h-457l63 298l-93 -31l22 97l92 31l62 294h141l-52 -243l150 51z" />
    <glyph glyph-name="lslash" unicode="&#x142;" horiz-adv-x="272" 
d="M157 0h-136l67 316l-66 -29l23 110l66 29l64 304h136l-50 -237l76 34l-23 -110l-76 -34z" />
    <glyph glyph-name="Nacute" unicode="&#x143;" horiz-adv-x="724" 
d="M156 0h-133l146 689h182q135 -449 146 -526h2q8 66 61 314l45 212h132l-147 -689h-172q-135 464 -148 552h-2q-11 -74 -66 -334zM542 880h191l-228 -139h-139z" />
    <glyph glyph-name="nacute" unicode="&#x144;" horiz-adv-x="578" 
d="M11 0l82 386q22 110 26 132h133q-2 -30 -10 -65q58 75 156 75q81 0 116 -52.5t11 -162.5l-66 -313h-135l66 314q22 100 -58 100q-97 0 -129 -146l-56 -268h-136zM430 736h177l-206 -144h-132z" />
    <glyph glyph-name="uni0145" unicode="&#x145;" horiz-adv-x="724" 
d="M156 0h-133l146 689h182q135 -449 146 -526h2q8 66 61 314l45 212h132l-147 -689h-172q-135 464 -148 552h-2q-11 -74 -66 -334zM264 -251h-122q37 43 64.5 98.5t37.5 94.5h135q-16 -60 -48.5 -111.5t-66.5 -81.5z" />
    <glyph glyph-name="uni0146" unicode="&#x146;" horiz-adv-x="578" 
d="M11 0l82 386q22 110 26 132h133q-2 -30 -10 -65q58 75 156 75q81 0 116 -52.5t11 -162.5l-66 -313h-135l66 314q22 100 -58 100q-97 0 -129 -146l-56 -268h-136zM182 -250h-122q37 43 64.5 98.5t37.5 94.5h135q-16 -60 -48.5 -111.5t-66.5 -81.5z" />
    <glyph glyph-name="Ncaron" unicode="&#x147;" horiz-adv-x="724" 
d="M156 0h-133l146 689h182q135 -449 146 -526h2q8 66 61 314l45 212h132l-147 -689h-172q-135 464 -148 552h-2q-11 -74 -66 -334zM522 736h-130l-100 137h126l50 -72l78 72h136z" />
    <glyph glyph-name="ncaron" unicode="&#x148;" horiz-adv-x="578" 
d="M11 0l82 386q22 110 26 132h133q-2 -30 -10 -65q58 75 156 75q81 0 116 -52.5t11 -162.5l-66 -313h-135l66 314q22 100 -58 100q-97 0 -129 -146l-56 -268h-136zM414 581h-127l-76 139h117l34 -73l60 73h131z" />
    <glyph glyph-name="napostrophe" unicode="&#x149;" horiz-adv-x="578" 
d="M162 576h-105q30 42 57 104t36 105h124q-14 -59 -44 -116.5t-68 -92.5zM11 0l82 386q22 110 26 132h133q-2 -30 -10 -65q58 75 156 75q81 0 116 -52.5t11 -162.5l-66 -313h-135l66 314q22 100 -58 100q-97 0 -129 -146l-56 -268h-136z" />
    <glyph glyph-name="Omacron" unicode="&#x14c;" horiz-adv-x="739" 
d="M431 699q136 0 206.5 -79.5t70.5 -207.5q0 -65 -14 -125.5t-44.5 -114.5t-74.5 -94.5t-107.5 -64t-139.5 -23.5q-132 0 -202 77.5t-70 200.5q0 62 14.5 123.5t45.5 117t74.5 98t105.5 67.5t135 25zM422 587q-69 0 -121 -49t-75.5 -119t-23.5 -146q0 -80 36.5 -125
t107.5 -45q73 0 124.5 49t72.5 117t21 145q0 80 -34.5 126.5t-107.5 46.5zM320 864h296l-21 -101h-296z" />
    <glyph glyph-name="omacron" unicode="&#x14d;" horiz-adv-x="567" 
d="M319 528q97 0 156 -56.5t59 -166.5q0 -50 -15.5 -101t-47 -101t-91 -81.5t-137.5 -31.5q-104 0 -157 58t-53 156q0 43 10.5 87t33.5 87t55.5 76t81 53.5t105.5 20.5zM308 422q-44 0 -76 -38t-45 -86t-13 -95q0 -107 83 -107q46 0 78 38.5t45 87t13 97.5q0 103 -85 103z
M223 709h288l-23 -105h-288z" />
    <glyph glyph-name="Ohungarumlaut" unicode="&#x150;" horiz-adv-x="739" 
d="M431 699q136 0 206.5 -79.5t70.5 -207.5q0 -65 -14 -125.5t-44.5 -114.5t-74.5 -94.5t-107.5 -64t-139.5 -23.5q-132 0 -202 77.5t-70 200.5q0 62 14.5 123.5t45.5 117t74.5 98t105.5 67.5t135 25zM422 587q-69 0 -121 -49t-75.5 -119t-23.5 -146q0 -80 36.5 -125
t107.5 -45q73 0 124.5 49t72.5 117t21 145q0 80 -34.5 126.5t-107.5 46.5zM404 888h144l-159 -139h-118zM613 888h144l-159 -139h-118z" />
    <glyph glyph-name="ohungarumlaut" unicode="&#x151;" horiz-adv-x="567" 
d="M319 528q97 0 156 -56.5t59 -166.5q0 -50 -15.5 -101t-47 -101t-91 -81.5t-137.5 -31.5q-104 0 -157 58t-53 156q0 43 10.5 87t33.5 87t55.5 76t81 53.5t105.5 20.5zM308 422q-44 0 -76 -38t-45 -86t-13 -95q0 -107 83 -107q46 0 78 38.5t45 87t13 97.5q0 103 -85 103z
M450 729l-166 -148h-115l136 148h145zM653 729l-165 -148h-114l136 148h143z" />
    <glyph glyph-name="OE" unicode="&#x152;" horiz-adv-x="1017" 
d="M469 117l97 454q-28 10 -95 10q-118 0 -190 -78t-72 -196q0 -96 49.5 -145.5t138.5 -49.5q49 0 72 5zM1055 689l-25 -115h-324l-33 -157h310l-25 -116h-310l-40 -185h353l-42 -116h-438q-5 0 -47 -1.5t-62 -1.5q-150 0 -230.5 85t-80.5 217q0 79 27.5 149.5t80 126.5
t137 89t189.5 33q38 0 88 -4t51 -4h421z" />
    <glyph glyph-name="oe" unicode="&#x153;" horiz-adv-x="900" 
d="M592 -10q-109 0 -156 78q-75 -78 -194 -78q-101 0 -154.5 60t-53.5 159q0 54 17.5 108.5t51 102.5t90.5 78t128 30q113 0 166 -78q70 78 180 78q105 0 154.5 -56t49.5 -143q0 -50 -14 -101h-332q-3 -17 -3 -30q0 -103 82 -103q64 0 96 63h142q-63 -168 -250 -168z
M543 319h196q2 9 2 23q0 36 -19.5 60t-58.5 24q-88 0 -120 -107zM311 422q-44 0 -76.5 -39t-46 -86t-13.5 -90q0 -54 21.5 -82.5t61.5 -28.5q34 0 61.5 22.5t43 57.5t23.5 71t8 69q0 106 -83 106z" />
    <glyph glyph-name="Racute" unicode="&#x154;" horiz-adv-x="644" 
d="M347 281h-124l-59 -281h-140l146 689h263q98 0 154 -47.5t56 -132.5q0 -69 -38 -115.5t-104 -64.5q83 -38 57 -164q-28 -133 -24 -165h-134q-6 43 20 165q13 59 -2.5 87.5t-70.5 28.5zM285 577l-39 -183h116q137 0 137 101q0 82 -100 82h-114zM486 887h191l-228 -139
h-139z" />
    <glyph glyph-name="racute" unicode="&#x155;" horiz-adv-x="384" 
d="M407 528l-27 -137q-150 -2 -185 -166l-48 -225h-136l78 364q9 40 30 154h131q-3 -37 -15 -94q29 51 69 77.5t103 26.5zM337 736h177l-206 -144h-132z" />
    <glyph glyph-name="uni0156" unicode="&#x156;" horiz-adv-x="644" 
d="M347 281h-124l-59 -281h-140l146 689h263q98 0 154 -47.5t56 -132.5q0 -69 -38 -115.5t-104 -64.5q83 -38 57 -164q-28 -133 -24 -165h-134q-6 43 20 165q13 59 -2.5 87.5t-70.5 28.5zM285 577l-39 -183h116q137 0 137 101q0 82 -100 82h-114zM227 -241h-122
q37 43 64.5 98.5t37.5 94.5h135q-16 -60 -48.5 -111.5t-66.5 -81.5z" />
    <glyph glyph-name="uni0157" unicode="&#x157;" horiz-adv-x="384" 
d="M407 528l-27 -137q-150 -2 -185 -166l-48 -225h-136l78 364q9 40 30 154h131q-3 -37 -15 -94q29 51 69 77.5t103 26.5zM26 -251h-122q37 43 64.5 98.5t37.5 94.5h135q-16 -60 -48.5 -111.5t-66.5 -81.5z" />
    <glyph glyph-name="Rcaron" unicode="&#x158;" horiz-adv-x="644" 
d="M347 281h-124l-59 -281h-140l146 689h263q98 0 154 -47.5t56 -132.5q0 -69 -38 -115.5t-104 -64.5q83 -38 57 -164q-28 -133 -24 -165h-134q-6 43 20 165q13 59 -2.5 87.5t-70.5 28.5zM285 577l-39 -183h116q137 0 137 101q0 82 -100 82h-114zM470 748h-130l-100 137h126
l50 -72l78 72h136z" />
    <glyph glyph-name="rcaron" unicode="&#x159;" horiz-adv-x="384" 
d="M407 528l-27 -137q-150 -2 -185 -166l-48 -225h-136l78 364q9 40 30 154h131q-3 -37 -15 -94q29 51 69 77.5t103 26.5zM320 581h-127l-76 139h117l34 -73l60 73h131z" />
    <glyph glyph-name="Sacute" unicode="&#x15a;" horiz-adv-x="605" 
d="M15 212h143q10 -114 137 -114q118 0 118 91q0 39 -28 64t-98 49q-103 35 -147.5 80t-44.5 111q0 89 64.5 147.5t189.5 58.5q117 0 182 -55t67 -148h-143q-7 93 -113 93q-45 0 -73 -20.5t-28 -59.5q0 -30 23 -51t87 -43q109 -38 159.5 -86t50.5 -123q0 -43 -14.5 -80
t-45.5 -68.5t-87 -49.5t-133 -18q-126 0 -194.5 59t-71.5 163zM457 897h191l-228 -139h-139z" />
    <glyph glyph-name="sacute" unicode="&#x15b;" horiz-adv-x="496" 
d="M8 160h137q6 -69 90 -69q74 0 74 59q0 24 -20.5 38.5t-71.5 30.5q-88 28 -123 61t-35 83q0 73 55.5 119t155.5 46q102 0 154.5 -45t50.5 -111h-138q-4 55 -74 55q-68 0 -68 -47q0 -19 18.5 -30t72.5 -29q89 -28 126 -65t37 -92q0 -85 -65.5 -129.5t-163.5 -44.5
q-104 0 -160 44.5t-52 125.5zM388 736h177l-206 -144h-132z" />
    <glyph glyph-name="Scircumflex" unicode="&#x15c;" horiz-adv-x="605" 
d="M15 212h143q10 -114 137 -114q118 0 118 91q0 39 -28 64t-98 49q-103 35 -147.5 80t-44.5 111q0 89 64.5 147.5t189.5 58.5q117 0 182 -55t67 -148h-143q-7 93 -113 93q-45 0 -73 -20.5t-28 -59.5q0 -30 23 -51t87 -43q109 -38 159.5 -86t50.5 -123q0 -43 -14.5 -80
t-45.5 -68.5t-87 -49.5t-133 -18q-126 0 -194.5 59t-71.5 163zM351 886h129l100 -137h-125l-51 70l-78 -70h-136z" />
    <glyph glyph-name="scircumflex" unicode="&#x15d;" horiz-adv-x="496" 
d="M8 160h137q6 -69 90 -69q74 0 74 59q0 24 -20.5 38.5t-71.5 30.5q-88 28 -123 61t-35 83q0 73 55.5 119t155.5 46q102 0 154.5 -45t50.5 -111h-138q-4 55 -74 55q-68 0 -68 -47q0 -19 18.5 -30t72.5 -29q89 -28 126 -65t37 -92q0 -85 -65.5 -129.5t-163.5 -44.5
q-104 0 -160 44.5t-52 125.5zM276 722h128l75 -140h-120l-34 73l-61 -73h-127z" />
    <glyph glyph-name="uni015E" unicode="&#x15e;" horiz-adv-x="605" 
d="M15 212h143q10 -114 137 -114q118 0 118 91q0 39 -28 64t-98 49q-103 35 -147.5 80t-44.5 111q0 89 64.5 147.5t189.5 58.5q117 0 182 -55t67 -148h-143q-7 93 -113 93q-45 0 -73 -20.5t-28 -59.5q0 -30 23 -51t87 -43q109 -38 159.5 -86t50.5 -123q0 -84 -54.5 -143.5
t-175.5 -70.5l-36 -35q80 -24 80 -89q0 -54 -40 -82.5t-104 -28.5q-57 0 -102 15l19 74q26 -8 64 -8q50 0 50 26q0 29 -93 33l8 35l57 60q-105 11 -160.5 69t-58.5 151z" />
    <glyph glyph-name="uni015F" unicode="&#x15f;" horiz-adv-x="496" 
d="M8 160h137q6 -69 90 -69q74 0 74 59q0 24 -20.5 38.5t-71.5 30.5q-88 28 -123 61t-35 83q0 73 55.5 119t155.5 46q102 0 154.5 -45t50.5 -111h-138q-4 55 -74 55q-68 0 -68 -47q0 -19 18.5 -30t72.5 -29q89 -28 126 -65t37 -92q0 -75 -52 -118.5t-135 -53.5l-36 -35
q80 -24 80 -89q0 -54 -40 -82.5t-104 -28.5q-57 0 -102 15l19 74q26 -8 64 -8q50 0 50 26q0 29 -93 33l8 35l58 62q-79 11 -120.5 54t-37.5 112z" />
    <glyph glyph-name="Scaron" unicode="&#x160;" horiz-adv-x="605" 
d="M15 212h143q10 -114 137 -114q118 0 118 91q0 39 -28 64t-98 49q-103 35 -147.5 80t-44.5 111q0 89 64.5 147.5t189.5 58.5q117 0 182 -55t67 -148h-143q-7 93 -113 93q-45 0 -73 -20.5t-28 -59.5q0 -30 23 -51t87 -43q109 -38 159.5 -86t50.5 -123q0 -43 -14.5 -80
t-45.5 -68.5t-87 -49.5t-133 -18q-126 0 -194.5 59t-71.5 163zM442 749h-130l-100 137h126l50 -72l78 72h136z" />
    <glyph glyph-name="scaron" unicode="&#x161;" horiz-adv-x="496" 
d="M8 160h137q6 -69 90 -69q74 0 74 59q0 24 -20.5 38.5t-71.5 30.5q-88 28 -123 61t-35 83q0 73 55.5 119t155.5 46q102 0 154.5 -45t50.5 -111h-138q-4 55 -74 55q-68 0 -68 -47q0 -19 18.5 -30t72.5 -29q89 -28 126 -65t37 -92q0 -85 -65.5 -129.5t-163.5 -44.5
q-104 0 -160 44.5t-52 125.5zM362 581h-127l-76 139h117l34 -73l60 73h131z" />
    <glyph glyph-name="uni0162" unicode="&#x162;" horiz-adv-x="556" 
d="M147 0l122 574h-202l25 115h543l-25 -115h-201l-121 -574h-17l-44 -43q80 -24 80 -89q0 -54 -40 -82.5t-104 -28.5q-57 0 -102 15l19 74q26 -8 64 -8q50 0 50 26q0 29 -93 33l8 35l64 68h-26z" />
    <glyph glyph-name="uni0163" unicode="&#x163;" horiz-adv-x="346" 
d="M44 414l23 104h77l30 139h135l-29 -139h97l-23 -104h-97l-55 -261q-5 -27 2 -40t35 -13q21 0 44 3l-20 -98q-27 -8 -69 -10l-39 -38q80 -24 80 -89q0 -54 -40 -82.5t-104 -28.5q-57 0 -102 15l19 74q26 -8 64 -8q50 0 50 26q0 29 -93 33l8 35l69 74q-64 28 -41 141
l56 267h-77z" />
    <glyph glyph-name="Tcaron" unicode="&#x164;" horiz-adv-x="556" 
d="M147 0l122 574h-202l25 115h543l-25 -115h-201l-121 -574h-141zM427 747h-130l-100 137h126l50 -72l78 72h136z" />
    <glyph glyph-name="tcaron" unicode="&#x165;" horiz-adv-x="346" 
d="M410 810h110l-71 -216h-94zM44 414l23 104h77l30 139h135l-29 -139h97l-23 -104h-97l-55 -261q-5 -27 2 -40t35 -13q21 0 44 3l-20 -98q-31 -10 -92 -10q-76 0 -98.5 39t-7.5 113l56 267h-77z" />
    <glyph glyph-name="Utilde" unicode="&#x168;" horiz-adv-x="692" 
d="M160 689h141l-91 -425q-18 -82 12 -122.5t99 -40.5q70 0 103.5 34.5t51.5 117.5l92 436h142l-96 -447q-29 -131 -98 -191.5t-208 -60.5q-63 0 -111.5 15t-84.5 48.5t-45.5 87.5t4.5 132zM357 752h-89l6 32q9 58 36.5 81.5t72.5 23.5q32 0 82 -21t62 -21q13 0 20.5 7
t10.5 27l1 8h88l-5 -30q-11 -63 -38 -86.5t-74 -23.5q-34 0 -82 20.5t-60 20.5q-25 0 -29 -24z" />
    <glyph glyph-name="utilde" unicode="&#x169;" horiz-adv-x="571" 
d="M562 518l-80 -380q-16 -72 -27 -138h-133q3 41 11 72q-56 -82 -164 -82q-74 0 -109 48t-17 135l73 345h135l-70 -327q-9 -44 2.5 -66.5t52.5 -22.5q47 0 82.5 39.5t52.5 122.5l55 254h136zM273 589h-88l7 39q11 58 36.5 79t67.5 21q32 0 74 -23t53 -23q24 0 32 38l2 9h87
l-6 -31q-11 -64 -38.5 -87.5t-72.5 -23.5q-33 0 -72 22t-51 22q-22 0 -28 -27z" />
    <glyph glyph-name="Umacron" unicode="&#x16a;" horiz-adv-x="692" 
d="M160 689h141l-91 -425q-18 -82 12 -122.5t99 -40.5q70 0 103.5 34.5t51.5 117.5l92 436h142l-96 -447q-29 -131 -98 -191.5t-208 -60.5q-63 0 -111.5 15t-84.5 48.5t-45.5 87.5t4.5 132zM310 858h296l-21 -101h-296z" />
    <glyph glyph-name="umacron" unicode="&#x16b;" horiz-adv-x="571" 
d="M562 518l-80 -380q-16 -72 -27 -138h-133q3 41 11 72q-56 -82 -164 -82q-74 0 -109 48t-17 135l73 345h135l-70 -327q-9 -44 2.5 -66.5t52.5 -22.5q47 0 82.5 39.5t52.5 122.5l55 254h136zM230 709h288l-23 -105h-288z" />
    <glyph glyph-name="Ubreve" unicode="&#x16c;" horiz-adv-x="692" 
d="M160 689h141l-91 -425q-18 -82 12 -122.5t99 -40.5q70 0 103.5 34.5t51.5 117.5l92 436h142l-96 -447q-29 -131 -98 -191.5t-208 -60.5q-63 0 -111.5 15t-84.5 48.5t-45.5 87.5t4.5 132zM289 877h97q-1 -24 13.5 -39t43.5 -15q57 0 80 54h96q-23 -65 -65.5 -104.5
t-123.5 -39.5q-80 0 -114 43t-27 101z" />
    <glyph glyph-name="ubreve" unicode="&#x16d;" horiz-adv-x="571" 
d="M562 518l-80 -380q-16 -72 -27 -138h-133q3 41 11 72q-56 -82 -164 -82q-74 0 -109 48t-17 135l73 345h135l-70 -327q-9 -44 2.5 -66.5t52.5 -22.5q47 0 82.5 39.5t52.5 122.5l55 254h136zM222 719h94q-2 -52 49 -52q20 0 34.5 8.5t21 17.5t15.5 26h93
q-47 -144 -178 -144q-74 0 -106 42t-23 102z" />
    <glyph glyph-name="Uring" unicode="&#x16e;" horiz-adv-x="692" 
d="M160 689h141l-91 -425q-18 -82 12 -122.5t99 -40.5q70 0 103.5 34.5t51.5 117.5l92 436h142l-96 -447q-29 -131 -98 -191.5t-208 -60.5q-63 0 -111.5 15t-84.5 48.5t-45.5 87.5t4.5 132zM432 729q-49 0 -77 25t-28 65q0 51 37 83t93 32q49 0 76 -26t27 -66
q0 -50 -36 -81.5t-92 -31.5zM437 788q20 0 36.5 13t16.5 37q0 38 -40 38q-21 0 -36.5 -13t-15.5 -38q0 -13 10 -25t29 -12z" />
    <glyph glyph-name="uring" unicode="&#x16f;" horiz-adv-x="571" 
d="M562 518l-80 -380q-16 -72 -27 -138h-133q3 41 11 72q-56 -82 -164 -82q-74 0 -109 48t-17 135l73 345h135l-70 -327q-9 -44 2.5 -66.5t52.5 -22.5q47 0 82.5 39.5t52.5 122.5l55 254h136zM347 562q-49 0 -77 25t-28 65q0 51 37 83t93 32q49 0 76 -26t27 -66
q0 -50 -36 -81.5t-92 -31.5zM352 621q20 0 36.5 13t16.5 37q0 38 -40 38q-21 0 -36.5 -13t-15.5 -38q0 -13 10 -25t29 -12z" />
    <glyph glyph-name="Uhungarumlaut" unicode="&#x170;" horiz-adv-x="692" 
d="M160 689h141l-91 -425q-18 -82 12 -122.5t99 -40.5q70 0 103.5 34.5t51.5 117.5l92 436h142l-96 -447q-29 -131 -98 -191.5t-208 -60.5q-63 0 -111.5 15t-84.5 48.5t-45.5 87.5t4.5 132zM391 886h144l-159 -139h-118zM600 886h144l-159 -139h-118z" />
    <glyph glyph-name="uhungarumlaut" unicode="&#x171;" horiz-adv-x="571" 
d="M562 518l-80 -380q-16 -72 -27 -138h-133q3 41 11 72q-56 -82 -164 -82q-74 0 -109 48t-17 135l73 345h135l-70 -327q-9 -44 2.5 -66.5t52.5 -22.5q47 0 82.5 39.5t52.5 122.5l55 254h136zM453 729l-166 -148h-115l136 148h145zM656 729l-165 -148h-114l136 148h143z" />
    <glyph glyph-name="Uogonek" unicode="&#x172;" horiz-adv-x="692" 
d="M160 689h141l-91 -425q-18 -82 12 -122.5t99 -40.5q70 0 103.5 34.5t51.5 117.5l92 436h142l-96 -447q-23 -106 -71.5 -165t-138.5 -78q-61 -56 -61 -92q0 -40 49 -40q30 0 51 7l-20 -94q-31 -14 -87 -14q-57 0 -88.5 27t-31.5 75q0 64 66 123q-121 7 -181 75t-30 207z
" />
    <glyph glyph-name="uogonek" unicode="&#x173;" horiz-adv-x="571" 
d="M562 518l-80 -380q-16 -72 -27 -138h-7q-65 -58 -65 -95q0 -40 49 -40q30 0 51 7l-20 -94q-31 -14 -87 -14q-57 0 -88.5 27t-31.5 75q0 69 79 134h-13q3 41 11 72q-56 -82 -164 -82q-74 0 -109 48t-17 135l73 345h135l-70 -327q-9 -44 2.5 -66.5t52.5 -22.5
q47 0 82.5 39.5t52.5 122.5l55 254h136z" />
    <glyph glyph-name="Wcircumflex" unicode="&#x174;" horiz-adv-x="899" 
d="M259 0h-143l-22 689h139q-1 -60 -1 -207.5t-1.5 -224.5t-5.5 -111h1q14 42 57 136.5t106.5 228.5t83.5 178h123q19 -420 14 -535h1q11 33 32.5 87.5t42 101.5t69 159t80.5 187h139l-330 -689h-143q-1 27 -7.5 226t-5.5 269h-1q-15 -44 -46.5 -115.5t-58 -127t-69 -141
t-54.5 -111.5zM504 876h129l100 -137h-125l-51 70l-78 -70h-136z" />
    <glyph glyph-name="wcircumflex" unicode="&#x175;" horiz-adv-x="759" 
d="M60 518h135q5 -312 2 -382h2q38 96 167 382h129q2 -314 -4 -386h1q71 180 167 386h141l-260 -518h-146q-8 231 -3 348h-1q-7 -19 -16 -42t-24.5 -57.5t-28.5 -62.5t-40 -86t-46 -100h-146zM408 722h128l75 -140h-120l-34 73l-61 -73h-127z" />
    <glyph glyph-name="Ycircumflex" unicode="&#x176;" horiz-adv-x="577" 
d="M291 0h-141l52 250q3 12 -1 23l-144 416h146q7 -25 45.5 -151.5t47.5 -170.5q20 32 60 88t94 129t77 105h151l-326 -424q-8 -12 -10 -22zM328 885h129l100 -137h-125l-51 70l-78 -70h-136z" />
    <glyph glyph-name="ycircumflex" unicode="&#x177;" horiz-adv-x="506" 
d="M48 518h136q27 -318 29 -407h1q115 252 191 407h142l-282 -541q-32 -62 -60 -99.5t-59 -56t-59.5 -24t-73.5 -5.5q-34 0 -69 7l25 112q18 -4 45 -4q43 0 64 15t38 48zM274 730h128l75 -140h-120l-34 73l-61 -73h-127z" />
    <glyph glyph-name="Ydieresis" unicode="&#x178;" horiz-adv-x="577" 
d="M291 0h-141l52 250q3 12 -1 23l-144 416h146q7 -25 45.5 -151.5t47.5 -170.5q20 32 60 88t94 129t77 105h151l-326 -424q-8 -12 -10 -22zM313 746h-111l27 127h111zM518 746h-111l27 127h111z" />
    <glyph glyph-name="Zacute" unicode="&#x179;" horiz-adv-x="568" 
d="M-34 0l21 103l443 471h-345l26 115h510l-25 -114l-430 -459h376l-42 -116h-534zM456 889h191l-228 -139h-139z" />
    <glyph glyph-name="zacute" unicode="&#x17a;" horiz-adv-x="469" 
d="M-20 0l22 103l295 309h-232l23 106h388l-23 -108l-288 -304h257l-39 -106h-403zM373 736h177l-206 -144h-132z" />
    <glyph glyph-name="Zdotaccent" unicode="&#x17b;" horiz-adv-x="568" 
d="M-34 0l21 103l443 471h-345l26 115h510l-25 -114l-430 -459h376l-42 -116h-534zM433 766h-136l27 128h136z" />
    <glyph glyph-name="zdotaccent" unicode="&#x17c;" horiz-adv-x="469" 
d="M-20 0l22 103l295 309h-232l23 106h388l-23 -108l-288 -304h257l-39 -106h-403zM359 601h-136l27 127h136z" />
    <glyph glyph-name="Zcaron" unicode="&#x17d;" horiz-adv-x="568" 
d="M-34 0l21 103l443 471h-345l26 115h510l-25 -114l-430 -459h376l-42 -116h-534zM425 749h-130l-100 137h126l50 -72l78 72h136z" />
    <glyph glyph-name="zcaron" unicode="&#x17e;" horiz-adv-x="469" 
d="M-20 0l22 103l295 309h-232l23 106h388l-23 -108l-288 -304h257l-39 -106h-403zM348 588h-127l-76 139h117l34 -73l60 73h131z" />
    <glyph glyph-name="uni018F" unicode="&#x18f;" horiz-adv-x="712" 
d="M517 271h-330q-3 -18 -3 -33q0 -67 35.5 -102.5t103.5 -35.5q140 0 194 171zM539 379q3 11 3 44q0 78 -35.5 121t-104.5 43q-58 0 -95 -24t-66 -75h-145q37 98 115 154.5t198 56.5q75 0 131 -23.5t86.5 -65.5t45 -91t14.5 -108q0 -55 -12.5 -111t-41 -112.5t-70.5 -100
t-106.5 -70.5t-143.5 -27q-131 0 -199.5 71t-68.5 187q0 57 19 131h476z" />
    <glyph glyph-name="florin" unicode="&#x192;" horiz-adv-x="430" 
d="M474 679l-28 -103q-21 10 -52 10q-32 0 -50.5 -29t-29.5 -81l-9 -46h108l-21 -99h-107l-45 -223q-10 -52 -23.5 -89.5t-35.5 -70t-56 -49t-80 -16.5q-62 0 -92 18l26 108q20 -10 55 -10q30 0 44.5 25.5t28.5 90.5l45 216h-89l21 99h89l6 27q9 46 22 81.5t36 74.5
t61.5 60.5t89.5 21.5q61 0 86 -16z" />
    <glyph glyph-name="Ohorn" unicode="&#x1a0;" horiz-adv-x="739" 
d="M431 699q116 0 188 -61q48 10 48 73q0 21 -3 37h123q2 -14 2 -26q0 -133 -109 -168q28 -62 28 -142q0 -65 -14 -125.5t-44.5 -114.5t-74.5 -94.5t-107.5 -64t-139.5 -23.5q-132 0 -202 77.5t-70 200.5q0 62 14.5 123.5t45.5 117t74.5 98t105.5 67.5t135 25zM422 587
q-69 0 -121 -49t-75.5 -119t-23.5 -146q0 -80 36.5 -125t107.5 -45q73 0 124.5 49t72.5 117t21 145q0 80 -34.5 126.5t-107.5 46.5z" />
    <glyph glyph-name="ohorn" unicode="&#x1a1;" horiz-adv-x="567" 
d="M319 528q90 0 146 -47q45 13 45 73q0 20 -3 37h123q2 -14 2 -26q0 -134 -111 -169q13 -42 13 -91q0 -50 -15.5 -101t-47 -101t-91 -81.5t-137.5 -31.5q-104 0 -157 58t-53 156q0 43 10.5 87t33.5 87t55.5 76t81 53.5t105.5 20.5zM308 422q-44 0 -76 -38t-45 -86t-13 -95
q0 -107 83 -107q46 0 78 38.5t45 87t13 97.5q0 103 -85 103z" />
    <glyph glyph-name="Uhorn" unicode="&#x1af;" horiz-adv-x="692" 
d="M160 689h141l-91 -425q-18 -82 12 -122.5t99 -40.5q70 0 103.5 34.5t51.5 117.5l92 436h44q34 4 49 21t15 55q0 21 -3 37h123q2 -14 2 -26q0 -130 -105 -167l-79 -367q-29 -131 -98 -191.5t-208 -60.5q-63 0 -111.5 15t-84.5 48.5t-45.5 87.5t4.5 132z" />
    <glyph glyph-name="uhorn" unicode="&#x1b0;" horiz-adv-x="571" 
d="M333 72q-56 -82 -164 -82q-74 0 -109 48t-17 135l73 345h135l-70 -327q-9 -44 2.5 -66.5t52.5 -22.5q47 0 82.5 39.5t52.5 122.5l55 254h49q30 5 43.5 22t13.5 53q0 21 -3 37h123q2 -14 2 -26q0 -133 -109 -168l-63 -298q-16 -72 -27 -138h-133q3 41 11 72z" />
    <glyph glyph-name="uni01CD" unicode="&#x1cd;" horiz-adv-x="642" 
d="M432 163h-243l-85 -163h-148l371 689h178l90 -689h-142zM244 279h182q-25 224 -29 303h-1q-46 -100 -152 -303zM484 742h-130l-100 137h126l50 -72l78 72h136z" />
    <glyph glyph-name="uni01CE" unicode="&#x1ce;" horiz-adv-x="557" 
d="M511 340l-46 -213q-22 -100 -24 -127h-132q0 4 7 58q-17 -21 -31 -33t-47 -23.5t-78 -11.5q-71 0 -108 40.5t-37 92.5q0 51 20.5 88.5t57.5 58.5t75 31.5t87 16.5q23 2 116 5l5 24q16 86 -66 86q-23 0 -39 -5t-26 -16.5t-13 -17.5t-10 -21h-139q35 155 238 155
q102 0 156.5 -46t33.5 -142zM350 224l2 8q-45 0 -90 -5q-56 -9 -81 -28.5t-25 -52.5q0 -24 15.5 -38.5t47.5 -14.5q33 0 57.5 12t39 34t21.5 40.5t13 44.5zM403 581h-127l-76 139h117l34 -73l60 73h131z" />
    <glyph glyph-name="uni01CF" unicode="&#x1cf;" horiz-adv-x="298" 
d="M170 689h141l-146 -689h-141zM317 748h-130l-100 137h126l50 -72l78 72h136z" />
    <glyph glyph-name="uni01D0" unicode="&#x1d0;" horiz-adv-x="265" 
d="M11 0l110 518h136l-110 -518h-136zM258 581h-127l-76 139h117l34 -73l60 73h131z" />
    <glyph glyph-name="uni01D1" unicode="&#x1d1;" horiz-adv-x="739" 
d="M431 699q136 0 206.5 -79.5t70.5 -207.5q0 -65 -14 -125.5t-44.5 -114.5t-74.5 -94.5t-107.5 -64t-139.5 -23.5q-132 0 -202 77.5t-70 200.5q0 62 14.5 123.5t45.5 117t74.5 98t105.5 67.5t135 25zM422 587q-69 0 -121 -49t-75.5 -119t-23.5 -146q0 -80 36.5 -125
t107.5 -45q73 0 124.5 49t72.5 117t21 145q0 80 -34.5 126.5t-107.5 46.5zM508 749h-130l-100 137h126l50 -72l78 72h136z" />
    <glyph glyph-name="uni01D2" unicode="&#x1d2;" horiz-adv-x="567" 
d="M319 528q97 0 156 -56.5t59 -166.5q0 -50 -15.5 -101t-47 -101t-91 -81.5t-137.5 -31.5q-104 0 -157 58t-53 156q0 43 10.5 87t33.5 87t55.5 76t81 53.5t105.5 20.5zM308 422q-44 0 -76 -38t-45 -86t-13 -95q0 -107 83 -107q46 0 78 38.5t45 87t13 97.5q0 103 -85 103z
M409 586h-127l-76 139h117l34 -73l60 73h131z" />
    <glyph glyph-name="uni01D3" unicode="&#x1d3;" horiz-adv-x="692" 
d="M160 689h141l-91 -425q-18 -82 12 -122.5t99 -40.5q70 0 103.5 34.5t51.5 117.5l92 436h142l-96 -447q-29 -131 -98 -191.5t-208 -60.5q-63 0 -111.5 15t-84.5 48.5t-45.5 87.5t4.5 132zM504 748h-130l-100 137h126l50 -72l78 72h136z" />
    <glyph glyph-name="uni01D4" unicode="&#x1d4;" horiz-adv-x="571" 
d="M562 518l-80 -380q-16 -72 -27 -138h-133q3 41 11 72q-56 -82 -164 -82q-74 0 -109 48t-17 135l73 345h135l-70 -327q-9 -44 2.5 -66.5t52.5 -22.5q47 0 82.5 39.5t52.5 122.5l55 254h136zM411 581h-127l-76 139h117l34 -73l60 73h131z" />
    <glyph glyph-name="uni01D5" unicode="&#x1d5;" horiz-adv-x="692" 
d="M160 689h141l-91 -425q-18 -82 12 -122.5t99 -40.5q70 0 103.5 34.5t51.5 117.5l92 436h142l-96 -447q-29 -131 -98 -191.5t-208 -60.5q-63 0 -111.5 15t-84.5 48.5t-45.5 87.5t4.5 132zM600 894h-281l19 88h281zM384 742h-110l22 105h111zM583 742h-110l22 105h110z" />
    <glyph glyph-name="uni01D6" unicode="&#x1d6;" horiz-adv-x="571" 
d="M562 518l-80 -380q-16 -72 -27 -138h-133q3 41 11 72q-56 -82 -164 -82q-74 0 -109 48t-17 135l73 345h135l-70 -327q-9 -44 2.5 -66.5t52.5 -22.5q47 0 82.5 39.5t52.5 122.5l55 254h136zM517 732h-282l20 92h282zM303 573h-111l22 106h111zM495 573h-111l22 106h111z
" />
    <glyph glyph-name="uni01D7" unicode="&#x1d7;" horiz-adv-x="692" 
d="M160 689h141l-91 -425q-18 -82 12 -122.5t99 -40.5q70 0 103.5 34.5t51.5 117.5l92 436h142l-96 -447q-29 -131 -98 -191.5t-208 -60.5q-63 0 -111.5 15t-84.5 48.5t-45.5 87.5t4.5 132zM514 884h-126l139 116h164zM301 846h111l-22 -106h-111zM589 740h-111l22 106h111z
" />
    <glyph glyph-name="uni01D8" unicode="&#x1d8;" horiz-adv-x="571" 
d="M562 518l-80 -380q-16 -72 -27 -138h-133q3 41 11 72q-56 -82 -164 -82q-74 0 -109 48t-17 135l73 345h135l-70 -327q-9 -44 2.5 -66.5t52.5 -22.5q47 0 82.5 39.5t52.5 122.5l55 254h136zM424 713h-120l134 117h155zM215 680h110l-22 -106h-110zM495 574h-110l22 106
h110z" />
    <glyph glyph-name="uni01D9" unicode="&#x1d9;" horiz-adv-x="692" 
d="M160 689h141l-91 -425q-18 -82 12 -122.5t99 -40.5q70 0 103.5 34.5t51.5 117.5l92 436h142l-96 -447q-29 -131 -98 -191.5t-208 -60.5q-63 0 -111.5 15t-84.5 48.5t-45.5 87.5t4.5 132zM524 885h-125l-77 117h108l41 -58l66 58h116zM301 847h111l-22 -106h-111zM589 741
h-111l22 106h111z" />
    <glyph glyph-name="uni01DA" unicode="&#x1da;" horiz-adv-x="571" 
d="M562 518l-80 -380q-16 -72 -27 -138h-133q3 41 11 72q-56 -82 -164 -82q-74 0 -109 48t-17 135l73 345h135l-70 -327q-9 -44 2.5 -66.5t52.5 -22.5q47 0 82.5 39.5t52.5 122.5l55 254h136zM431 713h-124l-75 118h112l37 -61l62 61h114zM216 681h110l-22 -106h-110z
M496 575h-110l22 106h110z" />
    <glyph glyph-name="uni01DB" unicode="&#x1db;" horiz-adv-x="692" 
d="M160 689h141l-91 -425q-18 -82 12 -122.5t99 -40.5q70 0 103.5 34.5t51.5 117.5l92 436h142l-96 -447q-29 -131 -98 -191.5t-208 -60.5q-63 0 -111.5 15t-84.5 48.5t-45.5 87.5t4.5 132zM525 879h-114l-139 116h152zM301 846h110l-23 -105h-110zM587 741h-110l23 105h110
z" />
    <glyph glyph-name="uni01DC" unicode="&#x1dc;" horiz-adv-x="571" 
d="M562 518l-80 -380q-16 -72 -27 -138h-133q3 41 11 72q-56 -82 -164 -82q-74 0 -109 48t-17 135l73 345h135l-70 -327q-9 -44 2.5 -66.5t52.5 -22.5q47 0 82.5 39.5t52.5 122.5l55 254h136zM191 832h148l88 -117h-109zM215 682h110l-22 -106h-111zM495 576h-111l23 106
h110z" />
    <glyph glyph-name="Gcaron" unicode="&#x1e6;" horiz-adv-x="712" 
d="M671 387l-74 -387h-110q-3 27 6 75q-64 -85 -193 -85q-118 0 -180.5 77t-62.5 202q0 62 14.5 123t45 116.5t74 98t106 67.5t136.5 25q120 0 189.5 -61.5t69.5 -159.5h-141q-3 44 -35 76.5t-100 32.5q-53 0 -95.5 -29t-67 -75t-37.5 -98.5t-13 -105.5q0 -83 34.5 -129.5
t104.5 -46.5q79 0 116 42.5t52 115.5l1 3h-159l26 123h293zM505 754h-130l-100 137h126l50 -72l78 72h136z" />
    <glyph glyph-name="gcaron" unicode="&#x1e7;" horiz-adv-x="587" 
d="M551 388l-67 -313q-15 -72 -31.5 -116.5t-47.5 -86t-81.5 -61t-123.5 -19.5q-55 0 -96 12t-62.5 28t-34 40.5t-16 43t-3.5 40.5h138q4 -62 85 -62q57 0 86 36t48 122l3 16q-50 -62 -144 -62q-82 0 -127 55t-45 146q0 78 30.5 150.5t92 121.5t140.5 49q56 0 90.5 -17.5
t46.5 -44.5q2 8 18 52h130q-21 -92 -29 -130zM316 418q-66 0 -103.5 -62t-37.5 -139q0 -101 84 -101q104 0 138 156q31 146 -81 146zM418 581h-127l-76 139h117l34 -73l60 73h131z" />
    <glyph glyph-name="uni0218" unicode="&#x218;" horiz-adv-x="605" 
d="M15 212h143q10 -114 137 -114q118 0 118 91q0 39 -28 64t-98 49q-103 35 -147.5 80t-44.5 111q0 89 64.5 147.5t189.5 58.5q117 0 182 -55t67 -148h-143q-7 93 -113 93q-45 0 -73 -20.5t-28 -59.5q0 -30 23 -51t87 -43q109 -38 159.5 -86t50.5 -123q0 -43 -14.5 -80
t-45.5 -68.5t-87 -49.5t-133 -18q-126 0 -194.5 59t-71.5 163zM223 -251h-122q37 43 64.5 98.5t37.5 94.5h135q-16 -60 -48.5 -111.5t-66.5 -81.5z" />
    <glyph glyph-name="uni0219" unicode="&#x219;" horiz-adv-x="496" 
d="M8 160h137q6 -69 90 -69q74 0 74 59q0 24 -20.5 38.5t-71.5 30.5q-88 28 -123 61t-35 83q0 73 55.5 119t155.5 46q102 0 154.5 -45t50.5 -111h-138q-4 55 -74 55q-68 0 -68 -47q0 -19 18.5 -30t72.5 -29q89 -28 126 -65t37 -92q0 -85 -65.5 -129.5t-163.5 -44.5
q-104 0 -160 44.5t-52 125.5zM159 -252h-122q37 43 64.5 98.5t37.5 94.5h135q-16 -60 -48.5 -111.5t-66.5 -81.5z" />
    <glyph glyph-name="uni021A" unicode="&#x21a;" horiz-adv-x="556" 
d="M147 0l122 574h-202l25 115h543l-25 -115h-201l-121 -574h-141zM161 -251h-122q37 43 64.5 98.5t37.5 94.5h135q-16 -60 -48.5 -111.5t-66.5 -81.5z" />
    <glyph glyph-name="uni021B" unicode="&#x21b;" horiz-adv-x="346" 
d="M44 414l23 104h77l30 139h135l-29 -139h97l-23 -104h-97l-55 -261q-5 -27 2 -40t35 -13q21 0 44 3l-20 -98q-31 -10 -92 -10q-76 0 -98.5 39t-7.5 113l56 267h-77zM93 -252h-122q37 43 64.5 98.5t37.5 94.5h135q-16 -60 -48.5 -111.5t-66.5 -81.5z" />
    <glyph glyph-name="uni0237" unicode="&#x237;" horiz-adv-x="265" 
d="M121 518h136l-118 -553q-19 -92 -64 -132.5t-124 -40.5q-31 0 -63 4l30 113q6 -1 17 -1q34 0 48.5 16t21.5 53z" />
    <glyph glyph-name="uni0251" unicode="&#x251;" horiz-adv-x="599" 
d="M454 518h134l-80 -378q-26 -122 -29 -140h-131q2 29 8 61q-26 -36 -62.5 -53.5t-94.5 -17.5q-76 0 -120.5 55.5t-44.5 150.5q0 81 32 156t97 125.5t148 50.5q51 0 86 -17t44 -39q1 5 4 16t5.5 19t3.5 11zM323 415q-66 0 -106.5 -64.5t-40.5 -139.5q0 -49 19.5 -78.5
t57.5 -29.5q60 0 98.5 48.5t54.5 126.5q14 66 -7 101.5t-76 35.5z" />
    <glyph glyph-name="uni0259" unicode="&#x259;" horiz-adv-x="553" 
d="M46 290h332q4 22 4 31q0 102 -82 102q-66 0 -97 -63h-142q63 168 250 168q101 0 154 -57.5t53 -154.5q0 -43 -9 -86.5t-30.5 -87t-52.5 -77t-80 -54.5t-108 -21q-107 0 -156.5 55.5t-49.5 143.5q0 50 14 101zM360 199h-196q-2 -9 -2 -23q0 -84 80 -84q89 0 118 107z" />
    <glyph glyph-name="uni0261" unicode="&#x261;" horiz-adv-x="587" 
d="M551 388l-67 -313q-15 -72 -31.5 -116.5t-47.5 -86t-81.5 -61t-123.5 -19.5q-55 0 -96 12t-62.5 28t-34 40.5t-16 43t-3.5 40.5h138q4 -62 85 -62q57 0 86 36t48 122l3 16q-50 -62 -144 -62q-82 0 -127 55t-45 146q0 78 30.5 150.5t92 121.5t140.5 49q56 0 90.5 -17.5
t46.5 -44.5q2 8 18 52h130q-21 -92 -29 -130zM316 418q-66 0 -103.5 -62t-37.5 -139q0 -101 84 -101q104 0 138 156q31 146 -81 146z" />
    <glyph glyph-name="uni02BB" unicode="&#x2bb;" horiz-adv-x="388" 
d="M274 730h115q-35 -64 -67 -146.5t-45 -145.5h-140q18 72 57 154.5t80 137.5z" />
    <glyph glyph-name="uni02BC" unicode="&#x2bc;" horiz-adv-x="388" 
d="M252 438h-115q35 64 67 146.5t45 145.5h139q-17 -71 -56 -154t-80 -138z" />
    <glyph glyph-name="uni02BE" unicode="&#x2be;" horiz-adv-x="324" 
d="M195 701l13 66q43 0 72.5 -24.5t29.5 -66.5q0 -54 -41.5 -85t-103.5 -30l15 67q21 2 34.5 13t13.5 29q0 26 -33 31z" />
    <glyph glyph-name="uni02BF" unicode="&#x2bf;" horiz-adv-x="324" 
d="M301 626l-13 -66q-43 0 -72.5 24.5t-29.5 66.5q0 54 41.5 85t103.5 30l-15 -67q-21 -2 -34.5 -13t-13.5 -29q0 -26 33 -31z" />
    <glyph glyph-name="circumflex" unicode="&#x2c6;" 
d="M229 722h128l75 -140h-120l-34 73l-61 -73h-127z" />
    <glyph glyph-name="caron" unicode="&#x2c7;" 
d="M330 581h-127l-76 139h117l34 -73l60 73h131z" />
    <glyph glyph-name="uni02C8" unicode="&#x2c8;" horiz-adv-x="319" 
d="M281 554h-117l39 191h119z" />
    <glyph glyph-name="uni02C9" unicode="&#x2c9;" horiz-adv-x="488" 
d="M196 709h288l-23 -105h-288z" />
    <glyph glyph-name="uni02CA" unicode="&#x2ca;" horiz-adv-x="472" 
d="M341 736h177l-206 -144h-132z" />
    <glyph glyph-name="uni02CB" unicode="&#x2cb;" horiz-adv-x="463" 
d="M174 736h155l98 -144h-117z" />
    <glyph glyph-name="uni02CC" unicode="&#x2cc;" horiz-adv-x="319" 
d="M111 -246h-117l39 191h119z" />
    <glyph glyph-name="breve" unicode="&#x2d8;" 
d="M136 719h94q-2 -52 49 -52q20 0 34.5 8.5t21 17.5t15.5 26h93q-47 -144 -178 -144q-74 0 -106 42t-23 102z" />
    <glyph glyph-name="dotaccent" unicode="&#x2d9;" 
d="M325 601h-136l27 127h136z" />
    <glyph glyph-name="ring" unicode="&#x2da;" 
d="M261 562q-49 0 -77 25t-28 65q0 51 37 83t93 32q49 0 76 -26t27 -66q0 -50 -36 -81.5t-92 -31.5zM266 621q20 0 36.5 13t16.5 37q0 38 -40 38q-21 0 -36.5 -13t-15.5 -38q0 -13 10 -25t29 -12z" />
    <glyph glyph-name="ogonek" unicode="&#x2db;" 
d="M157 37l63 -36q-66 -58 -66 -96q0 -40 49 -40q30 0 51 7l-20 -94q-31 -14 -87 -14q-57 0 -88.5 27t-31.5 75q0 89 130 171z" />
    <glyph glyph-name="tilde" unicode="&#x2dc;" 
d="M187 589h-88l7 39q11 58 36.5 79t67.5 21q33 0 74.5 -23t52.5 -23q24 0 32 38l2 9h87l-6 -31q-11 -64 -38.5 -87.5t-72.5 -23.5q-33 0 -72.5 22t-50.5 22q-22 0 -28 -27z" />
    <glyph glyph-name="hungarumlaut" unicode="&#x2dd;" 
d="M366 729l-166 -148h-115l136 148h145zM569 729l-165 -148h-114l136 148h143z" />
    <glyph glyph-name="uni0300" unicode="&#x300;" horiz-adv-x="0" 
d="M-128 736h155l98 -144h-117z" />
    <glyph glyph-name="uni0301" unicode="&#x301;" horiz-adv-x="0" 
d="M44 736h177l-206 -144h-132z" />
    <glyph glyph-name="uni0302" unicode="&#x302;" horiz-adv-x="0" 
d="M-18 722h128l75 -140h-120l-34 73l-61 -73h-127z" />
    <glyph glyph-name="uni0303" unicode="&#x303;" horiz-adv-x="0" 
d="M-60 589h-88l7 39q11 58 36.5 79t67.5 21q32 0 73.5 -23t53.5 -23q24 0 32 38l2 9h87l-6 -31q-11 -64 -38.5 -87.5t-72.5 -23.5q-32 0 -72 22t-51 22q-22 0 -28 -27z" />
    <glyph glyph-name="uni0304" unicode="&#x304;" horiz-adv-x="0" 
d="M-104 709h288l-23 -105h-288z" />
    <glyph glyph-name="uni0306" unicode="&#x306;" horiz-adv-x="0" 
d="M-111 719h94q-2 -52 49 -52q20 0 34.5 8.5t21 17.5t15.5 26h93q-47 -144 -178 -144q-74 0 -106 42t-23 102z" />
    <glyph glyph-name="uni0307" unicode="&#x307;" horiz-adv-x="0" 
d="M78 601h-136l27 127h136z" />
    <glyph glyph-name="uni0308" unicode="&#x308;" horiz-adv-x="0" 
d="M-30 601h-111l27 127h111zM159 601h-111l27 127h111z" />
    <glyph glyph-name="uni0309" unicode="&#x309;" horiz-adv-x="0" 
d="M52 580h-115q2 2 11.5 8.5t14 9.5t13 10t13 12t9.5 12t7.5 13.5t2.5 13.5q0 23 -28 23q-31 0 -54 -15l-16 69q49 32 107 32q47 0 73.5 -24t26.5 -56q0 -60 -65 -108z" />
    <glyph glyph-name="uni030A" unicode="&#x30a;" horiz-adv-x="0" 
d="M14 562q-49 0 -77 25t-28 65q0 51 37 83t93 32q49 0 76 -26t27 -66q0 -50 -36 -81.5t-92 -31.5zM19 621q20 0 36.5 13t16.5 37q0 38 -40 38q-21 0 -36.5 -13t-15.5 -38q0 -13 10 -25t29 -12z" />
    <glyph glyph-name="uni030B" unicode="&#x30b;" horiz-adv-x="0" 
d="M80 729l-166 -148h-115l136 148h145zM283 729l-165 -148h-114l136 148h143z" />
    <glyph glyph-name="uni030C" unicode="&#x30c;" horiz-adv-x="0" 
d="M118 581h-127l-76 139h117l34 -73l60 73h131z" />
    <glyph glyph-name="uni031B" unicode="&#x31b;" horiz-adv-x="0" 
d="M1 449l-19 93q34 4 49 21t15 55q0 20 -3 37h123q2 -14 2 -26q0 -164 -167 -180z" />
    <glyph glyph-name="uni0323" unicode="&#x323;" horiz-adv-x="0" 
d="M-72 -200h-141l29 140h142z" />
    <glyph glyph-name="uni0324" unicode="&#x324;" horiz-adv-x="0" 
d="M-200 -200h-111l27 127h111zM-11 -200h-111l27 127h111z" />
    <glyph glyph-name="uni0326" unicode="&#x326;" horiz-adv-x="0" 
d="M-98 -252h-122q37 43 64.5 98.5t37.5 94.5h135q-16 -60 -48.5 -111.5t-66.5 -81.5z" />
    <glyph glyph-name="uni0327" unicode="&#x327;" horiz-adv-x="0" 
d="M-138 10l89 -10l-44 -43q80 -24 80 -89q0 -54 -40 -82.5t-104 -28.5q-57 0 -102 15l19 74q26 -8 64 -8q50 0 50 26q0 29 -93 33l8 35z" />
    <glyph glyph-name="uni0328" unicode="&#x328;" horiz-adv-x="0" 
d="M-104 37l63 -36q-66 -58 -66 -96q0 -40 49 -40q30 0 51 7l-20 -94q-31 -14 -87 -14q-57 0 -88.5 27t-31.5 75q0 89 130 171z" />
    <glyph glyph-name="uni032E" unicode="&#x32e;" horiz-adv-x="0" 
d="M-276 -61h94q-2 -52 49 -52q20 0 34.5 8.5t21 17.5t15.5 26h93q-47 -144 -178 -144q-74 0 -106 42t-23 102z" />
    <glyph glyph-name="uni0331" unicode="&#x331;" horiz-adv-x="0" 
d="M-271 -76h288l-23 -105h-288z" />
    <glyph glyph-name="pi" unicode="&#x3c0;" horiz-adv-x="578" 
d="M300 0l88 412h-146l-87 -412h-127l87 412q-60 0 -84 -5l24 101q40 10 166 10h403l-26 -106h-73l-90 -412h-135z" />
    <glyph glyph-name="uni1E0C" unicode="&#x1e0c;" horiz-adv-x="716" 
d="M24 0l146 689h222q137 0 216.5 -77.5t79.5 -215.5q0 -172 -106.5 -284t-290.5 -112h-267zM287 577l-98 -464h107q112 0 177.5 75t65.5 206q0 91 -42 137t-122 46h-88zM314 -200h-141l29 140h142z" />
    <glyph glyph-name="uni1E0D" unicode="&#x1e0d;" horiz-adv-x="599" 
d="M496 730h136l-124 -590q-26 -122 -29 -140h-131q2 29 8 61q-51 -71 -150 -71q-82 0 -127 54.5t-45 150.5q0 82 30 156.5t94.5 125.5t149.5 51q52 0 88 -17t45 -38zM323 415q-67 0 -107 -63.5t-40 -140.5q0 -108 84 -108q114 0 146 175q26 137 -83 137zM303 -200h-141
l29 140h142z" />
    <glyph glyph-name="uni1E0E" unicode="&#x1e0e;" horiz-adv-x="716" 
d="M24 0l146 689h222q137 0 216.5 -77.5t79.5 -215.5q0 -172 -106.5 -284t-290.5 -112h-267zM287 577l-98 -464h107q112 0 177.5 75t65.5 206q0 91 -42 137t-122 46h-88zM106 -76h288l-23 -105h-288z" />
    <glyph glyph-name="uni1E0F" unicode="&#x1e0f;" horiz-adv-x="599" 
d="M496 730h136l-124 -590q-26 -122 -29 -140h-131q2 29 8 61q-51 -71 -150 -71q-82 0 -127 54.5t-45 150.5q0 82 30 156.5t94.5 125.5t149.5 51q52 0 88 -17t45 -38zM323 415q-67 0 -107 -63.5t-40 -140.5q0 -108 84 -108q114 0 146 175q26 137 -83 137zM97 -76h288
l-23 -105h-288z" />
    <glyph glyph-name="uni1E20" unicode="&#x1e20;" horiz-adv-x="712" 
d="M671 387l-74 -387h-110q-3 27 6 75q-64 -85 -193 -85q-118 0 -180.5 77t-62.5 202q0 62 14.5 123t45 116.5t74 98t106 67.5t136.5 25q120 0 189.5 -61.5t69.5 -159.5h-141q-3 44 -35 76.5t-100 32.5q-53 0 -95.5 -29t-67 -75t-37.5 -98.5t-13 -105.5q0 -83 34.5 -129.5
t104.5 -46.5q79 0 116 42.5t52 115.5l1 3h-159l26 123h293zM317 861h296l-21 -101h-296z" />
    <glyph glyph-name="uni1E21" unicode="&#x1e21;" horiz-adv-x="587" 
d="M551 388l-67 -313q-15 -72 -31.5 -116.5t-47.5 -86t-81.5 -61t-123.5 -19.5q-55 0 -96 12t-62.5 28t-34 40.5t-16 43t-3.5 40.5h138q4 -62 85 -62q57 0 86 36t48 122l3 16q-50 -62 -144 -62q-82 0 -127 55t-45 146q0 78 30.5 150.5t92 121.5t140.5 49q56 0 90.5 -17.5
t46.5 -44.5q2 8 18 52h130q-21 -92 -29 -130zM316 418q-66 0 -103.5 -62t-37.5 -139q0 -101 84 -101q104 0 138 156q31 146 -81 146zM237 709h288l-23 -105h-288z" />
    <glyph glyph-name="uni1E24" unicode="&#x1e24;" horiz-adv-x="708" 
d="M24 0l146 689h141l-57 -267h268l57 267h141l-146 -689h-141l65 306h-268l-65 -306h-141zM337 -190h-141l29 140h142z" />
    <glyph glyph-name="uni1E25" unicode="&#x1e25;" horiz-adv-x="578" 
d="M11 0l154 730h136l-58 -278q62 76 156 76q75 0 113 -47t17 -150l-70 -331h-135l65 312q11 52 -1.5 77t-56.5 25q-95 0 -122 -121l-62 -293h-136zM267 -200h-141l29 140h142z" />
    <glyph glyph-name="uni1E2A" unicode="&#x1e2a;" horiz-adv-x="708" 
d="M24 0l146 689h141l-57 -267h268l57 267h141l-146 -689h-141l65 306h-268l-65 -306h-141zM139 -61h94q-2 -52 49 -52q20 0 34.5 8.5t21 17.5t15.5 26h93q-47 -144 -178 -144q-74 0 -106 42t-23 102z" />
    <glyph glyph-name="uni1E2B" unicode="&#x1e2b;" horiz-adv-x="578" 
d="M11 0l154 730h136l-58 -278q62 76 156 76q75 0 113 -47t17 -150l-70 -331h-135l65 312q11 52 -1.5 77t-56.5 25q-95 0 -122 -121l-62 -293h-136zM74 -61h94q-2 -52 49 -52q20 0 34.5 8.5t21 17.5t15.5 26h93q-47 -144 -178 -144q-74 0 -106 42t-23 102z" />
    <glyph glyph-name="uni1E36" unicode="&#x1e36;" horiz-adv-x="560" 
d="M24 0l146 689h141l-122 -573h331l-39 -116h-457zM299 -200h-141l29 140h142z" />
    <glyph glyph-name="uni1E37" unicode="&#x1e37;" horiz-adv-x="265" 
d="M147 0h-136l154 730h136zM111 -200h-141l29 140h142z" />
    <glyph glyph-name="uni1E38" unicode="&#x1e38;" horiz-adv-x="560" 
d="M24 0l146 689h141l-122 -573h331l-39 -116h-457zM301 -200h-141l29 140h142zM122 850h296l-21 -101h-296z" />
    <glyph glyph-name="uni1E39" unicode="&#x1e39;" horiz-adv-x="265" 
d="M147 0h-136l154 730h136zM120 902h288l-23 -105h-288zM111 -200h-141l29 140h142z" />
    <glyph glyph-name="uni1E3A" unicode="&#x1e3a;" horiz-adv-x="560" 
d="M24 0l146 689h141l-122 -573h331l-39 -116h-457zM101 -75h288l-23 -105h-288z" />
    <glyph glyph-name="uni1E3B" unicode="&#x1e3b;" horiz-adv-x="265" 
d="M147 0h-136l154 730h136zM-76 -75h288l-23 -105h-288z" />
    <glyph glyph-name="uni1E42" unicode="&#x1e42;" horiz-adv-x="848" 
d="M577 0l54 259q44 204 75 333h-4q-97 -222 -279 -592h-122q-26 442 -26 594h-5q-18 -128 -64 -347l-53 -247h-130l146 689h213q22 -334 22 -505h1q16 41 54.5 121t97.5 199.5t90 184.5h213l-146 -689h-137zM395 -200h-141l29 140h142z" />
    <glyph glyph-name="uni1E43" unicode="&#x1e43;" horiz-adv-x="846" 
d="M11 0l79 372q25 123 29 146h133q-7 -44 -10 -61q28 35 61 53t83 18q102 0 118 -84q66 84 169 84q73 0 109 -46t15 -145l-72 -337h-132l68 320q20 95 -56 95q-45 0 -69.5 -31t-37.5 -93l-62 -291h-134l69 322q18 92 -56 92q-45 0 -70.5 -31.5t-39.5 -98.5l-60 -284h-134z
M401 -200h-141l29 140h142z" />
    <glyph glyph-name="uni1E44" unicode="&#x1e44;" horiz-adv-x="724" 
d="M156 0h-133l146 689h182q135 -449 146 -526h2q8 66 61 314l45 212h132l-147 -689h-172q-135 464 -148 552h-2q-11 -74 -66 -334zM519 746h-136l27 128h136z" />
    <glyph glyph-name="uni1E45" unicode="&#x1e45;" horiz-adv-x="578" 
d="M11 0l82 386q22 110 26 132h133q-2 -30 -10 -65q58 75 156 75q81 0 116 -52.5t11 -162.5l-66 -313h-135l66 314q22 100 -58 100q-97 0 -129 -146l-56 -268h-136zM415 601h-136l27 127h136z" />
    <glyph glyph-name="uni1E46" unicode="&#x1e46;" horiz-adv-x="724" 
d="M156 0h-133l146 689h182q135 -449 146 -526h2q8 66 61 314l45 212h132l-147 -689h-172q-135 464 -148 552h-2q-11 -74 -66 -334zM347 -198h-141l29 140h142z" />
    <glyph glyph-name="uni1E47" unicode="&#x1e47;" horiz-adv-x="578" 
d="M11 0l82 386q22 110 26 132h133q-2 -30 -10 -65q58 75 156 75q81 0 116 -52.5t11 -162.5l-66 -313h-135l66 314q22 100 -58 100q-97 0 -129 -146l-56 -268h-136zM268 -200h-141l29 140h142z" />
    <glyph glyph-name="uni1E48" unicode="&#x1e48;" horiz-adv-x="724" 
d="M156 0h-133l146 689h182q135 -449 146 -526h2q8 66 61 314l45 212h132l-147 -689h-172q-135 464 -148 552h-2q-11 -74 -66 -334zM171 -72h288l-23 -105h-288z" />
    <glyph glyph-name="uni1E49" unicode="&#x1e49;" horiz-adv-x="578" 
d="M11 0l82 386q22 110 26 132h133q-2 -30 -10 -65q58 75 156 75q81 0 116 -52.5t11 -162.5l-66 -313h-135l66 314q22 100 -58 100q-97 0 -129 -146l-56 -268h-136zM80 -76h288l-23 -105h-288z" />
    <glyph glyph-name="uni1E5A" unicode="&#x1e5a;" horiz-adv-x="644" 
d="M347 281h-124l-59 -281h-140l146 689h263q98 0 154 -47.5t56 -132.5q0 -69 -38 -115.5t-104 -64.5q83 -38 57 -164q-28 -133 -24 -165h-134q-6 43 20 165q13 59 -2.5 87.5t-70.5 28.5zM285 577l-39 -183h116q137 0 137 101q0 82 -100 82h-114zM320 -190h-141l29 140h142z
" />
    <glyph glyph-name="uni1E5B" unicode="&#x1e5b;" horiz-adv-x="384" 
d="M407 528l-27 -137q-150 -2 -185 -166l-48 -225h-136l78 364q9 40 30 154h131q-3 -37 -15 -94q29 51 69 77.5t103 26.5zM111 -200h-141l29 140h142z" />
    <glyph glyph-name="uni1E5C" unicode="&#x1e5c;" horiz-adv-x="644" 
d="M347 281h-124l-59 -281h-140l146 689h263q98 0 154 -47.5t56 -132.5q0 -69 -38 -115.5t-104 -64.5q83 -38 57 -164q-28 -133 -24 -165h-134q-6 43 20 165q13 59 -2.5 87.5t-70.5 28.5zM285 577l-39 -183h116q137 0 137 101q0 82 -100 82h-114zM320 -190h-141l29 140h142z
M283 862h296l-21 -101h-296z" />
    <glyph glyph-name="uni1E5D" unicode="&#x1e5d;" horiz-adv-x="384" 
d="M407 528l-27 -137q-150 -2 -185 -166l-48 -225h-136l78 364q9 40 30 154h131q-3 -37 -15 -94q29 51 69 77.5t103 26.5zM148 709h288l-23 -105h-288zM111 -200h-141l29 140h142z" />
    <glyph glyph-name="uni1E5E" unicode="&#x1e5e;" horiz-adv-x="644" 
d="M347 281h-124l-59 -281h-140l146 689h263q98 0 154 -47.5t56 -132.5q0 -69 -38 -115.5t-104 -64.5q83 -38 57 -164q-28 -133 -24 -165h-134q-6 43 20 165q13 59 -2.5 87.5t-70.5 28.5zM285 577l-39 -183h116q137 0 137 101q0 82 -100 82h-114zM123 -76h288l-23 -105h-288
z" />
    <glyph glyph-name="uni1E5F" unicode="&#x1e5f;" horiz-adv-x="384" 
d="M407 528l-27 -137q-150 -2 -185 -166l-48 -225h-136l78 364q9 40 30 154h131q-3 -37 -15 -94q29 51 69 77.5t103 26.5zM-73 -76h288l-23 -105h-288z" />
    <glyph glyph-name="uni1E60" unicode="&#x1e60;" horiz-adv-x="605" 
d="M15 212h143q10 -114 137 -114q118 0 118 91q0 39 -28 64t-98 49q-103 35 -147.5 80t-44.5 111q0 89 64.5 147.5t189.5 58.5q117 0 182 -55t67 -148h-143q-7 93 -113 93q-45 0 -73 -20.5t-28 -59.5q0 -30 23 -51t87 -43q109 -38 159.5 -86t50.5 -123q0 -43 -14.5 -80
t-45.5 -68.5t-87 -49.5t-133 -18q-126 0 -194.5 59t-71.5 163zM447 753h-136l27 128h136z" />
    <glyph glyph-name="uni1E61" unicode="&#x1e61;" horiz-adv-x="496" 
d="M8 160h137q6 -69 90 -69q74 0 74 59q0 24 -20.5 38.5t-71.5 30.5q-88 28 -123 61t-35 83q0 73 55.5 119t155.5 46q102 0 154.5 -45t50.5 -111h-138q-4 55 -74 55q-68 0 -68 -47q0 -19 18.5 -30t72.5 -29q89 -28 126 -65t37 -92q0 -85 -65.5 -129.5t-163.5 -44.5
q-104 0 -160 44.5t-52 125.5zM373 601h-136l27 127h136z" />
    <glyph glyph-name="uni1E62" unicode="&#x1e62;" horiz-adv-x="605" 
d="M15 212h143q10 -114 137 -114q118 0 118 91q0 39 -28 64t-98 49q-103 35 -147.5 80t-44.5 111q0 89 64.5 147.5t189.5 58.5q117 0 182 -55t67 -148h-143q-7 93 -113 93q-45 0 -73 -20.5t-28 -59.5q0 -30 23 -51t87 -43q109 -38 159.5 -86t50.5 -123q0 -43 -14.5 -80
t-45.5 -68.5t-87 -49.5t-133 -18q-126 0 -194.5 59t-71.5 163zM300 -209h-141l29 140h142z" />
    <glyph glyph-name="uni1E63" unicode="&#x1e63;" horiz-adv-x="496" 
d="M8 160h137q6 -69 90 -69q74 0 74 59q0 24 -20.5 38.5t-71.5 30.5q-88 28 -123 61t-35 83q0 73 55.5 119t155.5 46q102 0 154.5 -45t50.5 -111h-138q-4 55 -74 55q-68 0 -68 -47q0 -19 18.5 -30t72.5 -29q89 -28 126 -65t37 -92q0 -85 -65.5 -129.5t-163.5 -44.5
q-104 0 -160 44.5t-52 125.5zM237 -200h-141l29 140h142z" />
    <glyph glyph-name="uni1E6C" unicode="&#x1e6c;" horiz-adv-x="556" 
d="M147 0l122 574h-202l25 115h543l-25 -115h-201l-121 -574h-141zM248 -202h-141l29 140h142z" />
    <glyph glyph-name="uni1E6D" unicode="&#x1e6d;" horiz-adv-x="346" 
d="M44 414l23 104h77l30 139h135l-29 -139h97l-23 -104h-97l-55 -261q-5 -27 2 -40t35 -13q21 0 44 3l-20 -98q-31 -10 -92 -10q-76 0 -98.5 39t-7.5 113l56 267h-77zM173 -200h-141l29 140h142z" />
    <glyph glyph-name="uni1E6E" unicode="&#x1e6e;" horiz-adv-x="556" 
d="M147 0l122 574h-202l25 115h543l-25 -115h-201l-121 -574h-141zM65 -76h288l-23 -105h-288z" />
    <glyph glyph-name="uni1E6F" unicode="&#x1e6f;" horiz-adv-x="346" 
d="M44 414l23 104h77l30 139h135l-29 -139h97l-23 -104h-97l-55 -261q-5 -27 2 -40t35 -13q21 0 44 3l-20 -98q-31 -10 -92 -10q-76 0 -98.5 39t-7.5 113l56 267h-77zM-10 -72h288l-23 -105h-288z" />
    <glyph glyph-name="Wgrave" unicode="&#x1e80;" horiz-adv-x="899" 
d="M259 0h-143l-22 689h139q-1 -60 -1 -207.5t-1.5 -224.5t-5.5 -111h1q14 42 57 136.5t106.5 228.5t83.5 178h123q19 -420 14 -535h1q11 33 32.5 87.5t42 101.5t69 159t80.5 187h139l-330 -689h-143q-1 27 -7.5 226t-5.5 269h-1q-15 -44 -46.5 -115.5t-58 -127t-69 -141
t-54.5 -111.5zM291 887h173l143 -139h-133z" />
    <glyph glyph-name="wgrave" unicode="&#x1e81;" horiz-adv-x="759" 
d="M60 518h135q5 -312 2 -382h2q38 96 167 382h129q2 -314 -4 -386h1q71 180 167 386h141l-260 -518h-146q-8 231 -3 348h-1q-7 -19 -16 -42t-24.5 -57.5t-28.5 -62.5t-40 -86t-46 -100h-146zM254 736h155l98 -144h-117z" />
    <glyph glyph-name="Wacute" unicode="&#x1e82;" horiz-adv-x="899" 
d="M259 0h-143l-22 689h139q-1 -60 -1 -207.5t-1.5 -224.5t-5.5 -111h1q14 42 57 136.5t106.5 228.5t83.5 178h123q19 -420 14 -535h1q11 33 32.5 87.5t42 101.5t69 159t80.5 187h139l-330 -689h-143q-1 27 -7.5 226t-5.5 269h-1q-15 -44 -46.5 -115.5t-58 -127t-69 -141
t-54.5 -111.5zM640 884h191l-228 -139h-139z" />
    <glyph glyph-name="wacute" unicode="&#x1e83;" horiz-adv-x="759" 
d="M60 518h135q5 -312 2 -382h2q38 96 167 382h129q2 -314 -4 -386h1q71 180 167 386h141l-260 -518h-146q-8 231 -3 348h-1q-7 -19 -16 -42t-24.5 -57.5t-28.5 -62.5t-40 -86t-46 -100h-146zM528 736h177l-206 -144h-132z" />
    <glyph glyph-name="Wdieresis" unicode="&#x1e84;" horiz-adv-x="899" 
d="M259 0h-143l-22 689h139q-1 -60 -1 -207.5t-1.5 -224.5t-5.5 -111h1q14 42 57 136.5t106.5 228.5t83.5 178h123q19 -420 14 -535h1q11 33 32.5 87.5t42 101.5t69 159t80.5 187h139l-330 -689h-143q-1 27 -7.5 226t-5.5 269h-1q-15 -44 -46.5 -115.5t-58 -127t-69 -141
t-54.5 -111.5zM493 750h-111l27 127h111zM698 750h-111l27 127h111z" />
    <glyph glyph-name="wdieresis" unicode="&#x1e85;" horiz-adv-x="759" 
d="M60 518h135q5 -312 2 -382h2q38 96 167 382h129q2 -314 -4 -386h1q71 180 167 386h141l-260 -518h-146q-8 231 -3 348h-1q-7 -19 -16 -42t-24.5 -57.5t-28.5 -62.5t-40 -86t-46 -100h-146zM397 601h-111l27 127h111zM586 601h-111l27 127h111z" />
    <glyph glyph-name="uni1E8E" unicode="&#x1e8e;" horiz-adv-x="577" 
d="M291 0h-141l52 250q3 12 -1 23l-144 416h146q7 -25 45.5 -151.5t47.5 -170.5q20 32 60 88t94 129t77 105h151l-326 -424q-8 -12 -10 -22zM431 747h-136l27 128h136z" />
    <glyph glyph-name="uni1E8F" unicode="&#x1e8f;" horiz-adv-x="506" 
d="M48 518h136q27 -318 29 -407h1q115 252 191 407h142l-282 -541q-32 -62 -60 -99.5t-59 -56t-59.5 -24t-73.5 -5.5q-34 0 -69 7l25 112q18 -4 45 -4q43 0 64 15t38 48zM369 601h-136l27 127h136z" />
    <glyph glyph-name="uni1E92" unicode="&#x1e92;" horiz-adv-x="568" 
d="M-34 0l21 103l443 471h-345l26 115h510l-25 -114l-430 -459h376l-42 -116h-534zM283 -210h-141l29 140h142z" />
    <glyph glyph-name="uni1E93" unicode="&#x1e93;" horiz-adv-x="469" 
d="M-20 0l22 103l295 309h-232l23 106h388l-23 -108l-288 -304h257l-39 -106h-403zM223 -209h-141l29 140h142z" />
    <glyph glyph-name="uni1E97" unicode="&#x1e97;" horiz-adv-x="346" 
d="M44 414l23 104h77l30 139h135l-29 -139h97l-23 -104h-97l-55 -261q-5 -27 2 -40t35 -13q21 0 44 3l-20 -98q-31 -10 -92 -10q-76 0 -98.5 39t-7.5 113l56 267h-77zM215 711h-111l27 127h111zM404 711h-111l27 127h111z" />
    <glyph glyph-name="uni1E9E" unicode="&#x1e9e;" horiz-adv-x="684" 
d="M263 469l-101 -469h-140l102 479q14 67 40.5 112t65 68t79.5 31.5t96 8.5q68 0 119.5 -17.5t78.5 -45.5t40 -57.5t13 -59.5q0 -34 -8 -58l-157 -83l-1 -5l41 -31q57 -44 81 -79.5t24 -86.5q0 -32 -11.5 -63t-36.5 -59t-71 -45.5t-108 -17.5q-63 0 -111 18t-67 37l28 118
q68 -66 152 -68q39 0 61.5 17.5t22.5 50.5q0 24 -13 42.5t-50 44.5l-81 59q-34 26 -28.5 60.5t40.5 55.5l147 84q1 3 1 9q0 11 -4.5 22t-15.5 24t-35.5 21t-58.5 8q-59 0 -89.5 -28t-44.5 -97z" />
    <glyph glyph-name="uni1EA0" unicode="&#x1ea0;" horiz-adv-x="642" 
d="M432 163h-243l-85 -163h-148l371 689h178l90 -689h-142zM244 279h182q-25 224 -29 303h-1q-46 -100 -152 -303zM320 -190h-141l29 140h142z" />
    <glyph glyph-name="uni1EA1" unicode="&#x1ea1;" horiz-adv-x="557" 
d="M511 340l-46 -213q-22 -100 -24 -127h-132q0 4 7 58q-17 -21 -31 -33t-47 -23.5t-78 -11.5q-71 0 -108 40.5t-37 92.5q0 51 20.5 88.5t57.5 58.5t75 31.5t87 16.5q23 2 116 5l5 24q16 86 -66 86q-23 0 -39 -5t-26 -16.5t-13 -17.5t-10 -21h-139q35 155 238 155
q102 0 156.5 -46t33.5 -142zM350 224l2 8q-45 0 -90 -5q-56 -9 -81 -28.5t-25 -52.5q0 -24 15.5 -38.5t47.5 -14.5q33 0 57.5 12t39 34t21.5 40.5t13 44.5zM267 -209h-141l29 140h142z" />
    <glyph glyph-name="uni1EA2" unicode="&#x1ea2;" horiz-adv-x="642" 
d="M432 163h-243l-85 -163h-148l371 689h178l90 -689h-142zM244 279h182q-25 224 -29 303h-1q-46 -100 -152 -303zM468 736h-115q2 2 11.5 8.5t14 9.5t13 10t13 12t9.5 12t7.5 13.5t2.5 13.5q0 23 -28 23q-31 0 -54 -15l-16 69q49 32 107 32q47 0 73.5 -24t26.5 -56
q0 -60 -65 -108z" />
    <glyph glyph-name="uni1EA3" unicode="&#x1ea3;" horiz-adv-x="557" 
d="M511 340l-46 -213q-22 -100 -24 -127h-132q0 4 7 58q-17 -21 -31 -33t-47 -23.5t-78 -11.5q-71 0 -108 40.5t-37 92.5q0 51 20.5 88.5t57.5 58.5t75 31.5t87 16.5q23 2 116 5l5 24q16 86 -66 86q-23 0 -39 -5t-26 -16.5t-13 -17.5t-10 -21h-139q35 155 238 155
q102 0 156.5 -46t33.5 -142zM350 224l2 8q-45 0 -90 -5q-56 -9 -81 -28.5t-25 -52.5q0 -24 15.5 -38.5t47.5 -14.5q33 0 57.5 12t39 34t21.5 40.5t13 44.5zM399 580h-115q2 2 11.5 8.5t14 9.5t13 10t13 12t9.5 12t7.5 13.5t2.5 13.5q0 23 -28 23q-31 0 -54 -15l-16 69
q49 32 107 32q47 0 73.5 -24t26.5 -56q0 -60 -65 -108z" />
    <glyph glyph-name="uni1EA4" unicode="&#x1ea4;" horiz-adv-x="642" 
d="M432 163h-243l-85 -163h-148l371 689h178l90 -689h-142zM244 279h182q-25 224 -29 303h-1q-46 -100 -152 -303zM377 857h134l95 -122h-125l-48 60l-71 -60h-135zM689 947h153l-158 -116h-114z" />
    <glyph glyph-name="uni1EA5" unicode="&#x1ea5;" horiz-adv-x="557" 
d="M511 340l-46 -213q-22 -100 -24 -127h-132q0 4 7 58q-17 -21 -31 -33t-47 -23.5t-78 -11.5q-71 0 -108 40.5t-37 92.5q0 51 20.5 88.5t57.5 58.5t75 31.5t87 16.5q23 2 116 5l5 24q16 86 -66 86q-23 0 -39 -5t-26 -16.5t-13 -17.5t-10 -21h-139q35 155 238 155
q102 0 156.5 -46t33.5 -142zM350 224l2 8q-45 0 -90 -5q-56 -9 -81 -28.5t-25 -52.5q0 -24 15.5 -38.5t47.5 -14.5q33 0 57.5 12t39 34t21.5 40.5t13 44.5zM299 706h125l81 -131h-117l-38 67l-65 -67h-122zM585 811h146l-150 -124h-108z" />
    <glyph glyph-name="uni1EA6" unicode="&#x1ea6;" horiz-adv-x="642" 
d="M432 163h-243l-85 -163h-148l371 689h178l90 -689h-142zM244 279h182q-25 224 -29 303h-1q-46 -100 -152 -303zM380 861h134l95 -122h-125l-48 60l-71 -60h-135zM508 959h145l90 -126h-103z" />
    <glyph glyph-name="uni1EA7" unicode="&#x1ea7;" horiz-adv-x="557" 
d="M511 340l-46 -213q-22 -100 -24 -127h-132q0 4 7 58q-17 -21 -31 -33t-47 -23.5t-78 -11.5q-71 0 -108 40.5t-37 92.5q0 51 20.5 88.5t57.5 58.5t75 31.5t87 16.5q23 2 116 5l5 24q16 86 -66 86q-23 0 -39 -5t-26 -16.5t-13 -17.5t-10 -21h-139q35 155 238 155
q102 0 156.5 -46t33.5 -142zM350 224l2 8q-45 0 -90 -5q-56 -9 -81 -28.5t-25 -52.5q0 -24 15.5 -38.5t47.5 -14.5q33 0 57.5 12t39 34t21.5 40.5t13 44.5zM299 706h125l81 -131h-119l-38 67l-65 -67h-120zM414 814h134l91 -146h-101z" />
    <glyph glyph-name="uni1EA8" unicode="&#x1ea8;" horiz-adv-x="642" 
d="M432 163h-243l-85 -163h-148l371 689h178l90 -689h-142zM244 279h182q-25 224 -29 303h-1q-46 -100 -152 -303zM377 857h134l96 -121h-126l-48 60l-71 -60h-135zM682 838h-106q65 43 65 72q0 20 -25 20q-26 0 -49 -13l-14 62q41 29 102 29q42 0 63.5 -21t21.5 -51
q0 -55 -58 -98z" />
    <glyph glyph-name="uni1EA9" unicode="&#x1ea9;" horiz-adv-x="557" 
d="M511 340l-46 -213q-22 -100 -24 -127h-132q0 4 7 58q-17 -21 -31 -33t-47 -23.5t-78 -11.5q-71 0 -108 40.5t-37 92.5q0 51 20.5 88.5t57.5 58.5t75 31.5t87 16.5q23 2 116 5l5 24q16 86 -66 86q-23 0 -39 -5t-26 -16.5t-13 -17.5t-10 -21h-139q35 155 238 155
q102 0 156.5 -46t33.5 -142zM350 224l2 8q-45 0 -90 -5q-56 -9 -81 -28.5t-25 -52.5q0 -24 15.5 -38.5t47.5 -14.5q33 0 57.5 12t39 34t21.5 40.5t13 44.5zM299 706h125l81 -131h-119l-38 67l-64 -67h-121zM581 672h-96q64 43 64 73q0 18 -24 18q-25 0 -50 -14l-9 62
q44 30 101 30q39 0 60 -19.5t21 -48.5q0 -60 -67 -101z" />
    <glyph glyph-name="uni1EAA" unicode="&#x1eaa;" horiz-adv-x="642" 
d="M432 163h-243l-85 -163h-148l371 689h178l90 -689h-142zM244 279h182q-25 224 -29 303h-1q-46 -100 -152 -303zM366 870h-85l3 16q11 53 36 74t67 21q37 0 85.5 -16t59.5 -16q24 0 29 24l1 6h82l-2 -13q-14 -97 -102 -97q-32 0 -79.5 15.5t-65.5 15.5q-22 0 -28 -25z
M365 836h152l87 -104h-126l-46 51l-64 -51h-135z" />
    <glyph glyph-name="uni1EAB" unicode="&#x1eab;" horiz-adv-x="557" 
d="M511 340l-46 -213q-22 -100 -24 -127h-132q0 4 7 58q-17 -21 -31 -33t-47 -23.5t-78 -11.5q-71 0 -108 40.5t-37 92.5q0 51 20.5 88.5t57.5 58.5t75 31.5t87 16.5q23 2 116 5l5 24q16 86 -66 86q-23 0 -39 -5t-26 -16.5t-13 -17.5t-10 -21h-139q35 155 238 155
q102 0 156.5 -46t33.5 -142zM350 224l2 8q-45 0 -90 -5q-56 -9 -81 -28.5t-25 -52.5q0 -24 15.5 -38.5t47.5 -14.5q33 0 57.5 12t39 34t21.5 40.5t13 44.5zM298 719h-78l3 26q13 86 98 86q32 0 73.5 -16t51.5 -16q20 0 25 24l1 6h76l-2 -16q-12 -95 -94 -95
q-26 0 -70.5 15.5t-57.5 15.5q-11 0 -16.5 -5.5t-8.5 -19.5zM299 681h124l93 -112h-120l-45 56l-65 -56h-125z" />
    <glyph glyph-name="uni1EAC" unicode="&#x1eac;" horiz-adv-x="642" 
d="M432 163h-243l-85 -163h-148l371 689h178l90 -689h-142zM244 279h182q-25 224 -29 303h-1q-46 -100 -152 -303zM329 -190h-141l29 140h142zM383 875h129l100 -137h-125l-51 70l-78 -70h-136z" />
    <glyph glyph-name="uni1EAD" unicode="&#x1ead;" horiz-adv-x="557" 
d="M511 340l-46 -213q-22 -100 -24 -127h-132q0 4 7 58q-17 -21 -31 -33t-47 -23.5t-78 -11.5q-71 0 -108 40.5t-37 92.5q0 51 20.5 88.5t57.5 58.5t75 31.5t87 16.5q23 2 116 5l5 24q16 86 -66 86q-23 0 -39 -5t-26 -16.5t-13 -17.5t-10 -21h-139q35 155 238 155
q102 0 156.5 -46t33.5 -142zM350 224l2 8q-45 0 -90 -5q-56 -9 -81 -28.5t-25 -52.5q0 -24 15.5 -38.5t47.5 -14.5q33 0 57.5 12t39 34t21.5 40.5t13 44.5zM257 -200h-141l29 140h142zM308 722h128l75 -140h-120l-34 73l-61 -73h-127z" />
    <glyph glyph-name="uni1EAE" unicode="&#x1eae;" horiz-adv-x="642" 
d="M432 163h-243l-85 -163h-148l371 689h178l90 -689h-142zM244 279h182q-25 224 -29 303h-1q-46 -100 -152 -303zM486 994h174l-165 -100h-120zM268 863h100q8 -44 59 -44q54 0 80 44h105q-52 -127 -196 -127q-42 0 -72.5 13t-46 33.5t-22.5 40.5t-7 40z" />
    <glyph glyph-name="uni1EAF" unicode="&#x1eaf;" horiz-adv-x="557" 
d="M511 340l-46 -213q-22 -100 -24 -127h-132q0 4 7 58q-17 -21 -31 -33t-47 -23.5t-78 -11.5q-71 0 -108 40.5t-37 92.5q0 51 20.5 88.5t57.5 58.5t75 31.5t87 16.5q23 2 116 5l5 24q16 86 -66 86q-23 0 -39 -5t-26 -16.5t-13 -17.5t-10 -21h-139q35 155 238 155
q102 0 156.5 -46t33.5 -142zM350 224l2 8q-45 0 -90 -5q-56 -9 -81 -28.5t-25 -52.5q0 -24 15.5 -38.5t47.5 -14.5q33 0 57.5 12t39 34t21.5 40.5t13 44.5zM420 832h149l-164 -110h-105zM198 697h95q0 -47 53 -47q21 0 36.5 7.5t22.5 16t16 23.5h94q-51 -131 -180 -131
q-71 0 -105 39.5t-32 91.5z" />
    <glyph glyph-name="uni1EB0" unicode="&#x1eb0;" horiz-adv-x="642" 
d="M432 163h-243l-85 -163h-148l371 689h178l90 -689h-142zM244 279h182q-25 224 -29 303h-1q-46 -100 -152 -303zM244 995h162l102 -101h-116zM268 863h100q8 -44 60 -44q53 0 79 44h105q-24 -59 -70 -93t-128 -34q-79 0 -112.5 41t-33.5 86z" />
    <glyph glyph-name="uni1EB1" unicode="&#x1eb1;" horiz-adv-x="557" 
d="M511 340l-46 -213q-22 -100 -24 -127h-132q0 4 7 58q-17 -21 -31 -33t-47 -23.5t-78 -11.5q-71 0 -108 40.5t-37 92.5q0 51 20.5 88.5t57.5 58.5t75 31.5t87 16.5q23 2 116 5l5 24q16 86 -66 86q-23 0 -39 -5t-26 -16.5t-13 -17.5t-10 -21h-139q35 155 238 155
q102 0 156.5 -46t33.5 -142zM350 224l2 8q-45 0 -90 -5q-56 -9 -81 -28.5t-25 -52.5q0 -24 15.5 -38.5t47.5 -14.5q33 0 57.5 12t39 34t21.5 40.5t13 44.5zM179 833h144l98 -110h-108zM198 697h95q0 -47 53 -47q50 0 75 47h94q-51 -131 -180 -131q-71 0 -105.5 39t-31.5 92z
" />
    <glyph glyph-name="uni1EB2" unicode="&#x1eb2;" horiz-adv-x="642" 
d="M432 163h-243l-85 -163h-148l371 689h178l90 -689h-142zM244 279h182q-25 224 -29 303h-1q-46 -100 -152 -303zM482 888h-106q18 12 28.5 19.5t23 23t12.5 29.5q0 20 -27 20q-30 0 -53 -13l2 66q35 25 88 25q42 0 66 -21.5t24 -50.5q0 -55 -58 -98zM268 862h101
q7 -44 58 -44q54 0 80 44h105q-52 -127 -198 -127q-42 0 -73 13.5t-45.5 35t-21 41t-6.5 37.5z" />
    <glyph glyph-name="uni1EB3" unicode="&#x1eb3;" horiz-adv-x="557" 
d="M511 340l-46 -213q-22 -100 -24 -127h-132q0 4 7 58q-17 -21 -31 -33t-47 -23.5t-78 -11.5q-71 0 -108 40.5t-37 92.5q0 51 20.5 88.5t57.5 58.5t75 31.5t87 16.5q23 2 116 5l5 24q16 86 -66 86q-23 0 -39 -5t-26 -16.5t-13 -17.5t-10 -21h-139q35 155 238 155
q102 0 156.5 -46t33.5 -142zM350 224l2 8q-45 0 -90 -5q-56 -9 -81 -28.5t-25 -52.5q0 -24 15.5 -38.5t47.5 -14.5q33 0 57.5 12t39 34t21.5 40.5t13 44.5zM405 718h-103q62 43 62 64q0 19 -25 19q-28 0 -49 -13l-13 62q39 29 97 29q42 0 64.5 -21.5t22.5 -50.5
q0 -53 -56 -89zM198 697h95q0 -47 53 -47q50 0 75 47h94q-51 -131 -180 -131q-71 0 -105.5 39t-31.5 92z" />
    <glyph glyph-name="uni1EB4" unicode="&#x1eb4;" horiz-adv-x="642" 
d="M432 163h-243l-85 -163h-148l371 689h178l90 -689h-142zM244 279h182q-25 224 -29 303h-1q-46 -100 -152 -303zM366 895h-81l4 21q10 52 35 71t65 19q31 0 79 -16t59 -16q23 0 29 24l1 6h79l-4 -21q-12 -50 -37 -69.5t-63 -19.5q-25 0 -73.5 15.5t-64.5 15.5
q-21 0 -27 -25zM277 852h93q10 -40 56 -40q51 0 78 40h97q-50 -118 -181 -118q-76 0 -110 36.5t-33 81.5z" />
    <glyph glyph-name="uni1EB5" unicode="&#x1eb5;" horiz-adv-x="557" 
d="M511 340l-46 -213q-22 -100 -24 -127h-132q0 4 7 58q-17 -21 -31 -33t-47 -23.5t-78 -11.5q-71 0 -108 40.5t-37 92.5q0 51 20.5 88.5t57.5 58.5t75 31.5t87 16.5q23 2 116 5l5 24q16 86 -66 86q-23 0 -39 -5t-26 -16.5t-13 -17.5t-10 -21h-139q35 155 238 155
q102 0 156.5 -46t33.5 -142zM350 224l2 8q-45 0 -90 -5q-56 -9 -81 -28.5t-25 -52.5q0 -24 15.5 -38.5t47.5 -14.5q33 0 57.5 12t39 34t21.5 40.5t13 44.5zM291 734h-74l3 21q10 51 34.5 70.5t61.5 19.5q27 0 67.5 -16t51.5 -16q24 0 29 24l1 6h72l-4 -21q-19 -89 -98 -89
q-23 0 -62.5 15.5t-52.5 15.5q-24 0 -28 -25zM209 691h88q3 -40 50 -40q46 0 69 40h89q-39 -123 -170 -123q-71 0 -100 36t-26 87z" />
    <glyph glyph-name="uni1EB6" unicode="&#x1eb6;" horiz-adv-x="642" 
d="M432 163h-243l-85 -163h-148l371 689h178l90 -689h-142zM244 279h182q-25 224 -29 303h-1q-46 -100 -152 -303zM321 -189h-141l29 140h142zM279 881h97q-1 -24 13.5 -39t43.5 -15q57 0 80 54h96q-23 -65 -65.5 -104.5t-123.5 -39.5q-80 0 -114 43t-27 101z" />
    <glyph glyph-name="uni1EB7" unicode="&#x1eb7;" horiz-adv-x="557" 
d="M511 340l-46 -213q-22 -100 -24 -127h-132q0 4 7 58q-17 -21 -31 -33t-47 -23.5t-78 -11.5q-71 0 -108 40.5t-37 92.5q0 51 20.5 88.5t57.5 58.5t75 31.5t87 16.5q23 2 116 5l5 24q16 86 -66 86q-23 0 -39 -5t-26 -16.5t-13 -17.5t-10 -21h-139q35 155 238 155
q102 0 156.5 -46t33.5 -142zM350 224l2 8q-45 0 -90 -5q-56 -9 -81 -28.5t-25 -52.5q0 -24 15.5 -38.5t47.5 -14.5q33 0 57.5 12t39 34t21.5 40.5t13 44.5zM214 719h94q-2 -52 49 -52q20 0 34.5 8.5t21 17.5t15.5 26h93q-47 -144 -178 -144q-74 0 -106 42t-23 102zM257 -201
h-141l29 140h142z" />
    <glyph glyph-name="uni1EB8" unicode="&#x1eb8;" horiz-adv-x="596" 
d="M561 417l-25 -116h-310l-39 -185h353l-41 -116h-475l146 689h463l-25 -115h-324l-33 -157h310zM317 -200h-141l29 140h142z" />
    <glyph glyph-name="uni1EB9" unicode="&#x1eb9;" horiz-adv-x="547" 
d="M505 228h-332q-4 -22 -4 -31q0 -102 82 -102q38 0 60 16.5t37 46.5h142q-63 -168 -250 -168q-101 0 -154 57.5t-53 154.5q0 43 9 86.5t30.5 87t52.5 77t80 54.5t108 21q107 0 156.5 -55.5t49.5 -143.5q0 -50 -14 -101zM191 319h196q2 9 2 23q0 84 -80 84q-89 0 -118 -107
zM268 -200h-141l29 140h142z" />
    <glyph glyph-name="uni1EBA" unicode="&#x1eba;" horiz-adv-x="596" 
d="M561 417l-25 -116h-310l-39 -185h353l-41 -116h-475l146 689h463l-25 -115h-324l-33 -157h310zM448 744h-115q2 2 11.5 8.5t14 9.5t13 10t13 12t9.5 12t7.5 13.5t2.5 13.5q0 23 -28 23q-31 0 -54 -15l-16 69q49 32 107 32q47 0 73.5 -24t26.5 -56q0 -60 -65 -108z" />
    <glyph glyph-name="uni1EBB" unicode="&#x1ebb;" horiz-adv-x="547" 
d="M505 228h-332q-4 -22 -4 -31q0 -102 82 -102q38 0 60 16.5t37 46.5h142q-63 -168 -250 -168q-101 0 -154 57.5t-53 154.5q0 43 9 86.5t30.5 87t52.5 77t80 54.5t108 21q107 0 156.5 -55.5t49.5 -143.5q0 -50 -14 -101zM191 319h196q2 9 2 23q0 84 -80 84q-89 0 -118 -107
zM386 580h-115q2 2 11.5 8.5t14 9.5t13 10t13 12t9.5 12t7.5 13.5t2.5 13.5q0 23 -28 23q-31 0 -54 -15l-16 69q49 32 107 32q47 0 73.5 -24t26.5 -56q0 -60 -65 -108z" />
    <glyph glyph-name="uni1EBC" unicode="&#x1ebc;" horiz-adv-x="596" 
d="M561 417l-25 -116h-310l-39 -185h353l-41 -116h-475l146 689h463l-25 -115h-324l-33 -157h310zM320 771h-89l6 32q9 58 36.5 81.5t72.5 23.5q32 0 82 -21t62 -21q13 0 20.5 7t10.5 27l1 8h88l-5 -30q-11 -63 -38 -86.5t-74 -23.5q-34 0 -82 20.5t-60 20.5q-25 0 -29 -24z
" />
    <glyph glyph-name="uni1EBD" unicode="&#x1ebd;" horiz-adv-x="547" 
d="M505 228h-332q-4 -22 -4 -31q0 -102 82 -102q38 0 60 16.5t37 46.5h142q-63 -168 -250 -168q-101 0 -154 57.5t-53 154.5q0 43 9 86.5t30.5 87t52.5 77t80 54.5t108 21q107 0 156.5 -55.5t49.5 -143.5q0 -50 -14 -101zM191 319h196q2 9 2 23q0 84 -80 84q-89 0 -118 -107
zM259 589h-88l7 39q11 58 36.5 79t67.5 21q32 0 74 -23t53 -23q24 0 32 38l2 9h87l-6 -31q-11 -64 -38.5 -87.5t-72.5 -23.5q-33 0 -72 22t-51 22q-22 0 -28 -27z" />
    <glyph glyph-name="uni1EBE" unicode="&#x1ebe;" horiz-adv-x="596" 
d="M561 417l-25 -116h-310l-39 -185h353l-41 -116h-475l146 689h463l-25 -115h-324l-33 -157h310zM365 871h134l95 -122h-125l-48 60l-71 -60h-135zM677 961h153l-158 -116h-114z" />
    <glyph glyph-name="uni1EBF" unicode="&#x1ebf;" horiz-adv-x="547" 
d="M505 228h-332q-4 -22 -4 -31q0 -102 82 -102q38 0 60 16.5t37 46.5h142q-63 -168 -250 -168q-101 0 -154 57.5t-53 154.5q0 43 9 86.5t30.5 87t52.5 77t80 54.5t108 21q107 0 156.5 -55.5t49.5 -143.5q0 -50 -14 -101zM191 319h196q2 9 2 23q0 84 -80 84q-89 0 -118 -107
zM295 713h125l81 -131h-117l-38 67l-65 -67h-122zM581 818h146l-150 -124h-108z" />
    <glyph glyph-name="uni1EC0" unicode="&#x1ec0;" horiz-adv-x="596" 
d="M561 417l-25 -116h-310l-39 -185h353l-41 -116h-475l146 689h463l-25 -115h-324l-33 -157h310zM364 872h134l95 -122h-125l-48 60l-71 -60h-135zM492 970h145l90 -126h-103z" />
    <glyph glyph-name="uni1EC1" unicode="&#x1ec1;" horiz-adv-x="547" 
d="M505 228h-332q-4 -22 -4 -31q0 -102 82 -102q38 0 60 16.5t37 46.5h142q-63 -168 -250 -168q-101 0 -154 57.5t-53 154.5q0 43 9 86.5t30.5 87t52.5 77t80 54.5t108 21q107 0 156.5 -55.5t49.5 -143.5q0 -50 -14 -101zM191 319h196q2 9 2 23q0 84 -80 84q-89 0 -118 -107
zM294 711h125l81 -131h-119l-38 67l-65 -67h-120zM409 819h134l91 -146h-101z" />
    <glyph glyph-name="uni1EC2" unicode="&#x1ec2;" horiz-adv-x="596" 
d="M561 417l-25 -116h-310l-39 -185h353l-41 -116h-475l146 689h463l-25 -115h-324l-33 -157h310zM364 868h134l96 -121h-126l-48 60l-71 -60h-135zM669 849h-106q65 43 65 72q0 20 -25 20q-26 0 -49 -13l-14 62q41 29 102 29q42 0 63.5 -21t21.5 -51q0 -55 -58 -98z" />
    <glyph glyph-name="uni1EC3" unicode="&#x1ec3;" horiz-adv-x="547" 
d="M505 228h-332q-4 -22 -4 -31q0 -102 82 -102q38 0 60 16.5t37 46.5h142q-63 -168 -250 -168q-101 0 -154 57.5t-53 154.5q0 43 9 86.5t30.5 87t52.5 77t80 54.5t108 21q107 0 156.5 -55.5t49.5 -143.5q0 -50 -14 -101zM191 319h196q2 9 2 23q0 84 -80 84q-89 0 -118 -107
zM294 709h125l81 -131h-119l-38 67l-64 -67h-121zM576 675h-96q64 43 64 73q0 18 -24 18q-25 0 -50 -14l-9 62q44 30 101 30q39 0 60 -19.5t21 -48.5q0 -60 -67 -101z" />
    <glyph glyph-name="uni1EC4" unicode="&#x1ec4;" horiz-adv-x="596" 
d="M561 417l-25 -116h-310l-39 -185h353l-41 -116h-475l146 689h463l-25 -115h-324l-33 -157h310zM352 886h-85l3 16q11 53 36 74t67 21q37 0 85.5 -16t59.5 -16q24 0 29 24l1 6h82l-2 -13q-14 -97 -102 -97q-32 0 -79.5 15.5t-65.5 15.5q-22 0 -28 -25zM351 852h152
l87 -104h-126l-46 51l-64 -51h-135z" />
    <glyph glyph-name="uni1EC5" unicode="&#x1ec5;" horiz-adv-x="547" 
d="M505 228h-332q-4 -22 -4 -31q0 -102 82 -102q38 0 60 16.5t37 46.5h142q-63 -168 -250 -168q-101 0 -154 57.5t-53 154.5q0 43 9 86.5t30.5 87t52.5 77t80 54.5t108 21q107 0 156.5 -55.5t49.5 -143.5q0 -50 -14 -101zM191 319h196q2 9 2 23q0 84 -80 84q-89 0 -118 -107
zM283 718h-78l3 26q13 86 98 86q32 0 73.5 -16t51.5 -16q20 0 25 24l1 6h76l-2 -16q-13 -95 -94 -95q-26 0 -70.5 15.5t-57.5 15.5q-11 0 -16.5 -5.5t-8.5 -19.5zM284 680h124l93 -112h-120l-45 56l-65 -56h-125z" />
    <glyph glyph-name="uni1EC6" unicode="&#x1ec6;" horiz-adv-x="596" 
d="M561 417l-25 -116h-310l-39 -185h353l-41 -116h-475l146 689h463l-25 -115h-324l-33 -157h310zM299 -200h-141l29 140h142zM368 886h129l100 -137h-125l-51 70l-78 -70h-136z" />
    <glyph glyph-name="uni1EC7" unicode="&#x1ec7;" horiz-adv-x="547" 
d="M505 228h-332q-4 -22 -4 -31q0 -102 82 -102q38 0 60 16.5t37 46.5h142q-63 -168 -250 -168q-101 0 -154 57.5t-53 154.5q0 43 9 86.5t30.5 87t52.5 77t80 54.5t108 21q107 0 156.5 -55.5t49.5 -143.5q0 -50 -14 -101zM191 319h196q2 9 2 23q0 84 -80 84q-89 0 -118 -107
zM271 -200h-141l29 140h142zM302 722h128l75 -140h-120l-34 73l-61 -73h-127z" />
    <glyph glyph-name="uni1EC8" unicode="&#x1ec8;" horiz-adv-x="298" 
d="M170 689h141l-146 -689h-141zM301 741h-115q2 2 11.5 8.5t14 9.5t13 10t13 12t9.5 12t7.5 13.5t2.5 13.5q0 23 -28 23q-31 0 -54 -15l-16 69q49 32 107 32q47 0 73.5 -24t26.5 -56q0 -60 -65 -108z" />
    <glyph glyph-name="uni1EC9" unicode="&#x1ec9;" horiz-adv-x="265" 
d="M11 0l110 518h136l-110 -518h-136zM254 580h-115q2 2 11.5 8.5t14 9.5t13 10t13 12t9.5 12t7.5 13.5t2.5 13.5q0 23 -28 23q-31 0 -54 -15l-16 69q49 32 107 32q47 0 73.5 -24t26.5 -56q0 -60 -65 -108z" />
    <glyph glyph-name="uni1ECA" unicode="&#x1eca;" horiz-adv-x="298" 
d="M170 689h141l-146 -689h-141zM124 -200h-141l29 140h142z" />
    <glyph glyph-name="uni1ECB" unicode="&#x1ecb;" horiz-adv-x="265" 
d="M11 0l110 518h136l-110 -518h-136zM138 602l27 128h136l-27 -128h-136zM109 -201h-141l29 140h142z" />
    <glyph glyph-name="uni1ECC" unicode="&#x1ecc;" horiz-adv-x="739" 
d="M431 699q136 0 206.5 -79.5t70.5 -207.5q0 -65 -14 -125.5t-44.5 -114.5t-74.5 -94.5t-107.5 -64t-139.5 -23.5q-132 0 -202 77.5t-70 200.5q0 62 14.5 123.5t45.5 117t74.5 98t105.5 67.5t135 25zM422 587q-69 0 -121 -49t-75.5 -119t-23.5 -146q0 -80 36.5 -125
t107.5 -45q73 0 124.5 49t72.5 117t21 145q0 80 -34.5 126.5t-107.5 46.5zM349 -200h-141l29 140h142z" />
    <glyph glyph-name="uni1ECD" unicode="&#x1ecd;" horiz-adv-x="567" 
d="M319 528q97 0 156 -56.5t59 -166.5q0 -50 -15.5 -101t-47 -101t-91 -81.5t-137.5 -31.5q-104 0 -157 58t-53 156q0 43 10.5 87t33.5 87t55.5 76t81 53.5t105.5 20.5zM308 422q-44 0 -76 -38t-45 -86t-13 -95q0 -107 83 -107q46 0 78 38.5t45 87t13 97.5q0 103 -85 103z
M263 -209h-141l29 140h142z" />
    <glyph glyph-name="uni1ECE" unicode="&#x1ece;" horiz-adv-x="739" 
d="M431 699q136 0 206.5 -79.5t70.5 -207.5q0 -65 -14 -125.5t-44.5 -114.5t-74.5 -94.5t-107.5 -64t-139.5 -23.5q-132 0 -202 77.5t-70 200.5q0 62 14.5 123.5t45.5 117t74.5 98t105.5 67.5t135 25zM422 587q-69 0 -121 -49t-75.5 -119t-23.5 -146q0 -80 36.5 -125
t107.5 -45q73 0 124.5 49t72.5 117t21 145q0 80 -34.5 126.5t-107.5 46.5zM501 742h-115q2 2 11.5 8.5t14 9.5t13 10t13 12t9.5 12t7.5 13.5t2.5 13.5q0 23 -28 23q-31 0 -54 -15l-16 69q49 32 107 32q47 0 73.5 -24t26.5 -56q0 -60 -65 -108z" />
    <glyph glyph-name="uni1ECF" unicode="&#x1ecf;" horiz-adv-x="567" 
d="M319 528q97 0 156 -56.5t59 -166.5q0 -50 -15.5 -101t-47 -101t-91 -81.5t-137.5 -31.5q-104 0 -157 58t-53 156q0 43 10.5 87t33.5 87t55.5 76t81 53.5t105.5 20.5zM308 422q-44 0 -76 -38t-45 -86t-13 -95q0 -107 83 -107q46 0 78 38.5t45 87t13 97.5q0 103 -85 103z
M395 580h-115q2 2 11.5 8.5t14 9.5t13 10t13 12t9.5 12t7.5 13.5t2.5 13.5q0 23 -28 23q-31 0 -54 -15l-16 69q49 32 107 32q47 0 73.5 -24t26.5 -56q0 -60 -65 -108z" />
    <glyph glyph-name="uni1ED0" unicode="&#x1ed0;" horiz-adv-x="739" 
d="M431 699q136 0 206.5 -79.5t70.5 -207.5q0 -65 -14 -125.5t-44.5 -114.5t-74.5 -94.5t-107.5 -64t-139.5 -23.5q-132 0 -202 77.5t-70 200.5q0 62 14.5 123.5t45.5 117t74.5 98t105.5 67.5t135 25zM422 587q-69 0 -121 -49t-75.5 -119t-23.5 -146q0 -80 36.5 -125
t107.5 -45q73 0 124.5 49t72.5 117t21 145q0 80 -34.5 126.5t-107.5 46.5zM402 871h134l95 -122h-125l-48 60l-71 -60h-135zM714 961h153l-158 -116h-114z" />
    <glyph glyph-name="uni1ED1" unicode="&#x1ed1;" horiz-adv-x="567" 
d="M319 528q97 0 156 -56.5t59 -166.5q0 -50 -15.5 -101t-47 -101t-91 -81.5t-137.5 -31.5q-104 0 -157 58t-53 156q0 43 10.5 87t33.5 87t55.5 76t81 53.5t105.5 20.5zM308 422q-44 0 -76 -38t-45 -86t-13 -95q0 -107 83 -107q46 0 78 38.5t45 87t13 97.5q0 103 -85 103z
M304 706h125l81 -131h-117l-38 67l-65 -67h-122zM590 811h146l-150 -124h-108z" />
    <glyph glyph-name="uni1ED2" unicode="&#x1ed2;" horiz-adv-x="739" 
d="M431 699q136 0 206.5 -79.5t70.5 -207.5q0 -65 -14 -125.5t-44.5 -114.5t-74.5 -94.5t-107.5 -64t-139.5 -23.5q-132 0 -202 77.5t-70 200.5q0 62 14.5 123.5t45.5 117t74.5 98t105.5 67.5t135 25zM422 587q-69 0 -121 -49t-75.5 -119t-23.5 -146q0 -80 36.5 -125
t107.5 -45q73 0 124.5 49t72.5 117t21 145q0 80 -34.5 126.5t-107.5 46.5zM401 869h134l95 -122h-125l-48 60l-71 -60h-135zM529 967h145l90 -126h-103z" />
    <glyph glyph-name="uni1ED3" unicode="&#x1ed3;" horiz-adv-x="567" 
d="M319 528q97 0 156 -56.5t59 -166.5q0 -50 -15.5 -101t-47 -101t-91 -81.5t-137.5 -31.5q-104 0 -157 58t-53 156q0 43 10.5 87t33.5 87t55.5 76t81 53.5t105.5 20.5zM308 422q-44 0 -76 -38t-45 -86t-13 -95q0 -107 83 -107q46 0 78 38.5t45 87t13 97.5q0 103 -85 103z
M304 706h125l81 -131h-119l-38 67l-65 -67h-120zM419 814h134l91 -146h-101z" />
    <glyph glyph-name="uni1ED4" unicode="&#x1ed4;" horiz-adv-x="739" 
d="M431 699q136 0 206.5 -79.5t70.5 -207.5q0 -65 -14 -125.5t-44.5 -114.5t-74.5 -94.5t-107.5 -64t-139.5 -23.5q-132 0 -202 77.5t-70 200.5q0 62 14.5 123.5t45.5 117t74.5 98t105.5 67.5t135 25zM422 587q-69 0 -121 -49t-75.5 -119t-23.5 -146q0 -80 36.5 -125
t107.5 -45q73 0 124.5 49t72.5 117t21 145q0 80 -34.5 126.5t-107.5 46.5zM404 867h134l96 -121h-126l-48 60l-71 -60h-135zM709 848h-106q65 43 65 72q0 20 -25 20q-26 0 -49 -13l-14 62q41 29 102 29q42 0 63.5 -21t21.5 -51q0 -55 -58 -98z" />
    <glyph glyph-name="uni1ED5" unicode="&#x1ed5;" horiz-adv-x="567" 
d="M319 528q97 0 156 -56.5t59 -166.5q0 -50 -15.5 -101t-47 -101t-91 -81.5t-137.5 -31.5q-104 0 -157 58t-53 156q0 43 10.5 87t33.5 87t55.5 76t81 53.5t105.5 20.5zM308 422q-44 0 -76 -38t-45 -86t-13 -95q0 -107 83 -107q46 0 78 38.5t45 87t13 97.5q0 103 -85 103z
M304 706h125l81 -131h-119l-38 67l-64 -67h-121zM586 672h-96q64 43 64 73q0 18 -24 18q-25 0 -50 -14l-9 62q44 30 101 30q39 0 60 -19.5t21 -48.5q0 -60 -67 -101z" />
    <glyph glyph-name="uni1ED6" unicode="&#x1ed6;" horiz-adv-x="739" 
d="M431 699q136 0 206.5 -79.5t70.5 -207.5q0 -65 -14 -125.5t-44.5 -114.5t-74.5 -94.5t-107.5 -64t-139.5 -23.5q-132 0 -202 77.5t-70 200.5q0 62 14.5 123.5t45.5 117t74.5 98t105.5 67.5t135 25zM422 587q-69 0 -121 -49t-75.5 -119t-23.5 -146q0 -80 36.5 -125
t107.5 -45q73 0 124.5 49t72.5 117t21 145q0 80 -34.5 126.5t-107.5 46.5zM394 886h-85l3 16q11 53 36 74t67 21q37 0 85.5 -16t59.5 -16q24 0 29 24l1 6h82l-2 -13q-14 -97 -102 -97q-32 0 -79.5 15.5t-65.5 15.5q-22 0 -28 -25zM393 852h152l87 -104h-126l-46 51l-64 -51
h-135z" />
    <glyph glyph-name="uni1ED7" unicode="&#x1ed7;" horiz-adv-x="567" 
d="M319 528q97 0 156 -56.5t59 -166.5q0 -50 -15.5 -101t-47 -101t-91 -81.5t-137.5 -31.5q-104 0 -157 58t-53 156q0 43 10.5 87t33.5 87t55.5 76t81 53.5t105.5 20.5zM308 422q-44 0 -76 -38t-45 -86t-13 -95q0 -107 83 -107q46 0 78 38.5t45 87t13 97.5q0 103 -85 103z
M293 718h-78l3 26q13 86 98 86q32 0 73.5 -16t51.5 -16q20 0 25 24l1 6h76l-2 -16q-13 -95 -94 -95q-26 0 -70.5 15.5t-57.5 15.5q-11 0 -16.5 -5.5t-8.5 -19.5zM294 680h124l93 -112h-120l-45 56l-65 -56h-125z" />
    <glyph glyph-name="uni1ED8" unicode="&#x1ed8;" horiz-adv-x="739" 
d="M431 699q136 0 206.5 -79.5t70.5 -207.5q0 -65 -14 -125.5t-44.5 -114.5t-74.5 -94.5t-107.5 -64t-139.5 -23.5q-132 0 -202 77.5t-70 200.5q0 62 14.5 123.5t45.5 117t74.5 98t105.5 67.5t135 25zM422 587q-69 0 -121 -49t-75.5 -119t-23.5 -146q0 -80 36.5 -125
t107.5 -45q73 0 124.5 49t72.5 117t21 145q0 80 -34.5 126.5t-107.5 46.5zM349 -200h-141l29 140h142zM420 885h129l100 -137h-125l-51 70l-78 -70h-136z" />
    <glyph glyph-name="uni1ED9" unicode="&#x1ed9;" horiz-adv-x="567" 
d="M319 528q97 0 156 -56.5t59 -166.5q0 -50 -15.5 -101t-47 -101t-91 -81.5t-137.5 -31.5q-104 0 -157 58t-53 156q0 43 10.5 87t33.5 87t55.5 76t81 53.5t105.5 20.5zM308 422q-44 0 -76 -38t-45 -86t-13 -95q0 -107 83 -107q46 0 78 38.5t45 87t13 97.5q0 103 -85 103z
M267 -200h-141l29 140h142zM313 726h128l75 -140h-120l-34 73l-61 -73h-127z" />
    <glyph glyph-name="uni1EDA" unicode="&#x1eda;" horiz-adv-x="739" 
d="M431 699q116 0 188 -61q48 10 48 73q0 21 -3 37h123q2 -14 2 -26q0 -133 -109 -168q28 -62 28 -142q0 -65 -14 -125.5t-44.5 -114.5t-74.5 -94.5t-107.5 -64t-139.5 -23.5q-132 0 -202 77.5t-70 200.5q0 62 14.5 123.5t45.5 117t74.5 98t105.5 67.5t135 25zM422 587
q-69 0 -121 -49t-75.5 -119t-23.5 -146q0 -80 36.5 -125t107.5 -45q73 0 124.5 49t72.5 117t21 145q0 80 -34.5 126.5t-107.5 46.5zM544 897h191l-228 -139h-139z" />
    <glyph glyph-name="uni1EDB" unicode="&#x1edb;" horiz-adv-x="567" 
d="M319 528q90 0 146 -47q45 13 45 73q0 20 -3 37h123q2 -14 2 -26q0 -134 -111 -169q13 -42 13 -91q0 -50 -15.5 -101t-47 -101t-91 -81.5t-137.5 -31.5q-104 0 -157 58t-53 156q0 43 10.5 87t33.5 87t55.5 76t81 53.5t105.5 20.5zM308 422q-44 0 -76 -38t-45 -86t-13 -95
q0 -107 83 -107q46 0 78 38.5t45 87t13 97.5q0 103 -85 103zM424 736h177l-206 -144h-132z" />
    <glyph glyph-name="uni1EDC" unicode="&#x1edc;" horiz-adv-x="739" 
d="M431 699q116 0 188 -61q48 10 48 73q0 21 -3 37h123q2 -14 2 -26q0 -133 -109 -168q28 -62 28 -142q0 -65 -14 -125.5t-44.5 -114.5t-74.5 -94.5t-107.5 -64t-139.5 -23.5q-132 0 -202 77.5t-70 200.5q0 62 14.5 123.5t45.5 117t74.5 98t105.5 67.5t135 25zM422 587
q-69 0 -121 -49t-75.5 -119t-23.5 -146q0 -80 36.5 -125t107.5 -45q73 0 124.5 49t72.5 117t21 145q0 80 -34.5 126.5t-107.5 46.5zM225 887h173l143 -139h-133z" />
    <glyph glyph-name="uni1EDD" unicode="&#x1edd;" horiz-adv-x="567" 
d="M319 528q90 0 146 -47q45 13 45 73q0 20 -3 37h123q2 -14 2 -26q0 -134 -111 -169q13 -42 13 -91q0 -50 -15.5 -101t-47 -101t-91 -81.5t-137.5 -31.5q-104 0 -157 58t-53 156q0 43 10.5 87t33.5 87t55.5 76t81 53.5t105.5 20.5zM308 422q-44 0 -76 -38t-45 -86t-13 -95
q0 -107 83 -107q46 0 78 38.5t45 87t13 97.5q0 103 -85 103zM165 736h155l98 -144h-117z" />
    <glyph glyph-name="uni1EDE" unicode="&#x1ede;" horiz-adv-x="739" 
d="M431 699q116 0 188 -61q48 10 48 73q0 21 -3 37h123q2 -14 2 -26q0 -133 -109 -168q28 -62 28 -142q0 -65 -14 -125.5t-44.5 -114.5t-74.5 -94.5t-107.5 -64t-139.5 -23.5q-132 0 -202 77.5t-70 200.5q0 62 14.5 123.5t45.5 117t74.5 98t105.5 67.5t135 25zM422 587
q-69 0 -121 -49t-75.5 -119t-23.5 -146q0 -80 36.5 -125t107.5 -45q73 0 124.5 49t72.5 117t21 145q0 80 -34.5 126.5t-107.5 46.5zM505 744h-115q2 2 11.5 8.5t14 9.5t13 10t13 12t9.5 12t7.5 13.5t2.5 13.5q0 23 -28 23q-31 0 -54 -15l-16 69q49 32 107 32q47 0 73.5 -24
t26.5 -56q0 -60 -65 -108z" />
    <glyph glyph-name="uni1EDF" unicode="&#x1edf;" horiz-adv-x="567" 
d="M319 528q90 0 146 -47q45 13 45 73q0 20 -3 37h123q2 -14 2 -26q0 -134 -111 -169q13 -42 13 -91q0 -50 -15.5 -101t-47 -101t-91 -81.5t-137.5 -31.5q-104 0 -157 58t-53 156q0 43 10.5 87t33.5 87t55.5 76t81 53.5t105.5 20.5zM308 422q-44 0 -76 -38t-45 -86t-13 -95
q0 -107 83 -107q46 0 78 38.5t45 87t13 97.5q0 103 -85 103zM395 580h-115q2 2 11.5 8.5t14 9.5t13 10t13 12t9.5 12t7.5 13.5t2.5 13.5q0 23 -28 23q-31 0 -54 -15l-16 69q49 32 107 32q47 0 73.5 -24t26.5 -56q0 -60 -65 -108z" />
    <glyph glyph-name="uni1EE0" unicode="&#x1ee0;" horiz-adv-x="739" 
d="M431 699q116 0 188 -61q48 10 48 73q0 21 -3 37h123q2 -14 2 -26q0 -133 -109 -168q28 -62 28 -142q0 -65 -14 -125.5t-44.5 -114.5t-74.5 -94.5t-107.5 -64t-139.5 -23.5q-132 0 -202 77.5t-70 200.5q0 62 14.5 123.5t45.5 117t74.5 98t105.5 67.5t135 25zM422 587
q-69 0 -121 -49t-75.5 -119t-23.5 -146q0 -80 36.5 -125t107.5 -45q73 0 124.5 49t72.5 117t21 145q0 80 -34.5 126.5t-107.5 46.5zM370 752h-89l6 32q9 58 36.5 81.5t72.5 23.5q32 0 82 -21t62 -21q13 0 20.5 7t10.5 27l1 8h88l-5 -30q-11 -63 -38 -86.5t-74 -23.5
q-34 0 -82 20.5t-60 20.5q-25 0 -29 -24z" />
    <glyph glyph-name="uni1EE1" unicode="&#x1ee1;" horiz-adv-x="567" 
d="M319 528q90 0 146 -47q45 13 45 73q0 20 -3 37h123q2 -14 2 -26q0 -134 -111 -169q13 -42 13 -91q0 -50 -15.5 -101t-47 -101t-91 -81.5t-137.5 -31.5q-104 0 -157 58t-53 156q0 43 10.5 87t33.5 87t55.5 76t81 53.5t105.5 20.5zM308 422q-44 0 -76 -38t-45 -86t-13 -95
q0 -107 83 -107q46 0 78 38.5t45 87t13 97.5q0 103 -85 103zM270 589h-88l7 39q11 58 36.5 79t67.5 21q33 0 74 -23t53 -23q24 0 32 38l2 9h87l-6 -31q-11 -64 -38.5 -87.5t-72.5 -23.5q-32 0 -72 22t-51 22q-22 0 -28 -27z" />
    <glyph glyph-name="uni1EE2" unicode="&#x1ee2;" horiz-adv-x="739" 
d="M431 699q116 0 188 -61q48 10 48 73q0 21 -3 37h123q2 -14 2 -26q0 -133 -109 -168q28 -62 28 -142q0 -65 -14 -125.5t-44.5 -114.5t-74.5 -94.5t-107.5 -64t-139.5 -23.5q-132 0 -202 77.5t-70 200.5q0 62 14.5 123.5t45.5 117t74.5 98t105.5 67.5t135 25zM422 587
q-69 0 -121 -49t-75.5 -119t-23.5 -146q0 -80 36.5 -125t107.5 -45q73 0 124.5 49t72.5 117t21 145q0 80 -34.5 126.5t-107.5 46.5zM349 -209h-141l29 140h142z" />
    <glyph glyph-name="uni1EE3" unicode="&#x1ee3;" horiz-adv-x="567" 
d="M319 528q90 0 146 -47q45 13 45 73q0 20 -3 37h123q2 -14 2 -26q0 -134 -111 -169q13 -42 13 -91q0 -50 -15.5 -101t-47 -101t-91 -81.5t-137.5 -31.5q-104 0 -157 58t-53 156q0 43 10.5 87t33.5 87t55.5 76t81 53.5t105.5 20.5zM308 422q-44 0 -76 -38t-45 -86t-13 -95
q0 -107 83 -107q46 0 78 38.5t45 87t13 97.5q0 103 -85 103zM267 -200h-141l29 140h142z" />
    <glyph glyph-name="uni1EE4" unicode="&#x1ee4;" horiz-adv-x="692" 
d="M160 689h141l-91 -425q-18 -82 12 -122.5t99 -40.5q70 0 103.5 34.5t51.5 117.5l92 436h142l-96 -447q-29 -131 -98 -191.5t-208 -60.5q-63 0 -111.5 15t-84.5 48.5t-45.5 87.5t4.5 132zM343 -208h-141l29 140h142z" />
    <glyph glyph-name="uni1EE5" unicode="&#x1ee5;" horiz-adv-x="571" 
d="M562 518l-80 -380q-16 -72 -27 -138h-133q3 41 11 72q-56 -82 -164 -82q-74 0 -109 48t-17 135l73 345h135l-70 -327q-9 -44 2.5 -66.5t52.5 -22.5q47 0 82.5 39.5t52.5 122.5l55 254h136zM264 -209h-141l29 140h142z" />
    <glyph glyph-name="uni1EE6" unicode="&#x1ee6;" horiz-adv-x="692" 
d="M160 689h141l-91 -425q-18 -82 12 -122.5t99 -40.5q70 0 103.5 34.5t51.5 117.5l92 436h142l-96 -447q-29 -131 -98 -191.5t-208 -60.5q-63 0 -111.5 15t-84.5 48.5t-45.5 87.5t4.5 132zM478 731h-115q2 2 11.5 8.5t14 9.5t13 10t13 12t9.5 12t7.5 13.5t2.5 13.5
q0 23 -28 23q-31 0 -54 -15l-16 69q49 32 107 32q47 0 73.5 -24t26.5 -56q0 -60 -65 -108z" />
    <glyph glyph-name="uni1EE7" unicode="&#x1ee7;" horiz-adv-x="571" 
d="M562 518l-80 -380q-16 -72 -27 -138h-133q3 41 11 72q-56 -82 -164 -82q-74 0 -109 48t-17 135l73 345h135l-70 -327q-9 -44 2.5 -66.5t52.5 -22.5q47 0 82.5 39.5t52.5 122.5l55 254h136zM397 580h-115q2 2 11.5 8.5t14 9.5t13 10t13 12t9.5 12t7.5 13.5t2.5 13.5
q0 23 -28 23q-31 0 -54 -15l-16 69q49 32 107 32q47 0 73.5 -24t26.5 -56q0 -60 -65 -108z" />
    <glyph glyph-name="uni1EE8" unicode="&#x1ee8;" horiz-adv-x="692" 
d="M160 689h141l-91 -425q-18 -82 12 -122.5t99 -40.5q70 0 103.5 34.5t51.5 117.5l92 436h44q34 4 49 21t15 55q0 21 -3 37h123q2 -14 2 -26q0 -130 -105 -167l-79 -367q-29 -131 -98 -191.5t-208 -60.5q-63 0 -111.5 15t-84.5 48.5t-45.5 87.5t4.5 132zM519 886h191
l-228 -139h-139z" />
    <glyph glyph-name="uni1EE9" unicode="&#x1ee9;" horiz-adv-x="571" 
d="M333 72q-56 -82 -164 -82q-74 0 -109 48t-17 135l73 345h135l-70 -327q-9 -44 2.5 -66.5t52.5 -22.5q47 0 82.5 39.5t52.5 122.5l55 254h49q30 5 43.5 22t13.5 53q0 21 -3 37h123q2 -14 2 -26q0 -133 -109 -168l-63 -298q-16 -72 -27 -138h-133q3 41 11 72zM426 736h177
l-206 -144h-132z" />
    <glyph glyph-name="uni1EEA" unicode="&#x1eea;" horiz-adv-x="692" 
d="M160 689h141l-91 -425q-18 -82 12 -122.5t99 -40.5q70 0 103.5 34.5t51.5 117.5l92 436h44q34 4 49 21t15 55q0 21 -3 37h123q2 -14 2 -26q0 -130 -105 -167l-79 -367q-29 -131 -98 -191.5t-208 -60.5q-63 0 -111.5 15t-84.5 48.5t-45.5 87.5t4.5 132zM208 886h173
l143 -139h-133z" />
    <glyph glyph-name="uni1EEB" unicode="&#x1eeb;" horiz-adv-x="571" 
d="M333 72q-56 -82 -164 -82q-74 0 -109 48t-17 135l73 345h135l-70 -327q-9 -44 2.5 -66.5t52.5 -22.5q47 0 82.5 39.5t52.5 122.5l55 254h49q30 5 43.5 22t13.5 53q0 21 -3 37h123q2 -14 2 -26q0 -133 -109 -168l-63 -298q-16 -72 -27 -138h-133q3 41 11 72zM163 736h155
l98 -144h-117z" />
    <glyph glyph-name="uni1EEC" unicode="&#x1eec;" horiz-adv-x="692" 
d="M160 689h141l-91 -425q-18 -82 12 -122.5t99 -40.5q70 0 103.5 34.5t51.5 117.5l92 436h44q34 4 49 21t15 55q0 21 -3 37h123q2 -14 2 -26q0 -130 -105 -167l-79 -367q-29 -131 -98 -191.5t-208 -60.5q-63 0 -111.5 15t-84.5 48.5t-45.5 87.5t4.5 132zM477 724h-115
q2 2 11.5 8.5t14 9.5t13 10t13 12t9.5 12t7.5 13.5t2.5 13.5q0 23 -28 23q-31 0 -54 -15l-16 69q49 32 107 32q47 0 73.5 -24t26.5 -56q0 -60 -65 -108z" />
    <glyph glyph-name="uni1EED" unicode="&#x1eed;" horiz-adv-x="571" 
d="M333 72q-56 -82 -164 -82q-74 0 -109 48t-17 135l73 345h135l-70 -327q-9 -44 2.5 -66.5t52.5 -22.5q47 0 82.5 39.5t52.5 122.5l55 254h49q30 5 43.5 22t13.5 53q0 21 -3 37h123q2 -14 2 -26q0 -133 -109 -168l-63 -298q-16 -72 -27 -138h-133q3 41 11 72zM390 580h-115
q2 2 11.5 8.5t14 9.5t13 10t13 12t9.5 12t7.5 13.5t2.5 13.5q0 23 -28 23q-31 0 -54 -15l-16 69q49 32 107 32q47 0 73.5 -24t26.5 -56q0 -60 -65 -108z" />
    <glyph glyph-name="uni1EEE" unicode="&#x1eee;" horiz-adv-x="692" 
d="M160 689h141l-91 -425q-18 -82 12 -122.5t99 -40.5q70 0 103.5 34.5t51.5 117.5l92 436h44q34 4 49 21t15 55q0 21 -3 37h123q2 -14 2 -26q0 -130 -105 -167l-79 -367q-29 -131 -98 -191.5t-208 -60.5q-63 0 -111.5 15t-84.5 48.5t-45.5 87.5t4.5 132zM353 751h-89l6 32
q9 58 36.5 81.5t72.5 23.5q32 0 82 -21t62 -21q13 0 20.5 7t10.5 27l1 8h88l-5 -30q-11 -63 -38 -86.5t-74 -23.5q-34 0 -82 20.5t-60 20.5q-25 0 -29 -24z" />
    <glyph glyph-name="uni1EEF" unicode="&#x1eef;" horiz-adv-x="571" 
d="M333 72q-56 -82 -164 -82q-74 0 -109 48t-17 135l73 345h135l-70 -327q-9 -44 2.5 -66.5t52.5 -22.5q47 0 82.5 39.5t52.5 122.5l55 254h49q30 5 43.5 22t13.5 53q0 21 -3 37h123q2 -14 2 -26q0 -133 -109 -168l-63 -298q-16 -72 -27 -138h-133q3 41 11 72zM273 589h-88
l7 39q11 58 36.5 79t67.5 21q32 0 74 -23t53 -23q24 0 32 38l2 9h87l-6 -31q-11 -64 -38.5 -87.5t-72.5 -23.5q-33 0 -72 22t-51 22q-22 0 -28 -27z" />
    <glyph glyph-name="uni1EF0" unicode="&#x1ef0;" horiz-adv-x="692" 
d="M160 689h141l-91 -425q-18 -82 12 -122.5t99 -40.5q70 0 103.5 34.5t51.5 117.5l92 436h44q34 4 49 21t15 55q0 21 -3 37h123q2 -14 2 -26q0 -130 -105 -167l-79 -367q-29 -131 -98 -191.5t-208 -60.5q-63 0 -111.5 15t-84.5 48.5t-45.5 87.5t4.5 132zM334 -208h-141
l29 140h142z" />
    <glyph glyph-name="uni1EF1" unicode="&#x1ef1;" horiz-adv-x="571" 
d="M333 72q-56 -82 -164 -82q-74 0 -109 48t-17 135l73 345h135l-70 -327q-9 -44 2.5 -66.5t52.5 -22.5q47 0 82.5 39.5t52.5 122.5l55 254h49q30 5 43.5 22t13.5 53q0 21 -3 37h123q2 -14 2 -26q0 -133 -109 -168l-63 -298q-16 -72 -27 -138h-133q3 41 11 72zM265 -200
h-141l29 140h142z" />
    <glyph glyph-name="Ygrave" unicode="&#x1ef2;" horiz-adv-x="577" 
d="M291 0h-141l52 250q3 12 -1 23l-144 416h146q7 -25 45.5 -151.5t47.5 -170.5q20 32 60 88t94 129t77 105h151l-326 -424q-8 -12 -10 -22zM127 877h173l143 -139h-133z" />
    <glyph glyph-name="ygrave" unicode="&#x1ef3;" horiz-adv-x="506" 
d="M48 518h136q27 -318 29 -407h1q115 252 191 407h142l-282 -541q-32 -62 -60 -99.5t-59 -56t-59.5 -24t-73.5 -5.5q-34 0 -69 7l25 112q18 -4 45 -4q43 0 64 15t38 48zM116 729h155l98 -144h-117z" />
    <glyph glyph-name="uni1EF4" unicode="&#x1ef4;" horiz-adv-x="577" 
d="M291 0h-141l52 250q3 12 -1 23l-144 416h146q7 -25 45.5 -151.5t47.5 -170.5q20 32 60 88t94 129t77 105h151l-326 -424q-8 -12 -10 -22zM253 -200h-141l29 140h142z" />
    <glyph glyph-name="uni1EF5" unicode="&#x1ef5;" horiz-adv-x="506" 
d="M48 518h136q27 -318 29 -407h1q115 252 191 407h142l-282 -541q-32 -62 -60 -99.5t-59 -56t-59.5 -24t-73.5 -5.5q-34 0 -69 7l25 112q18 -4 45 -4q43 0 64 15t38 48zM415 -202h-141l29 140h142z" />
    <glyph glyph-name="uni1EF6" unicode="&#x1ef6;" horiz-adv-x="577" 
d="M291 0h-141l52 250q3 12 -1 23l-144 416h146q7 -25 45.5 -151.5t47.5 -170.5q20 32 60 88t94 129t77 105h151l-326 -424q-8 -12 -10 -22zM409 732h-115q2 2 11.5 8.5t14 9.5t13 10t13 12t9.5 12t7.5 13.5t2.5 13.5q0 23 -28 23q-31 0 -54 -15l-16 69q49 32 107 32
q47 0 73.5 -24t26.5 -56q0 -60 -65 -108z" />
    <glyph glyph-name="uni1EF7" unicode="&#x1ef7;" horiz-adv-x="506" 
d="M48 518h136q27 -318 29 -407h1q115 252 191 407h142l-282 -541q-32 -62 -60 -99.5t-59 -56t-59.5 -24t-73.5 -5.5q-34 0 -69 7l25 112q18 -4 45 -4q43 0 64 15t38 48zM354 580h-115q2 2 11.5 8.5t14 9.5t13 10t13 12t9.5 12t7.5 13.5t2.5 13.5q0 23 -28 23q-31 0 -54 -15
l-16 69q49 32 107 32q47 0 73.5 -24t26.5 -56q0 -60 -65 -108z" />
    <glyph glyph-name="uni1EF8" unicode="&#x1ef8;" horiz-adv-x="577" 
d="M291 0h-141l52 250q3 12 -1 23l-144 416h146q7 -25 45.5 -151.5t47.5 -170.5q20 32 60 88t94 129t77 105h151l-326 -424q-8 -12 -10 -22zM272 751h-89l6 32q9 58 36.5 81.5t72.5 23.5q32 0 82 -21t62 -21q13 0 20.5 7t10.5 27l1 8h88l-5 -30q-11 -63 -38 -86.5t-74 -23.5
q-34 0 -82 20.5t-60 20.5q-25 0 -29 -24z" />
    <glyph glyph-name="uni1EF9" unicode="&#x1ef9;" horiz-adv-x="506" 
d="M48 518h136q27 -318 29 -407h1q115 252 191 407h142l-282 -541q-32 -62 -60 -99.5t-59 -56t-59.5 -24t-73.5 -5.5q-34 0 -69 7l25 112q18 -4 45 -4q43 0 64 15t38 48zM229 589h-88l7 39q11 58 36.5 79t67.5 21q32 0 74 -23t53 -23q24 0 32 38l2 9h87l-6 -31
q-11 -64 -38.5 -87.5t-72.5 -23.5q-33 0 -72 22t-51 22q-22 0 -28 -27z" />
    <glyph glyph-name="uni2007" unicode="&#x2007;" horiz-adv-x="569" 
 />
    <glyph glyph-name="uni2010" unicode="&#x2010;" horiz-adv-x="374" 
d="M66 315h267l-25 -117h-267z" />
    <glyph glyph-name="figuredash" unicode="&#x2012;" horiz-adv-x="569" 
d="M102 376h390l-25 -118h-390z" />
    <glyph glyph-name="endash" unicode="&#x2013;" horiz-adv-x="472" 
d="M66 315h366l-25 -117h-366z" />
    <glyph glyph-name="emdash" unicode="&#x2014;" horiz-adv-x="871" 
d="M66 315h764l-25 -117h-764z" />
    <glyph glyph-name="uni2015" unicode="&#x2015;" horiz-adv-x="871" 
d="M66 315h764l-25 -117h-764z" />
    <glyph glyph-name="quoteleft" unicode="&#x2018;" horiz-adv-x="254" 
d="M209 730h115q-35 -64 -67 -146.5t-45 -145.5h-140q18 72 57 154.5t80 137.5z" />
    <glyph glyph-name="quoteright" unicode="&#x2019;" horiz-adv-x="254" 
d="M175 438h-115q35 64 67 146.5t45 145.5h139q-17 -71 -56 -154t-80 -138z" />
    <glyph glyph-name="quotesinglbase" unicode="&#x201a;" horiz-adv-x="254" 
d="M41 -135h-114q35 66 67 148t44 144h140q-17 -72 -56 -154.5t-81 -137.5z" />
    <glyph glyph-name="quotedblleft" unicode="&#x201c;" horiz-adv-x="456" 
d="M415 730h110q-85 -173 -107 -292h-134q17 80 54 158t77 134zM206 730h110q-83 -164 -108 -292h-133q19 82 56.5 162.5t74.5 129.5z" />
    <glyph glyph-name="quotedblright" unicode="&#x201d;" horiz-adv-x="457" 
d="M171 438h-109q85 173 107 292h134q-38 -165 -132 -292zM380 438h-109q84 165 107 292h134q-19 -81 -56.5 -161.5t-75.5 -130.5z" />
    <glyph glyph-name="quotedblbase" unicode="&#x201e;" horiz-adv-x="444" 
d="M39 -136h-109q83 168 107 293h133q-18 -81 -54.5 -159.5t-76.5 -133.5zM248 -136h-109q82 164 107 293h133q-18 -81 -55.5 -161.5t-75.5 -131.5z" />
    <glyph glyph-name="dagger" unicode="&#x2020;" horiz-adv-x="512" 
d="M262 649h118l-50 -208l157 7l-24 -114l-154 8l-95 -474h-118l109 474l-160 -8l24 114l157 -7z" />
    <glyph glyph-name="daggerdbl" unicode="&#x2021;" horiz-adv-x="512" 
d="M168 170l42 196l-159 -7l24 114l156 -9l31 185h118l-45 -185l158 9l-24 -114l-155 7l-42 -196l158 7l-24 -113l-154 7l-38 -203h-118l52 203l-160 -7l24 113z" />
    <glyph glyph-name="bullet" unicode="&#x2022;" horiz-adv-x="415" 
d="M116 379h229l-52 -241h-229z" />
    <glyph glyph-name="ellipsis" unicode="&#x2026;" horiz-adv-x="883" 
d="M156 0h-148l37 176h147zM454 0h-148l37 176h147zM750 0h-148l37 176h147z" />
    <glyph glyph-name="perthousand" unicode="&#x2030;" horiz-adv-x="1307" 
d="M1127 368q66 0 104.5 -36.5t38.5 -106.5q0 -100 -55.5 -168.5t-152.5 -68.5q-69 0 -105.5 39.5t-36.5 105.5q0 92 55.5 163.5t151.5 71.5zM1117 282q-30 0 -51.5 -26.5t-30 -58t-8.5 -59.5q0 -64 51 -64q30 0 51.5 26.5t29.5 58t8 59.5q0 64 -50 64zM282 668
q66 0 104.5 -36.5t38.5 -105.5q0 -100 -55.5 -168.5t-152.5 -68.5q-69 0 -105.5 39t-36.5 105q0 92 55.5 163.5t151.5 71.5zM272 582q-44 0 -67 -47.5t-23 -95.5q0 -64 51 -64q43 0 65.5 48t22.5 96q0 63 -49 63zM266 0h-102l529 659h101zM736 368q66 0 104.5 -36.5
t38.5 -106.5q0 -100 -55.5 -168.5t-152.5 -68.5q-69 0 -105.5 39.5t-36.5 105.5q0 91 55.5 163t151.5 72zM726 282q-30 0 -51.5 -26.5t-30 -58t-8.5 -59.5q0 -64 51 -64q44 0 66.5 48t22.5 96q0 64 -50 64z" />
    <glyph glyph-name="uni2032" unicode="&#x2032;" horiz-adv-x="275" 
d="M200 437h-112l102 293h135z" />
    <glyph glyph-name="uni2033" unicode="&#x2033;" horiz-adv-x="454" 
d="M186 437h-98l100 293h123zM377 437h-97l101 293h123z" />
    <glyph glyph-name="guilsinglleft" unicode="&#x2039;" horiz-adv-x="378" 
d="M382 458l-203 -204l109 -191h-119l-117 198l192 197h138z" />
    <glyph glyph-name="guilsinglright" unicode="&#x203a;" horiz-adv-x="386" 
d="M9 63l203 204l-108 191h118l117 -198l-192 -197h-138z" />
    <glyph glyph-name="fraction" unicode="&#x2044;" horiz-adv-x="228" 
d="M-81 0h-103l532 658h98z" />
    <glyph glyph-name="zero.sups" unicode="&#x2070;" horiz-adv-x="398" 
d="M253 830q71 0 108.5 -41t37.5 -111q0 -106 -53.5 -180.5t-154.5 -74.5q-71 0 -109 41.5t-38 115.5q0 43 13 86t37.5 80t65.5 60.5t93 23.5zM243 743q-24 0 -42.5 -18t-28 -45t-14 -53.5t-4.5 -48.5q0 -69 50 -69q24 0 42 19t27 48t13.5 55.5t4.5 47.5q0 64 -48 64z" />
    <glyph glyph-name="four.sups" unicode="&#x2074;" horiz-adv-x="379" 
d="M290 429h-99l20 93h-191l17 77l202 226h135l-49 -228h57l-24 -75h-49zM136 597h90l14 59q21 87 21 88q-20 -26 -125 -147z" />
    <glyph glyph-name="five.sups" unicode="&#x2075;" horiz-adv-x="383" 
d="M393 825l-27 -83h-178q-1 -4 -8.5 -29.5t-10.5 -36.5q34 18 75 18q58 0 89.5 -33.5t31.5 -81.5q0 -74 -51.5 -114.5t-129.5 -40.5q-76 0 -113 36t-38 85h103q6 -44 54 -44q29 0 47 17.5t18 47.5q0 52 -50 52q-41 0 -62 -30l-90 14q33 92 67 223h273z" />
    <glyph glyph-name="six.sups" unicode="&#x2076;" horiz-adv-x="387" 
d="M391 716h-103q-5 35 -48 35q-30 0 -51 -23.5t-29 -64.5q36 30 93 30q55 0 88.5 -32.5t33.5 -85.5q0 -65 -47 -108.5t-129 -43.5q-71 0 -113.5 42.5t-42.5 122.5q0 93 52.5 167.5t151.5 74.5q66 0 104.5 -31t39.5 -83zM203 504q27 0 44.5 17.5t17.5 47.5q0 23 -13 37
t-38 14q-26 0 -44 -18t-18 -46q0 -22 12.5 -37t38.5 -15z" />
    <glyph glyph-name="seven.sups" unicode="&#x2077;" horiz-adv-x="352" 
d="M93 825h296l-15 -74q-60 -61 -115.5 -147.5t-90.5 -175.5h-121q32 86 93.5 174.5t117.5 139.5h-181z" />
    <glyph glyph-name="eight.sups" unicode="&#x2078;" horiz-adv-x="377" 
d="M190 423q-72 0 -112.5 31.5t-40.5 76.5q0 73 83 104q-39 25 -39 71q0 58 45 91t117 33q68 0 106 -30.5t38 -72.5q0 -67 -69 -92q52 -27 52 -80q0 -64 -52.5 -98t-127.5 -34zM237 759q-23 0 -39.5 -13.5t-16.5 -37.5q0 -39 46 -39q23 0 40 13t17 36q0 18 -12 29.5
t-35 11.5zM200 494q29 0 47.5 14t18.5 42q0 21 -14.5 33.5t-42.5 12.5q-30 0 -48 -14.5t-18 -41.5q0 -19 16 -32.5t41 -13.5z" />
    <glyph glyph-name="nine.sups" unicode="&#x2079;" horiz-adv-x="385" 
d="M34 541h109q5 -40 50 -40q56 0 75 88q-29 -24 -88 -24q-53 0 -88.5 30.5t-35.5 82.5q0 65 48 108.5t123 43.5q77 0 118.5 -42.5t41.5 -115.5q0 -44 -10.5 -85.5t-33 -79.5t-63.5 -61t-96 -23q-72 0 -110 33.5t-40 84.5zM224 752q-27 0 -44 -17t-17 -44q0 -50 54 -50
q27 0 43.5 15.5t16.5 40.5q0 55 -53 55z" />
    <glyph glyph-name="parenleft.sups" unicode="&#x207d;" horiz-adv-x="236" 
d="M196 871h93q-72 -68 -105.5 -140t-33.5 -170q0 -112 32 -193h-85q-37 82 -37 188q0 199 136 315z" />
    <glyph glyph-name="parenright.sups" unicode="&#x207e;" horiz-adv-x="236" 
d="M82 368h-93q73 74 106 145.5t33 168.5q0 109 -32 189h85q38 -92 38 -188q0 -91 -35.5 -175.5t-101.5 -139.5z" />
    <glyph glyph-name="n.sups" unicode="&#x207f;" horiz-adv-x="391" 
d="M40 261l48 225q11 51 21 108h96q2 -11 -2 -39q37 46 106 46q45 0 72.5 -33t13.5 -98l-45 -209h-100l41 194q13 62 -33 62q-26 0 -48 -19t-31 -62l-38 -175h-101z" />
    <glyph glyph-name="zero.subs" unicode="&#x2080;" horiz-adv-x="398" 
d="M126 229q71 0 108.5 -41t37.5 -111q0 -106 -53.5 -180.5t-154.5 -74.5q-71 0 -109 41.5t-38 115.5q0 43 13 86t37.5 80t65.5 60.5t93 23.5zM116 142q-24 0 -42.5 -18t-28 -45t-14 -53.5t-4.5 -48.5q0 -69 50 -69q24 0 42 19t27 48t13.5 55.5t4.5 47.5q0 64 -48 64z" />
    <glyph glyph-name="one.subs" unicode="&#x2081;" horiz-adv-x="260" 
d="M52 -174h-108l61 289q-12 -1 -24.5 -1t-25 0.5t-17.5 0.5l17 75q69 3 108 38h75z" />
    <glyph glyph-name="two.subs" unicode="&#x2082;" horiz-adv-x="366" 
d="M193 -173h-304l3 12q15 58 47.5 103t112.5 89q54 29 70 42.5t16 32.5q0 38 -43 38q-45 0 -62 -55h-99q30 140 173 140q68 0 104 -35.5t36 -82.5q0 -45 -24.5 -75t-87.5 -62q-74 -37 -92 -65h181z" />
    <glyph glyph-name="three.subs" unicode="&#x2083;" horiz-adv-x="378" 
d="M-94 -51h104q2 -21 16 -35.5t42 -14.5q59 0 59 50q0 41 -57 41h-36l19 84h30q57 0 57 44q0 34 -41 34t-56 -40h-99q29 117 166 117q65 0 101.5 -29t36.5 -74q0 -68 -71 -89q20 -7 39.5 -27.5t19.5 -54.5q0 -60 -46 -96t-129 -36q-85 0 -123 41t-32 85z" />
    <glyph glyph-name="four.subs" unicode="&#x2084;" horiz-adv-x="379" 
d="M163 -172h-99l20 93h-191l17 77l202 226h135l-49 -228h57l-24 -75h-49zM9 -4h90l14 59q21 87 21 88q-20 -26 -125 -147z" />
    <glyph glyph-name="five.subs" unicode="&#x2085;" horiz-adv-x="383" 
d="M266 224l-27 -83h-178q-1 -4 -8.5 -29.5t-10.5 -36.5q34 18 75 18q58 0 89.5 -33.5t31.5 -81.5q0 -74 -51.5 -114.5t-129.5 -40.5q-76 0 -113 36t-38 85h103q2 -19 16 -31.5t38 -12.5q29 0 47 17.5t18 47.5q0 52 -50 52q-41 0 -62 -30l-90 14q33 92 67 223h273z" />
    <glyph glyph-name="six.subs" unicode="&#x2086;" horiz-adv-x="387" 
d="M264 115h-103q-5 35 -48 35q-30 0 -51 -23.5t-29 -64.5q36 30 93 30q55 0 88.5 -32.5t33.5 -85.5q0 -65 -47 -108.5t-129 -43.5q-71 0 -113.5 42.5t-42.5 122.5q0 93 52.5 167.5t151.5 74.5q66 0 104.5 -31t39.5 -83zM76 -97q27 0 44.5 17.5t17.5 47.5q0 23 -13 37
t-38 14q-26 0 -44 -18t-18 -46q0 -22 12.5 -37t38.5 -15z" />
    <glyph glyph-name="seven.subs" unicode="&#x2087;" horiz-adv-x="352" 
d="M-34 224h296l-15 -74q-60 -61 -115.5 -147.5t-90.5 -175.5h-121q32 86 93.5 174.5t117.5 139.5h-181z" />
    <glyph glyph-name="eight.subs" unicode="&#x2088;" horiz-adv-x="377" 
d="M63 -178q-72 0 -112.5 31.5t-40.5 76.5q0 73 83 104q-39 25 -39 71q0 58 45 91t117 33q68 0 106 -30.5t38 -72.5q0 -67 -69 -92q52 -27 52 -80q0 -64 -52.5 -98t-127.5 -34zM110 158q-23 0 -39.5 -13.5t-16.5 -37.5q0 -39 46 -39q23 0 40 13t17 36q0 18 -12 29.5
t-35 11.5zM73 -107q29 0 47.5 14t18.5 42q0 21 -14.5 33.5t-42.5 12.5q-30 0 -48 -14.5t-18 -41.5q0 -19 16 -32.5t41 -13.5z" />
    <glyph glyph-name="nine.subs" unicode="&#x2089;" horiz-adv-x="385" 
d="M-93 -60h109q5 -40 50 -40q56 0 75 88q-29 -24 -88 -24q-53 0 -88.5 30.5t-35.5 82.5q0 65 48 108.5t123 43.5q77 0 118.5 -42.5t41.5 -115.5q0 -44 -10.5 -85.5t-33 -79.5t-63.5 -61t-96 -23q-72 0 -110 33.5t-40 84.5zM97 151q-27 0 -44 -17t-17 -44q0 -50 54 -50
q27 0 43.5 15.5t16.5 40.5q0 55 -53 55z" />
    <glyph glyph-name="parenleft.subs" unicode="&#x208d;" horiz-adv-x="236" 
d="M69 270h93q-72 -68 -105.5 -140t-33.5 -170q0 -112 32 -193h-85q-37 82 -37 188q0 199 136 315z" />
    <glyph glyph-name="parenright.subs" unicode="&#x208e;" horiz-adv-x="236" 
d="M-45 -233h-93q73 74 106 145.5t33 168.5q0 109 -32 189h85q38 -92 38 -188q0 -91 -35.5 -175.5t-101.5 -139.5z" />
    <glyph glyph-name="colonmonetary" unicode="&#x20a1;" horiz-adv-x="530" 
d="M325 552q-41 0 -74 -34.5t-51 -86.5t-27.5 -103t-9.5 -93q0 -65 19 -97t62 -32q39 0 64 19.5t44 59.5h133q-47 -140 -168 -174l-20 -98h-78l18 85h-20h-16l-18 -85h-76l21 103q-101 47 -101 214q0 57 13 117.5t39 121t73.5 108.5t108.5 68l15 73h77l-12 -60h7q19 0 29 -1
l13 61h76l-16 -81q95 -47 87 -171h-127q-3 42 -21.5 64t-63.5 22z" />
    <glyph glyph-name="franc" unicode="&#x20a3;" horiz-adv-x="515" 
d="M33 0l22 106h-77l19 90h77l98 462h389l-25 -114h-255l-30 -144h238l-24 -111h-238l-20 -93h123l-21 -90h-121l-22 -106h-133z" />
    <glyph glyph-name="lira" unicode="&#x20a4;" horiz-adv-x="524" 
d="M366 352h-125q-1 -8 -4 -26.5t-4 -25.5v-3h122l-16 -75h-121q-18 -75 -51 -109h315l-39 -113h-462l21 102q36 14 55.5 42.5t30.5 77.5h-88l17 75h84q1 7 6 55h-80l17 76h72q2 18 4 28q32 213 219 213q56 0 95 -17.5t57.5 -46t25.5 -57t4 -58.5h-122q-3 76 -65 76
q-36 0 -53.5 -25.5t-24.5 -77.5q-4 -29 -5 -35h132z" />
    <glyph glyph-name="uni20A6" unicode="&#x20a6;" horiz-adv-x="529" 
d="M208 549q-5 -46 -15 -103h28l-4 103h-9zM320 126h9q4 39 16 115h-30zM103 0h-107l51 241h-50l18 77h49l10 49h-51l17 79h51l45 212h162l9 -212h77q0 2 1 4t1 4l43 204h106l-45 -212h48l-18 -79h-46l-11 -49h47l-16 -77h-47l-51 -241h-156l-10 241h-76q-1 -5 -3 -14
t-3 -14zM359 318q2 8 5 24.5t4 24.5h-58l2 -49h47zM227 318l-2 49h-46q-7 -36 -10 -49h58z" />
    <glyph glyph-name="peseta" unicode="&#x20a7;" horiz-adv-x="570" 
d="M15 0l84 398h-60l16 80h61l38 180h167q104 0 160 -51.5t58 -128.5h52l-17 -80h-42q-41 -184 -286 -184h-58l-45 -214h-128zM263 561l-18 -83h167q-8 83 -96 83h-53zM209 311h56q110 0 139 87h-176z" />
    <glyph glyph-name="dong" unicode="&#x20ab;" horiz-adv-x="534" 
d="M-23 -69h429l-20 -88h-427zM369 401l26 117h-207l21 86h206l13 60h128l-13 -60h57l-20 -86h-55l-78 -364q-9 -41 -31 -154h-116q2 34 5 50q-25 -30 -56.5 -44t-83.5 -14q-69 0 -113.5 49t-44.5 134q0 69 25.5 130.5t81 104t130.5 42.5q51 0 83 -15.5t42 -35.5zM263 352
q-55 0 -88 -51t-33 -115q0 -45 20 -69t56 -24q45 0 76 34.5t44 94.5q14 62 -5 96t-70 34z" />
    <glyph glyph-name="Euro" unicode="&#x20ac;" horiz-adv-x="561" 
d="M382 165h133q-58 -176 -241 -176q-99 0 -146 60t-47 166v21h-68l17 76h57q2 15 8 53h-53l16 77h57q34 102 98.5 164t162.5 62q100 0 148 -55t44 -131h-126q-3 84 -77 84q-77 0 -120 -124h173l-17 -77h-177q-6 -25 -9 -53h176l-17 -76h-164v-10q0 -132 76 -132q60 0 96 71
z" />
    <glyph glyph-name="uni20B1" unicode="&#x20b1;" horiz-adv-x="574" 
d="M16 0l73 345h-56l13 66h57l8 37h-57l14 66h57l30 144h177q87 0 138 -39t64 -105h67l-14 -66h-48q-2 -24 -4 -37h44l-13 -66h-49q-60 -143 -258 -143h-73l-42 -202h-128zM263 560l-10 -46h150q-16 46 -73 46h-67zM208 301h74q64 0 99 44h-164zM408 411q4 17 4 37h-173
l-8 -37h177z" />
    <glyph glyph-name="uni20B2" unicode="&#x20b2;" horiz-adv-x="564" 
d="M555 483h-127q-9 71 -84 71q-43 0 -76 -33t-50 -83t-25 -97t-8 -85q0 -76 23 -116.5t83 -40.5q33 0 65 13l48 225h126l-61 -301q-106 -37 -179 -41l-17 -82h-105l19 90q-67 19 -102 80.5t-35 156.5q0 50 9 102t30 107t52 99t80 75t108 37l13 59h103l-14 -65
q127 -32 124 -171z" />
    <glyph glyph-name="uni20B4" unicode="&#x20b4;" horiz-adv-x="558" 
d="M246 494h-126q21 77 77 126t151 49q94 0 140 -44t46 -106q0 -49 -22 -88h46l-14 -68h-95q-31 -22 -90 -53h164l-15 -69h-273q-45 -35 -45 -83q0 -28 19.5 -46t53.5 -18q73 0 106 72h129q-33 -93 -93 -135.5t-166 -42.5q-80 0 -132.5 41t-52.5 114q0 57 26 98h-44l14 69
h103q22 15 88 53h-168l14 68h272q46 34 46 78q0 23 -16 40.5t-48 17.5q-37 0 -58.5 -18.5t-36.5 -54.5z" />
    <glyph glyph-name="uni20B5" unicode="&#x20b5;" horiz-adv-x="530" 
d="M329 552q-42 0 -76 -35t-52.5 -87t-28 -103.5t-9.5 -92.5q0 -66 18.5 -97t60.5 -31q41 0 66 20.5t45 67.5h133q-27 -88 -78 -135.5t-138 -57.5l-19 -88h-104l19 90q-139 32 -139 228q0 49 9 100.5t30 106.5t52 99.5t80 77t108 40.5l14 64h104l-15 -68q67 -16 100 -66
t28 -122h-127q0 43 -18 66t-63 23z" />
    <glyph glyph-name="uni20B9" unicode="&#x20b9;" horiz-adv-x="521" 
d="M540 449h-78q-14 -140 -166 -178l135 -271h-151l-122 259h-103l22 103h100q130 0 147 87h-228l16 79h206q-21 46 -88 46h-108l18 84h445l-18 -81h-135q18 -22 25 -49h99z" />
    <glyph glyph-name="uni20BA" unicode="&#x20ba;" horiz-adv-x="574" 
d="M390 347l-122 -34l-41 -199q72 0 116.5 38.5t68.5 114.5h126q-11 -51 -33 -95t-59 -84.5t-98 -64t-140 -23.5h-147l58 271l-90 -25l17 80l90 25l11 55l-90 -25l16 81l92 25l36 171h137l-27 -130l124 34l-18 -81l-122 -34l-11 -54l123 34z" />
    <glyph glyph-name="uni20BD" unicode="&#x20bd;" horiz-adv-x="610" 
d="M44 0l23 110h-66l19 90h67l15 71h-67l22 106h67l60 281h214q107 0 162 -49t55 -123q0 -215 -288 -215h-85l-15 -71h158l-19 -90h-158l-23 -110h-141zM301 553l-36 -176h81q123 0 123 100q0 35 -23.5 55.5t-68.5 20.5h-76z" />
    <glyph glyph-name="uni2113" unicode="&#x2113;" horiz-adv-x="452" 
d="M269 545l-35 -167q48 38 83 100.5t35 116.5q0 40 -26 40q-20 0 -33 -19.5t-24 -70.5zM297 181h121q-22 -95 -73.5 -142t-143.5 -47q-49 0 -83 16t-48 41.5t-19.5 56.5t1.5 60l3 12q-10 -7 -55 -29l-8 95q33 16 85 47l48 224q47 224 205 224q60 0 101 -35t41 -108
q0 -102 -66 -189t-203 -169l-8 -43q-20 -90 31 -90q25 0 41.5 17t29.5 59z" />
    <glyph glyph-name="uni2116" unicode="&#x2116;" horiz-adv-x="1037" 
d="M146 0h-125l142 673h177q100 -447 104 -509h1q12 93 61 317l40 192h126l-142 -673h-170q-75 326 -108 535h-1q-15 -109 -63 -335zM890 634q69 0 111.5 -41.5t42.5 -115.5q0 -97 -60 -167.5t-161 -70.5q-68 0 -107.5 40t-39.5 110q0 102 59 173.5t155 71.5zM880 539
q-44 0 -67.5 -45t-23.5 -93q0 -66 51 -66q44 0 68.5 43t24.5 95q0 66 -53 66zM655 185h302l-19 -91h-302z" />
    <glyph glyph-name="uni2117" unicode="&#x2117;" horiz-adv-x="779" 
d="M402 698q146 0 243.5 -99.5t97.5 -254.5q0 -153 -97 -253.5t-244 -100.5q-148 0 -245 98t-97 256q0 151 98 252.5t244 101.5zM401 633q-120 0 -196 -78t-76 -212q0 -125 76 -206.5t196 -81.5q119 0 195.5 77t76.5 211q0 129 -77 209.5t-195 80.5zM266 167v365h156
q61 0 104.5 -29t43.5 -92t-42 -94t-108 -31h-60v-119h-94zM361 456v-97h47q65 0 65 50q0 47 -64 47h-48z" />
    <glyph glyph-name="uni2120" unicode="&#x2120;" horiz-adv-x="500" 
d="M65 525h70q4 -33 41 -33q34 0 34 21t-50 31q-51 11 -69 30t-18 44q0 33 26 55t72 22q96 0 102 -73h-67q-3 25 -37 25q-29 0 -29 -20q0 -15 38 -25q59 -14 80.5 -31.5t21.5 -49.5q0 -35 -27.5 -57t-81.5 -22q-46 0 -75 23t-31 60zM595 448h-67v64q0 62 6 128h-2
q-15 -58 -53 -191h-62q-34 130 -46 191h-3q4 -88 4 -140v-52h-65v241h110q26 -94 35 -140h1q28 98 41 140h101v-241z" />
    <glyph glyph-name="trademark" unicode="&#x2122;" horiz-adv-x="501" 
d="M77 689h221v-61h-74v-180h-72v180h-75v61zM612 448h-66v64q0 18 5 128h-2q-1 -3 -52 -191h-62q-34 130 -46 191h-3q4 -88 4 -140v-52h-65v241h110q26 -94 35 -140h1q11 45 41 140h100v-241z" />
    <glyph glyph-name="uni2126" unicode="&#x2126;" horiz-adv-x="734" 
d="M426 699q132 0 213.5 -75.5t81.5 -199.5q0 -104 -53.5 -184.5t-152.5 -123.5h154l-24 -116h-291l30 149q186 79 186 264q0 76 -36 124.5t-121 48.5q-93 0 -147.5 -71.5t-54.5 -170.5q0 -65 23 -118t66 -77l-31 -149h-289l24 116h169q-108 96 -108 223q0 151 101 255.5
t260 104.5z" />
    <glyph glyph-name="estimated" unicode="&#x212e;" horiz-adv-x="845" 
d="M808 297h-602q-4 0 -4 -4v-108q0 -10 8 -22q30 -49 86 -79t124 -30q76 0 127 25.5t95 88.5h117q-52 -87 -140.5 -133.5t-198.5 -46.5q-170 0 -276.5 98t-106.5 241q0 142 113 241.5t272 99.5q162 0 274 -99.5t112 -241.5v-30zM644 375v101q0 10 -9 23q-32 49 -87.5 76
t-123.5 27q-147 0 -213 -102q-9 -16 -9 -23v-102q0 -5 4 -5h434q4 0 4 5z" />
    <glyph glyph-name="onethird" unicode="&#x2153;" horiz-adv-x="839" 
d="M154 0h-103l532 658h98zM189 260h-108l61 289h-67l17 75q69 3 108 38h75zM461 126h104q2 -21 16 -35.5t42 -14.5q59 0 59 50q0 41 -57 41h-36l19 84h30q57 0 57 44q0 34 -41 34t-56 -40h-99q29 117 166 117q65 0 101.5 -29t36.5 -74q0 -68 -71 -89q20 -7 39.5 -27.5
t19.5 -54.5q0 -60 -46 -96t-129 -36q-85 0 -123 41t-32 85z" />
    <glyph glyph-name="twothirds" unicode="&#x2154;" horiz-adv-x="976" 
d="M291 0h-103l532 658h98zM335 261h-304l3 12q15 58 47.5 103t112.5 89q54 29 70 42.5t16 32.5q0 38 -43 38q-45 0 -62 -55h-99q30 140 173 140q68 0 104 -35.5t36 -82.5q0 -45 -24.5 -75t-87.5 -62q-74 -37 -92 -65h181zM588 120h104q2 -21 16 -35.5t42 -14.5q59 0 59 50
q0 41 -57 41h-36l19 84h30q57 0 57 44q0 34 -41 34t-56 -40h-99q29 117 166 117q65 0 101.5 -29t36.5 -74q0 -68 -71 -89q20 -7 39.5 -27.5t19.5 -54.5q0 -60 -46 -96t-129 -36q-85 0 -123 41t-32 85z" />
    <glyph glyph-name="oneeighth" unicode="&#x215b;" horiz-adv-x="863" 
d="M181 0h-103l532 658h98zM196 260h-108l61 289h-67l17 75q69 3 108 38h75zM630 -6q-72 0 -112.5 31.5t-40.5 76.5q0 73 83 104q-39 25 -39 71q0 58 45 91t117 33q68 0 106 -30.5t38 -72.5q0 -67 -69 -92q52 -27 52 -80q0 -64 -52.5 -98t-127.5 -34zM677 330
q-23 0 -39.5 -13.5t-16.5 -37.5q0 -39 46 -39q23 0 40 13t17 36q0 18 -12 29.5t-35 11.5zM640 65q29 0 47.5 14t18.5 42q0 21 -14.5 33.5t-42.5 12.5q-30 0 -48 -14.5t-18 -41.5q0 -19 16 -32.5t41 -13.5z" />
    <glyph glyph-name="threeeighths" unicode="&#x215c;" horiz-adv-x="975" 
d="M292 0h-103l532 658h98zM738 -6q-72 0 -112.5 31.5t-40.5 76.5q0 73 83 104q-39 25 -39 71q0 58 45 91t117 33q68 0 106 -30.5t38 -72.5q0 -67 -69 -92q52 -27 52 -80q0 -64 -52.5 -98t-127.5 -34zM785 330q-23 0 -39.5 -13.5t-16.5 -37.5q0 -39 46 -39q23 0 40 13t17 36
q0 18 -12 29.5t-35 11.5zM748 65q29 0 47.5 14t18.5 42q0 21 -14.5 33.5t-42.5 12.5q-30 0 -48 -14.5t-18 -41.5q0 -19 16 -32.5t41 -13.5zM53 383h104q2 -21 16 -35.5t42 -14.5q59 0 59 50q0 41 -57 41h-36l19 84h30q57 0 57 44q0 34 -41 34t-56 -40h-99q29 117 166 117
q65 0 101.5 -29t36.5 -74q0 -68 -71 -89q20 -7 39.5 -27.5t19.5 -54.5q0 -60 -46 -96t-129 -36q-85 0 -123 41t-32 85z" />
    <glyph glyph-name="fiveeighths" unicode="&#x215d;" horiz-adv-x="964" 
d="M281 0h-103l532 658h98zM412 658l-27 -83h-178q-1 -4 -8.5 -29.5t-10.5 -36.5q34 18 75 18q58 0 89.5 -33.5t31.5 -81.5q0 -74 -51.5 -114.5t-129.5 -40.5q-76 0 -113 36t-38 85h103q2 -19 16 -31.5t38 -12.5q29 0 47 17.5t18 47.5q0 52 -50 52q-41 0 -62 -30l-90 14
q33 92 67 223h273zM729 -6q-72 0 -112.5 31.5t-40.5 76.5q0 73 83 104q-39 25 -39 71q0 58 45 91t117 33q68 0 106 -30.5t38 -72.5q0 -67 -69 -92q52 -27 52 -80q0 -64 -52.5 -98t-127.5 -34zM776 330q-23 0 -39.5 -13.5t-16.5 -37.5q0 -39 46 -39q23 0 40 13t17 36
q0 18 -12 29.5t-35 11.5zM739 65q29 0 47.5 14t18.5 42q0 21 -14.5 33.5t-42.5 12.5q-30 0 -48 -14.5t-18 -41.5q0 -19 16 -32.5t41 -13.5z" />
    <glyph glyph-name="seveneighths" unicode="&#x215e;" horiz-adv-x="900" 
d="M200 0h-103l532 658h98zM660 -6q-72 0 -112.5 31.5t-40.5 76.5q0 73 83 104q-39 25 -39 71q0 58 45 91t117 33q68 0 106 -30.5t38 -72.5q0 -67 -69 -92q52 -27 52 -80q0 -64 -52.5 -98t-127.5 -34zM707 330q-23 0 -39.5 -13.5t-16.5 -37.5q0 -39 46 -39q23 0 40 13t17 36
q0 18 -12 29.5t-35 11.5zM670 65q29 0 47.5 14t18.5 42q0 21 -14.5 33.5t-42.5 12.5q-30 0 -48 -14.5t-18 -41.5q0 -19 16 -32.5t41 -13.5zM107 658h296l-15 -74q-60 -61 -115.5 -147.5t-90.5 -175.5h-121q32 86 93.5 174.5t117.5 139.5h-181z" />
    <glyph glyph-name="uni2190" unicode="&#x2190;" horiz-adv-x="880" 
d="M835 300h-594q31 -29 292 -280l-74 -73l-415 407v2l415 409l74 -78q-39 -37 -146 -139.5t-146 -138.5h594v-109z" />
    <glyph glyph-name="arrowup" unicode="&#x2191;" horiz-adv-x="867" 
d="M375 -43v632q-229 -252 -257 -281l-74 76l387 404h3l388 -404l-77 -76q-44 47 -137.5 150.5t-118.5 130.5v-632h-114z" />
    <glyph glyph-name="uni2192" unicode="&#x2192;" horiz-adv-x="880" 
d="M45 411h594q-31 29 -292 280l74 73l415 -407v-2l-415 -409l-74 78q39 37 146 139.5t146 138.5h-594v109z" />
    <glyph glyph-name="arrowdown" unicode="&#x2193;" horiz-adv-x="867" 
d="M492 758v-632q229 252 257 281l74 -76l-387 -404h-3l-388 404l77 76q44 -47 137.5 -150.5t118.5 -130.5v632h114z" />
    <glyph glyph-name="partialdiff" unicode="&#x2202;" horiz-adv-x="570" 
d="M119 586l20 112q6 1 39 1q67 0 126.5 -19.5t109.5 -58.5t79.5 -107t29.5 -157q0 -50 -7.5 -97t-28 -97t-52 -87t-84 -60.5t-119.5 -23.5q-104 0 -158.5 56.5t-54.5 139.5q0 101 65 168t170 67q100 0 136 -47v12q0 87 -73 142.5t-168 56.5q-22 0 -30 -1zM244 93
q52 0 82.5 37t36.5 88q6 43 -18 71t-74 28q-55 0 -85 -37.5t-30 -92.5q0 -43 23.5 -68.5t64.5 -25.5z" />
    <glyph glyph-name="uni2206" unicode="&#x2206;" horiz-adv-x="653" 
d="M575 0h-598l16 81l337 608h179l83 -609zM152 116h296q-17 142 -29.5 248t-18.5 154t-7 60h-2q-19 -50 -239 -462z" />
    <glyph glyph-name="product" unicode="&#x220f;" horiz-adv-x="700" 
d="M167 689h548l-169 -789h-142l144 674h-262l-144 -674h-143z" />
    <glyph glyph-name="summation" unicode="&#x2211;" horiz-adv-x="518" 
d="M437 -100h-504l19 89l286 323l-146 292l17 85h466l-24 -114h-295l132 -265l-256 -295h347z" />
    <glyph glyph-name="minus" unicode="&#x2212;" horiz-adv-x="713" 
d="M634 226h-555v116h555v-116z" />
    <glyph glyph-name="uni2215" unicode="&#x2215;" horiz-adv-x="228" 
d="M-81 0h-103l532 658h98z" />
    <glyph glyph-name="uni2219" unicode="&#x2219;" horiz-adv-x="245" 
d="M176 200h-148l37 176h147z" />
    <glyph glyph-name="radical" unicode="&#x221a;" horiz-adv-x="603" 
d="M708 852l-403 -1050h-89l-87 402l-87 -34l-25 80l218 94q39 -206 52 -339q10 46 315 847h106z" />
    <glyph glyph-name="infinity" unicode="&#x221e;" horiz-adv-x="833" 
d="M227 104q-74 0 -122 52.5t-48 132.5q0 76 48.5 129.5t129.5 53.5q59 0 101 -26.5t91 -80.5q53 56 94 81.5t104 25.5q73 0 121.5 -51.5t48.5 -131.5q0 -76 -50.5 -130.5t-128.5 -54.5q-54 0 -98 26.5t-90 77.5q-49 -52 -93.5 -78t-107.5 -26zM608 204q38 0 61.5 24.5
t23.5 60.5q0 38 -22 62.5t-60 24.5q-24 0 -48 -14t-37.5 -27t-42.5 -45q4 -4 18 -19t19.5 -21t18.5 -17t22 -16t21.5 -9t25.5 -4zM239 204q36 0 65.5 21t61.5 59q-2 3 -18.5 22.5t-24 26.5t-22.5 19.5t-29.5 17.5t-30.5 5q-37 0 -60 -25t-23 -61q0 -39 22.5 -62t58.5 -23z
" />
    <glyph glyph-name="integral" unicode="&#x222b;" horiz-adv-x="331" 
d="M444 837l-31 -114q-32 5 -45 5q-42 0 -59 -24t-28 -99q-5 -31 -71 -559q-17 -126 -63.5 -192t-147.5 -66q-56 0 -78 14l34 120q22 -9 52 -9q41 0 54 26t27 109q1 4 1 6q10 60 22 156.5t25.5 215t18.5 158.5q16 127 65.5 196t153.5 69q46 0 70 -12z" />
    <glyph glyph-name="approxequal" unicode="&#x2248;" horiz-adv-x="713" 
d="M182 84h-103v28q0 143 135 143q55 0 144.5 -33.5t128.5 -33.5q24 0 35 11.5t11 38.5v11h103v-29q0 -145 -132 -145q-63 0 -152 33t-124 33q-46 0 -46 -51v-6zM182 324h-103v26q0 146 136 146q53 0 143 -33t129 -33q25 0 35.5 11.5t10.5 41.5v8h103v-27
q0 -84 -36.5 -116.5t-100.5 -32.5q-57 0 -145.5 34t-125.5 34q-46 0 -46 -50v-9z" />
    <glyph glyph-name="notequal" unicode="&#x2260;" horiz-adv-x="713" 
d="M546 576l-49 -105h137v-116h-190l-65 -140h255v-116h-309l-44 -95h-107l44 95h-139v116h192l65 140h-257v116h311l48 105h108z" />
    <glyph glyph-name="lessequal" unicode="&#x2264;" horiz-adv-x="669" 
d="M79 386v121l511 214v-127l-377 -147l377 -150v-127zM79 116h511v-116h-511v116z" />
    <glyph glyph-name="greaterequal" unicode="&#x2265;" horiz-adv-x="669" 
d="M590 507v-123l-511 -214v128l376 147l-376 150v126zM590 0h-511v116h511v-116z" />
    <glyph glyph-name="uni25A0" unicode="&#x25a0;" horiz-adv-x="416" 
d="M77 126v263h262v-263h-262z" />
    <glyph glyph-name="triagup" unicode="&#x25b2;" horiz-adv-x="647" 
d="M612 0h-577l282 609h4z" />
    <glyph glyph-name="uni25B3" unicode="&#x25b3;" horiz-adv-x="647" 
d="M612 0h-577l282 609h4zM172 88h291l-147 325z" />
    <glyph glyph-name="uni25B6" unicode="&#x25b6;" horiz-adv-x="690" 
d="M50 7v577l610 -282v-4z" />
    <glyph glyph-name="uni25B7" unicode="&#x25b7;" horiz-adv-x="691" 
d="M50 7v577l610 -282v-4zM141 441v-290l322 146z" />
    <glyph glyph-name="triagdn" unicode="&#x25bc;" horiz-adv-x="647" 
d="M35 601h577l-282 -609h-4z" />
    <glyph glyph-name="uni25BD" unicode="&#x25bd;" horiz-adv-x="647" 
d="M35 601h577l-282 -609h-4zM475 514h-291l146 -326z" />
    <glyph glyph-name="uni25C0" unicode="&#x25c0;" horiz-adv-x="690" 
d="M640 584v-577l-610 282v4z" />
    <glyph glyph-name="uni25C1" unicode="&#x25c1;" horiz-adv-x="690" 
d="M640 584v-577l-610 282v4zM548 147v291l-321 -147z" />
    <glyph glyph-name="uni25C6" unicode="&#x25c6;" horiz-adv-x="451" 
d="M43 259l181 186l184 -191l-180 -187z" />
    <glyph glyph-name="uni25C9" unicode="&#x25c9;" horiz-adv-x="556" 
d="M279 342q36 0 59 -24.5t23 -57.5q0 -38 -23 -64t-58 -26q-37 0 -59.5 25.5t-22.5 64.5q0 33 23 57.5t58 24.5zM506 260q-1 -101 -65.5 -170t-160.5 -69t-162.5 68.5t-66.5 170.5q0 97 67 166t163 69q94 0 159.5 -69.5t65.5 -165.5zM280 419q-64 0 -105.5 -46.5
t-41.5 -112.5q0 -70 41.5 -117.5t105.5 -47.5t105 47.5t41 117.5q0 65 -42.5 112t-103.5 47z" />
    <glyph glyph-name="lozenge" unicode="&#x25ca;" horiz-adv-x="609" 
d="M455 328l-122 215q-2 4 -13 24.5t-15 27.5h-3q-11 -26 -27 -52l-121 -213l119 -215q4 -8 11 -20t11.5 -21l6.5 -13h2q27 49 29 54zM571 330l-217 -373h-106l-209 371l214 372h105z" />
    <glyph glyph-name="uni2610" unicode="&#x2610;" horiz-adv-x="1010" 
d="M159 775h748v-765l-69 -70h-735v771zM168 695v-689h656v689h-656z" />
    <glyph glyph-name="uni2611" unicode="&#x2611;" horiz-adv-x="1010" 
d="M649 627h121q-174 -208 -346 -570h-28q-97 129 -154 266l89 59q31 -100 76 -191q48 115 116.5 237.5t125.5 198.5zM159 775h748v-765l-69 -70h-735v771zM168 695v-689h656v689h-656z" />
    <glyph glyph-name="uni2713" unicode="&#x2713;" horiz-adv-x="703" 
d="M557 742h152q-229 -284 -467 -809h-40q-101 144 -185 355l116 72q41 -150 85 -242q72 173 164 344t175 280z" />
    <glyph glyph-name="uni2752" unicode="&#x2752;" horiz-adv-x="506" 
d="M66 369l85 86h288v-308l-78 -84h-295v306zM130 347v-216h205v216h-205z" />
    <glyph glyph-name="fi" unicode="&#xfb01;" horiz-adv-x="583" 
d="M160 0h-136l86 414h-73l23 103h73l11 51q39 172 190 172q48 0 69 -7l-23 -109q-12 3 -33 3q-56 0 -68 -61l-10 -49h87l-23 -103h-87zM329 0l110 518h136l-110 -518h-136zM456 602l27 128h136l-27 -128h-136z" />
    <glyph glyph-name="fl" unicode="&#xfb02;" horiz-adv-x="583" 
d="M160 0h-136l86 414h-73l23 103h73l11 51q39 172 190 172q48 0 69 -7l-23 -109q-12 3 -33 3q-56 0 -68 -61l-10 -49h87l-23 -103h-87zM465 0h-136l154 730h136z" />
    <glyph glyph-name="uni00470303" horiz-adv-x="712" 
d="M671 387l-74 -387h-110q-3 27 6 75q-64 -85 -193 -85q-118 0 -180.5 77t-62.5 202q0 62 14.5 123t45 116.5t74 98t106 67.5t136.5 25q120 0 189.5 -61.5t69.5 -159.5h-141q-3 44 -35 76.5t-100 32.5q-53 0 -95.5 -29t-67 -75t-37.5 -98.5t-13 -105.5q0 -83 34.5 -129.5
t104.5 -46.5q79 0 116 42.5t52 115.5l1 3h-159l26 123h293zM352 759h-89l6 32q9 58 36.5 81.5t72.5 23.5q32 0 82 -21t62 -21q13 0 20.5 7t10.5 27l1 8h88l-5 -30q-11 -63 -38 -86.5t-74 -23.5q-34 0 -82 20.5t-60 20.5q-25 0 -29 -24z" />
    <glyph glyph-name="uni00670303" horiz-adv-x="587" 
d="M551 388l-67 -313q-15 -72 -31.5 -116.5t-47.5 -86t-81.5 -61t-123.5 -19.5q-55 0 -96 12t-62.5 28t-34 40.5t-16 43t-3.5 40.5h138q4 -62 85 -62q57 0 86 36t48 122l3 16q-50 -62 -144 -62q-82 0 -127 55t-45 146q0 78 30.5 150.5t92 121.5t140.5 49q56 0 90.5 -17.5
t46.5 -44.5q2 8 18 52h130q-21 -92 -29 -130zM316 418q-66 0 -103.5 -62t-37.5 -139q0 -101 84 -101q104 0 138 156q31 146 -81 146zM279 589h-88l7 39q11 58 36.5 79t67.5 21q32 0 74 -23t53 -23q24 0 32 38l2 9h87l-6 -31q-11 -64 -38.5 -87.5t-72.5 -23.5q-33 0 -72 22
t-51 22q-22 0 -28 -27z" />
    <glyph glyph-name="zero.slash" horiz-adv-x="585" 
d="M372 670q91 0 140.5 -58.5t49.5 -154.5q0 -79 -16.5 -157t-51.5 -150.5t-98.5 -117t-146.5 -44.5q-97 0 -147 58.5t-50 168.5q0 74 19 150.5t56 146t101 114t144 44.5zM355 559q-49 0 -89.5 -53t-61 -124.5t-24.5 -144.5l239 291q-20 31 -64 31zM263 99q42 0 76.5 38
t54 94.5t30.5 112t12 100.5l-244 -300q21 -45 71 -45z" />
    <glyph glyph-name="zero.slashtab" horiz-adv-x="569" 
d="M361 670q91 0 140.5 -58.5t49.5 -154.5q0 -79 -16.5 -157t-51.5 -150.5t-98.5 -117t-146.5 -44.5q-97 0 -147 58.5t-50 168.5q0 74 19 150.5t56 146t101 114t144 44.5zM344 559q-49 0 -89.5 -53t-61 -124.5t-24.5 -144.5l239 291q-20 31 -64 31zM252 99q42 0 76.5 38
t54 94.5t30.5 112t12 100.5l-244 -300q21 -45 71 -45z" />
    <glyph glyph-name="zero.tab" horiz-adv-x="569" 
d="M355 670q97 0 147.5 -61t50.5 -162q0 -57 -9.5 -116.5t-32.5 -122t-57 -110.5t-89 -79t-123 -31q-98 0 -149.5 59.5t-51.5 161.5q0 55 9.5 114.5t33.5 122.5t58.5 112t90 80.5t122.5 31.5zM341 559q-52 0 -90 -62t-53.5 -138.5t-15.5 -148.5q0 -111 73 -111q42 0 75 41
t50.5 101.5t26 116t8.5 96.5q0 105 -74 105z" />
    <glyph glyph-name="one.tab" horiz-adv-x="569" 
d="M448 0h-413l25 115h140l82 384q-54 -13 -127 -11l25 104q114 12 179 66h90l-114 -543h138z" />
    <glyph glyph-name="two.tab" horiz-adv-x="569" 
d="M464 0h-458l5 23q17 81 73.5 153t177.5 149q82 51 110 82t28 79q0 75 -73 75q-45 0 -69 -27.5t-37 -84.5h-132q7 44 23 80.5t43.5 69.5t73.5 52t106 19q105 0 154.5 -54t49.5 -128q0 -79 -37.5 -126.5t-132.5 -107.5q-53 -32 -79 -49.5t-53 -42t-41 -49.5h308z" />
    <glyph glyph-name="three.tab" horiz-adv-x="569" 
d="M236 482h-136q18 82 75.5 134t158.5 52q98 0 148.5 -47t50.5 -115q0 -116 -105 -155v-3q33 -16 57.5 -50.5t24.5 -86.5q0 -102 -69.5 -161.5t-186.5 -59.5q-112 0 -166 55.5t-54 145.5h135q7 -92 96 -92q50 0 77.5 30t27.5 77q0 87 -106 87h-41l22 110h38q55 0 83.5 19.5
t28.5 69.5q0 67 -71 67q-37 0 -56.5 -21t-31.5 -56z" />
    <glyph glyph-name="four.tab" horiz-adv-x="569" 
d="M405 0h-128l33 152h-288l28 123l336 383h159l-85 -396h81l-36 -110h-67zM332 262l30 132q18 85 37 147q-17 -27 -57 -76.5t-93.5 -112.5t-74.5 -90h158z" />
    <glyph glyph-name="five.tab" horiz-adv-x="569" 
d="M550 658l-43 -114h-257q-21 -76 -38 -129q43 31 112 31q83 0 131 -52t48 -136q0 -117 -71 -192.5t-196 -75.5q-101 0 -158.5 52t-59.5 142h134q3 -39 26 -62t67 -23q54 0 85.5 38t31.5 99q0 98 -91 98q-70 0 -106 -64l-112 27q52 145 105 361h392z" />
    <glyph glyph-name="six.tab" horiz-adv-x="569" 
d="M557 495h-133q-8 64 -77 64q-100 0 -140 -171q53 53 140 53q82 0 130 -52.5t48 -141.5q0 -106 -68.5 -182t-186.5 -76q-113 0 -166.5 65.5t-53.5 180.5q0 48 8.5 101t30.5 113t54.5 107.5t88 79t123.5 31.5q103 0 152.5 -50t49.5 -122zM269 99q55 0 85 41.5t30 98.5
q0 95 -88 95q-54 0 -83.5 -37t-29.5 -92q0 -46 22 -76t64 -30z" />
    <glyph glyph-name="seven.tab" horiz-adv-x="569" 
d="M141 658h446l-23 -109q-103 -106 -194.5 -254t-151.5 -295h-151q53 140 154.5 290.5t198.5 253.5h-304z" />
    <glyph glyph-name="eight.tab" horiz-adv-x="569" 
d="M245 -12q-98 0 -157.5 50.5t-59.5 136.5q0 63 37.5 109.5t103.5 68.5q-27 16 -46.5 49t-19.5 72q0 87 62.5 141.5t168.5 54.5q92 0 145.5 -45t53.5 -117q0 -57 -28.5 -99.5t-72.5 -62.5q78 -42 78 -137q0 -97 -72 -159t-193 -62zM325 564q-43 0 -67.5 -25t-24.5 -67
q0 -31 20 -50.5t58 -19.5q45 0 68 24.5t23 65.5q0 31 -19 51.5t-58 20.5zM260 95q52 0 82.5 33t30.5 82q0 42 -25.5 64t-68.5 22q-51 0 -82 -31.5t-31 -79.5q0 -41 24.5 -65.5t69.5 -24.5z" />
    <glyph glyph-name="nine.tab" horiz-adv-x="569" 
d="M30 163h133q7 -31 25 -48t56 -17q104 0 147 182q-45 -48 -135 -48q-81 0 -133 51t-52 139q0 99 69 172.5t183 73.5q110 0 163 -64t53 -172q0 -41 -5.5 -84.5t-18 -95.5t-36 -97t-56 -83t-82 -60t-110.5 -22q-104 0 -150 49.5t-51 123.5zM320 560q-52 0 -81.5 -37.5
t-29.5 -93.5q0 -43 23.5 -66.5t62.5 -23.5q54 0 82.5 33.5t28.5 85.5q0 102 -86 102z" />
    <glyph glyph-name="zero.slashcap" horiz-adv-x="612" 
d="M378 700q102 0 156 -62.5t54 -175.5q0 -60 -10 -121.5t-35 -125.5t-61 -113t-93.5 -80.5t-128.5 -31.5q-101 0 -154.5 63t-53.5 180q0 58 11.5 120.5t38 125t63 111.5t92 79.5t121.5 30.5zM370 593q-52 0 -94.5 -56t-64.5 -135.5t-24 -160.5l256 310q-20 42 -73 42z
M274 97q43 0 79.5 39.5t57.5 98.5t33 119t13 109l-258 -314q21 -52 75 -52z" />
    <glyph glyph-name="zero.cap" horiz-adv-x="612" 
d="M378 700q102 0 156 -62.5t54 -175.5q0 -60 -10 -121.5t-34.5 -125.5t-60.5 -113t-93.5 -80.5t-127.5 -31.5q-104 0 -157 62.5t-53 180.5q0 75 19 153t56 150t102.5 118t148.5 46zM368 587q-53 0 -94 -63t-59.5 -144.5t-18.5 -157.5q0 -119 82 -119q44 0 78.5 42.5
t53.5 105t28.5 122t9.5 104.5q0 110 -80 110z" />
    <glyph glyph-name="one.cap" horiz-adv-x="380" 
d="M236 0h-139l113 520q-49 -20 -141 -23l26 107q57 8 112.5 33t85.5 52h91z" />
    <glyph glyph-name="two.cap" horiz-adv-x="555" 
d="M465 0h-481l4 19q19 91 76 166.5t191 160.5q88 55 117 86.5t29 82.5q0 31 -18.5 52t-59.5 21q-84 0 -112 -106h-137q19 96 82 156.5t179 60.5q108 0 159 -54.5t51 -132.5q0 -44 -11 -77.5t-38.5 -63t-55.5 -50.5t-79 -53q-83 -53 -125 -88t-60 -67h330z" />
    <glyph glyph-name="three.cap" horiz-adv-x="561" 
d="M229 511h-138q20 83 80 135.5t167 52.5q102 0 153.5 -48t51.5 -122q0 -60 -30 -100.5t-83 -58.5l-1 -1q92 -42 92 -151q0 -103 -72.5 -165.5t-193.5 -62.5q-114 0 -172.5 58t-59.5 151h135q4 -46 31 -72.5t76 -26.5q54 0 83.5 31.5t29.5 82.5q0 46 -26 70.5t-90 24.5h-42
l23 116h39q60 0 90.5 21.5t30.5 70.5q0 72 -76 72q-41 0 -62.5 -21.5t-35.5 -56.5z" />
    <glyph glyph-name="four.cap" horiz-adv-x="572" 
d="M419 0h-134l35 162h-302l29 125l351 402h167l-89 -414h85l-38 -113h-70zM342 275l32 138q24 108 39 157q-18 -28 -61.5 -81t-100 -119.5t-79.5 -94.5h170z" />
    <glyph glyph-name="five.cap" horiz-adv-x="577" 
d="M582 689l-33 -116h-277q-14 -51 -42 -139q47 33 118 33q88 0 138.5 -54.5t50.5 -144.5q0 -120 -74 -199t-211 -79q-100 0 -161.5 51.5t-61.5 148.5h136q2 -36 27 -62t73 -26q61 0 95.5 43t34.5 101q0 108 -98 108q-77 0 -116 -72l-116 29q59 164 111 378h406z" />
    <glyph glyph-name="six.cap" horiz-adv-x="590" 
d="M576 515h-131q-8 75 -86 75q-53 0 -91 -48.5t-56 -137.5q55 57 150 57q82 0 134 -53t52 -141q0 -117 -73 -197.5t-197 -80.5q-111 0 -168.5 66.5t-57.5 189.5q0 51 8.5 107.5t31.5 119.5t57 112.5t90.5 82t126.5 32.5q58 0 101 -17t65.5 -45t33 -58.5t10.5 -63.5z
M284 100q58 0 90 45t32 107q0 102 -93 102q-58 0 -89.5 -40.5t-31.5 -104.5q0 -47 22.5 -78t69.5 -31z" />
    <glyph glyph-name="seven.cap" horiz-adv-x="504" 
d="M98 689h464l-25 -112q-107 -117 -202.5 -272.5t-155.5 -304.5h-153q54 150 159 312.5t200 260.5h-314z" />
    <glyph glyph-name="eight.cap" horiz-adv-x="563" 
d="M246 -13q-104 0 -166.5 51t-62.5 140q0 66 38 115t107 73q-29 17 -47.5 50t-18.5 75q0 88 64 148t175 60q97 0 154 -46t57 -122q0 -64 -31 -109t-79 -63q37 -20 60 -56.5t23 -84.5q0 -102 -73 -166.5t-200 -64.5zM329 593q-46 0 -73.5 -28.5t-27.5 -72.5q0 -35 21 -56
t61 -21q48 0 75.5 26.5t27.5 70.5q0 34 -19.5 57.5t-64.5 23.5zM256 97q60 0 92 33.5t32 85.5q0 45 -27 68.5t-74 23.5q-54 0 -88 -32.5t-34 -86.5q0 -42 25 -67t74 -25z" />
    <glyph glyph-name="nine.cap" horiz-adv-x="590" 
d="M37 173h135q12 -74 89 -74q107 0 151 197q-45 -51 -141 -51q-86 0 -139.5 55t-53.5 145q0 104 71 179t192 75q115 0 170.5 -69t55.5 -181q0 -39 -5 -82.5t-17 -97.5t-35.5 -101.5t-56.5 -88.5t-84.5 -65t-115.5 -24q-59 0 -102.5 16.5t-67 44t-34.5 58t-12 64.5zM332 589
q-53 0 -83.5 -38.5t-30.5 -95.5q0 -46 24.5 -73.5t70.5 -27.5q56 0 85 37.5t29 93.5q0 104 -95 104z" />
    <glyph glyph-name="period.sups" horiz-adv-x="184" 
d="M133 424h-109l28 129h108z" />
    <glyph glyph-name="comma.sups" horiz-adv-x="184" 
d="M71 352h-91q52 99 69 198h109q-32 -130 -87 -198z" />
    <glyph glyph-name="dollar.sups" horiz-adv-x="405" 
d="M213 363h-91l14 64q-103 23 -106 121h110q4 -52 71 -52q63 0 63 40q0 16 -14.5 24.5t-59.5 20.5q-71 19 -102 46t-31 70q0 57 42 90.5t112 37.5l9 45h91l-11 -54q88 -23 92 -112h-106q-5 47 -67 47q-55 0 -55 -37q0 -14 15.5 -21.5t60.5 -19.5q74 -20 104 -48t30 -73
q0 -58 -43.5 -92t-114.5 -39z" />
    <glyph glyph-name="cent.sups" horiz-adv-x="404" 
d="M285 576h105q-25 -95 -140 -110l-12 -57h-91l13 58q-52 11 -78.5 46t-26.5 86q0 74 47.5 123.5t125.5 59.5l9 45h91l-10 -49q50 -13 70.5 -45t19.5 -66h-107q-5 44 -56 44q-37 0 -61 -31.5t-24 -76.5q0 -67 60 -67q42 0 65 40z" />
    <glyph glyph-name="hyphen.sups" horiz-adv-x="234" 
d="M65 665h170l-20 -88h-170z" />
    <glyph glyph-name="period.subs" horiz-adv-x="184" 
d="M6 -177h-109l28 129h108z" />
    <glyph glyph-name="comma.subs" horiz-adv-x="184" 
d="M-56 -249h-91q52 99 69 198h109q-32 -130 -87 -198z" />
    <glyph glyph-name="dollar.subs" horiz-adv-x="405" 
d="M86 -238h-91l14 64q-103 23 -106 121h110q4 -52 71 -52q63 0 63 40q0 16 -14.5 24.5t-59.5 20.5q-71 19 -102 46t-31 70q0 57 42 90.5t112 37.5l9 45h91l-11 -54q88 -23 92 -112h-106q-5 47 -67 47q-55 0 -55 -37q0 -13 15.5 -21t60.5 -20q74 -20 104 -48t30 -73
q0 -58 -43.5 -92t-114.5 -39z" />
    <glyph glyph-name="cent.subs" horiz-adv-x="404" 
d="M158 -25h105q-25 -95 -140 -110l-12 -57h-91l13 58q-52 11 -78.5 46t-26.5 86q0 74 47.5 123.5t125.5 59.5l9 45h91l-10 -49q50 -13 70.5 -45t19.5 -66h-107q-5 44 -56 44q-37 0 -61 -31.5t-24 -76.5q0 -67 60 -67q42 0 65 40z" />
    <glyph glyph-name="hyphen.subs" horiz-adv-x="234" 
d="M-62 64h170l-20 -88h-170z" />
    <glyph glyph-name="zero.numr" horiz-adv-x="398" 
d="M273 663q71 0 108.5 -41t37.5 -111q0 -106 -53.5 -180.5t-154.5 -74.5q-71 0 -109 41.5t-38 115.5q0 43 13 86t37.5 80t65.5 60.5t93 23.5zM263 576q-24 0 -42.5 -18t-28 -45t-14 -53.5t-4.5 -48.5q0 -69 50 -69q24 0 42 19t27 48t13.5 55.5t4.5 47.5q0 64 -48 64z" />
    <glyph glyph-name="one.numr" horiz-adv-x="260" 
d="M199 260h-108l61 289q-12 -1 -24.5 -1t-25 0.5t-17.5 0.5l17 75q69 3 108 38h75z" />
    <glyph glyph-name="two.numr" horiz-adv-x="366" 
d="M340 261h-304l3 12q15 58 47.5 103t112.5 89q54 29 70 42.5t16 32.5q0 38 -43 38q-45 0 -62 -55h-99q30 140 173 140q68 0 104 -35.5t36 -82.5q0 -45 -24.5 -75t-87.5 -62q-74 -37 -92 -65h181z" />
    <glyph glyph-name="three.numr" horiz-adv-x="378" 
d="M53 383h104q2 -21 16 -35.5t42 -14.5q59 0 59 50q0 41 -57 41h-36l19 84h30q57 0 57 44q0 34 -41 34t-56 -40h-99q29 117 166 117q65 0 101.5 -29t36.5 -74q0 -68 -71 -89q20 -7 39.5 -27.5t19.5 -54.5q0 -60 -46 -96t-129 -36q-85 0 -123 41t-32 85z" />
    <glyph glyph-name="four.numr" horiz-adv-x="379" 
d="M310 262h-99l20 93h-191l17 77l202 226h135l-49 -228h57l-24 -75h-49zM156 430h90l14 59q21 87 21 88q-20 -26 -125 -147z" />
    <glyph glyph-name="five.numr" horiz-adv-x="383" 
d="M413 658l-27 -83h-178q-1 -4 -8.5 -29.5t-10.5 -36.5q34 18 75 18q58 0 89.5 -33.5t31.5 -81.5q0 -74 -51.5 -114.5t-129.5 -40.5q-76 0 -113 36t-38 85h103q6 -44 54 -44q29 0 47 17.5t18 47.5q0 52 -50 52q-41 0 -62 -30l-90 14q33 92 67 223h273z" />
    <glyph glyph-name="six.numr" horiz-adv-x="387" 
d="M411 549h-103q-5 35 -48 35q-30 0 -51 -23.5t-29 -64.5q36 30 93 30q55 0 88.5 -32.5t33.5 -85.5q0 -65 -47 -108.5t-129 -43.5q-71 0 -113.5 42.5t-42.5 122.5q0 93 52.5 167.5t151.5 74.5q66 0 104.5 -31t39.5 -83zM223 337q27 0 44.5 17.5t17.5 47.5q0 23 -13 37
t-38 14q-26 0 -44 -18t-18 -46q0 -22 12.5 -37t38.5 -15z" />
    <glyph glyph-name="seven.numr" horiz-adv-x="352" 
d="M113 658h296l-15 -74q-60 -61 -115.5 -147.5t-90.5 -175.5h-121q32 86 93.5 174.5t117.5 139.5h-181z" />
    <glyph glyph-name="eight.numr" horiz-adv-x="377" 
d="M210 256q-72 0 -112.5 31.5t-40.5 76.5q0 73 83 104q-39 25 -39 71q0 58 45 91t117 33q68 0 106 -30.5t38 -72.5q0 -67 -69 -92q52 -27 52 -80q0 -64 -52.5 -98t-127.5 -34zM257 592q-23 0 -39.5 -13.5t-16.5 -37.5q0 -39 46 -39q23 0 40 13t17 36q0 18 -12 29.5
t-35 11.5zM220 327q29 0 47.5 14t18.5 42q0 21 -14.5 33.5t-42.5 12.5q-30 0 -48 -14.5t-18 -41.5q0 -19 16 -32.5t41 -13.5z" />
    <glyph glyph-name="nine.numr" horiz-adv-x="385" 
d="M54 374h109q5 -40 50 -40q56 0 75 88q-29 -24 -88 -24q-53 0 -88.5 30.5t-35.5 82.5q0 65 48 108.5t123 43.5q77 0 118.5 -42.5t41.5 -115.5q0 -44 -10.5 -85.5t-33 -79.5t-63.5 -61t-96 -23q-72 0 -110 33.5t-40 84.5zM244 585q-27 0 -44 -17t-17 -44q0 -50 54 -50
q27 0 43.5 15.5t16.5 40.5q0 55 -53 55z" />
    <glyph glyph-name="parenleft.numr" horiz-adv-x="236" 
d="M216 704h93q-72 -68 -105.5 -140t-33.5 -170q0 -112 32 -193h-85q-37 82 -37 188q0 199 136 315z" />
    <glyph glyph-name="parenright.numr" horiz-adv-x="236" 
d="M102 201h-93q73 74 106 145.5t33 168.5q0 109 -32 189h85q38 -92 38 -188q0 -91 -35.5 -175.5t-101.5 -139.5z" />
    <glyph glyph-name="period.numr" horiz-adv-x="184" 
d="M153 257h-109l28 129h108z" />
    <glyph glyph-name="comma.numr" horiz-adv-x="184" 
d="M91 185h-91q52 99 69 198h109q-32 -130 -87 -198z" />
    <glyph glyph-name="dollar.numr" horiz-adv-x="405" 
d="M233 196h-91l14 64q-103 23 -106 121h110q4 -52 71 -52q63 0 63 40q0 16 -14.5 24.5t-59.5 20.5q-71 19 -102 46t-31 70q0 57 42 90.5t112 37.5l9 45h91l-11 -54q88 -23 92 -112h-106q-5 47 -67 47q-55 0 -55 -37q0 -13 15.5 -21t60.5 -20q74 -20 104 -48t30 -73
q0 -58 -43.5 -92t-114.5 -39z" />
    <glyph glyph-name="cent.numr" horiz-adv-x="404" 
d="M305 409h105q-25 -95 -140 -110l-12 -57h-91l13 58q-52 11 -78.5 46t-26.5 86q0 74 47.5 123.5t125.5 59.5l9 45h91l-10 -49q50 -13 70.5 -45t19.5 -66h-107q-5 44 -56 44q-37 0 -61 -31.5t-24 -76.5q0 -67 60 -67q42 0 65 40z" />
    <glyph glyph-name="hyphen.numr" horiz-adv-x="234" 
d="M85 498h170l-20 -88h-170z" />
    <glyph glyph-name="zero.dnom" horiz-adv-x="398" 
d="M215 401q71 0 108.5 -41t37.5 -111q0 -106 -53.5 -180.5t-154.5 -74.5q-71 0 -109 41.5t-38 115.5q0 43 13 86t37.5 80t65.5 60.5t93 23.5zM205 314q-24 0 -42.5 -18t-28 -45t-14 -53.5t-4.5 -48.5q0 -69 50 -69q24 0 42 19t27 48t13.5 55.5t4.5 47.5q0 64 -48 64z" />
    <glyph glyph-name="one.dnom" horiz-adv-x="260" 
d="M141 -2h-108l61 289h-67l17 75q69 3 108 38h75z" />
    <glyph glyph-name="two.dnom" horiz-adv-x="366" 
d="M282 -1h-304l3 12q15 58 47.5 103t112.5 89q54 29 70 42.5t16 32.5q0 38 -43 38q-45 0 -62 -55h-99q30 140 173 140q68 0 104 -35.5t36 -82.5q0 -45 -24.5 -75t-87.5 -62q-74 -37 -92 -65h181z" />
    <glyph glyph-name="three.dnom" horiz-adv-x="378" 
d="M-5 121h104q2 -21 16 -35.5t42 -14.5q59 0 59 50q0 41 -57 41h-36l19 84h30q57 0 57 44q0 34 -41 34t-56 -40h-99q29 117 166 117q65 0 101.5 -29t36.5 -74q0 -68 -71 -89q20 -7 39.5 -27.5t19.5 -54.5q0 -60 -46 -96t-129 -36q-85 0 -123 41t-32 85z" />
    <glyph glyph-name="four.dnom" horiz-adv-x="379" 
d="M252 0h-99l20 93h-191l17 77l202 226h135l-49 -228h57l-24 -75h-49zM98 168h90l14 59q21 87 21 88q-20 -26 -125 -147z" />
    <glyph glyph-name="five.dnom" horiz-adv-x="383" 
d="M355 396l-27 -83h-178q-1 -4 -8.5 -29.5t-10.5 -36.5q34 18 75 18q58 0 89.5 -33.5t31.5 -81.5q0 -74 -51.5 -114.5t-129.5 -40.5q-76 0 -113 36t-38 85h103q6 -44 54 -44q29 0 47 17.5t18 47.5q0 52 -50 52q-41 0 -62 -30l-90 14q33 92 67 223h273z" />
    <glyph glyph-name="six.dnom" horiz-adv-x="387" 
d="M353 287h-103q-5 35 -48 35q-30 0 -51 -23.5t-29 -64.5q36 30 93 30q55 0 88.5 -32.5t33.5 -85.5q0 -65 -47 -108.5t-129 -43.5q-71 0 -113.5 42.5t-42.5 122.5q0 93 52.5 167.5t151.5 74.5q66 0 104.5 -31t39.5 -83zM165 75q27 0 44.5 17.5t17.5 47.5q0 23 -13 37
t-38 14q-26 0 -44 -18t-18 -46q0 -22 12.5 -37t38.5 -15z" />
    <glyph glyph-name="seven.dnom" horiz-adv-x="352" 
d="M55 396h296l-15 -74q-60 -61 -115.5 -147.5t-90.5 -175.5h-121q32 86 93.5 174.5t117.5 139.5h-181z" />
    <glyph glyph-name="eight.dnom" horiz-adv-x="377" 
d="M152 -6q-72 0 -112.5 31.5t-40.5 76.5q0 73 83 104q-39 25 -39 71q0 58 45 91t117 33q68 0 106 -30.5t38 -72.5q0 -67 -69 -92q52 -27 52 -80q0 -64 -52.5 -98t-127.5 -34zM199 330q-23 0 -39.5 -13.5t-16.5 -37.5q0 -39 46 -39q23 0 40 13t17 36q0 18 -12 29.5t-35 11.5
zM162 65q29 0 47.5 14t18.5 42q0 21 -14.5 33.5t-42.5 12.5q-30 0 -48 -14.5t-18 -41.5q0 -19 16 -32.5t41 -13.5z" />
    <glyph glyph-name="nine.dnom" horiz-adv-x="385" 
d="M-4 112h109q5 -40 50 -40q56 0 75 88q-29 -24 -88 -24q-53 0 -88.5 30.5t-35.5 82.5q0 65 48 108.5t123 43.5q77 0 118.5 -42.5t41.5 -115.5q0 -44 -10.5 -85.5t-33 -79.5t-63.5 -61t-96 -23q-72 0 -110 33.5t-40 84.5zM186 323q-27 0 -44 -17t-17 -44q0 -50 54 -50
q27 0 43.5 15.5t16.5 40.5q0 55 -53 55z" />
    <glyph glyph-name="parenleft.dnom" horiz-adv-x="236" 
d="M158 442h93q-72 -68 -105.5 -140t-33.5 -170q0 -112 32 -193h-85q-37 82 -37 188q0 199 136 315z" />
    <glyph glyph-name="parenright.dnom" horiz-adv-x="236" 
d="M44 -61h-93q73 74 106 145.5t33 168.5q0 109 -32 189h85q38 -92 38 -188q0 -91 -35.5 -175.5t-101.5 -139.5z" />
    <glyph glyph-name="period.dnom" horiz-adv-x="184" 
d="M95 -5h-109l28 129h108z" />
    <glyph glyph-name="comma.dnom" horiz-adv-x="184" 
d="M33 -77h-91q52 99 69 198h109q-32 -130 -87 -198z" />
    </font>
</defs>
</svg>
