<?xml version="1.0" standalone="no"?>
<!DOCTYPE svg PUBLIC "-//W3C//DTD SVG 1.1//EN" "http://www.w3.org/Graphics/SVG/1.1/DTD/svg11.dtd" >
<svg xmlns="http://www.w3.org/2000/svg" xmlns:xlink="http://www.w3.org/1999/xlink" version="1.1">
<metadata>
Created by FontForge 20170731 at Tue Apr  5 15:39:06 2016
 By Aleksey,,,
(c) 2014 Adobe Systems Incorporated. All Rights Reserved.
</metadata>
<defs>
<font id="AcuminPro-UltraBlackItalic" horiz-adv-x="400" >
  <font-face 
    font-family="Acumin Pro"
    font-weight="950"
    font-style="italic"
    font-stretch="normal"
    units-per-em="1000"
    panose-1="2 11 10 4 2 2 2 9 2 4"
    ascent="735"
    descent="-265"
    x-height="532"
    cap-height="690"
    bbox="-369 -269 1354 1071"
    underline-thickness="50"
    underline-position="-200"
    slope="-12"
    unicode-range="U+0020-FB02"
  />
<missing-glyph horiz-adv-x="500" 
d="M0 0v700h500v-700h-500zM250 395l170 255h-340zM280 350l170 -255v510zM80 50h340l-170 255zM50 605v-510l170 255z" />
    <glyph glyph-name="f_f" unicode="ff" horiz-adv-x="790" 
d="M472 380h-123l-81 -380h-254l81 380h-62l32 152h62v2q23 107 78 149.5t166 42.5q69 0 96 -8l-30 -136q-9 1 -20 1q-24 0 -31 -28l-5 -23h123v2q23 105 73.5 148.5t155.5 43.5q81 0 112 -9l-31 -136q-12 2 -20 2q-24 0 -31 -28l-5 -23h66l-32 -152h-66l-81 -380h-254z" />
    <glyph glyph-name=".notdef" horiz-adv-x="500" 
d="M0 0v700h500v-700h-500zM250 395l170 255h-340zM280 350l170 -255v510zM80 50h340l-170 255zM50 605v-510l170 255z" />
    <glyph glyph-name=".null" horiz-adv-x="0" 
 />
    <glyph glyph-name="nonmarkingreturn" horiz-adv-x="333" 
 />
    <glyph glyph-name="space" unicode=" " horiz-adv-x="190" 
 />
    <glyph glyph-name="exclam" unicode="!" horiz-adv-x="388" 
d="M313 281h-202l28 295l24 114h271l-24 -115zM277 0h-252l48 225h252z" />
    <glyph glyph-name="quotedbl" unicode="&#x22;" horiz-adv-x="472" 
d="M212 355h-145l25 209l33 155h185l-33 -157zM442 355h-143l24 209l33 155h185l-33 -157z" />
    <glyph glyph-name="numbersign" unicode="#" horiz-adv-x="629" 
d="M257 0l47 126h-95l-47 -126h-130l47 126h-63l29 166h97l36 95h-72l29 166h105l41 109h128l-41 -109h97l41 109h128l-41 -109h57l-30 -166h-89l-35 -95h78l-30 -166h-110l-47 -126h-130zM367 292l36 95h-97l-35 -95h96z" />
    <glyph glyph-name="dollar" unicode="$" horiz-adv-x="639" 
d="M315 -80h-147l17 80q-187 32 -175 199h216q3 -61 66 -61q25 0 37.5 11.5t12.5 27.5q0 18 -13 30t-51 27q-122 47 -165.5 92t-43.5 116q0 95 66 157t193 71l11 49h147l-13 -59q161 -38 154 -189h-213q1 13 -1 24.5t-15 23t-37 11.5q-23 0 -33.5 -10.5t-10.5 -24.5
t13.5 -25t50.5 -26q90 -35 138.5 -71.5t63 -69t14.5 -78.5q0 -101 -71.5 -160t-194.5 -70z" />
    <glyph glyph-name="percent" unicode="%" horiz-adv-x="953" 
d="M305 674q82 0 126.5 -39t44.5 -111q0 -99 -63.5 -170.5t-172.5 -71.5q-86 0 -128 40.5t-42 114.5q0 39 13.5 79t40 76.5t73.5 59t108 22.5zM297 569q-30 0 -46.5 -52t-16.5 -93q0 -40 22 -40q32 0 47.5 56t15.5 98q0 31 -22 31zM263 0h-107l572 662h102zM752 382
q82 0 126.5 -39t44.5 -111q0 -99 -63.5 -170.5t-172.5 -71.5q-86 0 -128 40.5t-42 114.5q0 39 13.5 79t40 76.5t73.5 59t108 22.5zM744 277q-30 0 -46.5 -52t-16.5 -93q0 -40 22 -40q32 0 47.5 56t15.5 98q0 31 -22 31z" />
    <glyph glyph-name="ampersand" unicode="&#x26;" horiz-adv-x="917" 
d="M336 150q33 0 59 16l-115 111q-26 -24 -26 -54q0 -32 21.5 -52.5t60.5 -20.5zM673 420h249l-246 -233l189 -187h-298l-52 50q-101 -65 -232 -65q-122 0 -189 56.5t-67 142.5q0 69 41 113t126 83q-45 55 -45 109q0 98 70.5 157t192.5 59q112 0 178 -47t66 -124
q0 -65 -40 -102.5t-116 -69.5l55 -54zM412 576q-19 0 -31.5 -14t-12.5 -35q0 -33 35 -71q46 32 46 76q0 20 -10 32t-27 12z" />
    <glyph glyph-name="quotesingle" unicode="'" horiz-adv-x="256" 
d="M228 355h-162l26 209l33 152h200l-33 -154z" />
    <glyph glyph-name="parenleft" unicode="(" horiz-adv-x="387" 
d="M308 720h178q-123 -130 -186.5 -266.5t-63.5 -304.5q0 -185 58 -328h-178q-34 69 -53.5 161t-19.5 176q0 176 68.5 319.5t196.5 242.5z" />
    <glyph glyph-name="parenright" unicode=")" horiz-adv-x="387" 
d="M90 -179h-178q123 130 186.5 266.5t63.5 304.5q0 185 -58 328h178q34 -69 53.5 -161t19.5 -176q0 -176 -68.5 -319.5t-196.5 -242.5z" />
    <glyph glyph-name="asterisk" unicode="*" horiz-adv-x="487" 
d="M253 690h161l-87 -171l139 130l50 -148l-172 -31l154 -41l-112 -140l-79 132l14 -165h-161l82 159l-137 -119l-48 147l172 30l-154 41l112 140l83 -130z" />
    <glyph glyph-name="plus" unicode="+" horiz-adv-x="617" 
d="M227 530h167v-186h179v-161h-179v-183h-167v183h-183v161h183v186z" />
    <glyph glyph-name="comma" unicode="," horiz-adv-x="291" 
d="M96 -94h-175q98 166 130 333h207q-19 -84 -62.5 -176t-99.5 -157z" />
    <glyph glyph-name="hyphen" unicode="-" horiz-adv-x="364" 
d="M49 351h304l-37 -174h-304z" />
    <glyph glyph-name="period" unicode="." horiz-adv-x="274" 
d="M190 1h-215l47 226h215z" />
    <glyph glyph-name="slash" unicode="/" horiz-adv-x="393" 
d="M118 -37h-153l338 733h154z" />
    <glyph glyph-name="zero" unicode="0" horiz-adv-x="659" 
d="M393 676q129 0 194.5 -66.5t65.5 -183.5q0 -51 -9 -105t-34 -115.5t-63 -109t-102.5 -79t-146.5 -31.5q-134 0 -195.5 68.5t-61.5 186.5q0 55 11 112t38 116t66 104.5t100.5 74t136.5 28.5zM389 531q-14 0 -25.5 -14t-26 -58t-30.5 -123q-12 -58 -18.5 -95t-7 -62.5
t5.5 -36t18 -10.5q23 0 41 45t41 156q13 62 19 93.5t7.5 59t-4.5 36.5t-20 9z" />
    <glyph glyph-name="one" unicode="1" horiz-adv-x="404" 
d="M282 0h-248l97 451q-57 4 -74 11l31 145q105 6 172 55h163z" />
    <glyph glyph-name="two" unicode="2" horiz-adv-x="618" 
d="M520 0h-535l6 28q25 117 79 187.5t166 138.5q93 57 113 76q25 26 25 64q0 35 -28 35q-22 0 -35 -21t-24 -70h-223q44 236 299 236q127 0 192 -52.5t65 -140.5q0 -77 -37.5 -123.5t-136.5 -98.5q-110 -58 -130 -89h267z" />
    <glyph glyph-name="three" unicode="3" horiz-adv-x="613" 
d="M289 476h-217q7 38 24.5 70t49.5 63t86.5 48.5t126.5 17.5q123 0 189.5 -44.5t66.5 -123.5q0 -113 -138 -149v-2q39 -12 72.5 -48t33.5 -95q0 -102 -77.5 -164.5t-228.5 -62.5q-80 0 -135.5 17t-84 47.5t-39.5 65.5t-9 79h229q-4 -75 34 -75q25 0 39 32.5t14 72.5
q0 29 -15 43.5t-55 14.5h-52l32 144h48q88 0 88 78q0 35 -29 35q-19 0 -31 -15t-22 -49z" />
    <glyph glyph-name="four" unicode="4" horiz-adv-x="630" 
d="M493 0h-230l27 131h-292l32 149l291 382h312l-78 -362h70l-46 -169h-59zM325 300l9 38q15 70 42 165q-32 -56 -130 -203h79z" />
    <glyph glyph-name="five" unicode="5" horiz-adv-x="640" 
d="M665 662l-62 -173h-261l-22 -71q40 23 118 23q81 0 130 -46.5t49 -127.5q0 -122 -81 -202t-245 -80q-269 0 -269 199h238q-3 -58 28 -58q18 0 31 14t19.5 36t9.5 41.5t3 35.5q0 46 -33 46q-31 0 -54 -41l-215 14q10 30 31 102.5t47.5 164.5t35.5 123h502z" />
    <glyph glyph-name="six" unicode="6" horiz-adv-x="653" 
d="M651 486h-214q2 28 -5.5 42t-29.5 14q-56 0 -83 -142q47 46 136 46q78 0 125.5 -46t47.5 -127q0 -133 -88 -210t-233 -77q-135 0 -200.5 69t-65.5 197q0 47 9 98.5t34 111t63 106t102.5 77.5t145.5 31q256 0 256 -190zM312 125q27 0 43 45.5t16 94.5q0 43 -32 43
q-28 0 -44 -42t-16 -94q0 -47 33 -47z" />
    <glyph glyph-name="seven" unicode="7" horiz-adv-x="566" 
d="M97 662h531l-32 -150q-103 -115 -187 -250.5t-128 -261.5h-266q39 116 136.5 261.5t188.5 225.5h-281z" />
    <glyph glyph-name="eight" unicode="8" horiz-adv-x="655" 
d="M302 -14q-141 0 -214.5 52.5t-73.5 136.5q0 132 151 178q-76 42 -76 118q0 90 70.5 147.5t216.5 57.5q128 0 197.5 -48.5t69.5 -125.5q0 -114 -119 -150q93 -48 93 -143q0 -101 -81 -162t-234 -61zM377 549q-27 0 -41.5 -34.5t-14.5 -68.5q0 -42 32 -42q27 0 41.5 32
t14.5 73q0 40 -32 40zM303 114q30 0 44.5 42t14.5 83q0 40 -32 40q-20 0 -34.5 -22.5t-20 -48t-5.5 -47.5q0 -47 33 -47z" />
    <glyph glyph-name="nine" unicode="9" horiz-adv-x="645" 
d="M22 173h230q2 -47 33 -47q27 0 45 36t35 107q-52 -41 -131 -41q-82 0 -132 47.5t-50 133.5q0 49 18 95t54 85t97.5 63t140.5 24q140 0 209 -71t69 -194q0 -23 -2.5 -50.5t-11.5 -70.5t-24 -82.5t-42.5 -81t-63.5 -71.5t-91 -49.5t-121 -19.5q-64 0 -113 14t-76 34t-44 48
t-22.5 48.5t-6.5 42.5zM376 540q-29 0 -47 -42t-18 -83q0 -44 32 -44q29 0 46 44t17 80q0 45 -30 45z" />
    <glyph glyph-name="colon" unicode=":" horiz-adv-x="348" 
d="M290 304h-215l49 228h215zM226 0h-215l48 227h215z" />
    <glyph glyph-name="semicolon" unicode=";" horiz-adv-x="363" 
d="M305 304h-215l49 228h215zM131 -94h-180q83 133 128 320h207q-18 -78 -61.5 -169t-93.5 -151z" />
    <glyph glyph-name="less" unicode="&#x3c;" horiz-adv-x="505" 
d="M44 188v155l417 189v-170l-221 -97l221 -94v-170z" />
    <glyph glyph-name="equal" unicode="=" horiz-adv-x="617" 
d="M44 220h529v-159h-529v159zM44 469h529v-161h-529v161z" />
    <glyph glyph-name="greater" unicode="&#x3e;" horiz-adv-x="505" 
d="M461 345v-155l-417 -189v170l221 97l-221 94v170z" />
    <glyph glyph-name="question" unicode="?" horiz-adv-x="608" 
d="M437 255h-234q-6 20 0 60q6 38 35 69.5t91 78.5q52 39 57 71q6 37 -20 37q-34 0 -51 -76h-215q15 105 86 157.5t206 52.5q128 0 190 -46t62 -119q0 -56 -31 -96.5t-107 -90.5q-61 -40 -67 -77q-2 -12 -2 -21zM385 0h-246l42 198h246z" />
    <glyph glyph-name="at" unicode="@" horiz-adv-x="950" 
d="M698 -15l30 -99q-102 -61 -268 -61q-172 0 -285.5 108t-113.5 285q0 90 33 172.5t92 146.5t147.5 102t191.5 38q176 0 280.5 -95.5t104.5 -247.5q0 -139 -75.5 -222.5t-194.5 -83.5q-101 0 -120 59q-48 -59 -130 -59q-61 0 -95 44.5t-34 112.5q0 126 57.5 204.5
t141.5 78.5q68 0 86 -44l9 32h178l-55 -262q-9 -43 19 -43q36 0 64 51t28 126q0 109 -68 175t-203 66q-65 0 -122.5 -22t-103.5 -64t-73 -111.5t-27 -156.5q0 -127 79 -202.5t199 -75.5q126 0 228 48zM497 329q-20 0 -35 -47t-15 -93q0 -24 16 -24q25 0 42 84q9 36 8 58
t-16 22z" />
    <glyph glyph-name="A" unicode="A" horiz-adv-x="708" 
d="M403 126h-149l-47 -126h-270l330 690h354l45 -690h-263v126zM322 301h84q0 20 -0.5 99.5t-0.5 113.5h-6q-23 -69 -77 -213z" />
    <glyph glyph-name="B" unicode="B" horiz-adv-x="719" 
d="M-1 0l146 690h341q125 0 181 -47t56 -120q0 -121 -124 -164q45 -17 70 -55t25 -89q0 -94 -76.5 -154.5t-225.5 -60.5h-393zM306 270l-24 -117h57q81 0 81 64q0 53 -64 53h-50zM340 423h55q74 0 74 64q0 21 -13.5 35t-40.5 14h-51z" />
    <glyph glyph-name="C" unicode="C" horiz-adv-x="724" 
d="M450 251h259q-65 -269 -372 -269q-153 0 -227 79t-74 211q0 62 13.5 121.5t44.5 117t76.5 101t115 70t154.5 26.5q156 0 232 -74t68 -188h-258q3 43 -8.5 67t-45.5 24q-31 0 -56 -33t-38.5 -82t-20.5 -96t-7 -83q0 -87 56 -87q34 0 53.5 24.5t34.5 70.5z" />
    <glyph glyph-name="D" unicode="D" horiz-adv-x="753" 
d="M0 0l146 690h293q153 0 233.5 -80t80.5 -210q0 -36 -5 -71.5t-18 -76t-33.5 -76t-53.5 -68.5t-75.5 -56.5t-103 -37.5t-132.5 -14h-332zM374 522l-76 -354h54q33 0 59.5 28t40.5 70t21 83t7 74q0 52 -16 75.5t-57 23.5h-33z" />
    <glyph glyph-name="E" unicode="E" horiz-adv-x="636" 
d="M623 433l-38 -175h-282l-18 -83h326l-64 -175h-548l146 690h543l-36 -175h-293l-18 -82h282z" />
    <glyph glyph-name="F" unicode="F" horiz-adv-x="619" 
d="M-1 0l146 690h540l-37 -175h-283l-21 -104h264l-38 -175h-264l-49 -236h-258z" />
    <glyph glyph-name="G" unicode="G" horiz-adv-x="763" 
d="M750 398l-87 -398h-169q-4 32 -3 54q-63 -72 -198 -72q-126 0 -191 78.5t-65 203.5q0 85 25.5 162.5t75.5 141.5t132.5 102t186.5 38q153 0 229.5 -64.5t79.5 -163.5h-259q0 63 -60 63q-35 0 -62.5 -32t-43 -79.5t-23 -93.5t-7.5 -83q0 -100 62 -100q70 0 88 87l1 5h-85
l36 151h337z" />
    <glyph glyph-name="H" unicode="H" horiz-adv-x="756" 
d="M-1 0l146 690h264l-52 -245h119l52 245h265l-146 -690h-265l55 270h-119l-55 -270h-264z" />
    <glyph glyph-name="I" unicode="I" horiz-adv-x="372" 
d="M145 690h264l-146 -690h-264z" />
    <glyph glyph-name="J" unicode="J" horiz-adv-x="433" 
d="M121 241l95 449h261l-99 -464q-13 -61 -27.5 -98.5t-44 -71.5t-79 -49t-123.5 -15q-83 0 -143 12l38 177q30 -4 46 -4q41 0 54.5 13t21.5 51z" />
    <glyph glyph-name="K" unicode="K" horiz-adv-x="738" 
d="M-1 0l146 690h262l-54 -253q119 153 195 253h301l-278 -286l142 -404h-276l-66 251l-72 -70l-38 -181h-262z" />
    <glyph glyph-name="L" unicode="L" horiz-adv-x="606" 
d="M-1 0l146 690h264l-109 -515h288l-65 -175h-524z" />
    <glyph glyph-name="M" unicode="M" horiz-adv-x="913" 
d="M553 0l37 178q31 145 76 332h-5q-23 -66 -83 -241t-93 -269h-199q43 453 48 506h-7q-28 -172 -60 -325l-38 -181h-230l146 690h367q-43 -339 -45 -353h8q20 58 57 174t60 179h358l-146 -690h-251z" />
    <glyph glyph-name="N" unicode="N" horiz-adv-x="756" 
d="M241 0h-242l146 690h305q8 -108 16 -236.5t10 -154.5h5q25 175 56 323l14 68h242l-146 -690h-292q-23 259 -33 409h-4q-8 -82 -60 -327z" />
    <glyph glyph-name="O" unicode="O" horiz-adv-x="768" 
d="M447 708q157 0 238 -84t81 -216q0 -61 -13 -118.5t-44 -114t-77.5 -99t-119 -68.5t-163.5 -26q-83 0 -145.5 24t-98 65.5t-52.5 92t-17 108.5q0 81 25 157t73.5 139.5t129.5 101.5t183 38zM437 536q-34 0 -61 -33.5t-41.5 -82t-21.5 -93t-7 -76.5q0 -97 66 -97
q35 0 62.5 34t41 83.5t20 93t6.5 73.5q0 98 -65 98z" />
    <glyph glyph-name="P" unicode="P" horiz-adv-x="703" 
d="M-1 0l146 690h324q127 0 191.5 -58t64.5 -146q0 -113 -81 -182.5t-224 -69.5h-118l-48 -234h-255zM368 532l-31 -139h41q84 0 84 84q0 55 -61 55h-33z" />
    <glyph glyph-name="Q" unicode="Q" horiz-adv-x="768" 
d="M447 708q157 0 238 -84t81 -216q0 -94 -32.5 -182t-100.5 -148l121 -86l-119 -138l-198 135q-38 -7 -88 -7q-83 0 -145.5 24t-98 65.5t-52.5 92t-17 108.5q0 81 25 157t73.5 139.5t129.5 101.5t183 38zM437 536q-34 0 -61 -33.5t-41.5 -82t-21.5 -93t-7 -76.5
q0 -97 66 -97q35 0 62.5 34t41 83.5t20 93t6.5 73.5q0 98 -65 98z" />
    <glyph glyph-name="R" unicode="R" horiz-adv-x="718" 
d="M346 248h-37l-51 -248h-259l146 690h346q123 0 183.5 -50.5t60.5 -126.5q0 -70 -38.5 -117.5t-108.5 -68.5q98 -36 66 -185q-23 -105 -23 -142h-249q-6 41 19 158q13 42 2 66t-57 24zM371 534l-27 -130h45q40 0 62 19.5t22 56.5q0 54 -56 54h-46z" />
    <glyph glyph-name="S" unicode="S" horiz-adv-x="686" 
d="M9 218h247q3 -32 21.5 -51t52.5 -19q59 0 59 46q0 23 -21.5 37.5t-76.5 31.5q-118 37 -170.5 83t-52.5 119q0 112 82.5 177.5t228.5 65.5q141 0 224 -56.5t84 -165.5h-246q0 57 -60 57q-48 0 -48 -39q0 -19 23.5 -33t80.5 -30q128 -37 177.5 -89.5t49.5 -126.5
q0 -121 -94 -182t-244 -61q-158 0 -236 62.5t-81 173.5z" />
    <glyph glyph-name="T" unicode="T" horiz-adv-x="627" 
d="M128 0l108 515h-172l38 175h605l-38 -175h-170l-108 -515h-263z" />
    <glyph glyph-name="U" unicode="U" horiz-adv-x="742" 
d="M138 690h263l-96 -451q-18 -80 46 -80q20 0 33 6t21.5 22.5t10.5 22t9 29.5l96 451h265l-87 -407q-18 -80 -41.5 -132t-65.5 -91.5t-106.5 -57t-158.5 -17.5q-176 0 -241.5 75t-34.5 224z" />
    <glyph glyph-name="V" unicode="V" horiz-adv-x="708" 
d="M449 0h-312l-71 690h262l5 -256q3 -114 -1 -221h5q25 72 83 209l113 268h282z" />
    <glyph glyph-name="W" unicode="W" horiz-adv-x="938" 
d="M349 0h-268l-1 690h266q-30 -245 -55 -428h6q99 275 151 428h235q-21 -342 -27 -419l6 -1q33 123 120 420h252l-298 -690h-268q3 68 14 197.5t15 196.5h-4q-46 -137 -144 -394z" />
    <glyph glyph-name="X" unicode="X" horiz-adv-x="666" 
d="M643 0h-273q-5 25 -24 94.5t-24 91.5h-3q-21 -36 -65.5 -102.5t-55.5 -83.5h-282l267 348l-119 342h272q5 -27 22 -98.5t20 -84.5h4q72 109 117 183h275l-264 -340z" />
    <glyph glyph-name="Y" unicode="Y" horiz-adv-x="649" 
d="M401 0h-267l52 240q3 17 -2 32l-137 418h275q18 -110 36 -271q104 202 141 271h285l-323 -438q-10 -14 -13 -31z" />
    <glyph glyph-name="Z" unicode="Z" horiz-adv-x="645" 
d="M-34 0l28 133l361 382h-275l37 175h576l-33 -157l-332 -358h290l-62 -175h-590z" />
    <glyph glyph-name="bracketleft" unicode="[" horiz-adv-x="361" 
d="M238 -182h-272l190 897h272l-29 -134h-110l-132 -626h110z" />
    <glyph glyph-name="backslash" unicode="\" horiz-adv-x="382" 
d="M268 696l29 -733h-147l-28 733h146z" />
    <glyph glyph-name="bracketright" unicode="]" horiz-adv-x="361" 
d="M125 715h272l-190 -897h-272l29 134h110l132 626h-110z" />
    <glyph glyph-name="asciicircum" unicode="^" horiz-adv-x="574" 
d="M553 295h-191l-80 212l-74 -212h-188l164 381h203z" />
    <glyph glyph-name="underscore" unicode="_" horiz-adv-x="517" 
d="M-70 -68h518l-18 -83h-518z" />
    <glyph glyph-name="grave" unicode="`" 
d="M30 731h237l107 -151h-184z" />
    <glyph glyph-name="a" unicode="a" horiz-adv-x="643" 
d="M614 333l-35 -159q-30 -146 -34 -174h-240q0 15 5 55q-59 -69 -156 -69q-67 0 -106.5 36.5t-39.5 106.5q0 95 64.5 147.5t201.5 63.5q60 5 97 5l6 28q4 22 -2 30t-22 8q-13 0 -22 -7t-12 -14t-9 -24h-235q43 180 288 180q159 0 215.5 -57t35.5 -156zM342 210l5 22
q-28 0 -45 -6q-40 -15 -40 -48q0 -14 7.5 -23t20.5 -9q22 0 33.5 15t18.5 49z" />
    <glyph glyph-name="b" unicode="b" horiz-adv-x="666" 
d="M16 128l125 588h255l-46 -213q22 16 34 23t37.5 13.5t57.5 6.5q70 0 116 -44.5t46 -138.5q0 -50 -9 -100t-30 -100.5t-52 -89.5t-78.5 -63t-105.5 -24q-34 0 -59 9t-35 18.5t-23 25.5q-5 -20 -13 -39h-248q4 15 9 38.5t11 52t8 37.5zM305 138q31 0 56 83.5t25 130.5
q0 22 -5 30.5t-19 8.5q-43 0 -75 -149q-12 -53 -9 -78.5t27 -25.5z" />
    <glyph glyph-name="c" unicode="c" horiz-adv-x="639" 
d="M359 216h245q-18 -74 -52 -122.5t-102.5 -78t-171.5 -29.5q-128 0 -190.5 61t-62.5 161q0 64 19.5 122t58 107.5t106 79t155.5 29.5q77 0 132.5 -20t83.5 -54t39 -73.5t6 -84.5h-248q7 32 8.5 50t-4 28.5t-19.5 10.5q-31 0 -55.5 -80t-24.5 -153q0 -43 22 -43
q18 0 30.5 21.5t24.5 67.5z" />
    <glyph glyph-name="d" unicode="d" horiz-adv-x="660" 
d="M460 716h253l-117 -549q-25 -116 -31 -167h-249q0 16 3 37q-44 -51 -133 -51q-77 0 -119 50.5t-42 141.5q0 94 31 176.5t95 137t148 54.5q39 0 72 -10.5t44 -25.5zM365 395q-35 0 -59 -82.5t-24 -130.5q0 -44 25 -44q24 0 39.5 36t30.5 107q14 55 13 84.5t-25 29.5z" />
    <glyph glyph-name="e" unicode="e" horiz-adv-x="655" 
d="M617 221h-335q-4 -19 -5 -25q-8 -64 33 -64q35 0 48 47h247q-27 -91 -107.5 -142t-203.5 -51q-61 0 -108.5 13.5t-77 35.5t-48.5 52.5t-26.5 62t-7.5 67.5q0 42 10 85t34.5 87.5t61.5 79t95.5 56t131.5 21.5q136 0 204.5 -59t68.5 -168q0 -44 -15 -98zM307 333h82
q4 17 4 35q0 39 -30 39q-38 0 -56 -74z" />
    <glyph glyph-name="f" unicode="f" horiz-adv-x="413" 
d="M268 0h-254l81 380h-61l32 152h61l3 13q22 98 74.5 139.5t160.5 41.5q67 0 102 -11l-30 -136q-7 2 -17 2q-27 0 -34 -28l-5 -21h67l-32 -152h-67z" />
    <glyph glyph-name="g" unicode="g" horiz-adv-x="655" 
d="M632 356l-62 -290q-14 -68 -34.5 -112.5t-57.5 -79t-94 -50t-141 -15.5q-68 0 -117.5 13t-75.5 31t-41.5 45t-19.5 47.5t-4 46.5h241q-2 -39 32 -39q12 0 20 3t17.5 18.5t15.5 43.5l11 53q-50 -43 -132 -43q-79 0 -122 48.5t-43 133.5q0 81 29.5 156t93 127.5t147.5 52.5
q47 0 77.5 -15t39.5 -37q6 17 15 38h246q-11 -38 -41 -176zM358 398q-30 0 -52.5 -69t-22.5 -119q0 -41 27 -41q13 0 24 11.5t19 35.5t12.5 41t10.5 46q12 51 9 73t-27 22z" />
    <glyph glyph-name="h" unicode="h" horiz-adv-x="648" 
d="M-12 0l152 716h255l-48 -223q58 53 143 53q175 0 131 -210l-71 -336h-253l69 329q10 46 -14 46q-30 0 -44 -66l-65 -309h-255z" />
    <glyph glyph-name="i" unicode="i" horiz-adv-x="341" 
d="M-12 0l113 532h255l-113 -532h-255zM110 574l30 143h255l-30 -143h-255z" />
    <glyph glyph-name="j" unicode="j" horiz-adv-x="343" 
d="M366 574h-253l30 143h253zM104 532h252l-98 -457q-26 -126 -42 -161q-31 -73 -105 -94q-40 -11 -99 -11q-35 0 -98 7l35 159q5 -1 12 -1q17 0 23.5 8t9.5 26z" />
    <glyph glyph-name="k" unicode="k" horiz-adv-x="659" 
d="M395 716l-79 -368q58 94 115 184h283q-24 -26 -92 -103t-106 -118q70 -217 95 -311h-256q-25 110 -37 172l-49 -48l-26 -124h-255l152 716h255z" />
    <glyph glyph-name="l" unicode="l" horiz-adv-x="342" 
d="M243 0h-255l152 716h255z" />
    <glyph glyph-name="m" unicode="m" horiz-adv-x="946" 
d="M-12 0l78 367q23 113 32 165h248q-1 -14 -7 -52q66 66 158 66q90 0 119 -66q25 20 43 32t53 23t75 11q176 0 131 -214l-70 -332h-249l70 333q9 42 -17 42q-29 0 -41 -57l-67 -318h-250l71 339q8 36 -17 36q-16 0 -25.5 -13.5t-16.5 -45.5l-67 -316h-251z" />
    <glyph glyph-name="n" unicode="n" horiz-adv-x="649" 
d="M-12 0l77 365q12 59 33 167h253q-1 -11 -7 -47q59 61 150 61q172 0 127 -214l-70 -332h-254l68 324q6 33 3 42t-17 9q-30 0 -42 -60l-66 -315h-255z" />
    <glyph glyph-name="o" unicode="o" horiz-adv-x="667" 
d="M366 546q137 0 206 -66.5t69 -168.5q0 -67 -19.5 -123.5t-59.5 -102.5t-109.5 -72.5t-161.5 -26.5q-74 0 -128.5 20.5t-83.5 55t-42 73.5t-13 83q0 63 20 119.5t60 104.5t107.5 76t154.5 28zM361 399q-35 0 -58.5 -85.5t-23.5 -138.5q0 -45 27 -45q35 0 57.5 91t22.5 141
q0 37 -25 37z" />
    <glyph glyph-name="p" unicode="p" horiz-adv-x="662" 
d="M-51 -181l119 559q19 91 30 154h244q0 -16 -4 -46q19 17 31 26.5t44 21.5t70 12q68 0 111.5 -46.5t43.5 -150.5q0 -94 -31 -175t-97 -134.5t-156 -53.5q-75 0 -107 42l-45 -209h-253zM282 238q-12 -47 -10 -74t25 -27q33 0 58.5 79t25.5 128q0 27 -6 36.5t-20 9.5
q-24 0 -39 -33.5t-34 -118.5z" />
    <glyph glyph-name="q" unicode="q" horiz-adv-x="663" 
d="M280 -181l46 214q-53 -47 -137 -47q-83 0 -123.5 52.5t-40.5 140.5q0 51 10 102t32 99t53.5 84.5t77.5 59t100 22.5q90 0 121 -53q8 23 15 39h243q-12 -44 -45 -203l-107 -510h-245zM366 395q-35 0 -59.5 -83t-24.5 -135q0 -39 27 -39q40 0 73 154q13 52 10.5 77.5
t-26.5 25.5z" />
    <glyph glyph-name="r" unicode="r" horiz-adv-x="479" 
d="M513 543l-52 -220q-96 10 -128 -17.5t-49 -109.5l-41 -196h-255l74 350q29 136 36 182h247q-2 -33 -12 -83q53 97 180 94z" />
    <glyph glyph-name="s" unicode="s" horiz-adv-x="585" 
d="M-2 170h218q5 -40 46 -40q43 0 43 27q0 11 -14 19t-50 17q-113 28 -154.5 65t-41.5 97q0 79 66 135t195 56q132 0 196.5 -48t62.5 -128h-208q1 49 -48 49q-32 0 -32 -23q0 -11 20.5 -20.5t79.5 -25.5q92 -25 130 -65.5t38 -98.5q0 -69 -41 -115.5t-103.5 -65.5
t-142.5 -19q-126 0 -191 48.5t-69 135.5z" />
    <glyph glyph-name="t" unicode="t" horiz-adv-x="435" 
d="M30 380l32 152h68l31 132h246l-28 -132h76l-32 -152h-76l-42 -189q-6 -26 1 -35.5t35 -9.5q22 0 33 1l-30 -145q-46 -13 -140 -13q-108 0 -141 44.5t-14 134.5l46 212h-65z" />
    <glyph glyph-name="u" unicode="u" horiz-adv-x="648" 
d="M662 532l-76 -360q-25 -118 -33 -172h-250q-2 15 3 47q-35 -32 -66.5 -46.5t-85.5 -14.5q-87 0 -117 55t-9 153l71 338h254l-69 -327q-6 -25 -2.5 -36.5t18.5 -11.5q29 0 40 58l67 317h255z" />
    <glyph glyph-name="v" unicode="v" horiz-adv-x="590" 
d="M40 532h257q-1 -10 -10.5 -131t-16.5 -189h7q41 128 117 320h253l-263 -532h-305z" />
    <glyph glyph-name="w" unicode="w" horiz-adv-x="873" 
d="M42 532h255q-20 -271 -27 -319h6q13 41 27 88t33.5 114.5t34.5 116.5h232q-9 -80 -16.5 -182t-12.5 -142l7 1q54 178 101 323h245l-252 -532h-277q11 110 30 253h-6q-14 -46 -82 -253h-276z" />
    <glyph glyph-name="x" unicode="x" horiz-adv-x="570" 
d="M29 532h254q21 -134 21 -143h3q52 94 78 143h259l-197 -254l85 -278h-254q-3 20 -9.5 74.5t-9.5 74.5h-4q-33 -68 -82 -149h-257l204 277z" />
    <glyph glyph-name="y" unicode="y" horiz-adv-x="588" 
d="M38 532h254q-9 -239 -16 -333h8q63 192 113 333h250l-212 -431q-39 -80 -65.5 -125t-56.5 -82.5t-64 -53t-76 -23.5t-106 -8q-54 0 -98 6l36 169q14 -2 31 -2q47 0 59 17z" />
    <glyph glyph-name="z" unicode="z" horiz-adv-x="546" 
d="M-30 0l31 143q28 25 105.5 102.5t139.5 130.5h-194l34 156h473l-34 -152q-19 -18 -73.5 -72t-91.5 -89.5t-67 -62.5h227l-59 -156h-491z" />
    <glyph glyph-name="braceleft" unicode="{" horiz-adv-x="390" 
d="M2 179l37 175q60 0 82 17.5t32 64.5l24 106q23 103 79 138t147 35h53l-28 -134h-17q-19 0 -31 -10.5t-14.5 -19t-7.5 -26.5l-22 -95q-16 -71 -46 -110t-104 -53q42 -12 63.5 -37t22.5 -58.5t-7 -74.5l-20 -88q-12 -59 37 -59h12l-28 -132h-35q-209 0 -168 195l18 85
q9 44 -6 62t-73 19z" />
    <glyph glyph-name="bar" unicode="|" horiz-adv-x="274" 
d="M40 781h163v-1041h-163v1041z" />
    <glyph glyph-name="braceright" unicode="}" horiz-adv-x="390" 
d="M390 354l-37 -175q-60 0 -82 -17.5t-32 -64.5l-24 -106q-23 -103 -79 -138t-147 -35h-53l28 134h17q19 0 31 10.5t14.5 19t7.5 26.5l22 95q16 71 46 110t104 53q-42 12 -63.5 37t-22.5 58.5t7 74.5l20 88q12 59 -37 59h-12l28 132h35q209 0 168 -195l-18 -85
q-9 -44 6 -62t73 -19z" />
    <glyph glyph-name="asciitilde" unicode="~" horiz-adv-x="657" 
d="M202 159h-146v49q0 182 149 182q42 0 87.5 -18.5t80.5 -37t51 -18.5q15 0 23 9t8 36v19h145v-46q0 -189 -140 -189q-52 0 -131.5 36t-97.5 36q-29 0 -29 -42v-16z" />
    <glyph glyph-name="uni00A0" unicode="&#xa0;" horiz-adv-x="190" 
 />
    <glyph glyph-name="exclamdown" unicode="&#xa1;" horiz-adv-x="388" 
d="M78 251h202l-28 -295l-24 -114h-271l24 115zM114 532h252l-48 -225h-252z" />
    <glyph glyph-name="cent" unicode="&#xa2;" horiz-adv-x="624" 
d="M361 255h230q-46 -186 -240 -211l-15 -69h-147l16 71q-85 16 -126 73t-41 138q0 130 74 216t205 102l12 56h146l-13 -61q173 -35 149 -213h-231q7 35 4.5 56.5t-19.5 21.5q-30 0 -51 -75t-21 -124q0 -52 22 -52q28 0 46 71z" />
    <glyph glyph-name="sterling" unicode="&#xa3;" horiz-adv-x="618" 
d="M522 0h-545l31 145q43 13 64 39t27 77q0 4 1 6h-84l25 119h70q2 20 3 40q10 120 78.5 184t192.5 64q126 0 182.5 -57.5t44.5 -155.5h-199q4 34 -2 47.5t-21 13.5q-23 0 -28 -37q-2 -13 -5.5 -49t-4.5 -50h119l-26 -119h-110q-16 -65 -57 -97h306z" />
    <glyph glyph-name="currency" unicode="&#xa4;" horiz-adv-x="590" 
d="M359 553q54 0 95 -23l78 64l92 -131l-88 -73q2 -33 -6 -72q-10 -44 -28 -80l58 -72l-147 -131l-49 65q-53 -24 -109 -24q-55 0 -97 24l-75 -65l-96 131l86 71q-4 35 5 77q9 39 27 75l-54 74l151 131l48 -65q54 24 109 24zM323 394q-10 0 -19.5 -3.5t-24 -22.5t-21.5 -53
q-18 -80 31 -80q47 0 65 82q16 77 -31 77z" />
    <glyph glyph-name="yen" unicode="&#xa5;" horiz-adv-x="584" 
d="M498 135h-114l-29 -135h-250l29 135h-113l20 96h113l9 43h-112l21 96h94l-106 292h259q12 -156 12 -201h5q15 41 96 201h256l-237 -292h98l-21 -96h-115l-9 -43h115z" />
    <glyph glyph-name="brokenbar" unicode="&#xa6;" horiz-adv-x="275" 
d="M41 689h163v-356h-163v356zM41 179h163v-358h-163v358z" />
    <glyph glyph-name="section" unicode="&#xa7;" horiz-adv-x="610" 
d="M237 348q-16 -13 -16 -27q0 -24 42 -41q69 -28 110 -44q15 11 15 26q0 28 -61 49q-22 8 -56 23zM598 523h-186q-2 46 -45 46q-37 0 -37 -23q0 -11 10.5 -17.5t59.5 -25.5q108 -43 147.5 -83.5t39.5 -101.5q0 -103 -106 -163q8 -7 15.5 -32.5t7.5 -51.5
q0 -98 -78.5 -146.5t-194.5 -48.5q-49 0 -91 8.5t-78 28t-55 55t-15 84.5h207q3 -38 47 -38q35 0 35 21q0 13 -12 22t-53 23q-110 39 -152 76.5t-42 96.5q0 104 116 163q-24 32 -24 81q0 97 72 153.5t184 56.5q126 0 181.5 -49t46.5 -135z" />
    <glyph glyph-name="dieresis" unicode="&#xa8;" 
d="M230 564h-186l34 157h186zM462 564h-186l34 157h186z" />
    <glyph glyph-name="copyright" unicode="&#xa9;" horiz-adv-x="735" 
d="M380 694q141 0 236.5 -95t95.5 -251q0 -150 -96.5 -248t-235.5 -98q-145 0 -241 94t-96 252q0 151 97 248.5t240 97.5zM378 619q-111 0 -182 -72.5t-71 -195.5q0 -118 72 -194t181 -76q111 0 181 68t70 198q0 124 -72 198t-179 74zM421 316h133q-13 -151 -172 -151
q-90 0 -132.5 51t-42.5 134q0 80 45.5 132.5t130.5 52.5q46 0 81 -14.5t53 -38t27 -48t9 -49.5h-133q-5 46 -36 46q-38 0 -38 -75q0 -85 40 -85q26 0 35 45z" />
    <glyph glyph-name="ordfeminine" unicode="&#xaa;" horiz-adv-x="425" 
d="M442 476l-21 -107q-18 -92 -20 -105h-168q0 14 4 32q-35 -39 -102 -39q-39 0 -66 23.5t-27 69.5q0 121 173 130q9 0 21.5 1t22 1.5t14.5 0.5l4 17q2 13 -1.5 17.5t-13.5 4.5q-11 0 -16.5 -7t-10.5 -24h-154q21 115 194 115q96 0 138 -34t29 -96zM256 390l3 14
q-12 0 -27 -4q-25 -7 -25 -28q0 -20 18 -20q13 0 19.5 8.5t11.5 29.5z" />
    <glyph glyph-name="guillemotleft" unicode="&#xab;" horiz-adv-x="590" 
d="M368 468l-179 -204l92 -202h-162l-94 202l180 204h163zM610 468l-175 -204l88 -202h-159l-92 202l178 204h160z" />
    <glyph glyph-name="logicalnot" unicode="&#xac;" horiz-adv-x="631" 
d="M44 392h528v-350h-166v192h-362v158z" />
    <glyph glyph-name="uni00AD" unicode="&#xad;" horiz-adv-x="364" 
d="M49 351h304l-37 -174h-304z" />
    <glyph glyph-name="registered" unicode="&#xae;" horiz-adv-x="263" 
d="M210 708q70 0 111 -42t41 -104q0 -69 -43.5 -109.5t-108.5 -40.5q-61 0 -103 40.5t-42 109.5q0 61 41 103.5t104 42.5zM211 667q-44 0 -71.5 -29.5t-27.5 -77.5q0 -49 27.5 -77.5t70.5 -28.5q105 0 105 107q0 46 -28 76t-76 30zM203 499h-52v128h82q49 0 49 -35
q0 -24 -25 -31q20 -8 20 -32q0 -22 3 -30h-54q-2 7 -2 27q0 9 -3 12t-11 3h-7v-42zM207 593v-18h8q12 0 12 9t-13 9h-7z" />
    <glyph glyph-name="macron" unicode="&#xaf;" 
d="M115 712h339l-29 -138h-339z" />
    <glyph glyph-name="degree" unicode="&#xb0;" horiz-adv-x="372" 
d="M265 684q68 0 106.5 -37t38.5 -95q0 -79 -53.5 -127t-139.5 -48q-65 0 -103 36t-38 94q0 77 53 127t136 50zM250 596q-29 0 -46 -23t-17 -52q0 -52 44 -52q28 0 45.5 22.5t17.5 57.5q0 47 -44 47z" />
    <glyph glyph-name="plusminus" unicode="&#xb1;" horiz-adv-x="618" 
d="M227 660h166v-148h179v-160h-179v-144h-166v144h-183v160h183v148zM574 0h-528v162h528v-162z" />
    <glyph glyph-name="two.sups" unicode="&#xb2;" horiz-adv-x="421" 
d="M368 432h-358l3 23q7 57 38 100t114 83q12 6 32 15.5t29.5 14.5t17.5 14.5t8 21.5q0 21 -16 21q-13 0 -19.5 -11t-12.5 -38h-154q12 72 62 116t147 44q92 0 134 -36t42 -84q0 -50 -26 -80t-86 -53q-57 -22 -75 -38h166z" />
    <glyph glyph-name="three.sups" unicode="&#xb3;" horiz-adv-x="420" 
d="M26 566h161q-2 -38 25 -38q12 0 19 9.5t7 23.5q0 30 -33 30h-31l20 92h29q35 0 35 30q0 20 -19 20q-25 0 -32 -33h-149q4 20 12 38t28 43t61 40t98 15q89 0 133.5 -30.5t44.5 -77.5q0 -58 -69 -86q10 -4 20.5 -11t22.5 -25t12 -41q0 -66 -58.5 -102.5t-145.5 -36.5
q-58 0 -99 14t-60 37t-26 44.5t-6 44.5z" />
    <glyph glyph-name="acute" unicode="&#xb4;" 
d="M293 731h257l-224 -151h-192z" />
    <glyph glyph-name="uni00B5" unicode="&#xb5;" horiz-adv-x="646" 
d="M26 194l72 338h256l-69 -322q-6 -26 -2.5 -37t18.5 -11q27 0 38 58l67 312h257l-77 -360q-29 -137 -34 -172h-236q0 12 2 44q-42 -57 -111 -57q-11 0 -17 3q0 -2 -26 -171h-218q4 19 36 167.5t44 207.5z" />
    <glyph glyph-name="paragraph" unicode="&#xb6;" horiz-adv-x="634" 
d="M473 -157h-146l57 270h-100q-137 0 -198 76.5t-30 219.5q27 122 105 189t203 67h140q4 22 25 55h133q-13 -55 -33 -146zM398 257h17l56 264h-24q-36 0 -55 -28.5t-34 -91.5q-34 -144 40 -144z" />
    <glyph glyph-name="periodcentered" unicode="&#xb7;" horiz-adv-x="274" 
d="M230 201h-215l47 226h215z" />
    <glyph glyph-name="cedilla" unicode="&#xb8;" 
d="M102 5h128l-53 -38q31 -8 54 -30t23 -58q0 -114 -178 -114q-61 0 -103 14l25 87q27 -5 40 -5q31 0 31 15q0 22 -43 25l10 55z" />
    <glyph glyph-name="one.sups" unicode="&#xb9;" horiz-adv-x="300" 
d="M238 432h-186l49 232q-25 2 -46 9l24 115q84 3 125 41h118z" />
    <glyph glyph-name="ordmasculine" unicode="&#xba;" horiz-adv-x="445" 
d="M277 606q93 0 141.5 -40.5t48.5 -107.5q0 -94 -62.5 -147.5t-165.5 -53.5q-91 0 -137.5 41.5t-46.5 107.5q0 85 60.5 142.5t161.5 57.5zM275 494q-20 0 -31 -36.5t-11 -64.5t17 -28q20 0 31 38t11 67q0 24 -17 24z" />
    <glyph glyph-name="guillemotright" unicode="&#xbb;" horiz-adv-x="590" 
d="M224 62l179 204l-92 202h162l94 -202l-180 -204h-163zM-18 62l175 204l-88 202h159l92 -202l-178 -204h-160z" />
    <glyph glyph-name="onequarter" unicode="&#xbc;" horiz-adv-x="884" 
d="M204 0h-110l523 663h109zM248 265h-186l49 232q-25 2 -46 9l24 115q84 3 125 41h118zM763 0h-167l15 73h-182l27 126l160 199h231l-43 -203h52l-37 -122h-41zM597 195h40l2 11q7 33 20 78q-11 -14 -31 -44.5t-31 -44.5z" />
    <glyph glyph-name="onehalf" unicode="&#xbd;" horiz-adv-x="900" 
d="M205 0h-110l523 663h109zM249 265h-186l49 232q-25 2 -46 9l24 115q84 3 125 41h118zM811 0h-358l3 23q7 57 38 100t114 83q12 6 32 15.5t29.5 14.5t17.5 14.5t8 21.5q0 21 -16 21q-13 0 -19.5 -11t-12.5 -38h-154q12 72 62 116t147 44q92 0 134 -36t42 -84
q0 -50 -26 -80t-86 -53q-57 -22 -75 -38h166z" />
    <glyph glyph-name="threequarters" unicode="&#xbe;" horiz-adv-x="1022" 
d="M344 0h-110l523 663h109zM900 0h-167l15 73h-182l27 126l160 199h231l-43 -203h52l-37 -122h-41zM734 195h40l2 11q7 33 20 78q-11 -14 -31 -44.5t-31 -44.5zM55 399h161q-2 -38 25 -38q12 0 19 9.5t7 23.5q0 30 -33 30h-31l20 92h29q35 0 35 30q0 20 -19 20
q-25 0 -32 -33h-149q4 20 12 38t28 43t61 40t98 15q89 0 133.5 -30.5t44.5 -77.5q0 -58 -69 -86q10 -4 20.5 -11t22.5 -25t12 -41q0 -66 -58.5 -102.5t-145.5 -36.5q-58 0 -99 14t-60 37t-26 44.5t-6 44.5z" />
    <glyph glyph-name="questiondown" unicode="&#xbf;" horiz-adv-x="553" 
d="M155 277h234q6 -20 0 -60q-6 -38 -35 -69.5t-91 -78.5q-52 -39 -57 -71q-6 -37 20 -37q34 0 51 76h215q-15 -105 -86 -157.5t-206 -52.5q-128 0 -190 46t-62 119q0 56 31 96.5t107 90.5q61 40 67 77q2 12 2 21zM207 532h246l-42 -198h-246z" />
    <glyph glyph-name="Agrave" unicode="&#xc0;" horiz-adv-x="708" 
d="M403 126h-149l-47 -126h-270l330 690h354l45 -690h-263v126zM322 301h84q0 20 -0.5 99.5t-0.5 113.5h-6q-23 -69 -77 -213zM193 865h265l109 -131h-201z" />
    <glyph glyph-name="Aacute" unicode="&#xc1;" horiz-adv-x="708" 
d="M403 126h-149l-47 -126h-270l330 690h354l45 -690h-263v126zM322 301h84q0 20 -0.5 99.5t-0.5 113.5h-6q-23 -69 -77 -213zM471 865h269l-204 -131h-206z" />
    <glyph glyph-name="Acircumflex" unicode="&#xc2;" horiz-adv-x="708" 
d="M403 126h-149l-47 -126h-270l330 690h354l45 -690h-263v126zM322 301h84q0 20 -0.5 99.5t-0.5 113.5h-6q-23 -69 -77 -213zM358 861h248l70 -131h-186l-24 55l-43 -55h-194z" />
    <glyph glyph-name="Atilde" unicode="&#xc3;" horiz-adv-x="708" 
d="M403 126h-149l-47 -126h-270l330 690h354l45 -690h-263v126zM322 301h84q0 20 -0.5 99.5t-0.5 113.5h-6q-23 -69 -77 -213zM379 739h-119l6 37q6 33 17.5 56.5t24 35t29.5 18t27.5 7.5t25.5 1q34 0 81 -16.5t59 -16.5t16 19l3 13h117l-6 -36q-6 -34 -17.5 -58.5t-23 -37
t-28.5 -19.5t-28 -8t-27 -1q-29 0 -80.5 15.5t-60.5 15.5q-10 0 -14 -15z" />
    <glyph glyph-name="Adieresis" unicode="&#xc4;" horiz-adv-x="708" 
d="M403 126h-149l-47 -126h-270l330 690h354l45 -690h-263v126zM322 301h84q0 20 -0.5 99.5t-0.5 113.5h-6q-23 -69 -77 -213zM430 737h-186l34 157h186zM662 737h-186l34 157h186z" />
    <glyph glyph-name="Aring" unicode="&#xc5;" horiz-adv-x="708" 
d="M403 126h-149l-47 -126h-270l330 690h354l45 -690h-263v126zM322 301h84q0 20 -0.5 99.5t-0.5 113.5h-6q-23 -69 -77 -213zM437 723q-61 0 -91.5 28t-30.5 67q0 58 45 87t112 29q65 0 97.5 -26.5t32.5 -68.5q0 -57 -46.5 -86.5t-118.5 -29.5zM455 805q38 0 38 26
q0 22 -30 22q-18 0 -28.5 -7.5t-10.5 -18.5q0 -22 31 -22z" />
    <glyph glyph-name="AE" unicode="&#xc6;" horiz-adv-x="1010" 
d="M364 690h699l-37 -175h-293l-17 -82h282l-38 -175h-282l-18 -83h325l-64 -175h-543l25 120h-169l-75 -120h-264zM356 298h85l43 201h-5z" />
    <glyph glyph-name="Ccedilla" unicode="&#xc7;" horiz-adv-x="724" 
d="M450 251h259q-61 -248 -326 -267l-23 -17q31 -8 54 -30t23 -58q0 -114 -178 -114q-61 0 -103 14l25 87q27 -5 40 -5q31 0 31 15q0 22 -43 25l10 55l43 32q-115 19 -170.5 94.5t-55.5 189.5q0 62 13.5 121.5t44.5 117t76.5 101t115 70t154.5 26.5q156 0 232 -74t68 -188
h-258q3 43 -8.5 67t-45.5 24q-31 0 -56 -33t-38.5 -82t-20.5 -96t-7 -83q0 -87 56 -87q34 0 53.5 24.5t34.5 70.5z" />
    <glyph glyph-name="Egrave" unicode="&#xc8;" horiz-adv-x="636" 
d="M623 433l-38 -175h-282l-18 -83h326l-64 -175h-548l146 690h543l-36 -175h-293l-18 -82h282zM157 865h265l109 -131h-201z" />
    <glyph glyph-name="Eacute" unicode="&#xc9;" horiz-adv-x="636" 
d="M623 433l-38 -175h-282l-18 -83h326l-64 -175h-548l146 690h543l-36 -175h-293l-18 -82h282zM435 865h269l-204 -131h-206z" />
    <glyph glyph-name="Ecircumflex" unicode="&#xca;" horiz-adv-x="636" 
d="M623 433l-38 -175h-282l-18 -83h326l-64 -175h-548l146 690h543l-36 -175h-293l-18 -82h282zM332 861h248l70 -131h-186l-24 55l-43 -55h-194z" />
    <glyph glyph-name="Edieresis" unicode="&#xcb;" horiz-adv-x="636" 
d="M623 433l-38 -175h-282l-18 -83h326l-64 -175h-548l146 690h543l-36 -175h-293l-18 -82h282zM394 737h-186l34 157h186zM626 737h-186l34 157h186z" />
    <glyph glyph-name="Igrave" unicode="&#xcc;" horiz-adv-x="372" 
d="M145 690h264l-146 -690h-264zM25 865h265l109 -131h-201z" />
    <glyph glyph-name="Iacute" unicode="&#xcd;" horiz-adv-x="372" 
d="M145 690h264l-146 -690h-264zM313 865h269l-204 -131h-206z" />
    <glyph glyph-name="Icircumflex" unicode="&#xce;" horiz-adv-x="372" 
d="M145 690h264l-146 -690h-264zM190 861h248l70 -131h-186l-24 55l-43 -55h-194z" />
    <glyph glyph-name="Idieresis" unicode="&#xcf;" horiz-adv-x="372" 
d="M145 690h264l-146 -690h-264zM262 737h-186l34 157h186zM494 737h-186l34 157h186z" />
    <glyph glyph-name="Eth" unicode="&#xd0;" horiz-adv-x="763" 
d="M37 403h58l61 287h293q153 0 233.5 -80t80.5 -210q0 -36 -5 -71.5t-18 -76t-33.5 -76t-53.5 -68.5t-75.5 -56.5t-103 -37.5t-132.5 -14h-332l60 282h-59zM384 522l-26 -119h70l-26 -121h-70l-24 -114h54q33 0 59.5 28t40.5 70t21 83t7 74q0 52 -16 75.5t-57 23.5h-33z
" />
    <glyph glyph-name="Ntilde" unicode="&#xd1;" horiz-adv-x="756" 
d="M241 0h-242l146 690h305q8 -108 16 -236.5t10 -154.5h5q25 175 56 323l14 68h242l-146 -690h-292q-23 259 -33 409h-4q-8 -82 -60 -327zM413 732h-119l6 37q6 33 17.5 56.5t24 35t29.5 18t27.5 7.5t25.5 1q34 0 81 -16.5t59 -16.5t16 19l3 13h117l-6 -36
q-6 -34 -17.5 -58.5t-23 -37t-28.5 -19.5t-28 -8t-27 -1q-29 0 -80.5 15.5t-60.5 15.5q-10 0 -14 -15z" />
    <glyph glyph-name="Ograve" unicode="&#xd2;" horiz-adv-x="768" 
d="M447 708q157 0 238 -84t81 -216q0 -61 -13 -118.5t-44 -114t-77.5 -99t-119 -68.5t-163.5 -26q-83 0 -145.5 24t-98 65.5t-52.5 92t-17 108.5q0 81 25 157t73.5 139.5t129.5 101.5t183 38zM437 536q-34 0 -61 -33.5t-41.5 -82t-21.5 -93t-7 -76.5q0 -97 66 -97
q35 0 62.5 34t41 83.5t20 93t6.5 73.5q0 98 -65 98zM223 875h265l109 -131h-201z" />
    <glyph glyph-name="Oacute" unicode="&#xd3;" horiz-adv-x="768" 
d="M447 708q157 0 238 -84t81 -216q0 -61 -13 -118.5t-44 -114t-77.5 -99t-119 -68.5t-163.5 -26q-83 0 -145.5 24t-98 65.5t-52.5 92t-17 108.5q0 81 25 157t73.5 139.5t129.5 101.5t183 38zM437 536q-34 0 -61 -33.5t-41.5 -82t-21.5 -93t-7 -76.5q0 -97 66 -97
q35 0 62.5 34t41 83.5t20 93t6.5 73.5q0 98 -65 98zM471 875h269l-204 -131h-206z" />
    <glyph glyph-name="Ocircumflex" unicode="&#xd4;" horiz-adv-x="768" 
d="M447 708q157 0 238 -84t81 -216q0 -61 -13 -118.5t-44 -114t-77.5 -99t-119 -68.5t-163.5 -26q-83 0 -145.5 24t-98 65.5t-52.5 92t-17 108.5q0 81 25 157t73.5 139.5t129.5 101.5t183 38zM437 536q-34 0 -61 -33.5t-41.5 -82t-21.5 -93t-7 -76.5q0 -97 66 -97
q35 0 62.5 34t41 83.5t20 93t6.5 73.5q0 98 -65 98zM378 871h248l70 -131h-186l-24 55l-43 -55h-194z" />
    <glyph glyph-name="Otilde" unicode="&#xd5;" horiz-adv-x="768" 
d="M447 708q157 0 238 -84t81 -216q0 -61 -13 -118.5t-44 -114t-77.5 -99t-119 -68.5t-163.5 -26q-83 0 -145.5 24t-98 65.5t-52.5 92t-17 108.5q0 81 25 157t73.5 139.5t129.5 101.5t183 38zM437 536q-34 0 -61 -33.5t-41.5 -82t-21.5 -93t-7 -76.5q0 -97 66 -97
q35 0 62.5 34t41 83.5t20 93t6.5 73.5q0 98 -65 98zM406 746h-119l6 37q6 33 17.5 56.5t24 35t29.5 18t27.5 7.5t25.5 1q33 0 80 -16.5t60 -16.5q12 0 16 19l3 13h117l-6 -36q-6 -34 -17.5 -58.5t-23 -37t-28.5 -19.5t-28 -8t-27 -1q-29 0 -80.5 15.5t-60.5 15.5
q-10 0 -14 -15z" />
    <glyph glyph-name="Odieresis" unicode="&#xd6;" horiz-adv-x="768" 
d="M447 708q157 0 238 -84t81 -216q0 -61 -13 -118.5t-44 -114t-77.5 -99t-119 -68.5t-163.5 -26q-83 0 -145.5 24t-98 65.5t-52.5 92t-17 108.5q0 81 25 157t73.5 139.5t129.5 101.5t183 38zM437 536q-34 0 -61 -33.5t-41.5 -82t-21.5 -93t-7 -76.5q0 -97 66 -97
q35 0 62.5 34t41 83.5t20 93t6.5 73.5q0 98 -65 98zM460 737h-186l34 157h186zM692 737h-186l34 157h186z" />
    <glyph glyph-name="multiply" unicode="&#xd7;" horiz-adv-x="615" 
d="M571 101l-98 -101l-164 167l-163 -167l-102 101l166 167l-166 168l98 99l166 -168l167 168l96 -99l-164 -169z" />
    <glyph glyph-name="Oslash" unicode="&#xd8;" horiz-adv-x="768" 
d="M449 708q118 0 196 -48l34 37h93l-73 -81q67 -74 67 -191q0 -64 -13 -125t-44 -119.5t-77.5 -102t-119.5 -70t-163 -26.5q-112 0 -185 42l-27 -30h-93l65 72q-73 76 -73 204q0 82 25.5 158.5t74 140t130 101.5t183.5 38zM439 541q-43 0 -78 -52.5t-50.5 -112
t-18.5 -107.5l213 236q-17 36 -66 36zM368 148q42 0 75 45.5t49 102.5t21 115l-207 -230q17 -33 62 -33z" />
    <glyph glyph-name="Ugrave" unicode="&#xd9;" horiz-adv-x="742" 
d="M138 690h263l-96 -451q-18 -80 46 -80q20 0 33 6t21.5 22.5t10.5 22t9 29.5l96 451h265l-87 -407q-18 -80 -41.5 -132t-65.5 -91.5t-106.5 -57t-158.5 -17.5q-176 0 -241.5 75t-34.5 224zM202 866h265l109 -131h-201z" />
    <glyph glyph-name="Uacute" unicode="&#xda;" horiz-adv-x="742" 
d="M138 690h263l-96 -451q-18 -80 46 -80q20 0 33 6t21.5 22.5t10.5 22t9 29.5l96 451h265l-87 -407q-18 -80 -41.5 -132t-65.5 -91.5t-106.5 -57t-158.5 -17.5q-176 0 -241.5 75t-34.5 224zM488 865h269l-204 -131h-206z" />
    <glyph glyph-name="Ucircumflex" unicode="&#xdb;" horiz-adv-x="742" 
d="M138 690h263l-96 -451q-18 -80 46 -80q20 0 33 6t21.5 22.5t10.5 22t9 29.5l96 451h265l-87 -407q-18 -80 -41.5 -132t-65.5 -91.5t-106.5 -57t-158.5 -17.5q-176 0 -241.5 75t-34.5 224zM375 861h248l70 -131h-186l-24 55l-43 -55h-194z" />
    <glyph glyph-name="Udieresis" unicode="&#xdc;" horiz-adv-x="742" 
d="M138 690h263l-96 -451q-18 -80 46 -80q20 0 33 6t21.5 22.5t10.5 22t9 29.5l96 451h265l-87 -407q-18 -80 -41.5 -132t-65.5 -91.5t-106.5 -57t-158.5 -17.5q-176 0 -241.5 75t-34.5 224zM447 737h-186l34 157h186zM679 737h-186l34 157h186z" />
    <glyph glyph-name="Yacute" unicode="&#xdd;" horiz-adv-x="649" 
d="M401 0h-267l52 240q3 17 -2 32l-137 418h275q18 -110 36 -271q104 202 141 271h285l-323 -438q-10 -14 -13 -31zM431 865h269l-204 -131h-206z" />
    <glyph glyph-name="Thorn" unicode="&#xde;" horiz-adv-x="692" 
d="M-1 0l146 690h256l-24 -115h81q46 0 86 -10t74.5 -31.5t54.5 -61t20 -92.5q0 -133 -86.5 -199t-236.5 -66h-90l-24 -115h-257zM346 431l-36 -171h35q95 0 95 112q0 59 -65 59h-29z" />
    <glyph glyph-name="germandbls" unicode="&#xdf;" horiz-adv-x="732" 
d="M349 504l-106 -504h-257l99 471q11 51 23 85.5t36.5 69.5t59 55t90.5 33t131 13q155 0 231 -54t76 -130q0 -30 -9 -58l-139 -79l-1 -5l16 -14q55 -48 80.5 -90.5t25.5 -97.5q0 -39 -13.5 -75t-42.5 -68.5t-82 -51.5t-123 -19q-109 0 -164 33l34 155q44 -32 101 -32
q46 0 46 34q0 14 -7.5 23.5t-35.5 31.5l-20 16q-63 53 -57.5 113.5t69.5 101.5l68 43q3 15 3 24q0 22 -15.5 34.5t-42.5 12.5q-30 0 -47.5 -15.5t-26.5 -55.5z" />
    <glyph glyph-name="agrave" unicode="&#xe0;" horiz-adv-x="643" 
d="M614 333l-35 -159q-30 -146 -34 -174h-240q0 15 5 55q-59 -69 -156 -69q-67 0 -106.5 36.5t-39.5 106.5q0 95 64.5 147.5t201.5 63.5q60 5 97 5l6 28q4 22 -2 30t-22 8q-13 0 -22 -7t-12 -14t-9 -24h-235q43 180 288 180q159 0 215.5 -57t35.5 -156zM342 210l5 22
q-28 0 -45 -6q-40 -15 -40 -48q0 -14 7.5 -23t20.5 -9q22 0 33.5 15t18.5 49zM151 731h237l107 -151h-184z" />
    <glyph glyph-name="aacute" unicode="&#xe1;" horiz-adv-x="643" 
d="M614 333l-35 -159q-30 -146 -34 -174h-240q0 15 5 55q-59 -69 -156 -69q-67 0 -106.5 36.5t-39.5 106.5q0 95 64.5 147.5t201.5 63.5q60 5 97 5l6 28q4 22 -2 30t-22 8q-13 0 -22 -7t-12 -14t-9 -24h-235q43 180 288 180q159 0 215.5 -57t35.5 -156zM342 210l5 22
q-28 0 -45 -6q-40 -15 -40 -48q0 -14 7.5 -23t20.5 -9q22 0 33.5 15t18.5 49zM423 736h257l-224 -151h-192z" />
    <glyph glyph-name="acircumflex" unicode="&#xe2;" horiz-adv-x="643" 
d="M614 333l-35 -159q-30 -146 -34 -174h-240q0 15 5 55q-59 -69 -156 -69q-67 0 -106.5 36.5t-39.5 106.5q0 95 64.5 147.5t201.5 63.5q60 5 97 5l6 28q4 22 -2 30t-22 8q-13 0 -22 -7t-12 -14t-9 -24h-235q43 180 288 180q159 0 215.5 -57t35.5 -156zM342 210l5 22
q-28 0 -45 -6q-40 -15 -40 -48q0 -14 7.5 -23t20.5 -9q22 0 33.5 15t18.5 49zM309 725h210l71 -143h-176l-21 54l-43 -54h-176z" />
    <glyph glyph-name="atilde" unicode="&#xe3;" horiz-adv-x="643" 
d="M614 333l-35 -159q-30 -146 -34 -174h-240q0 15 5 55q-59 -69 -156 -69q-67 0 -106.5 36.5t-39.5 106.5q0 95 64.5 147.5t201.5 63.5q60 5 97 5l6 28q4 22 -2 30t-22 8q-13 0 -22 -7t-12 -14t-9 -24h-235q43 180 288 180q159 0 215.5 -57t35.5 -156zM342 210l5 22
q-28 0 -45 -6q-40 -15 -40 -48q0 -14 7.5 -23t20.5 -9q22 0 33.5 15t18.5 49zM323 581h-119l6 35q7 43 21 69.5t33.5 36.5t31.5 12.5t32 2.5q33 0 83 -17t63 -17t16 17l3 15h117l-4 -26q-7 -47 -21.5 -77t-34.5 -41t-33 -13.5t-34 -2.5q-30 0 -80.5 15.5t-59.5 15.5
q-13 0 -17 -15z" />
    <glyph glyph-name="adieresis" unicode="&#xe4;" horiz-adv-x="643" 
d="M614 333l-35 -159q-30 -146 -34 -174h-240q0 15 5 55q-59 -69 -156 -69q-67 0 -106.5 36.5t-39.5 106.5q0 95 64.5 147.5t201.5 63.5q60 5 97 5l6 28q4 22 -2 30t-22 8q-13 0 -22 -7t-12 -14t-9 -24h-235q43 180 288 180q159 0 215.5 -57t35.5 -156zM342 210l5 22
q-28 0 -45 -6q-40 -15 -40 -48q0 -14 7.5 -23t20.5 -9q22 0 33.5 15t18.5 49zM368 579h-186l34 157h186zM600 579h-186l34 157h186z" />
    <glyph glyph-name="aring" unicode="&#xe5;" horiz-adv-x="643" 
d="M614 333l-35 -159q-30 -146 -34 -174h-240q0 15 5 55q-59 -69 -156 -69q-67 0 -106.5 36.5t-39.5 106.5q0 95 64.5 147.5t201.5 63.5q60 5 97 5l6 28q4 22 -2 30t-22 8q-13 0 -22 -7t-12 -14t-9 -24h-235q43 180 288 180q159 0 215.5 -57t35.5 -156zM342 210l5 22
q-28 0 -45 -6q-40 -15 -40 -48q0 -14 7.5 -23t20.5 -9q22 0 33.5 15t18.5 49zM375 575q-61 0 -91.5 28t-30.5 67q0 58 45 87t112 29q65 0 97.5 -26.5t32.5 -68.5q0 -57 -46.5 -86.5t-118.5 -29.5zM393 657q38 0 38 26q0 22 -30 22q-18 0 -28.5 -7.5t-10.5 -18.5
q0 -22 31 -22z" />
    <glyph glyph-name="ae" unicode="&#xe6;" horiz-adv-x="973" 
d="M696 546q132 0 194 -57.5t62 -158.5q0 -49 -19 -111h-333q-5 -17 -5 -32q0 -52 36 -52q20 0 32.5 10.5t23.5 39.5h237q-32 -98 -106.5 -148.5t-215.5 -50.5q-124 0 -196 77q-91 -77 -225 -77q-80 0 -126.5 41.5t-46.5 111.5q0 86 68.5 141t224.5 55h59l7 25q11 39 -21 39
q-30 0 -41 -44h-235q19 90 83 140.5t204 50.5q118 0 174 -38q64 38 165 38zM343 198l4 21h-30q-23 0 -39.5 -9.5t-16.5 -26.5q0 -13 8 -20.5t21 -7.5q44 0 53 43zM625 335h78q4 20 4 29q0 40 -28 40q-37 0 -54 -69z" />
    <glyph glyph-name="ccedilla" unicode="&#xe7;" horiz-adv-x="639" 
d="M359 216h245q-24 -102 -85 -159t-181 -68l-30 -22q31 -8 54 -30t23 -58q0 -114 -178 -114q-61 0 -103 14l25 87q27 -5 40 -5q31 0 31 15q0 22 -43 25l10 55l47 35q-96 14 -142.5 72t-46.5 145q0 64 19.5 122t58 107.5t106 79t155.5 29.5q77 0 132.5 -20t83.5 -54
t39 -73.5t6 -84.5h-248q7 32 8.5 50t-4 28.5t-19.5 10.5q-31 0 -55.5 -80t-24.5 -153q0 -43 22 -43q18 0 30.5 21.5t24.5 67.5z" />
    <glyph glyph-name="egrave" unicode="&#xe8;" horiz-adv-x="655" 
d="M617 221h-335q-4 -19 -5 -25q-8 -64 33 -64q35 0 48 47h247q-27 -91 -107.5 -142t-203.5 -51q-61 0 -108.5 13.5t-77 35.5t-48.5 52.5t-26.5 62t-7.5 67.5q0 42 10 85t34.5 87.5t61.5 79t95.5 56t131.5 21.5q136 0 204.5 -59t68.5 -168q0 -44 -15 -98zM307 333h82
q4 17 4 35q0 39 -30 39q-38 0 -56 -74zM147 731h237l107 -151h-184z" />
    <glyph glyph-name="eacute" unicode="&#xe9;" horiz-adv-x="655" 
d="M617 221h-335q-4 -19 -5 -25q-8 -64 33 -64q35 0 48 47h247q-27 -91 -107.5 -142t-203.5 -51q-61 0 -108.5 13.5t-77 35.5t-48.5 52.5t-26.5 62t-7.5 67.5q0 42 10 85t34.5 87.5t61.5 79t95.5 56t131.5 21.5q136 0 204.5 -59t68.5 -168q0 -44 -15 -98zM307 333h82
q4 17 4 35q0 39 -30 39q-38 0 -56 -74zM420 731h257l-224 -151h-192z" />
    <glyph glyph-name="ecircumflex" unicode="&#xea;" horiz-adv-x="655" 
d="M617 221h-335q-4 -19 -5 -25q-8 -64 33 -64q35 0 48 47h247q-27 -91 -107.5 -142t-203.5 -51q-61 0 -108.5 13.5t-77 35.5t-48.5 52.5t-26.5 62t-7.5 67.5q0 42 10 85t34.5 87.5t61.5 79t95.5 56t131.5 21.5q136 0 204.5 -59t68.5 -168q0 -44 -15 -98zM307 333h82
q4 17 4 35q0 39 -30 39q-38 0 -56 -74zM310 721h210l71 -143h-176l-21 54l-43 -54h-176z" />
    <glyph glyph-name="edieresis" unicode="&#xeb;" horiz-adv-x="655" 
d="M617 221h-335q-4 -19 -5 -25q-8 -64 33 -64q35 0 48 47h247q-27 -91 -107.5 -142t-203.5 -51q-61 0 -108.5 13.5t-77 35.5t-48.5 52.5t-26.5 62t-7.5 67.5q0 42 10 85t34.5 87.5t61.5 79t95.5 56t131.5 21.5q136 0 204.5 -59t68.5 -168q0 -44 -15 -98zM307 333h82
q4 17 4 35q0 39 -30 39q-38 0 -56 -74zM359 577h-186l34 157h186zM591 577h-186l34 157h186z" />
    <glyph glyph-name="igrave" unicode="&#xec;" horiz-adv-x="341" 
d="M-12 0l113 532h255l-113 -532h-255zM-14 731h237l107 -151h-184z" />
    <glyph glyph-name="iacute" unicode="&#xed;" horiz-adv-x="341" 
d="M-12 0l113 532h255l-113 -532h-255zM294 731h257l-224 -151h-192z" />
    <glyph glyph-name="icircumflex" unicode="&#xee;" horiz-adv-x="341" 
d="M-12 0l113 532h255l-113 -532h-255zM163 713h210l71 -143h-176l-21 54l-43 -54h-176z" />
    <glyph glyph-name="idieresis" unicode="&#xef;" horiz-adv-x="341" 
d="M-12 0l113 532h255l-113 -532h-255zM214 574h-186l34 157h186zM446 574h-186l34 157h186z" />
    <glyph glyph-name="eth" unicode="&#xf0;" horiz-adv-x="660" 
d="M140 597l31 129q150 0 260 -46l114 61l32 -69l-67 -36q131 -94 131 -273q0 -173 -89.5 -275t-267.5 -102q-121 0 -192 58t-71 161q0 133 86.5 205.5t237.5 72.5h22q-8 30 -42 56l-130 -69l-30 69l75 40q-50 15 -100 18zM347 344q-23 0 -40 -38t-23.5 -76t-6.5 -61
q0 -39 25 -39q31 0 51 64.5t20 108.5q0 41 -26 41z" />
    <glyph glyph-name="ntilde" unicode="&#xf1;" horiz-adv-x="649" 
d="M-12 0l77 365q12 59 33 167h253q-1 -11 -7 -47q59 61 150 61q172 0 127 -214l-70 -332h-254l68 324q6 33 3 42t-17 9q-30 0 -42 -60l-66 -315h-255zM309 574h-119l6 35q7 43 21 69.5t33.5 36.5t31.5 12.5t32 2.5q34 0 84 -17t62 -17q13 0 16 17l3 15h117l-4 -26
q-7 -47 -21.5 -77t-34.5 -41t-33 -13.5t-34 -2.5q-30 0 -80.5 15.5t-59.5 15.5q-13 0 -17 -15z" />
    <glyph glyph-name="ograve" unicode="&#xf2;" horiz-adv-x="667" 
d="M366 546q137 0 206 -66.5t69 -168.5q0 -67 -19.5 -123.5t-59.5 -102.5t-109.5 -72.5t-161.5 -26.5q-74 0 -128.5 20.5t-83.5 55t-42 73.5t-13 83q0 63 20 119.5t60 104.5t107.5 76t154.5 28zM361 399q-35 0 -58.5 -85.5t-23.5 -138.5q0 -45 27 -45q35 0 57.5 91t22.5 141
q0 37 -25 37zM163 731h237l107 -151h-184z" />
    <glyph glyph-name="oacute" unicode="&#xf3;" horiz-adv-x="667" 
d="M366 546q137 0 206 -66.5t69 -168.5q0 -67 -19.5 -123.5t-59.5 -102.5t-109.5 -72.5t-161.5 -26.5q-74 0 -128.5 20.5t-83.5 55t-42 73.5t-13 83q0 63 20 119.5t60 104.5t107.5 76t154.5 28zM361 399q-35 0 -58.5 -85.5t-23.5 -138.5q0 -45 27 -45q35 0 57.5 91t22.5 141
q0 37 -25 37zM426 731h257l-224 -151h-192z" />
    <glyph glyph-name="ocircumflex" unicode="&#xf4;" horiz-adv-x="667" 
d="M366 546q137 0 206 -66.5t69 -168.5q0 -67 -19.5 -123.5t-59.5 -102.5t-109.5 -72.5t-161.5 -26.5q-74 0 -128.5 20.5t-83.5 55t-42 73.5t-13 83q0 63 20 119.5t60 104.5t107.5 76t154.5 28zM361 399q-35 0 -58.5 -85.5t-23.5 -138.5q0 -45 27 -45q35 0 57.5 91t22.5 141
q0 37 -25 37zM316 713h210l71 -143h-176l-21 54l-43 -54h-176z" />
    <glyph glyph-name="otilde" unicode="&#xf5;" horiz-adv-x="667" 
d="M366 546q137 0 206 -66.5t69 -168.5q0 -67 -19.5 -123.5t-59.5 -102.5t-109.5 -72.5t-161.5 -26.5q-74 0 -128.5 20.5t-83.5 55t-42 73.5t-13 83q0 63 20 119.5t60 104.5t107.5 76t154.5 28zM361 399q-35 0 -58.5 -85.5t-23.5 -138.5q0 -45 27 -45q35 0 57.5 91t22.5 141
q0 37 -25 37zM318 580h-119l6 35q7 43 21 69.5t33.5 36.5t31.5 12.5t32 2.5q33 0 83 -17t63 -17t16 17l3 15h117l-4 -26q-7 -47 -21.5 -77t-34.5 -41t-33 -13.5t-34 -2.5q-30 0 -80.5 15.5t-59.5 15.5q-13 0 -17 -15z" />
    <glyph glyph-name="odieresis" unicode="&#xf6;" horiz-adv-x="667" 
d="M366 546q137 0 206 -66.5t69 -168.5q0 -67 -19.5 -123.5t-59.5 -102.5t-109.5 -72.5t-161.5 -26.5q-74 0 -128.5 20.5t-83.5 55t-42 73.5t-13 83q0 63 20 119.5t60 104.5t107.5 76t154.5 28zM361 399q-35 0 -58.5 -85.5t-23.5 -138.5q0 -45 27 -45q35 0 57.5 91t22.5 141
q0 37 -25 37zM364 577h-186l34 157h186zM596 577h-186l34 157h186z" />
    <glyph glyph-name="divide" unicode="&#xf7;" horiz-adv-x="616" 
d="M399 3h-176v142h176v-142zM572 183h-528v161h528v-161zM399 386h-176v145h176v-145z" />
    <glyph glyph-name="oslash" unicode="&#xf8;" horiz-adv-x="667" 
d="M371 546q92 0 155 -29l27 29h83l-59 -63q64 -58 64 -161q0 -149 -90.5 -242.5t-262.5 -93.5q-90 0 -150 27l-25 -27h-83l57 61q-63 56 -63 163q0 90 37 164.5t117.5 123t192.5 48.5zM365 399q-32 0 -55.5 -46t-36.5 -107l124 133q-7 20 -32 20zM299 130q32 0 57 47
t37 109l-125 -134q7 -22 31 -22z" />
    <glyph glyph-name="ugrave" unicode="&#xf9;" horiz-adv-x="648" 
d="M662 532l-76 -360q-25 -118 -33 -172h-250q-2 15 3 47q-35 -32 -66.5 -46.5t-85.5 -14.5q-87 0 -117 55t-9 153l71 338h254l-69 -327q-6 -25 -2.5 -36.5t18.5 -11.5q29 0 40 58l67 317h255zM154 731h237l107 -151h-184z" />
    <glyph glyph-name="uacute" unicode="&#xfa;" horiz-adv-x="648" 
d="M662 532l-76 -360q-25 -118 -33 -172h-250q-2 15 3 47q-35 -32 -66.5 -46.5t-85.5 -14.5q-87 0 -117 55t-9 153l71 338h254l-69 -327q-6 -25 -2.5 -36.5t18.5 -11.5q29 0 40 58l67 317h255zM430 727h257l-224 -151h-192z" />
    <glyph glyph-name="ucircumflex" unicode="&#xfb;" horiz-adv-x="648" 
d="M662 532l-76 -360q-25 -118 -33 -172h-250q-2 15 3 47q-35 -32 -66.5 -46.5t-85.5 -14.5q-87 0 -117 55t-9 153l71 338h254l-69 -327q-6 -25 -2.5 -36.5t18.5 -11.5q29 0 40 58l67 317h255zM312 713h210l71 -143h-176l-21 54l-43 -54h-176z" />
    <glyph glyph-name="udieresis" unicode="&#xfc;" horiz-adv-x="648" 
d="M662 532l-76 -360q-25 -118 -33 -172h-250q-2 15 3 47q-35 -32 -66.5 -46.5t-85.5 -14.5q-87 0 -117 55t-9 153l71 338h254l-69 -327q-6 -25 -2.5 -36.5t18.5 -11.5q29 0 40 58l67 317h255zM360 570h-186l34 157h186zM592 570h-186l34 157h186z" />
    <glyph glyph-name="yacute" unicode="&#xfd;" horiz-adv-x="588" 
d="M38 532h254q-9 -239 -16 -333h8q63 192 113 333h250l-212 -431q-39 -80 -65.5 -125t-56.5 -82.5t-64 -53t-76 -23.5t-106 -8q-54 0 -98 6l36 169q14 -2 31 -2q47 0 59 17zM387 731h257l-224 -151h-192z" />
    <glyph glyph-name="thorn" unicode="&#xfe;" horiz-adv-x="666" 
d="M-49 -181l189 897h257l-46 -213q19 15 28 20.5t38 14t66 8.5q73 0 119 -48t46 -154q0 -91 -34.5 -171.5t-105.5 -133.5t-164 -53q-61 0 -96 33l-42 -200h-255zM292 255q-14 -56 -13 -87t25 -31q33 0 56 77t23 127q0 31 -6 39.5t-20 8.5q-22 0 -36.5 -32.5t-28.5 -101.5z
" />
    <glyph glyph-name="ydieresis" unicode="&#xff;" horiz-adv-x="588" 
d="M38 532h254q-9 -239 -16 -333h8q63 192 113 333h250l-212 -431q-39 -80 -65.5 -125t-56.5 -82.5t-64 -53t-76 -23.5t-106 -8q-54 0 -98 6l36 169q14 -2 31 -2q47 0 59 17zM323 575h-186l34 157h186zM555 575h-186l34 157h186z" />
    <glyph glyph-name="Amacron" unicode="&#x100;" horiz-adv-x="708" 
d="M403 126h-149l-47 -126h-270l330 690h354l45 -690h-263v126zM322 301h84q0 20 -0.5 99.5t-0.5 113.5h-6q-23 -69 -77 -213zM308 876h339l-30 -138h-339z" />
    <glyph glyph-name="amacron" unicode="&#x101;" horiz-adv-x="643" 
d="M614 333l-35 -159q-30 -146 -34 -174h-240q0 15 5 55q-59 -69 -156 -69q-67 0 -106.5 36.5t-39.5 106.5q0 95 64.5 147.5t201.5 63.5q60 5 97 5l6 28q4 22 -2 30t-22 8q-13 0 -22 -7t-12 -14t-9 -24h-235q43 180 288 180q159 0 215.5 -57t35.5 -156zM342 210l5 22
q-28 0 -45 -6q-40 -15 -40 -48q0 -14 7.5 -23t20.5 -9q22 0 33.5 15t18.5 49zM248 720h339l-29 -138h-339z" />
    <glyph glyph-name="Abreve" unicode="&#x102;" horiz-adv-x="708" 
d="M403 126h-149l-47 -126h-270l330 690h354l45 -690h-263v126zM322 301h84q0 20 -0.5 99.5t-0.5 113.5h-6q-23 -69 -77 -213zM286 888h142q2 -42 37 -42q40 0 52 42h143q-11 -32 -24 -55.5t-37 -49.5t-62.5 -40t-90.5 -14q-47 0 -81 14.5t-51.5 38.5t-24 50.5t-3.5 55.5z
" />
    <glyph glyph-name="abreve" unicode="&#x103;" horiz-adv-x="643" 
d="M614 333l-35 -159q-30 -146 -34 -174h-240q0 15 5 55q-59 -69 -156 -69q-67 0 -106.5 36.5t-39.5 106.5q0 95 64.5 147.5t201.5 63.5q60 5 97 5l6 28q4 22 -2 30t-22 8q-13 0 -22 -7t-12 -14t-9 -24h-235q43 180 288 180q159 0 215.5 -57t35.5 -156zM342 210l5 22
q-28 0 -45 -6q-40 -15 -40 -48q0 -14 7.5 -23t20.5 -9q22 0 33.5 15t18.5 49zM223 735h159q0 -30 22 -30q24 0 34 30h159q-11 -32 -24 -55.5t-37 -49.5t-63.5 -40t-92.5 -14q-48 0 -82.5 15t-50 40t-21.5 50.5t-3 53.5z" />
    <glyph glyph-name="Aogonek" unicode="&#x104;" horiz-adv-x="708" 
d="M403 126h-149l-47 -126h-270l330 690h354l45 -690h-33q-46 -29 -46 -56q0 -24 36 -24q15 0 32 3l-12 -118q-47 -30 -135 -30q-55 0 -89.5 25.5t-34.5 72.5q0 68 93 127h-74v126zM322 301h84q0 20 -0.5 99.5t-0.5 113.5h-6q-23 -69 -77 -213z" />
    <glyph glyph-name="aogonek" unicode="&#x105;" horiz-adv-x="643" 
d="M614 333l-35 -159q-30 -146 -34 -174h-32q-46 -29 -46 -56q0 -24 36 -24q15 0 32 3l-12 -118q-47 -30 -135 -30q-55 0 -89.5 25.5t-34.5 72.5q0 68 93 127h-52q0 15 5 55q-59 -69 -156 -69q-67 0 -106.5 36.5t-39.5 106.5q0 95 64.5 147.5t201.5 63.5q60 5 97 5l6 28
q4 22 -2 30t-22 8q-13 0 -22 -7t-12 -14t-9 -24h-235q43 180 288 180q159 0 215.5 -57t35.5 -156zM342 210l5 22q-28 0 -45 -6q-40 -15 -40 -48q0 -14 7.5 -23t20.5 -9q22 0 33.5 15t18.5 49z" />
    <glyph glyph-name="Cacute" unicode="&#x106;" horiz-adv-x="724" 
d="M450 251h259q-65 -269 -372 -269q-153 0 -227 79t-74 211q0 62 13.5 121.5t44.5 117t76.5 101t115 70t154.5 26.5q156 0 232 -74t68 -188h-258q3 43 -8.5 67t-45.5 24q-31 0 -56 -33t-38.5 -82t-20.5 -96t-7 -83q0 -87 56 -87q34 0 53.5 24.5t34.5 70.5zM479 875h269
l-204 -131h-206z" />
    <glyph glyph-name="cacute" unicode="&#x107;" horiz-adv-x="639" 
d="M359 216h245q-18 -74 -52 -122.5t-102.5 -78t-171.5 -29.5q-128 0 -190.5 61t-62.5 161q0 64 19.5 122t58 107.5t106 79t155.5 29.5q77 0 132.5 -20t83.5 -54t39 -73.5t6 -84.5h-248q7 32 8.5 50t-4 28.5t-19.5 10.5q-31 0 -55.5 -80t-24.5 -153q0 -43 22 -43
q18 0 30.5 21.5t24.5 67.5zM418 731h257l-224 -151h-192z" />
    <glyph glyph-name="Ccircumflex" unicode="&#x108;" horiz-adv-x="724" 
d="M450 251h259q-65 -269 -372 -269q-153 0 -227 79t-74 211q0 62 13.5 121.5t44.5 117t76.5 101t115 70t154.5 26.5q156 0 232 -74t68 -188h-258q3 43 -8.5 67t-45.5 24q-31 0 -56 -33t-38.5 -82t-20.5 -96t-7 -83q0 -87 56 -87q34 0 53.5 24.5t34.5 70.5zM366 871h248
l70 -131h-186l-24 55l-43 -55h-194z" />
    <glyph glyph-name="ccircumflex" unicode="&#x109;" horiz-adv-x="639" 
d="M359 216h245q-18 -74 -52 -122.5t-102.5 -78t-171.5 -29.5q-128 0 -190.5 61t-62.5 161q0 64 19.5 122t58 107.5t106 79t155.5 29.5q77 0 132.5 -20t83.5 -54t39 -73.5t6 -84.5h-248q7 32 8.5 50t-4 28.5t-19.5 10.5q-31 0 -55.5 -80t-24.5 -153q0 -43 22 -43
q18 0 30.5 21.5t24.5 67.5zM306 723h210l71 -143h-176l-21 54l-43 -54h-176z" />
    <glyph glyph-name="Cdotaccent" unicode="&#x10a;" horiz-adv-x="724" 
d="M450 251h259q-65 -269 -372 -269q-153 0 -227 79t-74 211q0 62 13.5 121.5t44.5 117t76.5 101t115 70t154.5 26.5q156 0 232 -74t68 -188h-258q3 43 -8.5 67t-45.5 24q-31 0 -56 -33t-38.5 -82t-20.5 -96t-7 -83q0 -87 56 -87q34 0 53.5 24.5t34.5 70.5zM562 748h-199
l34 157h199z" />
    <glyph glyph-name="cdotaccent" unicode="&#x10b;" horiz-adv-x="639" 
d="M359 216h245q-18 -74 -52 -122.5t-102.5 -78t-171.5 -29.5q-128 0 -190.5 61t-62.5 161q0 64 19.5 122t58 107.5t106 79t155.5 29.5q77 0 132.5 -20t83.5 -54t39 -73.5t6 -84.5h-248q7 32 8.5 50t-4 28.5t-19.5 10.5q-31 0 -55.5 -80t-24.5 -153q0 -43 22 -43
q18 0 30.5 21.5t24.5 67.5zM499 581h-237l34 157h237z" />
    <glyph glyph-name="Ccaron" unicode="&#x10c;" horiz-adv-x="724" 
d="M450 251h259q-65 -269 -372 -269q-153 0 -227 79t-74 211q0 62 13.5 121.5t44.5 117t76.5 101t115 70t154.5 26.5q156 0 232 -74t68 -188h-258q3 43 -8.5 67t-45.5 24q-31 0 -56 -33t-38.5 -82t-20.5 -96t-7 -83q0 -87 56 -87q34 0 53.5 24.5t34.5 70.5zM575 746h-248
l-70 131h186l24 -55l43 55h194z" />
    <glyph glyph-name="ccaron" unicode="&#x10d;" horiz-adv-x="639" 
d="M359 216h245q-18 -74 -52 -122.5t-102.5 -78t-171.5 -29.5q-128 0 -190.5 61t-62.5 161q0 64 19.5 122t58 107.5t106 79t155.5 29.5q77 0 132.5 -20t83.5 -54t39 -73.5t6 -84.5h-248q7 32 8.5 50t-4 28.5t-19.5 10.5q-31 0 -55.5 -80t-24.5 -153q0 -43 22 -43
q18 0 30.5 21.5t24.5 67.5zM480 580h-210l-71 143h176l21 -54l43 54h176z" />
    <glyph glyph-name="Dcaron" unicode="&#x10e;" horiz-adv-x="753" 
d="M0 0l146 690h293q153 0 233.5 -80t80.5 -210q0 -36 -5 -71.5t-18 -76t-33.5 -76t-53.5 -68.5t-75.5 -56.5t-103 -37.5t-132.5 -14h-332zM374 522l-76 -354h54q33 0 59.5 28t40.5 70t21 83t7 74q0 52 -16 75.5t-57 23.5h-33zM549 726h-248l-70 131h186l24 -55l43 55h194z
" />
    <glyph glyph-name="dcaron" unicode="&#x10f;" horiz-adv-x="810" 
d="M460 716h253l-117 -549q-25 -116 -31 -167h-249q0 16 3 37q-44 -51 -133 -51q-77 0 -119 50.5t-42 141.5q0 94 31 176.5t95 137t148 54.5q39 0 72 -10.5t44 -25.5zM365 395q-35 0 -59 -82.5t-24 -130.5q0 -44 25 -44q24 0 39.5 36t30.5 107q14 55 13 84.5t-25 29.5z
M742 716h168l-85 -323h-142z" />
    <glyph glyph-name="Dcroat" unicode="&#x110;" horiz-adv-x="763" 
d="M37 403h58l61 287h293q153 0 233.5 -80t80.5 -210q0 -36 -5 -71.5t-18 -76t-33.5 -76t-53.5 -68.5t-75.5 -56.5t-103 -37.5t-132.5 -14h-332l60 282h-59zM384 522l-26 -119h70l-26 -121h-70l-24 -114h54q33 0 59.5 28t40.5 70t21 83t7 74q0 52 -16 75.5t-57 23.5h-33z
" />
    <glyph glyph-name="dcroat" unicode="&#x111;" horiz-adv-x="660" 
d="M256 665h194l11 51h253l-11 -51h47l-23 -97h-45l-85 -401q-25 -116 -31 -167h-249q0 16 3 37q-44 -51 -129 -51q-79 0 -123 47t-44 144q0 92 32 170.5t96.5 128.5t149.5 50q84 0 111 -36l17 78h-197zM362 375q-35 0 -57 -73t-22 -120q0 -44 25 -44q24 0 38.5 31.5
t29.5 101.5q7 32 9.5 48.5t2 31t-6.5 19.5t-19 5z" />
    <glyph glyph-name="Emacron" unicode="&#x112;" horiz-adv-x="636" 
d="M623 433l-38 -175h-282l-18 -83h326l-64 -175h-548l146 690h543l-36 -175h-293l-18 -82h282zM282 876h339l-30 -138h-339z" />
    <glyph glyph-name="emacron" unicode="&#x113;" horiz-adv-x="655" 
d="M617 221h-335q-4 -19 -5 -25q-8 -64 33 -64q35 0 48 47h247q-27 -91 -107.5 -142t-203.5 -51q-61 0 -108.5 13.5t-77 35.5t-48.5 52.5t-26.5 62t-7.5 67.5q0 42 10 85t34.5 87.5t61.5 79t95.5 56t131.5 21.5q136 0 204.5 -59t68.5 -168q0 -44 -15 -98zM307 333h82
q4 17 4 35q0 39 -30 39q-38 0 -56 -74zM242 718h339l-29 -138h-339z" />
    <glyph glyph-name="Ebreve" unicode="&#x114;" horiz-adv-x="636" 
d="M623 433l-38 -175h-282l-18 -83h326l-64 -175h-548l146 690h543l-36 -175h-293l-18 -82h282zM260 888h142q2 -42 37 -42q40 0 52 42h143q-11 -32 -24 -55.5t-37 -49.5t-62.5 -40t-90.5 -14q-47 0 -81 14.5t-51.5 38.5t-24 50.5t-3.5 55.5z" />
    <glyph glyph-name="ebreve" unicode="&#x115;" horiz-adv-x="655" 
d="M617 221h-335q-4 -19 -5 -25q-8 -64 33 -64q35 0 48 47h247q-27 -91 -107.5 -142t-203.5 -51q-61 0 -108.5 13.5t-77 35.5t-48.5 52.5t-26.5 62t-7.5 67.5q0 42 10 85t34.5 87.5t61.5 79t95.5 56t131.5 21.5q136 0 204.5 -59t68.5 -168q0 -44 -15 -98zM307 333h82
q4 17 4 35q0 39 -30 39q-38 0 -56 -74zM226 734h159q0 -30 22 -30q24 0 34 30h159q-11 -32 -24 -55.5t-37 -49.5t-63.5 -40t-92.5 -14q-48 0 -82.5 15t-50 40t-21.5 50.5t-3 53.5z" />
    <glyph glyph-name="Edotaccent" unicode="&#x116;" horiz-adv-x="636" 
d="M623 433l-38 -175h-282l-18 -83h326l-64 -175h-548l146 690h543l-36 -175h-293l-18 -82h282zM518 737h-199l34 157h199z" />
    <glyph glyph-name="edotaccent" unicode="&#x117;" horiz-adv-x="655" 
d="M617 221h-335q-4 -19 -5 -25q-8 -64 33 -64q35 0 48 47h247q-27 -91 -107.5 -142t-203.5 -51q-61 0 -108.5 13.5t-77 35.5t-48.5 52.5t-26.5 62t-7.5 67.5q0 42 10 85t34.5 87.5t61.5 79t95.5 56t131.5 21.5q136 0 204.5 -59t68.5 -168q0 -44 -15 -98zM307 333h82
q4 17 4 35q0 39 -30 39q-38 0 -56 -74zM499 582h-237l34 157h237z" />
    <glyph glyph-name="Eogonek" unicode="&#x118;" horiz-adv-x="636" 
d="M623 433l-38 -175h-282l-18 -83h326l-64 -175h-36q-46 -29 -46 -56q0 -24 36 -24q15 0 32 3l-12 -118q-47 -30 -135 -30q-55 0 -89.5 25.5t-34.5 72.5q0 68 93 127h-356l146 690h543l-36 -175h-293l-18 -82h282z" />
    <glyph glyph-name="eogonek" unicode="&#x119;" horiz-adv-x="655" 
d="M617 221h-335q-4 -19 -5 -25q-8 -64 33 -64q35 0 48 47h247q-42 -139 -193 -178q-47 -30 -47 -57q0 -24 36 -24q15 0 32 3l-12 -118q-47 -30 -135 -30q-55 0 -89.5 25.5t-34.5 72.5q0 62 77 116q-79 9 -128.5 45.5t-67 81.5t-17.5 101q0 42 10 85t34.5 87.5t61.5 79
t95.5 56t131.5 21.5q136 0 204.5 -59t68.5 -168q0 -44 -15 -98zM307 333h82q4 17 4 35q0 39 -30 39q-38 0 -56 -74z" />
    <glyph glyph-name="Ecaron" unicode="&#x11a;" horiz-adv-x="636" 
d="M623 433l-38 -175h-282l-18 -83h326l-64 -175h-548l146 690h543l-36 -175h-293l-18 -82h282zM531 736h-248l-70 131h186l24 -55l43 55h194z" />
    <glyph glyph-name="ecaron" unicode="&#x11b;" horiz-adv-x="655" 
d="M617 221h-335q-4 -19 -5 -25q-8 -64 33 -64q35 0 48 47h247q-27 -91 -107.5 -142t-203.5 -51q-61 0 -108.5 13.5t-77 35.5t-48.5 52.5t-26.5 62t-7.5 67.5q0 42 10 85t34.5 87.5t61.5 79t95.5 56t131.5 21.5q136 0 204.5 -59t68.5 -168q0 -44 -15 -98zM307 333h82
q4 17 4 35q0 39 -30 39q-38 0 -56 -74zM486 578h-210l-71 143h176l21 -54l43 54h176z" />
    <glyph glyph-name="Gcircumflex" unicode="&#x11c;" horiz-adv-x="763" 
d="M750 398l-87 -398h-169q-4 32 -3 54q-63 -72 -198 -72q-126 0 -191 78.5t-65 203.5q0 85 25.5 162.5t75.5 141.5t132.5 102t186.5 38q153 0 229.5 -64.5t79.5 -163.5h-259q0 63 -60 63q-35 0 -62.5 -32t-43 -79.5t-23 -93.5t-7.5 -83q0 -100 62 -100q70 0 88 87l1 5h-85
l36 151h337zM375 871h248l70 -131h-186l-24 55l-43 -55h-194z" />
    <glyph glyph-name="gcircumflex" unicode="&#x11d;" horiz-adv-x="655" 
d="M632 356l-62 -290q-14 -68 -34.5 -112.5t-57.5 -79t-94 -50t-141 -15.5q-68 0 -117.5 13t-75.5 31t-41.5 45t-19.5 47.5t-4 46.5h241q-2 -39 32 -39q12 0 20 3t17.5 18.5t15.5 43.5l11 53q-50 -43 -132 -43q-79 0 -122 48.5t-43 133.5q0 81 29.5 156t93 127.5t147.5 52.5
q47 0 77.5 -15t39.5 -37q6 17 15 38h246q-11 -38 -41 -176zM358 398q-30 0 -52.5 -69t-22.5 -119q0 -41 27 -41q13 0 24 11.5t19 35.5t12.5 41t10.5 46q12 51 9 73t-27 22zM330 720h210l71 -143h-176l-21 54l-43 -54h-176z" />
    <glyph glyph-name="Gbreve" unicode="&#x11e;" horiz-adv-x="763" 
d="M750 398l-87 -398h-169q-4 32 -3 54q-63 -72 -198 -72q-126 0 -191 78.5t-65 203.5q0 85 25.5 162.5t75.5 141.5t132.5 102t186.5 38q153 0 229.5 -64.5t79.5 -163.5h-259q0 63 -60 63q-35 0 -62.5 -32t-43 -79.5t-23 -93.5t-7.5 -83q0 -100 62 -100q70 0 88 87l1 5h-85
l36 151h337zM313 898h142q2 -42 37 -42q40 0 52 42h143q-11 -32 -24 -55.5t-37 -49.5t-62.5 -40t-90.5 -14q-47 0 -81 14.5t-51.5 38.5t-24 50.5t-3.5 55.5z" />
    <glyph glyph-name="gbreve" unicode="&#x11f;" horiz-adv-x="655" 
d="M632 356l-62 -290q-14 -68 -34.5 -112.5t-57.5 -79t-94 -50t-141 -15.5q-68 0 -117.5 13t-75.5 31t-41.5 45t-19.5 47.5t-4 46.5h241q-2 -39 32 -39q12 0 20 3t17.5 18.5t15.5 43.5l11 53q-50 -43 -132 -43q-79 0 -122 48.5t-43 133.5q0 81 29.5 156t93 127.5t147.5 52.5
q47 0 77.5 -15t39.5 -37q6 17 15 38h246q-11 -38 -41 -176zM358 398q-30 0 -52.5 -69t-22.5 -119q0 -41 27 -41q13 0 24 11.5t19 35.5t12.5 41t10.5 46q12 51 9 73t-27 22zM246 728h159q0 -30 22 -30q24 0 34 30h159q-11 -32 -24 -55.5t-37 -49.5t-63.5 -40t-92.5 -14
q-48 0 -82.5 15t-50 40t-21.5 50.5t-3 53.5z" />
    <glyph glyph-name="Gdotaccent" unicode="&#x120;" horiz-adv-x="763" 
d="M750 398l-87 -398h-169q-4 32 -3 54q-63 -72 -198 -72q-126 0 -191 78.5t-65 203.5q0 85 25.5 162.5t75.5 141.5t132.5 102t186.5 38q153 0 229.5 -64.5t79.5 -163.5h-259q0 63 -60 63q-35 0 -62.5 -32t-43 -79.5t-23 -93.5t-7.5 -83q0 -100 62 -100q70 0 88 87l1 5h-85
l36 151h337zM571 747h-199l34 157h199z" />
    <glyph glyph-name="gdotaccent" unicode="&#x121;" horiz-adv-x="655" 
d="M632 356l-62 -290q-14 -68 -34.5 -112.5t-57.5 -79t-94 -50t-141 -15.5q-68 0 -117.5 13t-75.5 31t-41.5 45t-19.5 47.5t-4 46.5h241q-2 -39 32 -39q12 0 20 3t17.5 18.5t15.5 43.5l11 53q-50 -43 -132 -43q-79 0 -122 48.5t-43 133.5q0 81 29.5 156t93 127.5t147.5 52.5
q47 0 77.5 -15t39.5 -37q6 17 15 38h246q-11 -38 -41 -176zM358 398q-30 0 -52.5 -69t-22.5 -119q0 -41 27 -41q13 0 24 11.5t19 35.5t12.5 41t10.5 46q12 51 9 73t-27 22zM529 575h-237l34 157h237z" />
    <glyph glyph-name="uni0122" unicode="&#x122;" horiz-adv-x="763" 
d="M750 398l-87 -398h-169q-4 32 -3 54q-63 -72 -198 -72q-126 0 -191 78.5t-65 203.5q0 85 25.5 162.5t75.5 141.5t132.5 102t186.5 38q153 0 229.5 -64.5t79.5 -163.5h-259q0 63 -60 63q-35 0 -62.5 -32t-43 -79.5t-23 -93.5t-7.5 -83q0 -100 62 -100q70 0 88 87l1 5h-85
l36 151h337zM345 -243h-169q65 80 100 194h196q-17 -54 -53.5 -110.5t-73.5 -83.5z" />
    <glyph glyph-name="uni0123" unicode="&#x123;" horiz-adv-x="655" 
d="M434 774h197q-37 -37 -67.5 -90.5t-46.5 -102.5h-219q19 55 56.5 110t79.5 83zM632 356l-62 -290q-14 -68 -34.5 -112.5t-57.5 -79t-94 -50t-141 -15.5q-68 0 -117.5 13t-75.5 31t-41.5 45t-19.5 47.5t-4 46.5h241q-2 -39 32 -39q12 0 20 3t17.5 18.5t15.5 43.5l11 53
q-50 -43 -132 -43q-79 0 -122 48.5t-43 133.5q0 81 29.5 156t93 127.5t147.5 52.5q47 0 77.5 -15t39.5 -37q6 17 15 38h246q-11 -38 -41 -176zM358 398q-30 0 -52.5 -69t-22.5 -119q0 -41 27 -41q13 0 24 11.5t19 35.5t12.5 41t10.5 46q12 51 9 73t-27 22z" />
    <glyph glyph-name="Hcircumflex" unicode="&#x124;" horiz-adv-x="756" 
d="M-1 0l146 690h264l-52 -245h119l52 245h265l-146 -690h-265l55 270h-119l-55 -270h-264zM382 861h248l70 -131h-186l-24 55l-43 -55h-194z" />
    <glyph glyph-name="hcircumflex" unicode="&#x125;" horiz-adv-x="648" 
d="M178 874h251l67 -125h-189l-22 50l-39 -50h-194zM-12 0l152 716h255l-48 -223q58 53 143 53q175 0 131 -210l-71 -336h-253l69 329q10 46 -14 46q-30 0 -44 -66l-65 -309h-255z" />
    <glyph glyph-name="Hbar" unicode="&#x126;" horiz-adv-x="756" 
d="M355 427h119l15 74h-119zM-1 0l106 501h-47l24 111h46l17 78h264l-16 -78h119l16 78h265l-17 -78h51l-24 -111h-50l-106 -501h-265l50 238h-119l-50 -238h-264z" />
    <glyph glyph-name="hbar" unicode="&#x127;" horiz-adv-x="648" 
d="M-12 0l121 568h-66l23 97h63l11 51h255l-11 -51h176l-23 -97h-174l-20 -95q58 53 149 53q169 0 125 -210l-67 -316h-253l65 309q10 46 -14 46q-30 0 -44 -66l-61 -289h-255z" />
    <glyph glyph-name="Itilde" unicode="&#x128;" horiz-adv-x="372" 
d="M145 690h264l-146 -690h-264zM221 732h-119l6 37q6 33 17.5 56.5t24 35t29.5 18t27.5 7.5t25.5 1q34 0 81 -16.5t59 -16.5t16 19l3 13h117l-6 -36q-6 -34 -17.5 -58.5t-23 -37t-28.5 -19.5t-28 -8t-27 -1q-29 0 -80.5 15.5t-60.5 15.5q-10 0 -14 -15z" />
    <glyph glyph-name="itilde" unicode="&#x129;" horiz-adv-x="341" 
d="M-12 0l113 532h255l-113 -532h-255zM175 574h-119l6 35q7 43 21 69.5t33.5 36.5t31.5 12.5t32 2.5q34 0 84 -17t62 -17q13 0 16 17l3 15h117l-4 -26q-7 -47 -21.5 -77t-34.5 -41t-33 -13.5t-34 -2.5q-30 0 -80.5 15.5t-59.5 15.5q-13 0 -17 -15z" />
    <glyph glyph-name="Imacron" unicode="&#x12a;" horiz-adv-x="372" 
d="M145 690h264l-146 -690h-264zM145 876h339l-30 -138h-339z" />
    <glyph glyph-name="imacron" unicode="&#x12b;" horiz-adv-x="341" 
d="M-12 0l113 532h255l-113 -532h-255zM90 712h339l-29 -138h-339z" />
    <glyph glyph-name="Iogonek" unicode="&#x12e;" horiz-adv-x="372" 
d="M145 690h264l-146 -690h-31q-46 -29 -46 -56q0 -24 36 -24q15 0 32 3l-12 -118q-47 -30 -135 -30q-55 0 -89.5 25.5t-34.5 72.5q0 68 93 127h-77z" />
    <glyph glyph-name="iogonek" unicode="&#x12f;" horiz-adv-x="341" 
d="M-12 0l113 532h255l-113 -532h-29q-46 -29 -46 -56q0 -24 36 -24q16 0 32 3l-12 -118q-47 -30 -135 -30q-55 0 -89.5 25.5t-34.5 72.5q0 68 93 127h-70zM110 574l30 143h255l-30 -143h-255z" />
    <glyph glyph-name="Idotaccent" unicode="&#x130;" horiz-adv-x="372" 
d="M145 690h264l-146 -690h-264zM386 737h-199l34 157h199z" />
    <glyph glyph-name="dotlessi" unicode="&#x131;" horiz-adv-x="341" 
d="M-12 0l113 532h255l-113 -532h-255z" />
    <glyph glyph-name="Jcircumflex" unicode="&#x134;" horiz-adv-x="433" 
d="M121 241l95 449h261l-99 -464q-13 -61 -27.5 -98.5t-44 -71.5t-79 -49t-123.5 -15q-83 0 -143 12l38 177q30 -4 46 -4q41 0 54.5 13t21.5 51zM250 861h248l70 -131h-186l-24 55l-43 -55h-194z" />
    <glyph glyph-name="jcircumflex" unicode="&#x135;" horiz-adv-x="343" 
d="M104 532h252l-98 -457q-26 -126 -42 -161q-31 -73 -105 -94q-40 -11 -99 -11q-35 0 -98 7l35 159q5 -1 12 -1q17 0 23.5 8t9.5 26zM154 713h210l71 -143h-176l-21 54l-43 -54h-176z" />
    <glyph glyph-name="uni0136" unicode="&#x136;" horiz-adv-x="738" 
d="M-1 0l146 690h262l-54 -253q119 153 195 253h301l-278 -286l142 -404h-276l-66 251l-72 -70l-38 -181h-262zM313 -243h-169q65 80 100 194h196q-17 -54 -53.5 -110.5t-73.5 -83.5z" />
    <glyph glyph-name="uni0137" unicode="&#x137;" horiz-adv-x="659" 
d="M395 716l-79 -368q58 94 115 184h283q-24 -26 -92 -103t-106 -118q70 -217 95 -311h-256q-25 110 -37 172l-49 -48l-26 -124h-255l152 716h255zM256 -231h-169q65 80 100 194h196q-17 -54 -53.5 -110.5t-73.5 -83.5z" />
    <glyph glyph-name="kgreenlandic" unicode="&#x138;" horiz-adv-x="658" 
d="M354 532l-39 -184q58 94 115 184h283q-24 -26 -92 -103t-106 -118q70 -217 95 -311h-256q-25 110 -37 172l-49 -48l-26 -124h-255l112 532h255z" />
    <glyph glyph-name="Lacute" unicode="&#x139;" horiz-adv-x="606" 
d="M-1 0l146 690h264l-109 -515h288l-65 -175h-524zM310 865h269l-204 -131h-206z" />
    <glyph glyph-name="lacute" unicode="&#x13a;" horiz-adv-x="342" 
d="M345 883h267l-238 -126h-217zM243 0h-255l152 716h255z" />
    <glyph glyph-name="uni013B" unicode="&#x13b;" horiz-adv-x="606" 
d="M-1 0l146 690h264l-109 -515h288l-65 -175h-524zM237 -243h-169q65 80 100 194h196q-17 -54 -53.5 -110.5t-73.5 -83.5z" />
    <glyph glyph-name="uni013C" unicode="&#x13c;" horiz-adv-x="342" 
d="M243 0h-255l152 716h255zM75 -243h-169q65 80 100 194h196q-17 -54 -53.5 -110.5t-73.5 -83.5z" />
    <glyph glyph-name="Lcaron" unicode="&#x13d;" horiz-adv-x="606" 
d="M-1 0l146 690h264l-109 -515h288l-65 -175h-524zM485 690h168l-85 -323h-142z" />
    <glyph glyph-name="lcaron" unicode="&#x13e;" horiz-adv-x="482" 
d="M243 0h-255l152 716h255zM420 716h168l-85 -323h-142z" />
    <glyph glyph-name="Ldot" unicode="&#x13f;" horiz-adv-x="606" 
d="M569 300h-174l38 184h174zM-1 0l146 690h264l-109 -515h288l-65 -175h-524z" />
    <glyph glyph-name="ldot" unicode="&#x140;" horiz-adv-x="522" 
d="M531 327h-175l43 206h175zM243 0h-255l152 716h255z" />
    <glyph glyph-name="Lslash" unicode="&#x141;" horiz-adv-x="616" 
d="M469 405l-118 -36l-41 -194h288l-65 -175h-524l60 284l-78 -24l31 142l77 23l56 265h264l-38 -181l121 36z" />
    <glyph glyph-name="lslash" unicode="&#x142;" horiz-adv-x="359" 
d="M251 0h-255l56 264l-57 -22l30 140l57 22l66 312h255l-43 -203l65 25l-30 -139l-65 -25z" />
    <glyph glyph-name="Nacute" unicode="&#x143;" horiz-adv-x="756" 
d="M241 0h-242l146 690h305q8 -108 16 -236.5t10 -154.5h5q25 175 56 323l14 68h242l-146 -690h-292q-23 259 -33 409h-4q-8 -82 -60 -327zM485 865h269l-204 -131h-206z" />
    <glyph glyph-name="nacute" unicode="&#x144;" horiz-adv-x="649" 
d="M-12 0l77 365q12 59 33 167h253q-1 -11 -7 -47q59 61 150 61q172 0 127 -214l-70 -332h-254l68 324q6 33 3 42t-17 9q-30 0 -42 -60l-66 -315h-255zM417 731h257l-224 -151h-192z" />
    <glyph glyph-name="uni0145" unicode="&#x145;" horiz-adv-x="756" 
d="M241 0h-242l146 690h305q8 -108 16 -236.5t10 -154.5h5q25 175 56 323l14 68h242l-146 -690h-292q-23 259 -33 409h-4q-8 -82 -60 -327zM302 -243h-169q65 80 100 194h196q-17 -54 -53.5 -110.5t-73.5 -83.5z" />
    <glyph glyph-name="uni0146" unicode="&#x146;" horiz-adv-x="649" 
d="M-12 0l77 365q12 59 33 167h253q-1 -11 -7 -47q59 61 150 61q172 0 127 -214l-70 -332h-254l68 324q6 33 3 42t-17 9q-30 0 -42 -60l-66 -315h-255zM238 -243h-169q65 80 100 194h196q-17 -54 -53.5 -110.5t-73.5 -83.5z" />
    <glyph glyph-name="Ncaron" unicode="&#x147;" horiz-adv-x="756" 
d="M241 0h-242l146 690h305q8 -108 16 -236.5t10 -154.5h5q25 175 56 323l14 68h242l-146 -690h-292q-23 259 -33 409h-4q-8 -82 -60 -327zM601 736h-248l-70 131h186l24 -55l43 55h194z" />
    <glyph glyph-name="ncaron" unicode="&#x148;" horiz-adv-x="649" 
d="M-12 0l77 365q12 59 33 167h253q-1 -11 -7 -47q59 61 150 61q172 0 127 -214l-70 -332h-254l68 324q6 33 3 42t-17 9q-30 0 -42 -60l-66 -315h-255zM483 570h-210l-71 143h176l21 -54l43 54h176z" />
    <glyph glyph-name="napostrophe" unicode="&#x149;" horiz-adv-x="649" 
d="M211 584h-169q26 33 61.5 98t43.5 101h198q-15 -48 -58.5 -112t-75.5 -87zM-12 0l77 365q12 59 33 167h253q-1 -11 -7 -47q59 61 150 61q172 0 127 -214l-70 -332h-254l68 324q6 33 3 42t-17 9q-30 0 -42 -60l-66 -315h-255z" />
    <glyph glyph-name="Omacron" unicode="&#x14c;" horiz-adv-x="768" 
d="M447 708q157 0 238 -84t81 -216q0 -61 -13 -118.5t-44 -114t-77.5 -99t-119 -68.5t-163.5 -26q-83 0 -145.5 24t-98 65.5t-52.5 92t-17 108.5q0 81 25 157t73.5 139.5t129.5 101.5t183 38zM437 536q-34 0 -61 -33.5t-41.5 -82t-21.5 -93t-7 -76.5q0 -97 66 -97
q35 0 62.5 34t41 83.5t20 93t6.5 73.5q0 98 -65 98zM328 886h339l-30 -138h-339z" />
    <glyph glyph-name="omacron" unicode="&#x14d;" horiz-adv-x="667" 
d="M366 546q137 0 206 -66.5t69 -168.5q0 -67 -19.5 -123.5t-59.5 -102.5t-109.5 -72.5t-161.5 -26.5q-74 0 -128.5 20.5t-83.5 55t-42 73.5t-13 83q0 63 20 119.5t60 104.5t107.5 76t154.5 28zM361 399q-35 0 -58.5 -85.5t-23.5 -138.5q0 -45 27 -45q35 0 57.5 91t22.5 141
q0 37 -25 37zM248 718h339l-29 -138h-339z" />
    <glyph glyph-name="Ohungarumlaut" unicode="&#x150;" horiz-adv-x="768" 
d="M447 708q157 0 238 -84t81 -216q0 -61 -13 -118.5t-44 -114t-77.5 -99t-119 -68.5t-163.5 -26q-83 0 -145.5 24t-98 65.5t-52.5 92t-17 108.5q0 81 25 157t73.5 139.5t129.5 101.5t183 38zM437 536q-34 0 -61 -33.5t-41.5 -82t-21.5 -93t-7 -76.5q0 -97 66 -97
q35 0 62.5 34t41 83.5t20 93t6.5 73.5q0 98 -65 98zM357 874h197l-159 -131h-153zM600 874h196l-159 -131h-151z" />
    <glyph glyph-name="ohungarumlaut" unicode="&#x151;" horiz-adv-x="667" 
d="M366 546q137 0 206 -66.5t69 -168.5q0 -67 -19.5 -123.5t-59.5 -102.5t-109.5 -72.5t-161.5 -26.5q-74 0 -128.5 20.5t-83.5 55t-42 73.5t-13 83q0 63 20 119.5t60 104.5t107.5 76t154.5 28zM361 399q-35 0 -58.5 -85.5t-23.5 -138.5q0 -45 27 -45q35 0 57.5 91t22.5 141
q0 37 -25 37zM502 720l-164 -143h-159l126 143h197zM738 720l-162 -143h-160l129 143h193z" />
    <glyph glyph-name="OE" unicode="&#x152;" horiz-adv-x="1058" 
d="M455 167l76 358q-24 4 -48 4q-55 0 -95.5 -36.5t-59 -90t-18.5 -114.5q0 -127 95 -127q26 0 50 6zM1112 690l-37 -175h-294l-17 -82h283l-38 -175h-283l-18 -83h325l-64 -175h-469q-8 0 -58 -3.5t-92 -3.5q-86 0 -149 24.5t-97.5 67.5t-50 92t-15.5 107
q0 196 127.5 304.5t339.5 108.5q45 0 100.5 -3.5t60.5 -3.5h446z" />
    <glyph glyph-name="oe" unicode="&#x153;" horiz-adv-x="1003" 
d="M642 -14q-102 0 -167 39q-78 -39 -188 -39q-74 0 -128 19t-82.5 52.5t-41 71.5t-12.5 82q0 64 20 122.5t60 107t107.5 77t154.5 28.5q102 0 169 -40q77 40 181 40q265 0 265 -227q0 -42 -15 -98h-335q-4 -19 -5 -25q-8 -64 33 -64q35 0 48 47h247q-29 -95 -108 -144
t-203 -49zM655 333h82q4 17 4 35q0 39 -30 39q-38 0 -56 -74zM360 399q-35 0 -58.5 -85.5t-23.5 -138.5q0 -45 27 -45q34 0 57 91t23 141q0 37 -25 37z" />
    <glyph glyph-name="Racute" unicode="&#x154;" horiz-adv-x="718" 
d="M346 248h-37l-51 -248h-259l146 690h346q123 0 183.5 -50.5t60.5 -126.5q0 -70 -38.5 -117.5t-108.5 -68.5q98 -36 66 -185q-23 -105 -23 -142h-249q-6 41 19 158q13 42 2 66t-57 24zM371 534l-27 -130h45q40 0 62 19.5t22 56.5q0 54 -56 54h-46zM464 865h269l-204 -131
h-206z" />
    <glyph glyph-name="racute" unicode="&#x155;" horiz-adv-x="479" 
d="M513 543l-52 -220q-96 10 -128 -17.5t-49 -109.5l-41 -196h-255l74 350q29 136 36 182h247q-2 -33 -12 -83q53 97 180 94zM337 725h257l-224 -151h-192z" />
    <glyph glyph-name="uni0156" unicode="&#x156;" horiz-adv-x="718" 
d="M346 248h-37l-51 -248h-259l146 690h346q123 0 183.5 -50.5t60.5 -126.5q0 -70 -38.5 -117.5t-108.5 -68.5q98 -36 66 -185q-23 -105 -23 -142h-249q-6 41 19 158q13 42 2 66t-57 24zM371 534l-27 -130h45q40 0 62 19.5t22 56.5q0 54 -56 54h-46zM283 -243h-169
q65 80 100 194h196q-17 -54 -53.5 -110.5t-73.5 -83.5z" />
    <glyph glyph-name="uni0157" unicode="&#x157;" horiz-adv-x="479" 
d="M513 543l-52 -220q-96 10 -128 -17.5t-49 -109.5l-41 -196h-255l74 350q29 136 36 182h247q-2 -33 -12 -83q53 97 180 94zM78 -233h-169q65 80 100 194h196q-17 -54 -53.5 -110.5t-73.5 -83.5z" />
    <glyph glyph-name="Rcaron" unicode="&#x158;" horiz-adv-x="718" 
d="M346 248h-37l-51 -248h-259l146 690h346q123 0 183.5 -50.5t60.5 -126.5q0 -70 -38.5 -117.5t-108.5 -68.5q98 -36 66 -185q-23 -105 -23 -142h-249q-6 41 19 158q13 42 2 66t-57 24zM371 534l-27 -130h45q40 0 62 19.5t22 56.5q0 54 -56 54h-46zM559 733h-248l-70 131
h186l24 -55l43 55h194z" />
    <glyph glyph-name="rcaron" unicode="&#x159;" horiz-adv-x="479" 
d="M513 543l-52 -220q-96 10 -128 -17.5t-49 -109.5l-41 -196h-255l74 350q29 136 36 182h247q-2 -33 -12 -83q53 97 180 94zM398 570h-210l-71 143h176l21 -54l43 54h176z" />
    <glyph glyph-name="Sacute" unicode="&#x15a;" horiz-adv-x="686" 
d="M9 218h247q3 -32 21.5 -51t52.5 -19q59 0 59 46q0 23 -21.5 37.5t-76.5 31.5q-118 37 -170.5 83t-52.5 119q0 112 82.5 177.5t228.5 65.5q141 0 224 -56.5t84 -165.5h-246q0 57 -60 57q-48 0 -48 -39q0 -19 23.5 -33t80.5 -30q128 -37 177.5 -89.5t49.5 -126.5
q0 -121 -94 -182t-244 -61q-158 0 -236 62.5t-81 173.5zM430 875h269l-204 -131h-206z" />
    <glyph glyph-name="sacute" unicode="&#x15b;" horiz-adv-x="585" 
d="M-2 170h218q5 -40 46 -40q43 0 43 27q0 11 -14 19t-50 17q-113 28 -154.5 65t-41.5 97q0 79 66 135t195 56q132 0 196.5 -48t62.5 -128h-208q1 49 -48 49q-32 0 -32 -23q0 -11 20.5 -20.5t79.5 -25.5q92 -25 130 -65.5t38 -98.5q0 -69 -41 -115.5t-103.5 -65.5
t-142.5 -19q-126 0 -191 48.5t-69 135.5zM385 731h257l-224 -151h-192z" />
    <glyph glyph-name="Scircumflex" unicode="&#x15c;" horiz-adv-x="686" 
d="M9 218h247q3 -32 21.5 -51t52.5 -19q59 0 59 46q0 23 -21.5 37.5t-76.5 31.5q-118 37 -170.5 83t-52.5 119q0 112 82.5 177.5t228.5 65.5q141 0 224 -56.5t84 -165.5h-246q0 57 -60 57q-48 0 -48 -39q0 -19 23.5 -33t80.5 -30q128 -37 177.5 -89.5t49.5 -126.5
q0 -121 -94 -182t-244 -61q-158 0 -236 62.5t-81 173.5zM317 871h248l70 -131h-186l-24 55l-43 -55h-194z" />
    <glyph glyph-name="scircumflex" unicode="&#x15d;" horiz-adv-x="585" 
d="M-2 170h218q5 -40 46 -40q43 0 43 27q0 11 -14 19t-50 17q-113 28 -154.5 65t-41.5 97q0 79 66 135t195 56q132 0 196.5 -48t62.5 -128h-208q1 49 -48 49q-32 0 -32 -23q0 -11 20.5 -20.5t79.5 -25.5q92 -25 130 -65.5t38 -98.5q0 -69 -41 -115.5t-103.5 -65.5
t-142.5 -19q-126 0 -191 48.5t-69 135.5zM266 722h210l71 -143h-176l-21 54l-43 -54h-176z" />
    <glyph glyph-name="uni015E" unicode="&#x15e;" horiz-adv-x="686" 
d="M9 218h247q3 -32 21.5 -51t52.5 -19q59 0 59 46q0 23 -21.5 37.5t-76.5 31.5q-118 37 -170.5 83t-52.5 119q0 112 82.5 177.5t228.5 65.5q141 0 224 -56.5t84 -165.5h-246q0 57 -60 57q-48 0 -48 -39q0 -19 23.5 -33t80.5 -30q128 -37 177.5 -89.5t49.5 -126.5
q0 -114 -83 -174.5t-219 -67.5l-22 -16q31 -8 54 -30t23 -58q0 -114 -178 -114q-61 0 -103 14l25 87q28 -5 40 -5q31 0 31 15q0 22 -43 25l10 55l42 31q-115 16 -172.5 76t-59.5 155z" />
    <glyph glyph-name="uni015F" unicode="&#x15f;" horiz-adv-x="585" 
d="M-2 170h218q5 -40 46 -40q43 0 43 27q0 11 -14 19t-50 17q-113 28 -154.5 65t-41.5 97q0 79 66 135t195 56q132 0 196.5 -48t62.5 -128h-208q1 49 -48 49q-32 0 -32 -23q0 -11 20.5 -20.5t79.5 -25.5q92 -25 130 -65.5t38 -98.5q0 -93 -68.5 -142t-178.5 -57l-28 -20
q31 -8 54 -30t23 -58q0 -114 -178 -114q-61 0 -103 14l25 87q27 -5 40 -5q31 0 31 15q0 22 -43 25l10 55l49 36q-87 14 -132 60t-48 118z" />
    <glyph glyph-name="Scaron" unicode="&#x160;" horiz-adv-x="686" 
d="M9 218h247q3 -32 21.5 -51t52.5 -19q59 0 59 46q0 23 -21.5 37.5t-76.5 31.5q-118 37 -170.5 83t-52.5 119q0 112 82.5 177.5t228.5 65.5q141 0 224 -56.5t84 -165.5h-246q0 57 -60 57q-48 0 -48 -39q0 -19 23.5 -33t80.5 -30q128 -37 177.5 -89.5t49.5 -126.5
q0 -121 -94 -182t-244 -61q-158 0 -236 62.5t-81 173.5zM536 743h-248l-70 131h186l24 -55l43 55h194z" />
    <glyph glyph-name="scaron" unicode="&#x161;" horiz-adv-x="585" 
d="M-2 170h218q5 -40 46 -40q43 0 43 27q0 11 -14 19t-50 17q-113 28 -154.5 65t-41.5 97q0 79 66 135t195 56q132 0 196.5 -48t62.5 -128h-208q1 49 -48 49q-32 0 -32 -23q0 -11 20.5 -20.5t79.5 -25.5q92 -25 130 -65.5t38 -98.5q0 -69 -41 -115.5t-103.5 -65.5
t-142.5 -19q-126 0 -191 48.5t-69 135.5zM447 579h-210l-71 143h176l21 -54l43 54h176z" />
    <glyph glyph-name="uni0162" unicode="&#x162;" horiz-adv-x="627" 
d="M128 0l108 515h-172l38 175h605l-38 -175h-170l-108 -515h-55l-46 -33q31 -8 54 -30t23 -58q0 -114 -178 -114q-61 0 -103 14l25 87q28 -5 40 -5q31 0 31 15q0 22 -43 25l10 55l59 44h-80z" />
    <glyph glyph-name="uni0163" unicode="&#x163;" horiz-adv-x="435" 
d="M30 380l32 152h68l31 132h246l-28 -132h76l-32 -152h-76l-42 -189q-6 -26 1 -35.5t35 -9.5q22 0 33 1l-30 -145q-27 -8 -90 -12l-32 -23q31 -8 54 -30t23 -58q0 -114 -178 -114q-61 0 -103 14l25 87q27 -5 40 -5q31 0 31 15q0 22 -43 25l10 55l53 39q-64 14 -82.5 57
t-2.5 116l46 212h-65z" />
    <glyph glyph-name="Tcaron" unicode="&#x164;" horiz-adv-x="627" 
d="M128 0l108 515h-172l38 175h605l-38 -175h-170l-108 -515h-263zM526 736h-248l-70 131h186l24 -55l43 55h194z" />
    <glyph glyph-name="tcaron" unicode="&#x165;" horiz-adv-x="435" 
d="M485 824h153l-80 -235h-137zM30 380l32 152h68l31 132h246l-28 -132h76l-32 -152h-76l-42 -189q-6 -26 1 -35.5t35 -9.5q22 0 33 1l-30 -145q-46 -13 -140 -13q-108 0 -141 44.5t-14 134.5l46 212h-65z" />
    <glyph glyph-name="Utilde" unicode="&#x168;" horiz-adv-x="742" 
d="M138 690h263l-96 -451q-18 -80 46 -80q20 0 33 6t21.5 22.5t10.5 22t9 29.5l96 451h265l-87 -407q-18 -80 -41.5 -132t-65.5 -91.5t-106.5 -57t-158.5 -17.5q-176 0 -241.5 75t-34.5 224zM396 740h-119l6 37q6 33 17.5 56.5t24 35t29.5 18t27.5 7.5t25.5 1
q34 0 80.5 -16.5t59.5 -16.5q12 0 16 19l3 13h117l-6 -36q-6 -34 -17.5 -58.5t-23 -37t-28.5 -19.5t-28 -8t-27 -1q-29 0 -80.5 15.5t-60.5 15.5q-10 0 -14 -15z" />
    <glyph glyph-name="utilde" unicode="&#x169;" horiz-adv-x="648" 
d="M662 532l-76 -360q-25 -118 -33 -172h-250q-2 15 3 47q-35 -32 -66.5 -46.5t-85.5 -14.5q-87 0 -117 55t-9 153l71 338h254l-69 -327q-6 -25 -2.5 -36.5t18.5 -11.5q29 0 40 58l67 317h255zM312 573h-119l6 35q7 43 21 69.5t33.5 36.5t31.5 12.5t32 2.5q33 0 83 -17
t63 -17t16 17l3 15h117l-4 -26q-7 -47 -21.5 -77t-34.5 -41t-33 -13.5t-34 -2.5q-30 0 -80.5 15.5t-59.5 15.5q-13 0 -17 -15z" />
    <glyph glyph-name="Umacron" unicode="&#x16a;" horiz-adv-x="742" 
d="M138 690h263l-96 -451q-18 -80 46 -80q20 0 33 6t21.5 22.5t10.5 22t9 29.5l96 451h265l-87 -407q-18 -80 -41.5 -132t-65.5 -91.5t-106.5 -57t-158.5 -17.5q-176 0 -241.5 75t-34.5 224zM325 876h339l-30 -138h-339z" />
    <glyph glyph-name="umacron" unicode="&#x16b;" horiz-adv-x="648" 
d="M662 532l-76 -360q-25 -118 -33 -172h-250q-2 15 3 47q-35 -32 -66.5 -46.5t-85.5 -14.5q-87 0 -117 55t-9 153l71 338h254l-69 -327q-6 -25 -2.5 -36.5t18.5 -11.5q29 0 40 58l67 317h255zM239 712h339l-29 -138h-339z" />
    <glyph glyph-name="Ubreve" unicode="&#x16c;" horiz-adv-x="742" 
d="M138 690h263l-96 -451q-18 -80 46 -80q20 0 33 6t21.5 22.5t10.5 22t9 29.5l96 451h265l-87 -407q-18 -80 -41.5 -132t-65.5 -91.5t-106.5 -57t-158.5 -17.5q-176 0 -241.5 75t-34.5 224zM303 878h142q2 -42 37 -42q40 0 52 42h143q-11 -32 -24 -55.5t-37 -49.5
t-62.5 -40t-90.5 -14q-47 0 -81 14.5t-51.5 38.5t-24 50.5t-3.5 55.5z" />
    <glyph glyph-name="ubreve" unicode="&#x16d;" horiz-adv-x="648" 
d="M662 532l-76 -360q-25 -118 -33 -172h-250q-2 15 3 47q-35 -32 -66.5 -46.5t-85.5 -14.5q-87 0 -117 55t-9 153l71 338h254l-69 -327q-6 -25 -2.5 -36.5t18.5 -11.5q29 0 40 58l67 317h255zM223 721h159q0 -30 22 -30q24 0 34 30h159q-11 -32 -24 -55.5t-37 -49.5
t-63.5 -40t-92.5 -14q-48 0 -82.5 15t-50 40t-21.5 50.5t-3 53.5z" />
    <glyph glyph-name="Uring" unicode="&#x16e;" horiz-adv-x="742" 
d="M138 690h263l-96 -451q-18 -80 46 -80q20 0 33 6t21.5 22.5t10.5 22t9 29.5l96 451h265l-87 -407q-18 -80 -41.5 -132t-65.5 -91.5t-106.5 -57t-158.5 -17.5q-176 0 -241.5 75t-34.5 224zM465 717q-61 0 -91.5 28t-30.5 67q0 58 45 87t112 29q65 0 97.5 -26.5t32.5 -68.5
q0 -57 -46.5 -86.5t-118.5 -29.5zM483 799q38 0 38 26q0 22 -30 22q-18 0 -28.5 -7.5t-10.5 -18.5q0 -22 31 -22z" />
    <glyph glyph-name="uring" unicode="&#x16f;" horiz-adv-x="648" 
d="M662 532l-76 -360q-25 -118 -33 -172h-250q-2 15 3 47q-35 -32 -66.5 -46.5t-85.5 -14.5q-87 0 -117 55t-9 153l71 338h254l-69 -327q-6 -25 -2.5 -36.5t18.5 -11.5q29 0 40 58l67 317h255zM378 558q-61 0 -91.5 28t-30.5 67q0 58 45 87t112 29q65 0 97.5 -26.5
t32.5 -68.5q0 -57 -46.5 -86.5t-118.5 -29.5zM396 640q38 0 38 26q0 22 -30 22q-18 0 -28.5 -7.5t-10.5 -18.5q0 -22 31 -22z" />
    <glyph glyph-name="Uhungarumlaut" unicode="&#x170;" horiz-adv-x="742" 
d="M138 690h263l-96 -451q-18 -80 46 -80q20 0 33 6t21.5 22.5t10.5 22t9 29.5l96 451h265l-87 -407q-18 -80 -41.5 -132t-65.5 -91.5t-106.5 -57t-158.5 -17.5q-176 0 -241.5 75t-34.5 224zM364 864h197l-159 -131h-153zM607 864h196l-159 -131h-151z" />
    <glyph glyph-name="uhungarumlaut" unicode="&#x171;" horiz-adv-x="648" 
d="M662 532l-76 -360q-25 -118 -33 -172h-250q-2 15 3 47q-35 -32 -66.5 -46.5t-85.5 -14.5q-87 0 -117 55t-9 153l71 338h254l-69 -327q-6 -25 -2.5 -36.5t18.5 -11.5q29 0 40 58l67 317h255zM493 711l-164 -143h-159l126 143h197zM729 711l-162 -143h-160l129 143h193z
" />
    <glyph glyph-name="Uogonek" unicode="&#x172;" horiz-adv-x="742" 
d="M138 690h263l-96 -451q-18 -80 46 -80q20 0 33 6t21.5 22.5t10.5 22t9 29.5l96 451h265l-87 -407q-27 -123 -76 -190t-146 -92h16q-48 -30 -48 -57q0 -24 36 -24q16 0 32 3l-12 -118q-47 -30 -135 -30q-55 0 -89.5 25.5t-34.5 72.5q0 61 72 112q-168 3 -231 78t-32 221z
" />
    <glyph glyph-name="uogonek" unicode="&#x173;" horiz-adv-x="648" 
d="M662 532l-76 -360q-25 -118 -33 -172h-44q-46 -29 -46 -56q0 -24 36 -24q15 0 32 3l-12 -118q-47 -30 -135 -30q-55 0 -89.5 25.5t-34.5 72.5q0 68 93 127h-50q-2 15 3 47q-35 -32 -66.5 -46.5t-85.5 -14.5q-87 0 -117 55t-9 153l71 338h254l-69 -327q-6 -25 -2.5 -36.5
t18.5 -11.5q29 0 40 58l67 317h255z" />
    <glyph glyph-name="Wcircumflex" unicode="&#x174;" horiz-adv-x="938" 
d="M349 0h-268l-1 690h266q-30 -245 -55 -428h6q99 275 151 428h235q-21 -342 -27 -419l6 -1q33 123 120 420h252l-298 -690h-268q3 68 14 197.5t15 196.5h-4q-46 -137 -144 -394zM473 861h248l70 -131h-186l-24 55l-43 -55h-194z" />
    <glyph glyph-name="wcircumflex" unicode="&#x175;" horiz-adv-x="873" 
d="M42 532h255q-20 -271 -27 -319h6q13 41 27 88t33.5 114.5t34.5 116.5h232q-9 -80 -16.5 -182t-12.5 -142l7 1q54 178 101 323h245l-252 -532h-277q11 110 30 253h-6q-14 -46 -82 -253h-276zM419 713h210l71 -143h-176l-21 54l-43 -54h-176z" />
    <glyph glyph-name="Ycircumflex" unicode="&#x176;" horiz-adv-x="649" 
d="M401 0h-267l52 240q3 17 -2 32l-137 418h275q18 -110 36 -271q104 202 141 271h285l-323 -438q-10 -14 -13 -31zM318 861h248l70 -131h-186l-24 55l-43 -55h-194z" />
    <glyph glyph-name="ycircumflex" unicode="&#x177;" horiz-adv-x="588" 
d="M38 532h254q-9 -239 -16 -333h8q63 192 113 333h250l-212 -431q-39 -80 -65.5 -125t-56.5 -82.5t-64 -53t-76 -23.5t-106 -8q-54 0 -98 6l36 169q14 -2 31 -2q47 0 59 17zM277 713h210l71 -143h-176l-21 54l-43 -54h-176z" />
    <glyph glyph-name="Ydieresis" unicode="&#x178;" horiz-adv-x="649" 
d="M401 0h-267l52 240q3 17 -2 32l-137 418h275q18 -110 36 -271q104 202 141 271h285l-323 -438q-10 -14 -13 -31zM390 737h-186l34 157h186zM622 737h-186l34 157h186z" />
    <glyph glyph-name="Zacute" unicode="&#x179;" horiz-adv-x="645" 
d="M-34 0l28 133l361 382h-275l37 175h576l-33 -157l-332 -358h290l-62 -175h-590zM429 865h269l-204 -131h-206z" />
    <glyph glyph-name="zacute" unicode="&#x17a;" horiz-adv-x="546" 
d="M-30 0l31 143q28 25 105.5 102.5t139.5 130.5h-194l34 156h473l-34 -152q-19 -18 -73.5 -72t-91.5 -89.5t-67 -62.5h227l-59 -156h-491zM366 731h257l-224 -151h-192z" />
    <glyph glyph-name="Zdotaccent" unicode="&#x17b;" horiz-adv-x="645" 
d="M-34 0l28 133l361 382h-275l37 175h576l-33 -157l-332 -358h290l-62 -175h-590zM512 737h-199l34 157h199z" />
    <glyph glyph-name="zdotaccent" unicode="&#x17c;" horiz-adv-x="546" 
d="M-30 0l31 143q28 25 105.5 102.5t139.5 130.5h-194l34 156h473l-34 -152q-19 -18 -73.5 -72t-91.5 -89.5t-67 -62.5h227l-59 -156h-491zM445 574h-237l34 157h237z" />
    <glyph glyph-name="Zcaron" unicode="&#x17d;" horiz-adv-x="645" 
d="M-34 0l28 133l361 382h-275l37 175h576l-33 -157l-332 -358h290l-62 -175h-590zM525 736h-248l-70 131h186l24 -55l43 55h194z" />
    <glyph glyph-name="zcaron" unicode="&#x17e;" horiz-adv-x="546" 
d="M-30 0l31 143q28 25 105.5 102.5t139.5 130.5h-194l34 156h473l-34 -152q-19 -18 -73.5 -72t-91.5 -89.5t-67 -62.5h227l-59 -156h-491zM432 570h-210l-71 143h176l21 -54l43 54h176z" />
    <glyph glyph-name="uni018F" unicode="&#x18f;" horiz-adv-x="740" 
d="M455 273h-170q-6 -30 -6 -46q0 -77 63 -77q82 0 113 123zM483 419q3 15 3 38q0 79 -75 79q-61 0 -93 -55h-246q37 107 130.5 167t233.5 60q147 0 228 -79t81 -212q0 -82 -23.5 -156.5t-71.5 -138.5t-131 -102t-192 -38q-82 0 -142.5 23t-94 63t-49 86.5t-15.5 100.5
q0 71 26 164h431z" />
    <glyph glyph-name="florin" unicode="&#x192;" horiz-adv-x="485" 
d="M538 673l-36 -149q-22 6 -45 6q-18 0 -27.5 -8.5t-15.5 -34.5l-11 -55h89l-27 -131h-90l-37 -181q-6 -31 -9 -43t-12.5 -41t-18.5 -42.5t-27 -34t-40 -30t-54.5 -17.5t-72.5 -8q-94 0 -142 20l33 164q28 -8 46 -8q22 0 31 12t16 47l33 162h-81l28 131h81l2 12
q20 96 36 131q55 119 218 119q89 0 133 -21z" />
    <glyph glyph-name="Ohorn" unicode="&#x1a0;" horiz-adv-x="768" 
d="M447 708q132 0 214 -63q26 14 26 53q0 25 -6 52h186q4 -19 4 -42q0 -59 -35 -104t-95 -64q25 -59 25 -132q0 -61 -13 -118.5t-44 -114t-77.5 -99t-119 -68.5t-163.5 -26q-83 0 -145.5 24t-98 65.5t-52.5 92t-17 108.5q0 81 25 157t73.5 139.5t129.5 101.5t183 38z
M437 536q-34 0 -61 -33.5t-41.5 -82t-21.5 -93t-7 -76.5q0 -97 66 -97q35 0 62.5 34t41 83.5t20 93t6.5 73.5q0 98 -65 98z" />
    <glyph glyph-name="ohorn" unicode="&#x1a1;" horiz-adv-x="667" 
d="M366 546q93 0 159 -34q17 15 17 46q0 25 -6 52h186q4 -19 4 -42q0 -53 -27.5 -94.5t-77.5 -63.5q20 -43 20 -99q0 -67 -19.5 -123.5t-59.5 -102.5t-109.5 -72.5t-161.5 -26.5q-74 0 -128.5 20.5t-83.5 55t-42 73.5t-13 83q0 63 20 119.5t60 104.5t107.5 76t154.5 28z
M361 399q-35 0 -58.5 -85.5t-23.5 -138.5q0 -45 27 -45q35 0 57.5 91t22.5 141q0 37 -25 37z" />
    <glyph glyph-name="Uhorn" unicode="&#x1af;" horiz-adv-x="742" 
d="M138 690h263l-96 -451q-18 -80 46 -80q20 0 33 6t21.5 22.5t10.5 22t9 29.5l96 451h184q29 12 29 54q0 25 -6 52h186q4 -19 4 -42q0 -65 -42 -112.5t-114 -61.5l-63 -297q-18 -80 -41.5 -132t-65.5 -91.5t-106.5 -57t-158.5 -17.5q-176 0 -241.5 75t-34.5 224z" />
    <glyph glyph-name="uhorn" unicode="&#x1b0;" horiz-adv-x="648" 
d="M306 47q-35 -32 -66.5 -46.5t-85.5 -14.5q-87 0 -117 55t-9 153l71 338h254l-69 -327q-6 -25 -2.5 -36.5t18.5 -11.5q29 0 40 58l67 317h121q45 5 45 58q0 25 -6 52h186q4 -19 4 -42q0 -56 -30.5 -99t-84.5 -63l-56 -266q-25 -118 -33 -172h-250q-2 15 3 47z" />
    <glyph glyph-name="uni01CD" unicode="&#x1cd;" horiz-adv-x="708" 
d="M403 126h-149l-47 -126h-270l330 690h354l45 -690h-263v126zM322 301h84q0 20 -0.5 99.5t-0.5 113.5h-6q-23 -69 -77 -213zM567 729h-248l-70 131h186l24 -55l43 55h194z" />
    <glyph glyph-name="uni01CE" unicode="&#x1ce;" horiz-adv-x="643" 
d="M614 333l-35 -159q-30 -146 -34 -174h-240q0 15 5 55q-59 -69 -156 -69q-67 0 -106.5 36.5t-39.5 106.5q0 95 64.5 147.5t201.5 63.5q60 5 97 5l6 28q4 22 -2 30t-22 8q-13 0 -22 -7t-12 -14t-9 -24h-235q43 180 288 180q159 0 215.5 -57t35.5 -156zM342 210l5 22
q-28 0 -45 -6q-40 -15 -40 -48q0 -14 7.5 -23t20.5 -9q22 0 33.5 15t18.5 49zM492 579h-210l-71 143h176l21 -54l43 54h176z" />
    <glyph glyph-name="uni01CF" unicode="&#x1cf;" horiz-adv-x="372" 
d="M145 690h264l-146 -690h-264zM403 732h-248l-70 131h186l24 -55l43 55h194z" />
    <glyph glyph-name="uni01D0" unicode="&#x1d0;" horiz-adv-x="341" 
d="M-12 0l113 532h255l-113 -532h-255zM339 570h-210l-71 143h176l21 -54l43 54h176z" />
    <glyph glyph-name="uni01D1" unicode="&#x1d1;" horiz-adv-x="768" 
d="M447 708q157 0 238 -84t81 -216q0 -61 -13 -118.5t-44 -114t-77.5 -99t-119 -68.5t-163.5 -26q-83 0 -145.5 24t-98 65.5t-52.5 92t-17 108.5q0 81 25 157t73.5 139.5t129.5 101.5t183 38zM437 536q-34 0 -61 -33.5t-41.5 -82t-21.5 -93t-7 -76.5q0 -97 66 -97
q35 0 62.5 34t41 83.5t20 93t6.5 73.5q0 98 -65 98zM597 746h-248l-70 131h186l24 -55l43 55h194z" />
    <glyph glyph-name="uni01D2" unicode="&#x1d2;" horiz-adv-x="667" 
d="M366 546q137 0 206 -66.5t69 -168.5q0 -67 -19.5 -123.5t-59.5 -102.5t-109.5 -72.5t-161.5 -26.5q-74 0 -128.5 20.5t-83.5 55t-42 73.5t-13 83q0 63 20 119.5t60 104.5t107.5 76t154.5 28zM361 399q-35 0 -58.5 -85.5t-23.5 -138.5q0 -45 27 -45q35 0 57.5 91t22.5 141
q0 37 -25 37zM492 578h-210l-71 143h176l21 -54l43 54h176z" />
    <glyph glyph-name="uni01D3" unicode="&#x1d3;" horiz-adv-x="742" 
d="M138 690h263l-96 -451q-18 -80 46 -80q20 0 33 6t21.5 22.5t10.5 22t9 29.5l96 451h265l-87 -407q-18 -80 -41.5 -132t-65.5 -91.5t-106.5 -57t-158.5 -17.5q-176 0 -241.5 75t-34.5 224zM590 726h-248l-70 131h186l24 -55l43 55h194z" />
    <glyph glyph-name="uni01D4" unicode="&#x1d4;" horiz-adv-x="648" 
d="M662 532l-76 -360q-25 -118 -33 -172h-250q-2 15 3 47q-35 -32 -66.5 -46.5t-85.5 -14.5q-87 0 -117 55t-9 153l71 338h254l-69 -327q-6 -25 -2.5 -36.5t18.5 -11.5q29 0 40 58l67 317h255zM483 570h-210l-71 143h176l21 -54l43 54h176z" />
    <glyph glyph-name="uni01D5" unicode="&#x1d5;" horiz-adv-x="742" 
d="M138 690h263l-96 -451q-18 -80 46 -80q20 0 33 6t21.5 22.5t10.5 22t9 29.5l96 451h265l-87 -407q-18 -80 -41.5 -132t-65.5 -91.5t-106.5 -57t-158.5 -17.5q-176 0 -241.5 75t-34.5 224zM659 892h-320l23 111h320zM444 733h-164l26 123h164zM650 733h-164l26 123h164z
" />
    <glyph glyph-name="uni01D6" unicode="&#x1d6;" horiz-adv-x="648" 
d="M662 532l-76 -360q-25 -118 -33 -172h-250q-2 15 3 47q-35 -32 -66.5 -46.5t-85.5 -14.5q-87 0 -117 55t-9 153l71 338h254l-69 -327q-6 -25 -2.5 -36.5t18.5 -11.5q29 0 40 58l67 317h255zM571 723h-320l24 111h320zM356 564h-164l27 123h164zM562 564h-164l27 123h164z
" />
    <glyph glyph-name="uni01D7" unicode="&#x1d7;" horiz-adv-x="742" 
d="M138 690h263l-96 -451q-18 -80 46 -80q20 0 33 6t21.5 22.5t10.5 22t9 29.5l96 451h265l-87 -407q-18 -80 -41.5 -132t-65.5 -91.5t-106.5 -57t-158.5 -17.5q-176 0 -241.5 75t-34.5 224zM579 875h-201l119 96h263zM297 847h174l-26 -123h-174zM661 724h-174l26 123h174z
" />
    <glyph glyph-name="uni01D8" unicode="&#x1d8;" horiz-adv-x="648" 
d="M662 532l-76 -360q-25 -118 -33 -172h-250q-2 15 3 47q-35 -32 -66.5 -46.5t-85.5 -14.5q-87 0 -117 55t-9 153l71 338h254l-69 -327q-6 -25 -2.5 -36.5t18.5 -11.5q29 0 40 58l67 317h255zM501 715h-204l128 96h253zM209 687h174l-27 -123h-174zM572 564h-174l27 123
h174z" />
    <glyph glyph-name="uni01D9" unicode="&#x1d9;" horiz-adv-x="742" 
d="M138 690h263l-96 -451q-18 -80 46 -80q20 0 33 6t21.5 22.5t10.5 22t9 29.5l96 451h265l-87 -407q-18 -80 -41.5 -132t-65.5 -91.5t-106.5 -57t-158.5 -17.5q-176 0 -241.5 75t-34.5 224zM606 874h-224l-70 108h174l22 -45l42 45h178zM297 847h174l-26 -123h-174z
M661 724h-174l26 123h174z" />
    <glyph glyph-name="uni01DA" unicode="&#x1da;" horiz-adv-x="648" 
d="M662 532l-76 -360q-25 -118 -33 -172h-250q-2 15 3 47q-35 -32 -66.5 -46.5t-85.5 -14.5q-87 0 -117 55t-9 153l71 338h254l-69 -327q-6 -25 -2.5 -36.5t18.5 -11.5q29 0 40 58l67 317h255zM519 713h-224l-70 108h174l22 -45l42 45h178zM209 687h174l-27 -123h-174z
M572 564h-174l27 123h174z" />
    <glyph glyph-name="uni01DB" unicode="&#x1db;" horiz-adv-x="742" 
d="M138 690h263l-96 -451q-18 -80 46 -80q20 0 33 6t21.5 22.5t10.5 22t9 29.5l96 451h265l-87 -407q-18 -80 -41.5 -132t-65.5 -91.5t-106.5 -57t-158.5 -17.5q-176 0 -241.5 75t-34.5 224zM603 875h-195l-145 96h253zM297 847h174l-26 -123h-174zM661 724h-174l26 123h174
z" />
    <glyph glyph-name="uni01DC" unicode="&#x1dc;" horiz-adv-x="648" 
d="M662 532l-76 -360q-25 -118 -33 -172h-250q-2 15 3 47q-35 -32 -66.5 -46.5t-85.5 -14.5q-87 0 -117 55t-9 153l71 338h254l-69 -327q-6 -25 -2.5 -36.5t18.5 -11.5q29 0 40 58l67 317h255zM192 811h234l86 -96h-184zM209 687h174l-27 -123h-174zM572 564h-174l27 123
h174z" />
    <glyph glyph-name="Gcaron" unicode="&#x1e6;" horiz-adv-x="763" 
d="M750 398l-87 -398h-169q-4 32 -3 54q-63 -72 -198 -72q-126 0 -191 78.5t-65 203.5q0 85 25.5 162.5t75.5 141.5t132.5 102t186.5 38q153 0 229.5 -64.5t79.5 -163.5h-259q0 63 -60 63q-35 0 -62.5 -32t-43 -79.5t-23 -93.5t-7.5 -83q0 -100 62 -100q70 0 88 87l1 5h-85
l36 151h337zM594 746h-248l-70 131h186l24 -55l43 55h194z" />
    <glyph glyph-name="gcaron" unicode="&#x1e7;" horiz-adv-x="655" 
d="M632 356l-62 -290q-14 -68 -34.5 -112.5t-57.5 -79t-94 -50t-141 -15.5q-68 0 -117.5 13t-75.5 31t-41.5 45t-19.5 47.5t-4 46.5h241q-2 -39 32 -39q12 0 20 3t17.5 18.5t15.5 43.5l11 53q-50 -43 -132 -43q-79 0 -122 48.5t-43 133.5q0 81 29.5 156t93 127.5t147.5 52.5
q47 0 77.5 -15t39.5 -37q6 17 15 38h246q-11 -38 -41 -176zM358 398q-30 0 -52.5 -69t-22.5 -119q0 -41 27 -41q13 0 24 11.5t19 35.5t12.5 41t10.5 46q12 51 9 73t-27 22zM508 577h-210l-71 143h176l21 -54l43 54h176z" />
    <glyph glyph-name="uni0218" unicode="&#x218;" horiz-adv-x="686" 
d="M9 218h247q3 -32 21.5 -51t52.5 -19q59 0 59 46q0 23 -21.5 37.5t-76.5 31.5q-118 37 -170.5 83t-52.5 119q0 112 82.5 177.5t228.5 65.5q141 0 224 -56.5t84 -165.5h-246q0 57 -60 57q-48 0 -48 -39q0 -19 23.5 -33t80.5 -30q128 -37 177.5 -89.5t49.5 -126.5
q0 -121 -94 -182t-244 -61q-158 0 -236 62.5t-81 173.5zM287 -243h-169q65 80 100 194h196q-17 -54 -53.5 -110.5t-73.5 -83.5z" />
    <glyph glyph-name="uni0219" unicode="&#x219;" horiz-adv-x="585" 
d="M-2 170h218q5 -40 46 -40q43 0 43 27q0 11 -14 19t-50 17q-113 28 -154.5 65t-41.5 97q0 79 66 135t195 56q132 0 196.5 -48t62.5 -128h-208q1 49 -48 49q-32 0 -32 -23q0 -11 20.5 -20.5t79.5 -25.5q92 -25 130 -65.5t38 -98.5q0 -69 -41 -115.5t-103.5 -65.5
t-142.5 -19q-126 0 -191 48.5t-69 135.5zM216 -243h-169q65 80 100 194h196q-17 -54 -53.5 -110.5t-73.5 -83.5z" />
    <glyph glyph-name="uni021A" unicode="&#x21a;" horiz-adv-x="627" 
d="M128 0l108 515h-172l38 175h605l-38 -175h-170l-108 -515h-263zM227 -243h-169q65 80 100 194h196q-17 -54 -53.5 -110.5t-73.5 -83.5z" />
    <glyph glyph-name="uni021B" unicode="&#x21b;" horiz-adv-x="435" 
d="M30 380l32 152h68l31 132h246l-28 -132h76l-32 -152h-76l-42 -189q-6 -26 1 -35.5t35 -9.5q22 0 33 1l-30 -145q-46 -13 -140 -13q-108 0 -141 44.5t-14 134.5l46 212h-65zM151 -243h-169q65 80 100 194h196q-17 -54 -53.5 -110.5t-73.5 -83.5z" />
    <glyph glyph-name="uni0237" unicode="&#x237;" horiz-adv-x="343" 
d="M104 532h252l-98 -457q-26 -126 -42 -161q-31 -73 -105 -94q-40 -11 -99 -11q-35 0 -98 7l35 159q5 -1 12 -1q17 0 23.5 8t9.5 26z" />
    <glyph glyph-name="uni0251" unicode="&#x251;" horiz-adv-x="660" 
d="M425 532h250l-79 -365q-25 -111 -31 -167h-249q0 16 3 37q-44 -51 -129 -51q-78 0 -121.5 51.5t-43.5 149.5q0 93 32.5 174t96.5 133t147 52q40 0 71.5 -12t42.5 -33zM365 395q-35 0 -59 -82.5t-24 -130.5q0 -44 25 -44q24 0 39 35.5t31 107.5q14 55 13 84.5t-25 29.5z
" />
    <glyph glyph-name="uni0259" unicode="&#x259;" horiz-adv-x="646" 
d="M23 311h335q4 19 5 25q8 64 -33 64q-35 0 -48 -47h-247q27 91 107.5 142t203.5 51q61 0 108.5 -13.5t77 -35.5t48.5 -52.5t26.5 -62t7.5 -67.5q0 -42 -10 -85t-34.5 -87.5t-61.5 -79t-95.5 -56t-131.5 -21.5q-136 0 -204.5 59t-68.5 168q0 44 15 98zM333 199h-82
q-4 -17 -4 -35q0 -39 30 -39q38 0 56 74z" />
    <glyph glyph-name="uni0261" unicode="&#x261;" horiz-adv-x="655" 
d="M632 356l-62 -290q-14 -68 -34.5 -112.5t-57.5 -79t-94 -50t-141 -15.5q-68 0 -117.5 13t-75.5 31t-41.5 45t-19.5 47.5t-4 46.5h241q-2 -39 32 -39q12 0 20 3t17.5 18.5t15.5 43.5l11 53q-50 -43 -132 -43q-79 0 -122 48.5t-43 133.5q0 81 29.5 156t93 127.5t147.5 52.5
q47 0 77.5 -15t39.5 -37q6 17 15 38h246q-11 -38 -41 -176zM358 398q-30 0 -52.5 -69t-22.5 -119q0 -41 27 -41q13 0 24 11.5t19 35.5t12.5 41t10.5 46q12 51 9 73t-27 22z" />
    <glyph glyph-name="uni02BB" unicode="&#x2bb;" horiz-adv-x="444" 
d="M280 716h161q-72 -155 -106 -313h-204q20 80 60.5 167t88.5 146z" />
    <glyph glyph-name="uni02BC" unicode="&#x2bc;" horiz-adv-x="444" 
d="M292 403h-161q72 155 106 313h204q-20 -80 -60.5 -167t-88.5 -146z" />
    <glyph glyph-name="uni02BE" unicode="&#x2be;" horiz-adv-x="345" 
d="M196 704l18 84q70 0 100.5 -28.5t19.5 -82.5q-11 -50 -55 -79.5t-113 -29.5l17 80q35 0 41 28q5 26 -28 28z" />
    <glyph glyph-name="uni02BF" unicode="&#x2bf;" horiz-adv-x="345" 
d="M327 652l-18 -84q-70 0 -100.5 28.5t-19.5 82.5q11 50 55 79.5t113 29.5l-17 -80q-35 0 -41 -28q-5 -26 28 -28z" />
    <glyph glyph-name="circumflex" unicode="&#x2c6;" 
d="M183 713h210l71 -143h-176l-21 54l-43 -54h-176z" />
    <glyph glyph-name="caron" unicode="&#x2c7;" 
d="M359 570h-210l-71 143h176l21 -54l43 54h176z" />
    <glyph glyph-name="uni02C8" unicode="&#x2c8;" horiz-adv-x="347" 
d="M306 538h-145l44 213h146z" />
    <glyph glyph-name="uni02C9" unicode="&#x2c9;" horiz-adv-x="539" 
d="M196 712h339l-29 -138h-339z" />
    <glyph glyph-name="uni02CA" unicode="&#x2ca;" horiz-adv-x="569" 
d="M344 731h257l-224 -151h-192z" />
    <glyph glyph-name="uni02CB" unicode="&#x2cb;" horiz-adv-x="564" 
d="M170 731h237l107 -151h-184z" />
    <glyph glyph-name="uni02CC" unicode="&#x2cc;" horiz-adv-x="347" 
d="M136 -262h-145l44 213h146z" />
    <glyph glyph-name="breve" unicode="&#x2d8;" 
d="M99 721h159q0 -30 22 -30q24 0 34 30h159q-11 -32 -24 -55.5t-37 -49.5t-63.5 -40t-92.5 -14q-48 0 -82.5 15t-50 40t-21.5 50.5t-3 53.5z" />
    <glyph glyph-name="dotaccent" unicode="&#x2d9;" 
d="M372 564h-237l34 157h237z" />
    <glyph glyph-name="ring" unicode="&#x2da;" 
d="M254 558q-61 0 -91.5 28t-30.5 67q0 58 45 87t112 29q65 0 97.5 -26.5t32.5 -68.5q0 -57 -46.5 -86.5t-118.5 -29.5zM272 640q38 0 38 26q0 22 -30 22q-18 0 -28.5 -7.5t-10.5 -18.5q0 -22 31 -22z" />
    <glyph glyph-name="ogonek" unicode="&#x2db;" 
d="M106 1h156q-48 -30 -48 -57q0 -24 36 -24q16 0 32 3l-12 -118q-47 -30 -135 -30q-55 0 -89.5 25.5t-34.5 72.5q0 68 95 128z" />
    <glyph glyph-name="tilde" unicode="&#x2dc;" 
d="M185 564h-119l6 35q7 43 21 69.5t33.5 36.5t31.5 12.5t32 2.5q34 0 84 -17t62 -17q13 0 16 17l3 15h117l-4 -26q-7 -47 -21.5 -77t-34.5 -41t-33 -13.5t-34 -2.5q-30 0 -80.5 15.5t-59.5 15.5q-13 0 -17 -15z" />
    <glyph glyph-name="hungarumlaut" unicode="&#x2dd;" 
d="M369 711l-164 -143h-159l126 143h197zM605 711l-162 -143h-160l129 143h193z" />
    <glyph glyph-name="uni0300" unicode="&#x300;" horiz-adv-x="0" 
d="M-170 731h237l107 -151h-184z" />
    <glyph glyph-name="uni0301" unicode="&#x301;" horiz-adv-x="0" 
d="M-2 731h257l-224 -151h-192z" />
    <glyph glyph-name="uni0302" unicode="&#x302;" horiz-adv-x="0" 
d="M-62 713h210l71 -143h-176l-21 54l-43 -54h-176z" />
    <glyph glyph-name="uni0303" unicode="&#x303;" horiz-adv-x="0" 
d="M-59 564h-119l6 35q7 43 21 69.5t33.5 36.5t31.5 12.5t32 2.5q34 0 84 -17t62 -17q13 0 16 17l3 15h117l-4 -26q-7 -47 -21.5 -77t-34.5 -41t-33 -13.5t-34 -2.5q-30 0 -80.5 15.5t-59.5 15.5q-13 0 -17 -15z" />
    <glyph glyph-name="uni0304" unicode="&#x304;" horiz-adv-x="0" 
d="M-129 712h339l-29 -138h-339z" />
    <glyph glyph-name="uni0306" unicode="&#x306;" horiz-adv-x="0" 
d="M-144 721h159q0 -30 22 -30q24 0 34 30h159q-11 -32 -24 -55.5t-37 -49.5t-63.5 -40t-92.5 -14q-48 0 -82.5 15t-50 40t-21.5 50.5t-3 53.5z" />
    <glyph glyph-name="uni0307" unicode="&#x307;" horiz-adv-x="0" 
d="M127 564h-237l34 157h237z" />
    <glyph glyph-name="uni0308" unicode="&#x308;" horiz-adv-x="0" 
d="M-14 564h-186l34 157h186zM218 564h-186l34 157h186z" />
    <glyph glyph-name="uni0309" unicode="&#x309;" horiz-adv-x="0" 
d="M98 574h-156q43 36 43 55q0 15 -20 15q-16 0 -39 -7l-14 108q64 32 143 32q58 0 87 -24t29 -63q0 -64 -73 -116z" />
    <glyph glyph-name="uni030A" unicode="&#x30a;" horiz-adv-x="0" 
d="M9 558q-61 0 -91.5 28t-30.5 67q0 58 45 87t112 29q65 0 97.5 -26.5t32.5 -68.5q0 -57 -46.5 -86.5t-118.5 -29.5zM27 640q38 0 38 26q0 22 -30 22q-18 0 -28.5 -7.5t-10.5 -18.5q0 -22 31 -22z" />
    <glyph glyph-name="uni030B" unicode="&#x30b;" horiz-adv-x="0" 
d="M85 711l-164 -143h-159l126 143h197zM321 711l-162 -143h-160l129 143h193z" />
    <glyph glyph-name="uni030C" unicode="&#x30c;" horiz-adv-x="0" 
d="M114 570h-210l-71 143h176l21 -54l43 54h176z" />
    <glyph glyph-name="uni031B" unicode="&#x31b;" horiz-adv-x="0" 
d="M-11 449l-34 111q45 5 45 58q0 25 -6 52h186q4 -19 4 -42q0 -75 -53.5 -125t-141.5 -54z" />
    <glyph glyph-name="uni0323" unicode="&#x323;" horiz-adv-x="0" 
d="M-51 -213h-207l37 175h207z" />
    <glyph glyph-name="uni0324" unicode="&#x324;" horiz-adv-x="0" 
d="M-183 -235h-186l34 157h186zM49 -235h-186l34 157h186z" />
    <glyph glyph-name="uni0326" unicode="&#x326;" horiz-adv-x="0" 
d="M-76 -243h-169q65 80 100 194h196q-17 -54 -53.5 -110.5t-73.5 -83.5z" />
    <glyph glyph-name="uni0327" unicode="&#x327;" horiz-adv-x="0" 
d="M-153 5h128l-53 -38q31 -8 54 -30t23 -58q0 -114 -178 -114q-61 0 -103 14l25 87q28 -5 40 -5q31 0 31 15q0 22 -43 25l10 55z" />
    <glyph glyph-name="uni0328" unicode="&#x328;" horiz-adv-x="0" 
d="M-160 1h156q-48 -30 -48 -57q0 -24 36 -24q16 0 32 3l-12 -118q-47 -30 -135 -30q-55 0 -89.5 25.5t-34.5 72.5q0 68 95 128z" />
    <glyph glyph-name="uni032E" unicode="&#x32e;" horiz-adv-x="0" 
d="M-309 -59h159q0 -30 22 -30q24 0 34 30h159q-11 -32 -24 -55.5t-37 -49.5t-63.5 -40t-92.5 -14q-48 0 -82.5 15t-50 40t-21.5 50.5t-3 53.5z" />
    <glyph glyph-name="uni0331" unicode="&#x331;" horiz-adv-x="0" 
d="M-295 -72h339l-29 -138h-339z" />
    <glyph glyph-name="pi" unicode="&#x3c0;" horiz-adv-x="680" 
d="M303 0l82 376h-53l-81 -376h-234l81 376q-62 0 -73 -3l33 152q68 7 174 7h493l-34 -158h-52l-84 -374h-252z" />
    <glyph glyph-name="uni1E0C" unicode="&#x1e0c;" horiz-adv-x="753" 
d="M0 0l146 690h293q153 0 233.5 -80t80.5 -210q0 -36 -5 -71.5t-18 -76t-33.5 -76t-53.5 -68.5t-75.5 -56.5t-103 -37.5t-132.5 -14h-332zM374 522l-76 -354h54q33 0 59.5 28t40.5 70t21 83t7 74q0 52 -16 75.5t-57 23.5h-33zM345 -213h-207l37 175h207z" />
    <glyph glyph-name="uni1E0D" unicode="&#x1e0d;" horiz-adv-x="660" 
d="M460 716h253l-117 -549q-25 -116 -31 -167h-249q0 16 3 37q-44 -51 -133 -51q-77 0 -119 50.5t-42 141.5q0 94 31 176.5t95 137t148 54.5q39 0 72 -10.5t44 -25.5zM365 395q-35 0 -59 -82.5t-24 -130.5q0 -44 25 -44q24 0 39.5 36t30.5 107q14 55 13 84.5t-25 29.5z
M379 -217h-207l37 175h207z" />
    <glyph glyph-name="uni1E0E" unicode="&#x1e0e;" horiz-adv-x="753" 
d="M0 0l146 690h293q153 0 233.5 -80t80.5 -210q0 -36 -5 -71.5t-18 -76t-33.5 -76t-53.5 -68.5t-75.5 -56.5t-103 -37.5t-132.5 -14h-332zM374 522l-76 -354h54q33 0 59.5 28t40.5 70t21 83t7 74q0 52 -16 75.5t-57 23.5h-33zM111 -72h339l-29 -138h-339z" />
    <glyph glyph-name="uni1E0F" unicode="&#x1e0f;" horiz-adv-x="660" 
d="M460 716h253l-117 -549q-25 -116 -31 -167h-249q0 16 3 37q-44 -51 -133 -51q-77 0 -119 50.5t-42 141.5q0 94 31 176.5t95 137t148 54.5q39 0 72 -10.5t44 -25.5zM365 395q-35 0 -59 -82.5t-24 -130.5q0 -44 25 -44q24 0 39.5 36t30.5 107q14 55 13 84.5t-25 29.5z
M125 -72h339l-29 -138h-339z" />
    <glyph glyph-name="uni1E20" unicode="&#x1e20;" horiz-adv-x="763" 
d="M750 398l-87 -398h-169q-4 32 -3 54q-63 -72 -198 -72q-126 0 -191 78.5t-65 203.5q0 85 25.5 162.5t75.5 141.5t132.5 102t186.5 38q153 0 229.5 -64.5t79.5 -163.5h-259q0 63 -60 63q-35 0 -62.5 -32t-43 -79.5t-23 -93.5t-7.5 -83q0 -100 62 -100q70 0 88 87l1 5h-85
l36 151h337zM345 886h339l-30 -138h-339z" />
    <glyph glyph-name="uni1E21" unicode="&#x1e21;" horiz-adv-x="655" 
d="M632 356l-62 -290q-14 -68 -34.5 -112.5t-57.5 -79t-94 -50t-141 -15.5q-68 0 -117.5 13t-75.5 31t-41.5 45t-19.5 47.5t-4 46.5h241q-2 -39 32 -39q12 0 20 3t17.5 18.5t15.5 43.5l11 53q-50 -43 -132 -43q-79 0 -122 48.5t-43 133.5q0 81 29.5 156t93 127.5t147.5 52.5
q47 0 77.5 -15t39.5 -37q6 17 15 38h246q-11 -38 -41 -176zM358 398q-30 0 -52.5 -69t-22.5 -119q0 -41 27 -41q13 0 24 11.5t19 35.5t12.5 41t10.5 46q12 51 9 73t-27 22zM264 719h339l-29 -138h-339z" />
    <glyph glyph-name="uni1E24" unicode="&#x1e24;" horiz-adv-x="756" 
d="M-1 0l146 690h264l-52 -245h119l52 245h265l-146 -690h-265l55 270h-119l-55 -270h-264zM387 -213h-207l37 175h207z" />
    <glyph glyph-name="uni1E25" unicode="&#x1e25;" horiz-adv-x="648" 
d="M-12 0l152 716h255l-48 -223q58 53 143 53q175 0 131 -210l-71 -336h-253l69 329q10 46 -14 46q-30 0 -44 -66l-65 -309h-255zM333 -213h-207l37 175h207z" />
    <glyph glyph-name="uni1E2A" unicode="&#x1e2a;" horiz-adv-x="756" 
d="M-1 0l146 690h264l-52 -245h119l52 245h265l-146 -690h-265l55 270h-119l-55 -270h-264zM125 -59h159q0 -30 22 -30q24 0 34 30h159q-11 -32 -24 -55.5t-37 -49.5t-63.5 -40t-92.5 -14q-48 0 -82.5 15t-50 40t-21.5 50.5t-3 53.5z" />
    <glyph glyph-name="uni1E2B" unicode="&#x1e2b;" horiz-adv-x="648" 
d="M-12 0l152 716h255l-48 -223q58 53 143 53q175 0 131 -210l-71 -336h-253l69 329q10 46 -14 46q-30 0 -44 -66l-65 -309h-255zM75 -59h159q0 -30 22 -30q24 0 34 30h159q-11 -32 -24 -55.5t-37 -49.5t-63.5 -40t-92.5 -14q-48 0 -82.5 15t-50 40t-21.5 50.5t-3 53.5z" />
    <glyph glyph-name="uni1E36" unicode="&#x1e36;" horiz-adv-x="606" 
d="M-1 0l146 690h264l-109 -515h288l-65 -175h-524zM332 -213h-207l37 175h207z" />
    <glyph glyph-name="uni1E37" unicode="&#x1e37;" horiz-adv-x="342" 
d="M243 0h-255l152 716h255zM175 -213h-207l37 175h207z" />
    <glyph glyph-name="uni1E38" unicode="&#x1e38;" horiz-adv-x="606" 
d="M-1 0l146 690h264l-109 -515h288l-65 -175h-524zM335 -216h-207l37 175h207zM147 876h339l-30 -138h-339z" />
    <glyph glyph-name="uni1E39" unicode="&#x1e39;" horiz-adv-x="342" 
d="M243 0h-255l152 716h255zM129 902h339l-29 -138h-339zM178 -213h-207l37 175h207z" />
    <glyph glyph-name="uni1E3A" unicode="&#x1e3a;" horiz-adv-x="606" 
d="M-1 0l146 690h264l-109 -515h288l-65 -175h-524zM92 -60h339l-29 -138h-339z" />
    <glyph glyph-name="uni1E3B" unicode="&#x1e3b;" horiz-adv-x="342" 
d="M243 0h-255l152 716h255zM-64 -72h339l-29 -138h-339z" />
    <glyph glyph-name="uni1E42" unicode="&#x1e42;" horiz-adv-x="913" 
d="M553 0l37 178q31 145 76 332h-5q-23 -66 -83 -241t-93 -269h-199q43 453 48 506h-7q-28 -172 -60 -325l-38 -181h-230l146 690h367q-43 -339 -45 -353h8q20 58 57 174t60 179h358l-146 -690h-251zM447 -213h-207l37 175h207z" />
    <glyph glyph-name="uni1E43" unicode="&#x1e43;" horiz-adv-x="946" 
d="M-12 0l78 367q23 113 32 165h248q-1 -14 -7 -52q66 66 158 66q90 0 119 -66q25 20 43 32t53 23t75 11q176 0 131 -214l-70 -332h-249l70 333q9 42 -17 42q-29 0 -41 -57l-67 -318h-250l71 339q8 36 -17 36q-16 0 -25.5 -13.5t-16.5 -45.5l-67 -316h-251zM482 -213h-207
l37 175h207z" />
    <glyph glyph-name="uni1E44" unicode="&#x1e44;" horiz-adv-x="756" 
d="M241 0h-242l146 690h305q8 -108 16 -236.5t10 -154.5h5q25 175 56 323l14 68h242l-146 -690h-292q-23 259 -33 409h-4q-8 -82 -60 -327zM558 737h-199l34 157h199z" />
    <glyph glyph-name="uni1E45" unicode="&#x1e45;" horiz-adv-x="649" 
d="M-12 0l77 365q12 59 33 167h253q-1 -11 -7 -47q59 61 150 61q172 0 127 -214l-70 -332h-254l68 324q6 33 3 42t-17 9q-30 0 -42 -60l-66 -315h-255zM485 574h-237l34 157h237z" />
    <glyph glyph-name="uni1E46" unicode="&#x1e46;" horiz-adv-x="756" 
d="M241 0h-242l146 690h305q8 -108 16 -236.5t10 -154.5h5q25 175 56 323l14 68h242l-146 -690h-292q-23 259 -33 409h-4q-8 -82 -60 -327zM387 -213h-207l37 175h207z" />
    <glyph glyph-name="uni1E47" unicode="&#x1e47;" horiz-adv-x="649" 
d="M-12 0l77 365q12 59 33 167h253q-1 -11 -7 -47q59 61 150 61q172 0 127 -214l-70 -332h-254l68 324q6 33 3 42t-17 9q-30 0 -42 -60l-66 -315h-255zM333 -213h-207l37 175h207z" />
    <glyph glyph-name="uni1E48" unicode="&#x1e48;" horiz-adv-x="756" 
d="M241 0h-242l146 690h305q8 -108 16 -236.5t10 -154.5h5q25 175 56 323l14 68h242l-146 -690h-292q-23 259 -33 409h-4q-8 -82 -60 -327zM143 -72h339l-29 -138h-339z" />
    <glyph glyph-name="uni1E49" unicode="&#x1e49;" horiz-adv-x="649" 
d="M-12 0l77 365q12 59 33 167h253q-1 -11 -7 -47q59 61 150 61q172 0 127 -214l-70 -332h-254l68 324q6 33 3 42t-17 9q-30 0 -42 -60l-66 -315h-255zM89 -72h339l-29 -138h-339z" />
    <glyph glyph-name="uni1E5A" unicode="&#x1e5a;" horiz-adv-x="718" 
d="M346 248h-37l-51 -248h-259l146 690h346q123 0 183.5 -50.5t60.5 -126.5q0 -70 -38.5 -117.5t-108.5 -68.5q98 -36 66 -185q-23 -105 -23 -142h-249q-6 41 19 158q13 42 2 66t-57 24zM371 534l-27 -130h45q40 0 62 19.5t22 56.5q0 54 -56 54h-46zM378 -213h-207l37 175
h207z" />
    <glyph glyph-name="uni1E5B" unicode="&#x1e5b;" horiz-adv-x="479" 
d="M513 543l-52 -220q-96 10 -128 -17.5t-49 -109.5l-41 -196h-255l74 350q29 136 36 182h247q-2 -33 -12 -83q53 97 180 94zM172 -213h-207l37 175h207z" />
    <glyph glyph-name="uni1E5C" unicode="&#x1e5c;" horiz-adv-x="718" 
d="M346 248h-37l-51 -248h-259l146 690h346q123 0 183.5 -50.5t60.5 -126.5q0 -70 -38.5 -117.5t-108.5 -68.5q98 -36 66 -185q-23 -105 -23 -142h-249q-6 41 19 158q13 42 2 66t-57 24zM371 534l-27 -130h45q40 0 62 19.5t22 56.5q0 54 -56 54h-46zM378 -213h-207l37 175
h207zM303 876h339l-30 -138h-339z" />
    <glyph glyph-name="uni1E5D" unicode="&#x1e5d;" horiz-adv-x="479" 
d="M513 543l-52 -220q-96 10 -128 -17.5t-49 -109.5l-41 -196h-255l74 350q29 136 36 182h247q-2 -33 -12 -83q53 97 180 94zM154 712h339l-29 -138h-339zM176 -213h-207l37 175h207z" />
    <glyph glyph-name="uni1E5E" unicode="&#x1e5e;" horiz-adv-x="718" 
d="M346 248h-37l-51 -248h-259l146 690h346q123 0 183.5 -50.5t60.5 -126.5q0 -70 -38.5 -117.5t-108.5 -68.5q98 -36 66 -185q-23 -105 -23 -142h-249q-6 41 19 158q13 42 2 66t-57 24zM371 534l-27 -130h45q40 0 62 19.5t22 56.5q0 54 -56 54h-46zM144 -56h339l-29 -138
h-339z" />
    <glyph glyph-name="uni1E5F" unicode="&#x1e5f;" horiz-adv-x="479" 
d="M513 543l-52 -220q-96 10 -128 -17.5t-49 -109.5l-41 -196h-255l74 350q29 136 36 182h247q-2 -33 -12 -83q53 97 180 94zM-64 -50h339l-29 -138h-339z" />
    <glyph glyph-name="uni1E60" unicode="&#x1e60;" horiz-adv-x="686" 
d="M9 218h247q3 -32 21.5 -51t52.5 -19q59 0 59 46q0 23 -21.5 37.5t-76.5 31.5q-118 37 -170.5 83t-52.5 119q0 112 82.5 177.5t228.5 65.5q141 0 224 -56.5t84 -165.5h-246q0 57 -60 57q-48 0 -48 -39q0 -19 23.5 -33t80.5 -30q128 -37 177.5 -89.5t49.5 -126.5
q0 -121 -94 -182t-244 -61q-158 0 -236 62.5t-81 173.5zM523 747h-199l34 157h199z" />
    <glyph glyph-name="uni1E61" unicode="&#x1e61;" horiz-adv-x="585" 
d="M-2 170h218q5 -40 46 -40q43 0 43 27q0 11 -14 19t-50 17q-113 28 -154.5 65t-41.5 97q0 79 66 135t195 56q132 0 196.5 -48t62.5 -128h-208q1 49 -48 49q-32 0 -32 -23q0 -11 20.5 -20.5t79.5 -25.5q92 -25 130 -65.5t38 -98.5q0 -69 -41 -115.5t-103.5 -65.5
t-142.5 -19q-126 0 -191 48.5t-69 135.5zM464 582h-237l34 157h237z" />
    <glyph glyph-name="uni1E62" unicode="&#x1e62;" horiz-adv-x="686" 
d="M9 218h247q3 -32 21.5 -51t52.5 -19q59 0 59 46q0 23 -21.5 37.5t-76.5 31.5q-118 37 -170.5 83t-52.5 119q0 112 82.5 177.5t228.5 65.5q141 0 224 -56.5t84 -165.5h-246q0 57 -60 57q-48 0 -48 -39q0 -19 23.5 -33t80.5 -30q128 -37 177.5 -89.5t49.5 -126.5
q0 -121 -94 -182t-244 -61q-158 0 -236 62.5t-81 173.5zM362 -231h-207l37 175h207z" />
    <glyph glyph-name="uni1E63" unicode="&#x1e63;" horiz-adv-x="585" 
d="M-2 170h218q5 -40 46 -40q43 0 43 27q0 11 -14 19t-50 17q-113 28 -154.5 65t-41.5 97q0 79 66 135t195 56q132 0 196.5 -48t62.5 -128h-208q1 49 -48 49q-32 0 -32 -23q0 -11 20.5 -20.5t79.5 -25.5q92 -25 130 -65.5t38 -98.5q0 -69 -41 -115.5t-103.5 -65.5
t-142.5 -19q-126 0 -191 48.5t-69 135.5zM311 -219h-207l37 175h207z" />
    <glyph glyph-name="uni1E6C" unicode="&#x1e6c;" horiz-adv-x="627" 
d="M128 0l108 515h-172l38 175h605l-38 -175h-170l-108 -515h-263zM319 -213h-207l37 175h207z" />
    <glyph glyph-name="uni1E6D" unicode="&#x1e6d;" horiz-adv-x="435" 
d="M30 380l32 152h68l31 132h246l-28 -132h76l-32 -152h-76l-42 -189q-6 -26 1 -35.5t35 -9.5q22 0 33 1l-30 -145q-46 -13 -140 -13q-108 0 -141 44.5t-14 134.5l46 212h-65zM237 -221h-207l37 175h207z" />
    <glyph glyph-name="uni1E6E" unicode="&#x1e6e;" horiz-adv-x="627" 
d="M128 0l108 515h-172l38 175h605l-38 -175h-170l-108 -515h-263zM84 -54h339l-29 -138h-339z" />
    <glyph glyph-name="uni1E6F" unicode="&#x1e6f;" horiz-adv-x="435" 
d="M30 380l32 152h68l31 132h246l-28 -132h76l-32 -152h-76l-42 -189q-6 -26 1 -35.5t35 -9.5q22 0 33 1l-30 -145q-46 -13 -140 -13q-108 0 -141 44.5t-14 134.5l46 212h-65zM2 -61h339l-29 -138h-339z" />
    <glyph glyph-name="Wgrave" unicode="&#x1e80;" horiz-adv-x="938" 
d="M349 0h-268l-1 690h266q-30 -245 -55 -428h6q99 275 151 428h235q-21 -342 -27 -419l6 -1q33 123 120 420h252l-298 -690h-268q3 68 14 197.5t15 196.5h-4q-46 -137 -144 -394zM298 865h265l109 -131h-201z" />
    <glyph glyph-name="wgrave" unicode="&#x1e81;" horiz-adv-x="873" 
d="M42 532h255q-20 -271 -27 -319h6q13 41 27 88t33.5 114.5t34.5 116.5h232q-9 -80 -16.5 -182t-12.5 -142l7 1q54 178 101 323h245l-252 -532h-277q11 110 30 253h-6q-14 -46 -82 -253h-276zM244 731h237l107 -151h-184z" />
    <glyph glyph-name="Wacute" unicode="&#x1e82;" horiz-adv-x="938" 
d="M349 0h-268l-1 690h266q-30 -245 -55 -428h6q99 275 151 428h235q-21 -342 -27 -419l6 -1q33 123 120 420h252l-298 -690h-268q3 68 14 197.5t15 196.5h-4q-46 -137 -144 -394zM596 865h269l-204 -131h-206z" />
    <glyph glyph-name="wacute" unicode="&#x1e83;" horiz-adv-x="873" 
d="M42 532h255q-20 -271 -27 -319h6q13 41 27 88t33.5 114.5t34.5 116.5h232q-9 -80 -16.5 -182t-12.5 -142l7 1q54 178 101 323h245l-252 -532h-277q11 110 30 253h-6q-14 -46 -82 -253h-276zM547 726h257l-224 -151h-192z" />
    <glyph glyph-name="Wdieresis" unicode="&#x1e84;" horiz-adv-x="938" 
d="M349 0h-268l-1 690h266q-30 -245 -55 -428h6q99 275 151 428h235q-21 -342 -27 -419l6 -1q33 123 120 420h252l-298 -690h-268q3 68 14 197.5t15 196.5h-4q-46 -137 -144 -394zM545 737h-186l34 157h186zM777 737h-186l34 157h186z" />
    <glyph glyph-name="wdieresis" unicode="&#x1e85;" horiz-adv-x="873" 
d="M42 532h255q-20 -271 -27 -319h6q13 41 27 88t33.5 114.5t34.5 116.5h232q-9 -80 -16.5 -182t-12.5 -142l7 1q54 178 101 323h245l-252 -532h-277q11 110 30 253h-6q-14 -46 -82 -253h-276zM468 573h-186l34 157h186zM700 573h-186l34 157h186z" />
    <glyph glyph-name="uni1E8E" unicode="&#x1e8e;" horiz-adv-x="649" 
d="M401 0h-267l52 240q3 17 -2 32l-137 418h275q18 -110 36 -271q104 202 141 271h285l-323 -438q-10 -14 -13 -31zM514 737h-199l34 157h199z" />
    <glyph glyph-name="uni1E8F" unicode="&#x1e8f;" horiz-adv-x="588" 
d="M38 532h254q-9 -239 -16 -333h8q63 192 113 333h250l-212 -431q-39 -80 -65.5 -125t-56.5 -82.5t-64 -53t-76 -23.5t-106 -8q-54 0 -98 6l36 169q14 -2 31 -2q47 0 59 17zM465 571h-237l34 157h237z" />
    <glyph glyph-name="uni1E92" unicode="&#x1e92;" horiz-adv-x="645" 
d="M-34 0l28 133l361 382h-275l37 175h576l-33 -157l-332 -358h290l-62 -175h-590zM341 -216h-207l37 175h207z" />
    <glyph glyph-name="uni1E93" unicode="&#x1e93;" horiz-adv-x="546" 
d="M-30 0l31 143q28 25 105.5 102.5t139.5 130.5h-194l34 156h473l-34 -152q-19 -18 -73.5 -72t-91.5 -89.5t-67 -62.5h227l-59 -156h-491zM282 -213h-207l37 175h207z" />
    <glyph glyph-name="uni1E97" unicode="&#x1e97;" horiz-adv-x="435" 
d="M30 380l32 152h68l31 132h246l-28 -132h76l-32 -152h-76l-42 -189q-6 -26 1 -35.5t35 -9.5q22 0 33 1l-30 -145q-46 -13 -140 -13q-108 0 -141 44.5t-14 134.5l46 212h-65zM270 703h-186l34 157h186zM502 703h-186l34 157h186z" />
    <glyph glyph-name="uni1E9E" unicode="&#x1e9e;" horiz-adv-x="790" 
d="M363 482l-101 -482h-263l110 518q8 38 25.5 68t53 59.5t100.5 46t156 16.5q172 0 248 -55.5t76 -140.5q0 -29 -6 -51l-126 -71l-1 -5l38 -31q45 -37 64.5 -73.5t19.5 -82.5q0 -99 -72 -155t-200 -56q-119 0 -191 41l34 158q63 -42 128 -42q48 0 48 31q0 14 -9.5 26
t-40.5 34l-48 33q-55 40 -47.5 90.5t67.5 84.5l79 44q2 6 2 16q0 52 -66 52q-63 0 -78 -73z" />
    <glyph glyph-name="uni1EA0" unicode="&#x1ea0;" horiz-adv-x="708" 
d="M403 126h-149l-47 -126h-270l330 690h354l45 -690h-263v126zM322 301h84q0 20 -0.5 99.5t-0.5 113.5h-6q-23 -69 -77 -213zM363 -213h-207l37 175h207z" />
    <glyph glyph-name="uni1EA1" unicode="&#x1ea1;" horiz-adv-x="643" 
d="M614 333l-35 -159q-30 -146 -34 -174h-240q0 15 5 55q-59 -69 -156 -69q-67 0 -106.5 36.5t-39.5 106.5q0 95 64.5 147.5t201.5 63.5q60 5 97 5l6 28q4 22 -2 30t-22 8q-13 0 -22 -7t-12 -14t-9 -24h-235q43 180 288 180q159 0 215.5 -57t35.5 -156zM342 210l5 22
q-28 0 -45 -6q-40 -15 -40 -48q0 -14 7.5 -23t20.5 -9q22 0 33.5 15t18.5 49zM350 -223h-207l37 175h207z" />
    <glyph glyph-name="uni1EA2" unicode="&#x1ea2;" horiz-adv-x="708" 
d="M403 126h-149l-47 -126h-270l330 690h354l45 -690h-263v126zM322 301h84q0 20 -0.5 99.5t-0.5 113.5h-6q-23 -69 -77 -213zM522 724h-156q43 36 43 55q0 15 -20 15q-16 0 -39 -7l-14 108q64 32 143 32q58 0 87 -24t29 -63q0 -64 -73 -116z" />
    <glyph glyph-name="uni1EA3" unicode="&#x1ea3;" horiz-adv-x="643" 
d="M614 333l-35 -159q-30 -146 -34 -174h-240q0 15 5 55q-59 -69 -156 -69q-67 0 -106.5 36.5t-39.5 106.5q0 95 64.5 147.5t201.5 63.5q60 5 97 5l6 28q4 22 -2 30t-22 8q-13 0 -22 -7t-12 -14t-9 -24h-235q43 180 288 180q159 0 215.5 -57t35.5 -156zM342 210l5 22
q-28 0 -45 -6q-40 -15 -40 -48q0 -14 7.5 -23t20.5 -9q22 0 33.5 15t18.5 49zM467 583h-156q43 36 43 55q0 15 -20 15q-16 0 -39 -7l-14 108q64 32 143 32q58 0 87 -24t29 -63q0 -64 -73 -116z" />
    <glyph glyph-name="uni1EA4" unicode="&#x1ea4;" horiz-adv-x="708" 
d="M403 126h-149l-47 -126h-270l330 690h354l45 -690h-263v126zM322 301h84q0 20 -0.5 99.5t-0.5 113.5h-6q-23 -69 -77 -213zM379 864h191l92 -138h-167l-37 54l-57 -54h-175zM745 931h198l-178 -118h-137z" />
    <glyph glyph-name="uni1EA5" unicode="&#x1ea5;" horiz-adv-x="643" 
d="M614 333l-35 -159q-30 -146 -34 -174h-240q0 15 5 55q-59 -69 -156 -69q-67 0 -106.5 36.5t-39.5 106.5q0 95 64.5 147.5t201.5 63.5q60 5 97 5l6 28q4 22 -2 30t-22 8q-13 0 -22 -7t-12 -14t-9 -24h-235q43 180 288 180q159 0 215.5 -57t35.5 -156zM342 210l5 22
q-28 0 -45 -6q-40 -15 -40 -48q0 -14 7.5 -23t20.5 -9q22 0 33.5 15t18.5 49zM313 716h191l73 -138h-167l-21 52l-45 -52h-165zM639 793h200l-152 -118h-149z" />
    <glyph glyph-name="uni1EA6" unicode="&#x1ea6;" horiz-adv-x="708" 
d="M403 126h-149l-47 -126h-270l330 690h354l45 -690h-263v126zM322 301h84q0 20 -0.5 99.5t-0.5 113.5h-6q-23 -69 -77 -213zM379 864h191l92 -138h-167l-37 54l-57 -54h-175zM564 934h180l74 -118h-134z" />
    <glyph glyph-name="uni1EA7" unicode="&#x1ea7;" horiz-adv-x="643" 
d="M614 333l-35 -159q-30 -146 -34 -174h-240q0 15 5 55q-59 -69 -156 -69q-67 0 -106.5 36.5t-39.5 106.5q0 95 64.5 147.5t201.5 63.5q60 5 97 5l6 28q4 22 -2 30t-22 8q-13 0 -22 -7t-12 -14t-9 -24h-235q43 180 288 180q159 0 215.5 -57t35.5 -156zM342 210l5 22
q-28 0 -45 -6q-40 -15 -40 -48q0 -14 7.5 -23t20.5 -9q22 0 33.5 15t18.5 49zM313 716h191l73 -138h-167l-21 52l-45 -52h-165zM488 793h184l57 -118h-131z" />
    <glyph glyph-name="uni1EA8" unicode="&#x1ea8;" horiz-adv-x="708" 
d="M403 126h-149l-47 -126h-270l330 690h354l45 -690h-263v126zM322 301h84q0 20 -0.5 99.5t-0.5 113.5h-6q-23 -69 -77 -213zM379 864h191l92 -138h-167l-37 54l-57 -54h-175zM767 815h-133q34 26 34 42q0 12 -17 12q-14 0 -31 -5l-12 90q54 26 118 26q48 0 72 -20.5
t24 -53.5q0 -52 -55 -91z" />
    <glyph glyph-name="uni1EA9" unicode="&#x1ea9;" horiz-adv-x="643" 
d="M614 333l-35 -159q-30 -146 -34 -174h-240q0 15 5 55q-59 -69 -156 -69q-67 0 -106.5 36.5t-39.5 106.5q0 95 64.5 147.5t201.5 63.5q60 5 97 5l6 28q4 22 -2 30t-22 8q-13 0 -22 -7t-12 -14t-9 -24h-235q43 180 288 180q159 0 215.5 -57t35.5 -156zM342 210l5 22
q-28 0 -45 -6q-40 -15 -40 -48q0 -14 7.5 -23t20.5 -9q22 0 33.5 15t18.5 49zM323 712h191l73 -138h-167l-21 52l-45 -52h-165zM685 673h-125q35 26 37 42q2 12 -10 12q-21 0 -34 -6l-5 91q49 26 116 26q50 0 71.5 -21.5t13.5 -61.5q-11 -53 -64 -82z" />
    <glyph glyph-name="uni1EAA" unicode="&#x1eaa;" horiz-adv-x="708" 
d="M403 126h-149l-47 -126h-270l330 690h354l45 -690h-263v126zM322 301h84q0 20 -0.5 99.5t-0.5 113.5h-6q-23 -69 -77 -213zM407 856h-125l4 23q18 101 118 101q37 0 85.5 -11.5t56.5 -11.5q16 0 18 12l3 10h127l-4 -19q-10 -63 -42 -84.5t-83 -21.5q-30 0 -75.5 10
t-62.5 10q-16 0 -18 -12zM351 831h237l89 -104h-200l-27 32l-36 -32h-195z" />
    <glyph glyph-name="uni1EAB" unicode="&#x1eab;" horiz-adv-x="643" 
d="M614 333l-35 -159q-30 -146 -34 -174h-240q0 15 5 55q-59 -69 -156 -69q-67 0 -106.5 36.5t-39.5 106.5q0 95 64.5 147.5t201.5 63.5q60 5 97 5l6 28q4 22 -2 30t-22 8q-13 0 -22 -7t-12 -14t-9 -24h-235q43 180 288 180q159 0 215.5 -57t35.5 -156zM342 210l5 22
q-28 0 -45 -6q-40 -15 -40 -48q0 -14 7.5 -23t20.5 -9q22 0 33.5 15t18.5 49zM334 713h-115l4 26q8 56 37.5 77t80.5 21q32 0 87 -11.5t64 -11.5q17 0 19 12l2 10h117l-3 -20q-10 -63 -38 -84t-75 -21q-34 0 -92 10t-68 10q-16 0 -18 -12zM288 681h237l89 -104h-200l-28 32
l-35 -32h-195z" />
    <glyph glyph-name="uni1EAC" unicode="&#x1eac;" horiz-adv-x="708" 
d="M403 126h-149l-47 -126h-270l330 690h354l45 -690h-263v126zM322 301h84q0 20 -0.5 99.5t-0.5 113.5h-6q-23 -69 -77 -213zM363 -213h-207l37 175h207zM358 861h248l70 -131h-186l-24 55l-43 -55h-194z" />
    <glyph glyph-name="uni1EAD" unicode="&#x1ead;" horiz-adv-x="643" 
d="M614 333l-35 -159q-30 -146 -34 -174h-240q0 15 5 55q-59 -69 -156 -69q-67 0 -106.5 36.5t-39.5 106.5q0 95 64.5 147.5t201.5 63.5q60 5 97 5l6 28q4 22 -2 30t-22 8q-13 0 -22 -7t-12 -14t-9 -24h-235q43 180 288 180q159 0 215.5 -57t35.5 -156zM342 210l5 22
q-28 0 -45 -6q-40 -15 -40 -48q0 -14 7.5 -23t20.5 -9q22 0 33.5 15t18.5 49zM340 -213h-207l37 175h207zM315 727h210l71 -143h-176l-21 54l-43 -54h-176z" />
    <glyph glyph-name="uni1EAE" unicode="&#x1eae;" horiz-adv-x="708" 
d="M403 126h-149l-47 -126h-270l330 690h354l45 -690h-263v126zM322 301h84q0 20 -0.5 99.5t-0.5 113.5h-6q-23 -69 -77 -213zM510 986h234l-186 -95h-175zM274 865h139q1 -16 12.5 -26.5t34.5 -10.5q44 0 65 37h140q-8 -23 -22 -44t-39 -45.5t-67 -39.5t-94 -15
q-90 0 -131 44.5t-38 99.5z" />
    <glyph glyph-name="uni1EAF" unicode="&#x1eaf;" horiz-adv-x="643" 
d="M614 333l-35 -159q-30 -146 -34 -174h-240q0 15 5 55q-59 -69 -156 -69q-67 0 -106.5 36.5t-39.5 106.5q0 95 64.5 147.5t201.5 63.5q60 5 97 5l6 28q4 22 -2 30t-22 8q-13 0 -22 -7t-12 -14t-9 -24h-235q43 180 288 180q159 0 215.5 -57t35.5 -156zM342 210l5 22
q-28 0 -45 -6q-40 -15 -40 -48q0 -14 7.5 -23t20.5 -9q22 0 33.5 15t18.5 49zM446 839h234l-187 -95h-174zM211 718h139q1 -16 13 -26.5t35 -10.5q46 0 64 37h140q-8 -22 -22.5 -43.5t-39.5 -46t-66.5 -39.5t-92.5 -15q-91 0 -132 44.5t-38 99.5z" />
    <glyph glyph-name="uni1EB0" unicode="&#x1eb0;" horiz-adv-x="708" 
d="M403 126h-149l-47 -126h-270l330 690h354l45 -690h-263v126zM322 301h84q0 20 -0.5 99.5t-0.5 113.5h-6q-23 -69 -77 -213zM253 986h233l87 -95h-172zM274 865h139q1 -16 12.5 -26.5t34.5 -10.5q44 0 65 37h140q-53 -144 -222 -144q-89 0 -128 44.5t-41 99.5z" />
    <glyph glyph-name="uni1EB1" unicode="&#x1eb1;" horiz-adv-x="643" 
d="M614 333l-35 -159q-30 -146 -34 -174h-240q0 15 5 55q-59 -69 -156 -69q-67 0 -106.5 36.5t-39.5 106.5q0 95 64.5 147.5t201.5 63.5q60 5 97 5l6 28q4 22 -2 30t-22 8q-13 0 -22 -7t-12 -14t-9 -24h-235q43 180 288 180q159 0 215.5 -57t35.5 -156zM342 210l5 22
q-28 0 -45 -6q-40 -15 -40 -48q0 -14 7.5 -23t20.5 -9q22 0 33.5 15t18.5 49zM193 839h233l87 -95h-174zM219 718h139q1 -16 13 -26.5t35 -10.5q46 0 64 37h140q-8 -22 -22.5 -43.5t-39.5 -46t-66.5 -39.5t-92.5 -15q-91 0 -132 44.5t-38 99.5z" />
    <glyph glyph-name="uni1EB2" unicode="&#x1eb2;" horiz-adv-x="708" 
d="M403 126h-149l-47 -126h-270l330 690h354l45 -690h-263v126zM322 301h84q0 20 -0.5 99.5t-0.5 113.5h-6q-23 -69 -77 -213zM547 886h-142q32 24 34 42q1 7 -3.5 11t-14.5 4q-11 0 -27 -4l-6 90q50 25 118 25q56 0 82 -27t16 -71q-9 -41 -57 -70zM274 863h139
q2 -37 47 -37q44 0 65 37h140q-53 -144 -222 -144q-48 0 -82.5 13.5t-52.5 36t-26 46t-8 48.5z" />
    <glyph glyph-name="uni1EB3" unicode="&#x1eb3;" horiz-adv-x="643" 
d="M614 333l-35 -159q-30 -146 -34 -174h-240q0 15 5 55q-59 -69 -156 -69q-67 0 -106.5 36.5t-39.5 106.5q0 95 64.5 147.5t201.5 63.5q60 5 97 5l6 28q4 22 -2 30t-22 8q-13 0 -22 -7t-12 -14t-9 -24h-235q43 180 288 180q159 0 215.5 -57t35.5 -156zM342 210l5 22
q-28 0 -45 -6q-40 -15 -40 -48q0 -14 7.5 -23t20.5 -9q22 0 33.5 15t18.5 49zM470 743h-124q35 24 38 48q2 7 -3.5 12t-16.5 5q-14 0 -36 -6l-7 84q50 25 121 25q55 0 80.5 -25.5t16.5 -65.5q-10 -45 -69 -77zM221 720h139q1 -16 13 -26.5t35 -10.5q46 0 64 37h140
q-8 -22 -22.5 -43.5t-39.5 -46t-66.5 -39.5t-92.5 -15q-91 0 -132 44.5t-38 99.5z" />
    <glyph glyph-name="uni1EB4" unicode="&#x1eb4;" horiz-adv-x="708" 
d="M403 126h-149l-47 -126h-270l330 690h354l45 -690h-263v126zM322 301h84q0 20 -0.5 99.5t-0.5 113.5h-6q-23 -69 -77 -213zM406 876h-125l4 22q18 102 122 102q32 0 80.5 -11.5t57.5 -11.5q16 0 18 12l2 10h127l-2 -13q-17 -112 -125 -112q-34 0 -81.5 10t-57.5 10
q-16 0 -19 -14zM286 848h134q6 -27 40 -27q31 0 51 27h137q-20 -52 -70.5 -90t-140.5 -38q-80 0 -117 38.5t-34 89.5z" />
    <glyph glyph-name="uni1EB5" unicode="&#x1eb5;" horiz-adv-x="643" 
d="M614 333l-35 -159q-30 -146 -34 -174h-240q0 15 5 55q-59 -69 -156 -69q-67 0 -106.5 36.5t-39.5 106.5q0 95 64.5 147.5t201.5 63.5q60 5 97 5l6 28q4 22 -2 30t-22 8q-13 0 -22 -7t-12 -14t-9 -24h-235q43 180 288 180q159 0 215.5 -57t35.5 -156zM342 210l5 22
q-28 0 -45 -6q-40 -15 -40 -48q0 -14 7.5 -23t20.5 -9q22 0 33.5 15t18.5 49zM350 723h-125l4 21q19 103 127 103q38 0 81.5 -11.5t51.5 -11.5q16 0 18 12l2 10h127l-4 -23q-18 -102 -126 -102q-28 0 -76.5 10t-59.5 10q-15 0 -19 -12zM228 699h137q9 -27 41 -27q36 0 56 27
h137q-20 -53 -71.5 -88.5t-139.5 -35.5q-78 0 -118 36.5t-42 87.5z" />
    <glyph glyph-name="uni1EB6" unicode="&#x1eb6;" horiz-adv-x="708" 
d="M403 126h-149l-47 -126h-270l330 690h354l45 -690h-263v126zM322 301h84q0 20 -0.5 99.5t-0.5 113.5h-6q-23 -69 -77 -213zM368 -213h-207l37 175h207zM286 883h142q2 -42 37 -42q40 0 52 42h143q-11 -32 -24 -55.5t-37 -49.5t-62.5 -40t-90.5 -14q-47 0 -81 14.5
t-51.5 38.5t-24 50.5t-3.5 55.5z" />
    <glyph glyph-name="uni1EB7" unicode="&#x1eb7;" horiz-adv-x="643" 
d="M614 333l-35 -159q-30 -146 -34 -174h-240q0 15 5 55q-59 -69 -156 -69q-67 0 -106.5 36.5t-39.5 106.5q0 95 64.5 147.5t201.5 63.5q60 5 97 5l6 28q4 22 -2 30t-22 8q-13 0 -22 -7t-12 -14t-9 -24h-235q43 180 288 180q159 0 215.5 -57t35.5 -156zM342 210l5 22
q-28 0 -45 -6q-40 -15 -40 -48q0 -14 7.5 -23t20.5 -9q22 0 33.5 15t18.5 49zM222 730h159q0 -30 22 -30q24 0 34 30h159q-11 -32 -24 -55.5t-37 -49.5t-63.5 -40t-92.5 -14q-48 0 -82.5 15t-50 40t-21.5 50.5t-3 53.5zM340 -213h-207l37 175h207z" />
    <glyph glyph-name="uni1EB8" unicode="&#x1eb8;" horiz-adv-x="636" 
d="M623 433l-38 -175h-282l-18 -83h326l-64 -175h-548l146 690h543l-36 -175h-293l-18 -82h282zM347 -213h-207l37 175h207z" />
    <glyph glyph-name="uni1EB9" unicode="&#x1eb9;" horiz-adv-x="655" 
d="M617 221h-335q-4 -19 -5 -25q-8 -64 33 -64q35 0 48 47h247q-27 -91 -107.5 -142t-203.5 -51q-61 0 -108.5 13.5t-77 35.5t-48.5 52.5t-26.5 62t-7.5 67.5q0 42 10 85t34.5 87.5t61.5 79t95.5 56t131.5 21.5q136 0 204.5 -59t68.5 -168q0 -44 -15 -98zM307 333h82
q4 17 4 35q0 39 -30 39q-38 0 -56 -74zM346 -224h-207l37 175h207z" />
    <glyph glyph-name="uni1EBA" unicode="&#x1eba;" horiz-adv-x="636" 
d="M623 433l-38 -175h-282l-18 -83h326l-64 -175h-548l146 690h543l-36 -175h-293l-18 -82h282zM486 727h-156q43 36 43 55q0 15 -20 15q-16 0 -39 -7l-14 108q64 32 143 32q58 0 87 -24t29 -63q0 -64 -73 -116z" />
    <glyph glyph-name="uni1EBB" unicode="&#x1ebb;" horiz-adv-x="655" 
d="M617 221h-335q-4 -19 -5 -25q-8 -64 33 -64q35 0 48 47h247q-27 -91 -107.5 -142t-203.5 -51q-61 0 -108.5 13.5t-77 35.5t-48.5 52.5t-26.5 62t-7.5 67.5q0 42 10 85t34.5 87.5t61.5 79t95.5 56t131.5 21.5q136 0 204.5 -59t68.5 -168q0 -44 -15 -98zM307 333h82
q4 17 4 35q0 39 -30 39q-38 0 -56 -74zM455 574h-156q43 36 43 55q0 15 -20 15q-16 0 -39 -7l-14 108q64 32 143 32q58 0 87 -24t29 -63q0 -64 -73 -116z" />
    <glyph glyph-name="uni1EBC" unicode="&#x1ebc;" horiz-adv-x="636" 
d="M623 433l-38 -175h-282l-18 -83h326l-64 -175h-548l146 690h543l-36 -175h-293l-18 -82h282zM353 736h-119l6 37q6 33 17.5 56.5t24 35t29.5 18t27.5 7.5t25.5 1q34 0 81 -16.5t59 -16.5t16 19l3 13h117l-6 -36q-6 -34 -17.5 -58.5t-23 -37t-28.5 -19.5t-28 -8t-27 -1
q-29 0 -80.5 15.5t-60.5 15.5q-10 0 -14 -15z" />
    <glyph glyph-name="uni1EBD" unicode="&#x1ebd;" horiz-adv-x="655" 
d="M617 221h-335q-4 -19 -5 -25q-8 -64 33 -64q35 0 48 47h247q-27 -91 -107.5 -142t-203.5 -51q-61 0 -108.5 13.5t-77 35.5t-48.5 52.5t-26.5 62t-7.5 67.5q0 42 10 85t34.5 87.5t61.5 79t95.5 56t131.5 21.5q136 0 204.5 -59t68.5 -168q0 -44 -15 -98zM307 333h82
q4 17 4 35q0 39 -30 39q-38 0 -56 -74zM312 582h-119l6 35q7 43 21 69.5t33.5 36.5t31.5 12.5t32 2.5q33 0 83 -17t63 -17t16 17l3 15h117l-4 -26q-7 -47 -21.5 -77t-34.5 -41t-33 -13.5t-34 -2.5q-30 0 -80.5 15.5t-59.5 15.5q-13 0 -17 -15z" />
    <glyph glyph-name="uni1EBE" unicode="&#x1ebe;" horiz-adv-x="636" 
d="M623 433l-38 -175h-282l-18 -83h326l-64 -175h-548l146 690h543l-36 -175h-293l-18 -82h282zM353 866h191l92 -138h-167l-37 54l-57 -54h-175zM719 933h198l-178 -118h-137z" />
    <glyph glyph-name="uni1EBF" unicode="&#x1ebf;" horiz-adv-x="655" 
d="M617 221h-335q-4 -19 -5 -25q-8 -64 33 -64q35 0 48 47h247q-27 -91 -107.5 -142t-203.5 -51q-61 0 -108.5 13.5t-77 35.5t-48.5 52.5t-26.5 62t-7.5 67.5q0 42 10 85t34.5 87.5t61.5 79t95.5 56t131.5 21.5q136 0 204.5 -59t68.5 -168q0 -44 -15 -98zM307 333h82
q4 17 4 35q0 39 -30 39q-38 0 -56 -74zM319 715h191l73 -138h-167l-21 52l-45 -52h-165zM645 792h200l-152 -118h-149z" />
    <glyph glyph-name="uni1EC0" unicode="&#x1ec0;" horiz-adv-x="636" 
d="M623 433l-38 -175h-282l-18 -83h326l-64 -175h-548l146 690h543l-36 -175h-293l-18 -82h282zM353 874h191l92 -138h-167l-37 54l-57 -54h-175zM538 944h180l74 -118h-134z" />
    <glyph glyph-name="uni1EC1" unicode="&#x1ec1;" horiz-adv-x="655" 
d="M617 221h-335q-4 -19 -5 -25q-8 -64 33 -64q35 0 48 47h247q-27 -91 -107.5 -142t-203.5 -51q-61 0 -108.5 13.5t-77 35.5t-48.5 52.5t-26.5 62t-7.5 67.5q0 42 10 85t34.5 87.5t61.5 79t95.5 56t131.5 21.5q136 0 204.5 -59t68.5 -168q0 -44 -15 -98zM307 333h82
q4 17 4 35q0 39 -30 39q-38 0 -56 -74zM324 715h191l73 -138h-167l-21 52l-45 -52h-165zM499 792h184l57 -118h-131z" />
    <glyph glyph-name="uni1EC2" unicode="&#x1ec2;" horiz-adv-x="636" 
d="M623 433l-38 -175h-282l-18 -83h326l-64 -175h-548l146 690h543l-36 -175h-293l-18 -82h282zM353 874h191l92 -138h-167l-37 54l-57 -54h-175zM741 825h-133q34 26 34 42q0 12 -17 12q-14 0 -31 -5l-12 90q54 26 118 26q48 0 72 -20.5t24 -53.5q0 -52 -55 -91z" />
    <glyph glyph-name="uni1EC3" unicode="&#x1ec3;" horiz-adv-x="655" 
d="M617 221h-335q-4 -19 -5 -25q-8 -64 33 -64q35 0 48 47h247q-27 -91 -107.5 -142t-203.5 -51q-61 0 -108.5 13.5t-77 35.5t-48.5 52.5t-26.5 62t-7.5 67.5q0 42 10 85t34.5 87.5t61.5 79t95.5 56t131.5 21.5q136 0 204.5 -59t68.5 -168q0 -44 -15 -98zM307 333h82
q4 17 4 35q0 39 -30 39q-38 0 -56 -74zM326 712h191l73 -138h-167l-21 52l-45 -52h-165zM688 673h-125q35 26 37 42q2 12 -10 12q-21 0 -34 -6l-5 91q49 26 116 26q50 0 71.5 -21.5t13.5 -61.5q-11 -53 -64 -82z" />
    <glyph glyph-name="uni1EC4" unicode="&#x1ec4;" horiz-adv-x="636" 
d="M623 433l-38 -175h-282l-18 -83h326l-64 -175h-548l146 690h543l-36 -175h-293l-18 -82h282zM381 866h-125l4 23q18 101 118 101q37 0 85.5 -11.5t56.5 -11.5q16 0 18 12l3 10h127l-4 -19q-10 -63 -42 -84.5t-83 -21.5q-30 0 -75.5 10t-62.5 10q-16 0 -18 -12zM325 841
h237l89 -104h-200l-27 32l-36 -32h-195z" />
    <glyph glyph-name="uni1EC5" unicode="&#x1ec5;" horiz-adv-x="655" 
d="M617 221h-335q-4 -19 -5 -25q-8 -64 33 -64q35 0 48 47h247q-27 -91 -107.5 -142t-203.5 -51q-61 0 -108.5 13.5t-77 35.5t-48.5 52.5t-26.5 62t-7.5 67.5q0 42 10 85t34.5 87.5t61.5 79t95.5 56t131.5 21.5q136 0 204.5 -59t68.5 -168q0 -44 -15 -98zM307 333h82
q4 17 4 35q0 39 -30 39q-38 0 -56 -74zM331 704h-115l4 26q8 56 37.5 77t80.5 21q32 0 87 -11.5t64 -11.5q17 0 19 12l2 10h117l-3 -20q-10 -63 -38 -84t-75 -21q-34 0 -92 10t-68 10q-16 0 -18 -12zM285 672h237l89 -104h-200l-28 32l-35 -32h-195z" />
    <glyph glyph-name="uni1EC6" unicode="&#x1ec6;" horiz-adv-x="636" 
d="M623 433l-38 -175h-282l-18 -83h326l-64 -175h-548l146 690h543l-36 -175h-293l-18 -82h282zM347 -213h-207l37 175h207zM322 861h248l70 -131h-186l-24 55l-43 -55h-194z" />
    <glyph glyph-name="uni1EC7" unicode="&#x1ec7;" horiz-adv-x="655" 
d="M617 221h-335q-4 -19 -5 -25q-8 -64 33 -64q35 0 48 47h247q-27 -91 -107.5 -142t-203.5 -51q-61 0 -108.5 13.5t-77 35.5t-48.5 52.5t-26.5 62t-7.5 67.5q0 42 10 85t34.5 87.5t61.5 79t95.5 56t131.5 21.5q136 0 204.5 -59t68.5 -168q0 -44 -15 -98zM307 333h82
q4 17 4 35q0 39 -30 39q-38 0 -56 -74zM336 -217h-207l37 175h207zM310 713h210l71 -143h-176l-21 54l-43 -54h-176z" />
    <glyph glyph-name="uni1EC8" unicode="&#x1ec8;" horiz-adv-x="372" 
d="M145 690h264l-146 -690h-264zM351 724h-156q43 36 43 55q0 15 -20 15q-16 0 -39 -7l-14 108q64 32 143 32q58 0 87 -24t29 -63q0 -64 -73 -116z" />
    <glyph glyph-name="uni1EC9" unicode="&#x1ec9;" horiz-adv-x="341" 
d="M-12 0l113 532h255l-113 -532h-255zM308 574h-156q43 36 43 55q0 15 -20 15q-16 0 -39 -7l-14 108q64 32 143 32q58 0 87 -24t29 -63q0 -64 -73 -116z" />
    <glyph glyph-name="uni1ECA" unicode="&#x1eca;" horiz-adv-x="372" 
d="M145 690h264l-146 -690h-264zM191 -213h-207l37 175h207z" />
    <glyph glyph-name="uni1ECB" unicode="&#x1ecb;" horiz-adv-x="341" 
d="M-12 0l113 532h255l-113 -532h-255zM110 574l30 143h255l-30 -143h-255zM171 -219h-207l37 175h207z" />
    <glyph glyph-name="uni1ECC" unicode="&#x1ecc;" horiz-adv-x="768" 
d="M447 708q157 0 238 -84t81 -216q0 -61 -13 -118.5t-44 -114t-77.5 -99t-119 -68.5t-163.5 -26q-83 0 -145.5 24t-98 65.5t-52.5 92t-17 108.5q0 81 25 157t73.5 139.5t129.5 101.5t183 38zM437 536q-34 0 -61 -33.5t-41.5 -82t-21.5 -93t-7 -76.5q0 -97 66 -97
q35 0 62.5 34t41 83.5t20 93t6.5 73.5q0 98 -65 98zM393 -223h-207l37 175h207z" />
    <glyph glyph-name="uni1ECD" unicode="&#x1ecd;" horiz-adv-x="667" 
d="M366 546q137 0 206 -66.5t69 -168.5q0 -67 -19.5 -123.5t-59.5 -102.5t-109.5 -72.5t-161.5 -26.5q-74 0 -128.5 20.5t-83.5 55t-42 73.5t-13 83q0 63 20 119.5t60 104.5t107.5 76t154.5 28zM361 399q-35 0 -58.5 -85.5t-23.5 -138.5q0 -45 27 -45q35 0 57.5 91t22.5 141
q0 37 -25 37zM342 -218h-207l37 175h207z" />
    <glyph glyph-name="uni1ECE" unicode="&#x1ece;" horiz-adv-x="768" 
d="M447 708q157 0 238 -84t81 -216q0 -61 -13 -118.5t-44 -114t-77.5 -99t-119 -68.5t-163.5 -26q-83 0 -145.5 24t-98 65.5t-52.5 92t-17 108.5q0 81 25 157t73.5 139.5t129.5 101.5t183 38zM437 536q-34 0 -61 -33.5t-41.5 -82t-21.5 -93t-7 -76.5q0 -97 66 -97
q35 0 62.5 34t41 83.5t20 93t6.5 73.5q0 98 -65 98zM532 736h-156q43 36 43 55q0 15 -20 15q-16 0 -39 -7l-14 108q64 32 143 32q58 0 87 -24t29 -63q0 -64 -73 -116z" />
    <glyph glyph-name="uni1ECF" unicode="&#x1ecf;" horiz-adv-x="667" 
d="M366 546q137 0 206 -66.5t69 -168.5q0 -67 -19.5 -123.5t-59.5 -102.5t-109.5 -72.5t-161.5 -26.5q-74 0 -128.5 20.5t-83.5 55t-42 73.5t-13 83q0 63 20 119.5t60 104.5t107.5 76t154.5 28zM361 399q-35 0 -58.5 -85.5t-23.5 -138.5q0 -45 27 -45q35 0 57.5 91t22.5 141
q0 37 -25 37zM461 577h-156q43 36 43 55q0 15 -20 15q-16 0 -39 -7l-14 108q64 32 143 32q58 0 87 -24t29 -63q0 -64 -73 -116z" />
    <glyph glyph-name="uni1ED0" unicode="&#x1ed0;" horiz-adv-x="768" 
d="M447 708q157 0 238 -84t81 -216q0 -61 -13 -118.5t-44 -114t-77.5 -99t-119 -68.5t-163.5 -26q-83 0 -145.5 24t-98 65.5t-52.5 92t-17 108.5q0 81 25 157t73.5 139.5t129.5 101.5t183 38zM437 536q-34 0 -61 -33.5t-41.5 -82t-21.5 -93t-7 -76.5q0 -97 66 -97
q35 0 62.5 34t41 83.5t20 93t6.5 73.5q0 98 -65 98zM401 874h191l92 -138h-167l-37 54l-57 -54h-175zM767 941h198l-178 -118h-137z" />
    <glyph glyph-name="uni1ED1" unicode="&#x1ed1;" horiz-adv-x="667" 
d="M366 546q137 0 206 -66.5t69 -168.5q0 -67 -19.5 -123.5t-59.5 -102.5t-109.5 -72.5t-161.5 -26.5q-74 0 -128.5 20.5t-83.5 55t-42 73.5t-13 83q0 63 20 119.5t60 104.5t107.5 76t154.5 28zM361 399q-35 0 -58.5 -85.5t-23.5 -138.5q0 -45 27 -45q35 0 57.5 91t22.5 141
q0 37 -25 37zM325 714h191l73 -138h-167l-21 52l-45 -52h-165zM651 791h200l-152 -118h-149z" />
    <glyph glyph-name="uni1ED2" unicode="&#x1ed2;" horiz-adv-x="768" 
d="M447 708q157 0 238 -84t81 -216q0 -61 -13 -118.5t-44 -114t-77.5 -99t-119 -68.5t-163.5 -26q-83 0 -145.5 24t-98 65.5t-52.5 92t-17 108.5q0 81 25 157t73.5 139.5t129.5 101.5t183 38zM437 536q-34 0 -61 -33.5t-41.5 -82t-21.5 -93t-7 -76.5q0 -97 66 -97
q35 0 62.5 34t41 83.5t20 93t6.5 73.5q0 98 -65 98zM399 874h191l92 -138h-167l-37 54l-57 -54h-175zM584 944h180l74 -118h-134z" />
    <glyph glyph-name="uni1ED3" unicode="&#x1ed3;" horiz-adv-x="667" 
d="M366 546q137 0 206 -66.5t69 -168.5q0 -67 -19.5 -123.5t-59.5 -102.5t-109.5 -72.5t-161.5 -26.5q-74 0 -128.5 20.5t-83.5 55t-42 73.5t-13 83q0 63 20 119.5t60 104.5t107.5 76t154.5 28zM361 399q-35 0 -58.5 -85.5t-23.5 -138.5q0 -45 27 -45q35 0 57.5 91t22.5 141
q0 37 -25 37zM325 712h191l73 -138h-167l-21 52l-45 -52h-165zM500 789h184l57 -118h-131z" />
    <glyph glyph-name="uni1ED4" unicode="&#x1ed4;" horiz-adv-x="768" 
d="M447 708q157 0 238 -84t81 -216q0 -61 -13 -118.5t-44 -114t-77.5 -99t-119 -68.5t-163.5 -26q-83 0 -145.5 24t-98 65.5t-52.5 92t-17 108.5q0 81 25 157t73.5 139.5t129.5 101.5t183 38zM437 536q-34 0 -61 -33.5t-41.5 -82t-21.5 -93t-7 -76.5q0 -97 66 -97
q35 0 62.5 34t41 83.5t20 93t6.5 73.5q0 98 -65 98zM399 874h191l92 -138h-167l-37 54l-57 -54h-175zM787 825h-133q34 26 34 42q0 12 -17 12q-14 0 -31 -5l-12 90q54 26 118 26q48 0 72 -20.5t24 -53.5q0 -52 -55 -91z" />
    <glyph glyph-name="uni1ED5" unicode="&#x1ed5;" horiz-adv-x="667" 
d="M366 546q137 0 206 -66.5t69 -168.5q0 -67 -19.5 -123.5t-59.5 -102.5t-109.5 -72.5t-161.5 -26.5q-74 0 -128.5 20.5t-83.5 55t-42 73.5t-13 83q0 63 20 119.5t60 104.5t107.5 76t154.5 28zM361 399q-35 0 -58.5 -85.5t-23.5 -138.5q0 -45 27 -45q35 0 57.5 91t22.5 141
q0 37 -25 37zM325 714h191l73 -138h-167l-21 52l-45 -52h-165zM687 675h-125q35 26 37 42q2 12 -10 12q-21 0 -34 -6l-5 91q49 26 116 26q50 0 71.5 -21.5t13.5 -61.5q-11 -53 -64 -82z" />
    <glyph glyph-name="uni1ED6" unicode="&#x1ed6;" horiz-adv-x="768" 
d="M447 708q157 0 238 -84t81 -216q0 -61 -13 -118.5t-44 -114t-77.5 -99t-119 -68.5t-163.5 -26q-83 0 -145.5 24t-98 65.5t-52.5 92t-17 108.5q0 81 25 157t73.5 139.5t129.5 101.5t183 38zM437 536q-34 0 -61 -33.5t-41.5 -82t-21.5 -93t-7 -76.5q0 -97 66 -97
q35 0 62.5 34t41 83.5t20 93t6.5 73.5q0 98 -65 98zM427 866h-125l4 23q18 101 118 101q37 0 85.5 -11.5t56.5 -11.5q16 0 18 12l3 10h127l-4 -19q-10 -63 -42 -84.5t-83 -21.5q-30 0 -75.5 10t-62.5 10q-16 0 -18 -12zM371 841h237l89 -104h-200l-27 32l-36 -32h-195z" />
    <glyph glyph-name="uni1ED7" unicode="&#x1ed7;" horiz-adv-x="667" 
d="M366 546q137 0 206 -66.5t69 -168.5q0 -67 -19.5 -123.5t-59.5 -102.5t-109.5 -72.5t-161.5 -26.5q-74 0 -128.5 20.5t-83.5 55t-42 73.5t-13 83q0 63 20 119.5t60 104.5t107.5 76t154.5 28zM361 399q-35 0 -58.5 -85.5t-23.5 -138.5q0 -45 27 -45q35 0 57.5 91t22.5 141
q0 37 -25 37zM337 703h-115l4 26q8 56 37.5 77t80.5 21q32 0 87 -11.5t64 -11.5q17 0 19 12l2 10h117l-3 -20q-10 -63 -38 -84t-75 -21q-34 0 -92 10t-68 10q-16 0 -18 -12zM291 671h237l89 -104h-200l-28 32l-35 -32h-195z" />
    <glyph glyph-name="uni1ED8" unicode="&#x1ed8;" horiz-adv-x="768" 
d="M447 708q157 0 238 -84t81 -216q0 -61 -13 -118.5t-44 -114t-77.5 -99t-119 -68.5t-163.5 -26q-83 0 -145.5 24t-98 65.5t-52.5 92t-17 108.5q0 81 25 157t73.5 139.5t129.5 101.5t183 38zM437 536q-34 0 -61 -33.5t-41.5 -82t-21.5 -93t-7 -76.5q0 -97 66 -97
q35 0 62.5 34t41 83.5t20 93t6.5 73.5q0 98 -65 98zM403 -223h-207l37 175h207zM378 864h248l70 -131h-186l-24 55l-43 -55h-194z" />
    <glyph glyph-name="uni1ED9" unicode="&#x1ed9;" horiz-adv-x="667" 
d="M366 546q137 0 206 -66.5t69 -168.5q0 -67 -19.5 -123.5t-59.5 -102.5t-109.5 -72.5t-161.5 -26.5q-74 0 -128.5 20.5t-83.5 55t-42 73.5t-13 83q0 63 20 119.5t60 104.5t107.5 76t154.5 28zM361 399q-35 0 -58.5 -85.5t-23.5 -138.5q0 -45 27 -45q35 0 57.5 91t22.5 141
q0 37 -25 37zM332 -223h-207l37 175h207zM316 717h210l71 -143h-176l-21 54l-43 -54h-176z" />
    <glyph glyph-name="uni1EDA" unicode="&#x1eda;" horiz-adv-x="768" 
d="M447 708q132 0 214 -63q26 14 26 53q0 25 -6 52h186q4 -19 4 -42q0 -59 -35 -104t-95 -64q25 -59 25 -132q0 -61 -13 -118.5t-44 -114t-77.5 -99t-119 -68.5t-163.5 -26q-83 0 -145.5 24t-98 65.5t-52.5 92t-17 108.5q0 81 25 157t73.5 139.5t129.5 101.5t183 38z
M437 536q-34 0 -61 -33.5t-41.5 -82t-21.5 -93t-7 -76.5q0 -97 66 -97q35 0 62.5 34t41 83.5t20 93t6.5 73.5q0 98 -65 98zM501 865h269l-204 -131h-206z" />
    <glyph glyph-name="uni1EDB" unicode="&#x1edb;" horiz-adv-x="667" 
d="M366 546q93 0 159 -34q17 15 17 46q0 25 -6 52h186q4 -19 4 -42q0 -53 -27.5 -94.5t-77.5 -63.5q20 -43 20 -99q0 -67 -19.5 -123.5t-59.5 -102.5t-109.5 -72.5t-161.5 -26.5q-74 0 -128.5 20.5t-83.5 55t-42 73.5t-13 83q0 63 20 119.5t60 104.5t107.5 76t154.5 28z
M361 399q-35 0 -58.5 -85.5t-23.5 -138.5q0 -45 27 -45q35 0 57.5 91t22.5 141q0 37 -25 37zM426 731h257l-224 -151h-192z" />
    <glyph glyph-name="uni1EDC" unicode="&#x1edc;" horiz-adv-x="768" 
d="M447 708q132 0 214 -63q26 14 26 53q0 25 -6 52h186q4 -19 4 -42q0 -59 -35 -104t-95 -64q25 -59 25 -132q0 -61 -13 -118.5t-44 -114t-77.5 -99t-119 -68.5t-163.5 -26q-83 0 -145.5 24t-98 65.5t-52.5 92t-17 108.5q0 81 25 157t73.5 139.5t129.5 101.5t183 38z
M437 536q-34 0 -61 -33.5t-41.5 -82t-21.5 -93t-7 -76.5q0 -97 66 -97q35 0 62.5 34t41 83.5t20 93t6.5 73.5q0 98 -65 98zM223 865h265l109 -131h-201z" />
    <glyph glyph-name="uni1EDD" unicode="&#x1edd;" horiz-adv-x="667" 
d="M366 546q93 0 159 -34q17 15 17 46q0 25 -6 52h186q4 -19 4 -42q0 -53 -27.5 -94.5t-77.5 -63.5q20 -43 20 -99q0 -67 -19.5 -123.5t-59.5 -102.5t-109.5 -72.5t-161.5 -26.5q-74 0 -128.5 20.5t-83.5 55t-42 73.5t-13 83q0 63 20 119.5t60 104.5t107.5 76t154.5 28z
M361 399q-35 0 -58.5 -85.5t-23.5 -138.5q0 -45 27 -45q35 0 57.5 91t22.5 141q0 37 -25 37zM163 731h237l107 -151h-184z" />
    <glyph glyph-name="uni1EDE" unicode="&#x1ede;" horiz-adv-x="768" 
d="M447 708q132 0 214 -63q26 14 26 53q0 25 -6 52h186q4 -19 4 -42q0 -59 -35 -104t-95 -64q25 -59 25 -132q0 -61 -13 -118.5t-44 -114t-77.5 -99t-119 -68.5t-163.5 -26q-83 0 -145.5 24t-98 65.5t-52.5 92t-17 108.5q0 81 25 157t73.5 139.5t129.5 101.5t183 38z
M437 536q-34 0 -61 -33.5t-41.5 -82t-21.5 -93t-7 -76.5q0 -97 66 -97q35 0 62.5 34t41 83.5t20 93t6.5 73.5q0 98 -65 98zM565 736h-156q43 36 43 55q0 15 -20 15q-16 0 -39 -7l-14 108q64 32 143 32q58 0 87 -24t29 -63q0 -64 -73 -116z" />
    <glyph glyph-name="uni1EDF" unicode="&#x1edf;" horiz-adv-x="667" 
d="M366 546q93 0 159 -34q17 15 17 46q0 25 -6 52h186q4 -19 4 -42q0 -53 -27.5 -94.5t-77.5 -63.5q20 -43 20 -99q0 -67 -19.5 -123.5t-59.5 -102.5t-109.5 -72.5t-161.5 -26.5q-74 0 -128.5 20.5t-83.5 55t-42 73.5t-13 83q0 63 20 119.5t60 104.5t107.5 76t154.5 28z
M361 399q-35 0 -58.5 -85.5t-23.5 -138.5q0 -45 27 -45q35 0 57.5 91t22.5 141q0 37 -25 37zM451 574h-156q43 36 43 55q0 15 -20 15q-16 0 -39 -7l-14 108q64 32 143 32q58 0 87 -24t29 -63q0 -64 -73 -116z" />
    <glyph glyph-name="uni1EE0" unicode="&#x1ee0;" horiz-adv-x="768" 
d="M447 708q132 0 214 -63q26 14 26 53q0 25 -6 52h186q4 -19 4 -42q0 -59 -35 -104t-95 -64q25 -59 25 -132q0 -61 -13 -118.5t-44 -114t-77.5 -99t-119 -68.5t-163.5 -26q-83 0 -145.5 24t-98 65.5t-52.5 92t-17 108.5q0 81 25 157t73.5 139.5t129.5 101.5t183 38z
M437 536q-34 0 -61 -33.5t-41.5 -82t-21.5 -93t-7 -76.5q0 -97 66 -97q35 0 62.5 34t41 83.5t20 93t6.5 73.5q0 98 -65 98zM406 740h-119l6 37q6 33 17.5 56.5t24 35t29.5 18t27.5 7.5t25.5 1q33 0 80 -16.5t60 -16.5q12 0 16 19l3 13h117l-6 -36q-6 -34 -17.5 -58.5
t-23 -37t-28.5 -19.5t-28 -8t-27 -1q-29 0 -80.5 15.5t-60.5 15.5q-10 0 -14 -15z" />
    <glyph glyph-name="uni1EE1" unicode="&#x1ee1;" horiz-adv-x="667" 
d="M366 546q93 0 159 -34q17 15 17 46q0 9 -2 29q-21 -12 -61 -12q-30 0 -80.5 15.5t-59.5 15.5q-13 0 -17 -15l-3 -10h-119l6 35q7 43 21 69.5t33.5 36.5t31.5 12.5t32 2.5q34 0 84 -17t62 -17q13 0 16 17l3 15h117l-4 -26q-11 -66 -36 -99h156q4 -19 4 -42
q0 -53 -27.5 -94.5t-77.5 -63.5q20 -43 20 -99q0 -67 -19.5 -123.5t-59.5 -102.5t-109.5 -72.5t-161.5 -26.5q-74 0 -128.5 20.5t-83.5 55t-42 73.5t-13 83q0 63 20 119.5t60 104.5t107.5 76t154.5 28zM361 399q-35 0 -58.5 -85.5t-23.5 -138.5q0 -45 27 -45q35 0 57.5 91
t22.5 141q0 37 -25 37z" />
    <glyph glyph-name="uni1EE2" unicode="&#x1ee2;" horiz-adv-x="768" 
d="M447 708q132 0 214 -63q26 14 26 53q0 25 -6 52h186q4 -19 4 -42q0 -59 -35 -104t-95 -64q25 -59 25 -132q0 -61 -13 -118.5t-44 -114t-77.5 -99t-119 -68.5t-163.5 -26q-83 0 -145.5 24t-98 65.5t-52.5 92t-17 108.5q0 81 25 157t73.5 139.5t129.5 101.5t183 38z
M437 536q-34 0 -61 -33.5t-41.5 -82t-21.5 -93t-7 -76.5q0 -97 66 -97q35 0 62.5 34t41 83.5t20 93t6.5 73.5q0 98 -65 98zM393 -223h-207l37 175h207z" />
    <glyph glyph-name="uni1EE3" unicode="&#x1ee3;" horiz-adv-x="667" 
d="M366 546q93 0 159 -34q17 15 17 46q0 25 -6 52h186q4 -19 4 -42q0 -53 -27.5 -94.5t-77.5 -63.5q20 -43 20 -99q0 -67 -19.5 -123.5t-59.5 -102.5t-109.5 -72.5t-161.5 -26.5q-74 0 -128.5 20.5t-83.5 55t-42 73.5t-13 83q0 63 20 119.5t60 104.5t107.5 76t154.5 28z
M361 399q-35 0 -58.5 -85.5t-23.5 -138.5q0 -45 27 -45q35 0 57.5 91t22.5 141q0 37 -25 37zM342 -219h-207l37 175h207z" />
    <glyph glyph-name="uni1EE4" unicode="&#x1ee4;" horiz-adv-x="742" 
d="M138 690h263l-96 -451q-18 -80 46 -80q20 0 33 6t21.5 22.5t10.5 22t9 29.5l96 451h265l-87 -407q-18 -80 -41.5 -132t-65.5 -91.5t-106.5 -57t-158.5 -17.5q-176 0 -241.5 75t-34.5 224zM390 -227h-207l37 175h207z" />
    <glyph glyph-name="uni1EE5" unicode="&#x1ee5;" horiz-adv-x="648" 
d="M662 532l-76 -360q-25 -118 -33 -172h-250q-2 15 3 47q-35 -32 -66.5 -46.5t-85.5 -14.5q-87 0 -117 55t-9 153l71 338h254l-69 -327q-6 -25 -2.5 -36.5t18.5 -11.5q29 0 40 58l67 317h255zM353 -213h-207l37 175h207z" />
    <glyph glyph-name="uni1EE6" unicode="&#x1ee6;" horiz-adv-x="742" 
d="M138 690h263l-96 -451q-18 -80 46 -80q20 0 33 6t21.5 22.5t10.5 22t9 29.5l96 451h265l-87 -407q-18 -80 -41.5 -132t-65.5 -91.5t-106.5 -57t-158.5 -17.5q-176 0 -241.5 75t-34.5 224zM529 717h-156q43 36 43 55q0 15 -20 15q-16 0 -39 -7l-14 108q64 32 143 32
q58 0 87 -24t29 -63q0 -64 -73 -116z" />
    <glyph glyph-name="uni1EE7" unicode="&#x1ee7;" horiz-adv-x="648" 
d="M662 532l-76 -360q-25 -118 -33 -172h-250q-2 15 3 47q-35 -32 -66.5 -46.5t-85.5 -14.5q-87 0 -117 55t-9 153l71 338h254l-69 -327q-6 -25 -2.5 -36.5t18.5 -11.5q29 0 40 58l67 317h255zM462 574h-156q43 36 43 55q0 15 -20 15q-16 0 -39 -7l-14 108q64 32 143 32
q58 0 87 -24t29 -63q0 -64 -73 -116z" />
    <glyph glyph-name="uni1EE8" unicode="&#x1ee8;" horiz-adv-x="742" 
d="M138 690h263l-96 -451q-18 -80 46 -80q20 0 33 6t21.5 22.5t10.5 22t9 29.5l96 451h184q29 12 29 54q0 25 -6 52h186q4 -19 4 -42q0 -65 -42 -112.5t-114 -61.5l-63 -297q-18 -80 -41.5 -132t-65.5 -91.5t-106.5 -57t-158.5 -17.5q-176 0 -241.5 75t-34.5 224zM478 865
h269l-204 -131h-206z" />
    <glyph glyph-name="uni1EE9" unicode="&#x1ee9;" horiz-adv-x="648" 
d="M306 47q-35 -32 -66.5 -46.5t-85.5 -14.5q-87 0 -117 55t-9 153l71 338h254l-69 -327q-6 -25 -2.5 -36.5t18.5 -11.5q29 0 40 58l67 317h121q45 5 45 58q0 25 -6 52h186q4 -19 4 -42q0 -56 -30.5 -99t-84.5 -63l-56 -266q-25 -118 -33 -172h-250q-2 15 3 47zM417 731h257
l-224 -151h-192z" />
    <glyph glyph-name="uni1EEA" unicode="&#x1eea;" horiz-adv-x="742" 
d="M138 690h263l-96 -451q-18 -80 46 -80q20 0 33 6t21.5 22.5t10.5 22t9 29.5l96 451h184q29 12 29 54q0 25 -6 52h186q4 -19 4 -42q0 -65 -42 -112.5t-114 -61.5l-63 -297q-18 -80 -41.5 -132t-65.5 -91.5t-106.5 -57t-158.5 -17.5q-176 0 -241.5 75t-34.5 224zM208 865
h265l109 -131h-201z" />
    <glyph glyph-name="uni1EEB" unicode="&#x1eeb;" horiz-adv-x="648" 
d="M306 47q-35 -32 -66.5 -46.5t-85.5 -14.5q-87 0 -117 55t-9 153l71 338h254l-69 -327q-6 -25 -2.5 -36.5t18.5 -11.5q29 0 40 58l67 317h121q45 5 45 58q0 25 -6 52h186q4 -19 4 -42q0 -56 -30.5 -99t-84.5 -63l-56 -266q-25 -118 -33 -172h-250q-2 15 3 47zM154 731h237
l107 -151h-184z" />
    <glyph glyph-name="uni1EEC" unicode="&#x1eec;" horiz-adv-x="742" 
d="M138 690h263l-96 -451q-18 -80 46 -80q20 0 33 6t21.5 22.5t10.5 22t9 29.5l96 451h184q29 12 29 54q0 25 -6 52h186q4 -19 4 -42q0 -65 -42 -112.5t-114 -61.5l-63 -297q-18 -80 -41.5 -132t-65.5 -91.5t-106.5 -57t-158.5 -17.5q-176 0 -241.5 75t-34.5 224zM539 724
h-156q43 36 43 55q0 15 -20 15q-16 0 -39 -7l-14 108q64 32 143 32q58 0 87 -24t29 -63q0 -64 -73 -116z" />
    <glyph glyph-name="uni1EED" unicode="&#x1eed;" horiz-adv-x="648" 
d="M306 47q-35 -32 -66.5 -46.5t-85.5 -14.5q-87 0 -117 55t-9 153l71 338h254l-69 -327q-6 -25 -2.5 -36.5t18.5 -11.5q29 0 40 58l67 317h121q45 5 45 58q0 25 -6 52h186q4 -19 4 -42q0 -56 -30.5 -99t-84.5 -63l-56 -266q-25 -118 -33 -172h-250q-2 15 3 47zM452 574
h-156q43 36 43 55q0 15 -20 15q-16 0 -39 -7l-14 108q64 32 143 32q58 0 87 -24t29 -63q0 -64 -73 -116z" />
    <glyph glyph-name="uni1EEE" unicode="&#x1eee;" horiz-adv-x="742" 
d="M138 690h263l-96 -451q-18 -80 46 -80q20 0 33 6t21.5 22.5t10.5 22t9 29.5l96 451h184q29 12 29 54q0 25 -6 52h186q4 -19 4 -42q0 -65 -42 -112.5t-114 -61.5l-63 -297q-18 -80 -41.5 -132t-65.5 -91.5t-106.5 -57t-158.5 -17.5q-176 0 -241.5 75t-34.5 224zM396 732
h-119l6 37q6 33 17.5 56.5t24 35t29.5 18t27.5 7.5t25.5 1q34 0 80.5 -16.5t59.5 -16.5q12 0 16 19l3 13h117l-6 -36q-6 -34 -17.5 -58.5t-23 -37t-28.5 -19.5t-28 -8t-27 -1q-29 0 -80.5 15.5t-60.5 15.5q-10 0 -14 -15z" />
    <glyph glyph-name="uni1EEF" unicode="&#x1eef;" horiz-adv-x="648" 
d="M315 576h-119l6 35q7 43 21 69.5t33.5 36.5t31.5 12.5t32 2.5q33 0 83 -17t63 -17t16 17l3 15h117l-4 -26q-6 -40 -16 -62h171q4 -19 4 -42q0 -56 -30.5 -99t-84.5 -63l-56 -266q-25 -118 -33 -172h-250q-2 15 3 47q-35 -32 -66.5 -46.5t-85.5 -14.5q-87 0 -117 55
t-9 153l71 338h254l-69 -327q-6 -25 -2.5 -36.5t18.5 -11.5q29 0 40 58l67 317h121q45 5 45 58q0 9 -2 29q-13 -23 -32.5 -34.5t-31.5 -13t-32 -1.5q-30 0 -80.5 15.5t-59.5 15.5q-13 0 -17 -15z" />
    <glyph glyph-name="uni1EF0" unicode="&#x1ef0;" horiz-adv-x="742" 
d="M138 690h263l-96 -451q-18 -80 46 -80q20 0 33 6t21.5 22.5t10.5 22t9 29.5l96 451h184q29 12 29 54q0 25 -6 52h186q4 -19 4 -42q0 -65 -42 -112.5t-114 -61.5l-63 -297q-18 -80 -41.5 -132t-65.5 -91.5t-106.5 -57t-158.5 -17.5q-176 0 -241.5 75t-34.5 224zM381 -233
h-207l37 175h207z" />
    <glyph glyph-name="uni1EF1" unicode="&#x1ef1;" horiz-adv-x="648" 
d="M306 47q-35 -32 -66.5 -46.5t-85.5 -14.5q-87 0 -117 55t-9 153l71 338h254l-69 -327q-6 -25 -2.5 -36.5t18.5 -11.5q29 0 40 58l67 317h121q45 5 45 58q0 25 -6 52h186q4 -19 4 -42q0 -56 -30.5 -99t-84.5 -63l-56 -266q-25 -118 -33 -172h-250q-2 15 3 47zM326 -213
h-207l37 175h207z" />
    <glyph glyph-name="Ygrave" unicode="&#x1ef2;" horiz-adv-x="649" 
d="M401 0h-267l52 240q3 17 -2 32l-137 418h275q18 -110 36 -271q104 202 141 271h285l-323 -438q-10 -14 -13 -31zM153 865h265l109 -131h-201z" />
    <glyph glyph-name="ygrave" unicode="&#x1ef3;" horiz-adv-x="588" 
d="M38 532h254q-9 -239 -16 -333h8q63 192 113 333h250l-212 -431q-39 -80 -65.5 -125t-56.5 -82.5t-64 -53t-76 -23.5t-106 -8q-54 0 -98 6l36 169q14 -2 31 -2q47 0 59 17zM124 731h237l107 -151h-184z" />
    <glyph glyph-name="uni1EF4" unicode="&#x1ef4;" horiz-adv-x="649" 
d="M401 0h-267l52 240q3 17 -2 32l-137 418h275q18 -110 36 -271q104 202 141 271h285l-323 -438q-10 -14 -13 -31zM330 -213h-207l37 175h207z" />
    <glyph glyph-name="uni1EF5" unicode="&#x1ef5;" horiz-adv-x="588" 
d="M38 532h254q-9 -239 -16 -333h8q63 192 113 333h250l-212 -431q-39 -80 -65.5 -125t-56.5 -82.5t-64 -53t-76 -23.5t-106 -8q-54 0 -98 6l36 169q14 -2 31 -2q47 0 59 17zM555 -203h-207l37 175h207z" />
    <glyph glyph-name="uni1EF6" unicode="&#x1ef6;" horiz-adv-x="649" 
d="M401 0h-267l52 240q3 17 -2 32l-137 418h275q18 -110 36 -271q104 202 141 271h285l-323 -438q-10 -14 -13 -31zM482 724h-156q43 36 43 55q0 15 -20 15q-16 0 -39 -7l-14 108q64 32 143 32q58 0 87 -24t29 -63q0 -64 -73 -116z" />
    <glyph glyph-name="uni1EF7" unicode="&#x1ef7;" horiz-adv-x="588" 
d="M38 532h254q-9 -239 -16 -333h8q63 192 113 333h250l-212 -431q-39 -80 -65.5 -125t-56.5 -82.5t-64 -53t-76 -23.5t-106 -8q-54 0 -98 6l36 169q14 -2 31 -2q47 0 59 17zM420 565h-156q43 36 43 55q0 15 -20 15q-16 0 -39 -7l-14 108q64 32 143 32q58 0 87 -24t29 -63
q0 -64 -73 -116z" />
    <glyph glyph-name="uni1EF8" unicode="&#x1ef8;" horiz-adv-x="649" 
d="M401 0h-267l52 240q3 17 -2 32l-137 418h275q18 -110 36 -271q104 202 141 271h285l-323 -438q-10 -14 -13 -31zM349 738h-119l6 37q6 33 17.5 56.5t24 35t29.5 18t27.5 7.5t25.5 1q34 0 81 -16.5t59 -16.5t16 19l3 13h117l-6 -36q-6 -34 -17.5 -58.5t-23 -37
t-28.5 -19.5t-28 -8t-27 -1q-29 0 -80.5 15.5t-60.5 15.5q-10 0 -14 -15z" />
    <glyph glyph-name="uni1EF9" unicode="&#x1ef9;" horiz-adv-x="588" 
d="M38 532h254q-9 -239 -16 -333h8q63 192 113 333h250l-212 -431q-39 -80 -65.5 -125t-56.5 -82.5t-64 -53t-76 -23.5t-106 -8q-54 0 -98 6l36 169q14 -2 31 -2q47 0 59 17zM279 574h-119l6 35q7 43 21 69.5t33.5 36.5t31.5 12.5t32 2.5q34 0 83.5 -17t62.5 -17t16 17l3 15
h117l-4 -26q-7 -47 -21.5 -77t-34.5 -41t-33 -13.5t-34 -2.5q-30 0 -80.5 15.5t-59.5 15.5q-13 0 -17 -15z" />
    <glyph glyph-name="uni2007" unicode="&#x2007;" horiz-adv-x="650" 
 />
    <glyph glyph-name="uni2010" unicode="&#x2010;" horiz-adv-x="364" 
d="M49 351h304l-37 -174h-304z" />
    <glyph glyph-name="figuredash" unicode="&#x2012;" horiz-adv-x="650" 
d="M138 426h413l-39 -184h-413z" />
    <glyph glyph-name="endash" unicode="&#x2013;" horiz-adv-x="444" 
d="M49 351h384l-37 -174h-384z" />
    <glyph glyph-name="emdash" unicode="&#x2014;" horiz-adv-x="779" 
d="M49 351h719l-37 -174h-719z" />
    <glyph glyph-name="uni2015" unicode="&#x2015;" horiz-adv-x="779" 
d="M49 351h719l-37 -174h-719z" />
    <glyph glyph-name="quoteleft" unicode="&#x2018;" horiz-adv-x="280" 
d="M206 716h161q-72 -155 -106 -313h-204q20 80 60.5 167t88.5 146z" />
    <glyph glyph-name="quoteright" unicode="&#x2019;" horiz-adv-x="280" 
d="M206 403h-161q72 155 106 313h204q-20 -80 -60.5 -167t-88.5 -146z" />
    <glyph glyph-name="quotesinglbase" unicode="&#x201a;" horiz-adv-x="289" 
d="M97 -95h-161q72 155 106 313h204q-20 -80 -60.5 -167t-88.5 -146z" />
    <glyph glyph-name="quotedblleft" unicode="&#x201c;" horiz-adv-x="490" 
d="M423 716h153q-57 -113 -105 -313h-188q19 77 58.5 166.5t81.5 146.5zM193 716h153q-61 -129 -105 -313h-188q20 78 59.5 168.5t80.5 144.5z" />
    <glyph glyph-name="quotedblright" unicode="&#x201d;" horiz-adv-x="490" 
d="M197 403h-153q57 113 105 313h188q-19 -77 -58.5 -166.5t-81.5 -146.5zM427 403h-153q61 129 105 313h188q-20 -78 -59.5 -168.5t-80.5 -144.5z" />
    <glyph glyph-name="quotedblbase" unicode="&#x201e;" horiz-adv-x="499" 
d="M88 -95h-153q57 113 105 313h188q-19 -77 -58.5 -166.5t-81.5 -146.5zM318 -95h-153q61 129 105 313h188q-20 -78 -59.5 -168.5t-80.5 -144.5z" />
    <glyph glyph-name="dagger" unicode="&#x2020;" horiz-adv-x="469" 
d="M224 639h170l-45 -171l139 9l-34 -158l-134 11l-75 -394h-170l96 394l-141 -11l34 158l136 -9z" />
    <glyph glyph-name="daggerdbl" unicode="&#x2021;" horiz-adv-x="469" 
d="M149 228l25 120l-140 -11l34 160l136 -12l20 154h170l-41 -154l139 12l-34 -160l-135 11l-25 -120l139 9l-33 -154l-136 6l-23 -153h-170l44 153l-139 -6l33 154z" />
    <glyph glyph-name="bullet" unicode="&#x2022;" horiz-adv-x="398" 
d="M76 415h312l-69 -324h-312z" />
    <glyph glyph-name="ellipsis" unicode="&#x2026;" horiz-adv-x="1066" 
d="M209 1h-215l47 226h215zM566 1h-215l47 226h215zM922 1h-215l47 226h215z" />
    <glyph glyph-name="perthousand" unicode="&#x2030;" horiz-adv-x="1380" 
d="M1183 382q82 0 126.5 -39t44.5 -111q0 -99 -63.5 -170.5t-172.5 -71.5q-86 0 -128 40.5t-42 114.5q0 39 13.5 79t40 76.5t73.5 59t108 22.5zM1175 277q-30 0 -46.5 -52t-16.5 -93q0 -40 22 -40q32 0 47.5 56t15.5 98q0 31 -22 31zM305 674q82 0 126.5 -39t44.5 -111
q0 -99 -63.5 -170.5t-172.5 -71.5q-86 0 -128 40.5t-42 114.5q0 39 13.5 79t40 76.5t73.5 59t108 22.5zM297 569q-30 0 -46.5 -52t-16.5 -93q0 -40 22 -40q32 0 47.5 56t15.5 98q0 31 -22 31zM263 0h-107l572 662h102zM752 382q82 0 126.5 -39t44.5 -111q0 -99 -63.5 -170.5
t-172.5 -71.5q-86 0 -128 40.5t-42 114.5q0 39 13.5 79t40 76.5t73.5 59t108 22.5zM744 277q-30 0 -46.5 -52t-16.5 -93q0 -40 22 -40q32 0 47.5 56t15.5 98q0 31 -22 31z" />
    <glyph glyph-name="uni2032" unicode="&#x2032;" horiz-adv-x="346" 
d="M232 355h-162l123 361h200z" />
    <glyph glyph-name="uni2033" unicode="&#x2033;" horiz-adv-x="560" 
d="M215 355h-145l122 364h185zM445 355h-143l121 364h185z" />
    <glyph glyph-name="guilsinglleft" unicode="&#x2039;" horiz-adv-x="368" 
d="M388 468l-192 -204l105 -202h-165l-111 202l197 204h166z" />
    <glyph glyph-name="guilsinglright" unicode="&#x203a;" horiz-adv-x="368" 
d="M-19 62l192 204l-105 202h165l111 -202l-197 -204h-166z" />
    <glyph glyph-name="fraction" unicode="&#x2044;" horiz-adv-x="193" 
d="M-88 0h-110l523 663h109z" />
    <glyph glyph-name="zero.sups" unicode="&#x2070;" horiz-adv-x="460" 
d="M277 836q100 0 146 -49.5t46 -116.5q0 -111 -64 -178t-184 -67q-98 0 -142 49.5t-44 116.5q0 108 66 176.5t176 68.5zM273 724q-15 0 -24 -20t-21 -72q-11 -51 -10 -73t16 -22q13 0 22 21.5t20 72.5q12 53 11.5 73t-14.5 20z" />
    <glyph glyph-name="four.sups" unicode="&#x2074;" horiz-adv-x="443" 
d="M355 431h-167l15 73h-182l27 126l160 199h231l-43 -203h52l-37 -122h-41zM189 626h40l2 11q7 33 20 78q-11 -14 -31 -44.5t-31 -44.5z" />
    <glyph glyph-name="five.sups" unicode="&#x2075;" horiz-adv-x="440" 
d="M469 829l-46 -116h-175l-10 -32q26 12 74 12q59 0 91.5 -28.5t32.5 -76.5q0 -77 -61.5 -120t-157.5 -43q-100 0 -144 40t-38 100h160q-4 -30 17 -30q14 0 22 12.5t8 28.5q0 24 -20 24q-15 0 -25 -15l-152 11q41 102 77 233h347z" />
    <glyph glyph-name="six.sups" unicode="&#x2076;" horiz-adv-x="447" 
d="M455 705h-167q0 22 -17 22q-23 0 -35 -47q34 16 80 16q62 0 96.5 -27t34.5 -77q0 -74 -59.5 -120.5t-164.5 -46.5q-90 0 -139.5 46.5t-49.5 122.5q0 40 11.5 79.5t37 77.5t73.5 61.5t113 23.5q55 0 94 -13t58 -34t27 -42t7 -42zM228 533q18 0 28 17t10 37q0 23 -22 23
q-17 0 -26.5 -15.5t-9.5 -34.5q0 -27 20 -27z" />
    <glyph glyph-name="seven.sups" unicode="&#x2077;" horiz-adv-x="395" 
d="M82 829h354l-25 -119q-125 -117 -180 -279h-202q28 83 83 157t111 116h-167z" />
    <glyph glyph-name="eight.sups" unicode="&#x2078;" horiz-adv-x="441" 
d="M215 425q-95 0 -146.5 32t-51.5 83q0 69 89 97q-39 29 -39 69q0 63 57 96.5t145 33.5q94 0 137.5 -31.5t43.5 -74.5q0 -65 -71 -91q54 -25 54 -81q0 -48 -36 -79.5t-82.5 -42.5t-99.5 -11zM259 733q-15 0 -24 -10t-9 -25q0 -23 23 -23q15 0 24 10t9 26q0 22 -23 22z
M226 526q14 0 23.5 11t9.5 28q0 23 -23 23q-14 0 -23.5 -11.5t-9.5 -27.5q0 -23 23 -23z" />
    <glyph glyph-name="nine.sups" unicode="&#x2079;" horiz-adv-x="444" 
d="M26 556h174q0 -22 22 -22q26 0 36 48q-23 -16 -76 -16q-56 0 -96.5 28.5t-40.5 80.5q0 74 61.5 117.5t149.5 43.5q93 0 147 -44.5t54 -126.5q0 -45 -13 -86t-39.5 -76.5t-75 -56.5t-113.5 -21q-88 0 -138.5 35.5t-51.5 95.5zM264 728q-16 0 -26.5 -15.5t-10.5 -34.5
q0 -26 24 -26q17 0 25.5 16t8.5 37q0 23 -21 23z" />
    <glyph glyph-name="parenleft.sups" unicode="&#x207d;" horiz-adv-x="277" 
d="M189 862h133q-66 -78 -99 -153.5t-33 -182.5q0 -92 27 -159h-133q-14 22 -26 74t-12 115q0 89 38.5 168.5t104.5 137.5z" />
    <glyph glyph-name="parenright.sups" unicode="&#x207e;" horiz-adv-x="277" 
d="M126 367h-133q66 78 99 153.5t33 182.5q0 91 -27 159h133q14 -22 26 -74t12 -115q0 -89 -38.5 -168.5t-104.5 -137.5z" />
    <glyph glyph-name="n.sups" unicode="&#x207f;" horiz-adv-x="442" 
d="M33 264l49 230q8 37 12.5 60t6 32t2.5 13h167q2 -12 -3 -31q49 38 102 38q59 0 82 -37t10 -100l-43 -205h-172l40 190q6 27 -13 27q-23 0 -30 -32l-39 -185h-171z" />
    <glyph glyph-name="zero.subs" unicode="&#x2080;" horiz-adv-x="460" 
d="M150 235q100 0 146 -49.5t46 -116.5q0 -111 -64 -178t-184 -67q-98 0 -142 49.5t-44 116.5q0 108 66 176.5t176 68.5zM146 123q-15 0 -24 -20t-21 -72q-11 -51 -10 -73t16 -22q13 0 22 21.5t20 72.5q12 52 11.5 72.5t-14.5 20.5z" />
    <glyph glyph-name="one.subs" unicode="&#x2081;" horiz-adv-x="300" 
d="M111 -169h-186l49 232q-25 2 -46 9l24 115q84 3 125 41h118z" />
    <glyph glyph-name="two.subs" unicode="&#x2082;" horiz-adv-x="421" 
d="M241 -169h-358l3 23q7 57 38 100t114 83q12 6 32 15.5t29.5 14.5t17.5 14.5t8 21.5q0 21 -16 21q-13 0 -19.5 -11t-12.5 -38h-154q12 72 62 116t147 44q92 0 134 -36t42 -84q0 -50 -26 -80t-86 -53q-57 -22 -75 -38h166z" />
    <glyph glyph-name="three.subs" unicode="&#x2083;" horiz-adv-x="420" 
d="M-101 -35h161q-2 -38 25 -38q12 0 19 9.5t7 23.5q0 30 -33 30h-31l20 92h29q35 0 35 30q0 20 -19 20q-25 0 -32 -33h-149q4 20 12 38t28 43t61 40t98 15q89 0 133.5 -30.5t44.5 -77.5q0 -58 -69 -86q10 -4 20.5 -11t22.5 -25t12 -41q0 -66 -58.5 -102.5t-145.5 -36.5
q-58 0 -99 14t-60 37t-26 44.5t-6 44.5z" />
    <glyph glyph-name="four.subs" unicode="&#x2084;" horiz-adv-x="443" 
d="M228 -170h-167l15 73h-182l27 126l160 199h231l-43 -203h52l-37 -122h-41zM62 25h40l2 11q7 33 20 78q-11 -14 -31 -44.5t-31 -44.5z" />
    <glyph glyph-name="five.subs" unicode="&#x2085;" horiz-adv-x="440" 
d="M342 228l-46 -116h-175l-10 -32q26 12 74 12q59 0 91.5 -28.5t32.5 -76.5q0 -77 -61.5 -120t-157.5 -43q-100 0 -144 40t-38 100h160q-4 -30 17 -30q14 0 22 12.5t8 28.5q0 24 -20 24q-15 0 -25 -15l-152 11q41 102 77 233h347z" />
    <glyph glyph-name="six.subs" unicode="&#x2086;" horiz-adv-x="447" 
d="M328 104h-167q0 22 -17 22q-23 0 -35 -47q34 16 80 16q62 0 96.5 -27t34.5 -77q0 -74 -59.5 -120.5t-164.5 -46.5q-90 0 -139.5 46.5t-49.5 122.5q0 40 11.5 79.5t37 77.5t73.5 61.5t113 23.5q55 0 94 -13t58 -34t27 -42t7 -42zM101 -68q18 0 28 17t10 37q0 23 -22 23
q-17 0 -26.5 -15.5t-9.5 -34.5q0 -27 20 -27z" />
    <glyph glyph-name="seven.subs" unicode="&#x2087;" horiz-adv-x="395" 
d="M-45 228h354l-25 -119q-125 -117 -180 -279h-202q28 83 83 157t111 116h-167z" />
    <glyph glyph-name="eight.subs" unicode="&#x2088;" horiz-adv-x="441" 
d="M88 -176q-95 0 -146.5 32t-51.5 83q0 69 89 97q-39 29 -39 69q0 63 57 96.5t145 33.5q94 0 137.5 -31.5t43.5 -74.5q0 -65 -71 -91q54 -25 54 -81q0 -48 -36 -79.5t-82.5 -42.5t-99.5 -11zM132 132q-15 0 -24 -10t-9 -25q0 -23 23 -23q15 0 24 10t9 26q0 22 -23 22z
M99 -75q14 0 23.5 11t9.5 28q0 23 -23 23q-14 0 -23.5 -11.5t-9.5 -27.5q0 -23 23 -23z" />
    <glyph glyph-name="nine.subs" unicode="&#x2089;" horiz-adv-x="444" 
d="M-101 -45h174q0 -22 22 -22q26 0 36 48q-23 -16 -76 -16q-56 0 -96.5 28.5t-40.5 80.5q0 74 61.5 117.5t149.5 43.5q93 0 147 -44.5t54 -126.5q0 -45 -13 -86t-39.5 -76.5t-75 -56.5t-113.5 -21q-88 0 -138.5 35.5t-51.5 95.5zM137 127q-16 0 -26.5 -15.5t-10.5 -34.5
q0 -26 24 -26q17 0 25.5 16t8.5 37q0 23 -21 23z" />
    <glyph glyph-name="parenleft.subs" unicode="&#x208d;" horiz-adv-x="277" 
d="M62 261h133q-66 -78 -99 -153.5t-33 -182.5q0 -91 27 -159h-133q-14 22 -26 74t-12 115q0 89 38.5 168.5t104.5 137.5z" />
    <glyph glyph-name="parenright.subs" unicode="&#x208e;" horiz-adv-x="277" 
d="M-1 -234h-133q66 78 99 153.5t33 182.5q0 92 -27 159h133q14 -22 26 -74t12 -115q0 -89 -38.5 -168.5t-104.5 -137.5z" />
    <glyph glyph-name="colonmonetary" unicode="&#x20a1;" horiz-adv-x="635" 
d="M400 528q-46 0 -78.5 -119.5t-32.5 -210.5q0 -67 36 -67q42 0 66 93h223q-24 -92 -72 -146t-129 -75l-19 -86h-97l16 72h-26h-11l-16 -72h-99l20 89q-67 26 -103.5 85t-36.5 145q0 100 28 186t93 152.5t159 86.5l14 63h99l-13 -55q34 -3 36 -3l13 58h97l-18 -82
q114 -53 103 -208h-218q8 54 -1.5 74t-32.5 20z" />
    <glyph glyph-name="franc" unicode="&#x20a3;" horiz-adv-x="599" 
d="M17 0l17 82h-59l23 110h60l99 470h493l-37 -168h-249l-17 -81h235l-35 -160h-234l-13 -61h87l-22 -110h-88l-18 -82h-242z" />
    <glyph glyph-name="lira" unicode="&#x20a4;" horiz-adv-x="618" 
d="M454 340h-107q-1 -10 -3 -28h104l-18 -81h-107q-19 -39 -55 -61h316l-62 -170h-545l31 145q70 21 86 86h-85l17 81h79q1 10 3 28h-76l18 82h64v4q8 120 77 184t194 64q128 0 184 -56.5t43 -166.5h-199q9 71 -23 71q-23 0 -28 -37q-1 -8 -3 -29t-4 -34h117z" />
    <glyph glyph-name="uni20A6" unicode="&#x20a6;" horiz-adv-x="631" 
d="M262 468l-5 -30h16l4 30h-15zM355 219h15q1 9 5 29h-16zM171 0h-174l52 248h-47l16 80h48l6 29h-47l17 81h47l47 224h280l-31 -224h23q4 19 10 50.5t10.5 53t7.5 36.5l18 84h174l-47 -224h53l-17 -81h-54l-6 -29h53l-17 -80h-53l-52 -248h-270l31 248h-27
q-24 -114 -34 -161zM388 328q1 5 3 14.5t3 14.5h-20l-4 -29h18zM259 328l4 29h-20q-2 -9 -6 -29h22z" />
    <glyph glyph-name="peseta" unicode="&#x20a7;" horiz-adv-x="668" 
d="M11 0l81 382h-53l18 83h52l42 197h270q97 0 161 -53t68 -144h51l-18 -83h-40q-39 -204 -323 -204h-33l-37 -178h-239zM363 533l-14 -68h77q0 68 -51 68h-12zM316 310h18q60 0 82 72h-85z" />
    <glyph glyph-name="dong" unicode="&#x20ab;" horiz-adv-x="639" 
d="M-9 -51h518l-23 -114h-518zM370 428l15 71h-139l25 114h139l11 52h237l-11 -52h45l-26 -114h-44l-73 -343q-21 -99 -25 -156h-201q-10 14 -10 40q-48 -45 -137 -45q-73 0 -117.5 48.5t-44.5 134.5q0 116 71.5 194t192.5 78q60 0 92 -22zM313 299q-25 0 -39 -36.5
t-14 -63.5q0 -43 24 -43q33 0 47 67q9 41 5.5 58.5t-23.5 17.5z" />
    <glyph glyph-name="Euro" unicode="&#x20ac;" horiz-adv-x="635" 
d="M394 192h210q-34 -110 -101 -158.5t-192 -48.5q-113 0 -175.5 64t-62.5 191h-58l16 80h47q2 18 4 29h-44l17 82h47q37 112 118 178.5t205 66.5q57 0 100.5 -13.5t68 -34.5t39 -49.5t18.5 -53.5t2 -52h-206q7 60 -33 60q-42 0 -74 -102h137l-17 -82h-139q-4 -21 -5 -29
h137l-17 -80h-130q-2 -34 -2 -43q0 -66 36 -66q20 0 32.5 14.5t21.5 46.5z" />
    <glyph glyph-name="uni20B1" unicode="&#x20b1;" horiz-adv-x="648" 
d="M9 0l71 334h-42l15 67h41l5 23h-42l15 68h41l36 170h261q90 0 152 -43.5t75 -126.5h41l-14 -68h-25q0 -9 -2 -23h23l-15 -67h-22q-59 -176 -309 -176h-43l-33 -158h-229zM351 533l-9 -41h75q-9 41 -45 41h-21zM300 290h23q45 0 70 44h-84zM416 401q2 16 2 23h-90l-5 -23
h93z" />
    <glyph glyph-name="uni20B2" unicode="&#x20b2;" horiz-adv-x="649" 
d="M650 443h-215q5 42 -5.5 58t-33.5 16q-48 0 -81.5 -101.5t-33.5 -178.5q0 -44 8 -66.5t30 -22.5q12 0 27 5l44 201h232l-66 -314q-101 -33 -187 -43l-16 -77h-157l16 77q-88 16 -135 79t-47 165q0 161 85.5 283t239.5 141l13 59h157l-15 -68q151 -39 140 -213z" />
    <glyph glyph-name="uni20B4" unicode="&#x20b4;" horiz-adv-x="625" 
d="M312 477h-221q7 30 16 53t30.5 52t51 48t80 32.5t115.5 13.5q117 0 181 -47.5t64 -127.5q0 -40 -13 -74h22l-16 -74h-67q-23 -18 -43 -29h93l-16 -72h-206q-59 -32 -79.5 -50.5t-20.5 -47.5q0 -25 20 -25q17 0 28 16t22 56h224q-26 -121 -101 -168.5t-204 -47.5
q-110 0 -178 44t-68 136q0 48 22 87h-18l16 72h71q25 16 47 29h-98l16 74h227q69 42 69 82q0 24 -20 24q-31 0 -46 -56z" />
    <glyph glyph-name="uni20B5" unicode="&#x20b5;" horiz-adv-x="635" 
d="M400 528q-46 0 -78.5 -119.5t-32.5 -210.5q0 -67 36 -67q42 0 66 93h223q-27 -104 -85 -160t-161 -70l-16 -74h-157l17 77q-82 20 -126.5 81.5t-44.5 157.5q0 78 18.5 149t55 131.5t98 100.5t141.5 49l13 58h157l-15 -67q156 -43 143 -223h-218q8 54 -1.5 74t-32.5 20z
" />
    <glyph glyph-name="uni20B9" unicode="&#x20b9;" horiz-adv-x="624" 
d="M614 393h-76q-20 -102 -133 -144l126 -249h-272l-99 217h-119l31 138h102q74 0 101 38h-194l22 106h176q-18 31 -66 31h-105l29 132h533l-22 -106h-135q17 -26 24 -57h100z" />
    <glyph glyph-name="uni20BA" unicode="&#x20ba;" horiz-adv-x="676" 
d="M481 342l-108 -30l-31 -142q48 0 82.5 32t48.5 92h189q-5 -29 -15.5 -60t-37.5 -75t-63.5 -77.5t-99.5 -57.5t-141 -24h-249l50 237l-91 -25l26 120l91 25l8 41l-91 -25l26 120l91 25l30 144h252l-15 -69l107 30l-25 -120l-108 -30l-9 -41l108 30z" />
    <glyph glyph-name="uni20BD" unicode="&#x20bd;" horiz-adv-x="711" 
d="M33 0l21 100h-57l24 110h57l10 49h-57l26 125h58l59 278h321q108 0 168.5 -48.5t60.5 -132.5q0 -101 -69.5 -161.5t-211.5 -60.5h-115l-10 -49h163l-24 -110h-163l-21 -100h-240zM385 528l-31 -144h51q35 0 55 25t20 59q0 60 -52 60h-43z" />
    <glyph glyph-name="uni2113" unicode="&#x2113;" horiz-adv-x="583" 
d="M362 523l-18 -82q16 10 35 34.5t26 53.5q8 37 -12 37q-22 0 -31 -43zM367 226h177q-24 -121 -89.5 -178.5t-198.5 -57.5q-107 0 -155 39.5t-55 94.5q0 1 -0.5 4.5t-0.5 4.5q-5 -2 -29.5 -11t-33.5 -11l35 169q28 13 52 26l37 172q28 130 96.5 184t177.5 54
q95 0 148 -43.5t53 -127.5q0 -57 -22 -104.5t-66.5 -85.5t-86.5 -63.5t-106 -56.5l-6 -29q-10 -50 19 -50q21 0 32.5 15.5t21.5 54.5z" />
    <glyph glyph-name="uni2116" unicode="&#x2116;" horiz-adv-x="1108" 
d="M217 0h-216l140 662h304q-4 -229 -14 -366h8q20 143 54 303l13 63h218l-139 -662h-294q1 142 10 408h-8q-17 -132 -63 -345zM935 627q83 0 133 -44t50 -121q0 -111 -68 -170.5t-173 -59.5q-82 0 -130 43.5t-48 123.5q0 102 65.5 165t170.5 63zM927 505q-26 0 -40.5 -40.5
t-14.5 -74.5q0 -37 23 -37q27 0 41 43t14 80q0 29 -23 29zM685 193h351l-22 -102h-350z" />
    <glyph glyph-name="uni2117" unicode="&#x2117;" horiz-adv-x="735" 
d="M384 694q141 0 236.5 -95t95.5 -251q0 -150 -96.5 -248t-235.5 -98q-145 0 -241 94t-96 252q0 151 97 248.5t240 97.5zM382 619q-111 0 -182 -72.5t-71 -195.5q0 -118 72 -194t181 -76q111 0 181 68t70 198q0 124 -72 198t-179 74zM242 176v349h178q63 0 106.5 -30
t43.5 -99q0 -63 -45 -94t-111 -31h-35v-95h-137zM378 427v-60h27q14 0 22.5 8.5t8.5 20.5q0 31 -30 31h-28z" />
    <glyph glyph-name="uni2120" unicode="&#x2120;" horiz-adv-x="487" 
d="M75 546l86 4q3 -18 18 -18q12 0 12 8q0 11 -30 16q-50 7 -67.5 25.5t-17.5 44.5q0 72 99 72q94 0 94 -67l-79 -3q-4 15 -18 15q-12 0 -12 -8t21 -11q57 -8 75.5 -25.5t18.5 -48.5q0 -76 -100 -76q-99 0 -100 72zM571 481h-81v46q0 17 6 113h-4l-28 -158h-70l-21 158h-4
q3 -25 3 -112v-47h-78v209h135l7 -87h1l8 87h126v-209z" />
    <glyph glyph-name="trademark" unicode="&#x2122;" horiz-adv-x="492" 
d="M74 690h199v-72h-57v-138h-87v138h-55v72zM567 480h-81v30q0 20 7 129h-4l-27 -157h-72l-19 157h-5q0 -2 1.5 -43.5t1.5 -77.5v-38h-78v210h132l9 -87h3l9 87h123v-210z" />
    <glyph glyph-name="uni2126" unicode="&#x2126;" horiz-adv-x="786" 
d="M455 705q88 0 156 -23.5t106.5 -62t58 -84t19.5 -94.5q0 -180 -182 -263h125l-37 -178h-347l44 209q58 27 85.5 94.5t27.5 140.5q0 87 -67 87q-31 0 -55.5 -22.5t-37 -56t-19 -64.5t-6.5 -56q0 -95 36 -123l-44 -209h-343l37 178h129q-38 35 -61 88t-23 107
q0 147 107 239.5t291 92.5z" />
    <glyph glyph-name="estimated" unicode="&#x212e;" horiz-adv-x="837" 
d="M795 323h-525q-4 0 -4 -4v-187q0 -12 8 -22q54 -63 145 -63q61 0 98 17.5t69 58.5h146q-55 -63 -137.5 -99t-176.5 -36q-162 0 -269.5 100t-107.5 244t111 244t274 100q162 0 265.5 -99t103.5 -245v-9zM570 387v154q0 13 -9 22q-47 53 -142 53q-90 0 -144 -56
q-9 -9 -9 -22v-151q0 -5 4 -5h296q4 0 4 5z" />
    <glyph glyph-name="onethird" unicode="&#x2153;" horiz-adv-x="945" 
d="M218 0h-110l523 663h109zM262 265h-186l49 232q-25 2 -46 9l24 115q84 3 125 41h118zM501 133h161q-2 -38 25 -38q12 0 19 9.5t7 23.5q0 30 -33 30h-31l20 92h29q35 0 35 30q0 20 -19 20q-25 0 -32 -33h-149q4 20 12 38t28 43t61 40t98 15q89 0 133.5 -30.5t44.5 -77.5
q0 -58 -69 -86q10 -4 20.5 -11t22.5 -25t12 -41q0 -66 -58.5 -102.5t-145.5 -36.5q-58 0 -99 14t-60 37t-26 44.5t-6 44.5z" />
    <glyph glyph-name="twothirds" unicode="&#x2154;" horiz-adv-x="1082" 
d="M363 0h-110l523 663h109zM404 265h-358l3 23q7 57 38 100t114 83q12 6 32 15.5t29.5 14.5t17.5 14.5t8 21.5q0 21 -16 21q-13 0 -19.5 -11t-12.5 -38h-154q12 72 62 116t147 44q92 0 134 -36t42 -84q0 -50 -26 -80t-86 -53q-57 -22 -75 -38h166zM639 133h161
q-2 -38 25 -38q12 0 19 9.5t7 23.5q0 30 -33 30h-31l20 92h29q35 0 35 30q0 20 -19 20q-25 0 -32 -33h-149q4 20 12 38t28 43t61 40t98 15q89 0 133.5 -30.5t44.5 -77.5q0 -58 -69 -86q10 -4 20.5 -11t22.5 -25t12 -41q0 -66 -58.5 -102.5t-145.5 -36.5q-58 0 -99 14t-60 37
t-26 44.5t-6 44.5z" />
    <glyph glyph-name="oneeighth" unicode="&#x215b;" horiz-adv-x="952" 
d="M217 0h-110l523 663h109zM256 265h-186l49 232q-25 2 -46 9l24 115q84 3 125 41h118zM680 -7q-95 0 -146.5 32t-51.5 83q0 69 89 97q-39 29 -39 69q0 63 57 96.5t145 33.5q94 0 137.5 -31.5t43.5 -74.5q0 -65 -71 -91q54 -25 54 -81q0 -48 -36 -79.5t-82.5 -42.5
t-99.5 -11zM724 301q-15 0 -24 -10t-9 -25q0 -23 23 -23q15 0 24 10t9 26q0 22 -23 22zM691 94q14 0 23.5 11t9.5 28q0 23 -23 23q-14 0 -23.5 -11.5t-9.5 -27.5q0 -23 23 -23z" />
    <glyph glyph-name="threeeighths" unicode="&#x215c;" horiz-adv-x="1070" 
d="M339 0h-110l523 663h109zM795 -9q-95 0 -146.5 32t-51.5 83q0 69 89 97q-39 29 -39 69q0 63 57 96.5t145 33.5q94 0 137.5 -31.5t43.5 -74.5q0 -65 -71 -91q54 -25 54 -81q0 -48 -36 -79.5t-82.5 -42.5t-99.5 -11zM839 299q-15 0 -24 -10t-9 -25q0 -23 23 -23q15 0 24 10
t9 26q0 22 -23 22zM806 92q14 0 23.5 11t9.5 28q0 23 -23 23q-14 0 -23.5 -11.5t-9.5 -27.5q0 -23 23 -23zM54 399h161q-2 -38 25 -38q12 0 19 9.5t7 23.5q0 30 -33 30h-31l20 92h29q35 0 35 30q0 20 -19 20q-25 0 -32 -33h-149q4 20 12 38t28 43t61 40t98 15
q89 0 133.5 -30.5t44.5 -77.5q0 -58 -69 -86q10 -4 20.5 -11t22.5 -25t12 -41q0 -66 -58.5 -102.5t-145.5 -36.5q-58 0 -99 14t-60 37t-26 44.5t-6 44.5z" />
    <glyph glyph-name="fiveeighths" unicode="&#x215d;" horiz-adv-x="1072" 
d="M341 0h-110l523 663h109zM487 662l-46 -116h-175l-10 -32q26 12 74 12q59 0 91.5 -28.5t32.5 -76.5q0 -77 -61.5 -120t-157.5 -43q-100 0 -144 40t-38 100h160q-4 -30 17 -30q14 0 22 12.5t8 28.5q0 24 -20 24q-15 0 -25 -15l-152 11q41 102 77 233h347zM796 -7
q-95 0 -146.5 32t-51.5 83q0 69 89 97q-39 29 -39 69q0 63 57 96.5t145 33.5q94 0 137.5 -31.5t43.5 -74.5q0 -65 -71 -91q54 -25 54 -81q0 -48 -36 -79.5t-82.5 -42.5t-99.5 -11zM840 301q-15 0 -24 -10t-9 -25q0 -23 23 -23q15 0 24 10t9 26q0 22 -23 22zM807 94
q14 0 23.5 11t9.5 28q0 23 -23 23q-14 0 -23.5 -11.5t-9.5 -27.5q0 -23 23 -23z" />
    <glyph glyph-name="seveneighths" unicode="&#x215e;" horiz-adv-x="972" 
d="M245 0h-110l523 663h109zM701 -7q-95 0 -146.5 32t-51.5 83q0 69 89 97q-39 29 -39 69q0 63 57 96.5t145 33.5q94 0 137.5 -31.5t43.5 -74.5q0 -65 -71 -91q54 -25 54 -81q0 -48 -36 -79.5t-82.5 -42.5t-99.5 -11zM745 301q-15 0 -24 -10t-9 -25q0 -23 23 -23q15 0 24 10
t9 26q0 22 -23 22zM712 94q14 0 23.5 11t9.5 28q0 23 -23 23q-14 0 -23.5 -11.5t-9.5 -27.5q0 -23 23 -23zM113 662h354l-25 -119q-125 -117 -180 -279h-202q28 83 83 157t111 116h-167z" />
    <glyph glyph-name="uni2190" unicode="&#x2190;" horiz-adv-x="809" 
d="M780 240h-442l204 -220l-134 -118l-379 426v2l379 421l134 -123l-204 -213h442v-175z" />
    <glyph glyph-name="arrowup" unicode="&#x2191;" horiz-adv-x="899" 
d="M355 -59v489l-215 -200l-115 134l426 398h2l421 -398l-120 -134l-208 200v-489h-191z" />
    <glyph glyph-name="uni2192" unicode="&#x2192;" horiz-adv-x="809" 
d="M29 413h442l-204 220l134 118l379 -426v-2l-379 -421l-134 123l204 213h-442v175z" />
    <glyph glyph-name="arrowdown" unicode="&#x2193;" horiz-adv-x="899" 
d="M544 762v-489l215 200l115 -134l-426 -398h-2l-421 398l120 134l208 -200v489h191z" />
    <glyph glyph-name="partialdiff" unicode="&#x2202;" horiz-adv-x="646" 
d="M131 533l38 171q16 4 53 4q192 0 301 -93.5t109 -254.5q0 -77 -20 -141.5t-60.5 -117t-111 -82t-163.5 -29.5q-129 0 -195.5 57t-66.5 151q0 119 82.5 183.5t217.5 64.5q48 0 69 -5v2q-1 12 -12 26.5t-33.5 30t-66 25.5t-101.5 10q-22 0 -40 -2zM284 133q31 0 49.5 50.5
t18.5 90.5q0 41 -29 41q-33 0 -51 -44.5t-18 -84.5q0 -53 30 -53z" />
    <glyph glyph-name="uni2206" unicode="&#x2206;" horiz-adv-x="695" 
d="M619 0h-654l30 141l263 549h351l40 -552zM257 182h128q3 261 6 324h-6q-83 -215 -128 -324z" />
    <glyph glyph-name="product" unicode="&#x220f;" horiz-adv-x="743" 
d="M145 690h635l-164 -770h-262l125 585h-112l-125 -585h-261z" />
    <glyph glyph-name="summation" unicode="&#x2211;" horiz-adv-x="610" 
d="M501 -80h-551l31 145l228 239l-126 222l36 164h540l-39 -180h-249l104 -204l-195 -207h285z" />
    <glyph glyph-name="minus" unicode="&#x2212;" horiz-adv-x="617" 
d="M573 183h-529v161h529v-161z" />
    <glyph glyph-name="uni2215" unicode="&#x2215;" horiz-adv-x="193" 
d="M-88 0h-110l523 663h109z" />
    <glyph glyph-name="uni2219" unicode="&#x2219;" horiz-adv-x="274" 
d="M230 201h-215l47 226h215z" />
    <glyph glyph-name="radical" unicode="&#x221a;" horiz-adv-x="650" 
d="M802 852l-475 -990h-110l-88 357l-89 -37l-35 117l269 121q51 -248 53 -276q35 90 326 708h149z" />
    <glyph glyph-name="infinity" unicode="&#x221e;" horiz-adv-x="780" 
d="M204 81q-82 0 -132 55t-50 139q0 80 52 136.5t134 56.5q59 0 99.5 -26.5t84.5 -79.5q44 52 85.5 79t102.5 27q78 0 128 -55.5t50 -137.5q0 -80 -52 -137t-136 -57q-54 0 -96 26t-83 76q-44 -50 -85.5 -76t-101.5 -26zM564 219q25 0 41 15t16 41q0 27 -16 42.5t-41 15.5
q-43 0 -88 -58q48 -56 88 -56zM214 219q48 0 90 53q-24 31 -43.5 46t-44.5 15q-26 0 -42 -15t-16 -43q0 -27 17 -41.5t39 -14.5z" />
    <glyph glyph-name="integral" unicode="&#x222b;" horiz-adv-x="401" 
d="M478 791l-42 -166q-21 7 -53 7q-31 0 -42.5 -31t-21.5 -119q-5 -40 -18 -168.5t-22 -192.5q-6 -44 -11.5 -74t-16.5 -67.5t-27.5 -61.5t-40 -46.5t-58.5 -33t-79 -10.5q-72 0 -113 23l48 168q27 -9 57 -9q24 0 33 20t20 99q9 64 25 218.5t17 164.5q7 64 20.5 111.5
t40 91.5t73 67.5t110.5 23.5q69 0 101 -15z" />
    <glyph glyph-name="approxequal" unicode="&#x2248;" horiz-adv-x="634" 
d="M192 48h-147v33q0 53 13.5 87.5t37.5 50t45.5 20.5t50.5 5q50 0 127 -26.5t98 -26.5q25 0 25 28v17h147v-18q0 -103 -38.5 -141t-105.5 -38q-58 0 -134.5 27t-96.5 27q-22 0 -22 -28v-17zM192 293h-147v33q0 53 13.5 87.5t37.5 50t45.5 20.5t50.5 5q50 0 127 -26.5
t98 -26.5q25 0 25 28v17h147v-18q0 -103 -38.5 -141t-105.5 -38q-58 0 -134.5 27t-96.5 27q-22 0 -22 -28v-17z" />
    <glyph glyph-name="notequal" unicode="&#x2260;" horiz-adv-x="617" 
d="M509 549l-36 -80h100v-161h-172l-39 -88h211v-159h-282l-35 -78h-136l34 78h-110v159h181l39 88h-220v161h291l35 80h139z" />
    <glyph glyph-name="lessequal" unicode="&#x2264;" horiz-adv-x="586" 
d="M44 366v162l493 171v-163l-287 -89l287 -83v-166zM44 162h498v-162h-498v162z" />
    <glyph glyph-name="greaterequal" unicode="&#x2265;" horiz-adv-x="586" 
d="M537 531v-162l-493 -171v163l287 89l-287 83v166zM542 0h-498v162h498v-162z" />
    <glyph glyph-name="uni25A0" unicode="&#x25a0;" horiz-adv-x="468" 
d="M65 95v333h338v-333h-338z" />
    <glyph glyph-name="triagup" unicode="&#x25b2;" horiz-adv-x="778" 
d="M709 0h-720l351 601h6z" />
    <glyph glyph-name="uni25B3" unicode="&#x25b3;" horiz-adv-x="778" 
d="M709 0h-720l351 601h6zM263 158h157l-84 126z" />
    <glyph glyph-name="uni25B6" unicode="&#x25b6;" horiz-adv-x="694" 
d="M64 -58v718l601 -350v-4z" />
    <glyph glyph-name="uni25B7" unicode="&#x25b7;" horiz-adv-x="694" 
d="M64 -58v718l601 -350v-4zM228 383v-157l128 84z" />
    <glyph glyph-name="triagdn" unicode="&#x25bc;" horiz-adv-x="778" 
d="M79 587h720l-351 -600h-3z" />
    <glyph glyph-name="uni25BD" unicode="&#x25bd;" horiz-adv-x="778" 
d="M79 587h720l-351 -600h-3zM524 429h-155l81 -127z" />
    <glyph glyph-name="uni25C0" unicode="&#x25c0;" horiz-adv-x="694" 
d="M630 660v-718l-601 350v4z" />
    <glyph glyph-name="uni25C1" unicode="&#x25c1;" horiz-adv-x="694" 
d="M630 660v-718l-601 350v4zM467 219v157l-127 -84z" />
    <glyph glyph-name="uni25C6" unicode="&#x25c6;" horiz-adv-x="616" 
d="M23 286l286 280l284 -288l-279 -285z" />
    <glyph glyph-name="uni25C9" unicode="&#x25c9;" horiz-adv-x="588" 
d="M295 381q46 0 74.5 -32t28.5 -76q0 -49 -28.5 -83t-73.5 -34q-46 0 -74 33t-28 84q0 44 28 76t73 32zM559 273q-1 -114 -76.5 -193t-186.5 -79t-188.5 79t-77.5 193q0 111 78.5 190t189.5 79q108 0 184.5 -80t76.5 -189zM296 430q-67 0 -109 -46t-42 -111q0 -71 43 -118
t108 -47q66 0 107.5 47t41.5 118q0 64 -43.5 110.5t-105.5 46.5z" />
    <glyph glyph-name="lozenge" unicode="&#x25ca;" horiz-adv-x="662" 
d="M433 333l-64 113q-3 5 -17 30t-17 30h-6q-10 -22 -34 -63l-67 -114l64 -111q9 -16 18 -32.5t14 -26.5t7 -12h2q1 9 34 66zM639 335l-240 -378h-144l-232 371l240 372h139z" />
    <glyph glyph-name="uni2610" unicode="&#x2610;" horiz-adv-x="959" 
d="M151 750h726v-744l-70 -65h-725v745zM156 659v-641h621v641h-621z" />
    <glyph glyph-name="uni2611" unicode="&#x2611;" horiz-adv-x="959" 
d="M590 610h136q-153 -195 -309 -534h-50q-36 41 -78.5 114t-67.5 137l110 59q8 -41 25 -88t29 -66q99 239 205 378zM151 750h726v-744l-70 -65h-725v745zM156 659v-641h621v641h-621z" />
    <glyph glyph-name="uni2713" unicode="&#x2713;" horiz-adv-x="818" 
d="M627 766h198q-282 -386 -495 -846h-80q-54 68 -117.5 178t-110.5 216l172 95q50 -185 93 -266q156 371 340 623z" />
    <glyph glyph-name="uni2752" unicode="&#x2752;" horiz-adv-x="591" 
d="M74 404l100 97h344v-358l-92 -98h-352v359zM168 359v-218h208v218h-208z" />
    <glyph glyph-name="fi" unicode="&#xfb01;" horiz-adv-x="734" 
d="M268 0h-254l81 380h-61l32 152h61l3 13q22 98 74.5 139.5t160.5 41.5q67 0 102 -11l-30 -136q-7 2 -17 2q-27 0 -34 -28l-5 -21h67l-32 -152h-67zM381 0l113 532h255l-113 -532h-255zM503 574l30 143h255l-30 -143h-255z" />
    <glyph glyph-name="fl" unicode="&#xfb02;" horiz-adv-x="735" 
d="M268 0h-254l81 380h-61l32 152h61l3 13q22 98 74.5 139.5t160.5 41.5q67 0 102 -11l-30 -136q-7 2 -17 2q-27 0 -34 -28l-5 -21h67l-32 -152h-67zM636 0h-255l152 716h255z" />
    <glyph glyph-name="uni00470303" horiz-adv-x="763" 
d="M750 398l-87 -398h-169q-4 32 -3 54q-63 -72 -198 -72q-126 0 -191 78.5t-65 203.5q0 85 25.5 162.5t75.5 141.5t132.5 102t186.5 38q153 0 229.5 -64.5t79.5 -163.5h-259q0 63 -60 63q-35 0 -62.5 -32t-43 -79.5t-23 -93.5t-7.5 -83q0 -100 62 -100q70 0 88 87l1 5h-85
l36 151h337zM396 745h-119l6 37q6 33 17.5 56.5t24 35t29.5 18t27.5 7.5t25.5 1q34 0 80.5 -16.5t59.5 -16.5q12 0 16 19l3 13h117l-6 -36q-6 -34 -17.5 -58.5t-23 -37t-28.5 -19.5t-28 -8t-27 -1q-29 0 -80.5 15.5t-60.5 15.5q-10 0 -14 -15z" />
    <glyph glyph-name="uni00670303" horiz-adv-x="655" 
d="M632 356l-62 -290q-14 -68 -34.5 -112.5t-57.5 -79t-94 -50t-141 -15.5q-68 0 -117.5 13t-75.5 31t-41.5 45t-19.5 47.5t-4 46.5h241q-2 -39 32 -39q12 0 20 3t17.5 18.5t15.5 43.5l11 53q-50 -43 -132 -43q-79 0 -122 48.5t-43 133.5q0 81 29.5 156t93 127.5t147.5 52.5
q47 0 77.5 -15t39.5 -37q6 17 15 38h246q-11 -38 -41 -176zM358 398q-30 0 -52.5 -69t-22.5 -119q0 -41 27 -41q13 0 24 11.5t19 35.5t12.5 41t10.5 46q12 51 9 73t-27 22zM340 578h-119l6 35q7 43 21 69.5t33.5 36.5t31.5 12.5t32 2.5q33 0 83 -17t63 -17t16 17l3 15h117
l-4 -26q-7 -47 -21.5 -77t-34.5 -41t-33 -13.5t-34 -2.5q-30 0 -80.5 15.5t-59.5 15.5q-13 0 -17 -15z" />
    <glyph glyph-name="zero.slash" horiz-adv-x="659" 
d="M393 676q128 0 194 -65.5t66 -174.5q0 -58 -10 -116.5t-36 -120t-65 -107.5t-102 -76t-143 -30q-132 0 -194 68t-62 186q0 58 11 116.5t38 117t66 102.5t100.5 72t136.5 28zM390 536q-27 0 -48 -42t-45 -158l-3 -13l126 155q1 58 -30 58zM304 127q30 0 49.5 46t43.5 160
q2 12 4 17l-127 -155q-4 -68 30 -68z" />
    <glyph glyph-name="zero.slashtab" horiz-adv-x="650" 
d="M385 676q128 0 194 -65.5t66 -174.5q0 -58 -10 -116.5t-36 -120t-65 -107.5t-102 -76t-143 -30q-132 0 -194 68t-62 186q0 58 11 116.5t38 117t66 102.5t100.5 72t136.5 28zM382 536q-27 0 -48 -42t-45 -158l-3 -13l126 155q1 58 -30 58zM296 127q30 0 49.5 46t43.5 160
q2 12 4 17l-127 -155q-4 -68 30 -68z" />
    <glyph glyph-name="zero.tab" horiz-adv-x="650" 
d="M385 676q129 0 194.5 -66.5t65.5 -183.5q0 -51 -9 -105t-34 -115.5t-63 -109t-102.5 -79t-146.5 -31.5q-134 0 -195.5 68.5t-61.5 186.5q0 55 11 112t38 116t66 104.5t100.5 74t136.5 28.5zM381 531q-14 0 -25.5 -14t-26 -58t-30.5 -123q-12 -58 -18.5 -95t-7 -62.5
t5.5 -36t18 -10.5q23 0 41 45t41 156q13 62 19 93.5t7.5 59t-4.5 36.5t-20 9z" />
    <glyph glyph-name="one.tab" horiz-adv-x="650" 
d="M543 -1h-510l32 156h122l65 300q-60 0 -93 11l30 140q121 6 196 63h166l-109 -514h133z" />
    <glyph glyph-name="two.tab" horiz-adv-x="650" 
d="M534 0h-535l6 28q25 117 79 187.5t166 138.5q93 57 113 76q25 26 25 64q0 35 -28 35q-22 0 -35 -21t-24 -70h-223q44 236 299 236q127 0 192 -52.5t65 -140.5q0 -77 -37.5 -123.5t-136.5 -98.5q-110 -58 -130 -89h267z" />
    <glyph glyph-name="three.tab" horiz-adv-x="650" 
d="M301 476h-217q7 38 24.5 70t49.5 63t86.5 48.5t126.5 17.5q123 0 189.5 -44.5t66.5 -123.5q0 -113 -138 -149v-2q39 -12 72.5 -48t33.5 -95q0 -102 -77.5 -164.5t-228.5 -62.5q-80 0 -135.5 17t-84 47.5t-39.5 65.5t-9 79h229q-4 -75 34 -75q25 0 39 32.5t14 72.5
q0 29 -15 43.5t-55 14.5h-52l32 144h48q88 0 88 78q0 35 -29 35q-19 0 -31 -15t-22 -49z" />
    <glyph glyph-name="four.tab" horiz-adv-x="650" 
d="M499 0h-230l27 131h-292l32 149l291 382h312l-78 -362h70l-46 -169h-59zM331 300l9 38q15 70 42 165q-32 -56 -130 -203h79z" />
    <glyph glyph-name="five.tab" horiz-adv-x="650" 
d="M660 662l-62 -173h-261l-22 -71q40 23 118 23q81 0 130 -46.5t49 -127.5q0 -122 -81 -202t-245 -80q-269 0 -269 199h238q-3 -58 28 -58q18 0 31 14t19.5 36t9.5 41.5t3 35.5q0 46 -33 46q-31 0 -54 -41l-215 14q10 30 31 102.5t47.5 164.5t35.5 123h502z" />
    <glyph glyph-name="six.tab" horiz-adv-x="650" 
d="M645 486h-214q2 28 -5.5 42t-29.5 14q-56 0 -83 -142q47 46 136 46q78 0 125.5 -46t47.5 -127q0 -133 -88 -210t-233 -77q-135 0 -200.5 69t-65.5 197q0 47 9 98.5t34 111t63 106t102.5 77.5t145.5 31q256 0 256 -190zM306 125q27 0 43 45.5t16 94.5q0 43 -32 43
q-28 0 -44 -42t-16 -94q0 -47 33 -47z" />
    <glyph glyph-name="seven.tab" horiz-adv-x="650" 
d="M140 662h531l-32 -150q-103 -115 -187 -250.5t-128 -261.5h-266q39 116 136.5 261.5t188.5 225.5h-281z" />
    <glyph glyph-name="eight.tab" horiz-adv-x="650" 
d="M295 -14q-141 0 -214.5 52.5t-73.5 136.5q0 132 151 178q-76 42 -76 118q0 90 70.5 147.5t216.5 57.5q128 0 197.5 -48.5t69.5 -125.5q0 -114 -119 -150q93 -48 93 -143q0 -101 -81 -162t-234 -61zM370 549q-27 0 -41.5 -34.5t-14.5 -68.5q0 -42 32 -42q27 0 41.5 32
t14.5 73q0 40 -32 40zM296 114q30 0 44.5 42t14.5 83q0 40 -32 40q-20 0 -34.5 -22.5t-20 -48t-5.5 -47.5q0 -47 33 -47z" />
    <glyph glyph-name="nine.tab" horiz-adv-x="650" 
d="M24 173h230q2 -47 33 -47q27 0 45 36t35 107q-52 -41 -131 -41q-82 0 -132 47.5t-50 133.5q0 49 18 95t54 85t97.5 63t140.5 24q140 0 209 -71t69 -194q0 -23 -2.5 -50.5t-11.5 -70.5t-24 -82.5t-42.5 -81t-63.5 -71.5t-91 -49.5t-121 -19.5q-64 0 -113 14t-76 34t-44 48
t-22.5 48.5t-6.5 42.5zM378 540q-29 0 -47 -42t-18 -83q0 -44 32 -44q29 0 46 44t17 80q0 45 -30 45z" />
    <glyph glyph-name="zero.slashcap" horiz-adv-x="692" 
d="M413 705q137 0 204.5 -72.5t67.5 -189.5q0 -51 -8.5 -105.5t-33.5 -120t-64.5 -115t-108 -83.5t-156.5 -34q-271 0 -271 269q0 51 9.5 106.5t35.5 118.5t66 112t107 81.5t152 32.5zM410 557q-33 0 -55 -41t-48 -165q-1 -3 -2 -10t-2 -11l144 179q0 48 -37 48zM319 133
q35 0 56 47.5t46 167.5q2 8 7 33l-146 -179q-2 -36 6.5 -52.5t30.5 -16.5z" />
    <glyph glyph-name="zero.cap" horiz-adv-x="692" 
d="M413 705q137 0 204.5 -72.5t67.5 -189.5q0 -51 -8.5 -105.5t-33.5 -120t-64.5 -115t-108 -83.5t-156.5 -34q-271 0 -271 269q0 51 9.5 106.5t35.5 118.5t66 112t107 81.5t152 32.5zM409 552q-26 0 -46.5 -40t-45.5 -161q-13 -63 -19 -100t-7 -64.5t6.5 -38t22.5 -10.5
q28 0 47.5 46.5t43.5 163.5q13 62 19.5 97t7 61.5t-6.5 36t-22 9.5z" />
    <glyph glyph-name="one.cap" horiz-adv-x="422" 
d="M308 0h-263l101 471q-57 4 -77 12l31 146q115 9 184 61h171z" />
    <glyph glyph-name="two.cap" horiz-adv-x="644" 
d="M544 0h-562l11 45q23 97 77 171t173 145q94 56 115 77q33 31 33 80q0 16 -9 26t-24 10q-23 0 -37 -19.5t-25 -65.5h-231q45 236 310 236q132 0 202 -54t70 -145q0 -76 -39 -130t-141 -108q-107 -56 -139 -99h280z" />
    <glyph glyph-name="three.cap" horiz-adv-x="647" 
d="M308 507h-228q7 35 24 66t49.5 62.5t91 50.5t136.5 19q130 0 197 -48.5t67 -132.5q0 -61 -38.5 -100t-96.5 -57l-1 -2q24 -9 45 -22t42.5 -45.5t21.5 -75.5q0 -106 -84 -171.5t-236 -65.5q-83 0 -142 18t-89.5 50t-43 68t-11.5 79h241q-5 -74 40 -74q29 0 44 32.5
t15 70.5q0 32 -17 45.5t-58 13.5h-56l33 152h52q49 0 70.5 19t21.5 61q0 43 -36 43t-54 -56z" />
    <glyph glyph-name="four.cap" horiz-adv-x="662" 
d="M522 0h-241l29 143h-306l32 151l305 396h327l-81 -375h74l-54 -172h-55zM346 315l8 37q10 44 42 164q-19 -33 -72.5 -110t-62.5 -91h85z" />
    <glyph glyph-name="five.cap" horiz-adv-x="673" 
d="M690 690l-58 -175h-280l-20 -74q47 26 123 26q90 0 142 -49.5t52 -136.5q0 -133 -88 -214.5t-247 -81.5q-150 0 -220.5 57t-67.5 158h250q-6 -67 34 -67q33 0 51.5 40.5t18.5 84.5q0 58 -43 58q-37 0 -62 -46l-226 17q29 79 115 403h526z" />
    <glyph glyph-name="six.cap" horiz-adv-x="686" 
d="M683 511h-225q0 50 -40 50q-61 0 -92 -140q62 46 156 46q79 0 127.5 -49.5t48.5 -129.5q0 -141 -90.5 -222t-243.5 -81q-281 0 -281 277q0 47 8.5 99t34 115.5t65.5 112.5t109.5 82.5t158.5 33.5q72 0 125.5 -17t82.5 -45.5t42.5 -61.5t13.5 -70zM326 131q32 0 49.5 45
t17.5 95q0 51 -39 51q-31 0 -48.5 -43.5t-17.5 -97.5q0 -50 38 -50z" />
    <glyph glyph-name="seven.cap" horiz-adv-x="595" 
d="M101 690h557l-33 -157q-104 -113 -189.5 -253t-134.5 -280h-279q48 132 142 272t188 234h-291z" />
    <glyph glyph-name="eight.cap" horiz-adv-x="672" 
d="M302 -15q-144 0 -215.5 56t-71.5 144q0 136 159 187q-40 20 -59.5 55.5t-19.5 70.5q0 37 14.5 71t46 66t92 51t141.5 19q140 0 205.5 -51t65.5 -128q0 -57 -32.5 -97t-90.5 -57q44 -19 70 -57.5t26 -88.5q0 -106 -85.5 -173.5t-245.5 -67.5zM389 571q-29 0 -43.5 -33.5
t-14.5 -69.5q0 -42 35 -42q27 0 41 34.5t14 69.5q0 41 -32 41zM310 120q30 0 46.5 45.5t16.5 87.5t-33 42q-30 0 -47.5 -44t-17.5 -83q0 -48 35 -48z" />
    <glyph glyph-name="nine.cap" horiz-adv-x="677" 
d="M22 185h249q2 -53 37 -53q54 0 80 143q-48 -40 -133 -40q-88 0 -144 52t-56 141q0 53 20.5 101.5t58.5 88.5t100.5 63.5t140.5 23.5q149 0 223 -73.5t74 -213.5q0 -22 -2.5 -49t-11.5 -71t-24 -84t-44 -83t-66.5 -74.5t-95.5 -51.5t-129 -20q-66 0 -116.5 14.5
t-79.5 35.5t-48 49.5t-25.5 52.5t-7.5 48zM389 562q-32 0 -50.5 -37.5t-18.5 -84.5q0 -55 41 -55q32 0 50 37.5t18 86.5q0 53 -40 53z" />
    <glyph glyph-name="period.sups" horiz-adv-x="226" 
d="M180 431h-174l37 175h174z" />
    <glyph glyph-name="comma.sups" horiz-adv-x="223" 
d="M75 332h-136q88 130 121 283h166q-15 -74 -55.5 -155.5t-95.5 -127.5z" />
    <glyph glyph-name="dollar.sups" horiz-adv-x="462" 
d="M258 378h-120l12 53q-63 11 -97 44.5t-30 83.5h176q-5 -29 23 -29q22 0 22 16q0 7 -6 11t-27 8q-85 18 -121.5 46t-36.5 73q0 65 51.5 103.5t130.5 45.5l9 41h120l-10 -48q59 -13 87 -46t26 -78h-173q2 25 -23 25q-20 0 -20 -17q0 -14 26 -18q98 -15 137 -43.5t39 -77.5
q0 -122 -184 -141z" />
    <glyph glyph-name="cent.sups" horiz-adv-x="408" 
d="M259 605h161q-29 -118 -161 -140l-11 -54h-120l11 54q-108 21 -108 131q0 80 50.5 135.5t130.5 68.5l9 41h120l-11 -46q32 -9 54 -26t31.5 -37.5t12.5 -40t1 -38.5h-162q6 34 -16 34q-19 0 -29.5 -29.5t-10.5 -54.5q0 -30 18 -30q19 0 30 32z" />
    <glyph glyph-name="hyphen.sups" horiz-adv-x="247" 
d="M59 691h199l-31 -146h-199z" />
    <glyph glyph-name="period.subs" horiz-adv-x="226" 
d="M53 -170h-174l37 175h174z" />
    <glyph glyph-name="comma.subs" horiz-adv-x="223" 
d="M-52 -269h-136q88 130 121 283h166q-15 -74 -55.5 -155.5t-95.5 -127.5z" />
    <glyph glyph-name="dollar.subs" horiz-adv-x="462" 
d="M131 -223h-120l12 53q-63 11 -97 44.5t-30 83.5h176q-5 -29 23 -29q22 0 22 16q0 7 -6 11t-27 8q-85 18 -121.5 46t-36.5 73q0 65 51.5 103.5t130.5 45.5l9 41h120l-10 -48q59 -13 87 -46t26 -78h-173q3 25 -23 25q-20 0 -20 -17q0 -14 26 -18q98 -15 137 -43.5t39 -77.5
q0 -122 -184 -141z" />
    <glyph glyph-name="cent.subs" horiz-adv-x="408" 
d="M132 4h161q-29 -118 -161 -140l-11 -54h-120l11 54q-108 21 -108 131q0 80 50.5 135.5t130.5 68.5l9 41h120l-11 -46q32 -9 54 -26t31.5 -37.5t12.5 -40t1 -38.5h-162q6 34 -16 34q-19 0 -29.5 -29.5t-10.5 -54.5q0 -30 18 -30q19 0 30 32z" />
    <glyph glyph-name="hyphen.subs" horiz-adv-x="247" 
d="M-68 90h199l-31 -146h-199z" />
    <glyph glyph-name="zero.numr" horiz-adv-x="460" 
d="M301 669q100 0 146 -49.5t46 -116.5q0 -111 -64 -178t-184 -67q-98 0 -142 49.5t-44 116.5q0 108 66 176.5t176 68.5zM297 557q-15 0 -24 -20t-21 -72q-11 -51 -10 -73t16 -22q13 0 22 21.5t20 72.5q12 52 11.5 72.5t-14.5 20.5z" />
    <glyph glyph-name="one.numr" horiz-adv-x="300" 
d="M262 265h-186l49 232q-25 2 -46 9l24 115q84 3 125 41h118z" />
    <glyph glyph-name="two.numr" horiz-adv-x="421" 
d="M392 265h-358l3 23q7 57 38 100t114 83q12 6 32 15.5t29.5 14.5t17.5 14.5t8 21.5q0 21 -16 21q-13 0 -19.5 -11t-12.5 -38h-154q12 72 62 116t147 44q92 0 134 -36t42 -84q0 -50 -26 -80t-86 -53q-57 -22 -75 -38h166z" />
    <glyph glyph-name="three.numr" horiz-adv-x="420" 
d="M50 399h161q-2 -38 25 -38q12 0 19 9.5t7 23.5q0 30 -33 30h-31l20 92h29q35 0 35 30q0 20 -19 20q-25 0 -32 -33h-149q4 20 12 38t28 43t61 40t98 15q89 0 133.5 -30.5t44.5 -77.5q0 -58 -69 -86q10 -4 20.5 -11t22.5 -25t12 -41q0 -66 -58.5 -102.5t-145.5 -36.5
q-58 0 -99 14t-60 37t-26 44.5t-6 44.5z" />
    <glyph glyph-name="four.numr" horiz-adv-x="443" 
d="M379 264h-167l15 73h-182l27 126l160 199h231l-43 -203h52l-37 -122h-41zM213 459h40l2 11q7 33 20 78q-11 -14 -31 -44.5t-31 -44.5z" />
    <glyph glyph-name="five.numr" horiz-adv-x="440" 
d="M493 662l-46 -116h-175l-10 -32q26 12 74 12q59 0 91.5 -28.5t32.5 -76.5q0 -77 -61.5 -120t-157.5 -43q-100 0 -144 40t-38 100h160q-4 -30 17 -30q14 0 22 12.5t8 28.5q0 24 -20 24q-15 0 -25 -15l-152 11q41 102 77 233h347z" />
    <glyph glyph-name="six.numr" horiz-adv-x="447" 
d="M479 538h-167q0 22 -17 22q-23 0 -35 -47q34 16 80 16q62 0 96.5 -27t34.5 -77q0 -74 -59.5 -120.5t-164.5 -46.5q-90 0 -139.5 46.5t-49.5 122.5q0 40 11.5 79.5t37 77.5t73.5 61.5t113 23.5q55 0 94 -13t58 -34t27 -42t7 -42zM252 366q18 0 28 17t10 37q0 23 -22 23
q-17 0 -26.5 -15.5t-9.5 -34.5q0 -27 20 -27z" />
    <glyph glyph-name="seven.numr" horiz-adv-x="395" 
d="M106 662h354l-25 -119q-125 -117 -180 -279h-202q28 83 83 157t111 116h-167z" />
    <glyph glyph-name="eight.numr" horiz-adv-x="441" 
d="M239 258q-95 0 -146.5 32t-51.5 83q0 69 89 97q-39 29 -39 69q0 63 57 96.5t145 33.5q94 0 137.5 -31.5t43.5 -74.5q0 -65 -71 -91q54 -25 54 -81q0 -48 -36 -79.5t-82.5 -42.5t-99.5 -11zM283 566q-15 0 -24 -10t-9 -25q0 -23 23 -23q15 0 24 10t9 26q0 22 -23 22z
M250 359q14 0 23.5 11t9.5 28q0 23 -23 23q-14 0 -23.5 -11.5t-9.5 -27.5q0 -23 23 -23z" />
    <glyph glyph-name="nine.numr" horiz-adv-x="444" 
d="M50 389h174q0 -22 22 -22q26 0 36 48q-23 -16 -76 -16q-56 0 -96.5 28.5t-40.5 80.5q0 74 61.5 117.5t149.5 43.5q93 0 147 -44.5t54 -126.5q0 -45 -13 -86t-39.5 -76.5t-75 -56.5t-113.5 -21q-88 0 -138.5 35.5t-51.5 95.5zM288 561q-16 0 -26.5 -15.5t-10.5 -34.5
q0 -26 24 -26q17 0 25.5 16t8.5 37q0 23 -21 23z" />
    <glyph glyph-name="parenleft.numr" horiz-adv-x="277" 
d="M213 695h133q-66 -78 -99 -153.5t-33 -182.5q0 -91 27 -159h-133q-14 22 -26 74t-12 115q0 89 38.5 168.5t104.5 137.5z" />
    <glyph glyph-name="parenright.numr" horiz-adv-x="277" 
d="M150 200h-133q66 78 99 153.5t33 182.5q0 92 -27 159h133q14 -22 26 -74t12 -115q0 -89 -38.5 -168.5t-104.5 -137.5z" />
    <glyph glyph-name="period.numr" horiz-adv-x="226" 
d="M204 264h-174l37 175h174z" />
    <glyph glyph-name="comma.numr" horiz-adv-x="223" 
d="M99 165h-136q88 130 121 283h166q-15 -74 -55.5 -155.5t-95.5 -127.5z" />
    <glyph glyph-name="dollar.numr" horiz-adv-x="462" 
d="M282 211h-120l12 53q-63 11 -97 44.5t-30 83.5h176q-5 -29 23 -29q22 0 22 16q0 7 -6 11t-27 8q-85 18 -121.5 46t-36.5 73q0 65 51.5 103.5t130.5 45.5l9 41h120l-10 -48q59 -13 87 -46t26 -78h-173q2 25 -23 25q-20 0 -20 -17q0 -14 26 -18q98 -15 137 -43.5t39 -77.5
q0 -122 -184 -141z" />
    <glyph glyph-name="cent.numr" horiz-adv-x="408" 
d="M283 438h161q-29 -118 -161 -140l-11 -54h-120l11 54q-108 21 -108 131q0 80 50.5 135.5t130.5 68.5l9 41h120l-11 -46q32 -9 54 -26t31.5 -37.5t12.5 -40t1 -38.5h-162q6 34 -16 34q-19 0 -29.5 -29.5t-10.5 -54.5q0 -30 18 -30q19 0 30 32z" />
    <glyph glyph-name="hyphen.numr" horiz-adv-x="247" 
d="M83 524h199l-31 -146h-199z" />
    <glyph glyph-name="zero.dnom" horiz-adv-x="460" 
d="M238 404q100 0 146 -49.5t46 -116.5q0 -111 -64 -178t-184 -67q-98 0 -142 49.5t-44 116.5q0 108 66 176.5t176 68.5zM234 292q-15 0 -24 -20t-21 -72q-11 -51 -10 -73t16 -22q13 0 22 21.5t20 72.5q12 53 11.5 73t-14.5 20z" />
    <glyph glyph-name="one.dnom" horiz-adv-x="300" 
d="M199 0h-186l49 232q-25 2 -46 9l24 115q84 3 125 41h118z" />
    <glyph glyph-name="two.dnom" horiz-adv-x="421" 
d="M329 0h-358l3 23q7 57 38 100t114 83q12 6 32 15.5t29.5 14.5t17.5 14.5t8 21.5q0 21 -16 21q-13 0 -19.5 -11t-12.5 -38h-154q12 72 62 116t147 44q92 0 134 -36t42 -84q0 -50 -26 -80t-86 -53q-57 -22 -75 -38h166z" />
    <glyph glyph-name="three.dnom" horiz-adv-x="420" 
d="M-13 134h161q-2 -38 25 -38q12 0 19 9.5t7 23.5q0 30 -33 30h-31l20 92h29q35 0 35 30q0 20 -19 20q-25 0 -32 -33h-149q4 20 12 38t28 43t61 40t98 15q89 0 133.5 -30.5t44.5 -77.5q0 -58 -69 -86q10 -4 20.5 -11t22.5 -25t12 -41q0 -66 -58.5 -102.5t-145.5 -36.5
q-58 0 -99 14t-60 37t-26 44.5t-6 44.5z" />
    <glyph glyph-name="four.dnom" horiz-adv-x="443" 
d="M316 -1h-167l15 73h-182l27 126l160 199h231l-43 -203h52l-37 -122h-41zM150 194h40l2 11q7 33 20 78q-11 -14 -31 -44.5t-31 -44.5z" />
    <glyph glyph-name="five.dnom" horiz-adv-x="440" 
d="M430 397l-46 -116h-175l-10 -32q26 12 74 12q59 0 91.5 -28.5t32.5 -76.5q0 -77 -61.5 -120t-157.5 -43q-100 0 -144 40t-38 100h160q-4 -30 17 -30q14 0 22 12.5t8 28.5q0 24 -20 24q-15 0 -25 -15l-152 11q41 102 77 233h347z" />
    <glyph glyph-name="six.dnom" horiz-adv-x="447" 
d="M416 273h-167q0 22 -17 22q-23 0 -35 -47q34 16 80 16q62 0 96.5 -27t34.5 -77q0 -74 -59.5 -120.5t-164.5 -46.5q-90 0 -139.5 46.5t-49.5 122.5q0 40 11.5 79.5t37 77.5t73.5 61.5t113 23.5q55 0 94 -13t58 -34t27 -42t7 -42zM189 101q18 0 28 17t10 37q0 23 -22 23
q-17 0 -26.5 -15.5t-9.5 -34.5q0 -27 20 -27z" />
    <glyph glyph-name="seven.dnom" horiz-adv-x="395" 
d="M43 397h354l-25 -119q-125 -117 -180 -279h-202q28 83 83 157t111 116h-167z" />
    <glyph glyph-name="eight.dnom" horiz-adv-x="441" 
d="M176 -7q-95 0 -146.5 32t-51.5 83q0 69 89 97q-39 29 -39 69q0 63 57 96.5t145 33.5q94 0 137.5 -31.5t43.5 -74.5q0 -65 -71 -91q54 -25 54 -81q0 -48 -36 -79.5t-82.5 -42.5t-99.5 -11zM220 301q-15 0 -24 -10t-9 -25q0 -23 23 -23q15 0 24 10t9 26q0 22 -23 22z
M187 94q14 0 23.5 11t9.5 28q0 23 -23 23q-14 0 -23.5 -11.5t-9.5 -27.5q0 -23 23 -23z" />
    <glyph glyph-name="nine.dnom" horiz-adv-x="444" 
d="M-13 124h174q0 -22 22 -22q26 0 36 48q-23 -16 -76 -16q-56 0 -96.5 28.5t-40.5 80.5q0 74 61.5 117.5t149.5 43.5q93 0 147 -44.5t54 -126.5q0 -45 -13 -86t-39.5 -76.5t-75 -56.5t-113.5 -21q-88 0 -138.5 35.5t-51.5 95.5zM225 296q-16 0 -26.5 -15.5t-10.5 -34.5
q0 -26 24 -26q17 0 25.5 16t8.5 37q0 23 -21 23z" />
    <glyph glyph-name="parenleft.dnom" horiz-adv-x="277" 
d="M150 430h133q-66 -78 -99 -153.5t-33 -182.5q0 -92 27 -159h-133q-14 22 -26 74t-12 115q0 89 38.5 168.5t104.5 137.5z" />
    <glyph glyph-name="parenright.dnom" horiz-adv-x="277" 
d="M87 -65h-133q66 78 99 153.5t33 182.5q0 91 -27 159h133q14 -22 26 -74t12 -115q0 -89 -38.5 -168.5t-104.5 -137.5z" />
    <glyph glyph-name="period.dnom" horiz-adv-x="226" 
d="M141 -1h-174l37 175h174z" />
    <glyph glyph-name="comma.dnom" horiz-adv-x="223" 
d="M36 -100h-136q88 130 121 283h166q-15 -74 -55.5 -155.5t-95.5 -127.5z" />
    <glyph glyph-name="dollar.dnom" horiz-adv-x="462" 
d="M219 -54h-120l12 53q-63 11 -97 44.5t-30 83.5h176q-5 -29 23 -29q22 0 22 16q0 7 -6 11t-27 8q-85 18 -121.5 46t-36.5 73q0 65 51.5 103.5t130.5 45.5l9 41h120l-10 -48q59 -13 87 -46t26 -78h-173q3 25 -23 25q-20 0 -20 -17q0 -14 26 -18q98 -15 137 -43.5t39 -77.5
q0 -122 -184 -141z" />
    <glyph glyph-name="cent.dnom" horiz-adv-x="408" 
d="M220 173h161q-29 -118 -161 -140l-11 -54h-120l11 54q-108 21 -108 131q0 80 50.5 135.5t130.5 68.5l9 41h120l-11 -46q32 -9 54 -26t31.5 -37.5t12.5 -40t1 -38.5h-162q6 34 -16 34q-19 0 -29.5 -29.5t-10.5 -54.5q0 -30 18 -30q19 0 30 32z" />
    <glyph glyph-name="hyphen.dnom" horiz-adv-x="247" 
d="M20 259h199l-31 -146h-199z" />
    </font>
</defs>
</svg>
