<?xml version="1.0" standalone="no"?>
<!DOCTYPE svg PUBLIC "-//W3C//DTD SVG 1.1//EN" "http://www.w3.org/Graphics/SVG/1.1/DTD/svg11.dtd" >
<svg xmlns="http://www.w3.org/2000/svg" xmlns:xlink="http://www.w3.org/1999/xlink" version="1.1">
<metadata>
Created by FontForge 20170731 at Tue Apr  5 15:38:26 2016
 By Aleksey,,,
(c) 2014 Adobe Systems Incorporated. All Rights Reserved.
</metadata>
<defs>
<font id="AcuminPro-BlackItalic" horiz-adv-x="400" >
  <font-face 
    font-family="Acumin Pro"
    font-weight="900"
    font-style="italic"
    font-stretch="normal"
    units-per-em="1000"
    panose-1="2 11 9 4 2 2 2 9 2 4"
    ascent="735"
    descent="-265"
    x-height="524"
    cap-height="689"
    bbox="-335 -261 1309 1065"
    underline-thickness="50"
    underline-position="-200"
    slope="-12"
    unicode-range="U+0020-FB02"
  />
<missing-glyph horiz-adv-x="500" 
d="M0 0v700h500v-700h-500zM250 395l170 255h-340zM280 350l170 -255v510zM80 50h340l-170 255zM50 605v-510l170 255z" />
    <glyph glyph-name="f_f" unicode="ff" horiz-adv-x="685" 
d="M433 398h-146l-83 -398h-185l84 398h-69l28 126h68l6 31q20 92 70 135.5t140 43.5q52 0 76 -7l-27 -124q-14 2 -25 2q-40 0 -48 -43l-8 -38h147l7 31q19 92 67.5 135.5t136.5 43.5q58 0 82 -7l-27 -124q-14 2 -25 2q-38 0 -48 -43l-8 -38h78l-28 -126h-77l-84 -398h-186z
" />
    <glyph glyph-name=".notdef" horiz-adv-x="500" 
d="M0 0v700h500v-700h-500zM250 395l170 255h-340zM280 350l170 -255v510zM80 50h340l-170 255zM50 605v-510l170 255z" />
    <glyph glyph-name=".null" horiz-adv-x="0" 
 />
    <glyph glyph-name="nonmarkingreturn" horiz-adv-x="333" 
 />
    <glyph glyph-name="space" unicode=" " horiz-adv-x="223" 
 />
    <glyph glyph-name="exclam" unicode="!" horiz-adv-x="343" 
d="M268 263h-149l41 308l25 118h197l-25 -119zM228 0h-183l40 191h183z" />
    <glyph glyph-name="quotedbl" unicode="&#x22;" horiz-adv-x="446" 
d="M207 404h-119l27 206l25 116h151l-24 -117zM417 404h-118l28 206l24 116h152l-25 -117z" />
    <glyph glyph-name="numbersign" unicode="#" horiz-adv-x="574" 
d="M237 0l53 153h-97l-52 -153h-112l53 153h-69l22 134h94l36 106h-74l21 133h99l49 140h109l-48 -140h98l48 140h110l-48 -140h65l-21 -133h-89l-37 -106h79l-22 -134h-103l-52 -153h-112zM336 287l37 106h-97l-37 -106h97z" />
    <glyph glyph-name="dollar" unicode="$" horiz-adv-x="575" 
d="M276 -84h-124l18 82q-84 17 -125.5 66.5t-34.5 129.5h171q1 -78 86 -78q41 0 60.5 18t19.5 46q0 26 -18 43.5t-63 36.5q-105 44 -147 86t-42 106q0 91 62 148.5t173 64.5l12 52h124l-14 -61q72 -19 107 -67t30 -117h-167q0 72 -74 72q-30 0 -48 -15t-18 -41
q0 -21 18.5 -36t73.5 -39q99 -42 139.5 -87t40.5 -113q0 -97 -65 -154.5t-178 -66.5z" />
    <glyph glyph-name="percent" unicode="%" horiz-adv-x="934" 
d="M291 670q72 0 113 -37t41 -108q0 -100 -58.5 -169.5t-160.5 -69.5q-75 0 -114 39.5t-39 108.5q0 42 13.5 82.5t39 75.5t69 56.5t96.5 21.5zM281 574q-25 0 -43.5 -27t-25.5 -57.5t-7 -55.5q0 -53 38 -53q26 0 44 28.5t24.5 59.5t6.5 56q0 49 -37 49zM271 0h-107l541 660
h105zM747 373q72 0 113 -37.5t41 -108.5q0 -100 -59 -169t-160 -69q-76 0 -114.5 39.5t-38.5 108.5q0 42 13.5 82.5t39 75.5t69 56.5t96.5 21.5zM737 276q-37 0 -56.5 -48t-19.5 -91q0 -53 37 -53q27 0 45 28.5t24.5 59.5t6.5 56q0 48 -37 48z" />
    <glyph glyph-name="ampersand" unicode="&#x26;" horiz-adv-x="820" 
d="M297 132q46 0 90 32l-119 125q-56 -30 -56 -81q0 -32 22.5 -54t62.5 -22zM624 410h194l-218 -230l168 -180h-224l-61 63q-93 -75 -223 -75q-107 0 -166.5 55t-59.5 137q0 71 40.5 116.5t123.5 84.5q-44 58 -44 121q0 88 58.5 143t164.5 55q100 0 152 -48t52 -117
q0 -63 -36.5 -102t-111.5 -74l72 -77zM376 587q-26 0 -40.5 -17.5t-14.5 -41.5q0 -43 38 -84q62 37 62 91q0 52 -45 52z" />
    <glyph glyph-name="quotesingle" unicode="'" horiz-adv-x="232" 
d="M214 404h-136l29 206l25 114h165l-24 -115z" />
    <glyph glyph-name="parenleft" unicode="(" horiz-adv-x="376" 
d="M292 725h159q-131 -132 -194.5 -262.5t-63.5 -297.5q0 -91 18 -184t48 -158h-146q-71 156 -71 343q0 344 250 559z" />
    <glyph glyph-name="parenright" unicode=")" horiz-adv-x="376" 
d="M93 -177h-158q131 132 194.5 262.5t63.5 297.5q0 91 -18 184t-48 158h145q72 -160 72 -344q0 -345 -251 -558z" />
    <glyph glyph-name="asterisk" unicode="*" horiz-adv-x="456" 
d="M260 689h123l-63 -159l127 109l48 -112l-164 -48l140 -51l-81 -110l-91 111l-5 -157h-123l61 154l-125 -105l-47 112l163 48l-141 51l85 110l89 -110z" />
    <glyph glyph-name="plus" unicode="+" horiz-adv-x="679" 
d="M271 553h141v-207h201v-138h-201v-208h-141v208h-205v138h205v207z" />
    <glyph glyph-name="comma" unicode="," horiz-adv-x="275" 
d="M68 -102h-142q47 71 81.5 154.5t48.5 149.5h171q-19 -79 -62.5 -163.5t-96.5 -140.5z" />
    <glyph glyph-name="hyphen" unicode="-" horiz-adv-x="372" 
d="M60 331h283l-31 -143h-282z" />
    <glyph glyph-name="period" unicode="." horiz-adv-x="262" 
d="M166 0h-180l41 198h180z" />
    <glyph glyph-name="slash" unicode="/" horiz-adv-x="421" 
d="M106 -33h-134l376 730h134z" />
    <glyph glyph-name="zero" unicode="0" horiz-adv-x="615" 
d="M377 672q109 0 166 -63t57 -171q0 -55 -9.5 -112.5t-33.5 -119.5t-60 -109.5t-95 -78.5t-132 -31q-112 0 -168 63t-56 170q0 55 10.5 114t35.5 120t61.5 109t94.5 78.5t129 30.5zM366 543q-28 0 -51 -25t-37.5 -67.5t-24 -91.5t-14.5 -105q-17 -138 43 -138q30 0 54 29.5
t38.5 79t22.5 94t12 92.5q9 69 -0.5 100.5t-42.5 31.5z" />
    <glyph glyph-name="one" unicode="1" horiz-adv-x="383" 
d="M245 0h-182l102 472q-49 -10 -107 -7l29 124q104 11 174 70h124z" />
    <glyph glyph-name="two" unicode="2" horiz-adv-x="565" 
d="M473 0h-488l5 26q20 94 75.5 166t175.5 146q80 49 106.5 77.5t26.5 72.5q0 56 -53 56q-35 0 -54 -24t-30 -77h-171q39 228 267 228q115 0 170.5 -54t55.5 -133q0 -78 -37 -125.5t-131 -102.5q-46 -27 -67.5 -40.5t-49 -35.5t-39.5 -41h288z" />
    <glyph glyph-name="three" unicode="3" horiz-adv-x="566" 
d="M252 477h-172q18 84 79.5 138.5t176.5 54.5q107 0 164.5 -46t57.5 -119q0 -113 -116 -152v-3q35 -15 62 -50t27 -88q0 -102 -73.5 -162.5t-202.5 -60.5q-127 0 -184 56.5t-55 149.5h176q4 -83 69 -83q39 0 60 29.5t21 71.5q0 35 -19.5 54t-69.5 19h-45l26 127h42
q99 0 99 82q0 52 -52 52q-30 0 -45.5 -18t-25.5 -52z" />
    <glyph glyph-name="four" unicode="4" horiz-adv-x="580" 
d="M438 0h-170l30 141h-288l31 140l315 378h222l-81 -380h76l-41 -138h-63zM326 279l20 91q14 65 39 153q-16 -27 -46.5 -68t-76.5 -100t-59 -76h123z" />
    <glyph glyph-name="five" unicode="5" horiz-adv-x="583" 
d="M601 659l-52 -140h-256q-6 -23 -30 -99q43 26 111 26q83 0 131.5 -50.5t48.5 -133.5q0 -120 -75 -197t-215 -77q-117 0 -177 52.5t-62 145.5h178q4 -72 66 -72q43 0 67.5 38t24.5 89q0 76 -67 76q-54 0 -83 -54l-154 23q45 132 108 373h436z" />
    <glyph glyph-name="six" unicode="6" horiz-adv-x="600" 
d="M594 489h-169q-2 58 -58 58q-81 0 -113 -151q49 47 135 47q81 0 129 -50t48 -137q0 -115 -76.5 -191.5t-204.5 -76.5q-123 0 -181 67t-58 188q0 47 8.5 98.5t31.5 111.5t57.5 107t93.5 78.5t133 31.5q64 0 110.5 -16.5t70 -44.5t33.5 -57.5t10 -62.5zM286 114
q43 0 66.5 41t23.5 93q0 72 -64 72q-43 0 -65.5 -37.5t-22.5 -89.5q0 -36 15.5 -57.5t46.5 -21.5z" />
    <glyph glyph-name="seven" unicode="7" horiz-adv-x="514" 
d="M94 659h478l-27 -129q-102 -107 -190 -249.5t-141 -280.5h-200q47 131 146.5 278t193.5 240h-291z" />
    <glyph glyph-name="eight" unicode="8" horiz-adv-x="583" 
d="M257 -13q-113 0 -178.5 51t-65.5 138q0 62 37 108t106 68q-68 41 -68 120q0 89 66 144.5t188 55.5q106 0 165.5 -46t59.5 -121q0 -56 -28 -97t-78 -61q83 -44 83 -138q0 -99 -76.5 -160.5t-210.5 -61.5zM335 554q-34 0 -54 -27.5t-20 -64.5q0 -26 15 -41.5t43 -15.5
q36 0 55 26t19 65q0 58 -58 58zM269 107q41 0 64.5 35t23.5 79q0 33 -18.5 49.5t-49.5 16.5q-40 0 -64.5 -33.5t-24.5 -75.5q0 -33 18 -52t51 -19z" />
    <glyph glyph-name="nine" unicode="9" horiz-adv-x="596" 
d="M30 168h175q10 -54 61 -54q77 0 117 156q-48 -41 -131 -41q-81 0 -132.5 50t-51.5 137q0 102 73 178.5t202 76.5q122 0 181 -67t59 -181q0 -45 -7 -94.5t-28.5 -112.5t-55.5 -111.5t-95.5 -82t-140.5 -33.5q-52 0 -92 11.5t-64 29.5t-40 43t-22 47.5t-8 47.5zM345 547
q-41 0 -65 -37.5t-24 -86.5q0 -34 17 -51.5t46 -17.5q43 0 66 36t23 81q0 76 -63 76z" />
    <glyph glyph-name="colon" unicode=":" horiz-adv-x="315" 
d="M260 329h-177l41 192h177zM191 0h-177l40 191h177z" />
    <glyph glyph-name="semicolon" unicode=";" horiz-adv-x="345" 
d="M286 323h-180l42 198h180zM104 -102h-145q87 139 124 299h171q-17 -74 -60.5 -160t-89.5 -139z" />
    <glyph glyph-name="less" unicode="&#x3c;" horiz-adv-x="577" 
d="M66 211v134l445 216v-146l-289 -136l289 -138v-147z" />
    <glyph glyph-name="equal" unicode="=" horiz-adv-x="679" 
d="M66 219h547v-137h-547v137zM66 474h547v-137h-547v137z" />
    <glyph glyph-name="greater" unicode="&#x3e;" horiz-adv-x="577" 
d="M511 344v-134l-445 -215v146l290 136l-290 138v146z" />
    <glyph glyph-name="question" unicode="?" horiz-adv-x="547" 
d="M367 232h-183q-3 8 3 36q9 48 37 84.5t91 82.5q24 18 36.5 28t26 28t13.5 35q2 50 -44 50q-30 0 -47 -19.5t-28 -60.5h-172q38 204 260 204q113 0 165.5 -47.5t52.5 -117.5q0 -60 -32.5 -104t-101.5 -91q-65 -44 -75 -94q-2 -4 -2 -14zM319 0h-188l38 181h188z" />
    <glyph glyph-name="at" unicode="@" horiz-adv-x="962" 
d="M686 -26l24 -95q-97 -56 -251 -56q-173 0 -287 105t-114 282q0 196 133 330t339 134q164 0 274 -89t110 -246q0 -140 -72 -225t-194 -85q-96 0 -115 59q-51 -58 -135 -58q-63 0 -99.5 43t-36.5 115q0 119 63 199.5t149 80.5q79 0 96 -49l12 38h147l-61 -262
q-7 -30 -1.5 -42t25.5 -12q44 0 75 55t31 138q0 111 -73 174.5t-204 63.5q-150 0 -243.5 -98t-93.5 -265q0 -126 77.5 -202t205.5 -76q129 0 219 43zM502 353q-33 0 -58.5 -49.5t-25.5 -106.5q0 -50 37 -50q50 0 73 101q14 56 8 80.5t-34 24.5z" />
    <glyph glyph-name="A" unicode="A" horiz-adv-x="669" 
d="M420 143h-206l-67 -143h-200l355 689h251l71 -689h-192zM276 285h142q-15 176 -18 267h-2q-38 -92 -122 -267z" />
    <glyph glyph-name="B" unicode="B" horiz-adv-x="677" 
d="M14 0l146 689h295q109 0 163 -47.5t54 -123.5q0 -60 -32 -103.5t-88 -62.5q38 -16 62.5 -53.5t24.5 -83.5q0 -99 -74 -157t-207 -58h-344zM261 289l-34 -159h104q51 0 79.5 23t28.5 64q0 72 -93 72h-85zM289 419h93q99 0 99 76q0 63 -74 63h-89z" />
    <glyph glyph-name="C" unicode="C" horiz-adv-x="692" 
d="M464 230h195q-70 -243 -338 -243q-135 0 -205 75t-70 207q0 57 13 115.5t42.5 116t72.5 102t109.5 72t147.5 27.5q131 0 201.5 -65t69.5 -177h-194q0 102 -92 102q-54 0 -94 -52.5t-57 -119t-17 -130.5q0 -133 93 -133q47 0 75 27t48 76z" />
    <glyph glyph-name="D" unicode="D" horiz-adv-x="731" 
d="M14 0l146 689h250q143 0 223 -78.5t80 -213.5q0 -61 -14.5 -117.5t-46 -108t-78 -89t-115 -60t-152.5 -22.5h-293zM323 551l-88 -413h83q89 0 142 77.5t53 187.5q0 148 -126 148h-64z" />
    <glyph glyph-name="E" unicode="E" horiz-adv-x="614" 
d="M588 425l-31 -143h-298l-30 -139h341l-51 -143h-505l146 689h496l-30 -143h-311l-25 -121h298z" />
    <glyph glyph-name="F" unicode="F" horiz-adv-x="594" 
d="M14 0l146 689h493l-30 -143h-306l-29 -142h286l-31 -142h-286l-55 -262h-188z" />
    <glyph glyph-name="G" unicode="G" horiz-adv-x="732" 
d="M701 393l-78 -393h-137q-4 29 2 63q-62 -76 -190 -76q-121 0 -185 77.5t-64 202.5q0 81 24.5 156.5t71 139t123.5 101.5t174 38q132 0 204 -63.5t74 -162.5h-191q-1 35 -24.5 61.5t-77.5 26.5q-45 0 -81 -29.5t-56.5 -75.5t-30.5 -94.5t-10 -93.5q0 -144 106 -144
q62 0 91 32.5t40 89.5l1 4h-126l31 140h309z" />
    <glyph glyph-name="H" unicode="H" horiz-adv-x="726" 
d="M14 0l146 689h192l-55 -257h204l55 257h192l-146 -689h-192l61 290h-204l-61 -290h-192z" />
    <glyph glyph-name="I" unicode="I" horiz-adv-x="330" 
d="M160 689h192l-146 -689h-192z" />
    <glyph glyph-name="J" unicode="J" horiz-adv-x="393" 
d="M131 214l100 475h191l-104 -487q-10 -51 -24 -85.5t-40.5 -65t-70.5 -45.5t-107 -15q-67 0 -113 11l30 141q24 -6 55 -6q41 0 57 17t26 60z" />
    <glyph glyph-name="K" unicode="K" horiz-adv-x="680" 
d="M14 0l146 689h190l-61 -284q33 38 134.5 142t136.5 142h227l-308 -291l175 -398h-207l-113 286l-84 -70l-46 -216h-190z" />
    <glyph glyph-name="L" unicode="L" horiz-adv-x="581" 
d="M14 0l146 689h192l-116 -546h314l-51 -143h-485z" />
    <glyph glyph-name="M" unicode="M" horiz-adv-x="873" 
d="M564 0l47 225q47 218 75 332h-4q-120 -298 -233 -557h-156q1 54 1.5 179t1.5 217.5t4 160.5h-5q-20 -135 -63 -338l-47 -219h-172l146 689h279q2 -257 -9 -441h4q27 76 186 441h276l-146 -689h-185z" />
    <glyph glyph-name="N" unicode="N" horiz-adv-x="737" 
d="M192 0h-179l146 689h235q10 -48 35.5 -165t39.5 -189.5t19 -114.5h3q13 100 58 316l33 153h177l-146 -689h-224q-6 30 -25.5 120.5t-31.5 148.5t-24.5 125.5t-15.5 98.5h-3q-10 -74 -63 -332z" />
    <glyph glyph-name="O" unicode="O" horiz-adv-x="751" 
d="M437 702q145 0 219.5 -82t74.5 -210q0 -80 -23 -153.5t-68.5 -135t-123.5 -98t-180 -36.5q-143 0 -215.5 79.5t-72.5 202.5q0 63 15 124.5t47 117.5t77 98.5t109.5 67.5t140.5 25zM428 562q-58 0 -101.5 -50.5t-62 -116.5t-18.5 -130t27.5 -101t83.5 -37q47 0 83.5 29.5
t56 76t29.5 95t10 94.5q0 140 -108 140z" />
    <glyph glyph-name="P" unicode="P" horiz-adv-x="662" 
d="M14 0l146 689h273q114 0 176.5 -55.5t62.5 -144.5q0 -115 -79 -179t-213 -64h-127l-52 -246h-187zM319 554l-37 -173h77q117 0 117 99q0 74 -87 74h-70z" />
    <glyph glyph-name="Q" unicode="Q" horiz-adv-x="751" 
d="M437 702q145 0 219.5 -82t74.5 -210q0 -96 -32.5 -183.5t-98.5 -146.5l133 -99l-102 -113l-182 132q-55 -13 -113 -13q-143 0 -215.5 79.5t-72.5 202.5q0 63 15 124.5t47 117.5t77 98.5t109.5 67.5t140.5 25zM428 562q-58 0 -101.5 -50.5t-62 -116.5t-18.5 -130
t27.5 -101t83.5 -37q47 0 83.5 29.5t56 76t29.5 95t10 94.5q0 140 -108 140z" />
    <glyph glyph-name="R" unicode="R" horiz-adv-x="674" 
d="M349 265h-90l-56 -265h-189l146 689h296q108 0 166 -49t58 -132q0 -69 -38 -116t-104 -66q85 -37 58 -170q-26 -125 -23 -156h-182q-6 45 19 163q13 49 0.5 75.5t-61.5 26.5zM320 555l-33 -156h88q112 0 112 88q0 68 -81 68h-86z" />
    <glyph glyph-name="S" unicode="S" horiz-adv-x="638" 
d="M12 215h187q4 -43 32 -68.5t80 -25.5q91 0 91 70q0 32 -25 52t-88 41q-110 36 -157.5 82t-47.5 115q0 98 71.5 159.5t205.5 61.5q127 0 200 -56t74 -156h-187q-5 76 -90 76q-36 0 -57.5 -15.5t-21.5 -45.5q0 -24 23 -42t83 -37q116 -38 167 -87t51 -125q0 -103 -77 -165
t-227 -62q-139 0 -211.5 60.5t-75.5 167.5z" />
    <glyph glyph-name="T" unicode="T" horiz-adv-x="584" 
d="M138 0l116 546h-189l31 143h567l-30 -143h-188l-115 -546h-192z" />
    <glyph glyph-name="U" unicode="U" horiz-adv-x="713" 
d="M151 689h192l-93 -434q-14 -62 7.5 -95t75.5 -33q55 0 80.5 28t40.5 91l93 443h193l-93 -435q-31 -139 -104 -202.5t-227 -63.5q-149 0 -216.5 70.5t-36.5 218.5z" />
    <glyph glyph-name="V" unicode="V" horiz-adv-x="661" 
d="M376 0h-221l-84 689h190l23 -290q11 -129 11 -235h3q29 77 109 233l148 292h202z" />
    <glyph glyph-name="W" unicode="W" horiz-adv-x="915" 
d="M296 0h-195l-13 689h192q-17 -404 -29 -494h3q26 74 108 262t100 232h168q0 -16 2 -141.5t1.5 -203.5t-4.5 -141h3q40 134 179 486h187l-317 -689h-195q0 4 0.5 185.5t2.5 261.5h-2q-20 -59 -52 -135.5t-80 -181.5t-59 -130z" />
    <glyph glyph-name="X" unicode="X" horiz-adv-x="615" 
d="M585 0h-201q-2 8 -39.5 108.5t-39.5 109.5h-2q-7 -12 -83 -111.5t-81 -106.5h-210l287 352l-137 337h201q2 -9 37.5 -106.5t36.5 -102.5h2q6 10 79.5 105.5t78.5 103.5h205l-279 -337z" />
    <glyph glyph-name="Y" unicode="Y" horiz-adv-x="606" 
d="M335 0h-194l52 245q3 15 -1 26l-140 418h198q63 -259 70 -300q20 36 53.5 88t77.5 118t62 94h206l-324 -430q-8 -10 -11 -26z" />
    <glyph glyph-name="Z" unicode="Z" horiz-adv-x="596" 
d="M-35 0l24 119l406 427h-315l31 143h537l-30 -136l-386 -410h341l-51 -143h-557z" />
    <glyph glyph-name="bracketleft" unicode="[" horiz-adv-x="354" 
d="M227 -178h-251l191 901h251l-24 -113h-113l-143 -674h113z" />
    <glyph glyph-name="backslash" unicode="\" horiz-adv-x="411" 
d="M250 697l72 -728h-126l-71 728h125z" />
    <glyph glyph-name="bracketright" unicode="]" horiz-adv-x="354" 
d="M132 723h251l-192 -901h-251l24 113h114l143 674h-114z" />
    <glyph glyph-name="asciicircum" unicode="^" horiz-adv-x="529" 
d="M502 298h-141l-100 241l-94 -241h-140l166 373h142z" />
    <glyph glyph-name="underscore" unicode="_" horiz-adv-x="514" 
d="M-69 -75h511l-13 -62h-512z" />
    <glyph glyph-name="grave" unicode="`" 
d="M56 733h192l100 -145h-146z" />
    <glyph glyph-name="a" unicode="a" horiz-adv-x="592" 
d="M553 337l-42 -194q-24 -109 -27 -143h-178q0 7 6 54q-27 -31 -61 -48t-93 -17q-69 0 -107.5 39.5t-38.5 97.5q0 177 250 202q30 2 108 5l4 24q14 66 -47 66q-8 0 -15 -1t-12.5 -3.5t-9.5 -4t-8 -6t-6 -6t-5 -7.5t-4 -7.5t-4 -8.5t-3 -8h-180q38 165 258 165
q124 0 180 -50.5t35 -148.5zM345 217l3 13q-42 0 -72 -6q-76 -15 -76 -64q0 -19 12.5 -31t35.5 -12q25 0 43 8.5t28.5 25.5t15.5 30.5t10 35.5z" />
    <glyph glyph-name="b" unicode="b" horiz-adv-x="623" 
d="M30 131l126 593h185l-52 -244q58 56 141 56q76 0 121 -51.5t45 -140.5q0 -62 -16.5 -122.5t-49 -113.5t-88 -86t-125.5 -33q-89 0 -122 53q-6 -25 -12 -42h-181q15 68 28 131zM289 120q29 0 52.5 23t37 57t20.5 68.5t7 61.5q0 73 -61 73q-80 0 -111 -152
q-14 -66 -1 -98.5t56 -32.5z" />
    <glyph glyph-name="c" unicode="c" horiz-adv-x="575" 
d="M350 188h182q-51 -199 -281 -199q-109 0 -165 55.5t-56 152.5q0 60 18 118t52.5 108.5t95 81.5t136.5 31q67 0 115.5 -19.5t72 -51.5t33 -65.5t6.5 -66.5h-181q3 38 -7 59t-43 21q-35 0 -61 -40.5t-37 -90.5t-11 -94q0 -78 53 -78q51 0 78 78z" />
    <glyph glyph-name="d" unicode="d" horiz-adv-x="626" 
d="M482 724h185l-122 -575q-25 -125 -29 -149h-180q0 17 5 50q-48 -61 -141 -61q-81 0 -125.5 53.5t-44.5 147.5q0 87 31 164.5t95.5 129.5t149.5 52q46 0 80.5 -13.5t45.5 -31.5zM340 403q-52 0 -85.5 -68t-33.5 -132q0 -82 60 -82q84 0 114 159q13 61 0 92t-55 31z" />
    <glyph glyph-name="e" unicode="e" horiz-adv-x="590" 
d="M549 224h-331q-3 -14 -3 -27q-4 -84 60 -84q50 0 75 54h186q-26 -77 -93.5 -127.5t-180.5 -50.5q-119 0 -175.5 60.5t-56.5 159.5q0 54 16 108t49.5 105t94.5 82.5t141 31.5q119 0 176 -57.5t57 -154.5q0 -48 -15 -100zM239 326h147q2 10 2 25q0 64 -58 64q-68 0 -91 -89
z" />
    <glyph glyph-name="f" unicode="f" horiz-adv-x="355" 
d="M204 0h-185l84 398h-68l28 126h67l8 34q20 89 69.5 132.5t138.5 43.5q57 0 83 -8l-27 -124q-7 2 -26 2q-44 0 -53 -44l-8 -36h78l-27 -126h-78z" />
    <glyph glyph-name="g" unicode="g" horiz-adv-x="615" 
d="M586 379l-65 -303q-15 -71 -33 -116.5t-51 -85t-87 -58t-132 -18.5q-61 0 -105.5 12.5t-68 29.5t-37 43t-17 45t-3.5 43h182q2 -51 62 -51q40 0 62.5 26.5t37.5 94.5l5 24q-50 -51 -137 -51q-81 0 -125.5 53t-44.5 142q0 59 18 116.5t51 104.5t84.5 76.5t112.5 29.5
q52 0 85 -16t44 -40q8 23 17 44h178q-9 -34 -33 -145zM333 407q-35 0 -61.5 -33t-38.5 -75t-12 -82q0 -76 60 -76q77 0 107 143q6 33 7.5 60.5t-14 45t-48.5 17.5z" />
    <glyph glyph-name="h" unicode="h" horiz-adv-x="606" 
d="M2 0l153 724h185l-53 -254q60 66 149 66q82 0 117 -51t14 -152l-70 -333h-184l66 318q9 39 0 58.5t-41 19.5q-66 0 -87 -95l-64 -301h-185z" />
    <glyph glyph-name="i" unicode="i" horiz-adv-x="297" 
d="M2 0l111 524h185l-111 -524h-185zM126 589l29 136h185l-28 -136h-186z" />
    <glyph glyph-name="j" unicode="j" horiz-adv-x="298" 
d="M312 589h-185l29 136h185zM114 524h184l-111 -520q-24 -113 -68 -159.5t-143 -46.5q-40 0 -78 5l33 136q6 -1 15 -1q26 0 37 11.5t17 38.5z" />
    <glyph glyph-name="k" unicode="k" horiz-adv-x="586" 
d="M340 724l-86 -398q60 70 176 198h214q-123 -125 -211 -209q3 -8 53.5 -150t56.5 -165h-198q0 2 -56 206l-72 -60l-31 -146h-185l153 724h186z" />
    <glyph glyph-name="l" unicode="l" horiz-adv-x="297" 
d="M187 0h-185l153 724h185z" />
    <glyph glyph-name="m" unicode="m" horiz-adv-x="886" 
d="M2 0l78 372q24 114 30 152h181q-2 -26 -8 -54q61 66 148 66q98 0 118 -76q72 76 170 76q78 0 113.5 -49t13.5 -150l-71 -337h-181l69 325q13 71 -41 71q-33 0 -50.5 -23t-27.5 -72l-64 -301h-182l70 330q14 66 -41 66q-33 0 -51 -23t-29 -77l-63 -296h-182z" />
    <glyph glyph-name="n" unicode="n" horiz-adv-x="607" 
d="M2 0l80 380q21 99 28 144h183q-2 -29 -8 -55q60 67 152 67q173 0 127 -217l-67 -319h-184l66 318q19 78 -40 78q-69 0 -92 -110l-60 -286h-185z" />
    <glyph glyph-name="o" unicode="o" horiz-adv-x="607" 
d="M337 536q113 0 176.5 -60t63.5 -169q0 -55 -17 -108t-51.5 -101.5t-98.5 -78.5t-148 -30q-119 0 -176 61.5t-57 159.5q0 57 18.5 113t54.5 104.5t97 78.5t138 30zM329 410q-35 0 -62 -41t-37.5 -88t-10.5 -86q0 -82 58 -82q28 0 50.5 25t35 61.5t19 72t6.5 63.5
q0 75 -59 75z" />
    <glyph glyph-name="p" unicode="p" horiz-adv-x="626" 
d="M-39 -192l119 565q19 89 30 151h181q0 -7 -8 -58q59 70 151 70q75 0 119 -52.5t44 -150.5q0 -87 -31.5 -164t-98.5 -128.5t-156 -51.5q-85 0 -117 49l-49 -230h-184zM233 251q-29 -132 54 -132q38 0 66.5 37t41 82t12.5 83q0 81 -62 81q-80 0 -112 -151z" />
    <glyph glyph-name="q" unicode="q" horiz-adv-x="625" 
d="M292 -192l52 239q-55 -58 -147 -58q-76 0 -121.5 50t-45.5 147q0 137 76 243.5t197 106.5q98 0 128 -53q9 29 14 41h180q-15 -59 -40 -182l-114 -534h-179zM343 406q-38 0 -67 -38.5t-42 -85.5t-13 -87q0 -76 57 -76q83 0 116 161q15 57 4 91.5t-55 34.5z" />
    <glyph glyph-name="r" unicode="r" horiz-adv-x="424" 
d="M451 535l-38 -174q-81 4 -122 -31t-59 -117l-45 -213h-185l76 360q18 83 32 164h180q-2 -33 -14 -88q28 49 68 74t107 25z" />
    <glyph glyph-name="s" unicode="s" horiz-adv-x="534" 
d="M5 165h173q4 -55 70 -55q60 0 60 44q0 18 -18 29.5t-63 24.5q-98 28 -136 62.5t-38 88.5q0 77 60.5 127t172.5 50q115 0 172.5 -46.5t55.5 -118.5h-171q0 50 -61 50q-51 0 -51 -35q0 -16 19 -26t74 -26q91 -27 128.5 -65.5t37.5 -94.5q0 -63 -36.5 -105.5t-91.5 -61
t-125 -18.5q-114 0 -174 46t-58 130z" />
    <glyph glyph-name="t" unicode="t" horiz-adv-x="383" 
d="M38 398l28 126h72l31 136h181l-28 -136h88l-27 -126h-89l-48 -228q-6 -26 1.5 -37.5t35.5 -11.5q18 0 39 3l-25 -120q-37 -11 -112 -11q-90 0 -116 42.5t-10 123.5l51 239h-72z" />
    <glyph glyph-name="u" unicode="u" horiz-adv-x="603" 
d="M603 524l-79 -373q-18 -85 -29 -151h-182q2 31 8 61q-58 -72 -159 -72q-78 0 -111.5 50.5t-14.5 140.5l73 344h184l-69 -327q-16 -70 38 -70q71 0 96 120l59 277h186z" />
    <glyph glyph-name="v" unicode="v" horiz-adv-x="536" 
d="M46 524h185q11 -217 4 -360h3q48 126 158 360h189l-273 -524h-217z" />
    <glyph glyph-name="w" unicode="w" horiz-adv-x="803" 
d="M52 524h185q-5 -296 -11 -353h4q82 219 137 353h172q-10 -297 -16 -359h3q78 217 138 359h186l-257 -524h-200q0 185 11 306h-3q-15 -46 -123 -306h-200z" />
    <glyph glyph-name="x" unicode="x" horiz-adv-x="510" 
d="M36 524h190q2 -7 46 -150h1q11 16 44.5 67t55.5 83h200l-207 -253l102 -271h-193q-8 24 -17.5 55t-17.5 61t-10 36h-2q-26 -45 -101 -152h-197l209 268z" />
    <glyph glyph-name="y" unicode="y" horiz-adv-x="539" 
d="M43 524h185q13 -214 10 -376h3q60 157 159 376h188l-258 -503q-37 -75 -66.5 -117.5t-64.5 -67t-70.5 -31.5t-93.5 -7q-44 0 -81 7l30 137q24 -3 40 -3q58 0 82 40z" />
    <glyph glyph-name="z" unicode="z" horiz-adv-x="500" 
d="M-24 0l27 123q11 10 130.5 132t140.5 141h-214l28 128h422l-29 -128q-236 -245 -261 -267h243l-48 -129h-439z" />
    <glyph glyph-name="braceleft" unicode="{" horiz-adv-x="381" 
d="M12 206l28 136q62 0 85.5 21t34.5 72l25 115q21 97 75 135t138 38h48l-24 -114h-17q-35 0 -50.5 -17t-23.5 -53l-26 -119q-14 -65 -47.5 -103t-98.5 -47q110 -24 80 -162l-19 -87q-10 -42 -1 -64.5t45 -22.5h14l-24 -113h-28q-85 0 -131 44t-24 150l20 99
q10 48 -4.5 69.5t-74.5 22.5z" />
    <glyph glyph-name="bar" unicode="|" horiz-adv-x="305" 
d="M71 781h145v-1042h-145v1042z" />
    <glyph glyph-name="braceright" unicode="}" horiz-adv-x="381" 
d="M375 338l-28 -136q-62 0 -85.5 -21t-34.5 -72l-25 -115q-21 -97 -75 -135t-138 -38h-48l24 114h17q35 0 50 17t23 53l26 119q15 66 48.5 104t98.5 46q-110 24 -80 162l19 87q10 42 0.5 64.5t-45.5 22.5h-14l25 113h27q85 0 131.5 -44t24.5 -150l-21 -99q-10 -48 5 -69.5
t75 -22.5z" />
    <glyph glyph-name="asciitilde" unicode="~" horiz-adv-x="685" 
d="M197 180h-121v43q0 89 39 126t97 37q43 0 93.5 -20.5t90.5 -41t58 -20.5q17 0 26 12t9 44v18h120v-33q0 -175 -132 -175q-54 0 -140 40.5t-106 40.5q-34 0 -34 -51v-20z" />
    <glyph glyph-name="uni00A0" unicode="&#xa0;" horiz-adv-x="223" 
 />
    <glyph glyph-name="exclamdown" unicode="&#xa1;" horiz-adv-x="318" 
d="M74 261h149l-41 -308l-25 -118h-197l25 119zM114 524h183l-40 -190h-183z" />
    <glyph glyph-name="cent" unicode="&#xa2;" horiz-adv-x="573" 
d="M362 244h174q-40 -159 -207 -183l-16 -71h-132l16 72q-72 17 -107.5 69t-35.5 129q0 123 66.5 211.5t186.5 105.5l13 59h130l-14 -65q52 -13 83.5 -45.5t40.5 -68.5t4 -76h-172q5 77 -49 77q-26 0 -47.5 -22.5t-32.5 -56t-17 -66t-6 -57.5q0 -79 51 -79q26 0 42 16.5
t29 50.5z" />
    <glyph glyph-name="sterling" unicode="&#xa3;" horiz-adv-x="561" 
d="M474 0h-494l25 122q44 16 63.5 50.5t29.5 100.5h-84l22 110h74q1 6 2 18t2.5 23t2.5 22q28 225 240 225q60 0 103 -17.5t64 -46t29 -61t4 -68.5h-155q0 67 -47 67q-25 0 -37.5 -18t-17.5 -56q-4 -28 -12 -88h125l-24 -110h-116q-15 -92 -60 -134h309z" />
    <glyph glyph-name="currency" unicode="&#xa4;" horiz-adv-x="555" 
d="M332 550q55 0 99 -28l84 72l69 -99l-87 -75q8 -40 -1 -88q-11 -54 -36 -97l61 -75l-109 -97l-54 70q-52 -26 -108 -26q-55 0 -99 27l-80 -71l-71 100l83 71q-10 41 -1 94q9 51 37 98l-53 72l110 96l51 -69q48 25 105 25zM305 424q-67 0 -85 -95q-9 -53 7.5 -75t45.5 -22
q68 0 86 99q15 93 -54 93z" />
    <glyph glyph-name="yen" unicode="&#xa5;" horiz-adv-x="525" 
d="M443 149h-119l-31 -149h-181l32 149h-117l19 87h116l10 44h-116l19 87h96l-102 292h193q27 -132 35 -221h2q32 72 129 221h194l-231 -292h100l-20 -87h-119l-9 -44h119z" />
    <glyph glyph-name="brokenbar" unicode="&#xa6;" horiz-adv-x="265" 
d="M59 689h138v-356h-138v356zM59 179h138v-358h-138v358z" />
    <glyph glyph-name="section" unicode="&#xa7;" horiz-adv-x="602" 
d="M225 356q-40 -24 -40 -61q0 -41 61 -71q109 -52 112 -54q35 24 35 63q0 25 -18 43t-56 36q-18 9 -51 24t-43 20zM574 518h-157q1 27 -13.5 45.5t-53.5 18.5q-62 0 -62 -45q0 -18 17.5 -30t75.5 -39q95 -42 134.5 -85t39.5 -110q0 -116 -109 -182q22 -26 22 -79
q0 -96 -68 -144.5t-184 -48.5q-111 0 -175 50t-55 144h168q-2 -35 18 -54.5t58 -19.5q65 0 65 48q0 20 -18 34.5t-74 39.5q-99 42 -138 84t-39 103q0 119 117 178q-21 30 -21 75q0 90 60.5 145t174.5 55q121 0 174 -51t43 -132z" />
    <glyph glyph-name="dieresis" unicode="&#xa8;" 
d="M224 584h-144l31 141h143zM430 584h-144l31 141h143z" />
    <glyph glyph-name="copyright" unicode="&#xa9;" horiz-adv-x="767" 
d="M400 695q145 0 242.5 -97t97.5 -253q0 -155 -97.5 -253t-242.5 -98q-148 0 -245.5 96t-97.5 255q0 152 98 251t245 99zM399 627q-117 0 -191.5 -76.5t-74.5 -205.5q0 -121 76 -200.5t190 -79.5q116 0 190 72.5t74 206.5q0 127 -75.5 205t-188.5 78zM461 300h111
q-22 -141 -172 -141q-84 0 -128.5 50.5t-44.5 137.5q0 85 46.5 138t132.5 53q82 0 122 -43t43 -102h-109q-10 54 -58 54q-63 0 -63 -94q0 -103 62 -103q45 0 58 50z" />
    <glyph glyph-name="ordfeminine" unicode="&#xaa;" horiz-adv-x="395" 
d="M405 477l-26 -126l-17 -90h-126q2 16 6 36q-35 -42 -102 -42q-44 0 -70 25.5t-26 66.5q0 115 165 127q36 3 69 3l3 14q5 34 -30 34q-32 0 -41 -31h-123q9 46 51 77.5t121 31.5q83 0 121 -31t25 -95zM261 397l2 9q-22 0 -41 -3q-47 -6 -47 -38q0 -24 29 -24q24 0 39 17
t18 39z" />
    <glyph glyph-name="guillemotleft" unicode="&#xab;" horiz-adv-x="600" 
d="M369 462l-185 -206l93 -193h-137l-98 199l180 200h147zM605 462l-183 -206l91 -193h-137l-96 199l178 200h147z" />
    <glyph glyph-name="logicalnot" unicode="&#xac;" horiz-adv-x="684" 
d="M66 413h547v-353h-140v217h-407v136z" />
    <glyph glyph-name="uni00AD" unicode="&#xad;" horiz-adv-x="372" 
d="M60 331h283l-31 -143h-282z" />
    <glyph glyph-name="registered" unicode="&#xae;" horiz-adv-x="325" 
d="M231 702q74 0 119 -47.5t45 -117.5q0 -76 -45.5 -121.5t-118.5 -45.5q-68 0 -114.5 47t-46.5 120q0 71 45 118t116 47zM231 661q-53 0 -84.5 -35t-31.5 -90q0 -54 33 -89t83 -35q58 0 88.5 32.5t30.5 91.5q0 56 -32.5 90.5t-86.5 34.5zM217 463h-54v152h83q64 0 64 -43
q0 -28 -26 -36q21 -8 21 -39q0 -18 2 -34h-55q-3 7 -3 32q0 12 -4.5 16.5t-16.5 4.5h-11v-53zM220 579v-27h15q17 0 17 14q0 13 -18 13h-14z" />
    <glyph glyph-name="macron" unicode="&#xaf;" 
d="M133 711h309l-25 -121h-309z" />
    <glyph glyph-name="degree" unicode="&#xb0;" horiz-adv-x="348" 
d="M250 680q62 0 96.5 -35t34.5 -90q0 -74 -47.5 -121t-123.5 -47q-59 0 -93.5 35t-34.5 92q0 72 47.5 119t120.5 47zM240 607q-33 0 -52 -25.5t-19 -60.5q0 -26 14 -42.5t39 -16.5q30 0 49.5 24.5t19.5 61.5q0 59 -51 59z" />
    <glyph glyph-name="plusminus" unicode="&#xb1;" horiz-adv-x="680" 
d="M274 680h133v-182h206v-129h-206v-181h-133v181h-208v129h208v182zM614 0h-547v131h547v-131z" />
    <glyph glyph-name="two.sups" unicode="&#xb2;" horiz-adv-x="388" 
d="M339 429h-325l3 16q12 59 43.5 103.5t113.5 87.5l22.5 12.5t19.5 11t15 8.5t13 8.5t8 8.5t5.5 9.5t1.5 10.5q0 29 -31 29q-35 0 -48 -50h-123q29 148 187 148q78 0 117 -36.5t39 -83.5q0 -46 -25 -75.5t-87 -58.5q-67 -32 -83 -52h172z" />
    <glyph glyph-name="three.sups" unicode="&#xb3;" horiz-adv-x="395" 
d="M31 557h130q0 -43 42 -43q44 0 44 40q0 34 -47 34h-33l20 91h29q46 0 46 37q0 27 -30 27q-33 0 -45 -35h-121q27 124 180 124q74 0 114 -29.5t40 -75.5q0 -65 -70 -88q18 -6 38 -26t20 -53q0 -63 -51.5 -99t-136.5 -36q-50 0 -86.5 13.5t-53.5 34.5t-24 42.5t-5 41.5z
" />
    <glyph glyph-name="acute" unicode="&#xb4;" 
d="M319 733h214l-212 -145h-160z" />
    <glyph glyph-name="uni00B5" unicode="&#xb5;" horiz-adv-x="599" 
d="M35 180l73 344h186l-67 -312q-18 -83 37 -83q33 0 55 26t35 87l60 282h187l-77 -362q-27 -129 -32 -162h-173q0 26 4 54q-45 -65 -119 -65q-28 0 -44 10q-12 -57 -38 -195h-169q64 291 82 376z" />
    <glyph glyph-name="paragraph" unicode="&#xb6;" horiz-adv-x="631" 
d="M441 -153h-117l58 275h-95q-132 0 -190 81.5t-31 210.5q25 114 102 176.5t197 62.5h131q10 38 24 59h108q-12 -44 -21 -89zM383 247h26l61 289h-37q-72 0 -102 -135q-32 -154 52 -154z" />
    <glyph glyph-name="periodcentered" unicode="&#xb7;" horiz-adv-x="262" 
d="M206 200h-180l41 198h180z" />
    <glyph glyph-name="cedilla" unicode="&#xb8;" 
d="M106 8l107 -6l-47 -40q77 -24 77 -89q0 -57 -43.5 -85t-114.5 -28q-59 0 -103 14l21 82q25 -7 55 -7q42 0 42 20q0 23 -74 29l9 43z" />
    <glyph glyph-name="one.sups" unicode="&#xb9;" horiz-adv-x="277" 
d="M204 429h-141l56 264q-21 0 -58 5l20 93q74 2 114 38h94z" />
    <glyph glyph-name="ordmasculine" unicode="&#xba;" horiz-adv-x="413" 
d="M265 603q78 0 121 -39t43 -101q0 -94 -58 -150.5t-154 -56.5q-75 0 -118 39.5t-43 104.5q0 84 57.5 143.5t151.5 59.5zM257 510q-30 0 -47.5 -38.5t-17.5 -75.5q0 -50 37 -50q32 0 49 39t17 79q0 46 -38 46z" />
    <glyph glyph-name="guillemotright" unicode="&#xbb;" horiz-adv-x="600" 
d="M234 63l185 206l-93 193h137l98 -199l-180 -200h-147zM-2 63l183 206l-91 193h137l96 -199l-178 -200h-147z" />
    <glyph glyph-name="onequarter" unicode="&#xbc;" horiz-adv-x="844" 
d="M192 0h-110l527 660h105zM221 262h-141l56 264q-20 0 -58 5l20 93q74 2 114 38h94zM721 0h-127l17 84h-187l21 98l185 214h175l-46 -217h54l-29 -95h-45zM564 179h67l9 38q14 60 21 84q-37 -49 -97 -122z" />
    <glyph glyph-name="onehalf" unicode="&#xbd;" horiz-adv-x="873" 
d="M190 0h-110l527 660h105zM220 262h-141l56 264q-21 0 -58 5l20 93q74 2 114 38h94zM783 0h-325l3 16q12 59 43.5 103.5t113.5 87.5l22.5 12.5t19.5 11t15 8.5t13 8.5t8 8.5t5.5 9.5t1.5 10.5q0 29 -31 29q-35 0 -48 -50h-123q29 148 187 148q78 0 117 -36.5t39 -83.5
q0 -46 -25 -75.5t-87 -58.5q-67 -32 -83 -52h172z" />
    <glyph glyph-name="threequarters" unicode="&#xbe;" horiz-adv-x="966" 
d="M315 0h-110l527 660h105zM841 0h-127l17 84h-187l21 98l185 214h175l-46 -217h54l-29 -95h-45zM684 179h67l9 38q14 60 21 84q-37 -49 -97 -122zM49 390h130q0 -43 42 -43q44 0 44 40q0 34 -47 34h-33l20 91h29q46 0 46 37q0 27 -30 27q-33 0 -45 -35h-121
q27 124 180 124q74 0 114 -29.5t40 -75.5q0 -65 -70 -88q18 -6 38 -26t20 -53q0 -63 -51.5 -99t-136.5 -36q-50 0 -86.5 13.5t-53.5 34.5t-24 42.5t-5 41.5z" />
    <glyph glyph-name="questiondown" unicode="&#xbf;" horiz-adv-x="528" 
d="M184 293h184q2 -10 -4 -36q-9 -48 -37 -85t-91 -83q-24 -18 -36.5 -28t-26 -28t-13.5 -35q-2 -50 45 -50q29 0 46 20t28 61h172q-39 -205 -260 -205q-113 0 -165.5 47.5t-52.5 117.5q0 60 32.5 104t101.5 91q65 44 75 94q2 4 2 15zM232 524h188l-38 -181h-188z" />
    <glyph glyph-name="Agrave" unicode="&#xc0;" horiz-adv-x="669" 
d="M420 143h-206l-67 -143h-200l355 689h251l71 -689h-192zM276 285h142q-15 176 -18 267h-2q-38 -92 -122 -267zM178 878h215l132 -136h-164z" />
    <glyph glyph-name="Aacute" unicode="&#xc1;" horiz-adv-x="669" 
d="M420 143h-206l-67 -143h-200l355 689h251l71 -689h-192zM276 285h142q-15 176 -18 267h-2q-38 -92 -122 -267zM502 878h228l-222 -136h-169z" />
    <glyph glyph-name="Acircumflex" unicode="&#xc2;" horiz-adv-x="669" 
d="M420 143h-206l-67 -143h-200l355 689h251l71 -689h-192zM276 285h142q-15 176 -18 267h-2q-38 -92 -122 -267zM371 870h178l89 -137h-153l-39 63l-63 -63h-162z" />
    <glyph glyph-name="Atilde" unicode="&#xc3;" horiz-adv-x="669" 
d="M420 143h-206l-67 -143h-200l355 689h251l71 -689h-192zM276 285h142q-15 176 -18 267h-2q-38 -92 -122 -267zM353 736h-103l6 35q11 65 41.5 88.5t75.5 23.5q33 0 82 -19t60 -19q21 0 25 29l2 9h102l-5 -32q-12 -70 -42.5 -94.5t-76.5 -24.5q-33 0 -82.5 18.5
t-59.5 18.5q-19 0 -23 -20z" />
    <glyph glyph-name="Adieresis" unicode="&#xc4;" horiz-adv-x="669" 
d="M420 143h-206l-67 -143h-200l355 689h251l71 -689h-192zM276 285h142q-15 176 -18 267h-2q-38 -92 -122 -267zM397 744h-143l30 141h143zM612 744h-143l30 141h144z" />
    <glyph glyph-name="Aring" unicode="&#xc5;" horiz-adv-x="669" 
d="M420 143h-206l-67 -143h-200l355 689h251l71 -689h-192zM276 285h142q-15 176 -18 267h-2q-38 -92 -122 -267zM427 726q-55 0 -84 26t-29 66q0 54 40.5 85t100.5 31q56 0 85 -26.5t29 -67.5q0 -53 -40 -83.5t-102 -30.5zM436 795q19 0 33 10.5t14 29.5q0 31 -36 31
q-19 0 -32.5 -11t-13.5 -30q0 -11 8.5 -20.5t26.5 -9.5z" />
    <glyph glyph-name="AE" unicode="&#xc6;" horiz-adv-x="974" 
d="M407 689h609l-30 -143h-311l-25 -121h298l-31 -143h-298l-29 -139h340l-53 -143h-501l35 169h-188l-119 -169h-200zM327 312h115l50 233h-4z" />
    <glyph glyph-name="Ccedilla" unicode="&#xc7;" horiz-adv-x="692" 
d="M464 230h195q-63 -219 -289 -241l-32 -27q77 -24 77 -89q0 -57 -43.5 -85t-114.5 -28q-59 0 -103 14l21 82q25 -7 55 -7q42 0 42 20q0 23 -74 29l9 43l53 50q-105 17 -159.5 89.5t-54.5 188.5q0 57 13 115.5t42.5 116t72.5 102t109.5 72t147.5 27.5q131 0 201.5 -65
t69.5 -177h-194q0 102 -92 102q-54 0 -94 -52.5t-57 -119t-17 -130.5q0 -133 93 -133q47 0 75 27t48 76z" />
    <glyph glyph-name="Egrave" unicode="&#xc8;" horiz-adv-x="614" 
d="M588 425l-31 -143h-298l-30 -139h341l-51 -143h-505l146 689h496l-30 -143h-311l-25 -121h298zM155 878h215l132 -136h-164z" />
    <glyph glyph-name="Eacute" unicode="&#xc9;" horiz-adv-x="614" 
d="M588 425l-31 -143h-298l-30 -139h341l-51 -143h-505l146 689h496l-30 -143h-311l-25 -121h298zM476 878h228l-222 -136h-169z" />
    <glyph glyph-name="Ecircumflex" unicode="&#xca;" horiz-adv-x="614" 
d="M588 425l-31 -143h-298l-30 -139h341l-51 -143h-505l146 689h496l-30 -143h-311l-25 -121h298zM353 877h178l89 -137h-153l-39 63l-63 -63h-162z" />
    <glyph glyph-name="Edieresis" unicode="&#xcb;" horiz-adv-x="614" 
d="M588 425l-31 -143h-298l-30 -139h341l-51 -143h-505l146 689h496l-30 -143h-311l-25 -121h298zM377 749h-143l30 141h143zM592 749h-143l30 141h144z" />
    <glyph glyph-name="Igrave" unicode="&#xcc;" horiz-adv-x="330" 
d="M160 689h192l-146 -689h-192zM6 878h215l132 -136h-164z" />
    <glyph glyph-name="Iacute" unicode="&#xcd;" horiz-adv-x="330" 
d="M160 689h192l-146 -689h-192zM331 878h228l-222 -136h-169z" />
    <glyph glyph-name="Icircumflex" unicode="&#xce;" horiz-adv-x="330" 
d="M160 689h192l-146 -689h-192zM208 877h178l89 -137h-153l-39 63l-63 -63h-162z" />
    <glyph glyph-name="Idieresis" unicode="&#xcf;" horiz-adv-x="330" 
d="M160 689h192l-146 -689h-192zM229 749h-143l30 141h143zM444 749h-143l30 141h144z" />
    <glyph glyph-name="Eth" unicode="&#xd0;" horiz-adv-x="741" 
d="M39 402h70l61 287h250q143 0 223 -78.5t80 -213.5q0 -61 -14.5 -117.5t-46 -108t-78 -89t-115 -60t-152.5 -22.5h-293l63 296h-71zM333 551l-32 -149h122l-22 -106h-122l-34 -158h83q89 0 142 77.5t53 187.5q0 148 -126 148h-64z" />
    <glyph glyph-name="Ntilde" unicode="&#xd1;" horiz-adv-x="737" 
d="M192 0h-179l146 689h235q10 -48 35.5 -165t39.5 -189.5t19 -114.5h3q13 100 58 316l33 153h177l-146 -689h-224q-6 30 -25.5 120.5t-31.5 148.5t-24.5 125.5t-15.5 98.5h-3q-10 -74 -63 -332zM389 742h-103l6 35q11 65 41.5 88.5t75.5 23.5q33 0 82 -19t60 -19
q21 0 25 29l2 9h102l-5 -32q-12 -70 -42.5 -94.5t-76.5 -24.5q-33 0 -82.5 18.5t-59.5 18.5q-19 0 -23 -20z" />
    <glyph glyph-name="Ograve" unicode="&#xd2;" horiz-adv-x="751" 
d="M437 702q145 0 219.5 -82t74.5 -210q0 -80 -23 -153.5t-68.5 -135t-123.5 -98t-180 -36.5q-143 0 -215.5 79.5t-72.5 202.5q0 63 15 124.5t47 117.5t77 98.5t109.5 67.5t140.5 25zM428 562q-58 0 -101.5 -50.5t-62 -116.5t-18.5 -130t27.5 -101t83.5 -37q47 0 83.5 29.5
t56 76t29.5 95t10 94.5q0 140 -108 140zM222 882h215l132 -136h-164z" />
    <glyph glyph-name="Oacute" unicode="&#xd3;" horiz-adv-x="751" 
d="M437 702q145 0 219.5 -82t74.5 -210q0 -80 -23 -153.5t-68.5 -135t-123.5 -98t-180 -36.5q-143 0 -215.5 79.5t-72.5 202.5q0 63 15 124.5t47 117.5t77 98.5t109.5 67.5t140.5 25zM428 562q-58 0 -101.5 -50.5t-62 -116.5t-18.5 -130t27.5 -101t83.5 -37q47 0 83.5 29.5
t56 76t29.5 95t10 94.5q0 140 -108 140zM499 882h228l-222 -136h-169z" />
    <glyph glyph-name="Ocircumflex" unicode="&#xd4;" horiz-adv-x="751" 
d="M437 702q145 0 219.5 -82t74.5 -210q0 -80 -23 -153.5t-68.5 -135t-123.5 -98t-180 -36.5q-143 0 -215.5 79.5t-72.5 202.5q0 63 15 124.5t47 117.5t77 98.5t109.5 67.5t140.5 25zM428 562q-58 0 -101.5 -50.5t-62 -116.5t-18.5 -130t27.5 -101t83.5 -37q47 0 83.5 29.5
t56 76t29.5 95t10 94.5q0 140 -108 140zM402 881h178l89 -137h-153l-39 63l-63 -63h-162z" />
    <glyph glyph-name="Otilde" unicode="&#xd5;" horiz-adv-x="751" 
d="M437 702q145 0 219.5 -82t74.5 -210q0 -80 -23 -153.5t-68.5 -135t-123.5 -98t-180 -36.5q-143 0 -215.5 79.5t-72.5 202.5q0 63 15 124.5t47 117.5t77 98.5t109.5 67.5t140.5 25zM428 562q-58 0 -101.5 -50.5t-62 -116.5t-18.5 -130t27.5 -101t83.5 -37q47 0 83.5 29.5
t56 76t29.5 95t10 94.5q0 140 -108 140zM376 747h-103l6 35q11 65 41.5 88.5t75.5 23.5q33 0 82 -19t60 -19q21 0 25 29l2 9h102l-5 -32q-12 -70 -42.5 -94.5t-76.5 -24.5q-33 0 -82.5 18.5t-59.5 18.5q-19 0 -23 -20z" />
    <glyph glyph-name="Odieresis" unicode="&#xd6;" horiz-adv-x="751" 
d="M437 702q145 0 219.5 -82t74.5 -210q0 -80 -23 -153.5t-68.5 -135t-123.5 -98t-180 -36.5q-143 0 -215.5 79.5t-72.5 202.5q0 63 15 124.5t47 117.5t77 98.5t109.5 67.5t140.5 25zM428 562q-58 0 -101.5 -50.5t-62 -116.5t-18.5 -130t27.5 -101t83.5 -37q47 0 83.5 29.5
t56 76t29.5 95t10 94.5q0 140 -108 140zM433 749h-143l30 141h143zM648 749h-143l30 141h144z" />
    <glyph glyph-name="multiply" unicode="&#xd7;" horiz-adv-x="679" 
d="M611 91l-87 -91l-184 190l-183 -190l-88 91l184 189l-184 190l85 89l186 -190l185 190l86 -89l-184 -191z" />
    <glyph glyph-name="Oslash" unicode="&#xd8;" horiz-adv-x="751" 
d="M443 702q108 0 178 -50l35 39h93l-77 -86q60 -75 60 -189q0 -81 -23.5 -155.5t-70 -136.5t-126 -99.5t-181.5 -37.5q-101 0 -171 46l-31 -35h-95l74 83q-59 74 -59 188q0 83 25.5 159.5t73 138t124 98.5t171.5 37zM428 566q-58 0 -103.5 -50.5t-66.5 -117t-21 -127.5
q0 -23 3 -43l272 303q-29 35 -84 35zM352 123q47 0 85.5 29.5t61 76t34.5 97t12 97.5q0 19 -3 37l-271 -303q31 -34 81 -34z" />
    <glyph glyph-name="Ugrave" unicode="&#xd9;" horiz-adv-x="713" 
d="M151 689h192l-93 -434q-14 -62 7.5 -95t75.5 -33q55 0 80.5 28t40.5 91l93 443h193l-93 -435q-31 -139 -104 -202.5t-227 -63.5q-149 0 -216.5 70.5t-36.5 218.5zM193 872h215l132 -136h-164z" />
    <glyph glyph-name="Uacute" unicode="&#xda;" horiz-adv-x="713" 
d="M151 689h192l-93 -434q-14 -62 7.5 -95t75.5 -33q55 0 80.5 28t40.5 91l93 443h193l-93 -435q-31 -139 -104 -202.5t-227 -63.5q-149 0 -216.5 70.5t-36.5 218.5zM506 871h228l-222 -136h-169z" />
    <glyph glyph-name="Ucircumflex" unicode="&#xdb;" horiz-adv-x="713" 
d="M151 689h192l-93 -434q-14 -62 7.5 -95t75.5 -33q55 0 80.5 28t40.5 91l93 443h193l-93 -435q-31 -139 -104 -202.5t-227 -63.5q-149 0 -216.5 70.5t-36.5 218.5zM393 877h178l89 -137h-153l-39 63l-63 -63h-162z" />
    <glyph glyph-name="Udieresis" unicode="&#xdc;" horiz-adv-x="713" 
d="M151 689h192l-93 -434q-14 -62 7.5 -95t75.5 -33q55 0 80.5 28t40.5 91l93 443h193l-93 -435q-31 -139 -104 -202.5t-227 -63.5q-149 0 -216.5 70.5t-36.5 218.5zM414 749h-143l30 141h143zM629 749h-143l30 141h144z" />
    <glyph glyph-name="Yacute" unicode="&#xdd;" horiz-adv-x="606" 
d="M335 0h-194l52 245q3 15 -1 26l-140 418h198q63 -259 70 -300q20 36 53.5 88t77.5 118t62 94h206l-324 -430q-8 -10 -11 -26zM449 878h228l-222 -136h-169z" />
    <glyph glyph-name="Thorn" unicode="&#xde;" horiz-adv-x="655" 
d="M12 0l146 689h189l-26 -122h100q92 0 158.5 -48.5t66.5 -143.5q0 -127 -83.5 -188t-224.5 -61h-109l-27 -126h-190zM293 437l-38 -181h84q55 0 85 28.5t30 77.5q0 75 -87 75h-74z" />
    <glyph glyph-name="germandbls" unicode="&#xdf;" horiz-adv-x="664" 
d="M294 505l-108 -505h-186l106 501q27 124 94 179t202 55q131 0 198 -53.5t67 -128.5q0 -35 -10 -64l-152 -87l-1 -4l30 -29q48 -47 70 -87.5t22 -89.5q0 -39 -13 -74t-39.5 -65t-73 -47.5t-107.5 -17.5q-101 0 -163 44l29 135q57 -49 126 -49q60 0 60 53q0 36 -45 79
l-41 40q-50 46 -44.5 93.5t66.5 87.5l100 60q2 8 2 17q0 25 -21 41.5t-64 16.5q-42 0 -67 -21.5t-37 -79.5z" />
    <glyph glyph-name="agrave" unicode="&#xe0;" horiz-adv-x="592" 
d="M553 337l-42 -194q-24 -109 -27 -143h-178q0 7 6 54q-27 -31 -61 -48t-93 -17q-69 0 -107.5 39.5t-38.5 97.5q0 177 250 202q30 2 108 5l4 24q14 66 -47 66q-8 0 -15 -1t-12.5 -3.5t-9.5 -4t-8 -6t-6 -6t-5 -7.5t-4 -7.5t-4 -8.5t-3 -8h-180q38 165 258 165
q124 0 180 -50.5t35 -148.5zM345 217l3 13q-42 0 -72 -6q-76 -15 -76 -64q0 -19 12.5 -31t35.5 -12q25 0 43 8.5t28.5 25.5t15.5 30.5t10 35.5zM159 733h192l100 -145h-146z" />
    <glyph glyph-name="aacute" unicode="&#xe1;" horiz-adv-x="592" 
d="M553 337l-42 -194q-24 -109 -27 -143h-178q0 7 6 54q-27 -31 -61 -48t-93 -17q-69 0 -107.5 39.5t-38.5 97.5q0 177 250 202q30 2 108 5l4 24q14 66 -47 66q-8 0 -15 -1t-12.5 -3.5t-9.5 -4t-8 -6t-6 -6t-5 -7.5t-4 -7.5t-4 -8.5t-3 -8h-180q38 165 258 165
q124 0 180 -50.5t35 -148.5zM345 217l3 13q-42 0 -72 -6q-76 -15 -76 -64q0 -19 12.5 -31t35.5 -12q25 0 43 8.5t28.5 25.5t15.5 30.5t10 35.5zM418 735h214l-212 -145h-160z" />
    <glyph glyph-name="acircumflex" unicode="&#xe2;" horiz-adv-x="592" 
d="M553 337l-42 -194q-24 -109 -27 -143h-178q0 7 6 54q-27 -31 -61 -48t-93 -17q-69 0 -107.5 39.5t-38.5 97.5q0 177 250 202q30 2 108 5l4 24q14 66 -47 66q-8 0 -15 -1t-12.5 -3.5t-9.5 -4t-8 -6t-6 -6t-5 -7.5t-4 -7.5t-4 -8.5t-3 -8h-180q38 165 258 165
q124 0 180 -50.5t35 -148.5zM345 217l3 13q-42 0 -72 -6q-76 -15 -76 -64q0 -19 12.5 -31t35.5 -12q25 0 43 8.5t28.5 25.5t15.5 30.5t10 35.5zM306 720h164l74 -140h-146l-28 63l-51 -63h-150z" />
    <glyph glyph-name="atilde" unicode="&#xe3;" horiz-adv-x="592" 
d="M553 337l-42 -194q-24 -109 -27 -143h-178q0 7 6 54q-27 -31 -61 -48t-93 -17q-69 0 -107.5 39.5t-38.5 97.5q0 177 250 202q30 2 108 5l4 24q14 66 -47 66q-8 0 -15 -1t-12.5 -3.5t-9.5 -4t-8 -6t-6 -6t-5 -7.5t-4 -7.5t-4 -8.5t-3 -8h-180q38 165 258 165
q124 0 180 -50.5t35 -148.5zM345 217l3 13q-42 0 -72 -6q-76 -15 -76 -64q0 -19 12.5 -31t35.5 -12q25 0 43 8.5t28.5 25.5t15.5 30.5t10 35.5zM290 584h-104l8 39q12 66 40 87.5t70 21.5q34 0 78 -20.5t56 -20.5q19 0 26 30l2 11h102l-6 -31q-12 -73 -42 -97t-76 -24
q-32 0 -75 19t-53 19q-19 0 -23 -22z" />
    <glyph glyph-name="adieresis" unicode="&#xe4;" horiz-adv-x="592" 
d="M553 337l-42 -194q-24 -109 -27 -143h-178q0 7 6 54q-27 -31 -61 -48t-93 -17q-69 0 -107.5 39.5t-38.5 97.5q0 177 250 202q30 2 108 5l4 24q14 66 -47 66q-8 0 -15 -1t-12.5 -3.5t-9.5 -4t-8 -6t-6 -6t-5 -7.5t-4 -7.5t-4 -8.5t-3 -8h-180q38 165 258 165
q124 0 180 -50.5t35 -148.5zM345 217l3 13q-42 0 -72 -6q-76 -15 -76 -64q0 -19 12.5 -31t35.5 -12q25 0 43 8.5t28.5 25.5t15.5 30.5t10 35.5zM326 589h-144l31 141h143zM532 589h-144l31 141h143z" />
    <glyph glyph-name="aring" unicode="&#xe5;" horiz-adv-x="592" 
d="M553 337l-42 -194q-24 -109 -27 -143h-178q0 7 6 54q-27 -31 -61 -48t-93 -17q-69 0 -107.5 39.5t-38.5 97.5q0 177 250 202q30 2 108 5l4 24q14 66 -47 66q-8 0 -15 -1t-12.5 -3.5t-9.5 -4t-8 -6t-6 -6t-5 -7.5t-4 -7.5t-4 -8.5t-3 -8h-180q38 165 258 165
q124 0 180 -50.5t35 -148.5zM345 217l3 13q-42 0 -72 -6q-76 -15 -76 -64q0 -19 12.5 -31t35.5 -12q25 0 43 8.5t28.5 25.5t15.5 30.5t10 35.5zM356 567q-55 0 -84 26t-29 66q0 54 40.5 85t100.5 31q56 0 85 -26.5t29 -67.5q0 -53 -40 -83.5t-102 -30.5zM365 636
q19 0 33 10.5t14 29.5q0 31 -36 31q-19 0 -32.5 -11t-13.5 -30q0 -11 8.5 -20.5t26.5 -9.5z" />
    <glyph glyph-name="ae" unicode="&#xe6;" horiz-adv-x="900" 
d="M656 536q112 0 165.5 -56.5t53.5 -146.5q0 -41 -17 -107h-331q-4 -12 -4 -32q0 -80 63 -80q57 0 83 62h179q-28 -89 -92 -138t-188 -49q-121 0 -177 74q-41 -40 -88 -57t-117 -17q-80 0 -126 40t-46 109q0 92 68.5 142t206.5 50h78l5 18q16 69 -41 69q-49 0 -64 -58h-186
q41 177 255 177q112 0 159 -47q66 47 161 47zM345 207l4 19h-59q-37 0 -62 -15t-25 -47q0 -17 11.5 -29.5t35.5 -12.5q76 0 95 85zM549 330h146q3 14 3 26q0 58 -57 58q-67 0 -92 -84z" />
    <glyph glyph-name="ccedilla" unicode="&#xe7;" horiz-adv-x="575" 
d="M350 188h182q-45 -175 -227 -196l-32 -27q77 -24 77 -89q0 -57 -43.5 -85t-114.5 -28q-59 0 -103 14l21 82q25 -7 55 -7q42 0 42 20q0 23 -74 29l9 43l52 50q-81 13 -122.5 66.5t-41.5 136.5q0 60 18 118t52.5 108.5t95 81.5t136.5 31q67 0 115.5 -19.5t72 -51.5
t33 -65.5t6.5 -66.5h-181q3 38 -7 59t-43 21q-35 0 -61 -40.5t-37 -90.5t-11 -94q0 -78 53 -78q51 0 78 78z" />
    <glyph glyph-name="egrave" unicode="&#xe8;" horiz-adv-x="590" 
d="M549 224h-331q-3 -14 -3 -27q-4 -84 60 -84q50 0 75 54h186q-26 -77 -93.5 -127.5t-180.5 -50.5q-119 0 -175.5 60.5t-56.5 159.5q0 54 16 108t49.5 105t94.5 82.5t141 31.5q119 0 176 -57.5t57 -154.5q0 -48 -15 -100zM239 326h147q2 10 2 25q0 64 -58 64q-68 0 -91 -89
zM152 733h192l100 -145h-146z" />
    <glyph glyph-name="eacute" unicode="&#xe9;" horiz-adv-x="590" 
d="M549 224h-331q-3 -14 -3 -27q-4 -84 60 -84q50 0 75 54h186q-26 -77 -93.5 -127.5t-180.5 -50.5q-119 0 -175.5 60.5t-56.5 159.5q0 54 16 108t49.5 105t94.5 82.5t141 31.5q119 0 176 -57.5t57 -154.5q0 -48 -15 -100zM239 326h147q2 10 2 25q0 64 -58 64q-68 0 -91 -89
zM413 733h214l-212 -145h-160z" />
    <glyph glyph-name="ecircumflex" unicode="&#xea;" horiz-adv-x="590" 
d="M549 224h-331q-3 -14 -3 -27q-4 -84 60 -84q50 0 75 54h186q-26 -77 -93.5 -127.5t-180.5 -50.5q-119 0 -175.5 60.5t-56.5 159.5q0 54 16 108t49.5 105t94.5 82.5t141 31.5q119 0 176 -57.5t57 -154.5q0 -48 -15 -100zM239 326h147q2 10 2 25q0 64 -58 64q-68 0 -91 -89
zM303 723h164l74 -140h-146l-28 63l-51 -63h-150z" />
    <glyph glyph-name="edieresis" unicode="&#xeb;" horiz-adv-x="590" 
d="M549 224h-331q-3 -14 -3 -27q-4 -84 60 -84q50 0 75 54h186q-26 -77 -93.5 -127.5t-180.5 -50.5q-119 0 -175.5 60.5t-56.5 159.5q0 54 16 108t49.5 105t94.5 82.5t141 31.5q119 0 176 -57.5t57 -154.5q0 -48 -15 -100zM239 326h147q2 10 2 25q0 64 -58 64q-68 0 -91 -89
zM319 589h-144l31 141h143zM525 589h-144l31 141h143z" />
    <glyph glyph-name="igrave" unicode="&#xec;" horiz-adv-x="297" 
d="M2 0l111 524h185l-111 -524h-185zM-1 733h192l100 -145h-146z" />
    <glyph glyph-name="iacute" unicode="&#xed;" horiz-adv-x="297" 
d="M2 0l111 524h185l-111 -524h-185zM290 733h214l-212 -145h-160z" />
    <glyph glyph-name="icircumflex" unicode="&#xee;" horiz-adv-x="297" 
d="M2 0l111 524h185l-111 -524h-185zM160 723h164l74 -140h-146l-28 63l-51 -63h-150z" />
    <glyph glyph-name="idieresis" unicode="&#xef;" horiz-adv-x="297" 
d="M2 0l111 524h185l-111 -524h-185zM183 588h-144l31 141h143zM389 588h-144l31 141h143z" />
    <glyph glyph-name="eth" unicode="&#xf0;" horiz-adv-x="595" 
d="M139 624l26 111q127 -6 220 -55l111 64l32 -66l-76 -43q116 -98 116 -270q0 -57 -10 -109t-34 -101.5t-59.5 -85.5t-91 -58t-124.5 -22q-108 0 -167.5 55.5t-59.5 154.5q0 121 79.5 202.5t211.5 81.5q34 0 55 -7q-8 44 -55 80l-125 -71l-31 65l83 47q-46 19 -101 27z
M318 362q-48 0 -77.5 -60t-29.5 -119q0 -70 55 -70q36 0 62.5 36.5t36.5 77t10 71.5q0 64 -57 64z" />
    <glyph glyph-name="ntilde" unicode="&#xf1;" horiz-adv-x="607" 
d="M2 0l80 380q21 99 28 144h183q-2 -29 -8 -55q60 67 152 67q173 0 127 -217l-67 -319h-184l66 318q19 78 -40 78q-69 0 -92 -110l-60 -286h-185zM291 582h-104l8 39q12 66 40 87.5t70 21.5q34 0 78 -20.5t56 -20.5q19 0 26 30l2 11h102l-6 -31q-12 -73 -42 -97t-76 -24
q-32 0 -75 19t-53 19q-19 0 -23 -22z" />
    <glyph glyph-name="ograve" unicode="&#xf2;" horiz-adv-x="607" 
d="M337 536q113 0 176.5 -60t63.5 -169q0 -55 -17 -108t-51.5 -101.5t-98.5 -78.5t-148 -30q-119 0 -176 61.5t-57 159.5q0 57 18.5 113t54.5 104.5t97 78.5t138 30zM329 410q-35 0 -62 -41t-37.5 -88t-10.5 -86q0 -82 58 -82q28 0 50.5 25t35 61.5t19 72t6.5 63.5
q0 75 -59 75zM167 733h192l100 -145h-146z" />
    <glyph glyph-name="oacute" unicode="&#xf3;" horiz-adv-x="607" 
d="M337 536q113 0 176.5 -60t63.5 -169q0 -55 -17 -108t-51.5 -101.5t-98.5 -78.5t-148 -30q-119 0 -176 61.5t-57 159.5q0 57 18.5 113t54.5 104.5t97 78.5t138 30zM329 410q-35 0 -62 -41t-37.5 -88t-10.5 -86q0 -82 58 -82q28 0 50.5 25t35 61.5t19 72t6.5 63.5
q0 75 -59 75zM422 733h214l-212 -145h-160z" />
    <glyph glyph-name="ocircumflex" unicode="&#xf4;" horiz-adv-x="607" 
d="M337 536q113 0 176.5 -60t63.5 -169q0 -55 -17 -108t-51.5 -101.5t-98.5 -78.5t-148 -30q-119 0 -176 61.5t-57 159.5q0 57 18.5 113t54.5 104.5t97 78.5t138 30zM329 410q-35 0 -62 -41t-37.5 -88t-10.5 -86q0 -82 58 -82q28 0 50.5 25t35 61.5t19 72t6.5 63.5
q0 75 -59 75zM312 716h164l74 -140h-146l-28 63l-51 -63h-150z" />
    <glyph glyph-name="otilde" unicode="&#xf5;" horiz-adv-x="607" 
d="M337 536q113 0 176.5 -60t63.5 -169q0 -55 -17 -108t-51.5 -101.5t-98.5 -78.5t-148 -30q-119 0 -176 61.5t-57 159.5q0 57 18.5 113t54.5 104.5t97 78.5t138 30zM329 410q-35 0 -62 -41t-37.5 -88t-10.5 -86q0 -82 58 -82q28 0 50.5 25t35 61.5t19 72t6.5 63.5
q0 75 -59 75zM291 584h-104l8 39q12 66 40 87.5t70 21.5q34 0 78 -20.5t56 -20.5q19 0 26 30l2 11h102l-6 -31q-12 -73 -42 -97t-76 -24q-32 0 -75 19t-53 19q-19 0 -23 -22z" />
    <glyph glyph-name="odieresis" unicode="&#xf6;" horiz-adv-x="607" 
d="M337 536q113 0 176.5 -60t63.5 -169q0 -55 -17 -108t-51.5 -101.5t-98.5 -78.5t-148 -30q-119 0 -176 61.5t-57 159.5q0 57 18.5 113t54.5 104.5t97 78.5t138 30zM329 410q-35 0 -62 -41t-37.5 -88t-10.5 -86q0 -82 58 -82q28 0 50.5 25t35 61.5t19 72t6.5 63.5
q0 75 -59 75zM327 589h-144l31 141h143zM533 589h-144l31 141h143z" />
    <glyph glyph-name="divide" unicode="&#xf7;" horiz-adv-x="679" 
d="M413 0h-144v140h144v-140zM613 208h-547v138h547v-138zM413 415h-144v142h144v-142z" />
    <glyph glyph-name="oslash" unicode="&#xf8;" horiz-adv-x="607" 
d="M342 536q84 0 139 -33l23 26h80l-57 -63q50 -59 50 -152q0 -58 -18 -113t-54.5 -103.5t-100 -78.5t-145.5 -30q-80 0 -134 32l-30 -33h-80l64 71q-50 57 -50 150q0 60 19 117t56 104.5t98.5 76.5t139.5 29zM331 413q-55 0 -88.5 -68t-35.5 -144l174 192q-17 20 -50 20z
M273 110q37 0 66 36.5t43.5 84t17.5 94.5l-176 -194q16 -21 49 -21z" />
    <glyph glyph-name="ugrave" unicode="&#xf9;" horiz-adv-x="603" 
d="M603 524l-79 -373q-18 -85 -29 -151h-182q2 31 8 61q-58 -72 -159 -72q-78 0 -111.5 50.5t-14.5 140.5l73 344h184l-69 -327q-16 -70 38 -70q71 0 96 120l59 277h186zM157 733h192l100 -145h-146z" />
    <glyph glyph-name="uacute" unicode="&#xfa;" horiz-adv-x="603" 
d="M603 524l-79 -373q-18 -85 -29 -151h-182q2 31 8 61q-58 -72 -159 -72q-78 0 -111.5 50.5t-14.5 140.5l73 344h184l-69 -327q-16 -70 38 -70q71 0 96 120l59 277h186zM425 732h214l-212 -145h-160z" />
    <glyph glyph-name="ucircumflex" unicode="&#xfb;" horiz-adv-x="603" 
d="M603 524l-79 -373q-18 -85 -29 -151h-182q2 31 8 61q-58 -72 -159 -72q-78 0 -111.5 50.5t-14.5 140.5l73 344h184l-69 -327q-16 -70 38 -70q71 0 96 120l59 277h186zM312 716h164l74 -140h-146l-28 63l-51 -63h-150z" />
    <glyph glyph-name="udieresis" unicode="&#xfc;" horiz-adv-x="603" 
d="M603 524l-79 -373q-18 -85 -29 -151h-182q2 31 8 61q-58 -72 -159 -72q-78 0 -111.5 50.5t-14.5 140.5l73 344h184l-69 -327q-16 -70 38 -70q71 0 96 120l59 277h186zM327 586h-144l31 141h143zM533 586h-144l31 141h143z" />
    <glyph glyph-name="yacute" unicode="&#xfd;" horiz-adv-x="539" 
d="M43 524h185q13 -214 10 -376h3q60 157 159 376h188l-258 -503q-37 -75 -66.5 -117.5t-64.5 -67t-70.5 -31.5t-93.5 -7q-44 0 -81 7l30 137q24 -3 40 -3q58 0 82 40zM378 727h214l-212 -145h-160z" />
    <glyph glyph-name="thorn" unicode="&#xfe;" horiz-adv-x="626" 
d="M-39 -192l193 916h185l-53 -252q55 64 148 64q77 0 122 -49t45 -148q0 -87 -33 -165.5t-101.5 -131.5t-158.5 -53q-41 0 -72 12t-42 30l-48 -223h-185zM236 257q-17 -61 -6 -99.5t59 -38.5q37 0 65.5 38t41 84t12.5 84q0 44 -16 60.5t-47 16.5q-75 0 -109 -145z" />
    <glyph glyph-name="ydieresis" unicode="&#xff;" horiz-adv-x="539" 
d="M43 524h185q13 -214 10 -376h3q60 157 159 376h188l-258 -503q-37 -75 -66.5 -117.5t-64.5 -67t-70.5 -31.5t-93.5 -7q-44 0 -81 7l30 137q24 -3 40 -3q58 0 82 40zM286 588h-144l31 141h143zM492 588h-144l31 141h143z" />
    <glyph glyph-name="Amacron" unicode="&#x100;" horiz-adv-x="669" 
d="M420 143h-206l-67 -143h-200l355 689h251l71 -689h-192zM276 285h142q-15 176 -18 267h-2q-38 -92 -122 -267zM299 869h315l-26 -119h-315z" />
    <glyph glyph-name="amacron" unicode="&#x101;" horiz-adv-x="592" 
d="M553 337l-42 -194q-24 -109 -27 -143h-178q0 7 6 54q-27 -31 -61 -48t-93 -17q-69 0 -107.5 39.5t-38.5 97.5q0 177 250 202q30 2 108 5l4 24q14 66 -47 66q-8 0 -15 -1t-12.5 -3.5t-9.5 -4t-8 -6t-6 -6t-5 -7.5t-4 -7.5t-4 -8.5t-3 -8h-180q38 165 258 165
q124 0 180 -50.5t35 -148.5zM345 217l3 13q-42 0 -72 -6q-76 -15 -76 -64q0 -19 12.5 -31t35.5 -12q25 0 43 8.5t28.5 25.5t15.5 30.5t10 35.5zM233 714h309l-25 -121h-309z" />
    <glyph glyph-name="Abreve" unicode="&#x102;" horiz-adv-x="669" 
d="M420 143h-206l-67 -143h-200l355 689h251l71 -689h-192zM276 285h142q-15 176 -18 267h-2q-38 -92 -122 -267zM282 885h118q-1 -22 11 -35.5t37 -13.5q49 0 68 49h117q-11 -31 -24 -54t-35.5 -47.5t-58 -37.5t-82.5 -13q-85 0 -121.5 45.5t-29.5 106.5z" />
    <glyph glyph-name="abreve" unicode="&#x103;" horiz-adv-x="592" 
d="M553 337l-42 -194q-24 -109 -27 -143h-178q0 7 6 54q-27 -31 -61 -48t-93 -17q-69 0 -107.5 39.5t-38.5 97.5q0 177 250 202q30 2 108 5l4 24q14 66 -47 66q-8 0 -15 -1t-12.5 -3.5t-9.5 -4t-8 -6t-6 -6t-5 -7.5t-4 -7.5t-4 -8.5t-3 -8h-180q38 165 258 165
q124 0 180 -50.5t35 -148.5zM345 217l3 13q-42 0 -72 -6q-76 -15 -76 -64q0 -19 12.5 -31t35.5 -12q25 0 43 8.5t28.5 25.5t15.5 30.5t10 35.5zM219 725h121q0 -43 38 -43q22 0 34 11t21 32h121q-51 -152 -194 -152q-82 0 -116 45t-25 107z" />
    <glyph glyph-name="Aogonek" unicode="&#x104;" horiz-adv-x="669" 
d="M420 143h-206l-67 -143h-200l355 689h251l71 -689h-20q-57 -48 -57 -79q0 -33 44 -33q25 0 43 5l-18 -107q-37 -19 -106 -19q-57 0 -90 26.5t-33 74.5q0 70 82 132h-37zM276 285h142q-15 176 -18 267h-2q-38 -92 -122 -267z" />
    <glyph glyph-name="aogonek" unicode="&#x105;" horiz-adv-x="592" 
d="M553 337l-42 -194q-24 -109 -27 -143h-17q-57 -48 -57 -79q0 -33 44 -33q25 0 43 5l-18 -107q-37 -19 -106 -19q-57 0 -90 26.5t-33 74.5q0 70 82 132h-26q0 7 6 54q-27 -31 -61 -48t-93 -17q-69 0 -107.5 39.5t-38.5 97.5q0 177 250 202q30 2 108 5l4 24q14 66 -47 66
q-8 0 -15 -1t-12.5 -3.5t-9.5 -4t-8 -6t-6 -6t-5 -7.5t-4 -7.5t-4 -8.5t-3 -8h-180q38 165 258 165q124 0 180 -50.5t35 -148.5zM345 217l3 13q-42 0 -72 -6q-76 -15 -76 -64q0 -19 12.5 -31t35.5 -12q25 0 43 8.5t28.5 25.5t15.5 30.5t10 35.5z" />
    <glyph glyph-name="Cacute" unicode="&#x106;" horiz-adv-x="692" 
d="M464 230h195q-70 -243 -338 -243q-135 0 -205 75t-70 207q0 57 13 115.5t42.5 116t72.5 102t109.5 72t147.5 27.5q131 0 201.5 -65t69.5 -177h-194q0 102 -92 102q-54 0 -94 -52.5t-57 -119t-17 -130.5q0 -133 93 -133q47 0 75 27t48 76zM504 881h228l-222 -136h-169z
" />
    <glyph glyph-name="cacute" unicode="&#x107;" horiz-adv-x="575" 
d="M350 188h182q-51 -199 -281 -199q-109 0 -165 55.5t-56 152.5q0 60 18 118t52.5 108.5t95 81.5t136.5 31q67 0 115.5 -19.5t72 -51.5t33 -65.5t6.5 -66.5h-181q3 38 -7 59t-43 21q-35 0 -61 -40.5t-37 -90.5t-11 -94q0 -78 53 -78q51 0 78 78zM415 733h214l-212 -145
h-160z" />
    <glyph glyph-name="Ccircumflex" unicode="&#x108;" horiz-adv-x="692" 
d="M464 230h195q-70 -243 -338 -243q-135 0 -205 75t-70 207q0 57 13 115.5t42.5 116t72.5 102t109.5 72t147.5 27.5q131 0 201.5 -65t69.5 -177h-194q0 102 -92 102q-54 0 -94 -52.5t-57 -119t-17 -130.5q0 -133 93 -133q47 0 75 27t48 76zM385 877h178l89 -137h-153
l-39 63l-63 -63h-162z" />
    <glyph glyph-name="ccircumflex" unicode="&#x109;" horiz-adv-x="575" 
d="M350 188h182q-51 -199 -281 -199q-109 0 -165 55.5t-56 152.5q0 60 18 118t52.5 108.5t95 81.5t136.5 31q67 0 115.5 -19.5t72 -51.5t33 -65.5t6.5 -66.5h-181q3 38 -7 59t-43 21q-35 0 -61 -40.5t-37 -90.5t-11 -94q0 -78 53 -78q51 0 78 78zM304 720h164l74 -140h-146
l-28 63l-51 -63h-150z" />
    <glyph glyph-name="Cdotaccent" unicode="&#x10a;" horiz-adv-x="692" 
d="M464 230h195q-70 -243 -338 -243q-135 0 -205 75t-70 207q0 57 13 115.5t42.5 116t72.5 102t109.5 72t147.5 27.5q131 0 201.5 -65t69.5 -177h-194q0 102 -92 102q-54 0 -94 -52.5t-57 -119t-17 -130.5q0 -133 93 -133q47 0 75 27t48 76zM528 751h-166l30 141h166z" />
    <glyph glyph-name="cdotaccent" unicode="&#x10b;" horiz-adv-x="575" 
d="M350 188h182q-51 -199 -281 -199q-109 0 -165 55.5t-56 152.5q0 60 18 118t52.5 108.5t95 81.5t136.5 31q67 0 115.5 -19.5t72 -51.5t33 -65.5t6.5 -66.5h-181q3 38 -7 59t-43 21q-35 0 -61 -40.5t-37 -90.5t-11 -94q0 -78 53 -78q51 0 78 78zM436 590h-179l30 141h179z
" />
    <glyph glyph-name="Ccaron" unicode="&#x10c;" horiz-adv-x="692" 
d="M464 230h195q-70 -243 -338 -243q-135 0 -205 75t-70 207q0 57 13 115.5t42.5 116t72.5 102t109.5 72t147.5 27.5q131 0 201.5 -65t69.5 -177h-194q0 102 -92 102q-54 0 -94 -52.5t-57 -119t-17 -130.5q0 -133 93 -133q47 0 75 27t48 76zM526 747h-178l-89 136h153
l39 -65l63 65h162z" />
    <glyph glyph-name="ccaron" unicode="&#x10d;" horiz-adv-x="575" 
d="M350 188h182q-51 -199 -281 -199q-109 0 -165 55.5t-56 152.5q0 60 18 118t52.5 108.5t95 81.5t136.5 31q67 0 115.5 -19.5t72 -51.5t33 -65.5t6.5 -66.5h-181q3 38 -7 59t-43 21q-35 0 -61 -40.5t-37 -90.5t-11 -94q0 -78 53 -78q51 0 78 78zM429 580h-164l-74 140h144
l27 -63l51 63h153z" />
    <glyph glyph-name="Dcaron" unicode="&#x10e;" horiz-adv-x="731" 
d="M14 0l146 689h250q143 0 223 -78.5t80 -213.5q0 -61 -14.5 -117.5t-46 -108t-78 -89t-115 -60t-152.5 -22.5h-293zM323 551l-88 -413h83q89 0 142 77.5t53 187.5q0 148 -126 148h-64zM492 739h-178l-89 136h153l39 -65l63 65h162z" />
    <glyph glyph-name="dcaron" unicode="&#x10f;" horiz-adv-x="737" 
d="M482 724h185l-122 -575q-25 -125 -29 -149h-180q0 17 5 50q-48 -61 -141 -61q-81 0 -125.5 53.5t-44.5 147.5q0 87 31 164.5t95.5 129.5t149.5 52q46 0 80.5 -13.5t45.5 -31.5zM340 403q-52 0 -85.5 -68t-33.5 -132q0 -82 60 -82q84 0 114 159q13 61 0 92t-55 31z
M712 724h135l-76 -293h-116z" />
    <glyph glyph-name="Dcroat" unicode="&#x110;" horiz-adv-x="741" 
d="M39 402h70l61 287h250q143 0 223 -78.5t80 -213.5q0 -61 -14.5 -117.5t-46 -108t-78 -89t-115 -60t-152.5 -22.5h-293l63 296h-71zM333 551l-32 -149h122l-22 -106h-122l-34 -158h83q89 0 142 77.5t53 187.5q0 148 -126 148h-64z" />
    <glyph glyph-name="dcroat" unicode="&#x111;" horiz-adv-x="626" 
d="M238 666h229l12 58h184l-12 -58h47l-20 -93h-47l-89 -424q-24 -109 -30 -149h-180q2 28 6 50q-48 -61 -144 -61q-78 0 -121.5 49.5t-43.5 147.5q0 84 31.5 159.5t96.5 126t149 50.5q45 0 77 -12.5t43 -31.5l20 95h-228zM339 390q-38 0 -66.5 -35t-40.5 -78t-12 -81
q0 -75 56 -75q83 0 114 150q24 119 -51 119z" />
    <glyph glyph-name="Emacron" unicode="&#x112;" horiz-adv-x="614" 
d="M588 425l-31 -143h-298l-30 -139h341l-51 -143h-505l146 689h496l-30 -143h-311l-25 -121h298zM281 869h315l-26 -119h-315z" />
    <glyph glyph-name="emacron" unicode="&#x113;" horiz-adv-x="590" 
d="M549 224h-331q-3 -14 -3 -27q-4 -84 60 -84q50 0 75 54h186q-26 -77 -93.5 -127.5t-180.5 -50.5q-119 0 -175.5 60.5t-56.5 159.5q0 54 16 108t49.5 105t94.5 82.5t141 31.5q119 0 176 -57.5t57 -154.5q0 -48 -15 -100zM239 326h147q2 10 2 25q0 64 -58 64q-68 0 -91 -89
zM227 713h309l-25 -121h-309z" />
    <glyph glyph-name="Ebreve" unicode="&#x114;" horiz-adv-x="614" 
d="M588 425l-31 -143h-298l-30 -139h341l-51 -143h-505l146 689h496l-30 -143h-311l-25 -121h298zM259 887h118q-1 -22 11 -35.5t37 -13.5q49 0 68 49h117q-11 -31 -24 -54t-35.5 -47.5t-58 -37.5t-82.5 -13q-85 0 -121.5 45.5t-29.5 106.5z" />
    <glyph glyph-name="ebreve" unicode="&#x115;" horiz-adv-x="590" 
d="M549 224h-331q-3 -14 -3 -27q-4 -84 60 -84q50 0 75 54h186q-26 -77 -93.5 -127.5t-180.5 -50.5q-119 0 -175.5 60.5t-56.5 159.5q0 54 16 108t49.5 105t94.5 82.5t141 31.5q119 0 176 -57.5t57 -154.5q0 -48 -15 -100zM239 326h147q2 10 2 25q0 64 -58 64q-68 0 -91 -89
zM217 728h121q0 -43 38 -43q22 0 34 11t21 32h121q-51 -152 -194 -152q-82 0 -116 45t-25 107z" />
    <glyph glyph-name="Edotaccent" unicode="&#x116;" horiz-adv-x="614" 
d="M588 425l-31 -143h-298l-30 -139h341l-51 -143h-505l146 689h496l-30 -143h-311l-25 -121h298zM496 754h-166l30 141h166z" />
    <glyph glyph-name="edotaccent" unicode="&#x117;" horiz-adv-x="590" 
d="M549 224h-331q-3 -14 -3 -27q-4 -84 60 -84q50 0 75 54h186q-26 -77 -93.5 -127.5t-180.5 -50.5q-119 0 -175.5 60.5t-56.5 159.5q0 54 16 108t49.5 105t94.5 82.5t141 31.5q119 0 176 -57.5t57 -154.5q0 -48 -15 -100zM239 326h147q2 10 2 25q0 64 -58 64q-68 0 -91 -89
zM441 590h-179l30 141h179z" />
    <glyph glyph-name="Eogonek" unicode="&#x118;" horiz-adv-x="614" 
d="M588 425l-31 -143h-298l-30 -139h341l-51 -143h-37q-57 -48 -57 -79q0 -33 44 -33q25 0 43 5l-18 -107q-37 -19 -106 -19q-57 0 -90 26.5t-33 74.5q0 70 82 132h-333l146 689h496l-30 -143h-311l-25 -121h298z" />
    <glyph glyph-name="eogonek" unicode="&#x119;" horiz-adv-x="590" 
d="M549 224h-331q-3 -14 -3 -27q-4 -84 60 -84q50 0 75 54h186q-20 -58 -64.5 -103t-115.5 -64q-57 -48 -57 -79q0 -33 44 -33q25 0 43 5l-18 -107q-37 -19 -106 -19q-57 0 -90 26.5t-33 74.5q0 65 72 124q-92 13 -136.5 71.5t-44.5 145.5q0 54 16 108t49.5 105t94.5 82.5
t141 31.5q119 0 176 -57.5t57 -154.5q0 -48 -15 -100zM239 326h147q2 10 2 25q0 64 -58 64q-68 0 -91 -89z" />
    <glyph glyph-name="Ecaron" unicode="&#x11a;" horiz-adv-x="614" 
d="M588 425l-31 -143h-298l-30 -139h341l-51 -143h-505l146 689h496l-30 -143h-311l-25 -121h298zM494 743h-178l-89 136h153l39 -65l63 65h162z" />
    <glyph glyph-name="ecaron" unicode="&#x11b;" horiz-adv-x="590" 
d="M549 224h-331q-3 -14 -3 -27q-4 -84 60 -84q50 0 75 54h186q-26 -77 -93.5 -127.5t-180.5 -50.5q-119 0 -175.5 60.5t-56.5 159.5q0 54 16 108t49.5 105t94.5 82.5t141 31.5q119 0 176 -57.5t57 -154.5q0 -48 -15 -100zM239 326h147q2 10 2 25q0 64 -58 64q-68 0 -91 -89
zM435 584h-164l-74 140h144l27 -63l51 63h153z" />
    <glyph glyph-name="Gcircumflex" unicode="&#x11c;" horiz-adv-x="732" 
d="M701 393l-78 -393h-137q-4 29 2 63q-62 -76 -190 -76q-121 0 -185 77.5t-64 202.5q0 81 24.5 156.5t71 139t123.5 101.5t174 38q132 0 204 -63.5t74 -162.5h-191q-1 35 -24.5 61.5t-77.5 26.5q-45 0 -81 -29.5t-56.5 -75.5t-30.5 -94.5t-10 -93.5q0 -144 106 -144
q62 0 91 32.5t40 89.5l1 4h-126l31 140h309zM398 881h178l89 -137h-153l-39 63l-63 -63h-162z" />
    <glyph glyph-name="gcircumflex" unicode="&#x11d;" horiz-adv-x="615" 
d="M586 379l-65 -303q-15 -71 -33 -116.5t-51 -85t-87 -58t-132 -18.5q-61 0 -105.5 12.5t-68 29.5t-37 43t-17 45t-3.5 43h182q2 -51 62 -51q40 0 62.5 26.5t37.5 94.5l5 24q-50 -51 -137 -51q-81 0 -125.5 53t-44.5 142q0 59 18 116.5t51 104.5t84.5 76.5t112.5 29.5
q52 0 85 -16t44 -40q8 23 17 44h178q-9 -34 -33 -145zM333 407q-35 0 -61.5 -33t-38.5 -75t-12 -82q0 -76 60 -76q77 0 107 143q6 33 7.5 60.5t-14 45t-48.5 17.5zM324 724h164l74 -140h-146l-28 63l-51 -63h-150z" />
    <glyph glyph-name="Gbreve" unicode="&#x11e;" horiz-adv-x="732" 
d="M701 393l-78 -393h-137q-4 29 2 63q-62 -76 -190 -76q-121 0 -185 77.5t-64 202.5q0 81 24.5 156.5t71 139t123.5 101.5t174 38q132 0 204 -63.5t74 -162.5h-191q-1 35 -24.5 61.5t-77.5 26.5q-45 0 -81 -29.5t-56.5 -75.5t-30.5 -94.5t-10 -93.5q0 -144 106 -144
q62 0 91 32.5t40 89.5l1 4h-126l31 140h309zM301 891h118q-1 -22 11 -35.5t37 -13.5q49 0 68 49h117q-11 -31 -24 -54t-35.5 -47.5t-58 -37.5t-82.5 -13q-85 0 -121.5 45.5t-29.5 106.5z" />
    <glyph glyph-name="gbreve" unicode="&#x11f;" horiz-adv-x="615" 
d="M586 379l-65 -303q-15 -71 -33 -116.5t-51 -85t-87 -58t-132 -18.5q-61 0 -105.5 12.5t-68 29.5t-37 43t-17 45t-3.5 43h182q2 -51 62 -51q40 0 62.5 26.5t37.5 94.5l5 24q-50 -51 -137 -51q-81 0 -125.5 53t-44.5 142q0 59 18 116.5t51 104.5t84.5 76.5t112.5 29.5
q52 0 85 -16t44 -40q8 23 17 44h178q-9 -34 -33 -145zM333 407q-35 0 -61.5 -33t-38.5 -75t-12 -82q0 -76 60 -76q77 0 107 143q6 33 7.5 60.5t-14 45t-48.5 17.5zM237 724h121q0 -43 38 -43q22 0 34 11t21 32h121q-51 -152 -194 -152q-82 0 -116 45t-25 107z" />
    <glyph glyph-name="Gdotaccent" unicode="&#x120;" horiz-adv-x="732" 
d="M701 393l-78 -393h-137q-4 29 2 63q-62 -76 -190 -76q-121 0 -185 77.5t-64 202.5q0 81 24.5 156.5t71 139t123.5 101.5t174 38q132 0 204 -63.5t74 -162.5h-191q-1 35 -24.5 61.5t-77.5 26.5q-45 0 -81 -29.5t-56.5 -75.5t-30.5 -94.5t-10 -93.5q0 -144 106 -144
q62 0 91 32.5t40 89.5l1 4h-126l31 140h309zM544 757h-166l30 141h166z" />
    <glyph glyph-name="gdotaccent" unicode="&#x121;" horiz-adv-x="615" 
d="M586 379l-65 -303q-15 -71 -33 -116.5t-51 -85t-87 -58t-132 -18.5q-61 0 -105.5 12.5t-68 29.5t-37 43t-17 45t-3.5 43h182q2 -51 62 -51q40 0 62.5 26.5t37.5 94.5l5 24q-50 -51 -137 -51q-81 0 -125.5 53t-44.5 142q0 59 18 116.5t51 104.5t84.5 76.5t112.5 29.5
q52 0 85 -16t44 -40q8 23 17 44h178q-9 -34 -33 -145zM333 407q-35 0 -61.5 -33t-38.5 -75t-12 -82q0 -76 60 -76q77 0 107 143q6 33 7.5 60.5t-14 45t-48.5 17.5zM464 588h-179l30 141h179z" />
    <glyph glyph-name="uni0122" unicode="&#x122;" horiz-adv-x="732" 
d="M701 393l-78 -393h-137q-4 29 2 63q-62 -76 -190 -76q-121 0 -185 77.5t-64 202.5q0 81 24.5 156.5t71 139t123.5 101.5t174 38q132 0 204 -63.5t74 -162.5h-191q-1 35 -24.5 61.5t-77.5 26.5q-45 0 -81 -29.5t-56.5 -75.5t-30.5 -94.5t-10 -93.5q0 -144 106 -144
q62 0 91 32.5t40 89.5l1 4h-126l31 140h309zM292 -248h-144q37 45 64 100t37 94h163q-16 -57 -50.5 -110.5t-69.5 -83.5z" />
    <glyph glyph-name="uni0123" unicode="&#x123;" horiz-adv-x="615" 
d="M411 788h154q-70 -87 -106 -206h-174q17 55 52.5 114t73.5 92zM586 379l-65 -303q-15 -71 -33 -116.5t-51 -85t-87 -58t-132 -18.5q-61 0 -105.5 12.5t-68 29.5t-37 43t-17 45t-3.5 43h182q2 -51 62 -51q40 0 62.5 26.5t37.5 94.5l5 24q-50 -51 -137 -51q-81 0 -125.5 53
t-44.5 142q0 59 18 116.5t51 104.5t84.5 76.5t112.5 29.5q52 0 85 -16t44 -40q8 23 17 44h178q-9 -34 -33 -145zM333 407q-35 0 -61.5 -33t-38.5 -75t-12 -82q0 -76 60 -76q77 0 107 143q6 33 7.5 60.5t-14 45t-48.5 17.5z" />
    <glyph glyph-name="Hcircumflex" unicode="&#x124;" horiz-adv-x="726" 
d="M14 0l146 689h192l-55 -257h204l55 257h192l-146 -689h-192l61 290h-204l-61 -290h-192zM400 877h178l89 -137h-153l-39 63l-63 -63h-162z" />
    <glyph glyph-name="hcircumflex" unicode="&#x125;" horiz-adv-x="606" 
d="M190 885h186l75 -123h-143l-39 57l-57 -57h-152zM2 0l153 724h185l-53 -254q60 66 149 66q82 0 117 -51t14 -152l-70 -333h-184l66 318q9 39 0 58.5t-41 19.5q-66 0 -87 -95l-64 -301h-185z" />
    <glyph glyph-name="Hbar" unicode="&#x126;" horiz-adv-x="726" 
d="M293 409h204l17 79h-204zM14 0l103 488h-53l23 108h53l20 93h192l-20 -93h204l20 93h192l-20 -93h57l-23 -108h-57l-103 -488h-192l56 262h-204l-56 -262h-192z" />
    <glyph glyph-name="hbar" unicode="&#x127;" horiz-adv-x="606" 
d="M2 0l121 573h-68l20 93h68l12 58h185l-12 -58h207l-21 -93h-206l-24 -116q61 65 151 65q81 0 115.5 -51t13.5 -151l-67 -320h-184l63 304q9 40 0 59t-40 19q-67 0 -88 -95l-61 -287h-185z" />
    <glyph glyph-name="Itilde" unicode="&#x128;" horiz-adv-x="330" 
d="M160 689h192l-146 -689h-192zM185 742h-103l6 35q11 65 41.5 88.5t75.5 23.5q33 0 82 -19t60 -19q21 0 25 29l2 9h102l-5 -32q-12 -70 -42.5 -94.5t-76.5 -24.5q-33 0 -82.5 18.5t-59.5 18.5q-19 0 -23 -20z" />
    <glyph glyph-name="itilde" unicode="&#x129;" horiz-adv-x="297" 
d="M2 0l111 524h185l-111 -524h-185zM143 582h-104l8 39q12 66 40 87.5t70 21.5q34 0 78 -20.5t56 -20.5q19 0 26 30l2 11h102l-6 -31q-12 -73 -42 -97t-76 -24q-32 0 -75 19t-53 19q-19 0 -23 -22z" />
    <glyph glyph-name="Imacron" unicode="&#x12a;" horiz-adv-x="330" 
d="M160 689h192l-146 -689h-192zM130 869h315l-26 -119h-315z" />
    <glyph glyph-name="imacron" unicode="&#x12b;" horiz-adv-x="297" 
d="M2 0l111 524h185l-111 -524h-185zM83 711h309l-25 -121h-309z" />
    <glyph glyph-name="Iogonek" unicode="&#x12e;" horiz-adv-x="330" 
d="M160 689h192l-146 -689h-18q-57 -48 -57 -79q0 -33 44 -33q25 0 43 5l-18 -107q-37 -19 -106 -19q-57 0 -90 26.5t-33 74.5q0 70 82 132h-39z" />
    <glyph glyph-name="iogonek" unicode="&#x12f;" horiz-adv-x="297" 
d="M2 0l111 524h185l-111 -524h-17q-57 -48 -57 -79q0 -33 44 -33q25 0 43 5l-18 -107q-37 -19 -106 -19q-57 0 -90 26.5t-33 74.5q0 70 82 132h-33zM126 589l29 136h185l-28 -136h-186z" />
    <glyph glyph-name="Idotaccent" unicode="&#x130;" horiz-adv-x="330" 
d="M160 689h192l-146 -689h-192zM351 754h-166l30 141h166z" />
    <glyph glyph-name="dotlessi" unicode="&#x131;" horiz-adv-x="297" 
d="M2 0l111 524h185l-111 -524h-185z" />
    <glyph glyph-name="Jcircumflex" unicode="&#x134;" horiz-adv-x="393" 
d="M131 214l100 475h191l-104 -487q-10 -51 -24 -85.5t-40.5 -65t-70.5 -45.5t-107 -15q-67 0 -113 11l30 141q24 -6 55 -6q41 0 57 17t26 60zM269 877h178l89 -137h-153l-39 63l-63 -63h-162z" />
    <glyph glyph-name="jcircumflex" unicode="&#x135;" horiz-adv-x="298" 
d="M114 524h184l-111 -520q-24 -113 -68 -159.5t-143 -46.5q-40 0 -78 5l33 136q6 -1 15 -1q26 0 37 11.5t17 38.5zM159 723h164l74 -140h-146l-28 63l-51 -63h-150z" />
    <glyph glyph-name="uni0136" unicode="&#x136;" horiz-adv-x="680" 
d="M14 0l146 689h190l-61 -284q33 38 134.5 142t136.5 142h227l-308 -291l175 -398h-207l-113 286l-84 -70l-46 -216h-190zM273 -248h-144q37 45 64 100t37 94h163q-16 -57 -50.5 -110.5t-69.5 -83.5z" />
    <glyph glyph-name="uni0137" unicode="&#x137;" horiz-adv-x="586" 
d="M340 724l-86 -398q60 70 176 198h214q-123 -125 -211 -209q3 -8 53.5 -150t56.5 -165h-198q0 2 -56 206l-72 -60l-31 -146h-185l153 724h186zM213 -244h-144q37 45 64 100t37 94h163q-16 -57 -50.5 -110.5t-69.5 -83.5z" />
    <glyph glyph-name="kgreenlandic" unicode="&#x138;" horiz-adv-x="585" 
d="M296 524l-43 -200q21 25 85.5 97.5t90.5 102.5h214q-105 -106 -210 -210q3 -8 53 -149.5t56 -164.5h-198q-2 8 -28.5 105t-27.5 102l-71 -60l-32 -147h-185l111 524h185z" />
    <glyph glyph-name="Lacute" unicode="&#x139;" horiz-adv-x="581" 
d="M14 0l146 689h192l-116 -546h314l-51 -143h-485zM336 878h228l-222 -136h-169z" />
    <glyph glyph-name="lacute" unicode="&#x13a;" horiz-adv-x="297" 
d="M333 897h211l-211 -125h-169zM187 0h-185l153 724h185z" />
    <glyph glyph-name="uni013B" unicode="&#x13b;" horiz-adv-x="581" 
d="M14 0l146 689h192l-116 -546h314l-51 -143h-485zM225 -249h-144q37 45 64 100t37 94h163q-16 -57 -50.5 -110.5t-69.5 -83.5z" />
    <glyph glyph-name="uni013C" unicode="&#x13c;" horiz-adv-x="297" 
d="M187 0h-185l153 724h185zM44 -248h-144q37 45 64 100t37 94h163q-16 -57 -50.5 -110.5t-69.5 -83.5z" />
    <glyph glyph-name="Lcaron" unicode="&#x13d;" horiz-adv-x="581" 
d="M14 0l146 689h192l-116 -546h314l-51 -143h-485zM457 689h135l-76 -293h-116z" />
    <glyph glyph-name="lcaron" unicode="&#x13e;" horiz-adv-x="407" 
d="M187 0h-185l153 724h185zM386 724h135l-76 -293h-116z" />
    <glyph glyph-name="Ldot" unicode="&#x13f;" horiz-adv-x="581" 
d="M528 297h-160l36 176h161zM14 0l146 689h192l-116 -546h314l-51 -143h-485z" />
    <glyph glyph-name="ldot" unicode="&#x140;" horiz-adv-x="421" 
d="M452 347h-147l38 178h147zM187 0h-185l153 724h185z" />
    <glyph glyph-name="Lslash" unicode="&#x141;" horiz-adv-x="591" 
d="M426 400l-135 -44l-45 -213h314l-51 -143h-485l61 290l-86 -28l26 117l85 27l60 283h192l-46 -217l136 44z" />
    <glyph glyph-name="lslash" unicode="&#x142;" horiz-adv-x="307" 
d="M196 0h-185l61 290l-61 -26l26 126l62 26l65 308h185l-47 -222l72 30l-27 -126l-72 -30z" />
    <glyph glyph-name="Nacute" unicode="&#x143;" horiz-adv-x="737" 
d="M192 0h-179l146 689h235q10 -48 35.5 -165t39.5 -189.5t19 -114.5h3q13 100 58 316l33 153h177l-146 -689h-224q-6 30 -25.5 120.5t-31.5 148.5t-24.5 125.5t-15.5 98.5h-3q-10 -74 -63 -332zM520 873h228l-222 -136h-169z" />
    <glyph glyph-name="nacute" unicode="&#x144;" horiz-adv-x="607" 
d="M2 0l80 380q21 99 28 144h183q-2 -29 -8 -55q60 67 152 67q173 0 127 -217l-67 -319h-184l66 318q19 78 -40 78q-69 0 -92 -110l-60 -286h-185zM422 733h214l-212 -145h-160z" />
    <glyph glyph-name="uni0145" unicode="&#x145;" horiz-adv-x="737" 
d="M192 0h-179l146 689h235q10 -48 35.5 -165t39.5 -189.5t19 -114.5h3q13 100 58 316l33 153h177l-146 -689h-224q-6 30 -25.5 120.5t-31.5 148.5t-24.5 125.5t-15.5 98.5h-3q-10 -74 -63 -332zM281 -248h-144q37 45 64 100t37 94h163q-16 -57 -50.5 -110.5t-69.5 -83.5z
" />
    <glyph glyph-name="uni0146" unicode="&#x146;" horiz-adv-x="607" 
d="M2 0l80 380q21 99 28 144h183q-2 -29 -8 -55q60 67 152 67q173 0 127 -217l-67 -319h-184l66 318q19 78 -40 78q-69 0 -92 -110l-60 -286h-185zM206 -248h-144q37 45 64 100t37 94h163q-16 -57 -50.5 -110.5t-69.5 -83.5z" />
    <glyph glyph-name="Ncaron" unicode="&#x147;" horiz-adv-x="737" 
d="M192 0h-179l146 689h235q10 -48 35.5 -165t39.5 -189.5t19 -114.5h3q13 100 58 316l33 153h177l-146 -689h-224q-6 30 -25.5 120.5t-31.5 148.5t-24.5 125.5t-15.5 98.5h-3q-10 -74 -63 -332zM554 736h-178l-89 136h153l39 -65l63 65h162z" />
    <glyph glyph-name="ncaron" unicode="&#x148;" horiz-adv-x="607" 
d="M2 0l80 380q21 99 28 144h183q-2 -29 -8 -55q60 67 152 67q173 0 127 -217l-67 -319h-184l66 318q19 78 -40 78q-69 0 -92 -110l-60 -286h-185zM444 576h-164l-74 140h144l27 -63l51 63h153z" />
    <glyph glyph-name="napostrophe" unicode="&#x149;" horiz-adv-x="607" 
d="M184 578h-132q28 38 58 102.5t38 104.5h157q-15 -55 -49.5 -115t-71.5 -92zM2 0l80 380q21 99 28 144h183q-2 -29 -8 -55q60 67 152 67q173 0 127 -217l-67 -319h-184l66 318q19 78 -40 78q-69 0 -92 -110l-60 -286h-185z" />
    <glyph glyph-name="Omacron" unicode="&#x14c;" horiz-adv-x="751" 
d="M437 702q145 0 219.5 -82t74.5 -210q0 -80 -23 -153.5t-68.5 -135t-123.5 -98t-180 -36.5q-143 0 -215.5 79.5t-72.5 202.5q0 63 15 124.5t47 117.5t77 98.5t109.5 67.5t140.5 25zM428 562q-58 0 -101.5 -50.5t-62 -116.5t-18.5 -130t27.5 -101t83.5 -37q47 0 83.5 29.5
t56 76t29.5 95t10 94.5q0 140 -108 140zM323 873h315l-26 -119h-315z" />
    <glyph glyph-name="omacron" unicode="&#x14d;" horiz-adv-x="607" 
d="M337 536q113 0 176.5 -60t63.5 -169q0 -55 -17 -108t-51.5 -101.5t-98.5 -78.5t-148 -30q-119 0 -176 61.5t-57 159.5q0 57 18.5 113t54.5 104.5t97 78.5t138 30zM329 410q-35 0 -62 -41t-37.5 -88t-10.5 -86q0 -82 58 -82q28 0 50.5 25t35 61.5t19 72t6.5 63.5
q0 75 -59 75zM233 713h309l-25 -121h-309z" />
    <glyph glyph-name="Ohungarumlaut" unicode="&#x150;" horiz-adv-x="751" 
d="M437 702q145 0 219.5 -82t74.5 -210q0 -80 -23 -153.5t-68.5 -135t-123.5 -98t-180 -36.5q-143 0 -215.5 79.5t-72.5 202.5q0 63 15 124.5t47 117.5t77 98.5t109.5 67.5t140.5 25zM428 562q-58 0 -101.5 -50.5t-62 -116.5t-18.5 -130t27.5 -101t83.5 -37q47 0 83.5 29.5
t56 76t29.5 95t10 94.5q0 140 -108 140zM382 881h170l-158 -137h-136zM607 881h169l-158 -137h-135z" />
    <glyph glyph-name="ohungarumlaut" unicode="&#x151;" horiz-adv-x="607" 
d="M337 536q113 0 176.5 -60t63.5 -169q0 -55 -17 -108t-51.5 -101.5t-98.5 -78.5t-148 -30q-119 0 -176 61.5t-57 159.5q0 57 18.5 113t54.5 104.5t97 78.5t138 30zM329 410q-35 0 -62 -41t-37.5 -88t-10.5 -86q0 -82 58 -82q28 0 50.5 25t35 61.5t19 72t6.5 63.5
q0 75 -59 75zM473 725l-167 -146h-135l131 146h171zM691 725l-164 -146h-136l132 146h168z" />
    <glyph glyph-name="OE" unicode="&#x152;" horiz-adv-x="1035" 
d="M464 141l87 407q-27 8 -78 8q-101 0 -161 -74.5t-60 -180.5q0 -80 38 -122.5t112 -42.5q42 0 62 5zM1078 689l-30 -143h-311l-26 -121h299l-31 -143h-298l-30 -139h340l-51 -143h-452q-5 0 -50.5 -2t-72.5 -2q-80 0 -141.5 24t-98 66t-55 94.5t-18.5 113.5
q0 175 119 288.5t328 113.5q39 0 91 -3.5t56 -3.5h432z" />
    <glyph glyph-name="oe" unicode="&#x153;" horiz-adv-x="939" 
d="M610 -11q-106 0 -159 59q-75 -59 -191 -59q-118 0 -174 62t-56 161q0 58 18.5 113.5t54.5 103.5t97 77.5t138 29.5q110 0 167 -60q73 60 179 60q117 0 172.5 -57.5t55.5 -154.5q0 -51 -14 -100h-331q-2 -10 -4 -26q-2 -85 61 -85q51 0 74 54h187q-27 -78 -94.5 -128
t-180.5 -50zM588 326h146q3 10 3 25q0 64 -57 64q-67 0 -92 -89zM330 410q-35 0 -62 -41.5t-38 -88.5t-11 -83q0 -84 59 -84q27 0 49.5 25t35 61.5t19 72t6.5 61.5q0 77 -58 77z" />
    <glyph glyph-name="Racute" unicode="&#x154;" horiz-adv-x="674" 
d="M349 265h-90l-56 -265h-189l146 689h296q108 0 166 -49t58 -132q0 -69 -38 -116t-104 -66q85 -37 58 -170q-26 -125 -23 -156h-182q-6 45 19 163q13 49 0.5 75.5t-61.5 26.5zM320 555l-33 -156h88q112 0 112 88q0 68 -81 68h-86zM476 878h228l-222 -136h-169z" />
    <glyph glyph-name="racute" unicode="&#x155;" horiz-adv-x="424" 
d="M451 535l-38 -174q-81 4 -122 -31t-59 -117l-45 -213h-185l76 360q18 83 32 164h180q-2 -33 -14 -88q28 49 68 74t107 25zM332 731h214l-212 -145h-160z" />
    <glyph glyph-name="uni0156" unicode="&#x156;" horiz-adv-x="674" 
d="M349 265h-90l-56 -265h-189l146 689h296q108 0 166 -49t58 -132q0 -69 -38 -116t-104 -66q85 -37 58 -170q-26 -125 -23 -156h-182q-6 45 19 163q13 49 0.5 75.5t-61.5 26.5zM320 555l-33 -156h88q112 0 112 88q0 68 -81 68h-86zM250 -241h-144q37 45 64 100t37 94h163
q-16 -57 -50.5 -110.5t-69.5 -83.5z" />
    <glyph glyph-name="uni0157" unicode="&#x157;" horiz-adv-x="424" 
d="M451 535l-38 -174q-81 4 -122 -31t-59 -117l-45 -213h-185l76 360q18 83 32 164h180q-2 -33 -14 -88q28 49 68 74t107 25zM49 -245h-144q37 45 64 100t37 94h163q-16 -57 -50.5 -110.5t-69.5 -83.5z" />
    <glyph glyph-name="Rcaron" unicode="&#x158;" horiz-adv-x="674" 
d="M349 265h-90l-56 -265h-189l146 689h296q108 0 166 -49t58 -132q0 -69 -38 -116t-104 -66q85 -37 58 -170q-26 -125 -23 -156h-182q-6 45 19 163q13 49 0.5 75.5t-61.5 26.5zM320 555l-33 -156h88q112 0 112 88q0 68 -81 68h-86zM506 742h-178l-89 136h153l39 -65l63 65
h162z" />
    <glyph glyph-name="rcaron" unicode="&#x159;" horiz-adv-x="424" 
d="M451 535l-38 -174q-81 4 -122 -31t-59 -117l-45 -213h-185l76 360q18 83 32 164h180q-2 -33 -14 -88q28 49 68 74t107 25zM353 576h-164l-74 140h144l27 -63l51 63h153z" />
    <glyph glyph-name="Sacute" unicode="&#x15a;" horiz-adv-x="638" 
d="M12 215h187q4 -43 32 -68.5t80 -25.5q91 0 91 70q0 32 -25 52t-88 41q-110 36 -157.5 82t-47.5 115q0 98 71.5 159.5t205.5 61.5q127 0 200 -56t74 -156h-187q-5 76 -90 76q-36 0 -57.5 -15.5t-21.5 -45.5q0 -24 23 -42t83 -37q116 -38 167 -87t51 -125q0 -103 -77 -165
t-227 -62q-139 0 -211.5 60.5t-75.5 167.5zM445 888h228l-222 -136h-169z" />
    <glyph glyph-name="sacute" unicode="&#x15b;" horiz-adv-x="534" 
d="M5 165h173q4 -55 70 -55q60 0 60 44q0 18 -18 29.5t-63 24.5q-98 28 -136 62.5t-38 88.5q0 77 60.5 127t172.5 50q115 0 172.5 -46.5t55.5 -118.5h-171q0 50 -61 50q-51 0 -51 -35q0 -16 19 -26t74 -26q91 -27 128.5 -65.5t37.5 -94.5q0 -63 -36.5 -105.5t-91.5 -61
t-125 -18.5q-114 0 -174 46t-58 130zM386 733h214l-212 -145h-160z" />
    <glyph glyph-name="Scircumflex" unicode="&#x15c;" horiz-adv-x="638" 
d="M12 215h187q4 -43 32 -68.5t80 -25.5q91 0 91 70q0 32 -25 52t-88 41q-110 36 -157.5 82t-47.5 115q0 98 71.5 159.5t205.5 61.5q127 0 200 -56t74 -156h-187q-5 76 -90 76q-36 0 -57.5 -15.5t-21.5 -45.5q0 -24 23 -42t83 -37q116 -38 167 -87t51 -125q0 -103 -77 -165
t-227 -62q-139 0 -211.5 60.5t-75.5 167.5zM338 881h178l89 -137h-153l-39 63l-63 -63h-162z" />
    <glyph glyph-name="scircumflex" unicode="&#x15d;" horiz-adv-x="534" 
d="M5 165h173q4 -55 70 -55q60 0 60 44q0 18 -18 29.5t-63 24.5q-98 28 -136 62.5t-38 88.5q0 77 60.5 127t172.5 50q115 0 172.5 -46.5t55.5 -118.5h-171q0 50 -61 50q-51 0 -51 -35q0 -16 19 -26t74 -26q91 -27 128.5 -65.5t37.5 -94.5q0 -63 -36.5 -105.5t-91.5 -61
t-125 -18.5q-114 0 -174 46t-58 130zM273 719h164l74 -140h-146l-28 63l-51 -63h-150z" />
    <glyph glyph-name="uni015E" unicode="&#x15e;" horiz-adv-x="638" 
d="M12 215h187q4 -43 32 -68.5t80 -25.5q91 0 91 70q0 32 -25 52t-88 41q-110 36 -157.5 82t-47.5 115q0 98 71.5 159.5t205.5 61.5q127 0 200 -56t74 -156h-187q-5 76 -90 76q-36 0 -57.5 -15.5t-21.5 -45.5q0 -24 23 -42t83 -37q116 -38 167 -87t51 -125q0 -94 -63.5 -154
t-189.5 -71l-32 -27q77 -24 77 -89q0 -57 -43.5 -85t-114.5 -28q-59 0 -103 14l21 82q24 -7 55 -7q42 0 42 20q0 23 -74 29l9 43l52 49q-110 13 -167 72t-60 153z" />
    <glyph glyph-name="uni015F" unicode="&#x15f;" horiz-adv-x="534" 
d="M5 165h173q4 -55 70 -55q60 0 60 44q0 18 -18 29.5t-63 24.5q-98 28 -136 62.5t-38 88.5q0 77 60.5 127t172.5 50q115 0 172.5 -46.5t55.5 -118.5h-171q0 50 -61 50q-51 0 -51 -35q0 -16 19 -26t74 -26q91 -27 128.5 -65.5t37.5 -94.5q0 -82 -57.5 -127.5t-149.5 -55.5
l-34 -29q77 -24 77 -89q0 -57 -43.5 -85t-114.5 -28q-59 0 -103 14l21 82q24 -7 55 -7q42 0 42 20q0 23 -74 29l9 43l55 52q-83 12 -126.5 56.5t-41.5 115.5z" />
    <glyph glyph-name="Scaron" unicode="&#x160;" horiz-adv-x="638" 
d="M12 215h187q4 -43 32 -68.5t80 -25.5q91 0 91 70q0 32 -25 52t-88 41q-110 36 -157.5 82t-47.5 115q0 98 71.5 159.5t205.5 61.5q127 0 200 -56t74 -156h-187q-5 76 -90 76q-36 0 -57.5 -15.5t-21.5 -45.5q0 -24 23 -42t83 -37q116 -38 167 -87t51 -125q0 -103 -77 -165
t-227 -62q-139 0 -211.5 60.5t-75.5 167.5zM479 745h-178l-89 136h153l39 -65l63 65h162z" />
    <glyph glyph-name="scaron" unicode="&#x161;" horiz-adv-x="534" 
d="M5 165h173q4 -55 70 -55q60 0 60 44q0 18 -18 29.5t-63 24.5q-98 28 -136 62.5t-38 88.5q0 77 60.5 127t172.5 50q115 0 172.5 -46.5t55.5 -118.5h-171q0 50 -61 50q-51 0 -51 -35q0 -16 19 -26t74 -26q91 -27 128.5 -65.5t37.5 -94.5q0 -63 -36.5 -105.5t-91.5 -61
t-125 -18.5q-114 0 -174 46t-58 130zM400 579h-164l-74 140h144l27 -63l51 63h153z" />
    <glyph glyph-name="uni0162" unicode="&#x162;" horiz-adv-x="584" 
d="M138 0l116 546h-189l31 143h567l-30 -143h-188l-115 -546h-31l-45 -38q77 -24 77 -89q0 -57 -43.5 -85t-114.5 -28q-59 0 -103 14l21 82q25 -7 55 -7q42 0 42 20q0 23 -74 29l9 43l63 59h-48z" />
    <glyph glyph-name="uni0163" unicode="&#x163;" horiz-adv-x="383" 
d="M38 398l28 126h72l31 136h181l-28 -136h88l-27 -126h-89l-48 -228q-6 -26 1.5 -37.5t35.5 -11.5q18 0 39 3l-25 -120q-27 -8 -76 -10l-37 -32q77 -24 77 -89q0 -57 -43.5 -85t-114.5 -28q-59 0 -103 14l21 82q25 -7 55 -7q42 0 42 20q0 23 -74 29l9 43l65 61
q-86 27 -59 157l51 239h-72z" />
    <glyph glyph-name="Tcaron" unicode="&#x164;" horiz-adv-x="584" 
d="M138 0l116 546h-189l31 143h567l-30 -143h-188l-115 -546h-192zM466 743h-178l-89 136h153l39 -65l63 65h162z" />
    <glyph glyph-name="tcaron" unicode="&#x165;" horiz-adv-x="383" 
d="M441 814h130l-75 -224h-113zM38 398l28 126h72l31 136h181l-28 -136h88l-27 -126h-89l-48 -228q-6 -26 1.5 -37.5t35.5 -11.5q18 0 39 3l-25 -120q-37 -11 -112 -11q-90 0 -116 42.5t-10 123.5l51 239h-72z" />
    <glyph glyph-name="Utilde" unicode="&#x168;" horiz-adv-x="713" 
d="M151 689h192l-93 -434q-14 -62 7.5 -95t75.5 -33q55 0 80.5 28t40.5 91l93 443h193l-93 -435q-31 -139 -104 -202.5t-227 -63.5q-149 0 -216.5 70.5t-36.5 218.5zM373 745h-103l6 35q11 65 41.5 88.5t75.5 23.5q33 0 82 -19t60 -19q21 0 25 29l2 9h102l-5 -32
q-12 -70 -42.5 -94.5t-76.5 -24.5q-33 0 -82.5 18.5t-59.5 18.5q-19 0 -23 -20z" />
    <glyph glyph-name="utilde" unicode="&#x169;" horiz-adv-x="603" 
d="M603 524l-79 -373q-18 -85 -29 -151h-182q2 31 8 61q-58 -72 -159 -72q-78 0 -111.5 50.5t-14.5 140.5l73 344h184l-69 -327q-16 -70 38 -70q71 0 96 120l59 277h186zM290 581h-104l8 39q12 66 40 87.5t70 21.5q34 0 78 -20.5t56 -20.5q19 0 26 30l2 11h102l-6 -31
q-12 -73 -42 -97t-76 -24q-32 0 -75 19t-53 19q-19 0 -23 -22z" />
    <glyph glyph-name="Umacron" unicode="&#x16a;" horiz-adv-x="713" 
d="M151 689h192l-93 -434q-14 -62 7.5 -95t75.5 -33q55 0 80.5 28t40.5 91l93 443h193l-93 -435q-31 -139 -104 -202.5t-227 -63.5q-149 0 -216.5 70.5t-36.5 218.5zM315 866h315l-26 -119h-315z" />
    <glyph glyph-name="umacron" unicode="&#x16b;" horiz-adv-x="603" 
d="M603 524l-79 -373q-18 -85 -29 -151h-182q2 31 8 61q-58 -72 -159 -72q-78 0 -111.5 50.5t-14.5 140.5l73 344h184l-69 -327q-16 -70 38 -70q71 0 96 120l59 277h186zM234 711h309l-25 -121h-309z" />
    <glyph glyph-name="Ubreve" unicode="&#x16c;" horiz-adv-x="713" 
d="M151 689h192l-93 -434q-14 -62 7.5 -95t75.5 -33q55 0 80.5 28t40.5 91l93 443h193l-93 -435q-31 -139 -104 -202.5t-227 -63.5q-149 0 -216.5 70.5t-36.5 218.5zM292 878h118q-1 -22 11 -35.5t37 -13.5q49 0 68 49h117q-11 -31 -24 -54t-35.5 -47.5t-58 -37.5t-82.5 -13
q-85 0 -121.5 45.5t-29.5 106.5z" />
    <glyph glyph-name="ubreve" unicode="&#x16d;" horiz-adv-x="603" 
d="M603 524l-79 -373q-18 -85 -29 -151h-182q2 31 8 61q-58 -72 -159 -72q-78 0 -111.5 50.5t-14.5 140.5l73 344h184l-69 -327q-16 -70 38 -70q71 0 96 120l59 277h186zM223 720h121q0 -43 38 -43q22 0 34 11t21 32h121q-51 -152 -194 -152q-82 0 -116 45t-25 107z" />
    <glyph glyph-name="Uring" unicode="&#x16e;" horiz-adv-x="713" 
d="M151 689h192l-93 -434q-14 -62 7.5 -95t75.5 -33q55 0 80.5 28t40.5 91l93 443h193l-93 -435q-31 -139 -104 -202.5t-227 -63.5q-149 0 -216.5 70.5t-36.5 218.5zM445 724q-55 0 -84 26t-29 66q0 54 40.5 85t100.5 31q56 0 85 -26.5t29 -67.5q0 -53 -40 -83.5t-102 -30.5
zM454 793q19 0 33 10.5t14 29.5q0 31 -36 31q-19 0 -32.5 -11t-13.5 -30q0 -11 8.5 -20.5t26.5 -9.5z" />
    <glyph glyph-name="uring" unicode="&#x16f;" horiz-adv-x="603" 
d="M603 524l-79 -373q-18 -85 -29 -151h-182q2 31 8 61q-58 -72 -159 -72q-78 0 -111.5 50.5t-14.5 140.5l73 344h184l-69 -327q-16 -70 38 -70q71 0 96 120l59 277h186zM361 561q-55 0 -84 26t-29 66q0 54 40.5 85t100.5 31q56 0 85 -26.5t29 -67.5q0 -53 -40 -83.5
t-102 -30.5zM370 630q19 0 33 10.5t14 29.5q0 31 -36 31q-19 0 -32.5 -11t-13.5 -30q0 -11 8.5 -20.5t26.5 -9.5z" />
    <glyph glyph-name="Uhungarumlaut" unicode="&#x170;" horiz-adv-x="713" 
d="M151 689h192l-93 -434q-14 -62 7.5 -95t75.5 -33q55 0 80.5 28t40.5 91l93 443h193l-93 -435q-31 -139 -104 -202.5t-227 -63.5q-149 0 -216.5 70.5t-36.5 218.5zM376 878h170l-158 -137h-136zM601 878h169l-158 -137h-135z" />
    <glyph glyph-name="uhungarumlaut" unicode="&#x171;" horiz-adv-x="603" 
d="M603 524l-79 -373q-18 -85 -29 -151h-182q2 31 8 61q-58 -72 -159 -72q-78 0 -111.5 50.5t-14.5 140.5l73 344h184l-69 -327q-16 -70 38 -70q71 0 96 120l59 277h186zM471 722l-167 -146h-135l131 146h171zM689 722l-164 -146h-136l132 146h168z" />
    <glyph glyph-name="Uogonek" unicode="&#x172;" horiz-adv-x="713" 
d="M151 689h192l-93 -434q-14 -62 7.5 -95t75.5 -33q55 0 80.5 28t40.5 91l93 443h193l-93 -435q-24 -108 -70.5 -169t-134.5 -83q-57 -48 -57 -79q0 -33 44 -33q25 0 43 5l-18 -107q-37 -19 -106 -19q-57 0 -90 26.5t-33 74.5q0 63 65 119q-135 5 -196 76t-31 212z" />
    <glyph glyph-name="uogonek" unicode="&#x173;" horiz-adv-x="603" 
d="M603 524l-79 -373q-18 -85 -29 -151h-21q-57 -48 -57 -79q0 -33 44 -33q25 0 43 5l-18 -107q-37 -19 -106 -19q-57 0 -90 26.5t-33 74.5q0 70 82 132h-26q2 31 8 61q-58 -72 -159 -72q-78 0 -111.5 50.5t-14.5 140.5l73 344h184l-69 -327q-16 -70 38 -70q71 0 96 120
l59 277h186z" />
    <glyph glyph-name="Wcircumflex" unicode="&#x174;" horiz-adv-x="915" 
d="M296 0h-195l-13 689h192q-17 -404 -29 -494h3q26 74 108 262t100 232h168q0 -16 2 -141.5t1.5 -203.5t-4.5 -141h3q40 134 179 486h187l-317 -689h-195q0 4 0.5 185.5t2.5 261.5h-2q-20 -59 -52 -135.5t-80 -181.5t-59 -130zM491 870h178l89 -137h-153l-39 63l-63 -63
h-162z" />
    <glyph glyph-name="wcircumflex" unicode="&#x175;" horiz-adv-x="803" 
d="M52 524h185q-5 -296 -11 -353h4q82 219 137 353h172q-10 -297 -16 -359h3q78 217 138 359h186l-257 -524h-200q0 185 11 306h-3q-15 -46 -123 -306h-200zM410 716h164l74 -140h-146l-28 63l-51 -63h-150z" />
    <glyph glyph-name="Ycircumflex" unicode="&#x176;" horiz-adv-x="606" 
d="M335 0h-194l52 245q3 15 -1 26l-140 418h198q63 -259 70 -300q20 36 53.5 88t77.5 118t62 94h206l-324 -430q-8 -10 -11 -26zM323 877h178l89 -137h-153l-39 63l-63 -63h-162z" />
    <glyph glyph-name="ycircumflex" unicode="&#x177;" horiz-adv-x="539" 
d="M43 524h185q13 -214 10 -376h3q60 157 159 376h188l-258 -503q-37 -75 -66.5 -117.5t-64.5 -67t-70.5 -31.5t-93.5 -7q-44 0 -81 7l30 137q24 -3 40 -3q58 0 82 40zM272 722h164l74 -140h-146l-28 63l-51 -63h-150z" />
    <glyph glyph-name="Ydieresis" unicode="&#x178;" horiz-adv-x="606" 
d="M335 0h-194l52 245q3 15 -1 26l-140 418h198q63 -259 70 -300q20 36 53.5 88t77.5 118t62 94h206l-324 -430q-8 -10 -11 -26zM343 741h-143l30 141h143zM558 741h-143l30 141h144z" />
    <glyph glyph-name="Zacute" unicode="&#x179;" horiz-adv-x="596" 
d="M-35 0l24 119l406 427h-315l31 143h537l-30 -136l-386 -410h341l-51 -143h-557zM442 878h228l-222 -136h-169z" />
    <glyph glyph-name="zacute" unicode="&#x17a;" horiz-adv-x="500" 
d="M-24 0l27 123q11 10 130.5 132t140.5 141h-214l28 128h422l-29 -128q-236 -245 -261 -267h243l-48 -129h-439zM369 733h214l-212 -145h-160z" />
    <glyph glyph-name="Zdotaccent" unicode="&#x17b;" horiz-adv-x="596" 
d="M-35 0l24 119l406 427h-315l31 143h537l-30 -136l-386 -410h341l-51 -143h-557zM464 754h-166l30 141h166z" />
    <glyph glyph-name="zdotaccent" unicode="&#x17c;" horiz-adv-x="500" 
d="M-24 0l27 123q11 10 130.5 132t140.5 141h-214l28 128h422l-29 -128q-236 -245 -261 -267h243l-48 -129h-439zM396 588h-179l30 141h179z" />
    <glyph glyph-name="Zcaron" unicode="&#x17d;" horiz-adv-x="596" 
d="M-35 0l24 119l406 427h-315l31 143h537l-30 -136l-386 -410h341l-51 -143h-557zM462 743h-178l-89 136h153l39 -65l63 65h162z" />
    <glyph glyph-name="zcaron" unicode="&#x17e;" horiz-adv-x="500" 
d="M-24 0l27 123q11 10 130.5 132t140.5 141h-214l28 128h422l-29 -128q-236 -245 -261 -267h243l-48 -129h-439zM384 581h-164l-74 140h144l27 -63l51 63h153z" />
    <glyph glyph-name="uni018F" unicode="&#x18f;" horiz-adv-x="723" 
d="M488 268h-260q-4 -28 -4 -35q0 -110 108 -110q112 0 156 145zM514 395q3 15 3 39q0 61 -28 95t-84 34q-46 0 -76.5 -19t-54.5 -62h-188q37 104 120.5 162t211.5 58q148 0 219.5 -81.5t71.5 -209.5q0 -58 -13 -115.5t-43 -113.5t-74 -99t-111 -69.5t-149 -26.5
q-142 0 -212 74.5t-70 189.5q0 61 22 144h455z" />
    <glyph glyph-name="florin" unicode="&#x192;" horiz-adv-x="454" 
d="M500 676l-32 -124q-21 9 -49 9q-48 0 -64 -82l-9 -47h100l-25 -115h-99l-41 -205q-10 -51 -22 -84.5t-34.5 -68t-61.5 -52t-94 -17.5q-76 0 -112 19l30 134q23 -10 51 -10q26 0 38.5 20t22.5 72l40 192h-85l24 115h85l4 19q9 40 16 65.5t24.5 63.5t40 60t61 38.5
t87.5 16.5q74 0 104 -19z" />
    <glyph glyph-name="Ohorn" unicode="&#x1a0;" horiz-adv-x="751" 
d="M437 702q122 0 197 -61q37 12 37 65q0 23 -4 43h152q3 -16 3 -32q0 -132 -117 -171q26 -59 26 -136q0 -80 -23 -153.5t-68.5 -135t-123.5 -98t-180 -36.5q-143 0 -215.5 79.5t-72.5 202.5q0 63 15 124.5t47 117.5t77 98.5t109.5 67.5t140.5 25zM428 562
q-58 0 -101.5 -50.5t-62 -116.5t-18.5 -130t27.5 -101t83.5 -37q47 0 83.5 29.5t56 76t29.5 95t10 94.5q0 140 -108 140z" />
    <glyph glyph-name="ohorn" unicode="&#x1a1;" horiz-adv-x="607" 
d="M337 536q94 0 154 -42q30 15 30 63q0 23 -4 43h152q3 -16 3 -32q0 -127 -110 -169q15 -40 15 -92q0 -55 -17 -108t-51.5 -101.5t-98.5 -78.5t-148 -30q-119 0 -176 61.5t-57 159.5q0 57 18.5 113t54.5 104.5t97 78.5t138 30zM329 410q-35 0 -62 -41t-37.5 -88t-10.5 -86
q0 -82 58 -82q28 0 50.5 25t35 61.5t19 72t6.5 63.5q0 75 -59 75z" />
    <glyph glyph-name="Uhorn" unicode="&#x1af;" horiz-adv-x="713" 
d="M151 689h192l-93 -434q-14 -62 7.5 -95t75.5 -33q55 0 80.5 28t40.5 91l93 443h101q43 10 43 67q0 23 -4 43h152q3 -17 3 -32q0 -136 -122 -173l-73 -340q-31 -139 -104 -202.5t-227 -63.5q-149 0 -216.5 70.5t-36.5 218.5z" />
    <glyph glyph-name="uhorn" unicode="&#x1b0;" horiz-adv-x="603" 
d="M321 61q-58 -72 -159 -72q-78 0 -111.5 50.5t-14.5 140.5l73 344h184l-69 -327q-16 -70 38 -70q71 0 96 120l59 277h73q28 4 41 19.5t13 49.5q0 23 -4 43h152q3 -17 3 -32q0 -129 -111 -169l-60 -284q-18 -85 -29 -151h-182q2 31 8 61z" />
    <glyph glyph-name="uni01CD" unicode="&#x1cd;" horiz-adv-x="669" 
d="M420 143h-206l-67 -143h-200l355 689h251l71 -689h-192zM276 285h142q-15 176 -18 267h-2q-38 -92 -122 -267zM518 737h-178l-89 136h153l39 -65l63 65h162z" />
    <glyph glyph-name="uni01CE" unicode="&#x1ce;" horiz-adv-x="592" 
d="M553 337l-42 -194q-24 -109 -27 -143h-178q0 7 6 54q-27 -31 -61 -48t-93 -17q-69 0 -107.5 39.5t-38.5 97.5q0 177 250 202q30 2 108 5l4 24q14 66 -47 66q-8 0 -15 -1t-12.5 -3.5t-9.5 -4t-8 -6t-6 -6t-5 -7.5t-4 -7.5t-4 -8.5t-3 -8h-180q38 165 258 165
q124 0 180 -50.5t35 -148.5zM345 217l3 13q-42 0 -72 -6q-76 -15 -76 -64q0 -19 12.5 -31t35.5 -12q25 0 43 8.5t28.5 25.5t15.5 30.5t10 35.5zM441 579h-164l-74 140h144l27 -63l51 63h153z" />
    <glyph glyph-name="uni01CF" unicode="&#x1cf;" horiz-adv-x="330" 
d="M160 689h192l-146 -689h-192zM353 742h-178l-89 136h153l39 -65l63 65h162z" />
    <glyph glyph-name="uni01D0" unicode="&#x1d0;" horiz-adv-x="297" 
d="M2 0l111 524h185l-111 -524h-185zM292 576h-164l-74 140h144l27 -63l51 63h153z" />
    <glyph glyph-name="uni01D1" unicode="&#x1d1;" horiz-adv-x="751" 
d="M437 702q145 0 219.5 -82t74.5 -210q0 -80 -23 -153.5t-68.5 -135t-123.5 -98t-180 -36.5q-143 0 -215.5 79.5t-72.5 202.5q0 63 15 124.5t47 117.5t77 98.5t109.5 67.5t140.5 25zM428 562q-58 0 -101.5 -50.5t-62 -116.5t-18.5 -130t27.5 -101t83.5 -37q47 0 83.5 29.5
t56 76t29.5 95t10 94.5q0 140 -108 140zM543 747h-178l-89 136h153l39 -65l63 65h162z" />
    <glyph glyph-name="uni01D2" unicode="&#x1d2;" horiz-adv-x="607" 
d="M337 536q113 0 176.5 -60t63.5 -169q0 -55 -17 -108t-51.5 -101.5t-98.5 -78.5t-148 -30q-119 0 -176 61.5t-57 159.5q0 57 18.5 113t54.5 104.5t97 78.5t138 30zM329 410q-35 0 -62 -41t-37.5 -88t-10.5 -86q0 -82 58 -82q28 0 50.5 25t35 61.5t19 72t6.5 63.5
q0 75 -59 75zM444 583h-164l-74 140h144l27 -63l51 63h153z" />
    <glyph glyph-name="uni01D3" unicode="&#x1d3;" horiz-adv-x="713" 
d="M151 689h192l-93 -434q-14 -62 7.5 -95t75.5 -33q55 0 80.5 28t40.5 91l93 443h193l-93 -435q-31 -139 -104 -202.5t-227 -63.5q-149 0 -216.5 70.5t-36.5 218.5zM539 739h-178l-89 136h153l39 -65l63 65h162z" />
    <glyph glyph-name="uni01D4" unicode="&#x1d4;" horiz-adv-x="603" 
d="M603 524l-79 -373q-18 -85 -29 -151h-182q2 31 8 61q-58 -72 -159 -72q-78 0 -111.5 50.5t-14.5 140.5l73 344h184l-69 -327q-16 -70 38 -70q71 0 96 120l59 277h186zM442 576h-164l-74 140h144l27 -63l51 63h153z" />
    <glyph glyph-name="uni01D5" unicode="&#x1d5;" horiz-adv-x="713" 
d="M151 689h192l-93 -434q-14 -62 7.5 -95t75.5 -33q55 0 80.5 28t40.5 91l93 443h193l-93 -435q-31 -139 -104 -202.5t-227 -63.5q-149 0 -216.5 70.5t-36.5 218.5zM624 894h-299l21 100h299zM409 737h-135l24 115h135zM610 737h-135l25 115h134z" />
    <glyph glyph-name="uni01D6" unicode="&#x1d6;" horiz-adv-x="603" 
d="M603 524l-79 -373q-18 -85 -29 -151h-182q2 31 8 61q-58 -72 -159 -72q-78 0 -111.5 50.5t-14.5 140.5l73 344h184l-69 -327q-16 -70 38 -70q71 0 96 120l59 277h186zM541 730h-300l22 103h300zM326 570h-135l25 114h134zM524 570h-135l25 114h135z" />
    <glyph glyph-name="uni01D7" unicode="&#x1d7;" horiz-adv-x="713" 
d="M151 689h192l-93 -434q-14 -62 7.5 -95t75.5 -33q55 0 80.5 28t40.5 91l93 443h193l-93 -435q-31 -139 -104 -202.5t-227 -63.5q-149 0 -216.5 70.5t-36.5 218.5zM542 883h-159l131 109h207zM299 849h138l-24 -115h-138zM618 734h-138l24 115h138z" />
    <glyph glyph-name="uni01D8" unicode="&#x1d8;" horiz-adv-x="603" 
d="M603 524l-79 -373q-18 -85 -29 -151h-182q2 31 8 61q-58 -72 -159 -72q-78 0 -111.5 50.5t-14.5 140.5l73 344h184l-69 -327q-16 -70 38 -70q71 0 96 120l59 277h186zM457 715h-156l132 109h197zM212 684h138l-24 -114h-138zM528 570h-139l25 114h138z" />
    <glyph glyph-name="uni01D9" unicode="&#x1d9;" horiz-adv-x="713" 
d="M151 689h192l-93 -434q-14 -62 7.5 -95t75.5 -33q55 0 80.5 28t40.5 91l93 443h193l-93 -435q-31 -139 -104 -202.5t-227 -63.5q-149 0 -216.5 70.5t-36.5 218.5zM558 883h-166l-72 114h135l31 -52l54 52h143zM299 849h138l-24 -115h-138zM618 734h-138l24 115h138z" />
    <glyph glyph-name="uni01DA" unicode="&#x1da;" horiz-adv-x="603" 
d="M603 524l-79 -373q-18 -85 -29 -151h-182q2 31 8 61q-58 -72 -159 -72q-78 0 -111.5 50.5t-14.5 140.5l73 344h184l-69 -327q-16 -70 38 -70q71 0 96 120l59 277h186zM469 715h-167l-72 114h139l30 -53l53 53h140zM213 685h138l-24 -114h-138zM529 571h-139l25 114h138z
" />
    <glyph glyph-name="uni01DB" unicode="&#x1db;" horiz-adv-x="713" 
d="M151 689h192l-93 -434q-14 -62 7.5 -95t75.5 -33q55 0 80.5 28t40.5 91l93 443h193l-93 -435q-31 -139 -104 -202.5t-227 -63.5q-149 0 -216.5 70.5t-36.5 218.5zM556 879h-148l-142 109h195zM297 848h139l-25 -115h-138zM616 733h-138l24 115h139z" />
    <glyph glyph-name="uni01DC" unicode="&#x1dc;" horiz-adv-x="603" 
d="M603 524l-79 -373q-18 -85 -29 -151h-182q2 31 8 61q-58 -72 -159 -72q-78 0 -111.5 50.5t-14.5 140.5l73 344h184l-69 -327q-16 -70 38 -70q71 0 96 120l59 277h186zM190 826h186l86 -109h-141zM212 686h138l-24 -114h-138zM528 572h-139l25 114h138z" />
    <glyph glyph-name="Gcaron" unicode="&#x1e6;" horiz-adv-x="732" 
d="M701 393l-78 -393h-137q-4 29 2 63q-62 -76 -190 -76q-121 0 -185 77.5t-64 202.5q0 81 24.5 156.5t71 139t123.5 101.5t174 38q132 0 204 -63.5t74 -162.5h-191q-1 35 -24.5 61.5t-77.5 26.5q-45 0 -81 -29.5t-56.5 -75.5t-30.5 -94.5t-10 -93.5q0 -144 106 -144
q62 0 91 32.5t40 89.5l1 4h-126l31 140h309zM539 750h-178l-89 136h153l39 -65l63 65h162z" />
    <glyph glyph-name="gcaron" unicode="&#x1e7;" horiz-adv-x="615" 
d="M586 379l-65 -303q-15 -71 -33 -116.5t-51 -85t-87 -58t-132 -18.5q-61 0 -105.5 12.5t-68 29.5t-37 43t-17 45t-3.5 43h182q2 -51 62 -51q40 0 62.5 26.5t37.5 94.5l5 24q-50 -51 -137 -51q-81 0 -125.5 53t-44.5 142q0 59 18 116.5t51 104.5t84.5 76.5t112.5 29.5
q52 0 85 -16t44 -40q8 23 17 44h178q-9 -34 -33 -145zM333 407q-35 0 -61.5 -33t-38.5 -75t-12 -82q0 -76 60 -76q77 0 107 143q6 33 7.5 60.5t-14 45t-48.5 17.5zM456 578h-164l-74 140h144l27 -63l51 63h153z" />
    <glyph glyph-name="uni0218" unicode="&#x218;" horiz-adv-x="638" 
d="M12 215h187q4 -43 32 -68.5t80 -25.5q91 0 91 70q0 32 -25 52t-88 41q-110 36 -157.5 82t-47.5 115q0 98 71.5 159.5t205.5 61.5q127 0 200 -56t74 -156h-187q-5 76 -90 76q-36 0 -57.5 -15.5t-21.5 -45.5q0 -24 23 -42t83 -37q116 -38 167 -87t51 -125q0 -103 -77 -165
t-227 -62q-139 0 -211.5 60.5t-75.5 167.5zM252 -248h-144q37 45 64 100t37 94h163q-16 -57 -50.5 -110.5t-69.5 -83.5z" />
    <glyph glyph-name="uni0219" unicode="&#x219;" horiz-adv-x="534" 
d="M5 165h173q4 -55 70 -55q60 0 60 44q0 18 -18 29.5t-63 24.5q-98 28 -136 62.5t-38 88.5q0 77 60.5 127t172.5 50q115 0 172.5 -46.5t55.5 -118.5h-171q0 50 -61 50q-51 0 -51 -35q0 -16 19 -26t74 -26q91 -27 128.5 -65.5t37.5 -94.5q0 -63 -36.5 -105.5t-91.5 -61
t-125 -18.5q-114 0 -174 46t-58 130zM186 -248h-144q37 45 64 100t37 94h163q-16 -57 -50.5 -110.5t-69.5 -83.5z" />
    <glyph glyph-name="uni021A" unicode="&#x21a;" horiz-adv-x="584" 
d="M138 0l116 546h-189l31 143h567l-30 -143h-188l-115 -546h-192zM188 -248h-144q37 45 64 100t37 94h163q-16 -57 -50.5 -110.5t-69.5 -83.5z" />
    <glyph glyph-name="uni021B" unicode="&#x21b;" horiz-adv-x="383" 
d="M38 398l28 126h72l31 136h181l-28 -136h88l-27 -126h-89l-48 -228q-6 -26 1.5 -37.5t35.5 -11.5q18 0 39 3l-25 -120q-37 -11 -112 -11q-90 0 -116 42.5t-10 123.5l51 239h-72zM119 -248h-144q37 45 64 100t37 94h163q-16 -57 -50.5 -110.5t-69.5 -83.5z" />
    <glyph glyph-name="uni0237" unicode="&#x237;" horiz-adv-x="298" 
d="M114 524h184l-111 -520q-24 -113 -68 -159.5t-143 -46.5q-40 0 -78 5l33 136q6 -1 15 -1q26 0 37 11.5t17 38.5z" />
    <glyph glyph-name="uni0251" unicode="&#x251;" horiz-adv-x="626" 
d="M443 524h183l-81 -375q-22 -100 -29 -149h-180q0 17 5 50q-48 -61 -144 -61q-77 0 -122 54t-45 151q0 86 32.5 163t97.5 128t149 51q46 0 79.5 -14t43.5 -34q10 34 11 36zM340 403q-52 0 -85.5 -68.5t-33.5 -131.5q0 -82 55 -82q86 0 119 159q26 123 -55 123z" />
    <glyph glyph-name="uni0259" unicode="&#x259;" horiz-adv-x="591" 
d="M40 300h331q3 13 3 27q4 84 -60 84q-50 0 -75 -54h-186q26 77 93.5 127.5t180.5 50.5q119 0 175.5 -60.5t56.5 -159.5q0 -54 -16 -108t-49.5 -105t-94.5 -82.5t-141 -31.5q-119 0 -176 57.5t-57 154.5q0 48 15 100zM350 198h-147q-2 -10 -2 -25q0 -64 58 -64q68 0 91 89z
" />
    <glyph glyph-name="uni0261" unicode="&#x261;" horiz-adv-x="615" 
d="M586 379l-65 -303q-15 -71 -33 -116.5t-51 -85t-87 -58t-132 -18.5q-61 0 -105.5 12.5t-68 29.5t-37 43t-17 45t-3.5 43h182q2 -51 62 -51q40 0 62.5 26.5t37.5 94.5l5 24q-50 -51 -137 -51q-81 0 -125.5 53t-44.5 142q0 59 18 116.5t51 104.5t84.5 76.5t112.5 29.5
q52 0 85 -16t44 -40q8 23 17 44h178q-9 -34 -33 -145zM333 407q-35 0 -61.5 -33t-38.5 -75t-12 -82q0 -76 60 -76q77 0 107 143q6 33 7.5 60.5t-14 45t-48.5 17.5z" />
    <glyph glyph-name="uni02BB" unicode="&#x2bb;" horiz-adv-x="415" 
d="M278 724h137q-80 -159 -110 -303h-170q18 75 58 160t85 143z" />
    <glyph glyph-name="uni02BC" unicode="&#x2bc;" horiz-adv-x="415" 
d="M271 421h-137q81 157 110 303h171q-19 -76 -59 -161t-85 -142z" />
    <glyph glyph-name="uni02BE" unicode="&#x2be;" horiz-adv-x="333" 
d="M194 700l16 75q53 0 83.5 -26t26.5 -72q-4 -54 -47 -84.5t-108 -29.5l16 73q41 3 44 36q1 13 -7.5 20t-23.5 8z" />
    <glyph glyph-name="uni02BF" unicode="&#x2bf;" horiz-adv-x="333" 
d="M313 638l-16 -75q-53 0 -83.5 26t-26.5 72q4 54 47 84.5t108 29.5l-16 -73q-41 -3 -44 -36q-1 -13 7.5 -20t23.5 -8z" />
    <glyph glyph-name="circumflex" unicode="&#x2c6;" 
d="M209 716h164l74 -140h-146l-28 63l-51 -63h-150z" />
    <glyph glyph-name="caron" unicode="&#x2c7;" 
d="M341 576h-164l-74 140h144l27 -63l51 63h153z" />
    <glyph glyph-name="uni02C8" unicode="&#x2c8;" horiz-adv-x="335" 
d="M296 546h-134l42 201h134z" />
    <glyph glyph-name="uni02C9" unicode="&#x2c9;" horiz-adv-x="509" 
d="M196 711h309l-25 -121h-309z" />
    <glyph glyph-name="uni02CA" unicode="&#x2ca;" horiz-adv-x="514" 
d="M341 733h214l-212 -145h-160z" />
    <glyph glyph-name="uni02CB" unicode="&#x2cb;" horiz-adv-x="505" 
d="M172 733h192l100 -145h-146z" />
    <glyph glyph-name="uni02CC" unicode="&#x2cc;" horiz-adv-x="335" 
d="M126 -254h-134l42 201h134z" />
    <glyph glyph-name="breve" unicode="&#x2d8;" 
d="M122 720h121q0 -43 38 -43q22 0 34 11t21 32h121q-51 -152 -194 -152q-82 0 -116 45t-25 107z" />
    <glyph glyph-name="dotaccent" unicode="&#x2d9;" 
d="M346 584h-179l30 141h179z" />
    <glyph glyph-name="ring" unicode="&#x2da;" 
d="M260 561q-55 0 -84 26t-29 66q0 54 40.5 85t100.5 31q56 0 85 -26.5t29 -67.5q0 -53 -40 -83.5t-102 -30.5zM269 630q19 0 33 10.5t14 29.5q0 31 -36 31q-19 0 -32.5 -11t-13.5 -30q0 -11 8.5 -20.5t26.5 -9.5z" />
    <glyph glyph-name="ogonek" unicode="&#x2db;" 
d="M135 24l101 -23q-58 -49 -58 -80q0 -33 44 -33q25 0 43 5l-18 -107q-37 -19 -106 -19q-57 0 -90 26.5t-33 74.5q0 83 117 156z" />
    <glyph glyph-name="tilde" unicode="&#x2dc;" 
d="M188 578h-104l8 39q12 66 40 87.5t70 21.5q34 0 78 -20.5t56 -20.5q19 0 26 30l2 11h102l-6 -31q-12 -73 -42 -97t-76 -24q-32 0 -75 19t-53 19q-19 0 -23 -22z" />
    <glyph glyph-name="hungarumlaut" unicode="&#x2dd;" 
d="M370 722l-167 -146h-135l131 146h171zM588 722l-164 -146h-136l132 146h168z" />
    <glyph glyph-name="uni0300" unicode="&#x300;" horiz-adv-x="0" 
d="M-146 733h192l100 -145h-146z" />
    <glyph glyph-name="uni0301" unicode="&#x301;" horiz-adv-x="0" 
d="M23 733h214l-212 -145h-160z" />
    <glyph glyph-name="uni0302" unicode="&#x302;" horiz-adv-x="0" 
d="M-37 716h164l74 -140h-146l-28 63l-51 -63h-150z" />
    <glyph glyph-name="uni0303" unicode="&#x303;" horiz-adv-x="0" 
d="M-58 578h-104l8 39q12 66 40 87.5t70 21.5q34 0 78 -20.5t56 -20.5q19 0 26 30l2 11h102l-6 -31q-12 -73 -42 -97t-76 -24q-32 0 -75 19t-53 19q-19 0 -23 -22z" />
    <glyph glyph-name="uni0304" unicode="&#x304;" horiz-adv-x="0" 
d="M-113 711h309l-25 -121h-309z" />
    <glyph glyph-name="uni0306" unicode="&#x306;" horiz-adv-x="0" 
d="M-124 720h121q0 -43 38 -43q22 0 34 11t21 32h121q-51 -152 -194 -152q-82 0 -116 45t-25 107z" />
    <glyph glyph-name="uni0307" unicode="&#x307;" horiz-adv-x="0" 
d="M100 584h-179l30 141h179z" />
    <glyph glyph-name="uni0308" unicode="&#x308;" horiz-adv-x="0" 
d="M-22 584h-144l31 141h143zM184 584h-144l31 141h143z" />
    <glyph glyph-name="uni0309" unicode="&#x309;" horiz-adv-x="0" 
d="M71 577h-135q21 16 29 23t19.5 21t11.5 26q0 18 -23 18q-27 0 -48 -11l-16 85q54 33 122 33q51 0 79 -24t28 -59q0 -62 -67 -112z" />
    <glyph glyph-name="uni030A" unicode="&#x30a;" horiz-adv-x="0" 
d="M14 561q-55 0 -84 26t-29 66q0 54 40.5 85t100.5 31q56 0 85 -26.5t29 -67.5q0 -53 -40 -83.5t-102 -30.5zM23 630q19 0 33 10.5t14 29.5q0 31 -36 31q-19 0 -32.5 -11t-13.5 -30q0 -11 8.5 -20.5t26.5 -9.5z" />
    <glyph glyph-name="uni030B" unicode="&#x30b;" horiz-adv-x="0" 
d="M84 722l-167 -146h-135l131 146h171zM302 722l-164 -146h-136l132 146h168z" />
    <glyph glyph-name="uni030C" unicode="&#x30c;" horiz-adv-x="0" 
d="M121 576h-164l-74 140h144l27 -63l51 63h153z" />
    <glyph glyph-name="uni031B" unicode="&#x31b;" horiz-adv-x="0" 
d="M-4 446l-25 104q28 4 41 19.5t13 49.5q0 23 -4 43h152q3 -16 3 -32q0 -84 -48 -130.5t-132 -53.5z" />
    <glyph glyph-name="uni0323" unicode="&#x323;" horiz-adv-x="0" 
d="M-61 -207h-172l33 157h172z" />
    <glyph glyph-name="uni0324" unicode="&#x324;" horiz-adv-x="0" 
d="M-191 -215h-144l31 141h143zM15 -215h-144l31 141h143z" />
    <glyph glyph-name="uni0326" unicode="&#x326;" horiz-adv-x="0" 
d="M-87 -248h-144q37 45 64 100t37 94h163q-16 -57 -50.5 -110.5t-69.5 -83.5z" />
    <glyph glyph-name="uni0327" unicode="&#x327;" horiz-adv-x="0" 
d="M-144 8l107 -6l-47 -40q77 -24 77 -89q0 -57 -43.5 -85t-114.5 -28q-59 0 -103 14l21 82q25 -7 55 -7q42 0 42 20q0 23 -74 29l9 43z" />
    <glyph glyph-name="uni0328" unicode="&#x328;" horiz-adv-x="0" 
d="M-126 24l101 -23q-58 -49 -58 -80q0 -33 44 -33q25 0 43 5l-18 -107q-37 -19 -106 -19q-57 0 -90 26.5t-33 74.5q0 83 117 156z" />
    <glyph glyph-name="uni032E" unicode="&#x32e;" horiz-adv-x="0" 
d="M-289 -59h121q0 -43 38 -43q22 0 34 11t21 32h121q-51 -152 -194 -152q-82 0 -116 45t-25 107z" />
    <glyph glyph-name="uni0331" unicode="&#x331;" horiz-adv-x="0" 
d="M-279 -72h309l-25 -121h-309z" />
    <glyph glyph-name="pi" unicode="&#x3c0;" horiz-adv-x="619" 
d="M300 0l85 396h-106l-85 -396h-170l83 396q-59 0 -79 -5l29 124q40 9 169 9h440l-30 -129h-65l-87 -395h-184z" />
    <glyph glyph-name="uni1E0C" unicode="&#x1e0c;" horiz-adv-x="731" 
d="M14 0l146 689h250q143 0 223 -78.5t80 -213.5q0 -61 -14.5 -117.5t-46 -108t-78 -89t-115 -60t-152.5 -22.5h-293zM323 551l-88 -413h83q89 0 142 77.5t53 187.5q0 148 -126 148h-64zM330 -207h-172l33 157h172z" />
    <glyph glyph-name="uni1E0D" unicode="&#x1e0d;" horiz-adv-x="626" 
d="M482 724h185l-122 -575q-25 -125 -29 -149h-180q0 17 5 50q-48 -61 -141 -61q-81 0 -125.5 53.5t-44.5 147.5q0 87 31 164.5t95.5 129.5t149.5 52q46 0 80.5 -13.5t45.5 -31.5zM340 403q-52 0 -85.5 -68t-33.5 -132q0 -82 60 -82q84 0 114 159q13 61 0 92t-55 31z
M338 -208h-172l33 157h172z" />
    <glyph glyph-name="uni1E0E" unicode="&#x1e0e;" horiz-adv-x="731" 
d="M14 0l146 689h250q143 0 223 -78.5t80 -213.5q0 -61 -14.5 -117.5t-46 -108t-78 -89t-115 -60t-152.5 -22.5h-293zM323 551l-88 -413h83q89 0 142 77.5t53 187.5q0 148 -126 148h-64zM108 -72h309l-25 -121h-309z" />
    <glyph glyph-name="uni1E0F" unicode="&#x1e0f;" horiz-adv-x="626" 
d="M482 724h185l-122 -575q-25 -125 -29 -149h-180q0 17 5 50q-48 -61 -141 -61q-81 0 -125.5 53.5t-44.5 147.5q0 87 31 164.5t95.5 129.5t149.5 52q46 0 80.5 -13.5t45.5 -31.5zM340 403q-52 0 -85.5 -68t-33.5 -132q0 -82 60 -82q84 0 114 159q13 61 0 92t-55 31z
M109 -72h309l-25 -121h-309z" />
    <glyph glyph-name="uni1E20" unicode="&#x1e20;" horiz-adv-x="732" 
d="M701 393l-78 -393h-137q-4 29 2 63q-62 -76 -190 -76q-121 0 -185 77.5t-64 202.5q0 81 24.5 156.5t71 139t123.5 101.5t174 38q132 0 204 -63.5t74 -162.5h-191q-1 35 -24.5 61.5t-77.5 26.5q-45 0 -81 -29.5t-56.5 -75.5t-30.5 -94.5t-10 -93.5q0 -144 106 -144
q62 0 91 32.5t40 89.5l1 4h-126l31 140h309zM326 871h315l-26 -119h-315z" />
    <glyph glyph-name="uni1E21" unicode="&#x1e21;" horiz-adv-x="615" 
d="M586 379l-65 -303q-15 -71 -33 -116.5t-51 -85t-87 -58t-132 -18.5q-61 0 -105.5 12.5t-68 29.5t-37 43t-17 45t-3.5 43h182q2 -51 62 -51q40 0 62.5 26.5t37.5 94.5l5 24q-50 -51 -137 -51q-81 0 -125.5 53t-44.5 142q0 59 18 116.5t51 104.5t84.5 76.5t112.5 29.5
q52 0 85 -16t44 -40q8 23 17 44h178q-9 -34 -33 -145zM333 407q-35 0 -61.5 -33t-38.5 -75t-12 -82q0 -76 60 -76q77 0 107 143q6 33 7.5 60.5t-14 45t-48.5 17.5zM248 713h309l-25 -121h-309z" />
    <glyph glyph-name="uni1E24" unicode="&#x1e24;" horiz-adv-x="726" 
d="M14 0l146 689h192l-55 -257h204l55 257h192l-146 -689h-192l61 290h-204l-61 -290h-192zM359 -200h-172l33 157h172z" />
    <glyph glyph-name="uni1E25" unicode="&#x1e25;" horiz-adv-x="606" 
d="M2 0l153 724h185l-53 -254q60 66 149 66q82 0 117 -51t14 -152l-70 -333h-184l66 318q9 39 0 58.5t-41 19.5q-66 0 -87 -95l-64 -301h-185zM296 -207h-172l33 157h172z" />
    <glyph glyph-name="uni1E2A" unicode="&#x1e2a;" horiz-adv-x="726" 
d="M14 0l146 689h192l-55 -257h204l55 257h192l-146 -689h-192l61 290h-204l-61 -290h-192zM133 -59h121q0 -43 38 -43q22 0 34 11t21 32h121q-51 -152 -194 -152q-82 0 -116 45t-25 107z" />
    <glyph glyph-name="uni1E2B" unicode="&#x1e2b;" horiz-adv-x="606" 
d="M2 0l153 724h185l-53 -254q60 66 149 66q82 0 117 -51t14 -152l-70 -333h-184l66 318q9 39 0 58.5t-41 19.5q-66 0 -87 -95l-64 -301h-185zM74 -59h121q0 -43 38 -43q22 0 34 11t21 32h121q-51 -152 -194 -152q-82 0 -116 45t-25 107z" />
    <glyph glyph-name="uni1E36" unicode="&#x1e36;" horiz-adv-x="581" 
d="M14 0l146 689h192l-116 -546h314l-51 -143h-485zM316 -207h-172l33 157h172z" />
    <glyph glyph-name="uni1E37" unicode="&#x1e37;" horiz-adv-x="297" 
d="M187 0h-185l153 724h185zM139 -207h-172l33 157h172z" />
    <glyph glyph-name="uni1E38" unicode="&#x1e38;" horiz-adv-x="581" 
d="M14 0l146 689h192l-116 -546h314l-51 -143h-485zM319 -208h-172l33 157h172zM132 861h315l-26 -119h-315z" />
    <glyph glyph-name="uni1E39" unicode="&#x1e39;" horiz-adv-x="297" 
d="M187 0h-185l153 724h185zM125 906h309l-25 -121h-309zM140 -207h-172l33 157h172z" />
    <glyph glyph-name="uni1E3A" unicode="&#x1e3a;" horiz-adv-x="581" 
d="M14 0l146 689h192l-116 -546h314l-51 -143h-485zM99 -68h309l-25 -121h-309z" />
    <glyph glyph-name="uni1E3B" unicode="&#x1e3b;" horiz-adv-x="297" 
d="M187 0h-185l153 724h185zM-71 -72h309l-25 -121h-309z" />
    <glyph glyph-name="uni1E42" unicode="&#x1e42;" horiz-adv-x="873" 
d="M564 0l47 225q47 218 75 332h-4q-120 -298 -233 -557h-156q1 54 1.5 179t1.5 217.5t4 160.5h-5q-20 -135 -63 -338l-47 -219h-172l146 689h279q2 -257 -9 -441h4q27 76 186 441h276l-146 -689h-185zM418 -207h-172l33 157h172z" />
    <glyph glyph-name="uni1E43" unicode="&#x1e43;" horiz-adv-x="886" 
d="M2 0l78 372q24 114 30 152h181q-2 -26 -8 -54q61 66 148 66q98 0 118 -76q72 76 170 76q78 0 113.5 -49t13.5 -150l-71 -337h-181l69 325q13 71 -41 71q-33 0 -50.5 -23t-27.5 -72l-64 -301h-182l70 330q14 66 -41 66q-33 0 -51 -23t-29 -77l-63 -296h-182zM435 -207
h-172l33 157h172z" />
    <glyph glyph-name="uni1E44" unicode="&#x1e44;" horiz-adv-x="737" 
d="M192 0h-179l146 689h235q10 -48 35.5 -165t39.5 -189.5t19 -114.5h3q13 100 58 316l33 153h177l-146 -689h-224q-6 30 -25.5 120.5t-31.5 148.5t-24.5 125.5t-15.5 98.5h-3q-10 -74 -63 -332zM537 741h-166l30 141h166z" />
    <glyph glyph-name="uni1E45" unicode="&#x1e45;" horiz-adv-x="607" 
d="M2 0l80 380q21 99 28 144h183q-2 -29 -8 -55q60 67 152 67q173 0 127 -217l-67 -319h-184l66 318q19 78 -40 78q-69 0 -92 -110l-60 -286h-185zM445 588h-179l30 141h179z" />
    <glyph glyph-name="uni1E46" unicode="&#x1e46;" horiz-adv-x="737" 
d="M192 0h-179l146 689h235q10 -48 35.5 -165t39.5 -189.5t19 -114.5h3q13 100 58 316l33 153h177l-146 -689h-224q-6 30 -25.5 120.5t-31.5 148.5t-24.5 125.5t-15.5 98.5h-3q-10 -74 -63 -332zM367 -206h-172l33 157h172z" />
    <glyph glyph-name="uni1E47" unicode="&#x1e47;" horiz-adv-x="607" 
d="M2 0l80 380q21 99 28 144h183q-2 -29 -8 -55q60 67 152 67q173 0 127 -217l-67 -319h-184l66 318q19 78 -40 78q-69 0 -92 -110l-60 -286h-185zM296 -207h-172l33 157h172z" />
    <glyph glyph-name="uni1E48" unicode="&#x1e48;" horiz-adv-x="737" 
d="M192 0h-179l146 689h235q10 -48 35.5 -165t39.5 -189.5t19 -114.5h3q13 100 58 316l33 153h177l-146 -689h-224q-6 30 -25.5 120.5t-31.5 148.5t-24.5 125.5t-15.5 98.5h-3q-10 -74 -63 -332zM162 -69h309l-25 -121h-309z" />
    <glyph glyph-name="uni1E49" unicode="&#x1e49;" horiz-adv-x="607" 
d="M2 0l80 380q21 99 28 144h183q-2 -29 -8 -55q60 67 152 67q173 0 127 -217l-67 -319h-184l66 318q19 78 -40 78q-69 0 -92 -110l-60 -286h-185zM84 -72h309l-25 -121h-309z" />
    <glyph glyph-name="uni1E5A" unicode="&#x1e5a;" horiz-adv-x="674" 
d="M349 265h-90l-56 -265h-189l146 689h296q108 0 166 -49t58 -132q0 -69 -38 -116t-104 -66q85 -37 58 -170q-26 -125 -23 -156h-182q-6 45 19 163q13 49 0.5 75.5t-61.5 26.5zM320 555l-33 -156h88q112 0 112 88q0 68 -81 68h-86zM346 -200h-172l33 157h172z" />
    <glyph glyph-name="uni1E5B" unicode="&#x1e5b;" horiz-adv-x="424" 
d="M451 535l-38 -174q-81 4 -122 -31t-59 -117l-45 -213h-185l76 360q18 83 32 164h180q-2 -33 -14 -88q28 49 68 74t107 25zM138 -207h-172l33 157h172z" />
    <glyph glyph-name="uni1E5C" unicode="&#x1e5c;" horiz-adv-x="674" 
d="M349 265h-90l-56 -265h-189l146 689h296q108 0 166 -49t58 -132q0 -69 -38 -116t-104 -66q85 -37 58 -170q-26 -125 -23 -156h-182q-6 45 19 163q13 49 0.5 75.5t-61.5 26.5zM320 555l-33 -156h88q112 0 112 88q0 68 -81 68h-86zM346 -200h-172l33 157h172zM291 869h315
l-26 -119h-315z" />
    <glyph glyph-name="uni1E5D" unicode="&#x1e5d;" horiz-adv-x="424" 
d="M451 535l-38 -174q-81 4 -122 -31t-59 -117l-45 -213h-185l76 360q18 83 32 164h180q-2 -33 -14 -88q28 49 68 74t107 25zM151 711h309l-25 -121h-309zM140 -207h-172l33 157h172z" />
    <glyph glyph-name="uni1E5E" unicode="&#x1e5e;" horiz-adv-x="674" 
d="M349 265h-90l-56 -265h-189l146 689h296q108 0 166 -49t58 -132q0 -69 -38 -116t-104 -66q85 -37 58 -170q-26 -125 -23 -156h-182q-6 45 19 163q13 49 0.5 75.5t-61.5 26.5zM320 555l-33 -156h88q112 0 112 88q0 68 -81 68h-86zM131 -66h309l-25 -121h-309z" />
    <glyph glyph-name="uni1E5F" unicode="&#x1e5f;" horiz-adv-x="424" 
d="M451 535l-38 -174q-81 4 -122 -31t-59 -117l-45 -213h-185l76 360q18 83 32 164h180q-2 -33 -14 -88q28 49 68 74t107 25zM-70 -64h309l-25 -121h-309z" />
    <glyph glyph-name="uni1E60" unicode="&#x1e60;" horiz-adv-x="638" 
d="M12 215h187q4 -43 32 -68.5t80 -25.5q91 0 91 70q0 32 -25 52t-88 41q-110 36 -157.5 82t-47.5 115q0 98 71.5 159.5t205.5 61.5q127 0 200 -56t74 -156h-187q-5 76 -90 76q-36 0 -57.5 -15.5t-21.5 -45.5q0 -24 23 -42t83 -37q116 -38 167 -87t51 -125q0 -103 -77 -165
t-227 -62q-139 0 -211.5 60.5t-75.5 167.5zM480 748h-166l30 141h166z" />
    <glyph glyph-name="uni1E61" unicode="&#x1e61;" horiz-adv-x="534" 
d="M5 165h173q4 -55 70 -55q60 0 60 44q0 18 -18 29.5t-63 24.5q-98 28 -136 62.5t-38 88.5q0 77 60.5 127t172.5 50q115 0 172.5 -46.5t55.5 -118.5h-171q0 50 -61 50q-51 0 -51 -35q0 -16 19 -26t74 -26q91 -27 128.5 -65.5t37.5 -94.5q0 -63 -36.5 -105.5t-91.5 -61
t-125 -18.5q-114 0 -174 46t-58 130zM413 590h-179l30 141h179z" />
    <glyph glyph-name="uni1E62" unicode="&#x1e62;" horiz-adv-x="638" 
d="M12 215h187q4 -43 32 -68.5t80 -25.5q91 0 91 70q0 32 -25 52t-88 41q-110 36 -157.5 82t-47.5 115q0 98 71.5 159.5t205.5 61.5q127 0 200 -56t74 -156h-187q-5 76 -90 76q-36 0 -57.5 -15.5t-21.5 -45.5q0 -24 23 -42t83 -37q116 -38 167 -87t51 -125q0 -103 -77 -165
t-227 -62q-139 0 -211.5 60.5t-75.5 167.5zM328 -220h-172l33 157h172z" />
    <glyph glyph-name="uni1E63" unicode="&#x1e63;" horiz-adv-x="534" 
d="M5 165h173q4 -55 70 -55q60 0 60 44q0 18 -18 29.5t-63 24.5q-98 28 -136 62.5t-38 88.5q0 77 60.5 127t172.5 50q115 0 172.5 -46.5t55.5 -118.5h-171q0 50 -61 50q-51 0 -51 -35q0 -16 19 -26t74 -26q91 -27 128.5 -65.5t37.5 -94.5q0 -63 -36.5 -105.5t-91.5 -61
t-125 -18.5q-114 0 -174 46t-58 130zM269 -209h-172l33 157h172z" />
    <glyph glyph-name="uni1E6C" unicode="&#x1e6c;" horiz-adv-x="584" 
d="M138 0l116 546h-189l31 143h567l-30 -143h-188l-115 -546h-192zM278 -207h-172l33 157h172z" />
    <glyph glyph-name="uni1E6D" unicode="&#x1e6d;" horiz-adv-x="383" 
d="M38 398l28 126h72l31 136h181l-28 -136h88l-27 -126h-89l-48 -228q-6 -26 1.5 -37.5t35.5 -11.5q18 0 39 3l-25 -120q-37 -11 -112 -11q-90 0 -116 42.5t-10 123.5l51 239h-72zM200 -210h-172l33 157h172z" />
    <glyph glyph-name="uni1E6E" unicode="&#x1e6e;" horiz-adv-x="584" 
d="M138 0l116 546h-189l31 143h567l-30 -143h-188l-115 -546h-192zM72 -66h309l-25 -121h-309z" />
    <glyph glyph-name="uni1E6F" unicode="&#x1e6f;" horiz-adv-x="383" 
d="M38 398l28 126h72l31 136h181l-28 -136h88l-27 -126h-89l-48 -228q-6 -26 1.5 -37.5t35.5 -11.5q18 0 39 3l-25 -120q-37 -11 -112 -11q-90 0 -116 42.5t-10 123.5l51 239h-72zM-5 -65h309l-25 -121h-309z" />
    <glyph glyph-name="Wgrave" unicode="&#x1e80;" horiz-adv-x="915" 
d="M296 0h-195l-13 689h192q-17 -404 -29 -494h3q26 74 108 262t100 232h168q0 -16 2 -141.5t1.5 -203.5t-4.5 -141h3q40 134 179 486h187l-317 -689h-195q0 4 0.5 185.5t2.5 261.5h-2q-20 -59 -52 -135.5t-80 -181.5t-59 -130zM287 878h215l132 -136h-164z" />
    <glyph glyph-name="wgrave" unicode="&#x1e81;" horiz-adv-x="803" 
d="M52 524h185q-5 -296 -11 -353h4q82 219 137 353h172q-10 -297 -16 -359h3q78 217 138 359h186l-257 -524h-200q0 185 11 306h-3q-15 -46 -123 -306h-200zM249 733h192l100 -145h-146z" />
    <glyph glyph-name="Wacute" unicode="&#x1e82;" horiz-adv-x="915" 
d="M296 0h-195l-13 689h192q-17 -404 -29 -494h3q26 74 108 262t100 232h168q0 -16 2 -141.5t1.5 -203.5t-4.5 -141h3q40 134 179 486h187l-317 -689h-195q0 4 0.5 185.5t2.5 261.5h-2q-20 -59 -52 -135.5t-80 -181.5t-59 -130zM621 875h228l-222 -136h-169z" />
    <glyph glyph-name="wacute" unicode="&#x1e83;" horiz-adv-x="803" 
d="M52 524h185q-5 -296 -11 -353h4q82 219 137 353h172q-10 -297 -16 -359h3q78 217 138 359h186l-257 -524h-200q0 185 11 306h-3q-15 -46 -123 -306h-200zM532 731h214l-212 -145h-160z" />
    <glyph glyph-name="Wdieresis" unicode="&#x1e84;" horiz-adv-x="915" 
d="M296 0h-195l-13 689h192q-17 -404 -29 -494h3q26 74 108 262t100 232h168q0 -16 2 -141.5t1.5 -203.5t-4.5 -141h3q40 134 179 486h187l-317 -689h-195q0 4 0.5 185.5t2.5 261.5h-2q-20 -59 -52 -135.5t-80 -181.5t-59 -130zM515 742h-143l30 141h143zM730 742h-143
l30 141h144z" />
    <glyph glyph-name="wdieresis" unicode="&#x1e85;" horiz-adv-x="803" 
d="M52 524h185q-5 -296 -11 -353h4q82 219 137 353h172q-10 -297 -16 -359h3q78 217 138 359h186l-257 -524h-200q0 185 11 306h-3q-15 -46 -123 -306h-200zM426 587h-144l31 141h143zM632 587h-144l31 141h143z" />
    <glyph glyph-name="uni1E8E" unicode="&#x1e8e;" horiz-adv-x="606" 
d="M335 0h-194l52 245q3 15 -1 26l-140 418h198q63 -259 70 -300q20 36 53.5 88t77.5 118t62 94h206l-324 -430q-8 -10 -11 -26zM465 740h-166l30 141h166z" />
    <glyph glyph-name="uni1E8F" unicode="&#x1e8f;" horiz-adv-x="539" 
d="M43 524h185q13 -214 10 -376h3q60 157 159 376h188l-258 -503q-37 -75 -66.5 -117.5t-64.5 -67t-70.5 -31.5t-93.5 -7q-44 0 -81 7l30 137q24 -3 40 -3q58 0 82 40zM408 586h-179l30 141h179z" />
    <glyph glyph-name="uni1E92" unicode="&#x1e92;" horiz-adv-x="596" 
d="M-35 0l24 119l406 427h-315l31 143h537l-30 -136l-386 -410h341l-51 -143h-557zM307 -215h-172l33 157h172z" />
    <glyph glyph-name="uni1E93" unicode="&#x1e93;" horiz-adv-x="500" 
d="M-24 0l27 123q11 10 130.5 132t140.5 141h-214l28 128h422l-29 -128q-236 -245 -261 -267h243l-48 -129h-439zM249 -214h-172l33 157h172z" />
    <glyph glyph-name="uni1E97" unicode="&#x1e97;" horiz-adv-x="383" 
d="M38 398l28 126h72l31 136h181l-28 -136h88l-27 -126h-89l-48 -228q-6 -26 1.5 -37.5t35.5 -11.5q18 0 39 3l-25 -120q-37 -11 -112 -11q-90 0 -116 42.5t-10 123.5l51 239h-72zM240 708h-144l31 141h143zM446 708h-144l31 141h143z" />
    <glyph glyph-name="uni1E9E" unicode="&#x1e9e;" horiz-adv-x="726" 
d="M304 469l-100 -469h-191l104 489q24 114 96.5 163.5t207.5 49.5q77 0 134 -17.5t87 -46.5t44 -60.5t14 -64.5q0 -36 -7 -57l-141 -75l-1 -5l36 -29q52 -41 74.5 -77.5t22.5 -85.5q0 -80 -61 -137t-183 -57q-116 0 -183 48l31 138q68 -57 143 -57q65 0 65 49
q0 19 -11 34.5t-45 39.5l-68 48q-43 33 -36 75t52 68l118 67q1 3 1 11q0 24 -21.5 43.5t-71.5 19.5q-47 0 -72.5 -24t-37.5 -81z" />
    <glyph glyph-name="uni1EA0" unicode="&#x1ea0;" horiz-adv-x="669" 
d="M420 143h-206l-67 -143h-200l355 689h251l71 -689h-192zM276 285h142q-15 176 -18 267h-2q-38 -92 -122 -267zM341 -200h-172l33 157h172z" />
    <glyph glyph-name="uni1EA1" unicode="&#x1ea1;" horiz-adv-x="592" 
d="M553 337l-42 -194q-24 -109 -27 -143h-178q0 7 6 54q-27 -31 -61 -48t-93 -17q-69 0 -107.5 39.5t-38.5 97.5q0 177 250 202q30 2 108 5l4 24q14 66 -47 66q-8 0 -15 -1t-12.5 -3.5t-9.5 -4t-8 -6t-6 -6t-5 -7.5t-4 -7.5t-4 -8.5t-3 -8h-180q38 165 258 165
q124 0 180 -50.5t35 -148.5zM345 217l3 13q-42 0 -72 -6q-76 -15 -76 -64q0 -19 12.5 -31t35.5 -12q25 0 43 8.5t28.5 25.5t15.5 30.5t10 35.5zM302 -217h-172l33 157h172z" />
    <glyph glyph-name="uni1EA2" unicode="&#x1ea2;" horiz-adv-x="669" 
d="M420 143h-206l-67 -143h-200l355 689h251l71 -689h-192zM276 285h142q-15 176 -18 267h-2q-38 -92 -122 -267zM491 731h-135q21 16 29 23t19.5 21t11.5 26q0 18 -23 18q-27 0 -48 -11l-16 85q54 33 122 33q51 0 79 -24t28 -59q0 -62 -67 -112z" />
    <glyph glyph-name="uni1EA3" unicode="&#x1ea3;" horiz-adv-x="592" 
d="M553 337l-42 -194q-24 -109 -27 -143h-178q0 7 6 54q-27 -31 -61 -48t-93 -17q-69 0 -107.5 39.5t-38.5 97.5q0 177 250 202q30 2 108 5l4 24q14 66 -47 66q-8 0 -15 -1t-12.5 -3.5t-9.5 -4t-8 -6t-6 -6t-5 -7.5t-4 -7.5t-4 -8.5t-3 -8h-180q38 165 258 165
q124 0 180 -50.5t35 -148.5zM345 217l3 13q-42 0 -72 -6q-76 -15 -76 -64q0 -19 12.5 -31t35.5 -12q25 0 43 8.5t28.5 25.5t15.5 30.5t10 35.5zM429 580h-135q21 16 29 23t19.5 21t11.5 26q0 18 -23 18q-27 0 -48 -11l-16 85q54 33 122 33q51 0 79 -24t28 -59
q0 -62 -67 -112z" />
    <glyph glyph-name="uni1EA4" unicode="&#x1ea4;" horiz-adv-x="669" 
d="M420 143h-206l-67 -143h-200l355 689h251l71 -689h-192zM276 285h142q-15 176 -18 267h-2q-38 -92 -122 -267zM376 859h161l94 -128h-146l-43 56l-62 -56h-155zM712 940h176l-167 -117h-126z" />
    <glyph glyph-name="uni1EA5" unicode="&#x1ea5;" horiz-adv-x="592" 
d="M553 337l-42 -194q-24 -109 -27 -143h-178q0 7 6 54q-27 -31 -61 -48t-93 -17q-69 0 -107.5 39.5t-38.5 97.5q0 177 250 202q30 2 108 5l4 24q14 66 -47 66q-8 0 -15 -1t-12.5 -3.5t-9.5 -4t-8 -6t-6 -6t-5 -7.5t-4 -7.5t-4 -8.5t-3 -8h-180q38 165 258 165
q124 0 180 -50.5t35 -148.5zM345 217l3 13q-42 0 -72 -6q-76 -15 -76 -64q0 -19 12.5 -31t35.5 -12q25 0 43 8.5t28.5 25.5t15.5 30.5t10 35.5zM303 708h155l78 -132h-140l-31 59l-54 -59h-143zM606 804h172l-150 -122h-127z" />
    <glyph glyph-name="uni1EA6" unicode="&#x1ea6;" horiz-adv-x="669" 
d="M420 143h-206l-67 -143h-200l355 689h251l71 -689h-192zM276 285h142q-15 176 -18 267h-2q-38 -92 -122 -267zM379 862h161l94 -128h-146l-43 56l-62 -56h-155zM531 950h165l81 -124h-118z" />
    <glyph glyph-name="uni1EA7" unicode="&#x1ea7;" horiz-adv-x="592" 
d="M553 337l-42 -194q-24 -109 -27 -143h-178q0 7 6 54q-27 -31 -61 -48t-93 -17q-69 0 -107.5 39.5t-38.5 97.5q0 177 250 202q30 2 108 5l4 24q14 66 -47 66q-8 0 -15 -1t-12.5 -3.5t-9.5 -4t-8 -6t-6 -6t-5 -7.5t-4 -7.5t-4 -8.5t-3 -8h-180q38 165 258 165
q124 0 180 -50.5t35 -148.5zM345 217l3 13q-42 0 -72 -6q-76 -15 -76 -64q0 -19 12.5 -31t35.5 -12q25 0 43 8.5t28.5 25.5t15.5 30.5t10 35.5zM303 708h155l78 -132h-141l-31 59l-55 -59h-141zM442 806h158l79 -137h-116z" />
    <glyph glyph-name="uni1EA8" unicode="&#x1ea8;" horiz-adv-x="669" 
d="M420 143h-206l-67 -143h-200l355 689h251l71 -689h-192zM276 285h142q-15 176 -18 267h-2q-38 -92 -122 -267zM376 859h161l94 -128h-146l-42 57l-63 -57h-155zM721 830h-120q53 39 53 61q0 16 -21 16q-23 0 -42 -11l-13 75q47 28 110 28q45 0 67.5 -21t22.5 -52
q0 -54 -57 -96z" />
    <glyph glyph-name="uni1EA9" unicode="&#x1ea9;" horiz-adv-x="592" 
d="M553 337l-42 -194q-24 -109 -27 -143h-178q0 7 6 54q-27 -31 -61 -48t-93 -17q-69 0 -107.5 39.5t-38.5 97.5q0 177 250 202q30 2 108 5l4 24q14 66 -47 66q-8 0 -15 -1t-12.5 -3.5t-9.5 -4t-8 -6t-6 -6t-5 -7.5t-4 -7.5t-4 -8.5t-3 -8h-180q38 165 258 165
q124 0 180 -50.5t35 -148.5zM345 217l3 13q-42 0 -72 -6q-76 -15 -76 -64q0 -19 12.5 -31t35.5 -12q25 0 43 8.5t28.5 25.5t15.5 30.5t10 35.5zM306 707h155l78 -132h-141l-31 59l-55 -59h-141zM625 672h-110q54 39 54 61q0 15 -19 15q-21 0 -43 -11l-7 75q46 29 107 29
q44 0 65.5 -20.5t18.5 -53.5q-4 -57 -66 -95z" />
    <glyph glyph-name="uni1EAA" unicode="&#x1eaa;" horiz-adv-x="669" 
d="M420 143h-206l-67 -143h-200l355 689h251l71 -689h-192zM276 285h142q-15 176 -18 267h-2q-38 -92 -122 -267zM384 864h-102l3 19q11 55 38.5 77t71.5 22q37 0 86 -14t58 -14q20 0 25 19l1 8h101l-2 -16q-9 -59 -38 -80.5t-74 -21.5q-31 0 -78.5 13t-64.5 13
q-19 0 -24 -19zM359 834h190l85 -105h-157l-37 43l-51 -43h-162z" />
    <glyph glyph-name="uni1EAB" unicode="&#x1eab;" horiz-adv-x="592" 
d="M553 337l-42 -194q-24 -109 -27 -143h-178q0 7 6 54q-27 -31 -61 -48t-93 -17q-69 0 -107.5 39.5t-38.5 97.5q0 177 250 202q30 2 108 5l4 24q14 66 -47 66q-8 0 -15 -1t-12.5 -3.5t-9.5 -4t-8 -6t-6 -6t-5 -7.5t-4 -7.5t-4 -8.5t-3 -8h-180q38 165 258 165
q124 0 180 -50.5t35 -148.5zM345 217l3 13q-42 0 -72 -6q-76 -15 -76 -64q0 -19 12.5 -31t35.5 -12q25 0 43 8.5t28.5 25.5t15.5 30.5t10 35.5zM314 717h-95l4 28q14 91 107 91q32 0 78.5 -14t56.5 -14q18 0 22 19l2 7h93l-2 -17q-8 -58 -34.5 -79.5t-68.5 -21.5
q-29 0 -79 13t-61 13q-17 0 -21 -19zM294 682h170l93 -110h-154l-37 46l-53 -46h-155z" />
    <glyph glyph-name="uni1EAC" unicode="&#x1eac;" horiz-adv-x="669" 
d="M420 143h-206l-67 -143h-200l355 689h251l71 -689h-192zM276 285h142q-15 176 -18 267h-2q-38 -92 -122 -267zM347 -200h-172l33 157h172zM372 870h178l89 -137h-153l-39 63l-63 -63h-162z" />
    <glyph glyph-name="uni1EAD" unicode="&#x1ead;" horiz-adv-x="592" 
d="M553 337l-42 -194q-24 -109 -27 -143h-178q0 7 6 54q-27 -31 -61 -48t-93 -17q-69 0 -107.5 39.5t-38.5 97.5q0 177 250 202q30 2 108 5l4 24q14 66 -47 66q-8 0 -15 -1t-12.5 -3.5t-9.5 -4t-8 -6t-6 -6t-5 -7.5t-4 -7.5t-4 -8.5t-3 -8h-180q38 165 258 165
q124 0 180 -50.5t35 -148.5zM345 217l3 13q-42 0 -72 -6q-76 -15 -76 -64q0 -19 12.5 -31t35.5 -12q25 0 43 8.5t28.5 25.5t15.5 30.5t10 35.5zM292 -207h-172l33 157h172zM309 721h164l74 -140h-146l-28 63l-51 -63h-150z" />
    <glyph glyph-name="uni1EAE" unicode="&#x1eae;" horiz-adv-x="669" 
d="M420 143h-206l-67 -143h-200l355 689h251l71 -689h-192zM276 285h142q-15 176 -18 267h-2q-38 -92 -122 -267zM493 991h205l-175 -97h-145zM271 864h118q5 -40 53 -40q49 0 71 40h123q-54 -135 -208 -135q-45 0 -78 13.5t-49 35t-23 43t-7 43.5z" />
    <glyph glyph-name="uni1EAF" unicode="&#x1eaf;" horiz-adv-x="592" 
d="M553 337l-42 -194q-24 -109 -27 -143h-178q0 7 6 54q-27 -31 -61 -48t-93 -17q-69 0 -107.5 39.5t-38.5 97.5q0 177 250 202q30 2 108 5l4 24q14 66 -47 66q-8 0 -15 -1t-12.5 -3.5t-9.5 -4t-8 -6t-6 -6t-5 -7.5t-4 -7.5t-4 -8.5t-3 -8h-180q38 165 258 165
q124 0 180 -50.5t35 -148.5zM345 217l3 13q-42 0 -72 -6q-76 -15 -76 -64q0 -19 12.5 -31t35.5 -12q25 0 43 8.5t28.5 25.5t15.5 30.5t10 35.5zM428 835h185l-172 -104h-134zM203 705h115q0 -42 49 -42q44 0 69 42h114q-52 -137 -197 -137q-79 0 -115.5 41.5t-34.5 95.5z
" />
    <glyph glyph-name="uni1EB0" unicode="&#x1eb0;" horiz-adv-x="669" 
d="M420 143h-206l-67 -143h-200l355 689h251l71 -689h-192zM276 285h142q-15 176 -18 267h-2q-38 -92 -122 -267zM244 991h195l97 -97h-140zM271 864h118q5 -40 53 -40q49 0 71 40h123q-54 -135 -210 -135q-45 0 -77.5 13.5t-48 36t-22.5 43.5t-7 42z" />
    <glyph glyph-name="uni1EB1" unicode="&#x1eb1;" horiz-adv-x="592" 
d="M553 337l-42 -194q-24 -109 -27 -143h-178q0 7 6 54q-27 -31 -61 -48t-93 -17q-69 0 -107.5 39.5t-38.5 97.5q0 177 250 202q30 2 108 5l4 24q14 66 -47 66q-8 0 -15 -1t-12.5 -3.5t-9.5 -4t-8 -6t-6 -6t-5 -7.5t-4 -7.5t-4 -8.5t-3 -8h-180q38 165 258 165
q124 0 180 -50.5t35 -148.5zM345 217l3 13q-42 0 -72 -6q-76 -15 -76 -64q0 -19 12.5 -31t35.5 -12q25 0 43 8.5t28.5 25.5t15.5 30.5t10 35.5zM182 835h182l94 -104h-136zM206 705h115q0 -18 12.5 -30t36.5 -12q46 0 69 42h114q-52 -137 -197 -137q-79 0 -116 41.5
t-34 95.5z" />
    <glyph glyph-name="uni1EB2" unicode="&#x1eb2;" horiz-adv-x="669" 
d="M420 143h-206l-67 -143h-200l355 689h251l71 -689h-192zM276 285h142q-15 176 -18 267h-2q-38 -92 -122 -267zM509 889h-122q52 37 53 60q0 17 -24 17q-20 0 -43 -9v77q40 25 100 25q48 0 72.5 -23.5t21.5 -58.5q-3 -50 -58 -88zM271 863h118q5 -40 53 -40q49 0 71 40
h123q-54 -135 -210 -135q-45 0 -77.5 13.5t-48 36t-22.5 43.5t-7 42z" />
    <glyph glyph-name="uni1EB3" unicode="&#x1eb3;" horiz-adv-x="592" 
d="M553 337l-42 -194q-24 -109 -27 -143h-178q0 7 6 54q-27 -31 -61 -48t-93 -17q-69 0 -107.5 39.5t-38.5 97.5q0 177 250 202q30 2 108 5l4 24q14 66 -47 66q-8 0 -15 -1t-12.5 -3.5t-9.5 -4t-8 -6t-6 -6t-5 -7.5t-4 -7.5t-4 -8.5t-3 -8h-180q38 165 258 165
q124 0 180 -50.5t35 -148.5zM345 217l3 13q-42 0 -72 -6q-76 -15 -76 -64q0 -19 12.5 -31t35.5 -12q25 0 43 8.5t28.5 25.5t15.5 30.5t10 35.5zM433 728h-114q51 35 52 57q0 17 -22 17q-24 0 -44 -10l-12 72q45 28 108 28q47 0 70.5 -23t20.5 -56q-4 -50 -59 -85zM207 706
h115q0 -18 12.5 -30t36.5 -12q46 0 69 42h114q-52 -137 -197 -137q-79 0 -116 41.5t-34 95.5z" />
    <glyph glyph-name="uni1EB4" unicode="&#x1eb4;" horiz-adv-x="669" 
d="M420 143h-206l-67 -143h-200l355 689h251l71 -689h-192zM276 285h142q-15 176 -18 267h-2q-38 -92 -122 -267zM383 888h-100l4 22q10 55 38 76t72 21q32 0 80.5 -14.5t58.5 -14.5q20 0 25 20l1 7h99l-4 -19q-20 -99 -110 -99q-29 0 -77.5 13.5t-61.5 13.5q-20 0 -24 -21z
M279 851h112q8 -34 49 -34q45 0 66 34h116q-51 -123 -194 -123q-80 0 -115.5 38t-33.5 85z" />
    <glyph glyph-name="uni1EB5" unicode="&#x1eb5;" horiz-adv-x="592" 
d="M553 337l-42 -194q-24 -109 -27 -143h-178q0 7 6 54q-27 -31 -61 -48t-93 -17q-69 0 -107.5 39.5t-38.5 97.5q0 177 250 202q30 2 108 5l4 24q14 66 -47 66q-8 0 -15 -1t-12.5 -3.5t-9.5 -4t-8 -6t-6 -6t-5 -7.5t-4 -7.5t-4 -8.5t-3 -8h-180q38 165 258 165
q124 0 180 -50.5t35 -148.5zM345 217l3 13q-42 0 -72 -6q-76 -15 -76 -64q0 -19 12.5 -31t35.5 -12q25 0 43 8.5t28.5 25.5t15.5 30.5t10 35.5zM316 732h-95l4 21q17 97 109 97q31 0 72.5 -14.5t51.5 -14.5q20 0 24 20l1 7h95l-5 -22q-18 -96 -109 -96q-25 0 -68 13.5
t-55 13.5q-20 0 -24 -20zM217 696h109q5 -34 46 -34q40 0 62 34h110q-42 -125 -187 -125q-75 0 -108.5 36.5t-31.5 88.5z" />
    <glyph glyph-name="uni1EB6" unicode="&#x1eb6;" horiz-adv-x="669" 
d="M420 143h-206l-67 -143h-200l355 689h251l71 -689h-192zM276 285h142q-15 176 -18 267h-2q-38 -92 -122 -267zM343 -200h-172l33 157h172zM280 883h118q-1 -22 11 -35.5t37 -13.5q49 0 68 49h117q-11 -31 -24 -54t-35.5 -47.5t-58 -37.5t-82.5 -13q-85 0 -121.5 45.5
t-29.5 106.5z" />
    <glyph glyph-name="uni1EB7" unicode="&#x1eb7;" horiz-adv-x="592" 
d="M553 337l-42 -194q-24 -109 -27 -143h-178q0 7 6 54q-27 -31 -61 -48t-93 -17q-69 0 -107.5 39.5t-38.5 97.5q0 177 250 202q30 2 108 5l4 24q14 66 -47 66q-8 0 -15 -1t-12.5 -3.5t-9.5 -4t-8 -6t-6 -6t-5 -7.5t-4 -7.5t-4 -8.5t-3 -8h-180q38 165 258 165
q124 0 180 -50.5t35 -148.5zM345 217l3 13q-42 0 -72 -6q-76 -15 -76 -64q0 -19 12.5 -31t35.5 -12q25 0 43 8.5t28.5 25.5t15.5 30.5t10 35.5zM218 723h121q0 -43 38 -43q22 0 34 11t21 32h121q-51 -152 -194 -152q-82 0 -116 45t-25 107zM292 -207h-172l33 157h172z" />
    <glyph glyph-name="uni1EB8" unicode="&#x1eb8;" horiz-adv-x="614" 
d="M588 425l-31 -143h-298l-30 -139h341l-51 -143h-505l146 689h496l-30 -143h-311l-25 -121h298zM332 -207h-172l33 157h172z" />
    <glyph glyph-name="uni1EB9" unicode="&#x1eb9;" horiz-adv-x="590" 
d="M549 224h-331q-3 -14 -3 -27q-4 -84 60 -84q50 0 75 54h186q-26 -77 -93.5 -127.5t-180.5 -50.5q-119 0 -175.5 60.5t-56.5 159.5q0 54 16 108t49.5 105t94.5 82.5t141 31.5q119 0 176 -57.5t57 -154.5q0 -48 -15 -100zM239 326h147q2 10 2 25q0 64 -58 64q-68 0 -91 -89
zM300 -211h-172l33 157h172z" />
    <glyph glyph-name="uni1EBA" unicode="&#x1eba;" horiz-adv-x="614" 
d="M588 425l-31 -143h-298l-30 -139h341l-51 -143h-505l146 689h496l-30 -143h-311l-25 -121h298zM465 737h-135q21 16 29 23t19.5 21t11.5 26q0 18 -23 18q-27 0 -48 -11l-16 85q54 33 122 33q51 0 79 -24t28 -59q0 -62 -67 -112z" />
    <glyph glyph-name="uni1EBB" unicode="&#x1ebb;" horiz-adv-x="590" 
d="M549 224h-331q-3 -14 -3 -27q-4 -84 60 -84q50 0 75 54h186q-26 -77 -93.5 -127.5t-180.5 -50.5q-119 0 -175.5 60.5t-56.5 159.5q0 54 16 108t49.5 105t94.5 82.5t141 31.5q119 0 176 -57.5t57 -154.5q0 -48 -15 -100zM239 326h147q2 10 2 25q0 64 -58 64q-68 0 -91 -89
zM415 577h-135q21 16 29 23t19.5 21t11.5 26q0 18 -23 18q-27 0 -48 -11l-16 85q54 33 122 33q51 0 79 -24t28 -59q0 -62 -67 -112z" />
    <glyph glyph-name="uni1EBC" unicode="&#x1ebc;" horiz-adv-x="614" 
d="M588 425l-31 -143h-298l-30 -139h341l-51 -143h-505l146 689h496l-30 -143h-311l-25 -121h298zM334 756h-103l6 35q11 65 41.5 88.5t75.5 23.5q33 0 82 -19t60 -19q21 0 25 29l2 9h102l-5 -32q-12 -70 -42.5 -94.5t-76.5 -24.5q-33 0 -82.5 18.5t-59.5 18.5
q-19 0 -23 -20z" />
    <glyph glyph-name="uni1EBD" unicode="&#x1ebd;" horiz-adv-x="590" 
d="M549 224h-331q-3 -14 -3 -27q-4 -84 60 -84q50 0 75 54h186q-26 -77 -93.5 -127.5t-180.5 -50.5q-119 0 -175.5 60.5t-56.5 159.5q0 54 16 108t49.5 105t94.5 82.5t141 31.5q119 0 176 -57.5t57 -154.5q0 -48 -15 -100zM239 326h147q2 10 2 25q0 64 -58 64q-68 0 -91 -89
zM282 584h-104l8 39q12 66 40 87.5t70 21.5q34 0 78 -20.5t56 -20.5q19 0 26 30l2 11h102l-6 -31q-12 -73 -42 -97t-76 -24q-32 0 -75 19t-53 19q-19 0 -23 -22z" />
    <glyph glyph-name="uni1EBE" unicode="&#x1ebe;" horiz-adv-x="614" 
d="M588 425l-31 -143h-298l-30 -139h341l-51 -143h-505l146 689h496l-30 -143h-311l-25 -121h298zM359 868h161l94 -128h-146l-43 56l-62 -56h-155zM695 949h176l-167 -117h-126z" />
    <glyph glyph-name="uni1EBF" unicode="&#x1ebf;" horiz-adv-x="590" 
d="M549 224h-331q-3 -14 -3 -27q-4 -84 60 -84q50 0 75 54h186q-26 -77 -93.5 -127.5t-180.5 -50.5q-119 0 -175.5 60.5t-56.5 159.5q0 54 16 108t49.5 105t94.5 82.5t141 31.5q119 0 176 -57.5t57 -154.5q0 -48 -15 -100zM239 326h147q2 10 2 25q0 64 -58 64q-68 0 -91 -89
zM301 713h155l78 -132h-140l-31 59l-54 -59h-143zM604 809h172l-150 -122h-127z" />
    <glyph glyph-name="uni1EC0" unicode="&#x1ec0;" horiz-adv-x="614" 
d="M588 425l-31 -143h-298l-30 -139h341l-51 -143h-505l146 689h496l-30 -143h-311l-25 -121h298zM359 872h161l94 -128h-146l-43 56l-62 -56h-155zM511 960h165l81 -124h-118z" />
    <glyph glyph-name="uni1EC1" unicode="&#x1ec1;" horiz-adv-x="590" 
d="M549 224h-331q-3 -14 -3 -27q-4 -84 60 -84q50 0 75 54h186q-26 -77 -93.5 -127.5t-180.5 -50.5q-119 0 -175.5 60.5t-56.5 159.5q0 54 16 108t49.5 105t94.5 82.5t141 31.5q119 0 176 -57.5t57 -154.5q0 -48 -15 -100zM239 326h147q2 10 2 25q0 64 -58 64q-68 0 -91 -89
zM303 712h155l78 -132h-141l-31 59l-55 -59h-141zM442 810h158l79 -137h-116z" />
    <glyph glyph-name="uni1EC2" unicode="&#x1ec2;" horiz-adv-x="614" 
d="M588 425l-31 -143h-298l-30 -139h341l-51 -143h-505l146 689h496l-30 -143h-311l-25 -121h298zM358 869h161l94 -128h-146l-42 57l-63 -57h-155zM703 840h-120q53 39 53 61q0 16 -21 16q-23 0 -42 -11l-13 75q47 28 110 28q45 0 67.5 -21t22.5 -52q0 -54 -57 -96z" />
    <glyph glyph-name="uni1EC3" unicode="&#x1ec3;" horiz-adv-x="590" 
d="M549 224h-331q-3 -14 -3 -27q-4 -84 60 -84q50 0 75 54h186q-26 -77 -93.5 -127.5t-180.5 -50.5q-119 0 -175.5 60.5t-56.5 159.5q0 54 16 108t49.5 105t94.5 82.5t141 31.5q119 0 176 -57.5t57 -154.5q0 -48 -15 -100zM239 326h147q2 10 2 25q0 64 -58 64q-68 0 -91 -89
zM304 710h155l78 -132h-141l-31 59l-55 -59h-141zM623 675h-110q54 39 54 61q0 15 -19 15q-21 0 -43 -11l-7 75q46 29 107 29q44 0 65.5 -20.5t18.5 -53.5q-4 -57 -66 -95z" />
    <glyph glyph-name="uni1EC4" unicode="&#x1ec4;" horiz-adv-x="614" 
d="M588 425l-31 -143h-298l-30 -139h341l-51 -143h-505l146 689h496l-30 -143h-311l-25 -121h298zM365 878h-102l3 19q11 55 38.5 77t71.5 22q37 0 86 -14t58 -14q20 0 25 19l1 8h101l-2 -16q-9 -59 -38 -80.5t-74 -21.5q-31 0 -78.5 13t-64.5 13q-19 0 -24 -19zM340 848
h190l85 -105h-157l-37 43l-51 -43h-162z" />
    <glyph glyph-name="uni1EC5" unicode="&#x1ec5;" horiz-adv-x="590" 
d="M549 224h-331q-3 -14 -3 -27q-4 -84 60 -84q50 0 75 54h186q-26 -77 -93.5 -127.5t-180.5 -50.5q-119 0 -175.5 60.5t-56.5 159.5q0 54 16 108t49.5 105t94.5 82.5t141 31.5q119 0 176 -57.5t57 -154.5q0 -48 -15 -100zM239 326h147q2 10 2 25q0 64 -58 64q-68 0 -91 -89
zM303 714h-95l4 28q14 91 107 91q32 0 78.5 -14t56.5 -14q18 0 22 19l2 7h93l-2 -17q-8 -58 -34.5 -79.5t-68.5 -21.5q-30 0 -79 13t-61 13q-17 0 -21 -19zM283 679h170l93 -110h-154l-37 46l-53 -46h-155z" />
    <glyph glyph-name="uni1EC6" unicode="&#x1ec6;" horiz-adv-x="614" 
d="M588 425l-31 -143h-298l-30 -139h341l-51 -143h-505l146 689h496l-30 -143h-311l-25 -121h298zM319 -207h-172l33 157h172zM350 877h178l89 -137h-153l-39 63l-63 -63h-162z" />
    <glyph glyph-name="uni1EC7" unicode="&#x1ec7;" horiz-adv-x="590" 
d="M549 224h-331q-3 -14 -3 -27q-4 -84 60 -84q50 0 75 54h186q-26 -77 -93.5 -127.5t-180.5 -50.5q-119 0 -175.5 60.5t-56.5 159.5q0 54 16 108t49.5 105t94.5 82.5t141 31.5q119 0 176 -57.5t57 -154.5q0 -48 -15 -100zM239 326h147q2 10 2 25q0 64 -58 64q-68 0 -91 -89
zM300 -208h-172l33 157h172zM303 716h164l74 -140h-146l-28 63l-51 -63h-150z" />
    <glyph glyph-name="uni1EC8" unicode="&#x1ec8;" horiz-adv-x="330" 
d="M160 689h192l-146 -689h-192zM324 734h-135q21 16 29 23t19.5 21t11.5 26q0 18 -23 18q-27 0 -48 -11l-16 85q54 33 122 33q51 0 79 -24t28 -59q0 -62 -67 -112z" />
    <glyph glyph-name="uni1EC9" unicode="&#x1ec9;" horiz-adv-x="297" 
d="M2 0l111 524h185l-111 -524h-185zM278 577h-135q21 16 29 23t19.5 21t11.5 26q0 18 -23 18q-27 0 -48 -11l-16 85q54 33 122 33q51 0 79 -24t28 -59q0 -62 -67 -112z" />
    <glyph glyph-name="uni1ECA" unicode="&#x1eca;" horiz-adv-x="330" 
d="M160 689h192l-146 -689h-192zM154 -207h-172l33 157h172z" />
    <glyph glyph-name="uni1ECB" unicode="&#x1ecb;" horiz-adv-x="297" 
d="M2 0l111 524h185l-111 -524h-185zM126 589l29 136h185l-28 -136h-186zM136 -209h-172l33 157h172z" />
    <glyph glyph-name="uni1ECC" unicode="&#x1ecc;" horiz-adv-x="751" 
d="M437 702q145 0 219.5 -82t74.5 -210q0 -80 -23 -153.5t-68.5 -135t-123.5 -98t-180 -36.5q-143 0 -215.5 79.5t-72.5 202.5q0 63 15 124.5t47 117.5t77 98.5t109.5 67.5t140.5 25zM428 562q-58 0 -101.5 -50.5t-62 -116.5t-18.5 -130t27.5 -101t83.5 -37q47 0 83.5 29.5
t56 76t29.5 95t10 94.5q0 140 -108 140zM368 -210h-172l33 157h172z" />
    <glyph glyph-name="uni1ECD" unicode="&#x1ecd;" horiz-adv-x="607" 
d="M337 536q113 0 176.5 -60t63.5 -169q0 -55 -17 -108t-51.5 -101.5t-98.5 -78.5t-148 -30q-119 0 -176 61.5t-57 159.5q0 57 18.5 113t54.5 104.5t97 78.5t138 30zM329 410q-35 0 -62 -41t-37.5 -88t-10.5 -86q0 -82 58 -82q28 0 50.5 25t35 61.5t19 72t6.5 63.5
q0 75 -59 75zM296 -215h-172l33 157h172z" />
    <glyph glyph-name="uni1ECE" unicode="&#x1ece;" horiz-adv-x="751" 
d="M437 702q145 0 219.5 -82t74.5 -210q0 -80 -23 -153.5t-68.5 -135t-123.5 -98t-180 -36.5q-143 0 -215.5 79.5t-72.5 202.5q0 63 15 124.5t47 117.5t77 98.5t109.5 67.5t140.5 25zM428 562q-58 0 -101.5 -50.5t-62 -116.5t-18.5 -130t27.5 -101t83.5 -37q47 0 83.5 29.5
t56 76t29.5 95t10 94.5q0 140 -108 140zM516 738h-135q21 16 29 23t19.5 21t11.5 26q0 18 -23 18q-27 0 -48 -11l-16 85q54 33 122 33q51 0 79 -24t28 -59q0 -62 -67 -112z" />
    <glyph glyph-name="uni1ECF" unicode="&#x1ecf;" horiz-adv-x="607" 
d="M337 536q113 0 176.5 -60t63.5 -169q0 -55 -17 -108t-51.5 -101.5t-98.5 -78.5t-148 -30q-119 0 -176 61.5t-57 159.5q0 57 18.5 113t54.5 104.5t97 78.5t138 30zM329 410q-35 0 -62 -41t-37.5 -88t-10.5 -86q0 -82 58 -82q28 0 50.5 25t35 61.5t19 72t6.5 63.5
q0 75 -59 75zM424 578h-135q21 16 29 23t19.5 21t11.5 26q0 18 -23 18q-27 0 -48 -11l-16 85q54 33 122 33q51 0 79 -24t28 -59q0 -62 -67 -112z" />
    <glyph glyph-name="uni1ED0" unicode="&#x1ed0;" horiz-adv-x="751" 
d="M437 702q145 0 219.5 -82t74.5 -210q0 -80 -23 -153.5t-68.5 -135t-123.5 -98t-180 -36.5q-143 0 -215.5 79.5t-72.5 202.5q0 63 15 124.5t47 117.5t77 98.5t109.5 67.5t140.5 25zM428 562q-58 0 -101.5 -50.5t-62 -116.5t-18.5 -130t27.5 -101t83.5 -37q47 0 83.5 29.5
t56 76t29.5 95t10 94.5q0 140 -108 140zM399 871h161l94 -128h-146l-43 56l-62 -56h-155zM735 952h176l-167 -117h-126z" />
    <glyph glyph-name="uni1ED1" unicode="&#x1ed1;" horiz-adv-x="607" 
d="M337 536q113 0 176.5 -60t63.5 -169q0 -55 -17 -108t-51.5 -101.5t-98.5 -78.5t-148 -30q-119 0 -176 61.5t-57 159.5q0 57 18.5 113t54.5 104.5t97 78.5t138 30zM329 410q-35 0 -62 -41t-37.5 -88t-10.5 -86q0 -82 58 -82q28 0 50.5 25t35 61.5t19 72t6.5 63.5
q0 75 -59 75zM310 708h155l78 -132h-140l-31 59l-54 -59h-143zM613 804h172l-150 -122h-127z" />
    <glyph glyph-name="uni1ED2" unicode="&#x1ed2;" horiz-adv-x="751" 
d="M437 702q145 0 219.5 -82t74.5 -210q0 -80 -23 -153.5t-68.5 -135t-123.5 -98t-180 -36.5q-143 0 -215.5 79.5t-72.5 202.5q0 63 15 124.5t47 117.5t77 98.5t109.5 67.5t140.5 25zM428 562q-58 0 -101.5 -50.5t-62 -116.5t-18.5 -130t27.5 -101t83.5 -37q47 0 83.5 29.5
t56 76t29.5 95t10 94.5q0 140 -108 140zM397 870h161l94 -128h-146l-43 56l-62 -56h-155zM549 958h165l81 -124h-118z" />
    <glyph glyph-name="uni1ED3" unicode="&#x1ed3;" horiz-adv-x="607" 
d="M337 536q113 0 176.5 -60t63.5 -169q0 -55 -17 -108t-51.5 -101.5t-98.5 -78.5t-148 -30q-119 0 -176 61.5t-57 159.5q0 57 18.5 113t54.5 104.5t97 78.5t138 30zM329 410q-35 0 -62 -41t-37.5 -88t-10.5 -86q0 -82 58 -82q28 0 50.5 25t35 61.5t19 72t6.5 63.5
q0 75 -59 75zM310 707h155l78 -132h-141l-31 59l-55 -59h-141zM449 805h158l79 -137h-116z" />
    <glyph glyph-name="uni1ED4" unicode="&#x1ed4;" horiz-adv-x="751" 
d="M437 702q145 0 219.5 -82t74.5 -210q0 -80 -23 -153.5t-68.5 -135t-123.5 -98t-180 -36.5q-143 0 -215.5 79.5t-72.5 202.5q0 63 15 124.5t47 117.5t77 98.5t109.5 67.5t140.5 25zM428 562q-58 0 -101.5 -50.5t-62 -116.5t-18.5 -130t27.5 -101t83.5 -37q47 0 83.5 29.5
t56 76t29.5 95t10 94.5q0 140 -108 140zM400 868h161l94 -128h-146l-42 57l-63 -57h-155zM745 839h-120q53 39 53 61q0 16 -21 16q-23 0 -42 -11l-13 75q47 28 110 28q45 0 67.5 -21t22.5 -52q0 -54 -57 -96z" />
    <glyph glyph-name="uni1ED5" unicode="&#x1ed5;" horiz-adv-x="607" 
d="M337 536q113 0 176.5 -60t63.5 -169q0 -55 -17 -108t-51.5 -101.5t-98.5 -78.5t-148 -30q-119 0 -176 61.5t-57 159.5q0 57 18.5 113t54.5 104.5t97 78.5t138 30zM329 410q-35 0 -62 -41t-37.5 -88t-10.5 -86q0 -82 58 -82q28 0 50.5 25t35 61.5t19 72t6.5 63.5
q0 75 -59 75zM310 708h155l78 -132h-141l-31 59l-55 -59h-141zM629 673h-110q54 39 54 61q0 15 -19 15q-21 0 -43 -11l-7 75q46 29 107 29q44 0 65.5 -20.5t18.5 -53.5q-4 -57 -66 -95z" />
    <glyph glyph-name="uni1ED6" unicode="&#x1ed6;" horiz-adv-x="751" 
d="M437 702q145 0 219.5 -82t74.5 -210q0 -80 -23 -153.5t-68.5 -135t-123.5 -98t-180 -36.5q-143 0 -215.5 79.5t-72.5 202.5q0 63 15 124.5t47 117.5t77 98.5t109.5 67.5t140.5 25zM428 562q-58 0 -101.5 -50.5t-62 -116.5t-18.5 -130t27.5 -101t83.5 -37q47 0 83.5 29.5
t56 76t29.5 95t10 94.5q0 140 -108 140zM408 878h-102l3 19q11 55 38.5 77t71.5 22q37 0 86 -14t58 -14q20 0 25 19l1 8h101l-2 -16q-9 -59 -38 -80.5t-74 -21.5q-31 0 -78.5 13t-64.5 13q-19 0 -24 -19zM383 848h190l85 -105h-157l-37 43l-51 -43h-162z" />
    <glyph glyph-name="uni1ED7" unicode="&#x1ed7;" horiz-adv-x="607" 
d="M337 536q113 0 176.5 -60t63.5 -169q0 -55 -17 -108t-51.5 -101.5t-98.5 -78.5t-148 -30q-119 0 -176 61.5t-57 159.5q0 57 18.5 113t54.5 104.5t97 78.5t138 30zM329 410q-35 0 -62 -41t-37.5 -88t-10.5 -86q0 -82 58 -82q28 0 50.5 25t35 61.5t19 72t6.5 63.5
q0 75 -59 75zM312 713h-95l4 28q14 91 107 91q32 0 78.5 -14t56.5 -14q18 0 22 19l2 7h93l-2 -17q-8 -58 -34.5 -79.5t-68.5 -21.5q-29 0 -79 13t-61 13q-17 0 -21 -19zM292 678h170l93 -110h-154l-37 46l-53 -46h-155z" />
    <glyph glyph-name="uni1ED8" unicode="&#x1ed8;" horiz-adv-x="751" 
d="M437 702q145 0 219.5 -82t74.5 -210q0 -80 -23 -153.5t-68.5 -135t-123.5 -98t-180 -36.5q-143 0 -215.5 79.5t-72.5 202.5q0 63 15 124.5t47 117.5t77 98.5t109.5 67.5t140.5 25zM428 562q-58 0 -101.5 -50.5t-62 -116.5t-18.5 -130t27.5 -101t83.5 -37q47 0 83.5 29.5
t56 76t29.5 95t10 94.5q0 140 -108 140zM372 -211h-172l33 157h172zM402 878h178l89 -137h-153l-39 63l-63 -63h-162z" />
    <glyph glyph-name="uni1ED9" unicode="&#x1ed9;" horiz-adv-x="607" 
d="M337 536q113 0 176.5 -60t63.5 -169q0 -55 -17 -108t-51.5 -101.5t-98.5 -78.5t-148 -30q-119 0 -176 61.5t-57 159.5q0 57 18.5 113t54.5 104.5t97 78.5t138 30zM329 410q-35 0 -62 -41t-37.5 -88t-10.5 -86q0 -82 58 -82q28 0 50.5 25t35 61.5t19 72t6.5 63.5
q0 75 -59 75zM295 -211h-172l33 157h172zM313 720h164l74 -140h-146l-28 63l-51 -63h-150z" />
    <glyph glyph-name="uni1EDA" unicode="&#x1eda;" horiz-adv-x="751" 
d="M437 702q122 0 197 -61q37 12 37 65q0 23 -4 43h152q3 -16 3 -32q0 -132 -117 -171q26 -59 26 -136q0 -80 -23 -153.5t-68.5 -135t-123.5 -98t-180 -36.5q-143 0 -215.5 79.5t-72.5 202.5q0 63 15 124.5t47 117.5t77 98.5t109.5 67.5t140.5 25zM428 562
q-58 0 -101.5 -50.5t-62 -116.5t-18.5 -130t27.5 -101t83.5 -37q47 0 83.5 29.5t56 76t29.5 95t10 94.5q0 140 -108 140zM525 885h228l-222 -136h-169z" />
    <glyph glyph-name="uni1EDB" unicode="&#x1edb;" horiz-adv-x="607" 
d="M337 536q94 0 154 -42q30 15 30 63q0 23 -4 43h152q3 -16 3 -32q0 -127 -110 -169q15 -40 15 -92q0 -55 -17 -108t-51.5 -101.5t-98.5 -78.5t-148 -30q-119 0 -176 61.5t-57 159.5q0 57 18.5 113t54.5 104.5t97 78.5t138 30zM329 410q-35 0 -62 -41t-37.5 -88t-10.5 -86
q0 -82 58 -82q28 0 50.5 25t35 61.5t19 72t6.5 63.5q0 75 -59 75zM422 733h214l-212 -145h-160z" />
    <glyph glyph-name="uni1EDC" unicode="&#x1edc;" horiz-adv-x="751" 
d="M437 702q122 0 197 -61q37 12 37 65q0 23 -4 43h152q3 -16 3 -32q0 -132 -117 -171q26 -59 26 -136q0 -80 -23 -153.5t-68.5 -135t-123.5 -98t-180 -36.5q-143 0 -215.5 79.5t-72.5 202.5q0 63 15 124.5t47 117.5t77 98.5t109.5 67.5t140.5 25zM428 562
q-58 0 -101.5 -50.5t-62 -116.5t-18.5 -130t27.5 -101t83.5 -37q47 0 83.5 29.5t56 76t29.5 95t10 94.5q0 140 -108 140zM218 878h215l132 -136h-164z" />
    <glyph glyph-name="uni1EDD" unicode="&#x1edd;" horiz-adv-x="607" 
d="M337 536q94 0 154 -42q30 15 30 63q0 23 -4 43h152q3 -16 3 -32q0 -127 -110 -169q15 -40 15 -92q0 -55 -17 -108t-51.5 -101.5t-98.5 -78.5t-148 -30q-119 0 -176 61.5t-57 159.5q0 57 18.5 113t54.5 104.5t97 78.5t138 30zM329 410q-35 0 -62 -41t-37.5 -88t-10.5 -86
q0 -82 58 -82q28 0 50.5 25t35 61.5t19 72t6.5 63.5q0 75 -59 75zM162 733h192l100 -145h-146z" />
    <glyph glyph-name="uni1EDE" unicode="&#x1ede;" horiz-adv-x="751" 
d="M437 702q122 0 197 -61q37 12 37 65q0 23 -4 43h152q3 -16 3 -32q0 -132 -117 -171q26 -59 26 -136q0 -80 -23 -153.5t-68.5 -135t-123.5 -98t-180 -36.5q-143 0 -215.5 79.5t-72.5 202.5q0 63 15 124.5t47 117.5t77 98.5t109.5 67.5t140.5 25zM428 562
q-58 0 -101.5 -50.5t-62 -116.5t-18.5 -130t27.5 -101t83.5 -37q47 0 83.5 29.5t56 76t29.5 95t10 94.5q0 140 -108 140zM529 740h-135q21 16 29 23t19.5 21t11.5 26q0 18 -23 18q-27 0 -48 -11l-16 85q54 33 122 33q51 0 79 -24t28 -59q0 -62 -67 -112z" />
    <glyph glyph-name="uni1EDF" unicode="&#x1edf;" horiz-adv-x="607" 
d="M337 536q94 0 154 -42q30 15 30 63q0 23 -4 43h152q3 -16 3 -32q0 -127 -110 -169q15 -40 15 -92q0 -55 -17 -108t-51.5 -101.5t-98.5 -78.5t-148 -30q-119 0 -176 61.5t-57 159.5q0 57 18.5 113t54.5 104.5t97 78.5t138 30zM329 410q-35 0 -62 -41t-37.5 -88t-10.5 -86
q0 -82 58 -82q28 0 50.5 25t35 61.5t19 72t6.5 63.5q0 75 -59 75zM420 577h-135q21 16 29 23t19.5 21t11.5 26q0 18 -23 18q-27 0 -48 -11l-16 85q54 33 122 33q51 0 79 -24t28 -59q0 -62 -67 -112z" />
    <glyph glyph-name="uni1EE0" unicode="&#x1ee0;" horiz-adv-x="751" 
d="M437 702q122 0 197 -61q37 12 37 65q0 23 -4 43h152q3 -16 3 -32q0 -132 -117 -171q26 -59 26 -136q0 -80 -23 -153.5t-68.5 -135t-123.5 -98t-180 -36.5q-143 0 -215.5 79.5t-72.5 202.5q0 63 15 124.5t47 117.5t77 98.5t109.5 67.5t140.5 25zM428 562
q-58 0 -101.5 -50.5t-62 -116.5t-18.5 -130t27.5 -101t83.5 -37q47 0 83.5 29.5t56 76t29.5 95t10 94.5q0 140 -108 140zM385 745h-103l6 35q11 65 41.5 88.5t75.5 23.5q33 0 82 -19t60 -19q21 0 25 29l2 9h102l-5 -32q-12 -70 -42.5 -94.5t-76.5 -24.5q-33 0 -82.5 18.5
t-59.5 18.5q-19 0 -23 -20z" />
    <glyph glyph-name="uni1EE1" unicode="&#x1ee1;" horiz-adv-x="607" 
d="M337 536q94 0 154 -42q30 15 30 63q0 23 -4 43h152q3 -16 3 -32q0 -127 -110 -169q15 -40 15 -92q0 -55 -17 -108t-51.5 -101.5t-98.5 -78.5t-148 -30q-119 0 -176 61.5t-57 159.5q0 57 18.5 113t54.5 104.5t97 78.5t138 30zM329 410q-35 0 -62 -41t-37.5 -88t-10.5 -86
q0 -82 58 -82q28 0 50.5 25t35 61.5t19 72t6.5 63.5q0 75 -59 75zM291 584h-104l8 39q12 66 40 87.5t70 21.5q34 0 78 -20.5t56 -20.5q19 0 26 30l2 11h102l-6 -31q-12 -73 -42 -97t-76 -24q-32 0 -75 19t-53 19q-19 0 -23 -22z" />
    <glyph glyph-name="uni1EE2" unicode="&#x1ee2;" horiz-adv-x="751" 
d="M437 702q122 0 197 -61q37 12 37 65q0 23 -4 43h152q3 -16 3 -32q0 -132 -117 -171q26 -59 26 -136q0 -80 -23 -153.5t-68.5 -135t-123.5 -98t-180 -36.5q-143 0 -215.5 79.5t-72.5 202.5q0 63 15 124.5t47 117.5t77 98.5t109.5 67.5t140.5 25zM428 562
q-58 0 -101.5 -50.5t-62 -116.5t-18.5 -130t27.5 -101t83.5 -37q47 0 83.5 29.5t56 76t29.5 95t10 94.5q0 140 -108 140zM368 -217h-172l33 157h172z" />
    <glyph glyph-name="uni1EE3" unicode="&#x1ee3;" horiz-adv-x="607" 
d="M337 536q94 0 154 -42q30 15 30 63q0 23 -4 43h152q3 -16 3 -32q0 -127 -110 -169q15 -40 15 -92q0 -55 -17 -108t-51.5 -101.5t-98.5 -78.5t-148 -30q-119 0 -176 61.5t-57 159.5q0 57 18.5 113t54.5 104.5t97 78.5t138 30zM329 410q-35 0 -62 -41t-37.5 -88t-10.5 -86
q0 -82 58 -82q28 0 50.5 25t35 61.5t19 72t6.5 63.5q0 75 -59 75zM299 -209h-172l33 157h172z" />
    <glyph glyph-name="uni1EE4" unicode="&#x1ee4;" horiz-adv-x="713" 
d="M151 689h192l-93 -434q-14 -62 7.5 -95t75.5 -33q55 0 80.5 28t40.5 91l93 443h193l-93 -435q-31 -139 -104 -202.5t-227 -63.5q-149 0 -216.5 70.5t-36.5 218.5zM365 -218h-172l33 157h172z" />
    <glyph glyph-name="uni1EE5" unicode="&#x1ee5;" horiz-adv-x="603" 
d="M603 524l-79 -373q-18 -85 -29 -151h-182q2 31 8 61q-58 -72 -159 -72q-78 0 -111.5 50.5t-14.5 140.5l73 344h184l-69 -327q-16 -70 38 -70q71 0 96 120l59 277h186zM301 -214h-172l33 157h172z" />
    <glyph glyph-name="uni1EE6" unicode="&#x1ee6;" horiz-adv-x="713" 
d="M151 689h192l-93 -434q-14 -62 7.5 -95t75.5 -33q55 0 80.5 28t40.5 91l93 443h193l-93 -435q-31 -139 -104 -202.5t-227 -63.5q-149 0 -216.5 70.5t-36.5 218.5zM500 725h-135q21 16 29 23t19.5 21t11.5 26q0 18 -23 18q-27 0 -48 -11l-16 85q54 33 122 33q51 0 79 -24
t28 -59q0 -62 -67 -112z" />
    <glyph glyph-name="uni1EE7" unicode="&#x1ee7;" horiz-adv-x="603" 
d="M603 524l-79 -373q-18 -85 -29 -151h-182q2 31 8 61q-58 -72 -159 -72q-78 0 -111.5 50.5t-14.5 140.5l73 344h184l-69 -327q-16 -70 38 -70q71 0 96 120l59 277h186zM425 577h-135q21 16 29 23t19.5 21t11.5 26q0 18 -23 18q-27 0 -48 -11l-16 85q54 33 122 33
q51 0 79 -24t28 -59q0 -62 -67 -112z" />
    <glyph glyph-name="uni1EE8" unicode="&#x1ee8;" horiz-adv-x="713" 
d="M151 689h192l-93 -434q-14 -62 7.5 -95t75.5 -33q55 0 80.5 28t40.5 91l93 443h101q43 10 43 67q0 23 -4 43h152q3 -17 3 -32q0 -136 -122 -173l-73 -340q-31 -139 -104 -202.5t-227 -63.5q-149 0 -216.5 70.5t-36.5 218.5zM502 878h228l-222 -136h-169z" />
    <glyph glyph-name="uni1EE9" unicode="&#x1ee9;" horiz-adv-x="603" 
d="M321 61q-58 -72 -159 -72q-78 0 -111.5 50.5t-14.5 140.5l73 344h184l-69 -327q-16 -70 38 -70q71 0 96 120l59 277h73q28 4 41 19.5t13 49.5q0 23 -4 43h152q3 -17 3 -32q0 -129 -111 -169l-60 -284q-18 -85 -29 -151h-182q2 31 8 61zM420 733h214l-212 -145h-160z" />
    <glyph glyph-name="uni1EEA" unicode="&#x1eea;" horiz-adv-x="713" 
d="M151 689h192l-93 -434q-14 -62 7.5 -95t75.5 -33q55 0 80.5 28t40.5 91l93 443h101q43 10 43 67q0 23 -4 43h152q3 -17 3 -32q0 -136 -122 -173l-73 -340q-31 -139 -104 -202.5t-227 -63.5q-149 0 -216.5 70.5t-36.5 218.5zM201 878h215l132 -136h-164z" />
    <glyph glyph-name="uni1EEB" unicode="&#x1eeb;" horiz-adv-x="603" 
d="M321 61q-58 -72 -159 -72q-78 0 -111.5 50.5t-14.5 140.5l73 344h184l-69 -327q-16 -70 38 -70q71 0 96 120l59 277h73q28 4 41 19.5t13 49.5q0 23 -4 43h152q3 -17 3 -32q0 -129 -111 -169l-60 -284q-18 -85 -29 -151h-182q2 31 8 61zM157 733h192l100 -145h-146z" />
    <glyph glyph-name="uni1EEC" unicode="&#x1eec;" horiz-adv-x="713" 
d="M151 689h192l-93 -434q-14 -62 7.5 -95t75.5 -33q55 0 80.5 28t40.5 91l93 443h101q43 10 43 67q0 23 -4 43h152q3 -17 3 -32q0 -136 -122 -173l-73 -340q-31 -139 -104 -202.5t-227 -63.5q-149 0 -216.5 70.5t-36.5 218.5zM502 722h-135q21 16 29 23t19.5 21t11.5 26
q0 18 -23 18q-27 0 -48 -11l-16 85q54 33 122 33q51 0 79 -24t28 -59q0 -62 -67 -112z" />
    <glyph glyph-name="uni1EED" unicode="&#x1eed;" horiz-adv-x="603" 
d="M321 61q-58 -72 -159 -72q-78 0 -111.5 50.5t-14.5 140.5l73 344h184l-69 -327q-16 -70 38 -70q71 0 96 120l59 277h73q28 4 41 19.5t13 49.5q0 23 -4 43h152q3 -17 3 -32q0 -129 -111 -169l-60 -284q-18 -85 -29 -151h-182q2 31 8 61zM415 577h-135q21 16 29 23t19.5 21
t11.5 26q0 18 -23 18q-27 0 -48 -11l-16 85q54 33 122 33q51 0 79 -24t28 -59q0 -62 -67 -112z" />
    <glyph glyph-name="uni1EEE" unicode="&#x1eee;" horiz-adv-x="713" 
d="M151 689h192l-93 -434q-14 -62 7.5 -95t75.5 -33q55 0 80.5 28t40.5 91l93 443h101q43 10 43 67q0 23 -4 43h152q3 -17 3 -32q0 -136 -122 -173l-73 -340q-31 -139 -104 -202.5t-227 -63.5q-149 0 -216.5 70.5t-36.5 218.5zM370 742h-103l6 35q11 65 41.5 88.5t75.5 23.5
q33 0 82 -19t60 -19q21 0 25 29l2 9h102l-5 -32q-12 -70 -42.5 -94.5t-76.5 -24.5q-33 0 -82.5 18.5t-59.5 18.5q-19 0 -23 -20z" />
    <glyph glyph-name="uni1EEF" unicode="&#x1eef;" horiz-adv-x="603" 
d="M291 582h-104l8 39q12 66 40 87.5t70 21.5q34 0 78 -20.5t56 -20.5q19 0 26 30l2 11h102l-6 -31q-5 -34 -18 -63h147q3 -17 3 -32q0 -129 -111 -169l-60 -284q-18 -85 -29 -151h-182q2 31 8 61q-58 -72 -159 -72q-78 0 -111.5 50.5t-14.5 140.5l73 344h184l-69 -327
q-16 -70 38 -70q71 0 96 120l59 277h73q28 4 41 19.5t13 49.5q0 18 -3 36q-28 -51 -96 -51q-32 0 -75 19t-53 19q-19 0 -23 -22z" />
    <glyph glyph-name="uni1EF0" unicode="&#x1ef0;" horiz-adv-x="713" 
d="M151 689h192l-93 -434q-14 -62 7.5 -95t75.5 -33q55 0 80.5 28t40.5 91l93 443h101q43 10 43 67q0 23 -4 43h152q3 -17 3 -32q0 -136 -122 -173l-73 -340q-31 -139 -104 -202.5t-227 -63.5q-149 0 -216.5 70.5t-36.5 218.5zM355 -221h-172l33 157h172z" />
    <glyph glyph-name="uni1EF1" unicode="&#x1ef1;" horiz-adv-x="603" 
d="M321 61q-58 -72 -159 -72q-78 0 -111.5 50.5t-14.5 140.5l73 344h184l-69 -327q-16 -70 38 -70q71 0 96 120l59 277h73q28 4 41 19.5t13 49.5q0 23 -4 43h152q3 -17 3 -32q0 -129 -111 -169l-60 -284q-18 -85 -29 -151h-182q2 31 8 61zM291 -207h-172l33 157h172z" />
    <glyph glyph-name="Ygrave" unicode="&#x1ef2;" horiz-adv-x="606" 
d="M335 0h-194l52 245q3 15 -1 26l-140 418h198q63 -259 70 -300q20 36 53.5 88t77.5 118t62 94h206l-324 -430q-8 -10 -11 -26zM131 871h215l132 -136h-164z" />
    <glyph glyph-name="ygrave" unicode="&#x1ef3;" horiz-adv-x="539" 
d="M43 524h185q13 -214 10 -376h3q60 157 159 376h188l-258 -503q-37 -75 -66.5 -117.5t-64.5 -67t-70.5 -31.5t-93.5 -7q-44 0 -81 7l30 137q24 -3 40 -3q58 0 82 40zM117 728h192l100 -145h-146z" />
    <glyph glyph-name="uni1EF4" unicode="&#x1ef4;" horiz-adv-x="606" 
d="M335 0h-194l52 245q3 15 -1 26l-140 418h198q63 -259 70 -300q20 36 53.5 88t77.5 118t62 94h206l-324 -430q-8 -10 -11 -26zM284 -207h-172l33 157h172z" />
    <glyph glyph-name="uni1EF5" unicode="&#x1ef5;" horiz-adv-x="539" 
d="M43 524h185q13 -214 10 -376h3q60 157 159 376h188l-258 -503q-37 -75 -66.5 -117.5t-64.5 -67t-70.5 -31.5t-93.5 -7q-44 0 -81 7l30 137q24 -3 40 -3q58 0 82 40zM474 -203h-172l33 157h172z" />
    <glyph glyph-name="uni1EF6" unicode="&#x1ef6;" horiz-adv-x="606" 
d="M335 0h-194l52 245q3 15 -1 26l-140 418h198q63 -259 70 -300q20 36 53.5 88t77.5 118t62 94h206l-324 -430q-8 -10 -11 -26zM439 728h-135q21 16 29 23t19.5 21t11.5 26q0 18 -23 18q-27 0 -48 -11l-16 85q54 33 122 33q51 0 79 -24t28 -59q0 -62 -67 -112z" />
    <glyph glyph-name="uni1EF7" unicode="&#x1ef7;" horiz-adv-x="539" 
d="M43 524h185q13 -214 10 -376h3q60 157 159 376h188l-258 -503q-37 -75 -66.5 -117.5t-64.5 -67t-70.5 -31.5t-93.5 -7q-44 0 -81 7l30 137q24 -3 40 -3q58 0 82 40zM383 574h-135q21 16 29 23t19.5 21t11.5 26q0 18 -23 18q-27 0 -48 -11l-16 85q54 33 122 33
q51 0 79 -24t28 -59q0 -62 -67 -112z" />
    <glyph glyph-name="uni1EF8" unicode="&#x1ef8;" horiz-adv-x="606" 
d="M335 0h-194l52 245q3 15 -1 26l-140 418h198q63 -259 70 -300q20 36 53.5 88t77.5 118t62 94h206l-324 -430q-8 -10 -11 -26zM300 744h-103l6 35q11 65 41.5 88.5t75.5 23.5q33 0 82 -19t60 -19q21 0 25 29l2 9h102l-5 -32q-12 -70 -42.5 -94.5t-76.5 -24.5
q-33 0 -82.5 18.5t-59.5 18.5q-19 0 -23 -20z" />
    <glyph glyph-name="uni1EF9" unicode="&#x1ef9;" horiz-adv-x="539" 
d="M43 524h185q13 -214 10 -376h3q60 157 159 376h188l-258 -503q-37 -75 -66.5 -117.5t-64.5 -67t-70.5 -31.5t-93.5 -7q-44 0 -81 7l30 137q24 -3 40 -3q58 0 82 40zM251 582h-104l8 39q12 66 40 87.5t70 21.5q34 0 78 -20.5t56 -20.5q19 0 26 30l2 11h102l-6 -31
q-12 -73 -42 -97t-76 -24q-32 0 -75 19t-53 19q-19 0 -23 -22z" />
    <glyph glyph-name="uni2007" unicode="&#x2007;" horiz-adv-x="601" 
 />
    <glyph glyph-name="uni2010" unicode="&#x2010;" horiz-adv-x="372" 
d="M60 331h283l-31 -143h-282z" />
    <glyph glyph-name="figuredash" unicode="&#x2012;" horiz-adv-x="601" 
d="M115 395h402l-31 -147h-403z" />
    <glyph glyph-name="endash" unicode="&#x2013;" horiz-adv-x="459" 
d="M60 331h370l-31 -143h-369z" />
    <glyph glyph-name="emdash" unicode="&#x2014;" horiz-adv-x="835" 
d="M60 331h746l-31 -143h-745z" />
    <glyph glyph-name="uni2015" unicode="&#x2015;" horiz-adv-x="835" 
d="M60 331h746l-31 -143h-745z" />
    <glyph glyph-name="quoteleft" unicode="&#x2018;" horiz-adv-x="271" 
d="M210 724h137q-80 -159 -110 -303h-170q18 75 58 160t85 143z" />
    <glyph glyph-name="quoteright" unicode="&#x2019;" horiz-adv-x="271" 
d="M190 421h-137q81 157 110 303h171q-19 -76 -59 -161t-85 -142z" />
    <glyph glyph-name="quotesinglbase" unicode="&#x201a;" horiz-adv-x="274" 
d="M68 -122h-137q81 163 110 304h170q-18 -76 -58 -161t-85 -143z" />
    <glyph glyph-name="quotedblleft" unicode="&#x201c;" horiz-adv-x="483" 
d="M427 724h130q-76 -157 -106 -303h-160q18 81 56 163.5t80 139.5zM203 724h131q-75 -156 -107 -303h-160q20 81 58.5 166t77.5 137z" />
    <glyph glyph-name="quotedblright" unicode="&#x201d;" horiz-adv-x="483" 
d="M185 421h-131q76 155 107 303h160q-19 -80 -57 -163t-79 -140zM408 421h-130q76 157 106 303h160q-20 -82 -58.5 -166.5t-77.5 -136.5z" />
    <glyph glyph-name="quotedblbase" unicode="&#x201e;" horiz-adv-x="479" 
d="M63 -122h-131q76 154 107 304h160q-19 -81 -57 -164t-79 -140zM286 -122h-130q76 158 106 304h160q-20 -83 -58.5 -167.5t-77.5 -136.5z" />
    <glyph glyph-name="dagger" unicode="&#x2020;" horiz-adv-x="500" 
d="M248 646h142l-47 -194l150 8l-29 -134l-147 9l-87 -443h-142l104 443l-153 -9l29 134l149 -8z" />
    <glyph glyph-name="daggerdbl" unicode="&#x2021;" horiz-adv-x="500" 
d="M161 193l35 163l-152 -9l29 136l149 -10l26 173h142l-43 -173l151 10l-29 -136l-147 9l-35 -163l151 8l-29 -133l-147 7l-32 -183h-142l49 183l-152 -7l28 133z" />
    <glyph glyph-name="bullet" unicode="&#x2022;" horiz-adv-x="417" 
d="M103 396h264l-59 -277h-264z" />
    <glyph glyph-name="ellipsis" unicode="&#x2026;" horiz-adv-x="958" 
d="M181 0h-180l41 198h180zM503 0h-180l41 198h180zM824 0h-180l41 198h180z" />
    <glyph glyph-name="perthousand" unicode="&#x2030;" horiz-adv-x="1340" 
d="M1154 373q72 0 113.5 -37.5t41.5 -108.5q0 -100 -59 -169t-161 -69q-75 0 -114 39.5t-39 108.5q0 42 13.5 82.5t39 75.5t69 56.5t96.5 21.5zM1144 276q-25 0 -43.5 -27t-25.5 -57t-7 -55q0 -53 38 -53q26 0 44 28.5t24.5 59.5t6.5 56q0 48 -37 48zM291 670q72 0 113 -37
t41 -108q0 -100 -58.5 -169.5t-160.5 -69.5q-75 0 -114 39.5t-39 108.5q0 42 13.5 82.5t39 75.5t69 56.5t96.5 21.5zM281 574q-25 0 -43.5 -27t-25.5 -57.5t-7 -55.5q0 -53 38 -53q26 0 44 28.5t24.5 59.5t6.5 56q0 49 -37 49zM271 0h-107l541 660h105zM747 373
q72 0 113 -37.5t41 -108.5q0 -100 -59 -169t-160 -69q-76 0 -114.5 39.5t-38.5 108.5q0 42 13.5 82.5t39 75.5t69 56.5t96.5 21.5zM737 276q-37 0 -56.5 -48t-19.5 -91q0 -53 37 -53q27 0 45 28.5t24.5 59.5t6.5 56q0 48 -37 48z" />
    <glyph glyph-name="uni2032" unicode="&#x2032;" horiz-adv-x="308" 
d="M217 404h-136l110 320h166z" />
    <glyph glyph-name="uni2033" unicode="&#x2033;" horiz-adv-x="503" 
d="M201 404h-120l108 322h152zM411 404h-119l109 322h151z" />
    <glyph glyph-name="guilsinglleft" unicode="&#x2039;" horiz-adv-x="378" 
d="M389 462l-198 -204l106 -195h-141l-114 199l193 200h154z" />
    <glyph glyph-name="guilsinglright" unicode="&#x203a;" horiz-adv-x="384" 
d="M-1 63l198 204l-106 195h141l114 -199l-193 -200h-154z" />
    <glyph glyph-name="fraction" unicode="&#x2044;" horiz-adv-x="216" 
d="M-80 0h-110l527 660h105z" />
    <glyph glyph-name="zero.sups" unicode="&#x2070;" horiz-adv-x="423" 
d="M264 832q82 0 123 -44t41 -113q0 -108 -58 -179.5t-167 -71.5q-81 0 -121.5 44.5t-40.5 116.5q0 99 59.5 173t163.5 74zM255 732q-57 0 -69 -134q-7 -75 31 -75q53 0 67 139q7 70 -29 70z" />
    <glyph glyph-name="four.sups" unicode="&#x2074;" horiz-adv-x="405" 
d="M317 430h-127l17 84h-187l21 98l185 214h175l-46 -217h54l-29 -95h-45zM160 609h67l9 38q14 60 21 84q-37 -49 -97 -122z" />
    <glyph glyph-name="five.sups" unicode="&#x2075;" horiz-adv-x="405" 
d="M423 826l-35 -98h-176q-10 -36 -15 -49q32 15 74 15q58 0 90.5 -31.5t32.5 -80.5q0 -75 -56 -116.5t-141 -41.5q-86 0 -125.5 38t-38.5 91h129q2 -36 37 -36q22 0 35.5 14.5t13.5 38.5q0 39 -37 39q-30 0 -45 -23l-117 13q35 92 71 227h303z" />
    <glyph glyph-name="six.sups" unicode="&#x2076;" horiz-adv-x="411" 
d="M417 712h-131q-2 27 -34 27q-44 0 -60 -67q36 23 87 23q57 0 91.5 -30.5t34.5 -82.5q0 -68 -52.5 -113t-143.5 -45q-78 0 -123.5 44.5t-45.5 122.5q0 42 12 82.5t36.5 77t68 59t99.5 22.5q80 0 120.5 -34.5t40.5 -85.5zM214 518q22 0 36 16t14 41q0 39 -38 39
q-22 0 -35.5 -16.5t-13.5 -40.5q0 -39 37 -39z" />
    <glyph glyph-name="seven.sups" unicode="&#x2077;" horiz-adv-x="370" 
d="M90 826h319l-19 -93q-125 -123 -194 -304h-156q31 85 89.5 167t113.5 129h-174z" />
    <glyph glyph-name="eight.sups" unicode="&#x2078;" horiz-adv-x="403" 
d="M201 424q-81 0 -126 32t-45 79q0 70 84 101q-38 26 -38 69q0 61 50 94t128 33t118.5 -30.5t40.5 -73.5q0 -65 -69 -92q52 -26 52 -79q0 -66 -58 -99.5t-137 -33.5zM246 747q-19 0 -32 -11.5t-13 -31.5q0 -32 36 -32q19 0 32 11.5t13 31.5q0 14 -9 23t-27 9zM211 508
q23 0 37.5 12.5t14.5 34.5q0 16 -11 26.5t-32 10.5q-23 0 -37 -13t-14 -35q0 -16 12 -26t30 -10z" />
    <glyph glyph-name="nine.sups" unicode="&#x2079;" horiz-adv-x="410" 
d="M32 548h137q4 -32 37 -32q22 0 36.5 20t20.5 49q-26 -20 -82 -20q-54 0 -91.5 29.5t-37.5 81.5q0 69 53.5 112.5t133.5 43.5q85 0 131 -43.5t46 -120.5q0 -44 -11.5 -85t-35.5 -78t-68 -59t-103 -22q-79 0 -121.5 34.5t-44.5 89.5zM240 740q-21 0 -35.5 -15.5
t-14.5 -38.5q0 -39 41 -39q22 0 35 15.5t13 37.5q0 40 -39 40z" />
    <glyph glyph-name="parenleft.sups" unicode="&#x207d;" horiz-adv-x="254" 
d="M194 868h111q-69 -69 -102.5 -143t-33.5 -176q0 -106 30 -181h-106q-37 74 -37 187q0 91 35 172.5t103 140.5z" />
    <glyph glyph-name="parenright.sups" unicode="&#x207e;" horiz-adv-x="254" 
d="M102 368h-111q69 75 102.5 148.5t33.5 174.5t-30 177h106q37 -83 37 -188q0 -89 -36 -173t-102 -139z" />
    <glyph glyph-name="n.sups" unicode="&#x207f;" horiz-adv-x="412" 
d="M37 262l48 227q8 38 21 107h126q2 -13 -2 -34q43 41 104 41q50 0 75.5 -35t12.5 -98l-44 -208h-131l41 192q10 47 -25 47q-18 0 -34 -14t-23 -46l-38 -179h-131z" />
    <glyph glyph-name="zero.subs" unicode="&#x2080;" horiz-adv-x="423" 
d="M137 231q82 0 123 -44t41 -113q0 -108 -58 -179.5t-167 -71.5q-81 0 -121.5 44.5t-40.5 116.5q0 99 59.5 173t163.5 74zM128 131q-57 0 -69 -134q-7 -75 31 -75q53 0 67 139q7 70 -29 70z" />
    <glyph glyph-name="one.subs" unicode="&#x2081;" horiz-adv-x="277" 
d="M77 -172h-141l56 264q-21 0 -58 5l20 93q74 2 114 38h94z" />
    <glyph glyph-name="two.subs" unicode="&#x2082;" horiz-adv-x="388" 
d="M212 -172h-325l3 16q12 59 43.5 103.5t113.5 87.5l22.5 12.5t19.5 11t15 8.5t13 8.5t8 8.5t5.5 9.5t1.5 10.5q0 29 -31 29q-35 0 -48 -50h-123q29 148 187 148q78 0 117 -36.5t39 -83.5q0 -46 -25 -75.5t-87 -58.5q-67 -32 -83 -52h172z" />
    <glyph glyph-name="three.subs" unicode="&#x2083;" horiz-adv-x="395" 
d="M-96 -44h130q0 -43 42 -43q44 0 44 40q0 34 -47 34h-33l20 91h29q46 0 46 37q0 27 -30 27q-33 0 -45 -35h-121q27 124 180 124q74 0 114 -29.5t40 -75.5q0 -65 -70 -88q18 -6 38 -26t20 -53q0 -63 -51.5 -99t-136.5 -36q-50 0 -86.5 13.5t-53.5 34.5t-24 42.5t-5 41.5z
" />
    <glyph glyph-name="four.subs" unicode="&#x2084;" horiz-adv-x="405" 
d="M190 -171h-127l17 84h-187l21 98l185 214h175l-46 -217h54l-29 -95h-45zM33 8h67l9 38q14 60 21 84q-37 -49 -97 -122z" />
    <glyph glyph-name="five.subs" unicode="&#x2085;" horiz-adv-x="405" 
d="M296 225l-35 -98h-176q-10 -36 -15 -49q32 15 74 15q58 0 90.5 -31.5t32.5 -80.5q0 -75 -56 -116.5t-141 -41.5q-86 0 -125.5 38t-38.5 91h129q2 -36 37 -36q22 0 35.5 14.5t13.5 38.5q0 39 -37 39q-30 0 -45 -23l-117 13q35 92 71 227h303z" />
    <glyph glyph-name="six.subs" unicode="&#x2086;" horiz-adv-x="411" 
d="M290 111h-131q-2 27 -34 27q-44 0 -60 -67q36 23 87 23q57 0 91.5 -30.5t34.5 -82.5q0 -68 -52.5 -113t-143.5 -45q-78 0 -123.5 44.5t-45.5 122.5q0 42 12 82.5t36.5 77t68 59t99.5 22.5q80 0 120.5 -34.5t40.5 -85.5zM87 -83q22 0 36 16t14 41q0 39 -38 39
q-22 0 -35.5 -16.5t-13.5 -40.5q0 -39 37 -39z" />
    <glyph glyph-name="seven.subs" unicode="&#x2087;" horiz-adv-x="370" 
d="M-37 225h319l-19 -93q-125 -123 -194 -304h-156q31 85 89.5 167t113.5 129h-174z" />
    <glyph glyph-name="eight.subs" unicode="&#x2088;" horiz-adv-x="403" 
d="M74 -177q-81 0 -126 32t-45 79q0 70 84 101q-38 26 -38 69q0 61 50 94t128 33t118.5 -30.5t40.5 -73.5q0 -65 -69 -92q52 -26 52 -79q0 -66 -58 -99.5t-137 -33.5zM119 146q-19 0 -32 -11.5t-13 -31.5q0 -32 36 -32q19 0 32 11.5t13 31.5q0 14 -9 23t-27 9zM84 -93
q23 0 37.5 12.5t14.5 34.5q0 16 -11 26.5t-32 10.5q-23 0 -37 -13t-14 -35q0 -16 12 -26t30 -10z" />
    <glyph glyph-name="nine.subs" unicode="&#x2089;" horiz-adv-x="410" 
d="M-95 -53h137q4 -32 37 -32q22 0 36.5 20t20.5 49q-26 -20 -82 -20q-54 0 -91.5 29.5t-37.5 81.5q0 69 53.5 112.5t133.5 43.5q85 0 131 -43.5t46 -120.5q0 -44 -11.5 -85t-35.5 -78t-68 -59t-103 -22q-79 0 -121.5 34.5t-44.5 89.5zM113 139q-21 0 -35.5 -15.5
t-14.5 -38.5q0 -39 41 -39q22 0 35 15t13 38q0 40 -39 40z" />
    <glyph glyph-name="parenleft.subs" unicode="&#x208d;" horiz-adv-x="254" 
d="M67 267h111q-69 -69 -102.5 -143t-33.5 -176q0 -106 30 -181h-106q-37 74 -37 187q0 91 35 172.5t103 140.5z" />
    <glyph glyph-name="parenright.subs" unicode="&#x208e;" horiz-adv-x="254" 
d="M-25 -233h-111q69 75 102.5 148.5t33.5 174.5t-30 177h106q37 -83 37 -188q0 -89 -36 -173t-102 -139z" />
    <glyph glyph-name="colonmonetary" unicode="&#x20a1;" horiz-adv-x="570" 
d="M351 538q-34 0 -62 -36t-43.5 -88.5t-23.5 -102.5t-8 -87q0 -103 61 -103q32 0 52.5 20t34.5 60h173q-47 -156 -182 -193l-19 -92h-87l17 79h-21h-13l-17 -79h-88l21 97q-115 49 -115 220q0 62 14 125t42.5 122.5t78.5 105t115 63.5l15 69h87l-12 -57q12 0 34 -2l13 59
h87l-17 -80q103 -51 93 -186h-166q1 44 -13.5 65t-50.5 21z" />
    <glyph glyph-name="franc" unicode="&#x20a3;" horiz-adv-x="549" 
d="M26 0l20 94h-70l22 101h69l98 464h431l-30 -138h-251l-23 -114h235l-29 -134h-235l-17 -78h108l-22 -101h-107l-20 -94h-179z" />
    <glyph glyph-name="lira" unicode="&#x20a4;" horiz-adv-x="561" 
d="M400 346h-116l-6 -42v-1h113l-18 -80h-112q-16 -56 -50 -84h311l-48 -139h-494l25 122q63 23 83 101h-86l18 80h82q2 15 4 43h-77l18 81h68q0 5 2 19q28 225 240 225q115 0 162 -57t38 -140h-155q2 71 -47 71q-46 0 -55 -74q-2 -14 -6 -44h124z" />
    <glyph glyph-name="uni20A6" unicode="&#x20a6;" horiz-adv-x="569" 
d="M231 515q-1 -14 -10 -70h19l2 70h-11zM332 165h12l11 77h-21zM132 0h-136l51 242h-49l18 81h48l8 39h-49l18 83h49l45 214h212l-6 -214h51q8 42 12 60l32 154h135l-45 -214h50l-18 -83h-50l-8 -39h50l-18 -81h-49l-51 -242h-204l7 242h-53q-7 -37 -17 -82zM369 323
q4 26 7 39h-38l-1 -39h32zM237 323l1 39h-32q-1 -6 -3.5 -19t-3.5 -20h38z" />
    <glyph glyph-name="peseta" unicode="&#x20a7;" horiz-adv-x="611" 
d="M14 0l83 389h-59l18 84h58l40 186h205q103 0 162.5 -52.5t62.5 -133.5h51l-18 -84h-41q-41 -192 -301 -192h-46l-41 -197h-174zM305 547l-16 -74h127q-5 74 -77 74h-34zM254 311h40q83 0 112 78h-135z" />
    <glyph glyph-name="dong" unicode="&#x20ab;" horiz-adv-x="571" 
d="M-20 -62h465l-22 -100h-464zM365 412l22 97h-181l23 99h180l12 56h173l-12 -56h53l-24 -99h-50l-76 -354q-7 -35 -17 -90t-12 -65h-152q-3 20 -1 43q-49 -50 -136 -50q-71 0 -115.5 49t-44.5 134q0 112 66 193t180 81q84 0 112 -38zM280 328q-42 0 -67 -44t-25 -92
q0 -72 54 -72q66 0 89 100q23 108 -51 108z" />
    <glyph glyph-name="Euro" unicode="&#x20ac;" horiz-adv-x="593" 
d="M385 177h167q-31 -97 -93 -143t-169 -46q-106 0 -159 61.5t-53 174.5v11h-64l17 80h53q4 27 7 44h-50l17 81h54q35 104 105.5 167.5t177.5 63.5q114 0 163 -58.5t44 -136.5h-161q3 73 -58 73q-57 0 -96 -109h156l-17 -81h-161q-1 -7 -4 -22t-4 -22h160l-18 -80h-149v-18
q0 -105 58 -105q28 0 45.5 16.5t31.5 48.5z" />
    <glyph glyph-name="uni20B1" unicode="&#x20b1;" horiz-adv-x="606" 
d="M14 0l72 338h-51l15 68h50l7 30h-51l15 69h50l33 154h209q89 0 144.5 -41t68.5 -113h58l-15 -69h-40q0 -15 -3 -30h37l-14 -68h-40q-61 -155 -277 -155h-59l-38 -183h-171zM300 546l-9 -41h117q-14 41 -59 41h-49zM248 298h54q51 0 81 40h-127zM410 406q2 10 4 30h-137
l-6 -30h139z" />
    <glyph glyph-name="uni20B2" unicode="&#x20b2;" horiz-adv-x="598" 
d="M593 467h-164q-1 33 -15.5 50.5t-49.5 17.5q-36 0 -64.5 -32.5t-43.5 -80.5t-22.5 -93t-7.5 -79q0 -63 16 -96t62 -33q23 0 47 9l47 215h170l-63 -308q-108 -35 -182 -42l-17 -79h-128l18 84q-75 19 -114.5 80.5t-39.5 159.5q0 68 17.5 136t51.5 130t93 104.5t134 51.5
l12 57h128l-15 -65q67 -17 100.5 -65t29.5 -122z" />
    <glyph glyph-name="uni20B4" unicode="&#x20b4;" horiz-adv-x="589" 
d="M278 486h-166q46 185 253 185q104 0 156.5 -45.5t52.5 -114.5q0 -44 -17 -80h37l-16 -73h-84q-27 -21 -67 -42h133l-16 -73h-253q-59 -37 -59 -85q0 -20 13.5 -33.5t36.5 -13.5q56 0 81 68h170q-31 -103 -97 -147.5t-182 -44.5q-90 0 -148.5 41.5t-58.5 122.5q0 54 23 92
h-35l15 73h94q24 17 69 42h-142l16 73h257q52 36 52 76q0 18 -11 30.5t-33 12.5q-30 0 -46.5 -16.5t-27.5 -47.5z" />
    <glyph glyph-name="uni20B5" unicode="&#x20b5;" horiz-adv-x="570" 
d="M355 538q-35 0 -64 -36.5t-45 -89.5t-24 -103t-8 -87q0 -54 14 -77.5t46 -23.5q33 0 53 20.5t36 65.5h172q-26 -94 -79.5 -145t-146.5 -63l-18 -83h-128l18 86q-72 16 -111 74.5t-39 156.5q0 67 16.5 134.5t49 130t91 106.5t134.5 54l14 61h127l-15 -67q71 -18 104.5 -71
t28.5 -131h-166q3 45 -10.5 66.5t-49.5 21.5z" />
    <glyph glyph-name="uni20B9" unicode="&#x20b9;" horiz-adv-x="560" 
d="M569 426h-77q-18 -124 -152 -165l132 -261h-202l-113 241h-106l26 121h99q105 0 129 64h-214l19 91h191q-21 38 -78 38h-106l23 104h479l-20 -93h-133q14 -22 22 -49h100z" />
    <glyph glyph-name="uni20BA" unicode="&#x20ba;" horiz-adv-x="616" 
d="M426 343l-115 -31l-35 -172q116 0 157 138h155q-7 -36 -20 -70t-39.5 -73t-62 -68t-92 -48t-125.5 -19h-191l55 257l-89 -24l21 97l88 24l11 48l-90 -24l21 97l89 25l34 159h185l-22 -105l116 32l-21 -98l-115 -31l-10 -48l116 32z" />
    <glyph glyph-name="uni20BD" unicode="&#x20bd;" horiz-adv-x="649" 
d="M37 0l21 99h-62l22 101h61l14 63h-62l25 118h62l59 278h256q109 0 166.5 -49t57.5 -127q0 -109 -74.5 -164.5t-214.5 -55.5h-92l-13 -63h155l-21 -101h-156l-21 -99h-183zM334 539l-33 -158h66q51 0 76.5 24.5t25.5 66.5q0 30 -18.5 48.5t-55.5 18.5h-61z" />
    <glyph glyph-name="uni2113" unicode="&#x2113;" horiz-adv-x="504" 
d="M308 537l-28 -130q33 25 60.5 73t30.5 90q3 36 -19 36q-29 0 -44 -69zM323 200h147q-23 -106 -80.5 -157.5t-166.5 -51.5q-53 0 -90 15t-55 40t-24.5 51t-4.5 55l1 3v4q-20 -11 -58 -26l7 126q13 6 75 39l42 202q27 123 86 177t148 54q74 0 120.5 -38t46.5 -117
q0 -103 -68.5 -183t-205.5 -157l-6 -35q-16 -72 24 -72q23 0 36.5 16t25.5 55z" />
    <glyph glyph-name="uni2116" unicode="&#x2116;" horiz-adv-x="1067" 
d="M177 0h-164l141 669h231q53 -326 53 -449h3q13 109 58 311l28 138h166l-141 -669h-223q-12 72 -22 138t-15 111t-9 88.5t-5.5 66t-3 48.5t-1.5 30h-3q-17 -117 -63 -340zM910 632q74 0 120 -42.5t46 -117.5q0 -103 -63.5 -169t-166.5 -66q-74 0 -117 41.5t-43 114.5
q0 103 62 171t162 68zM900 523q-35 0 -54.5 -41.5t-19.5 -82.5q0 -53 38 -53q36 0 56 41.5t20 85.5q0 50 -40 50zM668 189h323l-21 -99h-322z" />
    <glyph glyph-name="uni2117" unicode="&#x2117;" horiz-adv-x="762" 
d="M395 695q144 0 240.5 -97.5t96.5 -252.5q0 -152 -96.5 -251.5t-240.5 -99.5q-147 0 -243.5 96.5t-96.5 254.5q0 150 97.5 250t242.5 100zM394 626q-116 0 -190 -75.5t-74 -205.5q0 -122 74 -200.5t190 -78.5t189 72.5t73 205.5q0 127 -74.5 204.5t-187.5 77.5zM256 171
v357h165q62 0 105 -29t43 -95q0 -62 -43 -93.5t-109 -31.5h-48v-108h-113zM369 441v-77h36q50 0 50 39q0 38 -49 38h-37z" />
    <glyph glyph-name="uni2120" unicode="&#x2120;" horiz-adv-x="500" 
d="M69 531l78 1q4 -26 31 -26q25 0 25 15q0 16 -41 25q-52 9 -70 28t-18 45q0 35 27 55.5t73 20.5q96 0 100 -71l-74 -1q-3 20 -29 20q-21 0 -21 -15q0 -11 31 -18q58 -12 79 -30t21 -49q0 -35 -27 -57.5t-80 -22.5q-47 0 -75 21.5t-30 58.5zM591 458h-74v56q0 9 6 123h-3
q-2 -10 -18.5 -81.5t-22.5 -96.5h-68q-1 4 -35 178h-3q4 -80 4 -131v-48h-73v231h124q4 -15 22 -118h1q1 4 11.5 53.5t15.5 64.5h113v-231z" />
    <glyph glyph-name="trademark" unicode="&#x2122;" horiz-adv-x="501" 
d="M77 689h214v-68h-67v-164h-81v164h-66v68zM601 457h-75v51q0 44 7 128h-3q-4 -16 -19.5 -84.5t-21.5 -92.5h-68q-9 39 -34 177h-4q4 -76 4 -134v-45h-73v232h123q7 -30 23 -118h2q17 83 26 118h113v-232z" />
    <glyph glyph-name="uni2126" unicode="&#x2126;" horiz-adv-x="754" 
d="M437 700q145 0 229 -76t84 -195q0 -96 -50 -169.5t-144 -115.5h141l-30 -144h-314l37 177q75 32 114.5 97t39.5 149q0 137 -119 137q-78 0 -122 -68.5t-44 -151.5q0 -55 17 -99t50 -64l-37 -177h-311l29 144h153q-98 88 -98 208q0 149 103.5 248.5t271.5 99.5z" />
    <glyph glyph-name="estimated" unicode="&#x212e;" horiz-adv-x="844" 
d="M805 304h-572q-4 0 -4 -4v-134q0 -10 8 -22q26 -39 74 -64.5t109 -25.5q71 0 117 22.5t85 77.5h131q-52 -80 -140.5 -123t-192.5 -43q-168 0 -275 98.5t-107 242.5q0 142 112.5 242t273.5 100t271 -99.5t110 -242.5v-25zM615 381v118q0 13 -9 23q-60 83 -183 83
q-126 0 -185 -84q-9 -13 -9 -23v-117q0 -5 4 -5h378q4 0 4 5z" />
    <glyph glyph-name="onethird" unicode="&#x2153;" horiz-adv-x="881" 
d="M180 0h-110l527 660h105zM218 262h-141l56 264q-21 0 -58 5l20 93q74 2 114 38h94zM476 130h130q0 -43 42 -43q44 0 44 40q0 34 -47 34h-33l20 91h29q46 0 46 37q0 27 -30 27q-33 0 -45 -35h-121q27 124 180 124q74 0 114 -29.5t40 -75.5q0 -65 -70 -88q18 -6 38 -26
t20 -53q0 -63 -51.5 -99t-136.5 -36q-50 0 -86.5 13.5t-53.5 34.5t-24 42.5t-5 41.5z" />
    <glyph glyph-name="twothirds" unicode="&#x2154;" horiz-adv-x="1019" 
d="M322 0h-110l527 660h105zM360 262h-325l3 16q12 59 43.5 103.5t113.5 87.5l22.5 12.5t19.5 11t15 8.5t13 8.5t8 8.5t5.5 9.5t1.5 10.5q0 29 -31 29q-35 0 -48 -50h-123q29 148 187 148q78 0 117 -36.5t39 -83.5q0 -46 -25 -75.5t-87 -58.5q-67 -32 -83 -52h172zM610 126
h130q0 -43 42 -43q44 0 44 40q0 34 -47 34h-33l20 91h29q46 0 46 37q0 27 -30 27q-33 0 -45 -35h-121q27 124 180 124q74 0 114 -29.5t40 -75.5q0 -65 -70 -88q18 -6 38 -26t20 -53q0 -63 -51.5 -99t-136.5 -36q-50 0 -86.5 13.5t-53.5 34.5t-24 42.5t-5 41.5z" />
    <glyph glyph-name="oneeighth" unicode="&#x215b;" horiz-adv-x="902" 
d="M200 0h-110l527 660h105zM221 262h-141l56 264q-20 0 -58 5l20 93q74 2 114 38h94zM653 -6q-81 0 -126 32t-45 79q0 70 84 101q-38 26 -38 69q0 61 50 94t128 33t118.5 -30.5t40.5 -73.5q0 -65 -69 -92q52 -26 52 -79q0 -66 -58 -99.5t-137 -33.5zM698 317
q-19 0 -32 -11.5t-13 -31.5q0 -32 36 -32q19 0 32 11.5t13 31.5q0 14 -9 23t-27 9zM663 78q23 0 37.5 12.5t14.5 34.5q0 16 -11 26.5t-32 10.5q-23 0 -37 -13t-14 -35q0 -16 12 -26t30 -10z" />
    <glyph glyph-name="threeeighths" unicode="&#x215c;" horiz-adv-x="1018" 
d="M316 0h-110l527 660h105zM766 -7q-81 0 -126 32t-45 79q0 70 84 101q-38 26 -38 69q0 61 50 94t128 33t118.5 -30.5t40.5 -73.5q0 -65 -69 -92q52 -26 52 -79q0 -66 -58 -99.5t-137 -33.5zM811 316q-19 0 -32 -11.5t-13 -31.5q0 -32 36 -32q19 0 32 11.5t13 31.5
q0 14 -9 23t-27 9zM776 77q23 0 37.5 12.5t14.5 34.5q0 16 -11 26.5t-32 10.5q-23 0 -37 -13t-14 -35q0 -16 12 -26t30 -10zM54 390h130q0 -43 42 -43q44 0 44 40q0 34 -47 34h-33l20 91h29q46 0 46 37q0 27 -30 27q-33 0 -45 -35h-121q27 124 180 124q74 0 114 -29.5
t40 -75.5q0 -65 -70 -88q18 -6 38 -26t20 -53q0 -63 -51.5 -99t-136.5 -36q-50 0 -86.5 13.5t-53.5 34.5t-24 42.5t-5 41.5z" />
    <glyph glyph-name="fiveeighths" unicode="&#x215d;" horiz-adv-x="1010" 
d="M309 0h-110l527 660h105zM441 659l-35 -98h-176q-10 -36 -15 -49q32 15 74 15q58 0 90.5 -31.5t32.5 -80.5q0 -75 -56 -116.5t-141 -41.5q-86 0 -125.5 38t-38.5 91h129q2 -36 37 -36q22 0 35.5 14.5t13.5 38.5q0 39 -37 39q-30 0 -45 -23l-117 13q35 92 71 227h303z
M758 -6q-81 0 -126 32t-45 79q0 70 84 101q-38 26 -38 69q0 61 50 94t128 33t118.5 -30.5t40.5 -73.5q0 -65 -69 -92q52 -26 52 -79q0 -66 -58 -99.5t-137 -33.5zM803 317q-19 0 -32 -11.5t-13 -31.5q0 -32 36 -32q19 0 32 11.5t13 31.5q0 14 -9 23t-27 9zM768 78
q23 0 37.5 12.5t14.5 34.5q0 16 -11 26.5t-32 10.5q-23 0 -37 -13t-14 -35q0 -16 12 -26t30 -10z" />
    <glyph glyph-name="seveneighths" unicode="&#x215e;" horiz-adv-x="934" 
d="M224 0h-110l527 660h105zM682 -6q-81 0 -126 32t-45 79q0 70 84 101q-38 26 -38 69q0 61 50 94t128 33t118.5 -30.5t40.5 -73.5q0 -65 -69 -92q52 -26 52 -79q0 -66 -58 -99.5t-137 -33.5zM727 317q-19 0 -32 -11.5t-13 -31.5q0 -32 36 -32q19 0 32 11.5t13 31.5
q0 14 -9 23t-27 9zM692 78q23 0 37.5 12.5t14.5 34.5q0 16 -11 26.5t-32 10.5q-23 0 -37 -13t-14 -35q0 -16 12 -26t30 -10zM110 659h319l-19 -93q-125 -123 -194 -304h-156q31 85 89.5 167t113.5 129h-174z" />
    <glyph glyph-name="uni2190" unicode="&#x2190;" horiz-adv-x="856" 
d="M817 276h-533q27 -25 131 -130.5t122 -123.5l-98 -93l-400 415v2l400 414l98 -97q-19 -18 -122.5 -121.5t-130.5 -128.5h533v-137z" />
    <glyph glyph-name="arrowup" unicode="&#x2191;" horiz-adv-x="880" 
d="M366 -49v574q-26 -28 -125 -130t-112 -115l-92 100l402 400h2l401 -400l-96 -100q-15 16 -111.5 116.5t-121.5 128.5v-574h-147z" />
    <glyph glyph-name="uni2192" unicode="&#x2192;" horiz-adv-x="856" 
d="M39 413h533q-27 25 -131 130.5t-122 123.5l98 93l400 -415v-2l-400 -414l-98 97q19 18 122.5 121.5t130.5 128.5h-533v137z" />
    <glyph glyph-name="arrowdown" unicode="&#x2193;" horiz-adv-x="880" 
d="M514 761v-574q26 28 125 130t112 115l92 -100l-402 -400h-2l-401 400l96 100q15 -16 111.5 -116.5t121.5 -128.5v574h147z" />
    <glyph glyph-name="partialdiff" unicode="&#x2202;" horiz-adv-x="601" 
d="M123 560l27 139q15 3 47 3q162 0 265.5 -88.5t103.5 -256.5q0 -68 -16 -129t-50.5 -116.5t-98.5 -88t-151 -32.5q-115 0 -174 57t-59 144q0 107 72 173t188 66q76 0 108 -28v6q0 63 -64.5 108t-162.5 45q-17 0 -35 -2zM261 112q41 0 66 39t29 85q3 35 -13 55t-51 20
q-45 0 -70 -38.5t-25 -85.5q0 -35 16.5 -55t47.5 -20z" />
    <glyph glyph-name="uni2206" unicode="&#x2206;" horiz-adv-x="674" 
d="M595 0h-621l22 106l306 583h250l66 -585zM199 145h225q-25 284 -30 401h-4q-35 -89 -191 -401z" />
    <glyph glyph-name="product" unicode="&#x220f;" horiz-adv-x="719" 
d="M158 689h584l-166 -782h-193l136 636h-199l-136 -636h-193z" />
    <glyph glyph-name="summation" unicode="&#x2211;" horiz-adv-x="553" 
d="M462 -93h-523l24 113l261 289l-137 263l25 117h495l-31 -144h-273l119 -236l-227 -259h319z" />
    <glyph glyph-name="minus" unicode="&#x2212;" horiz-adv-x="679" 
d="M613 208h-547v138h547v-138z" />
    <glyph glyph-name="uni2215" unicode="&#x2215;" horiz-adv-x="216" 
d="M-80 0h-110l527 660h105z" />
    <glyph glyph-name="uni2219" unicode="&#x2219;" horiz-adv-x="262" 
d="M206 200h-180l41 198h180z" />
    <glyph glyph-name="radical" unicode="&#x221a;" horiz-adv-x="624" 
d="M747 852l-430 -1029h-101l-88 382l-86 -35l-29 97l242 106q41 -219 50 -306q15 50 316 785h126z" />
    <glyph glyph-name="infinity" unicode="&#x221e;" horiz-adv-x="818" 
d="M221 94q-78 0 -127 54t-49 136q0 79 50.5 134t132.5 55q59 0 100.5 -26.5t88.5 -79.5q50 55 90.5 80.5t103.5 25.5q76 0 125.5 -53.5t49.5 -135.5q0 -78 -51.5 -134t-132.5 -56q-54 0 -97.5 25.5t-87.5 75.5q-46 -50 -90 -75.5t-106 -25.5zM594 211q32 0 52.5 20.5
t20.5 52.5q0 33 -19.5 53.5t-52.5 20.5q-28 0 -52.5 -18t-57.5 -55q24 -27 35 -37.5t32.5 -23.5t41.5 -13zM233 211q53 0 111 68q-2 2 -10 12t-10.5 13t-10 11.5t-11.5 11.5t-11.5 9.5t-13 9t-12.5 6t-14.5 5t-15.5 1.5q-32 0 -52 -21t-20 -53q0 -33 20 -53t50 -20z" />
    <glyph glyph-name="integral" unicode="&#x222b;" horiz-adv-x="361" 
d="M461 818l-36 -138q-33 5 -47 5q-37 0 -52 -24.5t-26 -102.5q-11 -82 -31 -252t-28 -229q-6 -49 -14.5 -85.5t-25.5 -73.5t-40 -60.5t-59 -38t-83 -14.5q-61 0 -93 17l40 143q24 -9 54 -9q35 0 46 23.5t24 106.5q9 55 19 135.5t22 190.5t15 140q8 63 22 110t40 87t69 61
t102 21q53 0 82 -13z" />
    <glyph glyph-name="approxequal" unicode="&#x2248;" horiz-adv-x="685" 
d="M189 68h-123v31q0 153 142 153q52 0 136 -30.5t116 -30.5q37 0 37 41v13h124v-26q0 -91 -37.5 -125.5t-101.5 -34.5q-61 0 -144.5 30.5t-112.5 30.5q-36 0 -36 -42v-10zM189 313h-123v30q0 88 39.5 121.5t102.5 33.5q51 0 135.5 -30.5t116.5 -30.5q19 0 28 9.5t9 34.5v11
h124v-26q0 -92 -38 -127t-104 -35q-57 0 -140.5 31t-113.5 31q-36 0 -36 -41v-12z" />
    <glyph glyph-name="notequal" unicode="&#x2260;" horiz-adv-x="679" 
d="M538 569l-44 -95h119v-137h-181l-55 -118h236v-137h-299l-39 -86h-122l39 86h-126v137h188l54 118h-242v137h304l43 95h125z" />
    <glyph glyph-name="lessequal" unicode="&#x2264;" horiz-adv-x="638" 
d="M66 379v143l504 195v-146l-338 -121l338 -120v-146zM66 138h506v-138h-506v138z" />
    <glyph glyph-name="greaterequal" unicode="&#x2265;" horiz-adv-x="638" 
d="M570 523v-144l-504 -195v146l338 121l-338 120v146zM572 0h-506v138h506v-138z" />
    <glyph glyph-name="uni25A0" unicode="&#x25a0;" horiz-adv-x="441" 
d="M74 113v292h293v-292h-293z" />
    <glyph glyph-name="triagup" unicode="&#x25b2;" horiz-adv-x="694" 
d="M647 0h-628l307 606h4z" />
    <glyph glyph-name="uni25B3" unicode="&#x25b3;" horiz-adv-x="694" 
d="M647 0h-628l307 606h4zM209 116h234l-119 244z" />
    <glyph glyph-name="uni25B6" unicode="&#x25b6;" horiz-adv-x="691" 
d="M55 -16v627l606 -306v-4z" />
    <glyph glyph-name="uni25B7" unicode="&#x25b7;" horiz-adv-x="691" 
d="M55 -16v627l606 -306v-4zM175 416v-234l243 120z" />
    <glyph glyph-name="triagdn" unicode="&#x25bc;" horiz-adv-x="694" 
d="M50 596h629l-307 -606h-4z" />
    <glyph glyph-name="uni25BD" unicode="&#x25bd;" horiz-adv-x="694" 
d="M50 596h629l-307 -606h-4zM488 480h-233l118 -244z" />
    <glyph glyph-name="uni25C0" unicode="&#x25c0;" horiz-adv-x="691" 
d="M636 611v-627l-606 306v4z" />
    <glyph glyph-name="uni25C1" unicode="&#x25c1;" horiz-adv-x="691" 
d="M636 611v-627l-606 306v4zM516 177v234l-242 -120z" />
    <glyph glyph-name="uni25C6" unicode="&#x25c6;" horiz-adv-x="516" 
d="M36 269l222 222l222 -229l-218 -224z" />
    <glyph glyph-name="uni25C9" unicode="&#x25c9;" horiz-adv-x="571" 
d="M287 358q39 0 64.5 -28t25.5 -65q0 -42 -25 -71.5t-64 -29.5q-41 0 -66 28.5t-25 72.5q0 38 25 65.5t65 27.5zM528 265q-1 -106 -69.5 -179t-170.5 -73t-173 73t-71 179q0 103 71.5 176.5t173.5 73.5q100 0 169.5 -74t69.5 -176zM288 424q-65 0 -106.5 -46.5
t-41.5 -112.5q0 -70 42 -117t106 -47q65 0 106 47t41 117q0 65 -43 112t-104 47z" />
    <glyph glyph-name="lozenge" unicode="&#x25ca;" horiz-adv-x="633" 
d="M448 330l-100 174q-4 8 -16.5 30.5t-13.5 23.5h-4q-9 -22 -29 -55l-100 -173l98 -174q28 -50 32 -59h2q3 7 31 57zM601 332l-227 -375h-122l-219 371l225 372h120z" />
    <glyph glyph-name="uni2610" unicode="&#x2610;" horiz-adv-x="991" 
d="M156 765h739v-756l-70 -69h-729v760zM164 680v-669h642v669h-642z" />
    <glyph glyph-name="uni2611" unicode="&#x2611;" horiz-adv-x="991" 
d="M624 618h131q-165 -199 -333 -553h-36q-94 117 -152 259l100 61q29 -104 66 -173q45 108 107 221t117 185zM156 765h739v-756l-70 -69h-729v760zM164 680v-669h642v669h-642z" />
    <glyph glyph-name="uni2713" unicode="&#x2713;" horiz-adv-x="744" 
d="M576 748h176q-245 -307 -479 -820h-55q-110 151 -202 370l142 84q43 -163 84 -246q70 169 160 335.5t174 276.5z" />
    <glyph glyph-name="uni2752" unicode="&#x2752;" horiz-adv-x="541" 
d="M69 384l91 90h311v-328l-83 -91h-319v329zM146 352v-217h205v217h-205z" />
    <glyph glyph-name="fi" unicode="&#xfb01;" horiz-adv-x="646" 
d="M204 0h-185l84 398h-68l28 126h67l8 34q20 89 69.5 132.5t138.5 43.5q57 0 83 -8l-27 -124q-7 2 -26 2q-44 0 -53 -44l-8 -36h78l-27 -126h-78zM351 0l111 524h185l-111 -524h-185zM475 589l29 136h185l-28 -136h-186z" />
    <glyph glyph-name="fl" unicode="&#xfb02;" horiz-adv-x="647" 
d="M204 0h-185l84 398h-68l28 126h67l8 34q20 89 69.5 132.5t138.5 43.5q57 0 83 -8l-27 -124q-7 2 -26 2q-44 0 -53 -44l-8 -36h78l-27 -126h-78zM536 0h-185l153 724h185z" />
    <glyph glyph-name="uni00470303" horiz-adv-x="732" 
d="M701 393l-78 -393h-137q-4 29 2 63q-62 -76 -190 -76q-121 0 -185 77.5t-64 202.5q0 81 24.5 156.5t71 139t123.5 101.5t174 38q132 0 204 -63.5t74 -162.5h-191q-1 35 -24.5 61.5t-77.5 26.5q-45 0 -81 -29.5t-56.5 -75.5t-30.5 -94.5t-10 -93.5q0 -144 106 -144
q62 0 91 32.5t40 89.5l1 4h-126l31 140h309zM368 752h-103l6 35q11 65 41.5 88.5t75.5 23.5q33 0 82 -19t60 -19q21 0 25 29l2 9h102l-5 -32q-12 -70 -42.5 -94.5t-76.5 -24.5q-33 0 -82.5 18.5t-59.5 18.5q-19 0 -23 -20z" />
    <glyph glyph-name="uni00670303" horiz-adv-x="615" 
d="M586 379l-65 -303q-15 -71 -33 -116.5t-51 -85t-87 -58t-132 -18.5q-61 0 -105.5 12.5t-68 29.5t-37 43t-17 45t-3.5 43h182q2 -51 62 -51q40 0 62.5 26.5t37.5 94.5l5 24q-50 -51 -137 -51q-81 0 -125.5 53t-44.5 142q0 59 18 116.5t51 104.5t84.5 76.5t112.5 29.5
q52 0 85 -16t44 -40q8 23 17 44h178q-9 -34 -33 -145zM333 407q-35 0 -61.5 -33t-38.5 -75t-12 -82q0 -76 60 -76q77 0 107 143q6 33 7.5 60.5t-14 45t-48.5 17.5zM305 583h-104l8 39q12 66 40 87.5t70 21.5q34 0 78 -20.5t56 -20.5q19 0 26 30l2 11h102l-6 -31
q-12 -73 -42 -97t-76 -24q-32 0 -75 19t-53 19q-19 0 -23 -22z" />
    <glyph glyph-name="zero.slash" horiz-adv-x="615" 
d="M383 672q104 0 160 -61t56 -162q0 -61 -10 -122t-34.5 -123.5t-61 -109.5t-95 -77t-130.5 -30q-110 0 -165 62t-55 175q0 75 19.5 150t57.5 143.5t105 111.5t153 43zM369 545q-53 0 -90 -77t-50 -190l190 228q-12 39 -50 39zM281 115q31 0 57 28t42 73t25.5 91t14.5 93
l-193 -233q11 -52 54 -52z" />
    <glyph glyph-name="zero.slashtab" horiz-adv-x="601" 
d="M372 672q104 0 160 -61t56 -162q0 -61 -10 -122t-34.5 -123.5t-61 -109.5t-95 -77t-130.5 -30q-110 0 -165 62t-55 175q0 75 19.5 150t57.5 143.5t105 111.5t153 43zM358 545q-53 0 -90 -77t-50 -190l190 228q-12 39 -50 39zM270 115q31 0 57 28t42 73t25.5 91t14.5 93
l-193 -233q11 -52 54 -52z" />
    <glyph glyph-name="zero.tab" horiz-adv-x="601" 
d="M367 672q109 0 166 -63t57 -171q0 -55 -9.5 -112.5t-33.5 -119.5t-60 -109.5t-95 -78.5t-132 -31q-112 0 -168 63t-56 170q0 55 10.5 114t35.5 120t61.5 109t94.5 78.5t129 30.5zM356 543q-28 0 -51 -25t-37.5 -67.5t-24 -91.5t-14.5 -105q-17 -138 43 -138q30 0 54 29.5
t38.5 79t22.5 94t12 92.5q9 69 -0.5 100.5t-42.5 31.5z" />
    <glyph glyph-name="one.tab" horiz-adv-x="601" 
d="M485 0h-451l28 136h132l74 340q-20 -2 -58 -2t-56 2l28 122q119 9 186 64h122l-111 -526h135z" />
    <glyph glyph-name="two.tab" horiz-adv-x="601" 
d="M491 0h-488l5 26q20 94 75.5 166t175.5 146q80 49 106.5 77.5t26.5 72.5q0 56 -53 56q-35 0 -54 -24t-30 -77h-171q39 228 267 228q115 0 170.5 -54t55.5 -133q0 -78 -37 -125.5t-131 -102.5q-46 -27 -67.5 -40.5t-49 -35.5t-39.5 -41h288z" />
    <glyph glyph-name="three.tab" horiz-adv-x="601" 
d="M265 477h-172q18 84 79.5 138.5t176.5 54.5q107 0 164.5 -46t57.5 -119q0 -113 -116 -152v-3q35 -15 62 -50t27 -88q0 -102 -73.5 -162.5t-202.5 -60.5q-128 0 -184.5 56.5t-54.5 149.5h176q4 -83 69 -83q39 0 60 29.5t21 71.5q0 35 -19.5 54t-69.5 19h-45l26 127h42
q99 0 99 82q0 52 -52 52q-30 0 -45.5 -18t-25.5 -52z" />
    <glyph glyph-name="four.tab" horiz-adv-x="601" 
d="M443 0h-170l30 141h-288l31 140l315 378h222l-81 -380h76l-41 -138h-63zM331 279l20 91q14 65 39 153q-16 -27 -46.5 -68t-76.5 -100t-59 -76h123z" />
    <glyph glyph-name="five.tab" horiz-adv-x="601" 
d="M593 659l-52 -140h-256q-6 -23 -30 -99q43 26 111 26q83 0 131.5 -50.5t48.5 -133.5q0 -120 -75 -197t-215 -77q-117 0 -177 52.5t-62 145.5h178q4 -72 66 -72q43 0 67.5 38t24.5 89q0 76 -67 76q-54 0 -83 -54l-154 23q45 132 108 373h436z" />
    <glyph glyph-name="six.tab" horiz-adv-x="601" 
d="M592 489h-169q-2 58 -58 58q-81 0 -113 -151q49 47 135 47q81 0 129 -50t48 -137q0 -115 -76.5 -191.5t-204.5 -76.5q-123 0 -181 67t-58 188q0 47 8.5 98.5t31.5 111.5t57.5 107t93.5 78.5t133 31.5q64 0 110.5 -16.5t70 -44.5t33.5 -57.5t10 -62.5zM284 114
q43 0 66.5 41t23.5 93q0 72 -64 72q-43 0 -65.5 -37.5t-22.5 -89.5q0 -36 15.5 -57.5t46.5 -21.5z" />
    <glyph glyph-name="seven.tab" horiz-adv-x="601" 
d="M142 659h478l-27 -129q-102 -107 -190 -249.5t-141 -280.5h-200q47 131 146.5 278t193.5 240h-291z" />
    <glyph glyph-name="eight.tab" horiz-adv-x="601" 
d="M264 -13q-113 0 -178.5 51t-65.5 138q0 62 37 108t106 68q-68 41 -68 120q0 89 66 144.5t188 55.5q106 0 165.5 -46t59.5 -121q0 -56 -28 -97t-78 -61q83 -44 83 -138q0 -99 -76.5 -160.5t-210.5 -61.5zM342 554q-34 0 -54 -27.5t-20 -64.5q0 -26 15 -41.5t43 -15.5
q36 0 55 26t19 65q0 58 -58 58zM276 107q41 0 64.5 35t23.5 79q0 33 -18.5 49.5t-49.5 16.5q-40 0 -64.5 -33.5t-24.5 -75.5q0 -33 18 -52t51 -19z" />
    <glyph glyph-name="nine.tab" horiz-adv-x="601" 
d="M26 168h175q10 -54 61 -54q77 0 117 156q-48 -41 -131 -41q-81 0 -132.5 50t-51.5 137q0 102 73 178.5t202 76.5q122 0 181 -67t59 -181q0 -45 -7 -94.5t-28.5 -112.5t-55.5 -111.5t-95.5 -82t-140.5 -33.5q-52 0 -92 11.5t-64 29.5t-40 43t-22 47.5t-8 47.5zM341 547
q-41 0 -65 -37.5t-24 -86.5q0 -34 17 -51.5t46 -17.5q43 0 66 36t23 81q0 76 -63 76z" />
    <glyph glyph-name="zero.slashcap" horiz-adv-x="644" 
d="M392 700q115 0 175 -66t60 -181q0 -57 -9.5 -116t-34.5 -123t-62.5 -113t-99.5 -81t-139 -32q-117 0 -175.5 66.5t-58.5 187.5q0 56 11 115.5t37.5 121.5t64.5 110.5t98 79.5t133 31zM386 574q-58 0 -98 -82.5t-51 -207.5l204 246q-11 44 -55 44zM292 115q33 0 61 30
t45.5 78t28.5 98.5t15 101.5l-207 -250q10 -58 57 -58z" />
    <glyph glyph-name="zero.cap" horiz-adv-x="644" 
d="M392 700q115 0 175 -66t60 -181q0 -57 -9.5 -116t-34.5 -123t-62.5 -113t-99 -81t-138.5 -32q-119 0 -177 66t-58 188q0 72 18.5 147t56.5 147t108 118t161 46zM384 568q-56 0 -92 -88t-46 -213q-9 -76 2.5 -111t47.5 -35q32 0 57.5 31t41 81t24.5 98.5t13 99.5
q9 73 -1.5 105t-46.5 32z" />
    <glyph glyph-name="one.cap" horiz-adv-x="398" 
d="M267 0h-191l108 494q-31 -8 -116 -8l29 127q57 6 109 27.5t85 48.5h123z" />
    <glyph glyph-name="two.cap" horiz-adv-x="589" 
d="M496 0h-513l7 29q20 94 75.5 169.5t186.5 156.5q86 52 114 81.5t28 77.5q0 24 -14 40t-43 16q-66 0 -89 -95h-178q44 225 281 225q118 0 176 -55t58 -138q0 -79 -40.5 -130.5t-137.5 -108.5q-136 -80 -167 -130h307z" />
    <glyph glyph-name="three.cap" horiz-adv-x="594" 
d="M263 506h-177q18 83 82 138.5t186 55.5q113 0 171 -48.5t58 -126.5q0 -60 -32.5 -100t-87.5 -58l-1 -1q97 -43 97 -147t-77.5 -167.5t-209.5 -63.5q-131 0 -192.5 59.5t-60.5 153.5h179q2 -38 21.5 -62t57.5 -24q42 0 65 30.5t23 73.5q0 38 -22 58t-75 20h-47l28 135h43
q54 0 80 19.5t26 63.5q0 58 -57 58q-54 0 -78 -67z" />
    <glyph glyph-name="four.cap" horiz-adv-x="607" 
d="M460 0h-178l32 152h-301l31 141l330 396h232l-85 -397h80l-45 -140h-63zM342 292l22 94q22 96 40 159q-16 -27 -51 -72.5t-79.5 -100.5t-63.5 -80h132z" />
    <glyph glyph-name="five.cap" horiz-adv-x="615" 
d="M624 689l-43 -143h-276q-22 -76 -32 -106q44 27 116 27q89 0 140.5 -52.5t51.5 -141.5q0 -125 -79.5 -205t-225.5 -80q-119 0 -184.5 54t-64.5 153h184q0 -30 18 -53t55 -23q48 0 75.5 40t27.5 89q0 87 -76 87q-60 0 -93 -60l-161 24q45 124 114 390h453z" />
    <glyph glyph-name="six.cap" horiz-adv-x="628" 
d="M618 511h-172q-4 62 -65 62q-87 0 -121 -159q58 49 149 49q80 0 131 -52t51 -137q0 -126 -79.5 -206t-214.5 -80q-123 0 -186 68.5t-63 196.5q0 49 8.5 103t32.5 117t60 112t97.5 82t139.5 33q121 0 176.5 -56t55.5 -133zM301 117q46 0 71.5 42.5t25.5 98.5q0 80 -69 80
q-46 0 -71 -40.5t-25 -98.5q0 -37 17 -59.5t51 -22.5z" />
    <glyph glyph-name="seven.cap" horiz-adv-x="538" 
d="M98 689h499l-29 -134q-105 -114 -195 -262.5t-145 -292.5h-206q51 143 150.5 295.5t192.5 246.5h-300z" />
    <glyph glyph-name="eight.cap" horiz-adv-x="604" 
d="M267 -14q-118 0 -185 52.5t-67 142.5q0 66 39 114t109 72q-32 18 -50.5 52t-18.5 73q0 86 66.5 147t194.5 61q113 0 173.5 -48t60.5 -125q0 -61 -30.5 -103.5t-82.5 -61.5q39 -19 63 -56t24 -85q0 -104 -78.5 -169.5t-217.5 -65.5zM351 579q-38 0 -60 -29t-22 -68
q0 -28 16 -44.5t46 -16.5q38 0 59.5 28t21.5 67q0 63 -61 63zM277 110q46 0 71.5 36.5t25.5 82.5q0 35 -19.5 53t-53.5 18q-42 0 -69 -35.5t-27 -81.5q0 -35 18.5 -54t53.5 -19z" />
    <glyph glyph-name="nine.cap" horiz-adv-x="624" 
d="M31 179h183q7 -63 66 -63q82 0 119 166q-45 -42 -134 -42q-86 0 -141 54.5t-55 143.5q0 107 76 184.5t209 77.5q128 0 191 -71t63 -193q0 -35 -5 -75t-16.5 -93.5t-36.5 -100.5t-60 -88.5t-92 -66t-127 -24.5q-68 0 -117 18t-74 48t-36.5 60.5t-12.5 64.5zM353 573
q-43 0 -68 -36.5t-25 -87.5q0 -38 19 -59.5t53 -21.5q46 0 69 36t23 88q0 81 -71 81z" />
    <glyph glyph-name="period.sups" horiz-adv-x="205" 
d="M155 426h-138l32 149h137z" />
    <glyph glyph-name="comma.sups" horiz-adv-x="204" 
d="M79 345h-112q63 108 86 231h135q-15 -65 -44 -129.5t-65 -101.5z" />
    <glyph glyph-name="dollar.sups" horiz-adv-x="430" 
d="M234 369h-105l13 59q-56 11 -85 43.5t-29 80.5h140q-1 -22 13 -31.5t38 -9.5q45 0 45 29q0 11 -11 17t-47 15q-78 18 -111 46.5t-33 72.5q0 60 45.5 96t119.5 41l8 42h106l-10 -50q97 -26 99 -117h-136q0 36 -49 36q-39 0 -39 -26q0 -11 12 -17t46 -14
q83 -18 116.5 -46.5t33.5 -76.5q0 -60 -46.5 -94t-121.5 -41z" />
    <glyph glyph-name="cent.sups" horiz-adv-x="410" 
d="M276 588h130q-26 -103 -147 -121l-12 -56h-106l12 57q-54 11 -80 45.5t-26 85.5q0 75 49 127t127 63l9 42h106l-10 -47q54 -15 74.5 -50t18.5 -72h-132q0 38 -40 38q-29 0 -47.5 -30.5t-18.5 -65.5q0 -51 43 -51q32 0 50 35z" />
    <glyph glyph-name="hyphen.sups" horiz-adv-x="241" 
d="M64 677h182l-24 -113h-183z" />
    <glyph glyph-name="period.subs" horiz-adv-x="205" 
d="M28 -175h-138l32 149h137z" />
    <glyph glyph-name="comma.subs" horiz-adv-x="204" 
d="M-48 -256h-112q63 108 86 231h135q-15 -65 -44 -129.5t-65 -101.5z" />
    <glyph glyph-name="dollar.subs" horiz-adv-x="430" 
d="M107 -232h-105l13 59q-114 23 -114 124h140q-1 -22 13 -31.5t38 -9.5q45 0 45 29q0 11 -11 17t-47 15q-78 18 -111 46.5t-33 72.5q0 60 45.5 96t119.5 41l8 42h106l-10 -50q97 -26 99 -117h-136q0 36 -49 36q-39 0 -39 -26q0 -11 12 -17t46 -14q83 -18 116.5 -46.5
t33.5 -76.5q0 -60 -46.5 -94t-121.5 -41z" />
    <glyph glyph-name="cent.subs" horiz-adv-x="410" 
d="M149 -13h130q-26 -103 -147 -121l-12 -56h-106l12 57q-54 11 -80 45.5t-26 85.5q0 75 49 127t127 63l9 42h106l-10 -47q54 -15 74.5 -50t18.5 -72h-132q0 38 -40 38q-29 0 -47.5 -30.5t-18.5 -65.5q0 -51 43 -51q33 0 50 35z" />
    <glyph glyph-name="hyphen.subs" horiz-adv-x="241" 
d="M-63 76h182l-24 -113h-183z" />
    <glyph glyph-name="zero.numr" horiz-adv-x="423" 
d="M285 665q82 0 123 -44t41 -113q0 -108 -58 -179.5t-167 -71.5q-81 0 -121.5 44.5t-40.5 116.5q0 99 59.5 173t163.5 74zM276 565q-57 0 -69 -134q-7 -75 31 -75q53 0 67 139q7 70 -29 70z" />
    <glyph glyph-name="one.numr" horiz-adv-x="277" 
d="M225 262h-141l56 264q-20 0 -58 5l20 93q74 2 114 38h94z" />
    <glyph glyph-name="two.numr" horiz-adv-x="388" 
d="M360 262h-325l3 16q12 59 43.5 103.5t113.5 87.5l22.5 12.5t19.5 11t15 8.5t13 8.5t8 8.5t5.5 9.5t1.5 10.5q0 29 -31 29q-35 0 -48 -50h-123q29 148 187 148q78 0 117 -36.5t39 -83.5q0 -46 -25 -75.5t-87 -58.5q-67 -32 -83 -52h172z" />
    <glyph glyph-name="three.numr" horiz-adv-x="395" 
d="M52 390h130q0 -43 42 -43q44 0 44 40q0 34 -47 34h-33l20 91h29q46 0 46 37q0 27 -30 27q-33 0 -45 -35h-121q27 124 180 124q74 0 114 -29.5t40 -75.5q0 -65 -70 -88q18 -6 38 -26t20 -53q0 -63 -51.5 -99t-136.5 -36q-50 0 -86.5 13.5t-53.5 34.5t-24 42.5t-5 41.5z
" />
    <glyph glyph-name="four.numr" horiz-adv-x="405" 
d="M338 263h-127l17 84h-187l21 98l185 214h175l-46 -217h54l-29 -95h-45zM181 442h67l9 38q14 60 21 84q-37 -49 -97 -122z" />
    <glyph glyph-name="five.numr" horiz-adv-x="405" 
d="M444 659l-35 -98h-176q-10 -36 -15 -49q32 15 74 15q58 0 90.5 -31.5t32.5 -80.5q0 -75 -56 -116.5t-141 -41.5q-86 0 -125.5 38t-38.5 91h129q2 -36 37 -36q22 0 35.5 14.5t13.5 38.5q0 39 -37 39q-30 0 -45 -23l-117 13q35 92 71 227h303z" />
    <glyph glyph-name="six.numr" horiz-adv-x="411" 
d="M438 545h-131q-2 27 -34 27q-44 0 -60 -67q36 23 87 23q57 0 91.5 -30.5t34.5 -82.5q0 -68 -52.5 -113t-143.5 -45q-78 0 -123.5 44.5t-45.5 122.5q0 42 12 82.5t36.5 77t68 59t99.5 22.5q80 0 120.5 -34.5t40.5 -85.5zM235 351q22 0 36 16t14 41q0 39 -38 39
q-22 0 -35.5 -16.5t-13.5 -40.5q0 -39 37 -39z" />
    <glyph glyph-name="seven.numr" horiz-adv-x="370" 
d="M111 659h319l-19 -93q-125 -123 -194 -304h-156q31 85 89.5 167t113.5 129h-174z" />
    <glyph glyph-name="eight.numr" horiz-adv-x="403" 
d="M222 257q-81 0 -126 32t-45 79q0 70 84 101q-38 26 -38 69q0 61 50 94t128 33t118.5 -30.5t40.5 -73.5q0 -65 -69 -92q52 -26 52 -79q0 -66 -58 -99.5t-137 -33.5zM267 580q-19 0 -32 -11.5t-13 -31.5q0 -32 36 -32q19 0 32 11.5t13 31.5q0 14 -9 23t-27 9zM232 341
q23 0 37.5 12.5t14.5 34.5q0 16 -11 26.5t-32 10.5q-23 0 -37 -13t-14 -35q0 -16 12 -26t30 -10z" />
    <glyph glyph-name="nine.numr" horiz-adv-x="410" 
d="M53 381h137q4 -32 37 -32q22 0 36.5 20t20.5 49q-26 -20 -82 -20q-54 0 -91.5 29.5t-37.5 81.5q0 69 53.5 112.5t133.5 43.5q85 0 131 -43.5t46 -120.5q0 -44 -11.5 -85t-35.5 -78t-68 -59t-103 -22q-79 0 -121.5 34.5t-44.5 89.5zM261 573q-21 0 -35.5 -15.5
t-14.5 -38.5q0 -39 41 -39q22 0 35 15t13 38q0 40 -39 40z" />
    <glyph glyph-name="parenleft.numr" horiz-adv-x="254" 
d="M215 701h111q-69 -69 -102.5 -143t-33.5 -176q0 -106 30 -181h-106q-37 74 -37 187q0 91 35 172.5t103 140.5z" />
    <glyph glyph-name="parenright.numr" horiz-adv-x="254" 
d="M123 201h-111q69 75 102.5 148.5t33.5 174.5t-30 177h106q37 -83 37 -188q0 -89 -36 -173t-102 -139z" />
    <glyph glyph-name="period.numr" horiz-adv-x="205" 
d="M176 259h-138l32 149h137z" />
    <glyph glyph-name="comma.numr" horiz-adv-x="204" 
d="M100 178h-112q63 108 86 231h135q-15 -65 -44 -129.5t-65 -101.5z" />
    <glyph glyph-name="dollar.numr" horiz-adv-x="430" 
d="M255 202h-105l13 59q-114 23 -114 124h140q-1 -22 13 -31.5t38 -9.5q45 0 45 29q0 11 -11 17t-47 15q-78 18 -111 46.5t-33 72.5q0 60 45.5 96t119.5 41l8 42h106l-10 -50q97 -26 99 -117h-136q0 36 -49 36q-39 0 -39 -26q0 -11 12 -17t46 -14q83 -18 116.5 -46.5
t33.5 -76.5q0 -60 -46.5 -94t-121.5 -41z" />
    <glyph glyph-name="cent.numr" horiz-adv-x="410" 
d="M297 421h130q-26 -103 -147 -121l-12 -56h-106l12 57q-54 11 -80 45.5t-26 85.5q0 75 49 127t127 63l9 42h106l-10 -47q54 -15 74.5 -50t18.5 -72h-132q0 38 -40 38q-29 0 -47.5 -30.5t-18.5 -65.5q0 -51 43 -51q33 0 50 35z" />
    <glyph glyph-name="hyphen.numr" horiz-adv-x="241" 
d="M85 510h182l-24 -113h-183z" />
    <glyph glyph-name="zero.dnom" horiz-adv-x="423" 
d="M225 402q82 0 123 -44t41 -113q0 -108 -58 -179.5t-167 -71.5q-81 0 -121.5 44.5t-40.5 116.5q0 99 59.5 173t163.5 74zM216 302q-57 0 -69 -134q-7 -75 31 -75q53 0 67 139q7 70 -29 70z" />
    <glyph glyph-name="one.dnom" horiz-adv-x="277" 
d="M165 -1h-141l56 264q-20 0 -58 5l20 93q74 2 114 38h94z" />
    <glyph glyph-name="two.dnom" horiz-adv-x="388" 
d="M300 -1h-325l3 16q12 59 43.5 103.5t113.5 87.5l22.5 12.5t19.5 11t15 8.5t13 8.5t8 8.5t5.5 9.5t1.5 10.5q0 29 -31 29q-35 0 -48 -50h-123q29 148 187 148q78 0 117 -36.5t39 -83.5q0 -46 -25 -75.5t-87 -58.5q-67 -32 -83 -52h172z" />
    <glyph glyph-name="three.dnom" horiz-adv-x="395" 
d="M-8 127h130q0 -43 42 -43q44 0 44 40q0 34 -47 34h-33l20 91h29q46 0 46 37q0 27 -30 27q-33 0 -45 -35h-121q27 124 180 124q74 0 114 -29.5t40 -75.5q0 -65 -70 -88q18 -6 38 -26t20 -53q0 -63 -51.5 -99t-136.5 -36q-50 0 -86.5 13.5t-53.5 34.5t-24 42.5t-5 41.5z
" />
    <glyph glyph-name="four.dnom" horiz-adv-x="405" 
d="M278 0h-127l17 84h-187l21 98l185 214h175l-46 -217h54l-29 -95h-45zM121 179h67l9 38q14 60 21 84q-37 -49 -97 -122z" />
    <glyph glyph-name="five.dnom" horiz-adv-x="405" 
d="M384 396l-35 -98h-176q-10 -36 -15 -49q32 15 74 15q58 0 90.5 -31.5t32.5 -80.5q0 -75 -56 -116.5t-141 -41.5q-86 0 -125.5 38t-38.5 91h129q2 -36 37 -36q22 0 35.5 14.5t13.5 38.5q0 39 -37 39q-30 0 -45 -23l-117 13q35 92 71 227h303z" />
    <glyph glyph-name="six.dnom" horiz-adv-x="411" 
d="M378 282h-131q-2 27 -34 27q-44 0 -60 -67q36 23 87 23q57 0 91.5 -30.5t34.5 -82.5q0 -68 -52.5 -113t-143.5 -45q-78 0 -123.5 44.5t-45.5 122.5q0 42 12 82.5t36.5 77t68 59t99.5 22.5q80 0 120.5 -34.5t40.5 -85.5zM175 88q22 0 36 16t14 41q0 39 -38 39
q-22 0 -35.5 -16.5t-13.5 -40.5q0 -39 37 -39z" />
    <glyph glyph-name="seven.dnom" horiz-adv-x="370" 
d="M51 396h319l-19 -93q-125 -123 -194 -304h-156q31 85 89.5 167t113.5 129h-174z" />
    <glyph glyph-name="eight.dnom" horiz-adv-x="403" 
d="M162 -6q-81 0 -126 32t-45 79q0 70 84 101q-38 26 -38 69q0 61 50 94t128 33t118.5 -30.5t40.5 -73.5q0 -65 -69 -92q52 -26 52 -79q0 -66 -58 -99.5t-137 -33.5zM207 317q-19 0 -32 -11.5t-13 -31.5q0 -32 36 -32q19 0 32 11.5t13 31.5q0 14 -9 23t-27 9zM172 78
q23 0 37.5 12.5t14.5 34.5q0 16 -11 26.5t-32 10.5q-23 0 -37 -13t-14 -35q0 -16 12 -26t30 -10z" />
    <glyph glyph-name="nine.dnom" horiz-adv-x="410" 
d="M-7 118h137q4 -32 37 -32q22 0 36.5 20t20.5 49q-26 -20 -82 -20q-54 0 -91.5 29.5t-37.5 81.5q0 69 53.5 112.5t133.5 43.5q85 0 131 -43.5t46 -120.5q0 -44 -11.5 -85t-35.5 -78t-68 -59t-103 -22q-79 0 -121.5 34.5t-44.5 89.5zM201 310q-21 0 -35.5 -15.5
t-14.5 -38.5q0 -39 41 -39q22 0 35 15.5t13 37.5q0 40 -39 40z" />
    <glyph glyph-name="parenleft.dnom" horiz-adv-x="254" 
d="M155 438h111q-69 -69 -102.5 -143t-33.5 -176q0 -106 30 -181h-106q-37 74 -37 187q0 91 35 172.5t103 140.5z" />
    <glyph glyph-name="parenright.dnom" horiz-adv-x="254" 
d="M63 -62h-111q69 75 102.5 148.5t33.5 174.5t-30 177h106q37 -83 37 -188q0 -89 -36 -173t-102 -139z" />
    <glyph glyph-name="period.dnom" horiz-adv-x="205" 
d="M116 -4h-138l32 149h137z" />
    <glyph glyph-name="comma.dnom" horiz-adv-x="204" 
d="M40 -85h-112q63 108 86 231h135q-15 -65 -44 -129.5t-65 -101.5z" />
    <glyph glyph-name="dollar.dnom" horiz-adv-x="430" 
d="M195 -61h-105l13 59q-114 23 -114 124h140q-1 -22 13 -31.5t38 -9.5q45 0 45 29q0 11 -11 17t-47 15q-78 18 -111 46.5t-33 72.5q0 60 45.5 96t119.5 41l8 42h106l-10 -50q97 -26 99 -117h-136q0 36 -49 36q-39 0 -39 -26q0 -11 12 -17t46 -14q83 -18 116.5 -46.5
t33.5 -76.5q0 -60 -46.5 -94t-121.5 -41z" />
    <glyph glyph-name="cent.dnom" horiz-adv-x="410" 
d="M237 158h130q-26 -103 -147 -121l-12 -56h-106l12 57q-54 11 -80 45.5t-26 85.5q0 75 49 127t127 63l9 42h106l-10 -47q54 -15 74.5 -50t18.5 -72h-132q0 38 -40 38q-29 0 -47.5 -30.5t-18.5 -65.5q0 -51 43 -51q33 0 50 35z" />
    <glyph glyph-name="hyphen.dnom" horiz-adv-x="241" 
d="M25 247h182l-24 -113h-183z" />
    <glyph glyph-name="a.sups" horiz-adv-x="395" 
d="M405 477l-26 -126l-17 -90h-126q2 16 6 36q-35 -42 -102 -42q-44 0 -70 25.5t-26 66.5q0 115 165 127q36 3 69 3l3 14q5 34 -30 34q-32 0 -41 -31h-123q9 46 51 77.5t121 31.5q83 0 121 -31t25 -95zM261 397l2 9q-22 0 -41 -3q-47 -6 -47 -38q0 -24 29 -24q24 0 39 17
t18 39z" />
    <glyph glyph-name="b.sups" horiz-adv-x="418" 
d="M164 262h-127q4 22 12.5 60.5t11.5 52.5l75 352h131l-35 -162q40 38 97 38q47 0 78 -32.5t31 -91.5q0 -89 -48 -156t-134 -67q-61 0 -82 39q-5 -19 -10 -33zM233 354q32 0 49 31.5t17 70.5q0 48 -37 48q-50 0 -63 -75q-14 -75 34 -75z" />
    <glyph glyph-name="c.sups" horiz-adv-x="388" 
d="M275 387h124q-41 -131 -190 -131q-75 0 -114 39t-39 104q0 82 53.5 143t147.5 61q87 0 122.5 -41.5t30.5 -93.5h-125q4 44 -31 44q-32 0 -47.5 -40.5t-15.5 -76.5q0 -51 35 -51q31 0 49 43z" />
    <glyph glyph-name="d.sups" horiz-adv-x="420" 
d="M482 727l-78 -366q-16 -84 -18 -99h-124q-2 12 3 35q-38 -41 -97 -41q-53 0 -83 36t-30 101q0 83 49 146.5t129 63.5q64 0 85 -31l34 155h130zM261 511q-32 0 -50.5 -37t-18.5 -77q0 -48 36 -48q46 0 64 82q17 80 -31 80z" />
    <glyph glyph-name="e.sups" horiz-adv-x="389" 
d="M400 403h-215q-1 -4 -1 -16q0 -45 37 -45q13 0 22 4t11.5 7t10.5 13h123q-42 -110 -183 -110q-75 0 -112 39.5t-37 98.5q0 87 55 148t148 61q76 0 115 -35.5t39 -95.5q0 -34 -13 -69zM201 470h89q11 52 -35 52q-39 0 -54 -52z" />
    <glyph glyph-name="f.sups" horiz-adv-x="226" 
d="M174 262h-129l51 238h-41l20 96h41l4 14q13 62 46 92t93 30q41 0 62 -7l-19 -84q-7 1 -21 1q-25 0 -33 -34l-3 -12h48l-20 -96h-48z" />
    <glyph glyph-name="g.sups" horiz-adv-x="421" 
d="M432 492l-40 -186q-20 -95 -65.5 -138t-145.5 -43q-85 0 -119 38.5t-32 87.5h128q0 -39 39 -39q24 0 38 15.5t22 49.5l5 23q-32 -32 -90 -32q-51 0 -82.5 34t-31.5 95q0 83 49.5 144t124.5 61q69 0 87 -36q2 7 6 18t5 13h126q-13 -51 -24 -105zM260 512
q-31 0 -48.5 -35.5t-17.5 -67.5q0 -51 36 -51q46 0 64 77q16 77 -34 77z" />
    <glyph glyph-name="h.sups" horiz-adv-x="413" 
d="M37 262l99 465h131l-35 -160q44 36 99 36q54 0 79.5 -34.5t11.5 -99.5l-44 -207h-130l39 187q12 52 -23 52q-45 0 -60 -66l-36 -173h-131z" />
    <glyph glyph-name="i.sups" horiz-adv-x="202" 
d="M168 262h-131l71 334h131zM248 638h-131l19 89h131z" />
    <glyph glyph-name="j.sups" horiz-adv-x="203" 
d="M-27 129l21 100q24 -1 33.5 7.5t14.5 32.5l69 327h130l-64 -303q-10 -48 -19 -73.5t-26 -50t-44 -34.5t-69 -10q-20 0 -46 4zM250 638h-131l19 89h131z" />
    <glyph glyph-name="k.sups" horiz-adv-x="392" 
d="M264 727l-55 -259q16 19 55 63.5t56 64.5h146q-19 -18 -65.5 -62.5t-69.5 -67.5q2 -5 35 -97t38 -107h-137q-2 7 -20 67.5t-18 63.5q-42 -39 -44 -41l-20 -90h-128l99 465h128z" />
    </font>
</defs>
</svg>
