<?xml version="1.0" standalone="no"?>
<!DOCTYPE svg PUBLIC "-//W3C//DTD SVG 1.1//EN" "http://www.w3.org/Graphics/SVG/1.1/DTD/svg11.dtd" >
<svg xmlns="http://www.w3.org/2000/svg" xmlns:xlink="http://www.w3.org/1999/xlink" version="1.1">
<metadata>
Created by FontForge 20170731 at Tue Apr  5 15:57:58 2016
 By Aleksey,,,
(c) 2014 Adobe Systems Incorporated. All Rights Reserved.
</metadata>
<defs>
<font id="AcuminPro-Italic" horiz-adv-x="400" >
  <font-face 
    font-family="Acumin Pro"
    font-weight="400"
    font-style="italic"
    font-stretch="normal"
    units-per-em="1000"
    panose-1="2 11 5 4 2 2 2 9 2 4"
    ascent="735"
    descent="-265"
    x-height="507"
    cap-height="696"
    bbox="-290 -262 1209 1047"
    underline-thickness="50"
    underline-position="-200"
    slope="-12"
    unicode-range="U+0020-FB02"
  />
<missing-glyph horiz-adv-x="500" 
d="M0 0v700h500v-700h-500zM250 395l170 255h-340zM280 350l170 -255v510zM80 50h340l-170 255zM50 605v-510l170 255z" />
    <glyph glyph-name="f_f" unicode="ff" horiz-adv-x="546" 
d="M391 439h-185l-92 -439h-83l92 439h-81l15 68h81l16 74q34 163 165 163q37 0 56 -7l-16 -70q-13 4 -39 4q-65 0 -84 -91l-15 -73h186l16 74q34 163 164 163q37 0 56 -7l-15 -70q-13 4 -40 4q-35 0 -54.5 -22.5t-28.5 -68.5l-16 -73h100l-14 -68h-100l-93 -439h-83z" />
    <glyph glyph-name=".notdef" horiz-adv-x="500" 
d="M0 0v700h500v-700h-500zM250 395l170 255h-340zM280 350l170 -255v510zM80 50h340l-170 255zM50 605v-510l170 255z" />
    <glyph glyph-name=".null" horiz-adv-x="0" 
 />
    <glyph glyph-name="nonmarkingreturn" horiz-adv-x="333" 
 />
    <glyph glyph-name="space" unicode=" " horiz-adv-x="253" 
 />
    <glyph glyph-name="exclam" unicode="!" horiz-adv-x="293" 
d="M202 234h-69l63 340l26 122h88l-26 -123zM158 0h-83l30 138h83z" />
    <glyph glyph-name="quotedbl" unicode="&#x22;" horiz-adv-x="333" 
d="M162 465h-62l31 184l18 85h79l-18 -85zM319 465h-63l31 184l18 85h80l-18 -85z" />
    <glyph glyph-name="numbersign" unicode="#" horiz-adv-x="542" 
d="M229 0l70 196h-126l-70 -196h-65l70 196h-79l10 73h95l56 155h-93l10 72h109l64 179h63l-64 -179h128l64 179h62l-63 -179h77l-10 -72h-93l-55 -155h94l-11 -73h-109l-69 -196h-65zM325 269l56 155h-127l-55 -155h126z" />
    <glyph glyph-name="dollar" unicode="$" horiz-adv-x="497" 
d="M178 489q0 -30 17 -51.5t59 -42.5l43 203h-4q-51 0 -83 -29.5t-32 -79.5zM366 179q0 37 -18.5 62t-63.5 49l-49 -231q60 3 95.5 34.5t35.5 85.5zM201 -103h-52l21 99q-80 10 -121 59.5t-36 130.5h82q-3 -103 89 -123l52 248q-77 34 -110.5 72.5t-33.5 94.5q0 83 58.5 134
t154.5 51h6l15 72h53l-16 -77q72 -15 103.5 -62t27.5 -102h-79q-5 78 -67 97l-46 -218q81 -36 115.5 -79t34.5 -101q0 -93 -63 -145.5t-168 -54.5z" />
    <glyph glyph-name="percent" unicode="%" horiz-adv-x="879" 
d="M274 668q63 0 98 -36t35 -102q0 -98 -53.5 -168t-145.5 -70q-64 0 -98 38t-34 103q0 56 21.5 108.5t68 89.5t108.5 37zM265 610q-39 0 -67 -31t-39 -69t-11 -73q0 -86 71 -86q57 0 87.5 56.5t30.5 115.5q0 87 -72 87zM222 0h-75l548 658h75zM703 365q63 0 98 -36t35 -102
q0 -97 -53.5 -167.5t-145.5 -70.5q-64 0 -98 38t-34 103q0 57 21.5 109t68 89t108.5 37zM694 307q-56 0 -86.5 -57t-30.5 -116q0 -86 71 -86q57 0 87.5 56.5t30.5 116.5q0 86 -72 86z" />
    <glyph glyph-name="ampersand" unicode="&#x26;" horiz-adv-x="741" 
d="M251 68q45 0 82.5 21t85.5 73l-150 171q-71 -38 -102 -73t-31 -86q0 -44 32 -75t83 -31zM642 424h95l-217 -256l147 -168h-106l-94 107q-54 -59 -104.5 -88t-122.5 -29q-85 0 -137.5 49.5t-52.5 127.5q0 71 43.5 119t136.5 99q-58 73 -58 143q0 78 48.5 128t132.5 50
q73 0 114 -43t41 -105q0 -66 -39 -106t-124 -84l127 -146zM349 641q-46 0 -71.5 -31t-25.5 -73q0 -55 56 -120q61 35 91 66t30 74q0 33 -19.5 58.5t-60.5 25.5z" />
    <glyph glyph-name="quotesingle" unicode="'" horiz-adv-x="172" 
d="M163 465h-69l32 184l18 85h84l-18 -85z" />
    <glyph glyph-name="parenleft" unicode="(" horiz-adv-x="325" 
d="M297 734h90q-137 -129 -201 -259.5t-64 -300.5q0 -84 19.5 -182t52.5 -164h-76q-74 161 -74 346q0 336 253 560z" />
    <glyph glyph-name="parenright" unicode=")" horiz-adv-x="325" 
d="M37 -172h-90q137 129 201 259.5t64 300.5q0 84 -19.5 182t-52.5 164h76q74 -161 74 -346q0 -335 -253 -560z" />
    <glyph glyph-name="asterisk" unicode="*" horiz-adv-x="387" 
d="M257 696h71l-44 -146l129 89l31 -64l-154 -63l125 -68l-44 -61l-103 91l-19 -150h-72l45 150l-129 -92l-32 64l151 65l-121 64l46 64l100 -91z" />
    <glyph glyph-name="plus" unicode="+" horiz-adv-x="699" 
d="M312 556h75v-237h236v-75h-236v-244h-75v244h-237v75h237v237z" />
    <glyph glyph-name="comma" unicode="," horiz-adv-x="199" 
d="M17 -108h-74q74 111 112 255h85q-20 -79 -54.5 -147.5t-68.5 -107.5z" />
    <glyph glyph-name="hyphen" unicode="-" horiz-adv-x="364" 
d="M63 294h253l-16 -76h-253z" />
    <glyph glyph-name="period" unicode="." horiz-adv-x="196" 
d="M87 -1h-89l32 148h88z" />
    <glyph glyph-name="slash" unicode="/" horiz-adv-x="411" 
d="M61 -31h-77l401 737h78z" />
    <glyph glyph-name="zero" unicode="0" horiz-adv-x="553" 
d="M349 669q90 0 133 -59t43 -152q0 -46 -6.5 -95.5t-20 -103.5t-37 -101.5t-54.5 -85.5t-76 -60.5t-99 -22.5q-88 0 -133 58t-45 161q0 69 16 144.5t49 148.5t93 120.5t137 47.5zM338 597q-50 0 -89.5 -41t-62 -103t-34 -125.5t-11.5 -118.5q0 -148 102 -148q51 0 91 43
t62 108t33 129t11 117q0 139 -102 139z" />
    <glyph glyph-name="one" unicode="1" horiz-adv-x="335" 
d="M175 0h-83l118 550q-24 -13 -70 -25t-73 -14l16 69q50 8 96.5 30.5t73.5 47.5h62z" />
    <glyph glyph-name="two" unicode="2" horiz-adv-x="503" 
d="M420 0h-432l3 16q17 77 75 144.5t168 141.5l34.5 23t32.5 22t25.5 18t23.5 18.5t17 18t15 20.5t8.5 20.5t7 25.5t1.5 28q0 46 -25.5 74t-77.5 28q-56 0 -89.5 -31.5t-52.5 -98.5h-81q44 201 229 201q91 0 137 -49t46 -121q0 -29 -4.5 -53t-17 -45.5t-23.5 -35.5
t-37 -34.5t-42.5 -32.5t-54.5 -37q-10 -7 -15 -10q-81 -54 -124.5 -92.5t-64.5 -86.5h344z" />
    <glyph glyph-name="three" unicode="3" horiz-adv-x="511" 
d="M178 501h-83q17 70 68.5 118.5t143.5 48.5q89 0 134 -44t45 -110q0 -61 -31 -101t-82 -57v-2q93 -40 93 -146q0 -96 -64.5 -157t-175.5 -61q-103 0 -153 52.5t-52 133.5h84q3 -50 33.5 -82.5t95.5 -32.5q70 0 108 41t38 102q0 115 -137 115h-40l14 72h36q148 0 148 116
q0 43 -26 67t-76 24q-84 0 -121 -97z" />
    <glyph glyph-name="four" unicode="4" horiz-adv-x="521" 
d="M362 0h-81l36 172h-298l18 77l368 409h97l-89 -416h83l-24 -70h-74zM332 242l40 184q21 96 38 152q-16 -24 -66 -82.5t-126.5 -144t-97.5 -109.5h212z" />
    <glyph glyph-name="five" unicode="5" horiz-adv-x="518" 
d="M524 658l-27 -73h-271q-35 -132 -57 -194q56 48 135 48q78 0 125.5 -50.5t47.5 -134.5q0 -111 -66.5 -187.5t-185.5 -76.5q-89 0 -142 48t-57 134h83q5 -51 35.5 -81t86.5 -30q76 0 117.5 54t41.5 128q0 57 -28 90t-86 33q-50 0 -80.5 -19.5t-58.5 -57.5l-69 23
q39 112 102 346h354z" />
    <glyph glyph-name="six" unicode="6" horiz-adv-x="533" 
d="M521 513h-82q-10 85 -103 85q-137 0 -188 -236q61 75 163 75q83 0 129.5 -52.5t46.5 -139.5q0 -106 -64.5 -180.5t-172.5 -74.5q-100 0 -150.5 63t-50.5 171q0 52 9 108t30.5 117.5t54 109.5t84 79t115.5 31q49 0 85 -14.5t55.5 -38t28.5 -49.5t10 -54zM253 61
q69 0 108 52t39 128q0 53 -26 89t-88 36q-69 0 -111.5 -45.5t-42.5 -115.5q0 -59 30 -101.5t91 -42.5z" />
    <glyph glyph-name="seven" unicode="7" horiz-adv-x="466" 
d="M99 658h425l-15 -71q-106 -117 -208.5 -277t-167.5 -310h-91q60 149 168 310t210 275h-337z" />
    <glyph glyph-name="eight" unicode="8" horiz-adv-x="515" 
d="M225 -11q-95 0 -148.5 51.5t-53.5 127.5q0 69 42.5 119.5t111.5 69.5q-32 16 -54 48.5t-22 75.5q0 81 57.5 134.5t154.5 53.5q83 0 132 -43t49 -113q0 -63 -33 -105.5t-79 -57.5q39 -18 63 -55t24 -89q0 -93 -66.5 -155t-177.5 -62zM305 599q-57 0 -89.5 -32.5
t-32.5 -86.5q0 -40 27 -66.5t78 -26.5q60 0 91.5 32t31.5 85q0 42 -25.5 68.5t-80.5 26.5zM235 59q68 0 108 41t40 106q0 51 -30.5 80.5t-91.5 29.5q-68 0 -110 -41t-42 -100q0 -51 32.5 -83.5t93.5 -32.5z" />
    <glyph glyph-name="nine" unicode="9" horiz-adv-x="536" 
d="M39 153h82q7 -46 31.5 -69.5t74.5 -23.5q141 0 191 257q-49 -74 -157 -74q-78 0 -128.5 49t-50.5 138q0 93 63.5 165.5t171.5 72.5q96 0 144.5 -61t48.5 -166q0 -48 -6.5 -100.5t-26 -117.5t-50 -115t-85 -84t-124.5 -34q-166 0 -179 163zM310 597q-67 0 -105 -48.5
t-38 -114.5q0 -57 31 -89.5t82 -32.5q65 0 106.5 41.5t41.5 107.5q0 60 -28 98t-90 38z" />
    <glyph glyph-name="colon" unicode=":" horiz-adv-x="242" 
d="M185 361h-86l31 144h86zM109 0h-86l31 145h85z" />
    <glyph glyph-name="semicolon" unicode=";" horiz-adv-x="278" 
d="M212 358h-87l32 147h87zM45 -108h-73q70 110 109 255h85q-17 -69 -53 -144.5t-68 -110.5z" />
    <glyph glyph-name="less" unicode="&#x3c;" horiz-adv-x="615" 
d="M83 244v73l449 243v-84l-366 -195l366 -201v-84z" />
    <glyph glyph-name="equal" unicode="=" horiz-adv-x="713" 
d="M83 196h547v-75h-547v75zM83 445h547v-75h-547v75z" />
    <glyph glyph-name="greater" unicode="&#x3e;" horiz-adv-x="615" 
d="M532 312v-73l-449 -243v85l366 194l-366 202v83z" />
    <glyph glyph-name="question" unicode="?" horiz-adv-x="485" 
d="M278 210h-86l3 17q11 48 35.5 86.5t87.5 86.5q31 24 45.5 36t31.5 31t23 38t6 43q0 37 -23.5 61t-73.5 24q-94 0 -129 -106h-84q7 31 20 58t37 56.5t65.5 47t95.5 17.5q89 0 132.5 -44.5t43.5 -108.5q0 -67 -33 -111t-103 -95q-44 -33 -64 -62.5t-28 -66.5zM233 0h-86
l30 138h86z" />
    <glyph glyph-name="at" unicode="@" horiz-adv-x="951" 
d="M689 -53l17 -60q-89 -62 -255 -62q-171 0 -276 101.5t-105 277.5q0 125 56 230.5t160 169.5t234 64q157 0 262.5 -88t105.5 -245q0 -134 -70 -220t-172 -86q-91 0 -94 77q-55 -76 -147 -76q-63 0 -99.5 41t-36.5 119q0 112 64 198t155 86q53 0 82 -23.5t37 -54.5l17 68
h76l-67 -268q-13 -57 -6.5 -79t35.5 -22q62 0 107.5 68t45.5 168q0 127 -82 199.5t-219 72.5q-162 0 -263.5 -114.5t-102.5 -284.5q0 -141 82.5 -225.5t225.5 -84.5q146 0 233 53zM495 409q-62 0 -102.5 -66t-40.5 -146q0 -101 76 -101q48 0 85 38.5t55 114.5
q41 160 -73 160z" />
    <glyph glyph-name="A" unicode="A" horiz-adv-x="615" 
d="M443 213h-268l-115 -213h-93l386 696h105l105 -696h-88zM214 287h222q-40 271 -44 332h-1q-48 -96 -177 -332z" />
    <glyph glyph-name="B" unicode="B" horiz-adv-x="626" 
d="M32 0l147 696h227q100 0 148.5 -46.5t48.5 -117.5q0 -65 -36.5 -108.5t-99.5 -60.5q44 -15 74 -53.5t30 -92.5q0 -107 -74.5 -162t-195.5 -55h-269zM188 333l-56 -261h171q77 0 126.5 36t49.5 106q1 55 -36.5 87t-113.5 32h-141zM204 405h146q163 0 163 121q0 98 -124 98
h-139z" />
    <glyph glyph-name="C" unicode="C" horiz-adv-x="653" 
d="M523 206h92q-82 -215 -304 -215q-126 0 -189.5 77.5t-63.5 202.5q0 63 13.5 124t42 117.5t69.5 99.5t100.5 68.5t129.5 25.5q111 0 175.5 -59t69.5 -162h-90q-6 68 -46 108t-118 40q-80 0 -139 -54t-86.5 -134.5t-27.5 -171.5q0 -93 41.5 -151t129.5 -58q136 0 201 142z
" />
    <glyph glyph-name="D" unicode="D" horiz-adv-x="705" 
d="M32 0l147 696h201q134 0 212.5 -79t78.5 -215q0 -176 -106 -289t-285 -113h-248zM250 623l-115 -550h143q140 0 220 89.5t80 238.5q1 105 -53.5 163.5t-155.5 58.5h-119z" />
    <glyph glyph-name="E" unicode="E" horiz-adv-x="568" 
d="M528 404l-16 -74h-325l-53 -256h371l-27 -74h-446l147 696h428l-15 -74h-342l-47 -218h325z" />
    <glyph glyph-name="F" unicode="F" horiz-adv-x="547" 
d="M32 0l147 696h429l-16 -74h-342l-49 -234h320l-16 -73h-320l-66 -315h-87z" />
    <glyph glyph-name="G" unicode="G" horiz-adv-x="700" 
d="M654 376l-77 -376h-70q1 27 16 106q-37 -57 -88 -86t-134 -29q-116 0 -178.5 76.5t-62.5 200.5q0 82 23.5 158.5t68 140t117 101.5t162.5 38q112 0 179.5 -59t69.5 -154h-85q-7 61 -50.5 100.5t-125.5 39.5q-84 0 -146.5 -53.5t-92 -133t-29.5 -169.5q0 -96 42.5 -154.5
t129.5 -58.5q54 0 95 18.5t67.5 52.5t42 72.5t26.5 88.5l1 3h-204l16 77h287z" />
    <glyph glyph-name="H" unicode="H" horiz-adv-x="698" 
d="M32 0l147 696h87l-61 -287h350l61 287h87l-147 -696h-87l70 335h-350l-70 -335h-87z" />
    <glyph glyph-name="I" unicode="I" horiz-adv-x="261" 
d="M180 696h87l-147 -696h-88z" />
    <glyph glyph-name="J" unicode="J" horiz-adv-x="337" 
d="M153 182l109 514h87l-111 -520q-20 -96 -63.5 -141t-130.5 -45q-50 0 -80 10l17 71q25 -7 64 -7q51 0 73 30.5t35 87.5z" />
    <glyph glyph-name="K" unicode="K" horiz-adv-x="602" 
d="M32 0l147 696h86l-73 -341q22 20 175 150t222 191h112l-350 -297l219 -399h-98l-188 347l-111 -84l-54 -263h-87z" />
    <glyph glyph-name="L" unicode="L" horiz-adv-x="530" 
d="M32 0l147 696h87l-132 -622h349l-26 -74h-425z" />
    <glyph glyph-name="M" unicode="M" horiz-adv-x="834" 
d="M605 0l63 296q41 196 75 337h-3q-42 -92 -343 -633h-80q-71 583 -72 634h-3q-13 -88 -69 -355l-58 -279h-84l148 696h132q64 -471 70 -584h1q14 31 63 119.5t140 250t121 214.5h133l-147 -696h-87z" />
    <glyph glyph-name="N" unicode="N" horiz-adv-x="712" 
d="M115 0h-84l148 696h113q18 -48 74.5 -198t96 -257.5t47.5 -140.5h1q7 52 64 321l58 275h84l-147 -696h-108q-196 526 -221 611h-1q-13 -84 -66 -329z" />
    <glyph glyph-name="O" unicode="O" horiz-adv-x="726" 
d="M426 706q128 0 196.5 -77t68.5 -211q0 -79 -22.5 -153t-65.5 -136.5t-115.5 -100.5t-164.5 -38q-126 0 -194.5 77t-68.5 203q0 79 23.5 155t67.5 139.5t115.5 102.5t159.5 39zM420 633q-66 0 -119 -33t-85 -86t-49 -115.5t-17 -125.5q0 -94 46.5 -152t137.5 -58
q86 0 148.5 55t90.5 134t28 168q0 98 -46 155.5t-135 57.5z" />
    <glyph glyph-name="P" unicode="P" horiz-adv-x="605" 
d="M32 0l147 696h222q101 0 156.5 -51.5t55.5 -133.5q0 -110 -73.5 -167t-195.5 -57h-166l-60 -287h-86zM250 623l-56 -263h150q177 0 177 146q0 117 -142 117h-129z" />
    <glyph glyph-name="Q" unicode="Q" horiz-adv-x="726" 
d="M426 706q128 0 196.5 -77t68.5 -211q0 -109 -41.5 -207.5t-121.5 -157.5l158 -120l-54 -60l-182 138q-61 -21 -127 -21q-126 0 -194.5 77t-68.5 203q0 79 23.5 155t67.5 139.5t115.5 102.5t159.5 39zM420 633q-66 0 -119 -33t-85 -86t-49 -115.5t-17 -125.5
q0 -94 46.5 -152t137.5 -58q86 0 148.5 55t90.5 134t28 168q0 98 -46 155.5t-135 57.5z" />
    <glyph glyph-name="R" unicode="R" horiz-adv-x="618" 
d="M330 311h-146l-65 -311h-87l147 696h234q96 0 146.5 -45.5t50.5 -123.5q0 -75 -41 -122t-112 -63q100 -37 71 -174q-30 -139 -27 -168h-82q-5 47 24 165q16 76 -10 111t-103 35zM250 623l-50 -239h137q183 0 183 134q0 105 -124 105h-146z" />
    <glyph glyph-name="S" unicode="S" horiz-adv-x="573" 
d="M23 202h88q6 -69 48 -105t116 -36q71 0 112 32.5t41 94.5q0 49 -30.5 81.5t-112.5 63.5q-96 37 -135.5 77.5t-39.5 101.5q0 82 58.5 138t169.5 56q110 0 165.5 -54.5t56.5 -138.5h-87q-7 58 -39 89.5t-103 31.5q-63 0 -97 -32t-34 -80q0 -38 25.5 -63.5t100.5 -54.5
q106 -39 150 -87t44 -117q0 -90 -62.5 -150t-191.5 -60q-117 0 -179 57.5t-64 154.5z" />
    <glyph glyph-name="T" unicode="T" horiz-adv-x="533" 
d="M162 0l131 622h-216l16 74h520l-16 -74h-217l-131 -622h-87z" />
    <glyph glyph-name="U" unicode="U" horiz-adv-x="672" 
d="M169 696h87l-91 -427q-23 -107 17.5 -156t124.5 -49q92 0 134.5 45t66.5 159l92 428h87l-93 -435q-31 -148 -96 -209t-200 -61q-126 0 -188 69.5t-31 213.5z" />
    <glyph glyph-name="V" unicode="V" horiz-adv-x="612" 
d="M287 0h-99l-98 696h87l48 -364q22 -173 27 -250h2q28 63 143 264l201 350h92z" />
    <glyph glyph-name="W" unicode="W" horiz-adv-x="885" 
d="M226 0h-93l-32 696h86q2 -61 7 -218t7 -257t0 -130h1q11 34 62.5 143t121.5 254t99 208h83q26 -506 21 -601h1q13 35 60 135.5t116 244.5t104 221h87l-343 -696h-93q-22 486 -19 581h-1q-13 -36 -50 -116t-71.5 -150.5t-86 -176t-67.5 -138.5z" />
    <glyph glyph-name="X" unicode="X" horiz-adv-x="572" 
d="M522 0h-94l-131 288h-1l-237 -288h-102l303 358l-156 338h94l123 -274h1l234 274h97l-295 -341z" />
    <glyph glyph-name="Y" unicode="Y" horiz-adv-x="553" 
d="M256 0h-86l54 261q2 11 -1 18l-152 417h92q16 -47 64 -184.5t58 -170.5q18 28 59.5 83.5t119 155t90.5 116.5h96l-331 -422q-7 -9 -8 -18z" />
    <glyph glyph-name="Z" unicode="Z" horiz-adv-x="558" 
d="M-25 0l14 66l503 556h-385l16 74h491l-16 -72l-497 -550h413l-28 -74h-511z" />
    <glyph glyph-name="bracketleft" unicode="[" horiz-adv-x="329" 
d="M198 -172h-207l193 906h207l-13 -64h-134l-165 -778h134z" />
    <glyph glyph-name="backslash" unicode="\" horiz-adv-x="405" 
d="M196 706l116 -729h-71l-116 729h71z" />
    <glyph glyph-name="bracketright" unicode="]" horiz-adv-x="329" 
d="M138 734h207l-192 -906h-207l13 64h133l165 778h-133z" />
    <glyph glyph-name="asciicircum" unicode="^" horiz-adv-x="480" 
d="M444 313h-74l-132 287l-127 -287h-75l169 356h72z" />
    <glyph glyph-name="underscore" unicode="_" horiz-adv-x="512" 
d="M-70 -78h508l-11 -51h-508z" />
    <glyph glyph-name="grave" unicode="`" 
d="M98 746h96l109 -152h-77z" />
    <glyph glyph-name="a" unicode="a" horiz-adv-x="527" 
d="M469 343l-46 -217q-18 -86 -24 -126h-81q4 34 13 78q-54 -88 -172 -88q-71 0 -105 38t-34 90q0 163 237 186q7 1 123 5l7 34q21 110 -91 110q-40 0 -67 -14t-37 -29.5t-20 -40.5h-85q35 148 216 148q92 0 138.5 -43.5t27.5 -130.5zM365 240l2 8q-77 -3 -104 -6
q-72 -7 -113.5 -31.5t-41.5 -80.5q0 -31 20.5 -51t60.5 -20q76 0 116.5 49t59.5 132z" />
    <glyph glyph-name="b" unicode="b" horiz-adv-x="560" 
d="M50 135l126 599h83l-64 -303q60 86 165 86q78 0 121 -49.5t43 -138.5q0 -83 -27.5 -158t-90.5 -128t-150 -53q-107 0 -138 79q-13 -54 -18 -69h-81q5 21 31 135zM257 62q58 0 101 43t61.5 100t18.5 117q0 122 -107 122q-68 0 -114.5 -54.5t-64.5 -138.5q-18 -90 8 -139.5
t97 -49.5z" />
    <glyph glyph-name="c" unicode="c" horiz-adv-x="501" 
d="M362 152h83q-57 -162 -225 -162q-90 0 -137 53.5t-47 144.5q0 81 27.5 153.5t89 124t145.5 51.5q51 0 88.5 -17t56.5 -43.5t26.5 -55t5.5 -56.5h-81q-4 104 -101 104q-81 0 -126 -80t-45 -175q0 -136 110 -136q85 0 130 94z" />
    <glyph glyph-name="d" unicode="d" horiz-adv-x="564" 
d="M506 734h82l-125 -593q-19 -90 -28 -141h-81q2 23 14 80q-58 -90 -168 -90q-79 0 -121.5 54t-42.5 143q0 78 28.5 151.5t91 126t146.5 52.5q58 0 94.5 -24.5t46.5 -54.5zM303 444q-56 0 -98.5 -39.5t-62 -95t-19.5 -114.5q0 -132 106 -132q74 0 119 57.5t63 149.5
q17 82 -9.5 128t-98.5 46z" />
    <glyph glyph-name="e" unicode="e" horiz-adv-x="514" 
d="M469 241h-346q-4 -40 -4 -48q0 -64 29.5 -99t82.5 -35q86 0 131 84h86q-64 -153 -227 -153q-92 0 -139 54.5t-47 146.5q0 56 15.5 111.5t46.5 104.5t84 79.5t120 30.5q95 0 138 -51.5t43 -129.5q0 -46 -13 -95zM137 304h261q3 13 3 37q0 109 -105 109q-57 0 -98 -38
t-61 -108z" />
    <glyph glyph-name="f" unicode="f" horiz-adv-x="277" 
d="M114 -1h-83l92 439h-81l16 68h80l16 73q35 165 169 165q37 0 59 -8l-16 -71q-17 5 -41 5q-68 0 -88 -92l-16 -72h100l-15 -68h-100z" />
    <glyph glyph-name="g" unicode="g" horiz-adv-x="557" 
d="M507 373l-69 -323q-28 -134 -82 -196.5t-177 -62.5q-189 0 -189 153h84q0 -38 28 -62.5t86 -24.5q74 0 109.5 46t58.5 146l10 45q-56 -92 -164 -92q-76 0 -120.5 51.5t-44.5 143.5q0 78 28.5 150t89 121t139.5 49q61 0 97.5 -25t45.5 -57q14 55 21 72h79
q-16 -64 -30 -134zM299 446q-81 0 -128 -73t-47 -170q0 -129 107 -129q67 0 111 54t63 140q17 79 -7.5 128.5t-98.5 49.5z" />
    <glyph glyph-name="h" unicode="h" horiz-adv-x="551" 
d="M21 0l155 734h83l-66 -308q64 91 169 91q31 0 56.5 -8.5t48 -30t27.5 -58.5t-4 -94l-68 -326h-83l66 313q14 66 -4 98.5t-73 32.5q-61 0 -105 -45.5t-60 -118.5l-60 -280h-82z" />
    <glyph glyph-name="i" unicode="i" horiz-adv-x="232" 
d="M21 0l107 507h83l-108 -507h-82zM153 625l23 109h83l-23 -109h-83z" />
    <glyph glyph-name="j" unicode="j" horiz-adv-x="232" 
d="M236 625h-83l23 109h83zM128 507h83l-115 -539q-19 -92 -55 -134.5t-111 -42.5q-21 0 -49 4l18 72q18 -2 25 -2q43 0 60 23.5t31 87.5z" />
    <glyph glyph-name="k" unicode="k" horiz-adv-x="481" 
d="M258 734l-99 -460q25 23 126.5 111t139.5 122h105q-40 -36 -227 -197l134 -310h-94l-106 258l-95 -74l-39 -184h-83l156 734h82z" />
    <glyph glyph-name="l" unicode="l" horiz-adv-x="232" 
d="M103 0h-82l155 734h83z" />
    <glyph glyph-name="m" unicode="m" horiz-adv-x="814" 
d="M21 0l77 365q14 66 28 142h81q-3 -35 -13 -78q60 88 152 88q105 0 117 -93q65 93 169 93q70 0 106 -45.5t15 -142.5l-70 -329h-81l67 319q28 125 -71 125q-56 0 -92.5 -43t-51.5 -112l-61 -289h-81l65 310q16 59 1 96.5t-67 37.5q-58 0 -96.5 -46t-53.5 -119l-58 -279
h-82z" />
    <glyph glyph-name="n" unicode="n" horiz-adv-x="551" 
d="M21 0l80 378q6 30 25 129h81q-2 -29 -15 -86q61 96 170 96q78 0 113 -48.5t13 -151.5l-66 -317h-83l66 315q29 129 -78 129q-66 0 -109 -53t-61 -137l-54 -254h-82z" />
    <glyph glyph-name="o" unicode="o" horiz-adv-x="536" 
d="M305 517q88 0 140 -55t52 -154q0 -53 -15.5 -106.5t-46 -102t-84.5 -79t-124 -30.5q-91 0 -140.5 54t-49.5 150q0 55 16.5 110.5t48 103.5t85 78.5t118.5 30.5zM297 448q-55 0 -96.5 -41.5t-60 -98t-18.5 -113.5q0 -64 29.5 -100t84.5 -36q57 0 99 41.5t59.5 97
t17.5 113.5q0 65 -29 101t-86 36z" />
    <glyph glyph-name="p" unicode="p" horiz-adv-x="564" 
d="M-22 -199l118 557q23 106 30 149h82q-1 -13 -16 -87q65 97 173 97q76 0 118.5 -52t42.5 -140q0 -134 -72.5 -234.5t-194.5 -100.5q-107 0 -141 78l-57 -267h-83zM153 251q-19 -88 7 -138.5t100 -50.5q58 0 100.5 41.5t60.5 97.5t18 116q0 62 -27.5 94.5t-77.5 32.5
q-67 0 -115.5 -56.5t-65.5 -136.5z" />
    <glyph glyph-name="q" unicode="q" horiz-adv-x="563" 
d="M308 -199l59 275q-63 -86 -171 -86q-69 0 -114.5 49.5t-45.5 144.5q0 85 33 161t95 124t138 48q61 0 96 -22.5t44 -55.5q12 52 18 68h81q-14 -53 -34 -152l-118 -554h-81zM306 446q-82 0 -133 -79.5t-51 -175.5q0 -62 26.5 -95.5t78.5 -33.5q72 0 117.5 57t63.5 148
q36 179 -102 179z" />
    <glyph glyph-name="r" unicode="r" horiz-adv-x="342" 
d="M365 517l-18 -86q-73 -5 -124 -56.5t-69 -137.5l-51 -237h-82l76 357q23 116 29 150h80q-3 -38 -19 -107q28 55 74.5 86t103.5 31z" />
    <glyph glyph-name="s" unicode="s" horiz-adv-x="454" 
d="M5 152h85q9 -95 118 -95q50 0 77 22.5t27 59.5q0 34 -24.5 54.5t-81.5 41.5q-80 28 -111 58.5t-31 76.5q0 63 47.5 105t135.5 42q91 0 135.5 -43t42.5 -103h-84q-7 80 -102 80q-41 0 -66 -19t-25 -53q0 -25 22 -41t79 -37q80 -29 114.5 -64t34.5 -87q0 -75 -55 -117.5
t-147 -42.5q-94 0 -142.5 44t-48.5 118z" />
    <glyph glyph-name="t" unicode="t" horiz-adv-x="309" 
d="M48 439l15 68h85l31 146h82l-31 -146h108l-15 -68h-108l-64 -307q-9 -34 -2 -51.5t38 -17.5t50 5l-15 -66q-23 -8 -70 -8q-60 0 -80.5 29.5t-7.5 93.5l68 322h-84z" />
    <glyph glyph-name="u" unicode="u" horiz-adv-x="542" 
d="M520 507l-79 -371q-13 -60 -26 -136h-81q2 36 14 87q-57 -97 -170 -97q-74 0 -109 45.5t-15 141.5l72 330h81l-68 -322q-6 -33 -6.5 -61t19 -45.5t58.5 -17.5q62 0 107.5 49.5t67.5 152.5l52 244h83z" />
    <glyph glyph-name="v" unicode="v" horiz-adv-x="475" 
d="M63 507h82q42 -340 46 -429h1q10 24 52 101.5t98 180t80 147.5h87l-284 -507h-97z" />
    <glyph glyph-name="w" unicode="w" horiz-adv-x="732" 
d="M70 507h82q20 -319 18 -423h1q32 76 202 423h83q18 -351 15 -417h1q54 122 205 417h86l-264 -507h-89q-20 325 -18 404h-1q-22 -57 -194 -404h-92z" />
    <glyph glyph-name="x" unicode="x" horiz-adv-x="436" 
d="M52 507h89q18 -41 37.5 -83.5t31.5 -69.5l16 -36h1q96 116 157 189h97l-217 -248l120 -259h-91q-24 50 -55 120t-34 76h-1q-32 -45 -158 -196h-96l218 259z" />
    <glyph glyph-name="y" unicode="y" horiz-adv-x="478" 
d="M58 507h83q49 -353 54 -442h1q1 3 72.5 149t149.5 293h88l-282 -535q-33 -62 -59 -99t-54 -54.5t-51.5 -22.5t-63.5 -5q-34 0 -58 6l17 73q22 -4 46 -4q47 0 73 21.5t62 84.5z" />
    <glyph glyph-name="z" unicode="z" horiz-adv-x="440" 
d="M-23 0l14 66l341 372h-263l15 69h362l-16 -70l-335 -368h285l-26 -69h-377z" />
    <glyph glyph-name="braceleft" unicode="{" horiz-adv-x="357" 
d="M25 250l15 71q66 0 92.5 27.5t37.5 85.5l29 136q18 91 66.5 127.5t126.5 36.5h27l-14 -65h-10q-53 0 -81 -22t-40 -79l-30 -143q-27 -129 -125 -143q46 -11 61.5 -47t1.5 -102l-25 -116q-15 -72 3.5 -98.5t64.5 -26.5h15l-14 -65h-17q-73 0 -111.5 42t-17.5 142l27 126
q12 56 -2 84t-80 29z" />
    <glyph glyph-name="bar" unicode="|" horiz-adv-x="284" 
d="M97 781h80v-1043h-80v1043z" />
    <glyph glyph-name="braceright" unicode="}" horiz-adv-x="357" 
d="M340 311l-15 -71q-66 0 -92.5 -27.5t-37.5 -85.5l-28 -136q-19 -91 -67.5 -127.5t-126.5 -36.5h-26l13 65h10q53 0 81 22t40 79l30 143q27 129 125 143q-90 22 -62 149l24 116q15 72 -3 98.5t-64 26.5h-16l14 65h17q73 0 111.5 -42t17.5 -143l-26 -125q-6 -32 -6.5 -57
t20.5 -40.5t67 -15.5z" />
    <glyph glyph-name="asciitilde" unicode="~" horiz-adv-x="670" 
d="M155 206h-68v27q0 68 31.5 99.5t82.5 31.5q55 0 145.5 -45.5t119.5 -45.5q27 0 38 16.5t11 53.5v17h68v-21q0 -137 -114 -137q-51 0 -141.5 45t-121.5 45q-51 0 -51 -70v-16z" />
    <glyph glyph-name="uni00A0" unicode="&#xa0;" horiz-adv-x="253" 
 />
    <glyph glyph-name="exclamdown" unicode="&#xa1;" horiz-adv-x="228" 
d="M71 273h69l-62 -339l-26 -123h-88l26 123zM115 507h84l-30 -138h-83z" />
    <glyph glyph-name="cent" unicode="&#xa2;" horiz-adv-x="512" 
d="M153 275q0 -105 68 -127l76 357q-66 -10 -105 -80.5t-39 -149.5zM382 231h83q-49 -146 -205 -153l-20 -94h-54l20 96q-68 11 -102.5 63t-34.5 128q0 119 65.5 207.5t176.5 94.5l17 78h54l-17 -81q70 -10 103 -55.5t31 -103.5h-80q-7 76 -69 91l-76 -358q70 8 108 87z" />
    <glyph glyph-name="sterling" unicode="&#xa3;" horiz-adv-x="495" 
d="M423 0h-441l14 64q49 21 74 73.5t37 135.5q1 6 2.5 16t1.5 15h-90l14 63h83q7 57 11 88q28 213 200 213q86 0 125.5 -48.5t36.5 -114.5h-76q-7 96 -91 96q-51 0 -76 -34.5t-36 -107.5q-5 -38 -11 -92h152l-13 -63h-147q-1 -8 -3 -26q-20 -147 -84 -206h343z" />
    <glyph glyph-name="currency" unicode="&#xa4;" horiz-adv-x="504" 
d="M301 542q66 0 108 -40l81 70l36 -50l-82 -71q21 -52 11 -115q-12 -71 -51 -122l52 -67l-54 -48l-49 66q-53 -35 -116 -35q-65 0 -107 39l-78 -70l-37 53l79 68q-21 51 -11 118q11 70 52 120l-49 67l54 47l48 -65q51 35 113 35zM290 475q-55 0 -91 -38.5t-45 -98.5
q-11 -70 16 -107t76 -37q51 0 87.5 36t48.5 107q9 62 -14 100t-78 38z" />
    <glyph glyph-name="yen" unicode="&#xa5;" horiz-adv-x="463" 
d="M378 180h-124l-38 -180h-81l38 180h-121l12 54h120l14 63h-121l11 54h108l-109 307h89q74 -234 80 -271h1q22 40 198 271h92l-243 -307h110l-11 -54h-124l-14 -63h125z" />
    <glyph glyph-name="brokenbar" unicode="&#xa6;" horiz-adv-x="234" 
d="M77 689h75v-356h-75v356zM77 179h75v-358h-75v358z" />
    <glyph glyph-name="section" unicode="&#xa7;" horiz-adv-x="553" 
d="M206 405q-37 -15 -63 -47.5t-26 -69.5q0 -36 22 -64t82 -57q82 -41 115 -66q71 45 71 122q0 41 -22 68.5t-76 55.5q-43 22 -103 58zM521 532h-80q-1 46 -29.5 76.5t-88.5 30.5q-48 0 -79 -25.5t-31 -67.5q0 -36 25.5 -58.5t102.5 -62.5q78 -39 113.5 -80.5t35.5 -106.5
q0 -119 -109 -186q22 -32 22 -76q0 -88 -58 -137t-157 -49q-104 0 -157 51.5t-48 137.5h86q-3 -55 30.5 -87.5t95.5 -32.5q55 0 89 27t34 77q0 35 -26.5 61.5t-103.5 64.5q-84 41 -117.5 81.5t-33.5 101.5q0 55 32.5 102.5t89.5 76.5q-26 34 -26 80q0 74 50 124.5t147 50.5
q57 0 98.5 -17t61 -44.5t27 -56t4.5 -56.5z" />
    <glyph glyph-name="dieresis" unicode="&#xa8;" 
d="M204 625h-71l22 109h72zM379 625h-71l23 109h71z" />
    <glyph glyph-name="copyright" unicode="&#xa9;" horiz-adv-x="794" 
d="M412 705q148 0 245.5 -100.5t97.5 -255.5q0 -157 -97 -258t-246 -101q-151 0 -248.5 99t-97.5 260q0 154 99 255t247 101zM411 652q-125 0 -206.5 -82t-81.5 -224q0 -131 82.5 -217t205.5 -86q125 0 206 83t81 223q0 132 -81 217.5t-206 85.5zM519 285h62
q-12 -64 -55.5 -101t-111.5 -37q-81 0 -130 54t-49 148q0 95 50 149.5t132 54.5q73 0 115.5 -40t49.5 -102h-63q-21 86 -103 86q-53 0 -83.5 -36.5t-30.5 -109.5q0 -69 31.5 -108t82.5 -39q77 0 103 81z" />
    <glyph glyph-name="ordfeminine" unicode="&#xaa;" horiz-adv-x="367" 
d="M360 482l-28 -139q-2 -13 -8.5 -45t-7.5 -39h-62q5 34 9 50q-39 -56 -111 -56q-47 0 -71.5 27t-24.5 63q0 28 11 49.5t27 34t41.5 21.5t47 12.5t50.5 6.5q42 2 63 2l2 11q6 33 -5.5 52t-54.5 19q-35 0 -50.5 -12.5t-24.5 -37.5h-64q22 100 145 100q65 0 96.5 -30.5
t19.5 -88.5zM285 416l1 8q-18 0 -50 -2q-55 -5 -83 -20t-28 -52q0 -18 12.5 -31t36.5 -13q89 0 111 110z" />
    <glyph glyph-name="guillemotleft" unicode="&#xab;" horiz-adv-x="529" 
d="M326 453l-189 -201l99 -188h-75l-105 196l185 193h85zM517 453l-190 -200l100 -189h-77l-104 196l184 193h87z" />
    <glyph glyph-name="logicalnot" unicode="&#xac;" horiz-adv-x="713" 
d="M75 405h548v-321h-76v246h-472v75z" />
    <glyph glyph-name="uni00AD" unicode="&#xad;" horiz-adv-x="364" 
d="M63 294h253l-16 -76h-253z" />
    <glyph glyph-name="registered" unicode="&#xae;" horiz-adv-x="351" 
d="M241 706q72 0 117.5 -49.5t45.5 -119.5q0 -73 -45.5 -121.5t-117.5 -48.5q-70 0 -116.5 48.5t-46.5 121.5q0 71 46 120t117 49zM241 672q-59 0 -93 -39.5t-34 -95.5q0 -57 36.5 -96t90.5 -39q60 0 92.5 37t32.5 97q0 58 -35 97t-90 39zM215 456h-40v167h72q65 0 65 -48
q0 -32 -28 -39q23 -9 23 -44q0 -24 2 -36h-40q-2 9 -2 35q0 18 -5.5 23.5t-22.5 5.5h-24v-64zM215 593v-42h28q28 0 28 22q0 20 -30 20h-26z" />
    <glyph glyph-name="macron" unicode="&#xaf;" 
d="M143 698h266l-15 -70h-267z" />
    <glyph glyph-name="degree" unicode="&#xb0;" horiz-adv-x="312" 
d="M237 685q54 0 85 -33t31 -83q0 -68 -40.5 -111.5t-107.5 -43.5q-53 0 -84.5 33t-31.5 85q0 65 41 109t107 44zM229 637q-39 0 -61.5 -29.5t-22.5 -71.5q0 -33 17.5 -53t49.5 -20q38 0 62 27.5t24 72.5q0 32 -16.5 53t-52.5 21z" />
    <glyph glyph-name="plusminus" unicode="&#xb1;" horiz-adv-x="713" 
d="M321 668h71v-226h238v-68h-238v-231h-71v231h-238v68h238v226zM631 0h-548v68h548v-68z" />
    <glyph glyph-name="two.sups" unicode="&#xb2;" horiz-adv-x="349" 
d="M308 426h-287l2 11q11 52 48.5 96t114.5 87q60 35 77 50.5t17 44.5q0 26 -16 41t-47 15q-63 0 -85 -71h-66q31 128 158 128q61 0 93.5 -31.5t32.5 -78.5t-26 -75.5t-94 -64.5q-89 -47 -112 -95h211z" />
    <glyph glyph-name="three.sups" unicode="&#xb3;" horiz-adv-x="359" 
d="M34 544h66q5 -32 26 -51t58 -19q36 0 59.5 18t23.5 55q0 27 -17.5 44t-54.5 17h-38l12 56h33q76 0 76 61q0 21 -14.5 35t-44.5 14q-32 0 -49 -15t-28 -41h-65q27 109 149 109q59 0 91 -27t32 -72q0 -34 -19 -57.5t-51 -32.5q22 -8 41 -30.5t19 -56.5q0 -56 -40.5 -93
t-118.5 -37q-79 0 -113.5 39t-32.5 84z" />
    <glyph glyph-name="acute" unicode="&#xb4;" 
d="M371 746h114l-201 -152h-90z" />
    <glyph glyph-name="uni00B5" unicode="&#xb5;" horiz-adv-x="543" 
d="M54 170l72 337h81l-67 -315q-27 -131 75 -131q128 0 169 192l54 254h83l-77 -361q-22 -106 -27 -146h-79q-1 14 11 81q-49 -91 -155 -91q-68 0 -92 46q-31 -160 -49 -243h-82q14 62 44 199.5t39 177.5z" />
    <glyph glyph-name="paragraph" unicode="&#xb6;" horiz-adv-x="583" 
d="M372 -157h-66l63 296h-95q-127 0 -181 74t-27 203q49 224 279 224h131q10 37 20 56h60q-8 -24 -20 -83zM350 209h34l77 365h-47q-51 0 -79 -43.5t-46 -130.5q-22 -88 -10 -139.5t71 -51.5z" />
    <glyph glyph-name="periodcentered" unicode="&#xb7;" horiz-adv-x="196" 
d="M101 199h-89l32 148h88z" />
    <glyph glyph-name="cedilla" unicode="&#xb8;" 
d="M116 11l62 -10l-47 -54q35 -7 61.5 -28t26.5 -59q0 -48 -35.5 -75t-94.5 -27q-48 0 -90 15l16 56q26 -11 68 -11q60 0 60 38q0 43 -102 45l6 27z" />
    <glyph glyph-name="one.sups" unicode="&#xb9;" horiz-adv-x="240" 
d="M152 425h-70l68 321q-37 -10 -79 -10l12 52q67 8 106 40h48z" />
    <glyph glyph-name="ordmasculine" unicode="&#xba;" horiz-adv-x="365" 
d="M245 601q62 0 98.5 -36.5t36.5 -98.5q0 -89 -51.5 -150.5t-139.5 -61.5q-59 0 -95.5 37t-36.5 100q0 84 51 147t137 63zM238 547q-53 0 -82 -47t-29 -107q0 -85 70 -85q55 0 84.5 47.5t29.5 106.5q0 85 -73 85z" />
    <glyph glyph-name="guillemotright" unicode="&#xbb;" horiz-adv-x="529" 
d="M206 64l189 201l-99 188h76l105 -195l-185 -194h-86zM15 64l191 201l-101 188h77l104 -195l-184 -194h-87z" />
    <glyph glyph-name="onequarter" unicode="&#xbc;" horiz-adv-x="769" 
d="M142 1h-73l546 658h70zM180 258h-70l68 321q-37 -10 -79 -10l12 52q67 8 106 40h48zM639 2h-66l22 104h-194l11 51l224 241h87l-52 -240h59l-16 -52h-54zM483 158h123l19 86q22 93 23 96q-17 -22 -165 -182z" />
    <glyph glyph-name="onehalf" unicode="&#xbd;" horiz-adv-x="824" 
d="M134 0h-73l546 658h70zM171 258h-70l68 321q-37 -10 -79 -10l12 52q67 8 106 40h48zM739 0h-287l2 11q11 52 48.5 96t114.5 87q60 35 77 50.5t17 44.5q0 26 -16 41t-47 15q-63 0 -85 -71h-66q31 128 158 128q61 0 93.5 -31.5t32.5 -78.5t-26 -75.5t-94 -64.5
q-89 -47 -112 -95h211z" />
    <glyph glyph-name="threequarters" unicode="&#xbe;" horiz-adv-x="855" 
d="M246 0h-73l546 658h70zM724 -12h-66l22 104h-194l11 51l224 241h87l-52 -240h59l-16 -52h-54zM568 144h123l19 86q22 93 23 96q-17 -22 -165 -182zM51 377h66q5 -32 26 -51t58 -19q36 0 59.5 18t23.5 55q0 27 -17.5 44t-54.5 17h-38l12 56h33q76 0 76 61q0 21 -14.5 35
t-44.5 14q-32 0 -49 -15t-28 -41h-65q27 109 149 109q59 0 91 -27t32 -72q0 -34 -19 -57.5t-51 -32.5q22 -8 41 -30.5t19 -56.5q0 -56 -40.5 -93t-118.5 -37q-79 0 -113.5 39t-32.5 84z" />
    <glyph glyph-name="questiondown" unicode="&#xbf;" horiz-adv-x="459" 
d="M207 296h86l-3 -16q-10 -47 -35 -86.5t-88 -87.5q-31 -24 -45.5 -36t-31.5 -31t-23 -37.5t-6 -42.5q0 -37 23.5 -61.5t73.5 -24.5q94 0 129 106h84q-7 -30 -20 -57.5t-37 -56.5t-65.5 -46.5t-95.5 -17.5q-89 0 -132.5 44.5t-43.5 108.5q0 66 33 110t103 96q44 33 64 62
t28 66zM252 507h86l-29 -138h-87z" />
    <glyph glyph-name="Agrave" unicode="&#xc0;" horiz-adv-x="615" 
d="M443 213h-268l-115 -213h-93l386 696h105l105 -696h-88zM214 287h222q-40 271 -44 332h-1q-48 -96 -177 -332zM213 889h110l137 -137h-87z" />
    <glyph glyph-name="Aacute" unicode="&#xc1;" horiz-adv-x="615" 
d="M443 213h-268l-115 -213h-93l386 696h105l105 -696h-88zM214 287h222q-40 271 -44 332h-1q-48 -96 -177 -332zM540 889h123l-210 -137h-94z" />
    <glyph glyph-name="Acircumflex" unicode="&#xc2;" horiz-adv-x="615" 
d="M443 213h-268l-115 -213h-93l386 696h105l105 -696h-88zM214 287h222q-40 271 -44 332h-1q-48 -96 -177 -332zM391 877h84l103 -129h-84l-67 81l-102 -81h-92z" />
    <glyph glyph-name="Atilde" unicode="&#xc3;" horiz-adv-x="615" 
d="M443 213h-268l-115 -213h-93l386 696h105l105 -696h-88zM214 287h222q-40 271 -44 332h-1q-48 -96 -177 -332zM311 760h-60l4 25q8 51 30.5 70t59.5 19q32 0 81.5 -25.5t64.5 -25.5t23.5 9.5t12.5 33.5l1 9h61l-5 -28q-9 -51 -31.5 -70.5t-61.5 -19.5q-30 0 -77.5 25.5
t-65.5 25.5q-28 0 -33 -30z" />
    <glyph glyph-name="Adieresis" unicode="&#xc4;" horiz-adv-x="615" 
d="M443 213h-268l-115 -213h-93l386 696h105l105 -696h-88zM214 287h222q-40 271 -44 332h-1q-48 -96 -177 -332zM344 764h-72l23 110h71zM543 764h-71l22 110h72z" />
    <glyph glyph-name="Aring" unicode="&#xc5;" horiz-adv-x="615" 
d="M443 213h-268l-115 -213h-93l386 696h105l105 -696h-88zM214 287h222q-40 271 -44 332h-1q-48 -96 -177 -332zM412 742q-42 0 -67.5 24.5t-25.5 60.5q0 47 33 78.5t83 31.5q42 0 66.5 -25t24.5 -62q0 -48 -32 -78t-82 -30zM417 787q21 0 38 16.5t17 43.5q0 45 -43 45
q-24 0 -40 -16.5t-16 -45.5q0 -16 11.5 -29.5t32.5 -13.5z" />
    <glyph glyph-name="AE" unicode="&#xc6;" horiz-adv-x="922" 
d="M478 696h484l-15 -74h-343l-47 -217h327l-16 -75h-327l-53 -256h371l-28 -74h-445l51 244h-221l-194 -244h-99zM273 318h180l66 308h-3z" />
    <glyph glyph-name="Ccedilla" unicode="&#xc7;" horiz-adv-x="653" 
d="M523 206h92q-79 -204 -281 -214l-34 -39q35 -7 61.5 -28t26.5 -59q0 -48 -35.5 -75t-94.5 -27q-48 0 -90 15l16 56q26 -11 68 -11q60 0 60 38q0 43 -102 45l6 27l50 60q-104 14 -156 89t-52 188q0 63 13.5 124t42 117.5t69.5 99.5t100.5 68.5t129.5 25.5q111 0 175.5 -59
t69.5 -162h-90q-6 68 -46 108t-118 40q-80 0 -139 -54t-86.5 -134.5t-27.5 -171.5q0 -93 41.5 -151t129.5 -58q136 0 201 142z" />
    <glyph glyph-name="Egrave" unicode="&#xc8;" horiz-adv-x="568" 
d="M528 404l-16 -74h-325l-53 -256h371l-27 -74h-446l147 696h428l-15 -74h-342l-47 -218h325zM205 899h110l137 -137h-87z" />
    <glyph glyph-name="Eacute" unicode="&#xc9;" horiz-adv-x="568" 
d="M528 404l-16 -74h-325l-53 -256h371l-27 -74h-446l147 696h428l-15 -74h-342l-47 -218h325zM514 899h123l-210 -137h-94z" />
    <glyph glyph-name="Ecircumflex" unicode="&#xca;" horiz-adv-x="568" 
d="M528 404l-16 -74h-325l-53 -256h371l-27 -74h-446l147 696h428l-15 -74h-342l-47 -218h325zM386 891h84l103 -129h-84l-67 81l-102 -81h-92z" />
    <glyph glyph-name="Edieresis" unicode="&#xcb;" horiz-adv-x="568" 
d="M528 404l-16 -74h-325l-53 -256h371l-27 -74h-446l147 696h428l-15 -74h-342l-47 -218h325zM338 768h-72l23 110h71zM537 768h-71l22 110h72z" />
    <glyph glyph-name="Igrave" unicode="&#xcc;" horiz-adv-x="261" 
d="M180 696h87l-147 -696h-88zM31 895h110l137 -137h-87z" />
    <glyph glyph-name="Iacute" unicode="&#xcd;" horiz-adv-x="261" 
d="M180 696h87l-147 -696h-88zM361 895h123l-210 -137h-94z" />
    <glyph glyph-name="Icircumflex" unicode="&#xce;" horiz-adv-x="261" 
d="M180 696h87l-147 -696h-88zM214 887h84l103 -129h-84l-67 81l-102 -81h-92z" />
    <glyph glyph-name="Idieresis" unicode="&#xcf;" horiz-adv-x="261" 
d="M180 696h87l-147 -696h-88zM171 770h-72l23 110h71zM370 770h-71l22 110h72z" />
    <glyph glyph-name="Eth" unicode="&#xd0;" horiz-adv-x="715" 
d="M31 391h94l64 305h201q134 0 212.5 -79t78.5 -215q0 -176 -106 -289t-285 -113h-248l69 328h-94zM260 623l-49 -232h192l-14 -63h-191l-53 -255h143q140 0 220 89.5t80 238.5q1 105 -53.5 163.5t-155.5 58.5h-119z" />
    <glyph glyph-name="Ntilde" unicode="&#xd1;" horiz-adv-x="712" 
d="M115 0h-84l148 696h113q18 -48 74.5 -198t96 -257.5t47.5 -140.5h1q7 52 64 321l58 275h84l-147 -696h-108q-196 526 -221 611h-1q-13 -84 -66 -329zM352 768h-60l4 25q8 51 30.5 70t59.5 19q32 0 81.5 -25.5t64.5 -25.5t23.5 9.5t12.5 33.5l1 9h61l-5 -28
q-9 -51 -31.5 -70.5t-61.5 -19.5q-30 0 -77.5 25.5t-65.5 25.5q-28 0 -33 -30z" />
    <glyph glyph-name="Ograve" unicode="&#xd2;" horiz-adv-x="726" 
d="M426 706q128 0 196.5 -77t68.5 -211q0 -79 -22.5 -153t-65.5 -136.5t-115.5 -100.5t-164.5 -38q-126 0 -194.5 77t-68.5 203q0 79 23.5 155t67.5 139.5t115.5 102.5t159.5 39zM420 633q-66 0 -119 -33t-85 -86t-49 -115.5t-17 -125.5q0 -94 46.5 -152t137.5 -58
q86 0 148.5 55t90.5 134t28 168q0 98 -46 155.5t-135 57.5zM263 907h110l137 -137h-87z" />
    <glyph glyph-name="Oacute" unicode="&#xd3;" horiz-adv-x="726" 
d="M426 706q128 0 196.5 -77t68.5 -211q0 -79 -22.5 -153t-65.5 -136.5t-115.5 -100.5t-164.5 -38q-126 0 -194.5 77t-68.5 203q0 79 23.5 155t67.5 139.5t115.5 102.5t159.5 39zM420 633q-66 0 -119 -33t-85 -86t-49 -115.5t-17 -125.5q0 -94 46.5 -152t137.5 -58
q86 0 148.5 55t90.5 134t28 168q0 98 -46 155.5t-135 57.5zM553 905h123l-210 -137h-94z" />
    <glyph glyph-name="Ocircumflex" unicode="&#xd4;" horiz-adv-x="726" 
d="M426 706q128 0 196.5 -77t68.5 -211q0 -79 -22.5 -153t-65.5 -136.5t-115.5 -100.5t-164.5 -38q-126 0 -194.5 77t-68.5 203q0 79 23.5 155t67.5 139.5t115.5 102.5t159.5 39zM420 633q-66 0 -119 -33t-85 -86t-49 -115.5t-17 -125.5q0 -94 46.5 -152t137.5 -58
q86 0 148.5 55t90.5 134t28 168q0 98 -46 155.5t-135 57.5zM433 893h84l103 -129h-84l-67 81l-102 -81h-92z" />
    <glyph glyph-name="Otilde" unicode="&#xd5;" horiz-adv-x="726" 
d="M426 706q128 0 196.5 -77t68.5 -211q0 -79 -22.5 -153t-65.5 -136.5t-115.5 -100.5t-164.5 -38q-126 0 -194.5 77t-68.5 203q0 79 23.5 155t67.5 139.5t115.5 102.5t159.5 39zM420 633q-66 0 -119 -33t-85 -86t-49 -115.5t-17 -125.5q0 -94 46.5 -152t137.5 -58
q86 0 148.5 55t90.5 134t28 168q0 98 -46 155.5t-135 57.5zM344 774h-60l4 25q8 51 30.5 70t59.5 19q32 0 81.5 -25.5t64.5 -25.5t23.5 9.5t12.5 33.5l1 9h61l-5 -28q-9 -51 -31.5 -70.5t-61.5 -19.5q-30 0 -77.5 25.5t-65.5 25.5q-28 0 -33 -30z" />
    <glyph glyph-name="Odieresis" unicode="&#xd6;" horiz-adv-x="726" 
d="M426 706q128 0 196.5 -77t68.5 -211q0 -79 -22.5 -153t-65.5 -136.5t-115.5 -100.5t-164.5 -38q-126 0 -194.5 77t-68.5 203q0 79 23.5 155t67.5 139.5t115.5 102.5t159.5 39zM420 633q-66 0 -119 -33t-85 -86t-49 -115.5t-17 -125.5q0 -94 46.5 -152t137.5 -58
q86 0 148.5 55t90.5 134t28 168q0 98 -46 155.5t-135 57.5zM381 775h-72l23 110h71zM580 775h-71l22 110h72z" />
    <glyph glyph-name="multiply" unicode="&#xd7;" horiz-adv-x="713" 
d="M627 53l-50 -53l-220 229l-220 -229l-50 53l220 229l-220 229l49 51l221 -229l220 229l50 -51l-220 -230z" />
    <glyph glyph-name="Oslash" unicode="&#xd8;" horiz-adv-x="726" 
d="M433 706q105 0 171 -57l42 47h68l-75 -85q53 -73 53 -188q0 -82 -23.5 -157.5t-68.5 -138t-118.5 -100t-165.5 -37.5q-106 0 -172 60l-44 -50h-70l79 90q-49 72 -49 178q0 64 15 126.5t46.5 119t75 99t104.5 68t132 25.5zM425 633q-87 0 -152 -55.5t-95.5 -136
t-30.5 -169.5q0 -67 23 -114l378 428q-45 47 -123 47zM327 63q88 0 152.5 53.5t94.5 134t30 174.5q0 69 -25 118l-379 -430q47 -50 127 -50z" />
    <glyph glyph-name="Ugrave" unicode="&#xd9;" horiz-adv-x="672" 
d="M169 696h87l-91 -427q-23 -107 17.5 -156t124.5 -49q92 0 134.5 45t66.5 159l92 428h87l-93 -435q-31 -148 -96 -209t-200 -61q-126 0 -188 69.5t-31 213.5zM242 891h110l137 -137h-87z" />
    <glyph glyph-name="Uacute" unicode="&#xda;" horiz-adv-x="672" 
d="M169 696h87l-91 -427q-23 -107 17.5 -156t124.5 -49q92 0 134.5 45t66.5 159l92 428h87l-93 -435q-31 -148 -96 -209t-200 -61q-126 0 -188 69.5t-31 213.5zM535 891h123l-210 -137h-94z" />
    <glyph glyph-name="Ucircumflex" unicode="&#xdb;" horiz-adv-x="672" 
d="M169 696h87l-91 -427q-23 -107 17.5 -156t124.5 -49q92 0 134.5 45t66.5 159l92 428h87l-93 -435q-31 -148 -96 -209t-200 -61q-126 0 -188 69.5t-31 213.5zM416 887h84l103 -129h-84l-67 81l-102 -81h-92z" />
    <glyph glyph-name="Udieresis" unicode="&#xdc;" horiz-adv-x="672" 
d="M169 696h87l-91 -427q-23 -107 17.5 -156t124.5 -49q92 0 134.5 45t66.5 159l92 428h87l-93 -435q-31 -148 -96 -209t-200 -61q-126 0 -188 69.5t-31 213.5zM366 764h-72l23 110h71zM565 764h-71l22 110h72z" />
    <glyph glyph-name="Yacute" unicode="&#xdd;" horiz-adv-x="553" 
d="M256 0h-86l54 261q2 11 -1 18l-152 417h92q16 -47 64 -184.5t58 -170.5q18 28 59.5 83.5t119 155t90.5 116.5h96l-331 -422q-7 -9 -8 -18zM470 882h123l-210 -137h-94z" />
    <glyph glyph-name="Thorn" unicode="&#xde;" horiz-adv-x="597" 
d="M31 0l147 696h87l-29 -140h131q91 0 151.5 -48t60.5 -135q0 -118 -78 -172t-209 -54h-143l-31 -147h-87zM220 483l-55 -263h128q196 0 196 144q0 54 -35.5 86.5t-107.5 32.5h-126z" />
    <glyph glyph-name="germandbls" unicode="&#xdf;" horiz-adv-x="586" 
d="M214 524l-111 -524h-83l113 530q26 119 81.5 166.5t158.5 47.5q98 0 151.5 -48.5t53.5 -114.5q0 -38 -8 -61l-188 -113l-1 -2l55 -49q49 -45 71 -83.5t22 -86.5q0 -87 -52.5 -141.5t-153.5 -54.5q-105 0 -164 64l16 79q65 -75 153 -75q54 0 85 31.5t31 84.5q0 65 -65 123
l-64 58q-58 55 20 104l158 97q2 8 2 22q0 38 -30.5 68t-98.5 30q-60 0 -96 -30t-56 -122z" />
    <glyph glyph-name="agrave" unicode="&#xe0;" horiz-adv-x="527" 
d="M469 343l-46 -217q-18 -86 -24 -126h-81q4 34 13 78q-54 -88 -172 -88q-71 0 -105 38t-34 90q0 163 237 186q7 1 123 5l7 34q21 110 -91 110q-40 0 -67 -14t-37 -29.5t-20 -40.5h-85q35 148 216 148q92 0 138.5 -43.5t27.5 -130.5zM365 240l2 8q-77 -3 -104 -6
q-72 -7 -113.5 -31.5t-41.5 -80.5q0 -31 20.5 -51t60.5 -20q76 0 116.5 49t59.5 132zM173 746h96l109 -152h-77z" />
    <glyph glyph-name="aacute" unicode="&#xe1;" horiz-adv-x="527" 
d="M469 343l-46 -217q-18 -86 -24 -126h-81q4 34 13 78q-54 -88 -172 -88q-71 0 -105 38t-34 90q0 163 237 186q7 1 123 5l7 34q21 110 -91 110q-40 0 -67 -14t-37 -29.5t-20 -40.5h-85q35 148 216 148q92 0 138.5 -43.5t27.5 -130.5zM365 240l2 8q-77 -3 -104 -6
q-72 -7 -113.5 -31.5t-41.5 -80.5q0 -31 20.5 -51t60.5 -20q76 0 116.5 49t59.5 132zM434 746h114l-201 -152h-90z" />
    <glyph glyph-name="acircumflex" unicode="&#xe2;" horiz-adv-x="527" 
d="M469 343l-46 -217q-18 -86 -24 -126h-81q4 34 13 78q-54 -88 -172 -88q-71 0 -105 38t-34 90q0 163 237 186q7 1 123 5l7 34q21 110 -91 110q-40 0 -67 -14t-37 -29.5t-20 -40.5h-85q35 148 216 148q92 0 138.5 -43.5t27.5 -130.5zM365 240l2 8q-77 -3 -104 -6
q-72 -7 -113.5 -31.5t-41.5 -80.5q0 -31 20.5 -51t60.5 -20q76 0 116.5 49t59.5 132zM317 739h81l72 -143h-79l-43 93l-87 -93h-84z" />
    <glyph glyph-name="atilde" unicode="&#xe3;" horiz-adv-x="527" 
d="M469 343l-46 -217q-18 -86 -24 -126h-81q4 34 13 78q-54 -88 -172 -88q-71 0 -105 38t-34 90q0 163 237 186q7 1 123 5l7 34q21 110 -91 110q-40 0 -67 -14t-37 -29.5t-20 -40.5h-85q35 148 216 148q92 0 138.5 -43.5t27.5 -130.5zM365 240l2 8q-77 -3 -104 -6
q-72 -7 -113.5 -31.5t-41.5 -80.5q0 -31 20.5 -51t60.5 -20q76 0 116.5 49t59.5 132zM234 608h-60l5 25q9 50 31 69t60 19q29 0 72.5 -24.5t56.5 -24.5q25 0 33 42l2 10h59l-4 -22q-9 -53 -31 -74t-59 -21q-27 0 -70 25t-60 25q-23 0 -31 -33z" />
    <glyph glyph-name="adieresis" unicode="&#xe4;" horiz-adv-x="527" 
d="M469 343l-46 -217q-18 -86 -24 -126h-81q4 34 13 78q-54 -88 -172 -88q-71 0 -105 38t-34 90q0 163 237 186q7 1 123 5l7 34q21 110 -91 110q-40 0 -67 -14t-37 -29.5t-20 -40.5h-85q35 148 216 148q92 0 138.5 -43.5t27.5 -130.5zM365 240l2 8q-77 -3 -104 -6
q-72 -7 -113.5 -31.5t-41.5 -80.5q0 -31 20.5 -51t60.5 -20q76 0 116.5 49t59.5 132zM274 625h-71l22 109h72zM449 625h-71l23 109h71z" />
    <glyph glyph-name="aring" unicode="&#xe5;" horiz-adv-x="527" 
d="M469 343l-46 -217q-18 -86 -24 -126h-81q4 34 13 78q-54 -88 -172 -88q-71 0 -105 38t-34 90q0 163 237 186q7 1 123 5l7 34q21 110 -91 110q-40 0 -67 -14t-37 -29.5t-20 -40.5h-85q35 148 216 148q92 0 138.5 -43.5t27.5 -130.5zM365 240l2 8q-77 -3 -104 -6
q-72 -7 -113.5 -31.5t-41.5 -80.5q0 -31 20.5 -51t60.5 -20q76 0 116.5 49t59.5 132zM323 568q-42 0 -67.5 24.5t-25.5 60.5q0 47 33 78.5t83 31.5q42 0 66.5 -25t24.5 -62q0 -48 -32 -78t-82 -30zM328 613q22 0 38.5 16.5t16.5 43.5q0 45 -43 45q-24 0 -40 -16.5t-16 -45.5
q0 -16 11.5 -29.5t32.5 -13.5z" />
    <glyph glyph-name="ae" unicode="&#xe6;" horiz-adv-x="835" 
d="M627 517q90 0 133 -50t43 -123q0 -52 -14 -98h-347q-6 -40 -6 -56q0 -65 29 -98t83 -33q52 0 82 22.5t53 64.5h83q-29 -75 -82.5 -115.5t-148.5 -40.5q-69 0 -108.5 30.5t-51.5 74.5q-66 -105 -201 -105q-74 0 -113 38t-39 99q0 90 69.5 136t192.5 46h95l7 34
q20 109 -86 109q-99 0 -123 -87h-88q36 152 216 152q61 0 99.5 -20.5t46.5 -56.5q61 77 176 77zM361 227l4 19h-86q-170 0 -170 -112q0 -32 21.5 -53t61.5 -21q69 0 109.5 42t59.5 125zM457 309h263q3 15 3 36q0 104 -107 104q-58 0 -98.5 -36t-60.5 -104z" />
    <glyph glyph-name="ccedilla" unicode="&#xe7;" horiz-adv-x="501" 
d="M362 152h83q-52 -145 -191 -160l-37 -43q35 -7 61.5 -28t26.5 -59q0 -48 -35.5 -75t-94.5 -27q-48 0 -90 15l16 56q26 -11 68 -11q60 0 60 38q0 43 -102 45l6 27l52 62q-73 10 -111 62.5t-38 133.5t27.5 153.5t89 124t145.5 51.5q51 0 88.5 -17t56.5 -43.5t26.5 -55
t5.5 -56.5h-81q-4 104 -101 104q-81 0 -126 -80t-45 -175q0 -136 110 -136q85 0 130 94z" />
    <glyph glyph-name="egrave" unicode="&#xe8;" horiz-adv-x="514" 
d="M469 241h-346q-4 -40 -4 -48q0 -64 29.5 -99t82.5 -35q86 0 131 84h86q-64 -153 -227 -153q-92 0 -139 54.5t-47 146.5q0 56 15.5 111.5t46.5 104.5t84 79.5t120 30.5q95 0 138 -51.5t43 -129.5q0 -46 -13 -95zM137 304h261q3 13 3 37q0 109 -105 109q-57 0 -98 -38
t-61 -108zM170 746h96l109 -152h-77z" />
    <glyph glyph-name="eacute" unicode="&#xe9;" horiz-adv-x="514" 
d="M469 241h-346q-4 -40 -4 -48q0 -64 29.5 -99t82.5 -35q86 0 131 84h86q-64 -153 -227 -153q-92 0 -139 54.5t-47 146.5q0 56 15.5 111.5t46.5 104.5t84 79.5t120 30.5q95 0 138 -51.5t43 -129.5q0 -46 -13 -95zM137 304h261q3 13 3 37q0 109 -105 109q-57 0 -98 -38
t-61 -108zM428 746h114l-201 -152h-90z" />
    <glyph glyph-name="ecircumflex" unicode="&#xea;" horiz-adv-x="514" 
d="M469 241h-346q-4 -40 -4 -48q0 -64 29.5 -99t82.5 -35q86 0 131 84h86q-64 -153 -227 -153q-92 0 -139 54.5t-47 146.5q0 56 15.5 111.5t46.5 104.5t84 79.5t120 30.5q95 0 138 -51.5t43 -129.5q0 -46 -13 -95zM137 304h261q3 13 3 37q0 109 -105 109q-57 0 -98 -38
t-61 -108zM311 741h81l72 -143h-79l-43 93l-87 -93h-84z" />
    <glyph glyph-name="edieresis" unicode="&#xeb;" horiz-adv-x="514" 
d="M469 241h-346q-4 -40 -4 -48q0 -64 29.5 -99t82.5 -35q86 0 131 84h86q-64 -153 -227 -153q-92 0 -139 54.5t-47 146.5q0 56 15.5 111.5t46.5 104.5t84 79.5t120 30.5q95 0 138 -51.5t43 -129.5q0 -46 -13 -95zM137 304h261q3 13 3 37q0 109 -105 109q-57 0 -98 -38
t-61 -108zM267 625h-71l22 109h72zM442 625h-71l23 109h71z" />
    <glyph glyph-name="igrave" unicode="&#xec;" horiz-adv-x="232" 
d="M21 0l107 507h83l-108 -507h-82zM21 746h96l109 -152h-77z" />
    <glyph glyph-name="iacute" unicode="&#xed;" horiz-adv-x="232" 
d="M21 0l107 507h83l-108 -507h-82zM307 746h114l-201 -152h-90z" />
    <glyph glyph-name="icircumflex" unicode="&#xee;" horiz-adv-x="232" 
d="M21 0l107 507h83l-108 -507h-82zM176 743h81l72 -143h-79l-43 93l-87 -93h-84z" />
    <glyph glyph-name="idieresis" unicode="&#xef;" horiz-adv-x="232" 
d="M21 0l107 507h83l-108 -507h-82zM135 625h-71l22 109h72zM310 625h-71l23 109h71z" />
    <glyph glyph-name="eth" unicode="&#xf0;" horiz-adv-x="519" 
d="M148 683l15 61q101 -14 177 -68l119 74l23 -46l-101 -62q102 -100 102 -267q0 -64 -14 -128t-44 -123.5t-86 -96.5t-130 -37q-87 0 -134.5 52.5t-47.5 144.5q0 76 29 146t90.5 118.5t142.5 48.5q71 0 103 -35q-13 79 -76 137l-129 -79l-23 45l109 67q-55 34 -125 48z
M289 432q-80 0 -128.5 -75.5t-48.5 -170.5q0 -59 27 -93t82 -34q44 0 79 27.5t55 69.5t30.5 87.5t10.5 86.5q0 46 -25.5 74t-81.5 28z" />
    <glyph glyph-name="ntilde" unicode="&#xf1;" horiz-adv-x="551" 
d="M21 0l80 378q6 30 25 129h81q-2 -29 -15 -86q61 96 170 96q78 0 113 -48.5t13 -151.5l-66 -317h-83l66 315q29 129 -78 129q-66 0 -109 -53t-61 -137l-54 -254h-82zM255 608h-60l5 25q9 50 31 69t60 19q29 0 72.5 -24.5t56.5 -24.5q25 0 33 42l2 10h59l-4 -22
q-9 -53 -31 -74t-59 -21q-27 0 -70 25t-60 25q-23 0 -31 -33z" />
    <glyph glyph-name="ograve" unicode="&#xf2;" horiz-adv-x="536" 
d="M305 517q88 0 140 -55t52 -154q0 -53 -15.5 -106.5t-46 -102t-84.5 -79t-124 -30.5q-91 0 -140.5 54t-49.5 150q0 55 16.5 110.5t48 103.5t85 78.5t118.5 30.5zM297 448q-55 0 -96.5 -41.5t-60 -98t-18.5 -113.5q0 -64 29.5 -100t84.5 -36q57 0 99 41.5t59.5 97
t17.5 113.5q0 65 -29 101t-86 36zM180 746h96l109 -152h-77z" />
    <glyph glyph-name="oacute" unicode="&#xf3;" horiz-adv-x="536" 
d="M305 517q88 0 140 -55t52 -154q0 -53 -15.5 -106.5t-46 -102t-84.5 -79t-124 -30.5q-91 0 -140.5 54t-49.5 150q0 55 16.5 110.5t48 103.5t85 78.5t118.5 30.5zM297 448q-55 0 -96.5 -41.5t-60 -98t-18.5 -113.5q0 -64 29.5 -100t84.5 -36q57 0 99 41.5t59.5 97
t17.5 113.5q0 65 -29 101t-86 36zM447 746h114l-201 -152h-90z" />
    <glyph glyph-name="ocircumflex" unicode="&#xf4;" horiz-adv-x="536" 
d="M305 517q88 0 140 -55t52 -154q0 -53 -15.5 -106.5t-46 -102t-84.5 -79t-124 -30.5q-91 0 -140.5 54t-49.5 150q0 55 16.5 110.5t48 103.5t85 78.5t118.5 30.5zM297 448q-55 0 -96.5 -41.5t-60 -98t-18.5 -113.5q0 -64 29.5 -100t84.5 -36q57 0 99 41.5t59.5 97
t17.5 113.5q0 65 -29 101t-86 36zM322 739h81l72 -143h-79l-43 93l-87 -93h-84z" />
    <glyph glyph-name="otilde" unicode="&#xf5;" horiz-adv-x="536" 
d="M305 517q88 0 140 -55t52 -154q0 -53 -15.5 -106.5t-46 -102t-84.5 -79t-124 -30.5q-91 0 -140.5 54t-49.5 150q0 55 16.5 110.5t48 103.5t85 78.5t118.5 30.5zM297 448q-55 0 -96.5 -41.5t-60 -98t-18.5 -113.5q0 -64 29.5 -100t84.5 -36q57 0 99 41.5t59.5 97
t17.5 113.5q0 65 -29 101t-86 36zM248 608h-60l5 25q9 50 31 69t60 19q29 0 72.5 -24.5t56.5 -24.5q25 0 33 42l2 10h59l-4 -22q-9 -53 -31 -74t-59 -21q-27 0 -70 25t-60 25q-23 0 -31 -33z" />
    <glyph glyph-name="odieresis" unicode="&#xf6;" horiz-adv-x="536" 
d="M305 517q88 0 140 -55t52 -154q0 -53 -15.5 -106.5t-46 -102t-84.5 -79t-124 -30.5q-91 0 -140.5 54t-49.5 150q0 55 16.5 110.5t48 103.5t85 78.5t118.5 30.5zM297 448q-55 0 -96.5 -41.5t-60 -98t-18.5 -113.5q0 -64 29.5 -100t84.5 -36q57 0 99 41.5t59.5 97
t17.5 113.5q0 65 -29 101t-86 36zM278 625h-71l22 109h72zM453 625h-71l23 109h71z" />
    <glyph glyph-name="divide" unicode="&#xf7;" horiz-adv-x="713" 
d="M393 0h-75v129h75v-129zM630 244h-547v75h547v-75zM393 429h-75v130h75v-130z" />
    <glyph glyph-name="oslash" unicode="&#xf8;" horiz-adv-x="536" 
d="M308 517q78 0 125 -38l31 35h60l-60 -69q32 -49 32 -129q0 -55 -15.5 -110t-46.5 -104.5t-85 -80.5t-123 -31q-77 0 -125 40l-36 -41h-60l66 75q-33 49 -33 128q0 43 10 87.5t31.5 87.5t52 76t76.5 53.5t100 20.5zM299 449q-83 0 -130.5 -79t-47.5 -180q0 -32 8 -59
l253 289q-31 29 -83 29zM234 57q58 0 101 45t61 103t18 116q0 32 -8 58l-254 -290q29 -32 82 -32z" />
    <glyph glyph-name="ugrave" unicode="&#xf9;" horiz-adv-x="542" 
d="M520 507l-79 -371q-13 -60 -26 -136h-81q2 36 14 87q-57 -97 -170 -97q-74 0 -109 45.5t-15 141.5l72 330h81l-68 -322q-6 -33 -6.5 -61t19 -45.5t58.5 -17.5q62 0 107.5 49.5t67.5 152.5l52 244h83zM173 746h96l109 -152h-77z" />
    <glyph glyph-name="uacute" unicode="&#xfa;" horiz-adv-x="542" 
d="M520 507l-79 -371q-13 -60 -26 -136h-81q2 36 14 87q-57 -97 -170 -97q-74 0 -109 45.5t-15 141.5l72 330h81l-68 -322q-6 -33 -6.5 -61t19 -45.5t58.5 -17.5q62 0 107.5 49.5t67.5 152.5l52 244h83zM446 746h114l-201 -152h-90z" />
    <glyph glyph-name="ucircumflex" unicode="&#xfb;" horiz-adv-x="542" 
d="M520 507l-79 -371q-13 -60 -26 -136h-81q2 36 14 87q-57 -97 -170 -97q-74 0 -109 45.5t-15 141.5l72 330h81l-68 -322q-6 -33 -6.5 -61t19 -45.5t58.5 -17.5q62 0 107.5 49.5t67.5 152.5l52 244h83zM329 739h81l72 -143h-79l-43 93l-87 -93h-84z" />
    <glyph glyph-name="udieresis" unicode="&#xfc;" horiz-adv-x="542" 
d="M520 507l-79 -371q-13 -60 -26 -136h-81q2 36 14 87q-57 -97 -170 -97q-74 0 -109 45.5t-15 141.5l72 330h81l-68 -322q-6 -33 -6.5 -61t19 -45.5t58.5 -17.5q62 0 107.5 49.5t67.5 152.5l52 244h83zM283 625h-71l22 109h72zM458 625h-71l23 109h71z" />
    <glyph glyph-name="yacute" unicode="&#xfd;" horiz-adv-x="478" 
d="M58 507h83q49 -353 54 -442h1q1 3 72.5 149t149.5 293h88l-282 -535q-33 -62 -59 -99t-54 -54.5t-51.5 -22.5t-63.5 -5q-34 0 -58 6l17 73q22 -4 46 -4q47 0 73 21.5t62 84.5zM405 743h114l-201 -152h-90z" />
    <glyph glyph-name="thorn" unicode="&#xfe;" horiz-adv-x="563" 
d="M-22 -199l197 933h82l-65 -313q61 96 172 96q77 0 119.5 -50.5t42.5 -137.5q0 -86 -31 -162t-94.5 -126.5t-146.5 -50.5q-54 0 -90 23t-47 54l-56 -266h-83zM153 251q-20 -89 4 -139t98 -50q59 0 102.5 42.5t62.5 100t19 117.5q0 58 -27.5 90t-77.5 32q-68 0 -115 -55
t-66 -138z" />
    <glyph glyph-name="ydieresis" unicode="&#xff;" horiz-adv-x="478" 
d="M58 507h83q49 -353 54 -442h1q1 3 72.5 149t149.5 293h88l-282 -535q-33 -62 -59 -99t-54 -54.5t-51.5 -22.5t-63.5 -5q-34 0 -58 6l17 73q22 -4 46 -4q47 0 73 21.5t62 84.5zM240 625h-71l22 109h72zM415 625h-71l23 109h71z" />
    <glyph glyph-name="Amacron" unicode="&#x100;" horiz-adv-x="615" 
d="M443 213h-268l-115 -213h-93l386 696h105l105 -696h-88zM214 287h222q-40 271 -44 332h-1q-48 -96 -177 -332zM290 842h270l-15 -68h-270z" />
    <glyph glyph-name="amacron" unicode="&#x101;" horiz-adv-x="527" 
d="M469 343l-46 -217q-18 -86 -24 -126h-81q4 34 13 78q-54 -88 -172 -88q-71 0 -105 38t-34 90q0 163 237 186q7 1 123 5l7 34q21 110 -91 110q-40 0 -67 -14t-37 -29.5t-20 -40.5h-85q35 148 216 148q92 0 138.5 -43.5t27.5 -130.5zM365 240l2 8q-77 -3 -104 -6
q-72 -7 -113.5 -31.5t-41.5 -80.5q0 -31 20.5 -51t60.5 -20q76 0 116.5 49t59.5 132zM213 698h266l-15 -70h-267z" />
    <glyph glyph-name="Abreve" unicode="&#x102;" horiz-adv-x="615" 
d="M443 213h-268l-115 -213h-93l386 696h105l105 -696h-88zM214 287h222q-40 271 -44 332h-1q-48 -96 -177 -332zM286 878h64q2 -64 70 -64q69 0 98 64h65q-47 -126 -171 -126q-69 0 -99 37t-27 89z" />
    <glyph glyph-name="abreve" unicode="&#x103;" horiz-adv-x="527" 
d="M469 343l-46 -217q-18 -86 -24 -126h-81q4 34 13 78q-54 -88 -172 -88q-71 0 -105 38t-34 90q0 163 237 186q7 1 123 5l7 34q21 110 -91 110q-40 0 -67 -14t-37 -29.5t-20 -40.5h-85q35 148 216 148q92 0 138.5 -43.5t27.5 -130.5zM365 240l2 8q-77 -3 -104 -6
q-72 -7 -113.5 -31.5t-41.5 -80.5q0 -31 20.5 -51t60.5 -20q76 0 116.5 49t59.5 132zM211 722h63q-2 -67 61 -67q25 0 44.5 12t27.5 23.5t18 31.5h63q-43 -130 -161 -130q-66 0 -94.5 38.5t-21.5 91.5z" />
    <glyph glyph-name="Aogonek" unicode="&#x104;" horiz-adv-x="615" 
d="M443 213h-268l-115 -213h-93l386 696h105l105 -696h-5q-76 -63 -76 -111t54 -48q31 0 56 10l-12 -65q-28 -14 -75 -14q-50 0 -78 25t-28 69q0 68 78 134h-2zM214 287h222q-40 271 -44 332h-1q-48 -96 -177 -332z" />
    <glyph glyph-name="aogonek" unicode="&#x105;" horiz-adv-x="527" 
d="M469 343l-46 -217q-18 -86 -24 -126h-3q-76 -63 -76 -111t54 -48q31 0 56 10l-12 -65q-28 -14 -75 -14q-50 0 -78 25t-28 69q0 68 81 137q3 31 13 75q-54 -88 -172 -88q-71 0 -105 38t-34 90q0 163 237 186q7 1 123 5l7 34q21 110 -91 110q-40 0 -67 -14t-37 -29.5
t-20 -40.5h-85q35 148 216 148q92 0 138.5 -43.5t27.5 -130.5zM365 240l2 8q-77 -3 -104 -6q-72 -7 -113.5 -31.5t-41.5 -80.5q0 -31 20.5 -51t60.5 -20q76 0 116.5 49t59.5 132z" />
    <glyph glyph-name="Cacute" unicode="&#x106;" horiz-adv-x="653" 
d="M523 206h92q-82 -215 -304 -215q-126 0 -189.5 77.5t-63.5 202.5q0 63 13.5 124t42 117.5t69.5 99.5t100.5 68.5t129.5 25.5q111 0 175.5 -59t69.5 -162h-90q-6 68 -46 108t-118 40q-80 0 -139 -54t-86.5 -134.5t-27.5 -171.5q0 -93 41.5 -151t129.5 -58q136 0 201 142z
M549 905h123l-210 -137h-94z" />
    <glyph glyph-name="cacute" unicode="&#x107;" horiz-adv-x="501" 
d="M362 152h83q-57 -162 -225 -162q-90 0 -137 53.5t-47 144.5q0 81 27.5 153.5t89 124t145.5 51.5q51 0 88.5 -17t56.5 -43.5t26.5 -55t5.5 -56.5h-81q-4 104 -101 104q-81 0 -126 -80t-45 -175q0 -136 110 -136q85 0 130 94zM438 746h114l-201 -152h-90z" />
    <glyph glyph-name="Ccircumflex" unicode="&#x108;" horiz-adv-x="653" 
d="M523 206h92q-82 -215 -304 -215q-126 0 -189.5 77.5t-63.5 202.5q0 63 13.5 124t42 117.5t69.5 99.5t100.5 68.5t129.5 25.5q111 0 175.5 -59t69.5 -162h-90q-6 68 -46 108t-118 40q-80 0 -139 -54t-86.5 -134.5t-27.5 -171.5q0 -93 41.5 -151t129.5 -58q136 0 201 142z
M415 891h84l103 -129h-84l-67 81l-102 -81h-92z" />
    <glyph glyph-name="ccircumflex" unicode="&#x109;" horiz-adv-x="501" 
d="M362 152h83q-57 -162 -225 -162q-90 0 -137 53.5t-47 144.5q0 81 27.5 153.5t89 124t145.5 51.5q51 0 88.5 -17t56.5 -43.5t26.5 -55t5.5 -56.5h-81q-4 104 -101 104q-81 0 -126 -80t-45 -175q0 -136 110 -136q85 0 130 94zM315 739h81l72 -143h-79l-43 93l-87 -93h-84z
" />
    <glyph glyph-name="Cdotaccent" unicode="&#x10a;" horiz-adv-x="653" 
d="M523 206h92q-82 -215 -304 -215q-126 0 -189.5 77.5t-63.5 202.5q0 63 13.5 124t42 117.5t69.5 99.5t100.5 68.5t129.5 25.5q111 0 175.5 -59t69.5 -162h-90q-6 68 -46 108t-118 40q-80 0 -139 -54t-86.5 -134.5t-27.5 -171.5q0 -93 41.5 -151t129.5 -58q136 0 201 142z
M466 783h-83l23 109h83z" />
    <glyph glyph-name="cdotaccent" unicode="&#x10b;" horiz-adv-x="501" 
d="M362 152h83q-57 -162 -225 -162q-90 0 -137 53.5t-47 144.5q0 81 27.5 153.5t89 124t145.5 51.5q51 0 88.5 -17t56.5 -43.5t26.5 -55t5.5 -56.5h-81q-4 104 -101 104q-81 0 -126 -80t-45 -175q0 -136 110 -136q85 0 130 94zM362 625h-84l23 109h83z" />
    <glyph glyph-name="Ccaron" unicode="&#x10c;" horiz-adv-x="653" 
d="M523 206h92q-82 -215 -304 -215q-126 0 -189.5 77.5t-63.5 202.5q0 63 13.5 124t42 117.5t69.5 99.5t100.5 68.5t129.5 25.5q111 0 175.5 -59t69.5 -162h-90q-6 68 -46 108t-118 40q-80 0 -139 -54t-86.5 -134.5t-27.5 -171.5q0 -93 41.5 -151t129.5 -58q136 0 201 142z
M469 767h-85l-102 126h84l67 -81l100 81h94z" />
    <glyph glyph-name="ccaron" unicode="&#x10d;" horiz-adv-x="501" 
d="M362 152h83q-57 -162 -225 -162q-90 0 -137 53.5t-47 144.5q0 81 27.5 153.5t89 124t145.5 51.5q51 0 88.5 -17t56.5 -43.5t26.5 -55t5.5 -56.5h-81q-4 104 -101 104q-81 0 -126 -80t-45 -175q0 -136 110 -136q85 0 130 94zM358 589h-81l-75 142h77l46 -95l85 95h85z" />
    <glyph glyph-name="Dcaron" unicode="&#x10e;" horiz-adv-x="705" 
d="M32 0l147 696h201q134 0 212.5 -79t78.5 -215q0 -176 -106 -289t-285 -113h-248zM250 623l-115 -550h143q140 0 220 89.5t80 238.5q1 105 -53.5 163.5t-155.5 58.5h-119zM434 761h-85l-102 126h84l67 -81l100 81h94z" />
    <glyph glyph-name="dcaron" unicode="&#x10f;" horiz-adv-x="628" 
d="M506 734h82l-125 -593q-19 -90 -28 -141h-81q2 23 14 80q-58 -90 -168 -90q-79 0 -121.5 54t-42.5 143q0 78 28.5 151.5t91 126t146.5 52.5q58 0 94.5 -24.5t46.5 -54.5zM303 444q-56 0 -98.5 -39.5t-62 -95t-19.5 -114.5q0 -132 106 -132q74 0 119 57.5t63 149.5
q17 82 -9.5 128t-98.5 46zM664 734h74l-59 -249h-66z" />
    <glyph glyph-name="Dcroat" unicode="&#x110;" horiz-adv-x="715" 
d="M31 391h94l64 305h201q134 0 212.5 -79t78.5 -215q0 -176 -106 -289t-285 -113h-248l69 328h-94zM260 623l-49 -232h192l-14 -63h-191l-53 -255h143q140 0 220 89.5t80 238.5q1 105 -53.5 163.5t-155.5 58.5h-119z" />
    <glyph glyph-name="dcroat" unicode="&#x111;" horiz-adv-x="564" 
d="M240 647h244l19 87h83l-18 -87h59l-13 -58h-59l-95 -448q-19 -90 -28 -141h-80q2 30 13 80q-58 -90 -171 -90q-77 0 -118 52t-41 143q0 58 17.5 115.5t50 105.5t85 78t116.5 30q58 0 92 -24.5t43 -53.5l33 153h-245zM306 440q-86 0 -135 -76t-49 -174q-1 -59 25.5 -92.5
t75.5 -33.5q75 0 120 56.5t64 147.5q35 172 -101 172z" />
    <glyph glyph-name="Emacron" unicode="&#x112;" horiz-adv-x="568" 
d="M528 404l-16 -74h-325l-53 -256h371l-27 -74h-446l147 696h428l-15 -74h-342l-47 -218h325zM283 856h270l-15 -68h-270z" />
    <glyph glyph-name="emacron" unicode="&#x113;" horiz-adv-x="514" 
d="M469 241h-346q-4 -40 -4 -48q0 -64 29.5 -99t82.5 -35q86 0 131 84h86q-64 -153 -227 -153q-92 0 -139 54.5t-47 146.5q0 56 15.5 111.5t46.5 104.5t84 79.5t120 30.5q95 0 138 -51.5t43 -129.5q0 -46 -13 -95zM137 304h261q3 13 3 37q0 109 -105 109q-57 0 -98 -38
t-61 -108zM206 698h266l-15 -70h-267z" />
    <glyph glyph-name="Ebreve" unicode="&#x114;" horiz-adv-x="568" 
d="M528 404l-16 -74h-325l-53 -256h371l-27 -74h-446l147 696h428l-15 -74h-342l-47 -218h325zM268 886h64q2 -64 70 -64q69 0 98 64h65q-47 -126 -171 -126q-69 0 -99 37t-27 89z" />
    <glyph glyph-name="ebreve" unicode="&#x115;" horiz-adv-x="514" 
d="M469 241h-346q-4 -40 -4 -48q0 -64 29.5 -99t82.5 -35q86 0 131 84h86q-64 -153 -227 -153q-92 0 -139 54.5t-47 146.5q0 56 15.5 111.5t46.5 104.5t84 79.5t120 30.5q95 0 138 -51.5t43 -129.5q0 -46 -13 -95zM137 304h261q3 13 3 37q0 109 -105 109q-57 0 -98 -38
t-61 -108zM205 724h63q-2 -67 61 -67q25 0 44.5 12t27.5 23.5t18 31.5h63q-43 -130 -161 -130q-66 0 -94.5 38.5t-21.5 91.5z" />
    <glyph glyph-name="Edotaccent" unicode="&#x116;" horiz-adv-x="568" 
d="M528 404l-16 -74h-325l-53 -256h371l-27 -74h-446l147 696h428l-15 -74h-342l-47 -218h325zM437 778h-83l23 109h83z" />
    <glyph glyph-name="edotaccent" unicode="&#x117;" horiz-adv-x="514" 
d="M469 241h-346q-4 -40 -4 -48q0 -64 29.5 -99t82.5 -35q86 0 131 84h86q-64 -153 -227 -153q-92 0 -139 54.5t-47 146.5q0 56 15.5 111.5t46.5 104.5t84 79.5t120 30.5q95 0 138 -51.5t43 -129.5q0 -46 -13 -95zM137 304h261q3 13 3 37q0 109 -105 109q-57 0 -98 -38
t-61 -108zM355 625h-84l23 109h83z" />
    <glyph glyph-name="Eogonek" unicode="&#x118;" horiz-adv-x="568" 
d="M528 404l-16 -74h-325l-53 -256h371l-27 -74h-42q-76 -63 -76 -111t54 -48q31 0 56 10l-12 -65q-28 -14 -75 -14q-50 0 -78 25t-28 69q0 68 78 134h-323l147 696h428l-15 -74h-342l-47 -218h325z" />
    <glyph glyph-name="eogonek" unicode="&#x119;" horiz-adv-x="514" 
d="M469 241h-346q-4 -40 -4 -48q0 -64 29.5 -99t82.5 -35q86 0 131 84h86q-48 -115 -152 -144q-75 -62 -75 -110t54 -48q31 0 56 10l-12 -65q-28 -14 -75 -14q-50 0 -78 25t-28 69q0 64 67 124q-84 5 -127 59.5t-43 141.5q0 56 15.5 111.5t46.5 104.5t84 79.5t120 30.5
q95 0 138 -51.5t43 -129.5q0 -46 -13 -95zM137 304h261q3 13 3 37q0 109 -105 109q-57 0 -98 -38t-61 -108z" />
    <glyph glyph-name="Ecaron" unicode="&#x11a;" horiz-adv-x="568" 
d="M528 404l-16 -74h-325l-53 -256h371l-27 -74h-446l147 696h428l-15 -74h-342l-47 -218h325zM436 763h-85l-102 126h84l67 -81l100 81h94z" />
    <glyph glyph-name="ecaron" unicode="&#x11b;" horiz-adv-x="514" 
d="M469 241h-346q-4 -40 -4 -48q0 -64 29.5 -99t82.5 -35q86 0 131 84h86q-64 -153 -227 -153q-92 0 -139 54.5t-47 146.5q0 56 15.5 111.5t46.5 104.5t84 79.5t120 30.5q95 0 138 -51.5t43 -129.5q0 -46 -13 -95zM137 304h261q3 13 3 37q0 109 -105 109q-57 0 -98 -38
t-61 -108zM358 592h-81l-75 142h77l46 -95l85 95h85z" />
    <glyph glyph-name="Gcircumflex" unicode="&#x11c;" horiz-adv-x="700" 
d="M654 376l-77 -376h-70q1 27 16 106q-37 -57 -88 -86t-134 -29q-116 0 -178.5 76.5t-62.5 200.5q0 82 23.5 158.5t68 140t117 101.5t162.5 38q112 0 179.5 -59t69.5 -154h-85q-7 61 -50.5 100.5t-125.5 39.5q-84 0 -146.5 -53.5t-92 -133t-29.5 -169.5q0 -96 42.5 -154.5
t129.5 -58.5q54 0 95 18.5t67.5 52.5t42 72.5t26.5 88.5l1 3h-204l16 77h287zM429 887h84l103 -129h-84l-67 81l-102 -81h-92z" />
    <glyph glyph-name="gcircumflex" unicode="&#x11d;" horiz-adv-x="557" 
d="M507 373l-69 -323q-28 -134 -82 -196.5t-177 -62.5q-189 0 -189 153h84q0 -38 28 -62.5t86 -24.5q74 0 109.5 46t58.5 146l10 45q-56 -92 -164 -92q-76 0 -120.5 51.5t-44.5 143.5q0 78 28.5 150t89 121t139.5 49q61 0 97.5 -25t45.5 -57q14 55 21 72h79
q-16 -64 -30 -134zM299 446q-81 0 -128 -73t-47 -170q0 -129 107 -129q67 0 111 54t63 140q17 79 -7.5 128.5t-98.5 49.5zM332 742h81l72 -143h-79l-43 93l-87 -93h-84z" />
    <glyph glyph-name="Gbreve" unicode="&#x11e;" horiz-adv-x="700" 
d="M654 376l-77 -376h-70q1 27 16 106q-37 -57 -88 -86t-134 -29q-116 0 -178.5 76.5t-62.5 200.5q0 82 23.5 158.5t68 140t117 101.5t162.5 38q112 0 179.5 -59t69.5 -154h-85q-7 61 -50.5 100.5t-125.5 39.5q-84 0 -146.5 -53.5t-92 -133t-29.5 -169.5q0 -96 42.5 -154.5
t129.5 -58.5q54 0 95 18.5t67.5 52.5t42 72.5t26.5 88.5l1 3h-204l16 77h287zM315 889h64q2 -64 70 -64q69 0 98 64h65q-47 -126 -171 -126q-69 0 -99 37t-27 89z" />
    <glyph glyph-name="gbreve" unicode="&#x11f;" horiz-adv-x="557" 
d="M507 373l-69 -323q-28 -134 -82 -196.5t-177 -62.5q-189 0 -189 153h84q0 -38 28 -62.5t86 -24.5q74 0 109.5 46t58.5 146l10 45q-56 -92 -164 -92q-76 0 -120.5 51.5t-44.5 143.5q0 78 28.5 150t89 121t139.5 49q61 0 97.5 -25t45.5 -57q14 55 21 72h79
q-16 -64 -30 -134zM299 446q-81 0 -128 -73t-47 -170q0 -129 107 -129q67 0 111 54t63 140q17 79 -7.5 128.5t-98.5 49.5zM226 723h63q-2 -67 61 -67q25 0 44.5 12t27.5 23.5t18 31.5h63q-43 -130 -161 -130q-66 0 -94.5 38.5t-21.5 91.5z" />
    <glyph glyph-name="Gdotaccent" unicode="&#x120;" horiz-adv-x="700" 
d="M654 376l-77 -376h-70q1 27 16 106q-37 -57 -88 -86t-134 -29q-116 0 -178.5 76.5t-62.5 200.5q0 82 23.5 158.5t68 140t117 101.5t162.5 38q112 0 179.5 -59t69.5 -154h-85q-7 61 -50.5 100.5t-125.5 39.5q-84 0 -146.5 -53.5t-92 -133t-29.5 -169.5q0 -96 42.5 -154.5
t129.5 -58.5q54 0 95 18.5t67.5 52.5t42 72.5t26.5 88.5l1 3h-204l16 77h287zM492 778h-83l23 109h83z" />
    <glyph glyph-name="gdotaccent" unicode="&#x121;" horiz-adv-x="557" 
d="M507 373l-69 -323q-28 -134 -82 -196.5t-177 -62.5q-189 0 -189 153h84q0 -38 28 -62.5t86 -24.5q74 0 109.5 46t58.5 146l10 45q-56 -92 -164 -92q-76 0 -120.5 51.5t-44.5 143.5q0 78 28.5 150t89 121t139.5 49q61 0 97.5 -25t45.5 -57q14 55 21 72h79
q-16 -64 -30 -134zM299 446q-81 0 -128 -73t-47 -170q0 -129 107 -129q67 0 111 54t63 140q17 79 -7.5 128.5t-98.5 49.5zM376 625h-84l23 109h83z" />
    <glyph glyph-name="uni0122" unicode="&#x122;" horiz-adv-x="700" 
d="M654 376l-77 -376h-70q1 27 16 106q-37 -57 -88 -86t-134 -29q-116 0 -178.5 76.5t-62.5 200.5q0 82 23.5 158.5t68 140t117 101.5t162.5 38q112 0 179.5 -59t69.5 -154h-85q-7 61 -50.5 100.5t-125.5 39.5q-84 0 -146.5 -53.5t-92 -133t-29.5 -169.5q0 -96 42.5 -154.5
t129.5 -58.5q54 0 95 18.5t67.5 52.5t42 72.5t26.5 88.5l1 3h-204l16 77h287zM240 -259h-79q36 44 64 97t38 96h87q-16 -60 -48 -113.5t-62 -79.5z" />
    <glyph glyph-name="uni0123" unicode="&#x123;" horiz-adv-x="557" 
d="M408 784h78q-85 -93 -121 -201h-86q17 53 55.5 112.5t73.5 88.5zM507 373l-69 -323q-28 -134 -82 -196.5t-177 -62.5q-189 0 -189 153h84q0 -38 28 -62.5t86 -24.5q74 0 109.5 46t58.5 146l10 45q-56 -92 -164 -92q-76 0 -120.5 51.5t-44.5 143.5q0 78 28.5 150t89 121
t139.5 49q61 0 97.5 -25t45.5 -57q14 55 21 72h79q-16 -64 -30 -134zM299 446q-81 0 -128 -73t-47 -170q0 -129 107 -129q67 0 111 54t63 140q17 79 -7.5 128.5t-98.5 49.5z" />
    <glyph glyph-name="Hcircumflex" unicode="&#x124;" horiz-adv-x="698" 
d="M32 0l147 696h87l-61 -287h350l61 287h87l-147 -696h-87l70 335h-350l-70 -335h-87zM429 887h84l103 -129h-84l-67 81l-102 -81h-92z" />
    <glyph glyph-name="hcircumflex" unicode="&#x125;" horiz-adv-x="551" 
d="M202 885h85l85 -109h-76l-58 66l-82 -66h-85zM21 0l155 734h83l-66 -308q64 91 169 91q31 0 56.5 -8.5t48 -30t27.5 -58.5t-4 -94l-68 -326h-83l66 313q14 66 -4 98.5t-73 32.5q-61 0 -105 -45.5t-60 -118.5l-60 -280h-82z" />
    <glyph glyph-name="Hbar" unicode="&#x126;" horiz-adv-x="698" 
d="M201 397h353l22 105h-353zM32 0l106 502h-63l15 66h62l27 128h86l-27 -128h352l27 128h86l-27 -128h59l-14 -66h-59l-106 -502h-86l68 323h-352l-68 -323h-86z" />
    <glyph glyph-name="hbar" unicode="&#x127;" horiz-adv-x="551" 
d="M21 0l124 589h-71l12 58h72l18 87h83l-18 -87h226l-13 -58h-226l-35 -167q61 92 169 92q68 0 108.5 -43.5t19.5 -147.5l-68 -323h-83l65 309q14 66 -3.5 98.5t-72.5 32.5q-62 0 -106 -45t-59 -119l-60 -276h-82z" />
    <glyph glyph-name="Itilde" unicode="&#x128;" horiz-adv-x="261" 
d="M180 696h87l-147 -696h-88zM133 762h-60l4 25q8 51 30.5 70t59.5 19q32 0 81.5 -25.5t64.5 -25.5t23.5 9.5t12.5 33.5l1 9h61l-5 -28q-9 -51 -31.5 -70.5t-61.5 -19.5q-30 0 -77.5 25.5t-65.5 25.5q-28 0 -33 -30z" />
    <glyph glyph-name="itilde" unicode="&#x129;" horiz-adv-x="232" 
d="M21 0l107 507h83l-108 -507h-82zM96 608h-60l5 25q9 50 31 69t60 19q29 0 72.5 -24.5t56.5 -24.5q25 0 33 42l2 10h59l-4 -22q-9 -53 -31 -74t-59 -21q-27 0 -70 25t-60 25q-23 0 -31 -33z" />
    <glyph glyph-name="Imacron" unicode="&#x12a;" horiz-adv-x="261" 
d="M180 696h87l-147 -696h-88zM113 848h270l-15 -68h-270z" />
    <glyph glyph-name="imacron" unicode="&#x12b;" horiz-adv-x="232" 
d="M21 0l107 507h83l-108 -507h-82zM65 698h266l-15 -70h-267z" />
    <glyph glyph-name="Iogonek" unicode="&#x12e;" horiz-adv-x="261" 
d="M180 696h87l-147 -696h-5q-76 -63 -76 -111t54 -48q31 0 56 10l-12 -65q-28 -14 -75 -14q-50 0 -78 25t-28 69q0 68 78 134h-2z" />
    <glyph glyph-name="iogonek" unicode="&#x12f;" horiz-adv-x="232" 
d="M121 -214q-28 -14 -75 -14q-50 0 -78 25t-28 69q0 70 82 137l106 504h83l-108 -507h-4q-76 -63 -76 -111t54 -48q31 0 56 10zM153 625l23 109h83l-23 -109h-83z" />
    <glyph glyph-name="Idotaccent" unicode="&#x130;" horiz-adv-x="261" 
d="M180 696h87l-147 -696h-88zM277 773h-83l23 109h83z" />
    <glyph glyph-name="dotlessi" unicode="&#x131;" horiz-adv-x="232" 
d="M21 0l107 507h83l-108 -507h-82z" />
    <glyph glyph-name="Jcircumflex" unicode="&#x134;" horiz-adv-x="337" 
d="M153 182l109 514h87l-111 -520q-20 -96 -63.5 -141t-130.5 -45q-50 0 -80 10l17 71q25 -7 64 -7q51 0 73 30.5t35 87.5zM295 887h84l103 -129h-84l-67 81l-102 -81h-92z" />
    <glyph glyph-name="jcircumflex" unicode="&#x135;" horiz-adv-x="232" 
d="M128 507h83l-115 -539q-19 -92 -55 -134.5t-111 -42.5q-21 0 -49 4l18 72q18 -2 25 -2q43 0 60 23.5t31 87.5zM173 750h81l72 -143h-79l-43 93l-87 -93h-84z" />
    <glyph glyph-name="uni0136" unicode="&#x136;" horiz-adv-x="602" 
d="M32 0l147 696h86l-73 -341q22 20 175 150t222 191h112l-350 -297l219 -399h-98l-188 347l-111 -84l-54 -263h-87zM205 -253h-79q36 44 64 97t38 96h87q-16 -60 -48 -113.5t-62 -79.5z" />
    <glyph glyph-name="uni0137" unicode="&#x137;" horiz-adv-x="481" 
d="M258 734l-99 -460q25 23 126.5 111t139.5 122h105q-40 -36 -227 -197l134 -310h-94l-106 258l-95 -74l-39 -184h-83l156 734h82zM141 -246h-79q36 44 64 97t38 96h87q-16 -60 -48 -113.5t-62 -79.5z" />
    <glyph glyph-name="kgreenlandic" unicode="&#x138;" horiz-adv-x="481" 
d="M210 507l-51 -237q29 28 135.5 122t129.5 115h105q-112 -99 -230 -201l138 -306h-93l-110 256l-93 -74l-38 -182h-83l107 507h83z" />
    <glyph glyph-name="Lacute" unicode="&#x139;" horiz-adv-x="530" 
d="M32 0l147 696h87l-132 -622h349l-26 -74h-425zM364 895h123l-210 -137h-94z" />
    <glyph glyph-name="lacute" unicode="&#x13a;" horiz-adv-x="232" 
d="M328 896h111l-172 -110h-89zM103 0h-82l155 734h83z" />
    <glyph glyph-name="uni013B" unicode="&#x13b;" horiz-adv-x="530" 
d="M32 0l147 696h87l-132 -622h349l-26 -74h-425zM184 -259h-79q36 44 64 97t38 96h87q-16 -60 -48 -113.5t-62 -79.5z" />
    <glyph glyph-name="uni013C" unicode="&#x13c;" horiz-adv-x="232" 
d="M103 0h-82l155 734h83zM-16 -254h-79q36 44 64 97t38 96h87q-16 -60 -48 -113.5t-62 -79.5z" />
    <glyph glyph-name="Lcaron" unicode="&#x13d;" horiz-adv-x="530" 
d="M32 0l147 696h87l-132 -622h349l-26 -74h-425zM411 696h74l-59 -249h-66z" />
    <glyph glyph-name="lcaron" unicode="&#x13e;" horiz-adv-x="304" 
d="M103 0h-82l155 734h83zM338 735h74l-59 -249h-66z" />
    <glyph glyph-name="Ldot" unicode="&#x13f;" horiz-adv-x="530" 
d="M424 299h-85l31 144h85zM32 0l147 696h87l-132 -622h349l-26 -74h-425z" />
    <glyph glyph-name="ldot" unicode="&#x140;" horiz-adv-x="277" 
d="M315 366h-78l31 141h77zM103 0h-82l155 734h83z" />
    <glyph glyph-name="Lslash" unicode="&#x141;" horiz-adv-x="540" 
d="M379 411l-177 -62l-58 -275h349l-26 -74h-425l67 317l-99 -35l15 69l98 35l66 310h87l-59 -277l176 62z" />
    <glyph glyph-name="lslash" unicode="&#x142;" horiz-adv-x="241" 
d="M113 0h-82l78 369l-75 -33l15 72l75 33l62 293h83l-54 -253l83 37l-16 -73l-82 -36z" />
    <glyph glyph-name="Nacute" unicode="&#x143;" horiz-adv-x="712" 
d="M115 0h-84l148 696h113q18 -48 74.5 -198t96 -257.5t47.5 -140.5h1q7 52 64 321l58 275h84l-147 -696h-108q-196 526 -221 611h-1q-13 -84 -66 -329zM558 886h123l-210 -137h-94z" />
    <glyph glyph-name="nacute" unicode="&#x144;" horiz-adv-x="551" 
d="M21 0l80 378q6 30 25 129h81q-2 -29 -15 -86q61 96 170 96q78 0 113 -48.5t13 -151.5l-66 -317h-83l66 315q29 129 -78 129q-66 0 -109 -53t-61 -137l-54 -254h-82zM453 746h114l-201 -152h-90z" />
    <glyph glyph-name="uni0145" unicode="&#x145;" horiz-adv-x="712" 
d="M115 0h-84l148 696h113q18 -48 74.5 -198t96 -257.5t47.5 -140.5h1q7 52 64 321l58 275h84l-147 -696h-108q-196 526 -221 611h-1q-13 -84 -66 -329zM233 -253h-79q36 44 64 97t38 96h87q-16 -60 -48 -113.5t-62 -79.5z" />
    <glyph glyph-name="uni0146" unicode="&#x146;" horiz-adv-x="551" 
d="M21 0l80 378q6 30 25 129h81q-2 -29 -15 -86q61 96 170 96q78 0 113 -48.5t13 -151.5l-66 -317h-83l66 315q29 129 -78 129q-66 0 -109 -53t-61 -137l-54 -254h-82zM150 -246h-79q36 44 64 97t38 96h87q-16 -60 -48 -113.5t-62 -79.5z" />
    <glyph glyph-name="Ncaron" unicode="&#x147;" horiz-adv-x="712" 
d="M115 0h-84l148 696h113q18 -48 74.5 -198t96 -257.5t47.5 -140.5h1q7 52 64 321l58 275h84l-147 -696h-108q-196 526 -221 611h-1q-13 -84 -66 -329zM492 741h-85l-102 126h84l67 -81l100 81h94z" />
    <glyph glyph-name="ncaron" unicode="&#x148;" horiz-adv-x="551" 
d="M21 0l80 378q6 30 25 129h81q-2 -29 -15 -86q61 96 170 96q78 0 113 -48.5t13 -151.5l-66 -317h-83l66 315q29 129 -78 129q-66 0 -109 -53t-61 -137l-54 -254h-82zM376 589h-81l-75 142h77l46 -95l85 95h85z" />
    <glyph glyph-name="napostrophe" unicode="&#x149;" horiz-adv-x="551" 
d="M128 581h-70q72 105 94 201h80q-14 -56 -44.5 -113.5t-59.5 -87.5zM21 0l80 378q6 30 25 129h81q-2 -29 -15 -86q61 96 170 96q78 0 113 -48.5t13 -151.5l-66 -317h-83l66 315q29 129 -78 129q-66 0 -109 -53t-61 -137l-54 -254h-82z" />
    <glyph glyph-name="Omacron" unicode="&#x14c;" horiz-adv-x="726" 
d="M426 706q128 0 196.5 -77t68.5 -211q0 -79 -22.5 -153t-65.5 -136.5t-115.5 -100.5t-164.5 -38q-126 0 -194.5 77t-68.5 203q0 79 23.5 155t67.5 139.5t115.5 102.5t159.5 39zM420 633q-66 0 -119 -33t-85 -86t-49 -115.5t-17 -125.5q0 -94 46.5 -152t137.5 -58
q86 0 148.5 55t90.5 134t28 168q0 98 -46 155.5t-135 57.5zM322 859h270l-15 -68h-270z" />
    <glyph glyph-name="omacron" unicode="&#x14d;" horiz-adv-x="536" 
d="M305 517q88 0 140 -55t52 -154q0 -53 -15.5 -106.5t-46 -102t-84.5 -79t-124 -30.5q-91 0 -140.5 54t-49.5 150q0 55 16.5 110.5t48 103.5t85 78.5t118.5 30.5zM297 448q-55 0 -96.5 -41.5t-60 -98t-18.5 -113.5q0 -64 29.5 -100t84.5 -36q57 0 99 41.5t59.5 97
t17.5 113.5q0 65 -29 101t-86 36zM209 698h266l-15 -70h-267z" />
    <glyph glyph-name="Ohungarumlaut" unicode="&#x150;" horiz-adv-x="726" 
d="M426 706q128 0 196.5 -77t68.5 -211q0 -79 -22.5 -153t-65.5 -136.5t-115.5 -100.5t-164.5 -38q-126 0 -194.5 77t-68.5 203q0 79 23.5 155t67.5 139.5t115.5 102.5t159.5 39zM420 633q-66 0 -119 -33t-85 -86t-49 -115.5t-17 -125.5q0 -94 46.5 -152t137.5 -58
q86 0 148.5 55t90.5 134t28 168q0 98 -46 155.5t-135 57.5zM439 901h99l-165 -137h-81zM624 901h97l-164 -137h-82z" />
    <glyph glyph-name="ohungarumlaut" unicode="&#x151;" horiz-adv-x="536" 
d="M305 517q88 0 140 -55t52 -154q0 -53 -15.5 -106.5t-46 -102t-84.5 -79t-124 -30.5q-91 0 -140.5 54t-49.5 150q0 55 16.5 110.5t48 103.5t85 78.5t118.5 30.5zM297 448q-55 0 -96.5 -41.5t-60 -98t-18.5 -113.5q0 -64 29.5 -100t84.5 -36q57 0 99 41.5t59.5 97
t17.5 113.5q0 65 -29 101t-86 36zM420 734l-158 -154h-79l144 154h93zM598 734l-159 -154h-78l144 154h93z" />
    <glyph glyph-name="OE" unicode="&#x152;" horiz-adv-x="991" 
d="M471 75l115 545q-39 7 -104 7q-148 0 -237.5 -90.5t-89.5 -236.5q0 -107 60.5 -168.5t166.5 -61.5q54 0 89 5zM1032 696l-16 -74h-342l-47 -218h327l-16 -74h-327l-54 -256h370l-28 -74h-423q-11 0 -47.5 -2t-60.5 -2q-145 0 -224.5 85.5t-79.5 214.5q0 176 115 290.5
t318 114.5q39 0 86 -3l47 -2h402z" />
    <glyph glyph-name="oe" unicode="&#x153;" horiz-adv-x="881" 
d="M588 -10q-124 0 -160 106q-73 -106 -202 -106q-90 0 -140 55t-50 152q0 54 17 108.5t49 102.5t85.5 78.5t118.5 30.5q125 0 167 -109q71 109 196 109q94 0 137 -51.5t43 -129.5q0 -46 -13 -95h-346q-4 -40 -4 -48q0 -64 29.5 -99t82.5 -35q86 0 131 84h86
q-64 -153 -227 -153zM504 304h261q4 17 4 36q0 52 -27.5 81t-79.5 29q-56 0 -97 -38.5t-61 -107.5zM299 448q-81 0 -129 -81.5t-48 -170.5q0 -64 29 -100.5t84 -36.5q57 0 99 43t59.5 98t17.5 110q0 65 -28.5 101.5t-83.5 36.5z" />
    <glyph glyph-name="Racute" unicode="&#x154;" horiz-adv-x="618" 
d="M330 311h-146l-65 -311h-87l147 696h234q96 0 146.5 -45.5t50.5 -123.5q0 -75 -41 -122t-112 -63q100 -37 71 -174q-30 -139 -27 -168h-82q-5 47 24 165q16 76 -10 111t-103 35zM250 623l-50 -239h137q183 0 183 134q0 105 -124 105h-146zM506 895h123l-210 -137h-94z
" />
    <glyph glyph-name="racute" unicode="&#x155;" horiz-adv-x="342" 
d="M365 517l-18 -86q-73 -5 -124 -56.5t-69 -137.5l-51 -237h-82l76 357q23 116 29 150h80q-3 -38 -19 -107q28 55 74.5 86t103.5 31zM368 746h114l-201 -152h-90z" />
    <glyph glyph-name="uni0156" unicode="&#x156;" horiz-adv-x="618" 
d="M330 311h-146l-65 -311h-87l147 696h234q96 0 146.5 -45.5t50.5 -123.5q0 -75 -41 -122t-112 -63q100 -37 71 -174q-30 -139 -27 -168h-82q-5 47 24 165q16 76 -10 111t-103 35zM250 623l-50 -239h137q183 0 183 134q0 105 -124 105h-146zM200 -243h-79q36 44 64 97
t38 96h87q-16 -60 -48 -113.5t-62 -79.5z" />
    <glyph glyph-name="uni0157" unicode="&#x157;" horiz-adv-x="342" 
d="M365 517l-18 -86q-73 -5 -124 -56.5t-69 -137.5l-51 -237h-82l76 357q23 116 29 150h80q-3 -38 -19 -107q28 55 74.5 86t103.5 31zM-10 -254h-79q36 44 64 97t38 96h87q-16 -60 -48 -113.5t-62 -79.5z" />
    <glyph glyph-name="Rcaron" unicode="&#x158;" horiz-adv-x="618" 
d="M330 311h-146l-65 -311h-87l147 696h234q96 0 146.5 -45.5t50.5 -123.5q0 -75 -41 -122t-112 -63q100 -37 71 -174q-30 -139 -27 -168h-82q-5 47 24 165q16 76 -10 111t-103 35zM250 623l-50 -239h137q183 0 183 134q0 105 -124 105h-146zM433 758h-85l-102 126h84
l67 -81l100 81h94z" />
    <glyph glyph-name="rcaron" unicode="&#x159;" horiz-adv-x="342" 
d="M365 517l-18 -86q-73 -5 -124 -56.5t-69 -137.5l-51 -237h-82l76 357q23 116 29 150h80q-3 -38 -19 -107q28 55 74.5 86t103.5 31zM284 589h-81l-75 142h77l46 -95l85 95h85z" />
    <glyph glyph-name="Sacute" unicode="&#x15a;" horiz-adv-x="573" 
d="M23 202h88q6 -69 48 -105t116 -36q71 0 112 32.5t41 94.5q0 49 -30.5 81.5t-112.5 63.5q-96 37 -135.5 77.5t-39.5 101.5q0 82 58.5 138t169.5 56q110 0 165.5 -54.5t56.5 -138.5h-87q-7 58 -39 89.5t-103 31.5q-63 0 -97 -32t-34 -80q0 -38 25.5 -63.5t100.5 -54.5
q106 -39 150 -87t44 -117q0 -90 -62.5 -150t-191.5 -60q-117 0 -179 57.5t-64 154.5zM478 907h123l-210 -137h-94z" />
    <glyph glyph-name="sacute" unicode="&#x15b;" horiz-adv-x="454" 
d="M5 152h85q9 -95 118 -95q50 0 77 22.5t27 59.5q0 34 -24.5 54.5t-81.5 41.5q-80 28 -111 58.5t-31 76.5q0 63 47.5 105t135.5 42q91 0 135.5 -43t42.5 -103h-84q-7 80 -102 80q-41 0 -66 -19t-25 -53q0 -25 22 -41t79 -37q80 -29 114.5 -64t34.5 -87q0 -75 -55 -117.5
t-147 -42.5q-94 0 -142.5 44t-48.5 118zM398 746h114l-201 -152h-90z" />
    <glyph glyph-name="Scircumflex" unicode="&#x15c;" horiz-adv-x="573" 
d="M23 202h88q6 -69 48 -105t116 -36q71 0 112 32.5t41 94.5q0 49 -30.5 81.5t-112.5 63.5q-96 37 -135.5 77.5t-39.5 101.5q0 82 58.5 138t169.5 56q110 0 165.5 -54.5t56.5 -138.5h-87q-7 58 -39 89.5t-103 31.5q-63 0 -97 -32t-34 -80q0 -38 25.5 -63.5t100.5 -54.5
q106 -39 150 -87t44 -117q0 -90 -62.5 -150t-191.5 -60q-117 0 -179 57.5t-64 154.5zM355 893h84l103 -129h-84l-67 81l-102 -81h-92z" />
    <glyph glyph-name="scircumflex" unicode="&#x15d;" horiz-adv-x="454" 
d="M5 152h85q9 -95 118 -95q50 0 77 22.5t27 59.5q0 34 -24.5 54.5t-81.5 41.5q-80 28 -111 58.5t-31 76.5q0 63 47.5 105t135.5 42q91 0 135.5 -43t42.5 -103h-84q-7 80 -102 80q-41 0 -66 -19t-25 -53q0 -25 22 -41t79 -37q80 -29 114.5 -64t34.5 -87q0 -75 -55 -117.5
t-147 -42.5q-94 0 -142.5 44t-48.5 118zM275 739h81l72 -143h-79l-43 93l-87 -93h-84z" />
    <glyph glyph-name="uni015E" unicode="&#x15e;" horiz-adv-x="573" 
d="M23 202h88q6 -69 48 -105t116 -36q71 0 112 32.5t41 94.5q0 49 -30.5 81.5t-112.5 63.5q-96 37 -135.5 77.5t-39.5 101.5q0 82 58.5 138t169.5 56q110 0 165.5 -54.5t56.5 -138.5h-87q-7 58 -39 89.5t-103 31.5q-63 0 -97 -32t-34 -80q0 -38 25.5 -63.5t100.5 -54.5
q106 -39 150 -87t44 -117q0 -86 -56.5 -144.5t-173.5 -64.5l-38 -44q35 -7 61.5 -28t26.5 -59q0 -48 -35.5 -75t-94.5 -27q-48 0 -90 15l16 56q26 -11 68 -11q60 0 60 38q0 43 -102 45l6 27l54 64q-96 11 -146.5 67t-52.5 143z" />
    <glyph glyph-name="uni015F" unicode="&#x15f;" horiz-adv-x="454" 
d="M5 152h85q9 -95 118 -95q50 0 77 22.5t27 59.5q0 34 -24.5 54.5t-81.5 41.5q-80 28 -111 58.5t-31 76.5q0 63 47.5 105t135.5 42q91 0 135.5 -43t42.5 -103h-84q-7 80 -102 80q-41 0 -66 -19t-25 -53q0 -25 22 -41t79 -37q80 -29 114.5 -64t34.5 -87q0 -69 -47.5 -111
t-129.5 -48l-38 -44q35 -7 61.5 -28t26.5 -59q0 -48 -35.5 -75t-94.5 -27q-47 0 -90 15l16 56q26 -11 68 -11q60 0 60 38q0 43 -102 45l6 27l54 65q-73 9 -110.5 51.5t-37.5 107.5z" />
    <glyph glyph-name="Scaron" unicode="&#x160;" horiz-adv-x="573" 
d="M23 202h88q6 -69 48 -105t116 -36q71 0 112 32.5t41 94.5q0 49 -30.5 81.5t-112.5 63.5q-96 37 -135.5 77.5t-39.5 101.5q0 82 58.5 138t169.5 56q110 0 165.5 -54.5t56.5 -138.5h-87q-7 58 -39 89.5t-103 31.5q-63 0 -97 -32t-34 -80q0 -38 25.5 -63.5t100.5 -54.5
q106 -39 150 -87t44 -117q0 -90 -62.5 -150t-191.5 -60q-117 0 -179 57.5t-64 154.5zM407 763h-85l-102 126h84l67 -81l100 81h94z" />
    <glyph glyph-name="scaron" unicode="&#x161;" horiz-adv-x="454" 
d="M5 152h85q9 -95 118 -95q50 0 77 22.5t27 59.5q0 34 -24.5 54.5t-81.5 41.5q-80 28 -111 58.5t-31 76.5q0 63 47.5 105t135.5 42q91 0 135.5 -43t42.5 -103h-84q-7 80 -102 80q-41 0 -66 -19t-25 -53q0 -25 22 -41t79 -37q80 -29 114.5 -64t34.5 -87q0 -75 -55 -117.5
t-147 -42.5q-94 0 -142.5 44t-48.5 118zM312 589h-81l-75 142h77l46 -95l85 95h85z" />
    <glyph glyph-name="uni0162" unicode="&#x162;" horiz-adv-x="533" 
d="M162 0l131 622h-216l16 74h520l-16 -74h-217l-131 -622h-7l-46 -53q35 -7 61.5 -28t26.5 -59q0 -48 -35.5 -75t-94.5 -27q-47 0 -90 15l16 56q26 -11 68 -11q60 0 60 38q0 43 -102 45l6 27l60 72h-10z" />
    <glyph glyph-name="uni0163" unicode="&#x163;" horiz-adv-x="309" 
d="M48 439l15 68h85l31 146h82l-31 -146h108l-15 -68h-108l-64 -307q-9 -34 -2 -51.5t38 -17.5t50 5l-15 -66q-24 -8 -55 -8l-41 -47q35 -7 61.5 -28t26.5 -59q0 -48 -35.5 -75t-94.5 -27q-48 0 -90 15l16 56q26 -11 68 -11q60 0 60 38q0 43 -102 45l6 27l61 73
q-58 21 -39 116l68 322h-84z" />
    <glyph glyph-name="Tcaron" unicode="&#x164;" horiz-adv-x="533" 
d="M162 0l131 622h-216l16 74h520l-16 -74h-217l-131 -622h-87zM397 753h-85l-102 126h84l67 -81l100 81h94z" />
    <glyph glyph-name="tcaron" unicode="&#x165;" horiz-adv-x="309" 
d="M377 814h75l-64 -209h-65zM48 439l15 68h85l31 146h82l-31 -146h108l-15 -68h-108l-64 -307q-9 -34 -2 -51.5t38 -17.5t50 5l-15 -66q-23 -8 -70 -8q-60 0 -80.5 29.5t-7.5 93.5l68 322h-84z" />
    <glyph glyph-name="Utilde" unicode="&#x168;" horiz-adv-x="672" 
d="M169 696h87l-91 -427q-23 -107 17.5 -156t124.5 -49q92 0 134.5 45t66.5 159l92 428h87l-93 -435q-31 -148 -96 -209t-200 -61q-126 0 -188 69.5t-31 213.5zM337 768h-60l4 25q8 51 30.5 70t59.5 19q32 0 81.5 -25.5t64.5 -25.5t23.5 9.5t12.5 33.5l1 9h61l-5 -28
q-9 -51 -31.5 -70.5t-61.5 -19.5q-30 0 -77.5 25.5t-65.5 25.5q-28 0 -33 -30z" />
    <glyph glyph-name="utilde" unicode="&#x169;" horiz-adv-x="542" 
d="M520 507l-79 -371q-13 -60 -26 -136h-81q2 36 14 87q-57 -97 -170 -97q-74 0 -109 45.5t-15 141.5l72 330h81l-68 -322q-6 -33 -6.5 -61t19 -45.5t58.5 -17.5q62 0 107.5 49.5t67.5 152.5l52 244h83zM251 608h-60l5 25q9 50 31 69t60 19q29 0 72.5 -24.5t56.5 -24.5
q25 0 33 42l2 10h59l-4 -22q-9 -53 -31 -74t-59 -21q-27 0 -70 25t-60 25q-23 0 -31 -33z" />
    <glyph glyph-name="Umacron" unicode="&#x16a;" horiz-adv-x="672" 
d="M169 696h87l-91 -427q-23 -107 17.5 -156t124.5 -49q92 0 134.5 45t66.5 159l92 428h87l-93 -435q-31 -148 -96 -209t-200 -61q-126 0 -188 69.5t-31 213.5zM311 848h270l-15 -68h-270z" />
    <glyph glyph-name="umacron" unicode="&#x16b;" horiz-adv-x="542" 
d="M520 507l-79 -371q-13 -60 -26 -136h-81q2 36 14 87q-57 -97 -170 -97q-74 0 -109 45.5t-15 141.5l72 330h81l-68 -322q-6 -33 -6.5 -61t19 -45.5t58.5 -17.5q62 0 107.5 49.5t67.5 152.5l52 244h83zM220 698h266l-15 -70h-267z" />
    <glyph glyph-name="Ubreve" unicode="&#x16c;" horiz-adv-x="672" 
d="M169 696h87l-91 -427q-23 -107 17.5 -156t124.5 -49q92 0 134.5 45t66.5 159l92 428h87l-93 -435q-31 -148 -96 -209t-200 -61q-126 0 -188 69.5t-31 213.5zM300 875h64q2 -64 70 -64q69 0 98 64h65q-47 -126 -171 -126q-69 0 -99 37t-27 89z" />
    <glyph glyph-name="ubreve" unicode="&#x16d;" horiz-adv-x="542" 
d="M520 507l-79 -371q-13 -60 -26 -136h-81q2 36 14 87q-57 -97 -170 -97q-74 0 -109 45.5t-15 141.5l72 330h81l-68 -322q-6 -33 -6.5 -61t19 -45.5t58.5 -17.5q62 0 107.5 49.5t67.5 152.5l52 244h83zM219 722h63q-2 -67 61 -67q25 0 44.5 12t27.5 23.5t18 31.5h63
q-43 -130 -161 -130q-66 0 -94.5 38.5t-21.5 91.5z" />
    <glyph glyph-name="Uring" unicode="&#x16e;" horiz-adv-x="672" 
d="M169 696h87l-91 -427q-23 -107 17.5 -156t124.5 -49q92 0 134.5 45t66.5 159l92 428h87l-93 -435q-31 -148 -96 -209t-200 -61q-126 0 -188 69.5t-31 213.5zM430 742q-42 0 -67.5 24.5t-25.5 60.5q0 47 33 78.5t83 31.5q42 0 66.5 -25t24.5 -62q0 -48 -32 -78t-82 -30z
M435 787q21 0 38 16.5t17 43.5q0 45 -43 45q-24 0 -40 -16.5t-16 -45.5q0 -16 11.5 -29.5t32.5 -13.5z" />
    <glyph glyph-name="uring" unicode="&#x16f;" horiz-adv-x="542" 
d="M520 507l-79 -371q-13 -60 -26 -136h-81q2 36 14 87q-57 -97 -170 -97q-74 0 -109 45.5t-15 141.5l72 330h81l-68 -322q-6 -33 -6.5 -61t19 -45.5t58.5 -17.5q62 0 107.5 49.5t67.5 152.5l52 244h83zM327 563q-42 0 -67.5 24.5t-25.5 60.5q0 47 33 78.5t83 31.5
q42 0 66.5 -25t24.5 -62q0 -48 -32 -78t-82 -30zM332 608q22 0 38.5 17t16.5 43q0 45 -43 45q-24 0 -40 -16.5t-16 -45.5q0 -16 11.5 -29.5t32.5 -13.5z" />
    <glyph glyph-name="Uhungarumlaut" unicode="&#x170;" horiz-adv-x="672" 
d="M169 696h87l-91 -427q-23 -107 17.5 -156t124.5 -49q92 0 134.5 45t66.5 159l92 428h87l-93 -435q-31 -148 -96 -209t-200 -61q-126 0 -188 69.5t-31 213.5zM429 891h99l-165 -137h-81zM614 891h97l-164 -137h-82z" />
    <glyph glyph-name="uhungarumlaut" unicode="&#x171;" horiz-adv-x="542" 
d="M520 507l-79 -371q-13 -60 -26 -136h-81q2 36 14 87q-57 -97 -170 -97q-74 0 -109 45.5t-15 141.5l72 330h81l-68 -322q-6 -33 -6.5 -61t19 -45.5t58.5 -17.5q62 0 107.5 49.5t67.5 152.5l52 244h83zM430 734l-158 -154h-79l144 154h93zM608 734l-159 -154h-78l144 154
h93z" />
    <glyph glyph-name="Uogonek" unicode="&#x172;" horiz-adv-x="672" 
d="M169 696h87l-91 -427q-23 -107 17.5 -156t124.5 -49q92 0 134.5 45t66.5 159l92 428h87l-93 -435q-27 -128 -77.5 -189.5t-146.5 -75.5q-71 -60 -71 -107q0 -48 54 -48q31 0 56 10l-12 -65q-28 -14 -75 -14q-50 0 -78 25t-28 69q0 64 68 125q-119 4 -177 73.5t-28 209.5z
" />
    <glyph glyph-name="uogonek" unicode="&#x173;" horiz-adv-x="542" 
d="M520 507l-79 -371q-13 -60 -26 -136h-3q-76 -63 -76 -111t54 -48q31 0 56 10l-12 -65q-28 -14 -75 -14q-50 0 -78 25t-28 69q0 68 81 137q5 48 14 84q-57 -97 -170 -97q-74 0 -109 45.5t-15 141.5l72 330h81l-68 -322q-6 -33 -6.5 -61t19 -45.5t58.5 -17.5
q62 0 107.5 49.5t67.5 152.5l52 244h83z" />
    <glyph glyph-name="Wcircumflex" unicode="&#x174;" horiz-adv-x="885" 
d="M226 0h-93l-32 696h86q2 -61 7 -218t7 -257t0 -130h1q11 34 62.5 143t121.5 254t99 208h83q26 -506 21 -601h1q13 35 60 135.5t116 244.5t104 221h87l-343 -696h-93q-22 486 -19 581h-1q-13 -36 -50 -116t-71.5 -150.5t-86 -176t-67.5 -138.5zM521 883h84l103 -129h-84
l-67 81l-102 -81h-92z" />
    <glyph glyph-name="wcircumflex" unicode="&#x175;" horiz-adv-x="732" 
d="M70 507h82q20 -319 18 -423h1q32 76 202 423h83q18 -351 15 -417h1q54 122 205 417h86l-264 -507h-89q-20 325 -18 404h-1q-22 -57 -194 -404h-92zM420 739h81l72 -143h-79l-43 93l-87 -93h-84z" />
    <glyph glyph-name="Ycircumflex" unicode="&#x176;" horiz-adv-x="553" 
d="M256 0h-86l54 261q2 11 -1 18l-152 417h92q16 -47 64 -184.5t58 -170.5q18 28 59.5 83.5t119 155t90.5 116.5h96l-331 -422q-7 -9 -8 -18zM343 885h84l103 -129h-84l-67 81l-102 -81h-92z" />
    <glyph glyph-name="ycircumflex" unicode="&#x177;" horiz-adv-x="478" 
d="M58 507h83q49 -353 54 -442h1q1 3 72.5 149t149.5 293h88l-282 -535q-33 -62 -59 -99t-54 -54.5t-51.5 -22.5t-63.5 -5q-34 0 -58 6l17 73q22 -4 46 -4q47 0 73 21.5t62 84.5zM290 742h81l72 -143h-79l-43 93l-87 -93h-84z" />
    <glyph glyph-name="Ydieresis" unicode="&#x178;" horiz-adv-x="553" 
d="M256 0h-86l54 261q2 11 -1 18l-152 417h92q16 -47 64 -184.5t58 -170.5q18 28 59.5 83.5t119 155t90.5 116.5h96l-331 -422q-7 -9 -8 -18zM293 753h-72l23 110h71zM492 753h-71l22 110h72z" />
    <glyph glyph-name="Zacute" unicode="&#x179;" horiz-adv-x="558" 
d="M-25 0l14 66l503 556h-385l16 74h491l-16 -72l-497 -550h413l-28 -74h-511zM490 905h123l-210 -137h-94z" />
    <glyph glyph-name="zacute" unicode="&#x17a;" horiz-adv-x="440" 
d="M-23 0l14 66l341 372h-263l15 69h362l-16 -70l-335 -368h285l-26 -69h-377zM384 746h114l-201 -152h-90z" />
    <glyph glyph-name="Zdotaccent" unicode="&#x17b;" horiz-adv-x="558" 
d="M-25 0l14 66l503 556h-385l16 74h491l-16 -72l-497 -550h413l-28 -74h-511zM408 776h-83l23 109h83z" />
    <glyph glyph-name="zdotaccent" unicode="&#x17c;" horiz-adv-x="440" 
d="M-23 0l14 66l341 372h-263l15 69h362l-16 -70l-335 -368h285l-26 -69h-377zM318 625h-84l23 109h83z" />
    <glyph glyph-name="Zcaron" unicode="&#x17d;" horiz-adv-x="558" 
d="M-25 0l14 66l503 556h-385l16 74h491l-16 -72l-497 -550h413l-28 -74h-511zM408 761h-85l-102 126h84l67 -81l100 81h94z" />
    <glyph glyph-name="zcaron" unicode="&#x17e;" horiz-adv-x="440" 
d="M-23 0l14 66l341 372h-263l15 69h362l-16 -70l-335 -368h285l-26 -69h-377zM308 592h-81l-75 142h77l46 -95l85 95h85z" />
    <glyph glyph-name="uni018F" unicode="&#x18f;" horiz-adv-x="703" 
d="M563 295h-422q-5 -17 -5 -50q0 -91 48 -137t128 -46q90 0 155.5 58.5t95.5 174.5zM577 365q4 25 4 65q0 98 -47 150.5t-128 52.5q-76 0 -124 -32t-85 -93h-91q37 86 112.5 142t191.5 56q132 0 196 -80t64 -199q0 -75 -20.5 -148.5t-62 -140t-115.5 -107.5t-170 -41
q-118 0 -185.5 68t-67.5 188q0 55 16 119h512z" />
    <glyph glyph-name="florin" unicode="&#x192;" 
d="M448 681l-21 -68q-17 12 -53 12q-23 0 -40 -11.5t-28 -33.5t-17.5 -43.5t-13.5 -52.5l-13 -65h116l-14 -65h-116l-51 -249q-22 -109 -59.5 -165.5t-112.5 -56.5q-51 0 -82 19l19 69q26 -14 60 -14q38 0 57 34.5t36 117.5l51 245h-96l15 65h95l10 49q10 46 21.5 80.5
t32 71.5t53.5 57t76 20q55 0 75 -16z" />
    <glyph glyph-name="Ohorn" unicode="&#x1a0;" horiz-adv-x="726" 
d="M426 706q121 0 189 -70q36 6 51 25t15 55q0 22 -3 37h80q2 -12 2 -30q0 -117 -104 -143q35 -68 35 -162q0 -79 -22.5 -153t-65.5 -136.5t-115.5 -100.5t-164.5 -38q-126 0 -194.5 77t-68.5 203q0 79 23.5 155t67.5 139.5t115.5 102.5t159.5 39zM420 633q-66 0 -119 -33
t-85 -86t-49 -115.5t-17 -125.5q0 -94 46.5 -152t137.5 -58q86 0 148.5 55t90.5 134t28 168q0 98 -46 155.5t-135 57.5z" />
    <glyph glyph-name="ohorn" unicode="&#x1a1;" horiz-adv-x="536" 
d="M305 517q88 0 138 -53q35 7 49.5 25.5t14.5 54.5q0 22 -3 37h80q2 -12 2 -30q0 -117 -106 -144q17 -43 17 -99q0 -53 -15.5 -106.5t-46 -102t-84.5 -79t-124 -30.5q-91 0 -140.5 54t-49.5 150q0 55 16.5 110.5t48 103.5t85 78.5t118.5 30.5zM297 448q-55 0 -96.5 -41.5
t-60 -98t-18.5 -113.5q0 -64 29.5 -100t84.5 -36q57 0 99 41.5t59.5 97t17.5 113.5q0 65 -29 101t-86 36z" />
    <glyph glyph-name="Uhorn" unicode="&#x1af;" horiz-adv-x="672" 
d="M169 696h87l-91 -427q-23 -107 17.5 -156t124.5 -49q92 0 134.5 45t66.5 159l92 428h25q45 4 63.5 23.5t18.5 58.5q0 22 -3 37h80q2 -12 2 -30q0 -120 -111 -145l-81 -379q-31 -148 -96 -209t-200 -61q-126 0 -188 69.5t-31 213.5z" />
    <glyph glyph-name="uhorn" unicode="&#x1b0;" horiz-adv-x="542" 
d="M348 87q-57 -97 -170 -97q-74 0 -109 45.5t-15 141.5l72 330h81l-68 -322q-6 -33 -6.5 -61t19 -45.5t58.5 -17.5q62 0 107.5 49.5t67.5 152.5l52 244h27v1q45 4 63.5 23.5t18.5 58.5q0 22 -3 37h80q2 -12 2 -30q0 -124 -117 -146l-67 -315q-13 -60 -26 -136h-81
q2 36 14 87z" />
    <glyph glyph-name="uni01CD" unicode="&#x1cd;" horiz-adv-x="615" 
d="M443 213h-268l-115 -213h-93l386 696h105l105 -696h-88zM214 287h222q-40 271 -44 332h-1q-48 -96 -177 -332zM451 749h-85l-102 126h84l67 -81l100 81h94z" />
    <glyph glyph-name="uni01CE" unicode="&#x1ce;" horiz-adv-x="527" 
d="M469 343l-46 -217q-18 -86 -24 -126h-81q4 34 13 78q-54 -88 -172 -88q-71 0 -105 38t-34 90q0 163 237 186q7 1 123 5l7 34q21 110 -91 110q-40 0 -67 -14t-37 -29.5t-20 -40.5h-85q35 148 216 148q92 0 138.5 -43.5t27.5 -130.5zM365 240l2 8q-77 -3 -104 -6
q-72 -7 -113.5 -31.5t-41.5 -80.5q0 -31 20.5 -51t60.5 -20q76 0 116.5 49t59.5 132zM360 589h-81l-75 142h77l46 -95l85 95h85z" />
    <glyph glyph-name="uni01CF" unicode="&#x1cf;" horiz-adv-x="261" 
d="M180 696h87l-147 -696h-88zM276 758h-85l-102 126h84l67 -81l100 81h94z" />
    <glyph glyph-name="uni01D0" unicode="&#x1d0;" horiz-adv-x="232" 
d="M21 0l107 507h83l-108 -507h-82zM220 589h-81l-75 142h77l46 -95l85 95h85z" />
    <glyph glyph-name="uni01D1" unicode="&#x1d1;" horiz-adv-x="726" 
d="M426 706q128 0 196.5 -77t68.5 -211q0 -79 -22.5 -153t-65.5 -136.5t-115.5 -100.5t-164.5 -38q-126 0 -194.5 77t-68.5 203q0 79 23.5 155t67.5 139.5t115.5 102.5t159.5 39zM420 633q-66 0 -119 -33t-85 -86t-49 -115.5t-17 -125.5q0 -94 46.5 -152t137.5 -58
q86 0 148.5 55t90.5 134t28 168q0 98 -46 155.5t-135 57.5zM478 763h-85l-102 126h84l67 -81l100 81h94z" />
    <glyph glyph-name="uni01D2" unicode="&#x1d2;" horiz-adv-x="536" 
d="M305 517q88 0 140 -55t52 -154q0 -53 -15.5 -106.5t-46 -102t-84.5 -79t-124 -30.5q-91 0 -140.5 54t-49.5 150q0 55 16.5 110.5t48 103.5t85 78.5t118.5 30.5zM297 448q-55 0 -96.5 -41.5t-60 -98t-18.5 -113.5q0 -64 29.5 -100t84.5 -36q57 0 99 41.5t59.5 97
t17.5 113.5q0 65 -29 101t-86 36zM369 591h-81l-75 142h77l46 -95l85 95h85z" />
    <glyph glyph-name="uni01D3" unicode="&#x1d3;" horiz-adv-x="672" 
d="M169 696h87l-91 -427q-23 -107 17.5 -156t124.5 -49q92 0 134.5 45t66.5 159l92 428h87l-93 -435q-31 -148 -96 -209t-200 -61q-126 0 -188 69.5t-31 213.5zM471 758h-85l-102 126h84l67 -81l100 81h94z" />
    <glyph glyph-name="uni01D4" unicode="&#x1d4;" horiz-adv-x="542" 
d="M520 507l-79 -371q-13 -60 -26 -136h-81q2 36 14 87q-57 -97 -170 -97q-74 0 -109 45.5t-15 141.5l72 330h81l-68 -322q-6 -33 -6.5 -61t19 -45.5t58.5 -17.5q62 0 107.5 49.5t67.5 152.5l52 244h83zM372 589h-81l-75 142h77l46 -95l85 95h85z" />
    <glyph glyph-name="uni01D5" unicode="&#x1d5;" horiz-adv-x="672" 
d="M169 696h87l-91 -427q-23 -107 17.5 -156t124.5 -49q92 0 134.5 45t66.5 159l92 428h87l-93 -435q-31 -148 -96 -209t-200 -61q-126 0 -188 69.5t-31 213.5zM577 889h-252l14 63h252zM361 751h-74l18 88h74zM558 751h-73l18 88h74z" />
    <glyph glyph-name="uni01D6" unicode="&#x1d6;" horiz-adv-x="542" 
d="M520 507l-79 -371q-13 -60 -26 -136h-81q2 36 14 87q-57 -97 -170 -97q-74 0 -109 45.5t-15 141.5l72 330h81l-68 -322q-6 -33 -6.5 -61t19 -45.5t58.5 -17.5q62 0 107.5 49.5t67.5 152.5l52 244h83zM485 724h-252l14 64h252zM273 572h-74l18 89h74zM456 572h-73l18 89
h73z" />
    <glyph glyph-name="uni01D7" unicode="&#x1d7;" horiz-adv-x="672" 
d="M169 696h87l-91 -427q-23 -107 17.5 -156t124.5 -49q92 0 134.5 45t66.5 159l92 428h87l-93 -435q-31 -148 -96 -209t-200 -61q-126 0 -188 69.5t-31 213.5zM485 871h-85l147 119h107zM313 833h74l-18 -87h-74zM567 746h-74l18 87h74z" />
    <glyph glyph-name="uni01D8" unicode="&#x1d8;" horiz-adv-x="542" 
d="M520 507l-79 -371q-13 -60 -26 -136h-81q2 36 14 87q-57 -97 -170 -97q-74 0 -109 45.5t-15 141.5l72 330h81l-68 -322q-6 -33 -6.5 -61t19 -45.5t58.5 -17.5q62 0 107.5 49.5t67.5 152.5l52 244h83zM383 701h-82l137 120h100zM218 663h74l-19 -88h-74zM456 575h-73
l18 88h74z" />
    <glyph glyph-name="uni01D9" unicode="&#x1d9;" horiz-adv-x="672" 
d="M169 696h87l-91 -427q-23 -107 17.5 -156t124.5 -49q92 0 134.5 45t66.5 159l92 428h87l-93 -435q-31 -148 -96 -209t-200 -61q-126 0 -188 69.5t-31 213.5zM491 877h-77l-94 114h76l62 -70l93 70h84zM313 839h74l-18 -87h-74zM567 752h-74l18 87h74z" />
    <glyph glyph-name="uni01DA" unicode="&#x1da;" horiz-adv-x="542" 
d="M520 507l-79 -371q-13 -60 -26 -136h-81q2 36 14 87q-57 -97 -170 -97q-74 0 -109 45.5t-15 141.5l72 330h81l-68 -322q-6 -33 -6.5 -61t19 -45.5t58.5 -17.5q62 0 107.5 49.5t67.5 152.5l52 244h83zM387 698h-77l-79 120h76l49 -75l81 75h81zM219 663h74l-18 -88h-74z
M458 575h-74l19 88h73z" />
    <glyph glyph-name="uni01DB" unicode="&#x1db;" horiz-adv-x="672" 
d="M169 696h87l-91 -427q-23 -107 17.5 -156t124.5 -49q92 0 134.5 45t66.5 159l92 428h87l-93 -435q-31 -148 -96 -209t-200 -61q-126 0 -188 69.5t-31 213.5zM501 873h-78l-133 119h100zM314 842h74l-19 -88h-73zM567 754h-74l18 88h74z" />
    <glyph glyph-name="uni01DC" unicode="&#x1dc;" horiz-adv-x="542" 
d="M520 507l-79 -371q-13 -60 -26 -136h-81q2 36 14 87q-57 -97 -170 -97q-74 0 -109 45.5t-15 141.5l72 330h81l-68 -322q-6 -33 -6.5 -61t19 -45.5t58.5 -17.5q62 0 107.5 49.5t67.5 152.5l52 244h83zM203 823h95l94 -120h-74zM220 664h73l-18 -88h-74zM458 576h-73l18 88
h73z" />
    <glyph glyph-name="Gcaron" unicode="&#x1e6;" horiz-adv-x="700" 
d="M654 376l-77 -376h-70q1 27 16 106q-37 -57 -88 -86t-134 -29q-116 0 -178.5 76.5t-62.5 200.5q0 82 23.5 158.5t68 140t117 101.5t162.5 38q112 0 179.5 -59t69.5 -154h-85q-7 61 -50.5 100.5t-125.5 39.5q-84 0 -146.5 -53.5t-92 -133t-29.5 -169.5q0 -96 42.5 -154.5
t129.5 -58.5q54 0 95 18.5t67.5 52.5t42 72.5t26.5 88.5l1 3h-204l16 77h287zM481 766h-85l-102 126h84l67 -81l100 81h94z" />
    <glyph glyph-name="gcaron" unicode="&#x1e7;" horiz-adv-x="557" 
d="M507 373l-69 -323q-28 -134 -82 -196.5t-177 -62.5q-189 0 -189 153h84q0 -38 28 -62.5t86 -24.5q74 0 109.5 46t58.5 146l10 45q-56 -92 -164 -92q-76 0 -120.5 51.5t-44.5 143.5q0 78 28.5 150t89 121t139.5 49q61 0 97.5 -25t45.5 -57q14 55 21 72h79
q-16 -64 -30 -134zM299 446q-81 0 -128 -73t-47 -170q0 -129 107 -129q67 0 111 54t63 140q17 79 -7.5 128.5t-98.5 49.5zM373 589h-81l-75 142h77l46 -95l85 95h85z" />
    <glyph glyph-name="uni0218" unicode="&#x218;" horiz-adv-x="573" 
d="M23 202h88q6 -69 48 -105t116 -36q71 0 112 32.5t41 94.5q0 49 -30.5 81.5t-112.5 63.5q-96 37 -135.5 77.5t-39.5 101.5q0 82 58.5 138t169.5 56q110 0 165.5 -54.5t56.5 -138.5h-87q-7 58 -39 89.5t-103 31.5q-63 0 -97 -32t-34 -80q0 -38 25.5 -63.5t100.5 -54.5
q106 -39 150 -87t44 -117q0 -90 -62.5 -150t-191.5 -60q-117 0 -179 57.5t-64 154.5zM179 -254h-79q36 44 64 97t38 96h87q-16 -60 -48 -113.5t-62 -79.5z" />
    <glyph glyph-name="uni0219" unicode="&#x219;" horiz-adv-x="454" 
d="M5 152h85q9 -95 118 -95q50 0 77 22.5t27 59.5q0 34 -24.5 54.5t-81.5 41.5q-80 28 -111 58.5t-31 76.5q0 63 47.5 105t135.5 42q91 0 135.5 -43t42.5 -103h-84q-7 80 -102 80q-41 0 -66 -19t-25 -53q0 -25 22 -41t79 -37q80 -29 114.5 -64t34.5 -87q0 -75 -55 -117.5
t-147 -42.5q-94 0 -142.5 44t-48.5 118zM109 -259h-79q36 44 64 97t38 96h87q-16 -60 -48 -113.5t-62 -79.5z" />
    <glyph glyph-name="uni021A" unicode="&#x21a;" horiz-adv-x="533" 
d="M162 0l131 622h-216l16 74h520l-16 -74h-217l-131 -622h-87zM130 -253h-79q36 44 64 97t38 96h87q-16 -60 -48 -113.5t-62 -79.5z" />
    <glyph glyph-name="uni021B" unicode="&#x21b;" horiz-adv-x="309" 
d="M48 439l15 68h85l31 146h82l-31 -146h108l-15 -68h-108l-64 -307q-9 -34 -2 -51.5t38 -17.5t50 5l-15 -66q-23 -8 -70 -8q-60 0 -80.5 29.5t-7.5 93.5l68 322h-84zM51 -259h-79q36 44 64 97t38 96h87q-16 -60 -48 -113.5t-62 -79.5z" />
    <glyph glyph-name="uni0237" unicode="&#x237;" horiz-adv-x="232" 
d="M128 507h83l-115 -539q-19 -92 -55 -134.5t-111 -42.5q-21 0 -49 4l18 72q18 -2 25 -2q43 0 60 23.5t31 87.5z" />
    <glyph glyph-name="uni0251" unicode="&#x251;" horiz-adv-x="564" 
d="M459 507h82l-78 -366q-21 -101 -28 -141h-81q2 23 14 80q-58 -90 -172 -90q-77 0 -118.5 55t-41.5 143q0 79 30 152.5t93 125t146 51.5q58 0 93 -25t44 -57q1 3 9 37t8 35zM305 443q-82 0 -132 -77.5t-50 -170.5q0 -62 26 -96.5t75 -34.5q75 0 121.5 57t64.5 146
q17 82 -8.5 129t-96.5 47z" />
    <glyph glyph-name="uni0259" unicode="&#x259;" horiz-adv-x="516" 
d="M40 266h346q4 40 4 48q0 64 -29.5 99t-82.5 35q-86 0 -131 -84h-86q64 153 227 153q92 0 139 -54.5t47 -146.5q0 -56 -15.5 -111.5t-46.5 -104.5t-84 -79.5t-120 -30.5q-95 0 -138 51.5t-43 129.5q0 46 13 95zM372 203h-261q-3 -13 -3 -37q0 -109 105 -109q57 0 98 38
t61 108z" />
    <glyph glyph-name="uni0261" unicode="&#x261;" horiz-adv-x="557" 
d="M507 373l-69 -323q-28 -134 -82 -196.5t-177 -62.5q-189 0 -189 153h84q0 -38 28 -62.5t86 -24.5q74 0 109.5 46t58.5 146l10 45q-56 -92 -164 -92q-76 0 -120.5 51.5t-44.5 143.5q0 78 28.5 150t89 121t139.5 49q61 0 97.5 -25t45.5 -57q14 55 21 72h79
q-16 -64 -30 -134zM299 446q-81 0 -128 -73t-47 -170q0 -129 107 -129q67 0 111 54t63 140q17 79 -7.5 128.5t-98.5 49.5z" />
    <glyph glyph-name="uni02BB" unicode="&#x2bb;" horiz-adv-x="338" 
d="M267 734h72q-36 -59 -66.5 -133.5t-42.5 -128.5h-85q15 65 51 141.5t71 120.5z" />
    <glyph glyph-name="uni02BC" unicode="&#x2bc;" horiz-adv-x="338" 
d="M217 472h-72q36 59 66.5 133.5t42.5 128.5h85q-15 -65 -51.5 -141.5t-70.5 -120.5z" />
    <glyph glyph-name="uni02BE" unicode="&#x2be;" horiz-adv-x="310" 
d="M195 706l11 52q39 -2 64 -25.5t25 -61.5q0 -50 -37 -81t-94 -31l12 52q25 2 42 17t17 40q0 34 -40 38z" />
    <glyph glyph-name="uni02BF" unicode="&#x2bf;" horiz-adv-x="310" 
d="M285 611l-11 -52q-39 2 -64 25.5t-25 61.5q0 50 37 81t94 31l-12 -52q-25 -2 -42 -17t-17 -40q0 -34 40 -38z" />
    <glyph glyph-name="circumflex" unicode="&#x2c6;" 
d="M254 739h81l72 -143h-79l-43 93l-87 -93h-84z" />
    <glyph glyph-name="caron" unicode="&#x2c7;" 
d="M327 589h-81l-75 142h77l46 -95l85 95h85z" />
    <glyph glyph-name="uni02C8" unicode="&#x2c8;" horiz-adv-x="278" 
d="M244 568h-78l38 179h77z" />
    <glyph glyph-name="uni02C9" unicode="&#x2c9;" horiz-adv-x="467" 
d="M195 698h266l-15 -70h-267z" />
    <glyph glyph-name="uni02CA" unicode="&#x2ca;" horiz-adv-x="417" 
d="M350 746h114l-201 -152h-90z" />
    <glyph glyph-name="uni02CB" unicode="&#x2cb;" horiz-adv-x="419" 
d="M182 746h96l109 -152h-77z" />
    <glyph glyph-name="uni02CC" unicode="&#x2cc;" horiz-adv-x="278" 
d="M74 -232h-78l38 179h77z" />
    <glyph glyph-name="breve" unicode="&#x2d8;" 
d="M148 722h63q-2 -67 61 -67q25 0 44.5 12t27.5 23.5t18 31.5h63q-43 -130 -161 -130q-66 0 -94.5 38.5t-21.5 91.5z" />
    <glyph glyph-name="dotaccent" unicode="&#x2d9;" 
d="M298 625h-84l23 109h83z" />
    <glyph glyph-name="ring" unicode="&#x2da;" 
d="M256 563q-42 0 -67.5 24.5t-25.5 60.5q0 47 33 78.5t83 31.5q42 0 66.5 -25t24.5 -62q0 -48 -32 -78t-82 -30zM261 608q21 0 38 17t17 43q0 45 -43 45q-24 0 -40 -16.5t-16 -45.5q0 -16 11.5 -29.5t32.5 -13.5z" />
    <glyph glyph-name="ogonek" unicode="&#x2db;" 
d="M174 36l32 -36q-76 -63 -76 -111t54 -48q31 0 56 10l-12 -65q-28 -14 -75 -14q-50 0 -78 25t-28 69q0 88 127 170z" />
    <glyph glyph-name="tilde" unicode="&#x2dc;" 
d="M180 608h-60l5 25q9 50 31 69t60 19q29 0 72.5 -24.5t56.5 -24.5q25 0 33 42l2 10h59l-4 -22q-9 -53 -31 -74t-59 -21q-27 0 -70 25t-60 25q-23 0 -31 -33z" />
    <glyph glyph-name="hungarumlaut" unicode="&#x2dd;" 
d="M350 734l-158 -154h-79l144 154h93zM528 734l-159 -154h-78l144 154h93z" />
    <glyph glyph-name="uni0300" unicode="&#x300;" horiz-adv-x="0" 
d="M-106 746h96l109 -152h-77z" />
    <glyph glyph-name="uni0301" unicode="&#x301;" horiz-adv-x="0" 
d="M76 746h114l-201 -152h-90z" />
    <glyph glyph-name="uni0302" unicode="&#x302;" horiz-adv-x="0" 
d="M6 739h81l72 -143h-79l-43 93l-87 -93h-84z" />
    <glyph glyph-name="uni0303" unicode="&#x303;" horiz-adv-x="0" 
d="M-68 608h-60l5 25q9 50 31 69t60 19q29 0 72.5 -24.5t56.5 -24.5q25 0 33 42l2 10h59l-4 -22q-9 -53 -31 -74t-59 -21q-27 0 -70 25t-60 25q-23 0 -31 -33z" />
    <glyph glyph-name="uni0304" unicode="&#x304;" horiz-adv-x="0" 
d="M-105 698h266l-15 -70h-267z" />
    <glyph glyph-name="uni0306" unicode="&#x306;" horiz-adv-x="0" 
d="M-100 722h63q-2 -67 61 -67q25 0 44.5 12t27.5 23.5t18 31.5h63q-43 -130 -161 -130q-66 0 -94.5 38.5t-21.5 91.5z" />
    <glyph glyph-name="uni0307" unicode="&#x307;" horiz-adv-x="0" 
d="M50 625h-84l23 109h83z" />
    <glyph glyph-name="uni0308" unicode="&#x308;" horiz-adv-x="0" 
d="M-44 625h-71l22 109h72zM131 625h-71l23 109h71z" />
    <glyph glyph-name="uni0309" unicode="&#x309;" horiz-adv-x="0" 
d="M36 584h-84q81 48 81 86q0 32 -39 32q-30 0 -60 -16l-13 48q40 27 94 27q44 0 67.5 -22t23.5 -52q0 -58 -70 -103z" />
    <glyph glyph-name="uni030A" unicode="&#x30a;" horiz-adv-x="0" 
d="M8 563q-42 0 -67.5 24.5t-25.5 60.5q0 47 33 78.5t83 31.5q42 0 66.5 -25t24.5 -62q0 -48 -32 -78t-82 -30zM13 608q21 0 38 17t17 43q0 45 -43 45q-24 0 -40 -16.5t-16 -45.5q0 -16 11.5 -29.5t32.5 -13.5z" />
    <glyph glyph-name="uni030B" unicode="&#x30b;" horiz-adv-x="0" 
d="M66 734l-158 -154h-79l144 154h93zM244 734l-159 -154h-78l144 154h93z" />
    <glyph glyph-name="uni030C" unicode="&#x30c;" horiz-adv-x="0" 
d="M94 589h-81l-75 142h77l46 -95l85 95h85z" />
    <glyph glyph-name="uni031B" unicode="&#x31b;" horiz-adv-x="0" 
d="M9 469l-15 61q45 4 63.5 23.5t18.5 58.5q0 22 -3 37h80q2 -12 2 -30q0 -139 -146 -150z" />
    <glyph glyph-name="uni0323" unicode="&#x323;" horiz-adv-x="0" 
d="M-96 -184h-89l23 108h88z" />
    <glyph glyph-name="uni0324" unicode="&#x324;" horiz-adv-x="0" 
d="M-216 -187h-71l22 109h72zM-41 -187h-71l23 109h71z" />
    <glyph glyph-name="uni0326" unicode="&#x326;" horiz-adv-x="0" 
d="M-122 -259h-79q36 44 64 97t38 96h87q-16 -60 -48 -113.5t-62 -79.5z" />
    <glyph glyph-name="uni0327" unicode="&#x327;" horiz-adv-x="0" 
d="M-132 11l62 -10l-47 -54q35 -7 61.5 -28t26.5 -59q0 -48 -35.5 -75t-94.5 -27q-47 0 -90 15l16 56q26 -11 68 -11q60 0 60 38q0 43 -102 45l6 27z" />
    <glyph glyph-name="uni0328" unicode="&#x328;" horiz-adv-x="0" 
d="M-93 36l32 -36q-76 -63 -76 -111t54 -48q31 0 56 10l-12 -65q-28 -14 -75 -14q-50 0 -78 25t-28 69q0 88 127 170z" />
    <glyph glyph-name="uni032E" unicode="&#x32e;" horiz-adv-x="0" 
d="M-266 -62h63q-2 -67 61 -67q25 0 44.5 12t27.5 23.5t18 31.5h63q-43 -130 -161 -130q-66 0 -94.5 38.5t-21.5 91.5z" />
    <glyph glyph-name="uni0331" unicode="&#x331;" horiz-adv-x="0" 
d="M-274 -99h266l-15 -70h-267z" />
    <glyph glyph-name="pi" unicode="&#x3c0;" horiz-adv-x="545" 
d="M309 0l94 438h-197l-93 -438h-78l92 438q-72 0 -89 -3l14 67q35 5 161 5h366l-17 -69h-76l-95 -438h-82z" />
    <glyph glyph-name="uni1E0C" unicode="&#x1e0c;" horiz-adv-x="705" 
d="M32 0l147 696h201q134 0 212.5 -79t78.5 -215q0 -176 -106 -289t-285 -113h-248zM250 623l-115 -550h143q140 0 220 89.5t80 238.5q1 105 -53.5 163.5t-155.5 58.5h-119zM279 -184h-89l23 108h88z" />
    <glyph glyph-name="uni1E0D" unicode="&#x1e0d;" horiz-adv-x="564" 
d="M506 734h82l-125 -593q-19 -90 -28 -141h-81q2 23 14 80q-58 -90 -168 -90q-79 0 -121.5 54t-42.5 143q0 78 28.5 151.5t91 126t146.5 52.5q58 0 94.5 -24.5t46.5 -54.5zM303 444q-56 0 -98.5 -39.5t-62 -95t-19.5 -114.5q0 -132 106 -132q74 0 119 57.5t63 149.5
q17 82 -9.5 128t-98.5 46zM246 -184h-89l23 108h88z" />
    <glyph glyph-name="uni1E0E" unicode="&#x1e0e;" horiz-adv-x="705" 
d="M32 0l147 696h201q134 0 212.5 -79t78.5 -215q0 -176 -106 -289t-285 -113h-248zM250 623l-115 -550h143q140 0 220 89.5t80 238.5q1 105 -53.5 163.5t-155.5 58.5h-119zM110 -99h266l-15 -70h-267z" />
    <glyph glyph-name="uni1E0F" unicode="&#x1e0f;" horiz-adv-x="564" 
d="M506 734h82l-125 -593q-19 -90 -28 -141h-81q2 23 14 80q-58 -90 -168 -90q-79 0 -121.5 54t-42.5 143q0 78 28.5 151.5t91 126t146.5 52.5q58 0 94.5 -24.5t46.5 -54.5zM303 444q-56 0 -98.5 -39.5t-62 -95t-19.5 -114.5q0 -132 106 -132q74 0 119 57.5t63 149.5
q17 82 -9.5 128t-98.5 46zM83 -99h266l-15 -70h-267z" />
    <glyph glyph-name="uni1E20" unicode="&#x1e20;" horiz-adv-x="700" 
d="M654 376l-77 -376h-70q1 27 16 106q-37 -57 -88 -86t-134 -29q-116 0 -178.5 76.5t-62.5 200.5q0 82 23.5 158.5t68 140t117 101.5t162.5 38q112 0 179.5 -59t69.5 -154h-85q-7 61 -50.5 100.5t-125.5 39.5q-84 0 -146.5 -53.5t-92 -133t-29.5 -169.5q0 -96 42.5 -154.5
t129.5 -58.5q54 0 95 18.5t67.5 52.5t42 72.5t26.5 88.5l1 3h-204l16 77h287zM327 852h270l-15 -68h-270z" />
    <glyph glyph-name="uni1E21" unicode="&#x1e21;" horiz-adv-x="557" 
d="M507 373l-69 -323q-28 -134 -82 -196.5t-177 -62.5q-189 0 -189 153h84q0 -38 28 -62.5t86 -24.5q74 0 109.5 46t58.5 146l10 45q-56 -92 -164 -92q-76 0 -120.5 51.5t-44.5 143.5q0 78 28.5 150t89 121t139.5 49q61 0 97.5 -25t45.5 -57q14 55 21 72h79
q-16 -64 -30 -134zM299 446q-81 0 -128 -73t-47 -170q0 -129 107 -129q67 0 111 54t63 140q17 79 -7.5 128.5t-98.5 49.5zM221 698h266l-15 -70h-267z" />
    <glyph glyph-name="uni1E24" unicode="&#x1e24;" horiz-adv-x="698" 
d="M32 0l147 696h87l-61 -287h350l61 287h87l-147 -696h-87l70 335h-350l-70 -335h-87zM305 -174h-89l23 108h88z" />
    <glyph glyph-name="uni1E25" unicode="&#x1e25;" horiz-adv-x="551" 
d="M21 0l155 734h83l-66 -308q64 91 169 91q31 0 56.5 -8.5t48 -30t27.5 -58.5t-4 -94l-68 -326h-83l66 313q14 66 -4 98.5t-73 32.5q-61 0 -105 -45.5t-60 -118.5l-60 -280h-82zM232 -184h-89l23 108h88z" />
    <glyph glyph-name="uni1E2A" unicode="&#x1e2a;" horiz-adv-x="698" 
d="M32 0l147 696h87l-61 -287h350l61 287h87l-147 -696h-87l70 335h-350l-70 -335h-87zM149 -62h63q-2 -67 61 -67q25 0 44.5 12t27.5 23.5t18 31.5h63q-43 -130 -161 -130q-66 0 -94.5 38.5t-21.5 91.5z" />
    <glyph glyph-name="uni1E2B" unicode="&#x1e2b;" horiz-adv-x="551" 
d="M21 0l155 734h83l-66 -308q64 91 169 91q31 0 56.5 -8.5t48 -30t27.5 -58.5t-4 -94l-68 -326h-83l66 313q14 66 -4 98.5t-73 32.5q-61 0 -105 -45.5t-60 -118.5l-60 -280h-82zM76 -62h63q-2 -67 61 -67q25 0 44.5 12t27.5 23.5t18 31.5h63q-43 -130 -161 -130
q-66 0 -94.5 38.5t-21.5 91.5z" />
    <glyph glyph-name="uni1E36" unicode="&#x1e36;" horiz-adv-x="530" 
d="M32 0l147 696h87l-132 -622h349l-26 -74h-425zM265 -184h-89l23 108h88z" />
    <glyph glyph-name="uni1E37" unicode="&#x1e37;" horiz-adv-x="232" 
d="M103 0h-82l155 734h83zM71 -184h-89l23 108h88z" />
    <glyph glyph-name="uni1E38" unicode="&#x1e38;" horiz-adv-x="530" 
d="M32 0l147 696h87l-132 -622h349l-26 -74h-425zM266 -184h-89l23 108h88zM114 837h270l-15 -68h-270z" />
    <glyph glyph-name="uni1E39" unicode="&#x1e39;" horiz-adv-x="232" 
d="M103 0h-82l155 734h83zM109 871h266l-15 -70h-267zM71 -184h-89l23 108h88z" />
    <glyph glyph-name="uni1E3A" unicode="&#x1e3a;" horiz-adv-x="530" 
d="M32 0l147 696h87l-132 -622h349l-26 -74h-425zM93 -94h266l-15 -70h-267z" />
    <glyph glyph-name="uni1E3B" unicode="&#x1e3b;" horiz-adv-x="232" 
d="M103 0h-82l155 734h83zM-85 -93h266l-15 -70h-267z" />
    <glyph glyph-name="uni1E42" unicode="&#x1e42;" horiz-adv-x="834" 
d="M605 0l63 296q41 196 75 337h-3q-42 -92 -343 -633h-80q-71 583 -72 634h-3q-13 -88 -69 -355l-58 -279h-84l148 696h132q64 -471 70 -584h1q14 31 63 119.5t140 250t121 214.5h133l-147 -696h-87zM363 -184h-89l23 108h88z" />
    <glyph glyph-name="uni1E43" unicode="&#x1e43;" horiz-adv-x="814" 
d="M21 0l77 365q14 66 28 142h81q-3 -35 -13 -78q60 88 152 88q105 0 117 -93q65 93 169 93q70 0 106 -45.5t15 -142.5l-70 -329h-81l67 319q28 125 -71 125q-56 0 -92.5 -43t-51.5 -112l-61 -289h-81l65 310q16 59 1 96.5t-67 37.5q-58 0 -96.5 -46t-53.5 -119l-58 -279
h-82zM362 -184h-89l23 108h88z" />
    <glyph glyph-name="uni1E44" unicode="&#x1e44;" horiz-adv-x="712" 
d="M115 0h-84l148 696h113q18 -48 74.5 -198t96 -257.5t47.5 -140.5h1q7 52 64 321l58 275h84l-147 -696h-108q-196 526 -221 611h-1q-13 -84 -66 -329zM488 759h-83l23 109h83z" />
    <glyph glyph-name="uni1E45" unicode="&#x1e45;" horiz-adv-x="551" 
d="M21 0l80 378q6 30 25 129h81q-2 -29 -15 -86q61 96 170 96q78 0 113 -48.5t13 -151.5l-66 -317h-83l66 315q29 129 -78 129q-66 0 -109 -53t-61 -137l-54 -254h-82zM377 625h-84l23 109h83z" />
    <glyph glyph-name="uni1E46" unicode="&#x1e46;" horiz-adv-x="712" 
d="M115 0h-84l148 696h113q18 -48 74.5 -198t96 -257.5t47.5 -140.5h1q7 52 64 321l58 275h84l-147 -696h-108q-196 526 -221 611h-1q-13 -84 -66 -329zM312 -177h-89l23 108h88z" />
    <glyph glyph-name="uni1E47" unicode="&#x1e47;" horiz-adv-x="551" 
d="M21 0l80 378q6 30 25 129h81q-2 -29 -15 -86q61 96 170 96q78 0 113 -48.5t13 -151.5l-66 -317h-83l66 315q29 129 -78 129q-66 0 -109 -53t-61 -137l-54 -254h-82zM234 -184h-89l23 108h88z" />
    <glyph glyph-name="uni1E48" unicode="&#x1e48;" horiz-adv-x="712" 
d="M115 0h-84l148 696h113q18 -48 74.5 -198t96 -257.5t47.5 -140.5h1q7 52 64 321l58 275h84l-147 -696h-108q-196 526 -221 611h-1q-13 -84 -66 -329zM161 -97h266l-15 -70h-267z" />
    <glyph glyph-name="uni1E49" unicode="&#x1e49;" horiz-adv-x="551" 
d="M21 0l80 378q6 30 25 129h81q-2 -29 -15 -86q61 96 170 96q78 0 113 -48.5t13 -151.5l-66 -317h-83l66 315q29 129 -78 129q-66 0 -109 -53t-61 -137l-54 -254h-82zM74 -99h266l-15 -70h-267z" />
    <glyph glyph-name="uni1E5A" unicode="&#x1e5a;" horiz-adv-x="618" 
d="M330 311h-146l-65 -311h-87l147 696h234q96 0 146.5 -45.5t50.5 -123.5q0 -75 -41 -122t-112 -63q100 -37 71 -174q-30 -139 -27 -168h-82q-5 47 24 165q16 76 -10 111t-103 35zM250 623l-50 -239h137q183 0 183 134q0 105 -124 105h-146zM283 -174h-89l23 108h88z" />
    <glyph glyph-name="uni1E5B" unicode="&#x1e5b;" horiz-adv-x="342" 
d="M365 517l-18 -86q-73 -5 -124 -56.5t-69 -137.5l-51 -237h-82l76 357q23 116 29 150h80q-3 -38 -19 -107q28 55 74.5 86t103.5 31zM71 -184h-89l23 108h88z" />
    <glyph glyph-name="uni1E5C" unicode="&#x1e5c;" horiz-adv-x="618" 
d="M330 311h-146l-65 -311h-87l147 696h234q96 0 146.5 -45.5t50.5 -123.5q0 -75 -41 -122t-112 -63q100 -37 71 -174q-30 -139 -27 -168h-82q-5 47 24 165q16 76 -10 111t-103 35zM250 623l-50 -239h137q183 0 183 134q0 105 -124 105h-146zM283 -174h-89l23 108h88z
M279 849h270l-15 -68h-270z" />
    <glyph glyph-name="uni1E5D" unicode="&#x1e5d;" horiz-adv-x="342" 
d="M365 517l-18 -86q-73 -5 -124 -56.5t-69 -137.5l-51 -237h-82l76 357q23 116 29 150h80q-3 -38 -19 -107q28 55 74.5 86t103.5 31zM137 698h266l-15 -70h-267zM72 -184h-89l23 108h88z" />
    <glyph glyph-name="uni1E5E" unicode="&#x1e5e;" horiz-adv-x="618" 
d="M330 311h-146l-65 -311h-87l147 696h234q96 0 146.5 -45.5t50.5 -123.5q0 -75 -41 -122t-112 -63q100 -37 71 -174q-30 -139 -27 -168h-82q-5 47 24 165q16 76 -10 111t-103 35zM250 623l-50 -239h137q183 0 183 134q0 105 -124 105h-146zM118 -99h266l-15 -70h-267z" />
    <glyph glyph-name="uni1E5F" unicode="&#x1e5f;" horiz-adv-x="342" 
d="M365 517l-18 -86q-73 -5 -124 -56.5t-69 -137.5l-51 -237h-82l76 357q23 116 29 150h80q-3 -38 -19 -107q28 55 74.5 86t103.5 31zM-71 -99h266l-15 -70h-267z" />
    <glyph glyph-name="uni1E60" unicode="&#x1e60;" horiz-adv-x="573" 
d="M23 202h88q6 -69 48 -105t116 -36q71 0 112 32.5t41 94.5q0 49 -30.5 81.5t-112.5 63.5q-96 37 -135.5 77.5t-39.5 101.5q0 82 58.5 138t169.5 56q110 0 165.5 -54.5t56.5 -138.5h-87q-7 58 -39 89.5t-103 31.5q-63 0 -97 -32t-34 -80q0 -38 25.5 -63.5t100.5 -54.5
q106 -39 150 -87t44 -117q0 -90 -62.5 -150t-191.5 -60q-117 0 -179 57.5t-64 154.5zM401 768h-83l23 109h83z" />
    <glyph glyph-name="uni1E61" unicode="&#x1e61;" horiz-adv-x="454" 
d="M5 152h85q9 -95 118 -95q50 0 77 22.5t27 59.5q0 34 -24.5 54.5t-81.5 41.5q-80 28 -111 58.5t-31 76.5q0 63 47.5 105t135.5 42q91 0 135.5 -43t42.5 -103h-84q-7 80 -102 80q-41 0 -66 -19t-25 -53q0 -25 22 -41t79 -37q80 -29 114.5 -64t34.5 -87q0 -75 -55 -117.5
t-147 -42.5q-94 0 -142.5 44t-48.5 118zM325 625h-84l23 109h83z" />
    <glyph glyph-name="uni1E62" unicode="&#x1e62;" horiz-adv-x="573" 
d="M23 202h88q6 -69 48 -105t116 -36q71 0 112 32.5t41 94.5q0 49 -30.5 81.5t-112.5 63.5q-96 37 -135.5 77.5t-39.5 101.5q0 82 58.5 138t169.5 56q110 0 165.5 -54.5t56.5 -138.5h-87q-7 58 -39 89.5t-103 31.5q-63 0 -97 -32t-34 -80q0 -38 25.5 -63.5t100.5 -54.5
q106 -39 150 -87t44 -117q0 -90 -62.5 -150t-191.5 -60q-117 0 -179 57.5t-64 154.5zM260 -188h-89l23 108h88z" />
    <glyph glyph-name="uni1E63" unicode="&#x1e63;" horiz-adv-x="454" 
d="M5 152h85q9 -95 118 -95q50 0 77 22.5t27 59.5q0 34 -24.5 54.5t-81.5 41.5q-80 28 -111 58.5t-31 76.5q0 63 47.5 105t135.5 42q91 0 135.5 -43t42.5 -103h-84q-7 80 -102 80q-41 0 -66 -19t-25 -53q0 -25 22 -41t79 -37q80 -29 114.5 -64t34.5 -87q0 -75 -55 -117.5
t-147 -42.5q-94 0 -142.5 44t-48.5 118zM198 -184h-89l23 108h88z" />
    <glyph glyph-name="uni1E6C" unicode="&#x1e6c;" horiz-adv-x="533" 
d="M162 0l131 622h-216l16 74h520l-16 -74h-217l-131 -622h-87zM212 -196h-89l23 108h88z" />
    <glyph glyph-name="uni1E6D" unicode="&#x1e6d;" horiz-adv-x="309" 
d="M48 439l15 68h85l31 146h82l-31 -146h108l-15 -68h-108l-64 -307q-9 -34 -2 -51.5t38 -17.5t50 5l-15 -66q-23 -8 -70 -8q-60 0 -80.5 29.5t-7.5 93.5l68 322h-84zM141 -184h-89l23 108h88z" />
    <glyph glyph-name="uni1E6E" unicode="&#x1e6e;" horiz-adv-x="533" 
d="M162 0l131 622h-216l16 74h520l-16 -74h-217l-131 -622h-87zM61 -99h266l-15 -70h-267z" />
    <glyph glyph-name="uni1E6F" unicode="&#x1e6f;" horiz-adv-x="309" 
d="M48 439l15 68h85l31 146h82l-31 -146h108l-15 -68h-108l-64 -307q-9 -34 -2 -51.5t38 -17.5t50 5l-15 -66q-23 -8 -70 -8q-60 0 -80.5 29.5t-7.5 93.5l68 322h-84zM-19 -97h266l-15 -70h-267z" />
    <glyph glyph-name="Wgrave" unicode="&#x1e80;" horiz-adv-x="885" 
d="M226 0h-93l-32 696h86q2 -61 7 -218t7 -257t0 -130h1q11 34 62.5 143t121.5 254t99 208h83q26 -506 21 -601h1q13 35 60 135.5t116 244.5t104 221h87l-343 -696h-93q-22 486 -19 581h-1q-13 -36 -50 -116t-71.5 -150.5t-86 -176t-67.5 -138.5zM335 895h110l137 -137h-87z
" />
    <glyph glyph-name="wgrave" unicode="&#x1e81;" horiz-adv-x="732" 
d="M70 507h82q20 -319 18 -423h1q32 76 202 423h83q18 -351 15 -417h1q54 122 205 417h86l-264 -507h-89q-20 325 -18 404h-1q-22 -57 -194 -404h-92zM264 746h96l109 -152h-77z" />
    <glyph glyph-name="Wacute" unicode="&#x1e82;" horiz-adv-x="885" 
d="M226 0h-93l-32 696h86q2 -61 7 -218t7 -257t0 -130h1q11 34 62.5 143t121.5 254t99 208h83q26 -506 21 -601h1q13 35 60 135.5t116 244.5t104 221h87l-343 -696h-93q-22 486 -19 581h-1q-13 -36 -50 -116t-71.5 -150.5t-86 -176t-67.5 -138.5zM663 898h123l-210 -137h-94
z" />
    <glyph glyph-name="wacute" unicode="&#x1e83;" horiz-adv-x="732" 
d="M70 507h82q20 -319 18 -423h1q32 76 202 423h83q18 -351 15 -417h1q54 122 205 417h86l-264 -507h-89q-20 325 -18 404h-1q-22 -57 -194 -404h-92zM548 746h114l-201 -152h-90z" />
    <glyph glyph-name="Wdieresis" unicode="&#x1e84;" horiz-adv-x="885" 
d="M226 0h-93l-32 696h86q2 -61 7 -218t7 -257t0 -130h1q11 34 62.5 143t121.5 254t99 208h83q26 -506 21 -601h1q13 35 60 135.5t116 244.5t104 221h87l-343 -696h-93q-22 486 -19 581h-1q-13 -36 -50 -116t-71.5 -150.5t-86 -176t-67.5 -138.5zM469 766h-72l23 110h71z
M668 766h-71l22 110h72z" />
    <glyph glyph-name="wdieresis" unicode="&#x1e85;" horiz-adv-x="732" 
d="M70 507h82q20 -319 18 -423h1q32 76 202 423h83q18 -351 15 -417h1q54 122 205 417h86l-264 -507h-89q-20 325 -18 404h-1q-22 -57 -194 -404h-92zM376 625h-71l22 109h72zM551 625h-71l23 109h71z" />
    <glyph glyph-name="uni1E8E" unicode="&#x1e8e;" horiz-adv-x="553" 
d="M256 0h-86l54 261q2 11 -1 18l-152 417h92q16 -47 64 -184.5t58 -170.5q18 28 59.5 83.5t119 155t90.5 116.5h96l-331 -422q-7 -9 -8 -18zM397 766h-83l23 109h83z" />
    <glyph glyph-name="uni1E8F" unicode="&#x1e8f;" horiz-adv-x="478" 
d="M58 507h83q49 -353 54 -442h1q1 3 72.5 149t149.5 293h88l-282 -535q-33 -62 -59 -99t-54 -54.5t-51.5 -22.5t-63.5 -5q-34 0 -58 6l17 73q22 -4 46 -4q47 0 73 21.5t62 84.5zM334 625h-84l23 109h83z" />
    <glyph glyph-name="uni1E92" unicode="&#x1e92;" horiz-adv-x="558" 
d="M-25 0l14 66l503 556h-385l16 74h491l-16 -72l-497 -550h413l-28 -74h-511zM260 -194h-89l23 108h88z" />
    <glyph glyph-name="uni1E93" unicode="&#x1e93;" horiz-adv-x="440" 
d="M-23 0l14 66l341 372h-263l15 69h362l-16 -70l-335 -368h285l-26 -69h-377zM190 -188h-89l23 108h88z" />
    <glyph glyph-name="uni1E97" unicode="&#x1e97;" horiz-adv-x="309" 
d="M48 439l15 68h85l31 146h82l-31 -146h108l-15 -68h-108l-64 -307q-9 -34 -2 -51.5t38 -17.5t50 5l-15 -66q-23 -8 -70 -8q-60 0 -80.5 29.5t-7.5 93.5l68 322h-84zM180 711h-71l22 109h72zM355 711h-71l23 109h71z" />
    <glyph glyph-name="uni1E9E" unicode="&#x1e9e;" horiz-adv-x="651" 
d="M222 500l-107 -500h-86l107 507q23 111 86.5 155t166.5 44q117 0 173.5 -49t56.5 -114q0 -30 -8 -54l-184 -103l-1 -5l63 -44q56 -41 82 -78.5t26 -86.5q0 -76 -54.5 -129t-161.5 -53q-120 0 -178 67l19 80q67 -76 163 -78q57 0 90.5 28.5t33.5 77.5q0 32 -18.5 57.5
t-60.5 55.5l-95 65q-21 14 -18 36.5t26 36.5l186 108q1 3 1 14q1 36 -32.5 67t-115.5 31q-64 0 -104 -30t-56 -106z" />
    <glyph glyph-name="uni1EA0" unicode="&#x1ea0;" horiz-adv-x="615" 
d="M443 213h-268l-115 -213h-93l386 696h105l105 -696h-88zM214 287h222q-40 271 -44 332h-1q-48 -96 -177 -332zM282 -174h-89l23 108h88z" />
    <glyph glyph-name="uni1EA1" unicode="&#x1ea1;" horiz-adv-x="527" 
d="M469 343l-46 -217q-18 -86 -24 -126h-81q4 34 13 78q-54 -88 -172 -88q-71 0 -105 38t-34 90q0 163 237 186q7 1 123 5l7 34q21 110 -91 110q-40 0 -67 -14t-37 -29.5t-20 -40.5h-85q35 148 216 148q92 0 138.5 -43.5t27.5 -130.5zM365 240l2 8q-77 -3 -104 -6
q-72 -7 -113.5 -31.5t-41.5 -80.5q0 -31 20.5 -51t60.5 -20q76 0 116.5 49t59.5 132zM227 -188h-89l23 108h88z" />
    <glyph glyph-name="uni1EA2" unicode="&#x1ea2;" horiz-adv-x="615" 
d="M443 213h-268l-115 -213h-93l386 696h105l105 -696h-88zM214 287h222q-40 271 -44 332h-1q-48 -96 -177 -332zM441 743h-84q81 48 81 86q0 32 -39 32q-30 0 -60 -16l-13 48q40 27 94 27q44 0 67.5 -22t23.5 -52q0 -58 -70 -103z" />
    <glyph glyph-name="uni1EA3" unicode="&#x1ea3;" horiz-adv-x="527" 
d="M469 343l-46 -217q-18 -86 -24 -126h-81q4 34 13 78q-54 -88 -172 -88q-71 0 -105 38t-34 90q0 163 237 186q7 1 123 5l7 34q21 110 -91 110q-40 0 -67 -14t-37 -29.5t-20 -40.5h-85q35 148 216 148q92 0 138.5 -43.5t27.5 -130.5zM365 240l2 8q-77 -3 -104 -6
q-72 -7 -113.5 -31.5t-41.5 -80.5q0 -31 20.5 -51t60.5 -20q76 0 116.5 49t59.5 132zM359 584h-84q81 48 81 86q0 32 -39 32q-30 0 -60 -16l-13 48q40 27 94 27q44 0 67.5 -22t23.5 -52q0 -58 -70 -103z" />
    <glyph glyph-name="uni1EA4" unicode="&#x1ea4;" horiz-adv-x="615" 
d="M443 213h-268l-115 -213h-93l386 696h105l105 -696h-88zM214 287h222q-40 271 -44 332h-1q-48 -96 -177 -332zM389 861h85l98 -114h-83l-64 69l-91 -69h-93zM667 957h106l-153 -111h-83z" />
    <glyph glyph-name="uni1EA5" unicode="&#x1ea5;" horiz-adv-x="527" 
d="M469 343l-46 -217q-18 -86 -24 -126h-81q4 34 13 78q-54 -88 -172 -88q-71 0 -105 38t-34 90q0 163 237 186q7 1 123 5l7 34q21 110 -91 110q-40 0 -67 -14t-37 -29.5t-20 -40.5h-85q35 148 216 148q92 0 138.5 -43.5t27.5 -130.5zM365 240l2 8q-77 -3 -104 -6
q-72 -7 -113.5 -31.5t-41.5 -80.5q0 -31 20.5 -51t60.5 -20q76 0 116.5 49t59.5 132zM309 709h76l81 -133h-79l-48 86l-83 -86h-83zM573 818h102l-157 -127h-77z" />
    <glyph glyph-name="uni1EA6" unicode="&#x1ea6;" horiz-adv-x="615" 
d="M443 213h-268l-115 -213h-93l386 696h105l105 -696h-88zM214 287h222q-40 271 -44 332h-1q-48 -96 -177 -332zM389 864h85l98 -114h-83l-64 69l-91 -69h-93zM488 964h97l107 -124h-73z" />
    <glyph glyph-name="uni1EA7" unicode="&#x1ea7;" horiz-adv-x="527" 
d="M469 343l-46 -217q-18 -86 -24 -126h-81q4 34 13 78q-54 -88 -172 -88q-71 0 -105 38t-34 90q0 163 237 186q7 1 123 5l7 34q21 110 -91 110q-40 0 -67 -14t-37 -29.5t-20 -40.5h-85q35 148 216 148q92 0 138.5 -43.5t27.5 -130.5zM365 240l2 8q-77 -3 -104 -6
q-72 -7 -113.5 -31.5t-41.5 -80.5q0 -31 20.5 -51t60.5 -20q76 0 116.5 49t59.5 132zM307 710h77l81 -133h-79l-48 86l-84 -86h-82zM401 822h88l90 -145h-68z" />
    <glyph glyph-name="uni1EA8" unicode="&#x1ea8;" horiz-adv-x="615" 
d="M443 213h-268l-115 -213h-93l386 696h105l105 -696h-88zM214 287h222q-40 271 -44 332h-1q-48 -96 -177 -332zM389 862h86l98 -115h-83l-64 70l-91 -70h-94zM624 840h-79q70 43 70 80q0 26 -32 26q-29 0 -54 -14l-11 46q38 25 87 25q38 0 58.5 -20t20.5 -47
q0 -52 -60 -96z" />
    <glyph glyph-name="uni1EA9" unicode="&#x1ea9;" horiz-adv-x="527" 
d="M469 343l-46 -217q-18 -86 -24 -126h-81q4 34 13 78q-54 -88 -172 -88q-71 0 -105 38t-34 90q0 163 237 186q7 1 123 5l7 34q21 110 -91 110q-40 0 -67 -14t-37 -29.5t-20 -40.5h-85q35 148 216 148q92 0 138.5 -43.5t27.5 -130.5zM365 240l2 8q-77 -3 -104 -6
q-72 -7 -113.5 -31.5t-41.5 -80.5q0 -31 20.5 -51t60.5 -20q76 0 116.5 49t59.5 132zM305 710h77l81 -133h-79l-48 86l-84 -86h-82zM528 678h-72q70 47 70 82q0 23 -30 23q-33 0 -56 -16l-10 45q38 28 89 28q34 0 54 -19t20 -46q0 -62 -65 -97z" />
    <glyph glyph-name="uni1EAA" unicode="&#x1eaa;" horiz-adv-x="615" 
d="M443 213h-268l-115 -213h-93l386 696h105l105 -696h-88zM214 287h222q-40 271 -44 332h-1q-48 -96 -177 -332zM343 875h-60l3 14q17 81 90 81q33 0 79.5 -18t62.5 -18q26 0 33 27l1 7h59l-2 -12q-13 -82 -92 -82q-27 0 -72.5 18.5t-67.5 18.5q-26 0 -32 -30zM380 837h95
l98 -96h-88l-62 55l-84 -55h-97z" />
    <glyph glyph-name="uni1EAB" unicode="&#x1eab;" horiz-adv-x="527" 
d="M469 343l-46 -217q-18 -86 -24 -126h-81q4 34 13 78q-54 -88 -172 -88q-71 0 -105 38t-34 90q0 163 237 186q7 1 123 5l7 34q21 110 -91 110q-40 0 -67 -14t-37 -29.5t-20 -40.5h-85q35 148 216 148q92 0 138.5 -43.5t27.5 -130.5zM365 240l2 8q-77 -3 -104 -6
q-72 -7 -113.5 -31.5t-41.5 -80.5q0 -31 20.5 -51t60.5 -20q76 0 116.5 49t59.5 132zM269 718h-53l3 18q11 75 83 75q29 0 68.5 -18t51.5 -18q23 0 29 28l2 7h52l-2 -13q-12 -79 -80 -79q-24 0 -65 18t-56 18q-25 0 -32 -30zM299 677h82l90 -104h-81l-56 63l-80 -63h-86z
" />
    <glyph glyph-name="uni1EAC" unicode="&#x1eac;" horiz-adv-x="615" 
d="M443 213h-268l-115 -213h-93l386 696h105l105 -696h-88zM214 287h222q-40 271 -44 332h-1q-48 -96 -177 -332zM291 -174h-89l23 108h88zM393 876h84l103 -129h-84l-67 81l-102 -81h-92z" />
    <glyph glyph-name="uni1EAD" unicode="&#x1ead;" horiz-adv-x="527" 
d="M469 343l-46 -217q-18 -86 -24 -126h-81q4 34 13 78q-54 -88 -172 -88q-71 0 -105 38t-34 90q0 163 237 186q7 1 123 5l7 34q21 110 -91 110q-40 0 -67 -14t-37 -29.5t-20 -40.5h-85q35 148 216 148q92 0 138.5 -43.5t27.5 -130.5zM365 240l2 8q-77 -3 -104 -6
q-72 -7 -113.5 -31.5t-41.5 -80.5q0 -31 20.5 -51t60.5 -20q76 0 116.5 49t59.5 132zM217 -184h-89l23 108h88zM317 739h81l72 -143h-79l-43 93l-87 -93h-84z" />
    <glyph glyph-name="uni1EAE" unicode="&#x1eae;" horiz-adv-x="615" 
d="M443 213h-268l-115 -213h-93l386 696h105l105 -696h-88zM214 287h222q-40 271 -44 332h-1q-48 -96 -177 -332zM498 993h112l-147 -104h-85zM268 865h68q14 -56 77 -56q64 0 98 56h70q-50 -115 -175 -115q-70 0 -102 36t-36 79z" />
    <glyph glyph-name="uni1EAF" unicode="&#x1eaf;" horiz-adv-x="527" 
d="M469 343l-46 -217q-18 -86 -24 -126h-81q4 34 13 78q-54 -88 -172 -88q-71 0 -105 38t-34 90q0 163 237 186q7 1 123 5l7 34q21 110 -91 110q-40 0 -67 -14t-37 -29.5t-20 -40.5h-85q35 148 216 148q92 0 138.5 -43.5t27.5 -130.5zM365 240l2 8q-77 -3 -104 -6
q-72 -7 -113.5 -31.5t-41.5 -80.5q0 -31 20.5 -51t60.5 -20q76 0 116.5 49t59.5 132zM424 828h101l-157 -117h-76zM192 686h63q6 -57 67 -57q59 0 90 57h64q-45 -117 -162 -117q-62 0 -93 35t-29 82z" />
    <glyph glyph-name="uni1EB0" unicode="&#x1eb0;" horiz-adv-x="615" 
d="M443 213h-268l-115 -213h-93l386 696h105l105 -696h-88zM214 287h222q-40 271 -44 332h-1q-48 -96 -177 -332zM270 998h105l97 -111h-77zM268 865h68q12 -56 78 -56q63 0 97 56h70q-50 -115 -176 -115q-37 0 -65 12t-42.5 30.5t-21.5 36.5t-8 36z" />
    <glyph glyph-name="uni1EB1" unicode="&#x1eb1;" horiz-adv-x="527" 
d="M469 343l-46 -217q-18 -86 -24 -126h-81q4 34 13 78q-54 -88 -172 -88q-71 0 -105 38t-34 90q0 163 237 186q7 1 123 5l7 34q21 110 -91 110q-40 0 -67 -14t-37 -29.5t-20 -40.5h-85q35 148 216 148q92 0 138.5 -43.5t27.5 -130.5zM365 240l2 8q-77 -3 -104 -6
q-72 -7 -113.5 -31.5t-41.5 -80.5q0 -31 20.5 -51t60.5 -20q76 0 116.5 49t59.5 132zM192 830h93l98 -117h-73zM193 687h63q6 -57 67 -57q59 0 90 57h64q-46 -117 -162 -117q-63 0 -93.5 35t-28.5 82z" />
    <glyph glyph-name="uni1EB2" unicode="&#x1eb2;" horiz-adv-x="615" 
d="M443 213h-268l-115 -213h-93l386 696h105l105 -696h-88zM214 287h222q-40 271 -44 332h-1q-48 -96 -177 -332zM456 878h-79q70 43 70 80q0 25 -33 25q-28 0 -56 -14l-5 48q36 24 82 24q38 0 59 -20t21 -47q0 -54 -59 -96zM268 859h69q12 -56 76 -56q66 0 98 56h70
q-49 -115 -176 -115q-70 0 -102.5 37t-34.5 78z" />
    <glyph glyph-name="uni1EB3" unicode="&#x1eb3;" horiz-adv-x="527" 
d="M469 343l-46 -217q-18 -86 -24 -126h-81q4 34 13 78q-54 -88 -172 -88q-71 0 -105 38t-34 90q0 163 237 186q7 1 123 5l7 34q21 110 -91 110q-40 0 -67 -14t-37 -29.5t-20 -40.5h-85q35 148 216 148q92 0 138.5 -43.5t27.5 -130.5zM365 240l2 8q-77 -3 -104 -6
q-72 -7 -113.5 -31.5t-41.5 -80.5q0 -31 20.5 -51t60.5 -20q76 0 116.5 49t59.5 132zM368 706h-76q73 45 73 79q0 25 -32 25q-28 0 -55 -15l-10 45q37 26 85 26q38 0 58 -20t20 -47q0 -54 -63 -93zM192 686h63q6 -57 67 -57q58 0 90 57h64q-46 -117 -162 -117
q-63 0 -93.5 35t-28.5 82z" />
    <glyph glyph-name="uni1EB4" unicode="&#x1eb4;" horiz-adv-x="615" 
d="M443 213h-268l-115 -213h-93l386 696h105l105 -696h-88zM214 287h222q-40 271 -44 332h-1q-48 -96 -177 -332zM353 898h-58l3 15q8 44 29.5 60.5t55.5 16.5q29 0 73.5 -17.5t57.5 -17.5q26 0 33 26l1 7h56l-3 -15q-18 -76 -85 -76q-25 0 -69.5 18t-60.5 18q-26 0 -32 -30
zM286 852h63q9 -51 67 -51q64 0 92 51h65q-19 -49 -60.5 -78.5t-101.5 -29.5q-64 0 -94.5 32.5t-30.5 75.5z" />
    <glyph glyph-name="uni1EB5" unicode="&#x1eb5;" horiz-adv-x="527" 
d="M469 343l-46 -217q-18 -86 -24 -126h-81q4 34 13 78q-54 -88 -172 -88q-71 0 -105 38t-34 90q0 163 237 186q7 1 123 5l7 34q21 110 -91 110q-40 0 -67 -14t-37 -29.5t-20 -40.5h-85q35 148 216 148q92 0 138.5 -43.5t27.5 -130.5zM365 240l2 8q-77 -3 -104 -6
q-72 -7 -113.5 -31.5t-41.5 -80.5q0 -31 20.5 -51t60.5 -20q76 0 116.5 49t59.5 132zM261 726h-53l2 15q8 44 29 60.5t53 16.5q26 0 66 -17.5t53 -17.5q25 0 32 26l1 8h52l-3 -15q-15 -76 -82 -76q-23 0 -63 18t-55 18q-25 0 -31 -31zM198 679h60q5 -51 62 -51t86 51h60
q-38 -110 -153 -110q-62 0 -89 32.5t-26 77.5z" />
    <glyph glyph-name="uni1EB6" unicode="&#x1eb6;" horiz-adv-x="615" 
d="M443 213h-268l-115 -213h-93l386 696h105l105 -696h-88zM214 287h222q-40 271 -44 332h-1q-48 -96 -177 -332zM283 -168h-89l23 108h88zM283 878h64q2 -64 70 -64q69 0 98 64h65q-47 -126 -171 -126q-69 0 -99 37t-27 89z" />
    <glyph glyph-name="uni1EB7" unicode="&#x1eb7;" horiz-adv-x="527" 
d="M469 343l-46 -217q-18 -86 -24 -126h-81q4 34 13 78q-54 -88 -172 -88q-71 0 -105 38t-34 90q0 163 237 186q7 1 123 5l7 34q21 110 -91 110q-40 0 -67 -14t-37 -29.5t-20 -40.5h-85q35 148 216 148q92 0 138.5 -43.5t27.5 -130.5zM365 240l2 8q-77 -3 -104 -6
q-72 -7 -113.5 -31.5t-41.5 -80.5q0 -31 20.5 -51t60.5 -20q76 0 116.5 49t59.5 132zM208 722h63q-2 -67 61 -67q25 0 44.5 12t27.5 23.5t18 31.5h63q-43 -130 -161 -130q-66 0 -94.5 38.5t-21.5 91.5zM219 -189h-89l23 108h88z" />
    <glyph glyph-name="uni1EB8" unicode="&#x1eb8;" horiz-adv-x="568" 
d="M528 404l-16 -74h-325l-53 -256h371l-27 -74h-446l147 696h428l-15 -74h-342l-47 -218h325zM285 -184h-89l23 108h88z" />
    <glyph glyph-name="uni1EB9" unicode="&#x1eb9;" horiz-adv-x="514" 
d="M469 241h-346q-4 -40 -4 -48q0 -64 29.5 -99t82.5 -35q86 0 131 84h86q-64 -153 -227 -153q-92 0 -139 54.5t-47 146.5q0 56 15.5 111.5t46.5 104.5t84 79.5t120 30.5q95 0 138 -51.5t43 -129.5q0 -46 -13 -95zM137 304h261q3 13 3 37q0 109 -105 109q-57 0 -98 -38
t-61 -108zM236 -184h-89l23 108h88z" />
    <glyph glyph-name="uni1EBA" unicode="&#x1eba;" horiz-adv-x="568" 
d="M528 404l-16 -74h-325l-53 -256h371l-27 -74h-446l147 696h428l-15 -74h-342l-47 -218h325zM425 752h-84q81 48 81 86q0 32 -39 32q-30 0 -60 -16l-13 48q40 27 94 27q44 0 67.5 -22t23.5 -52q0 -58 -70 -103z" />
    <glyph glyph-name="uni1EBB" unicode="&#x1ebb;" horiz-adv-x="514" 
d="M469 241h-346q-4 -40 -4 -48q0 -64 29.5 -99t82.5 -35q86 0 131 84h86q-64 -153 -227 -153q-92 0 -139 54.5t-47 146.5q0 56 15.5 111.5t46.5 104.5t84 79.5t120 30.5q95 0 138 -51.5t43 -129.5q0 -46 -13 -95zM137 304h261q3 13 3 37q0 109 -105 109q-57 0 -98 -38
t-61 -108zM359 584h-84q81 48 81 86q0 32 -39 32q-30 0 -60 -16l-13 48q40 27 94 27q44 0 67.5 -22t23.5 -52q0 -58 -70 -103z" />
    <glyph glyph-name="uni1EBC" unicode="&#x1ebc;" horiz-adv-x="568" 
d="M528 404l-16 -74h-325l-53 -256h371l-27 -74h-446l147 696h428l-15 -74h-342l-47 -218h325zM300 783h-60l4 25q8 51 30.5 70t59.5 19q32 0 81.5 -25.5t64.5 -25.5t23.5 9.5t12.5 33.5l1 9h61l-5 -28q-9 -51 -31.5 -70.5t-61.5 -19.5q-30 0 -77.5 25.5t-65.5 25.5
q-28 0 -33 -30z" />
    <glyph glyph-name="uni1EBD" unicode="&#x1ebd;" horiz-adv-x="514" 
d="M469 241h-346q-4 -40 -4 -48q0 -64 29.5 -99t82.5 -35q86 0 131 84h86q-64 -153 -227 -153q-92 0 -139 54.5t-47 146.5q0 56 15.5 111.5t46.5 104.5t84 79.5t120 30.5q95 0 138 -51.5t43 -129.5q0 -46 -13 -95zM137 304h261q3 13 3 37q0 109 -105 109q-57 0 -98 -38
t-61 -108zM231 608h-60l5 25q9 50 31 69t60 19q29 0 72.5 -24.5t56.5 -24.5q25 0 33 42l2 10h59l-4 -22q-9 -53 -31 -74t-59 -21q-27 0 -70 25t-60 25q-23 0 -31 -33z" />
    <glyph glyph-name="uni1EBE" unicode="&#x1ebe;" horiz-adv-x="568" 
d="M528 404l-16 -74h-325l-53 -256h371l-27 -74h-446l147 696h428l-15 -74h-342l-47 -218h325zM379 878h85l98 -114h-83l-64 69l-91 -69h-93zM657 974h106l-153 -111h-83z" />
    <glyph glyph-name="uni1EBF" unicode="&#x1ebf;" horiz-adv-x="514" 
d="M469 241h-346q-4 -40 -4 -48q0 -64 29.5 -99t82.5 -35q86 0 131 84h86q-64 -153 -227 -153q-92 0 -139 54.5t-47 146.5q0 56 15.5 111.5t46.5 104.5t84 79.5t120 30.5q95 0 138 -51.5t43 -129.5q0 -46 -13 -95zM137 304h261q3 13 3 37q0 109 -105 109q-57 0 -98 -38
t-61 -108zM308 711h76l81 -133h-79l-48 86l-83 -86h-83zM572 820h102l-157 -127h-77z" />
    <glyph glyph-name="uni1EC0" unicode="&#x1ec0;" horiz-adv-x="568" 
d="M528 404l-16 -74h-325l-53 -256h371l-27 -74h-446l147 696h428l-15 -74h-342l-47 -218h325zM378 880h85l98 -114h-83l-64 69l-91 -69h-93zM477 980h97l107 -124h-73z" />
    <glyph glyph-name="uni1EC1" unicode="&#x1ec1;" horiz-adv-x="514" 
d="M469 241h-346q-4 -40 -4 -48q0 -64 29.5 -99t82.5 -35q86 0 131 84h86q-64 -153 -227 -153q-92 0 -139 54.5t-47 146.5q0 56 15.5 111.5t46.5 104.5t84 79.5t120 30.5q95 0 138 -51.5t43 -129.5q0 -46 -13 -95zM137 304h261q3 13 3 37q0 109 -105 109q-57 0 -98 -38
t-61 -108zM305 709h77l81 -133h-79l-48 86l-84 -86h-82zM399 821h88l90 -145h-68z" />
    <glyph glyph-name="uni1EC2" unicode="&#x1ec2;" horiz-adv-x="568" 
d="M528 404l-16 -74h-325l-53 -256h371l-27 -74h-446l147 696h428l-15 -74h-342l-47 -218h325zM378 876h86l98 -115h-83l-64 70l-91 -70h-94zM613 854h-79q70 43 70 80q0 26 -32 26q-29 0 -54 -14l-11 46q38 25 87 25q38 0 58.5 -20t20.5 -47q0 -52 -60 -96z" />
    <glyph glyph-name="uni1EC3" unicode="&#x1ec3;" horiz-adv-x="514" 
d="M469 241h-346q-4 -40 -4 -48q0 -64 29.5 -99t82.5 -35q86 0 131 84h86q-64 -153 -227 -153q-92 0 -139 54.5t-47 146.5q0 56 15.5 111.5t46.5 104.5t84 79.5t120 30.5q95 0 138 -51.5t43 -129.5q0 -46 -13 -95zM137 304h261q3 13 3 37q0 109 -105 109q-57 0 -98 -38
t-61 -108zM305 708h77l81 -133h-79l-48 86l-84 -86h-82zM528 676h-72q70 47 70 82q0 23 -30 23q-33 0 -56 -16l-10 45q38 28 89 28q34 0 54 -19t20 -46q0 -62 -65 -97z" />
    <glyph glyph-name="uni1EC4" unicode="&#x1ec4;" horiz-adv-x="568" 
d="M528 404l-16 -74h-325l-53 -256h371l-27 -74h-446l147 696h428l-15 -74h-342l-47 -218h325zM330 896h-60l3 14q17 81 90 81q33 0 79.5 -18t62.5 -18q26 0 33 27l1 7h59l-2 -12q-13 -82 -92 -82q-27 0 -72.5 18.5t-67.5 18.5q-26 0 -32 -30zM367 858h95l98 -96h-88l-62 55
l-84 -55h-97z" />
    <glyph glyph-name="uni1EC5" unicode="&#x1ec5;" horiz-adv-x="514" 
d="M469 241h-346q-4 -40 -4 -48q0 -64 29.5 -99t82.5 -35q86 0 131 84h86q-64 -153 -227 -153q-92 0 -139 54.5t-47 146.5q0 56 15.5 111.5t46.5 104.5t84 79.5t120 30.5q95 0 138 -51.5t43 -129.5q0 -46 -13 -95zM137 304h261q3 13 3 37q0 109 -105 109q-57 0 -98 -38
t-61 -108zM258 713h-53l3 18q11 75 83 75q29 0 68.5 -18t51.5 -18q23 0 29 28l2 7h52l-2 -13q-12 -79 -80 -79q-24 0 -65 18t-56 18q-25 0 -32 -30zM288 672h82l90 -104h-81l-56 63l-80 -63h-86z" />
    <glyph glyph-name="uni1EC6" unicode="&#x1ec6;" horiz-adv-x="568" 
d="M528 404l-16 -74h-325l-53 -256h371l-27 -74h-446l147 696h428l-15 -74h-342l-47 -218h325zM278 -184h-89l23 108h88zM379 892h84l103 -129h-84l-67 81l-102 -81h-92z" />
    <glyph glyph-name="uni1EC7" unicode="&#x1ec7;" horiz-adv-x="514" 
d="M469 241h-346q-4 -40 -4 -48q0 -64 29.5 -99t82.5 -35q86 0 131 84h86q-64 -153 -227 -153q-92 0 -139 54.5t-47 146.5q0 56 15.5 111.5t46.5 104.5t84 79.5t120 30.5q95 0 138 -51.5t43 -129.5q0 -46 -13 -95zM137 304h261q3 13 3 37q0 109 -105 109q-57 0 -98 -38
t-61 -108zM231 -184h-89l23 108h88zM311 739h81l72 -143h-79l-43 93l-87 -93h-84z" />
    <glyph glyph-name="uni1EC8" unicode="&#x1ec8;" horiz-adv-x="261" 
d="M180 696h87l-147 -696h-88zM266 750h-84q81 48 81 86q0 32 -39 32q-30 0 -60 -16l-13 48q40 27 94 27q44 0 67.5 -22t23.5 -52q0 -58 -70 -103z" />
    <glyph glyph-name="uni1EC9" unicode="&#x1ec9;" horiz-adv-x="232" 
d="M21 0l107 507h83l-108 -507h-82zM222 584h-84q81 48 81 86q0 32 -39 32q-30 0 -60 -16l-13 48q40 27 94 27q44 0 67.5 -22t23.5 -52q0 -58 -70 -103z" />
    <glyph glyph-name="uni1ECA" unicode="&#x1eca;" horiz-adv-x="261" 
d="M180 696h87l-147 -696h-88zM83 -184h-89l23 108h88z" />
    <glyph glyph-name="uni1ECB" unicode="&#x1ecb;" horiz-adv-x="232" 
d="M21 0l107 507h83l-108 -507h-82zM153 625l23 109h83l-23 -109h-83zM69 -190h-89l23 108h88z" />
    <glyph glyph-name="uni1ECC" unicode="&#x1ecc;" horiz-adv-x="726" 
d="M426 706q128 0 196.5 -77t68.5 -211q0 -79 -22.5 -153t-65.5 -136.5t-115.5 -100.5t-164.5 -38q-126 0 -194.5 77t-68.5 203q0 79 23.5 155t67.5 139.5t115.5 102.5t159.5 39zM420 633q-66 0 -119 -33t-85 -86t-49 -115.5t-17 -125.5q0 -94 46.5 -152t137.5 -58
q86 0 148.5 55t90.5 134t28 168q0 98 -46 155.5t-135 57.5zM323 -184h-89l23 108h88z" />
    <glyph glyph-name="uni1ECD" unicode="&#x1ecd;" horiz-adv-x="536" 
d="M305 517q88 0 140 -55t52 -154q0 -53 -15.5 -106.5t-46 -102t-84.5 -79t-124 -30.5q-91 0 -140.5 54t-49.5 150q0 55 16.5 110.5t48 103.5t85 78.5t118.5 30.5zM297 448q-55 0 -96.5 -41.5t-60 -98t-18.5 -113.5q0 -64 29.5 -100t84.5 -36q57 0 99 41.5t59.5 97
t17.5 113.5q0 65 -29 101t-86 36zM228 -188h-89l23 108h88z" />
    <glyph glyph-name="uni1ECE" unicode="&#x1ece;" horiz-adv-x="726" 
d="M426 706q128 0 196.5 -77t68.5 -211q0 -79 -22.5 -153t-65.5 -136.5t-115.5 -100.5t-164.5 -38q-126 0 -194.5 77t-68.5 203q0 79 23.5 155t67.5 139.5t115.5 102.5t159.5 39zM420 633q-66 0 -119 -33t-85 -86t-49 -115.5t-17 -125.5q0 -94 46.5 -152t137.5 -58
q86 0 148.5 55t90.5 134t28 168q0 98 -46 155.5t-135 57.5zM479 756h-84q81 48 81 86q0 32 -39 32q-30 0 -60 -16l-13 48q40 27 94 27q44 0 67.5 -22t23.5 -52q0 -58 -70 -103z" />
    <glyph glyph-name="uni1ECF" unicode="&#x1ecf;" horiz-adv-x="536" 
d="M305 517q88 0 140 -55t52 -154q0 -53 -15.5 -106.5t-46 -102t-84.5 -79t-124 -30.5q-91 0 -140.5 54t-49.5 150q0 55 16.5 110.5t48 103.5t85 78.5t118.5 30.5zM297 448q-55 0 -96.5 -41.5t-60 -98t-18.5 -113.5q0 -64 29.5 -100t84.5 -36q57 0 99 41.5t59.5 97
t17.5 113.5q0 65 -29 101t-86 36zM364 584h-84q81 48 81 86q0 32 -39 32q-30 0 -60 -16l-13 48q40 27 94 27q44 0 67.5 -22t23.5 -52q0 -58 -70 -103z" />
    <glyph glyph-name="uni1ED0" unicode="&#x1ed0;" horiz-adv-x="726" 
d="M426 706q128 0 196.5 -77t68.5 -211q0 -79 -22.5 -153t-65.5 -136.5t-115.5 -100.5t-164.5 -38q-126 0 -194.5 77t-68.5 203q0 79 23.5 155t67.5 139.5t115.5 102.5t159.5 39zM420 633q-66 0 -119 -33t-85 -86t-49 -115.5t-17 -125.5q0 -94 46.5 -152t137.5 -58
q86 0 148.5 55t90.5 134t28 168q0 98 -46 155.5t-135 57.5zM425 880h85l98 -114h-83l-64 69l-91 -69h-93zM703 976h106l-153 -111h-83z" />
    <glyph glyph-name="uni1ED1" unicode="&#x1ed1;" horiz-adv-x="536" 
d="M305 517q88 0 140 -55t52 -154q0 -53 -15.5 -106.5t-46 -102t-84.5 -79t-124 -30.5q-91 0 -140.5 54t-49.5 150q0 55 16.5 110.5t48 103.5t85 78.5t118.5 30.5zM297 448q-55 0 -96.5 -41.5t-60 -98t-18.5 -113.5q0 -64 29.5 -100t84.5 -36q57 0 99 41.5t59.5 97
t17.5 113.5q0 65 -29 101t-86 36zM312 710h76l81 -133h-79l-48 86l-83 -86h-83zM576 819h102l-157 -127h-77z" />
    <glyph glyph-name="uni1ED2" unicode="&#x1ed2;" horiz-adv-x="726" 
d="M426 706q128 0 196.5 -77t68.5 -211q0 -79 -22.5 -153t-65.5 -136.5t-115.5 -100.5t-164.5 -38q-126 0 -194.5 77t-68.5 203q0 79 23.5 155t67.5 139.5t115.5 102.5t159.5 39zM420 633q-66 0 -119 -33t-85 -86t-49 -115.5t-17 -125.5q0 -94 46.5 -152t137.5 -58
q86 0 148.5 55t90.5 134t28 168q0 98 -46 155.5t-135 57.5zM423 875h85l98 -114h-83l-64 69l-91 -69h-93zM522 975h97l107 -124h-73z" />
    <glyph glyph-name="uni1ED3" unicode="&#x1ed3;" horiz-adv-x="536" 
d="M305 517q88 0 140 -55t52 -154q0 -53 -15.5 -106.5t-46 -102t-84.5 -79t-124 -30.5q-91 0 -140.5 54t-49.5 150q0 55 16.5 110.5t48 103.5t85 78.5t118.5 30.5zM297 448q-55 0 -96.5 -41.5t-60 -98t-18.5 -113.5q0 -64 29.5 -100t84.5 -36q57 0 99 41.5t59.5 97
t17.5 113.5q0 65 -29 101t-86 36zM311 708h77l81 -133h-79l-48 86l-84 -86h-82zM405 820h88l90 -145h-68z" />
    <glyph glyph-name="uni1ED4" unicode="&#x1ed4;" horiz-adv-x="726" 
d="M426 706q128 0 196.5 -77t68.5 -211q0 -79 -22.5 -153t-65.5 -136.5t-115.5 -100.5t-164.5 -38q-126 0 -194.5 77t-68.5 203q0 79 23.5 155t67.5 139.5t115.5 102.5t159.5 39zM420 633q-66 0 -119 -33t-85 -86t-49 -115.5t-17 -125.5q0 -94 46.5 -152t137.5 -58
q86 0 148.5 55t90.5 134t28 168q0 98 -46 155.5t-135 57.5zM420 875h86l98 -115h-83l-64 70l-91 -70h-94zM655 853h-79q70 43 70 80q0 26 -32 26q-29 0 -54 -14l-11 46q38 25 87 25q38 0 58.5 -20t20.5 -47q0 -52 -60 -96z" />
    <glyph glyph-name="uni1ED5" unicode="&#x1ed5;" horiz-adv-x="536" 
d="M305 517q88 0 140 -55t52 -154q0 -53 -15.5 -106.5t-46 -102t-84.5 -79t-124 -30.5q-91 0 -140.5 54t-49.5 150q0 55 16.5 110.5t48 103.5t85 78.5t118.5 30.5zM297 448q-55 0 -96.5 -41.5t-60 -98t-18.5 -113.5q0 -64 29.5 -100t84.5 -36q57 0 99 41.5t59.5 97
t17.5 113.5q0 65 -29 101t-86 36zM311 708h77l81 -133h-79l-48 86l-84 -86h-82zM534 676h-72q70 47 70 82q0 23 -30 23q-33 0 -56 -16l-10 45q39 28 89 28q34 0 54 -19t20 -46q0 -62 -65 -97z" />
    <glyph glyph-name="uni1ED6" unicode="&#x1ed6;" horiz-adv-x="726" 
d="M426 706q128 0 196.5 -77t68.5 -211q0 -79 -22.5 -153t-65.5 -136.5t-115.5 -100.5t-164.5 -38q-126 0 -194.5 77t-68.5 203q0 79 23.5 155t67.5 139.5t115.5 102.5t159.5 39zM420 633q-66 0 -119 -33t-85 -86t-49 -115.5t-17 -125.5q0 -94 46.5 -152t137.5 -58
q86 0 148.5 55t90.5 134t28 168q0 98 -46 155.5t-135 57.5zM378 894h-60l3 14q17 81 90 81q33 0 79.5 -18t62.5 -18q26 0 33 27l1 7h59l-2 -12q-13 -82 -92 -82q-27 0 -72.5 18.5t-67.5 18.5q-26 0 -32 -30zM415 856h95l98 -96h-88l-62 55l-84 -55h-97z" />
    <glyph glyph-name="uni1ED7" unicode="&#x1ed7;" horiz-adv-x="536" 
d="M305 517q88 0 140 -55t52 -154q0 -53 -15.5 -106.5t-46 -102t-84.5 -79t-124 -30.5q-91 0 -140.5 54t-49.5 150q0 55 16.5 110.5t48 103.5t85 78.5t118.5 30.5zM297 448q-55 0 -96.5 -41.5t-60 -98t-18.5 -113.5q0 -64 29.5 -100t84.5 -36q57 0 99 41.5t59.5 97
t17.5 113.5q0 65 -29 101t-86 36zM269 714h-53l3 18q11 75 83 75q29 0 68.5 -18t51.5 -18q23 0 29 28l2 7h52l-2 -13q-12 -79 -80 -79q-24 0 -65 18t-56 18q-25 0 -32 -30zM299 673h82l90 -104h-81l-56 63l-80 -63h-86z" />
    <glyph glyph-name="uni1ED8" unicode="&#x1ed8;" horiz-adv-x="726" 
d="M426 706q128 0 196.5 -77t68.5 -211q0 -79 -22.5 -153t-65.5 -136.5t-115.5 -100.5t-164.5 -38q-126 0 -194.5 77t-68.5 203q0 79 23.5 155t67.5 139.5t115.5 102.5t159.5 39zM420 633q-66 0 -119 -33t-85 -86t-49 -115.5t-17 -125.5q0 -94 46.5 -152t137.5 -58
q86 0 148.5 55t90.5 134t28 168q0 98 -46 155.5t-135 57.5zM323 -184h-89l23 108h88zM439 887h84l103 -129h-84l-67 81l-102 -81h-92z" />
    <glyph glyph-name="uni1ED9" unicode="&#x1ed9;" horiz-adv-x="536" 
d="M305 517q88 0 140 -55t52 -154q0 -53 -15.5 -106.5t-46 -102t-84.5 -79t-124 -30.5q-91 0 -140.5 54t-49.5 150q0 55 16.5 110.5t48 103.5t85 78.5t118.5 30.5zM297 448q-55 0 -96.5 -41.5t-60 -98t-18.5 -113.5q0 -64 29.5 -100t84.5 -36q57 0 99 41.5t59.5 97
t17.5 113.5q0 65 -29 101t-86 36zM230 -184h-89l23 108h88zM322 740h81l72 -143h-79l-43 93l-87 -93h-84z" />
    <glyph glyph-name="uni1EDA" unicode="&#x1eda;" horiz-adv-x="726" 
d="M426 706q121 0 189 -70q36 6 51 25t15 55q0 22 -3 37h80q2 -12 2 -30q0 -117 -104 -143q35 -68 35 -162q0 -79 -22.5 -153t-65.5 -136.5t-115.5 -100.5t-164.5 -38q-126 0 -194.5 77t-68.5 203q0 79 23.5 155t67.5 139.5t115.5 102.5t159.5 39zM420 633q-66 0 -119 -33
t-85 -86t-49 -115.5t-17 -125.5q0 -94 46.5 -152t137.5 -58q86 0 148.5 55t90.5 134t28 168q0 98 -46 155.5t-135 57.5zM573 905h123l-210 -137h-94z" />
    <glyph glyph-name="uni1EDB" unicode="&#x1edb;" horiz-adv-x="536" 
d="M305 517q88 0 138 -53q35 7 49.5 25.5t14.5 54.5q0 22 -3 37h80q2 -12 2 -30q0 -117 -106 -144q17 -43 17 -99q0 -53 -15.5 -106.5t-46 -102t-84.5 -79t-124 -30.5q-91 0 -140.5 54t-49.5 150q0 55 16.5 110.5t48 103.5t85 78.5t118.5 30.5zM297 448q-55 0 -96.5 -41.5
t-60 -98t-18.5 -113.5q0 -64 29.5 -100t84.5 -36q57 0 99 41.5t59.5 97t17.5 113.5q0 65 -29 101t-86 36zM444 746h114l-201 -152h-90z" />
    <glyph glyph-name="uni1EDC" unicode="&#x1edc;" horiz-adv-x="726" 
d="M426 706q121 0 189 -70q36 6 51 25t15 55q0 22 -3 37h80q2 -12 2 -30q0 -117 -104 -143q35 -68 35 -162q0 -79 -22.5 -153t-65.5 -136.5t-115.5 -100.5t-164.5 -38q-126 0 -194.5 77t-68.5 203q0 79 23.5 155t67.5 139.5t115.5 102.5t159.5 39zM420 633q-66 0 -119 -33
t-85 -86t-49 -115.5t-17 -125.5q0 -94 46.5 -152t137.5 -58q86 0 148.5 55t90.5 134t28 168q0 98 -46 155.5t-135 57.5zM261 895h110l137 -137h-87z" />
    <glyph glyph-name="uni1EDD" unicode="&#x1edd;" horiz-adv-x="536" 
d="M305 517q88 0 138 -53q35 7 49.5 25.5t14.5 54.5q0 22 -3 37h80q2 -12 2 -30q0 -117 -106 -144q17 -43 17 -99q0 -53 -15.5 -106.5t-46 -102t-84.5 -79t-124 -30.5q-91 0 -140.5 54t-49.5 150q0 55 16.5 110.5t48 103.5t85 78.5t118.5 30.5zM297 448q-55 0 -96.5 -41.5
t-60 -98t-18.5 -113.5q0 -64 29.5 -100t84.5 -36q57 0 99 41.5t59.5 97t17.5 113.5q0 65 -29 101t-86 36zM178 746h96l109 -152h-77z" />
    <glyph glyph-name="uni1EDE" unicode="&#x1ede;" horiz-adv-x="726" 
d="M426 706q121 0 189 -70q36 6 51 25t15 55q0 22 -3 37h80q2 -12 2 -30q0 -117 -104 -143q35 -68 35 -162q0 -79 -22.5 -153t-65.5 -136.5t-115.5 -100.5t-164.5 -38q-126 0 -194.5 77t-68.5 203q0 79 23.5 155t67.5 139.5t115.5 102.5t159.5 39zM420 633q-66 0 -119 -33
t-85 -86t-49 -115.5t-17 -125.5q0 -94 46.5 -152t137.5 -58q86 0 148.5 55t90.5 134t28 168q0 98 -46 155.5t-135 57.5zM486 754h-84q81 48 81 86q0 32 -39 32q-30 0 -60 -16l-13 48q40 27 94 27q44 0 67.5 -22t23.5 -52q0 -58 -70 -103z" />
    <glyph glyph-name="uni1EDF" unicode="&#x1edf;" horiz-adv-x="536" 
d="M305 517q88 0 138 -53q35 7 49.5 25.5t14.5 54.5q0 22 -3 37h80q2 -12 2 -30q0 -117 -106 -144q17 -43 17 -99q0 -53 -15.5 -106.5t-46 -102t-84.5 -79t-124 -30.5q-91 0 -140.5 54t-49.5 150q0 55 16.5 110.5t48 103.5t85 78.5t118.5 30.5zM297 448q-55 0 -96.5 -41.5
t-60 -98t-18.5 -113.5q0 -64 29.5 -100t84.5 -36q57 0 99 41.5t59.5 97t17.5 113.5q0 65 -29 101t-86 36zM364 584h-84q81 48 81 86q0 32 -39 32q-30 0 -60 -16l-13 48q40 27 94 27q44 0 67.5 -22t23.5 -52q0 -58 -70 -103z" />
    <glyph glyph-name="uni1EE0" unicode="&#x1ee0;" horiz-adv-x="726" 
d="M426 706q121 0 189 -70q36 6 51 25t15 55q0 22 -3 37h80q2 -12 2 -30q0 -117 -104 -143q35 -68 35 -162q0 -79 -22.5 -153t-65.5 -136.5t-115.5 -100.5t-164.5 -38q-126 0 -194.5 77t-68.5 203q0 79 23.5 155t67.5 139.5t115.5 102.5t159.5 39zM420 633q-66 0 -119 -33
t-85 -86t-49 -115.5t-17 -125.5q0 -94 46.5 -152t137.5 -58q86 0 148.5 55t90.5 134t28 168q0 98 -46 155.5t-135 57.5zM349 768h-60l4 25q8 51 30.5 70t59.5 19q32 0 81.5 -25.5t64.5 -25.5t23.5 9.5t12.5 33.5l1 9h61l-5 -28q-9 -51 -31.5 -70.5t-61.5 -19.5
q-30 0 -77.5 25.5t-65.5 25.5q-28 0 -33 -30z" />
    <glyph glyph-name="uni1EE1" unicode="&#x1ee1;" horiz-adv-x="536" 
d="M305 517q88 0 138 -53q35 7 49.5 25.5t14.5 54.5q0 22 -3 37h80q2 -12 2 -30q0 -117 -106 -144q17 -43 17 -99q0 -53 -15.5 -106.5t-46 -102t-84.5 -79t-124 -30.5q-91 0 -140.5 54t-49.5 150q0 55 16.5 110.5t48 103.5t85 78.5t118.5 30.5zM297 448q-55 0 -96.5 -41.5
t-60 -98t-18.5 -113.5q0 -64 29.5 -100t84.5 -36q57 0 99 41.5t59.5 97t17.5 113.5q0 65 -29 101t-86 36zM248 608h-60l5 25q9 50 31 69t60 19q29 0 72.5 -24.5t56.5 -24.5q25 0 33 42l2 10h59l-4 -22q-9 -53 -31 -74t-59 -21q-27 0 -70 25t-60 25q-23 0 -31 -33z" />
    <glyph glyph-name="uni1EE2" unicode="&#x1ee2;" horiz-adv-x="726" 
d="M426 706q121 0 189 -70q36 6 51 25t15 55q0 22 -3 37h80q2 -12 2 -30q0 -117 -104 -143q35 -68 35 -162q0 -79 -22.5 -153t-65.5 -136.5t-115.5 -100.5t-164.5 -38q-126 0 -194.5 77t-68.5 203q0 79 23.5 155t67.5 139.5t115.5 102.5t159.5 39zM420 633q-66 0 -119 -33
t-85 -86t-49 -115.5t-17 -125.5q0 -94 46.5 -152t137.5 -58q86 0 148.5 55t90.5 134t28 168q0 98 -46 155.5t-135 57.5zM323 -188h-89l23 108h88z" />
    <glyph glyph-name="uni1EE3" unicode="&#x1ee3;" horiz-adv-x="536" 
d="M305 517q88 0 138 -53q35 7 49.5 25.5t14.5 54.5q0 22 -3 37h80q2 -12 2 -30q0 -117 -106 -144q17 -43 17 -99q0 -53 -15.5 -106.5t-46 -102t-84.5 -79t-124 -30.5q-91 0 -140.5 54t-49.5 150q0 55 16.5 110.5t48 103.5t85 78.5t118.5 30.5zM297 448q-55 0 -96.5 -41.5
t-60 -98t-18.5 -113.5q0 -64 29.5 -100t84.5 -36q57 0 99 41.5t59.5 97t17.5 113.5q0 65 -29 101t-86 36zM230 -184h-89l23 108h88z" />
    <glyph glyph-name="uni1EE4" unicode="&#x1ee4;" horiz-adv-x="672" 
d="M169 696h87l-91 -427q-23 -107 17.5 -156t124.5 -49q92 0 134.5 45t66.5 159l92 428h87l-93 -435q-31 -148 -96 -209t-200 -61q-126 0 -188 69.5t-31 213.5zM303 -181h-89l23 108h88z" />
    <glyph glyph-name="uni1EE5" unicode="&#x1ee5;" horiz-adv-x="542" 
d="M520 507l-79 -371q-13 -60 -26 -136h-81q2 36 14 87q-57 -97 -170 -97q-74 0 -109 45.5t-15 141.5l72 330h81l-68 -322q-6 -33 -6.5 -61t19 -45.5t58.5 -17.5q62 0 107.5 49.5t67.5 152.5l52 244h83zM225 -188h-89l23 108h88z" />
    <glyph glyph-name="uni1EE6" unicode="&#x1ee6;" horiz-adv-x="672" 
d="M169 696h87l-91 -427q-23 -107 17.5 -156t124.5 -49q92 0 134.5 45t66.5 159l92 428h87l-93 -435q-31 -148 -96 -209t-200 -61q-126 0 -188 69.5t-31 213.5zM456 739h-84q81 48 81 86q0 32 -39 32q-30 0 -60 -16l-13 48q40 27 94 27q44 0 67.5 -22t23.5 -52
q0 -58 -70 -103z" />
    <glyph glyph-name="uni1EE7" unicode="&#x1ee7;" horiz-adv-x="542" 
d="M520 507l-79 -371q-13 -60 -26 -136h-81q2 36 14 87q-57 -97 -170 -97q-74 0 -109 45.5t-15 141.5l72 330h81l-68 -322q-6 -33 -6.5 -61t19 -45.5t58.5 -17.5q62 0 107.5 49.5t67.5 152.5l52 244h83zM362 584h-84q81 48 81 86q0 32 -39 32q-30 0 -60 -16l-13 48
q40 27 94 27q44 0 67.5 -22t23.5 -52q0 -58 -70 -103z" />
    <glyph glyph-name="uni1EE8" unicode="&#x1ee8;" horiz-adv-x="672" 
d="M169 696h87l-91 -427q-23 -107 17.5 -156t124.5 -49q92 0 134.5 45t66.5 159l92 428h25q45 4 63.5 23.5t18.5 58.5q0 22 -3 37h80q2 -12 2 -30q0 -120 -111 -145l-81 -379q-31 -148 -96 -209t-200 -61q-126 0 -188 69.5t-31 213.5zM541 890h123l-210 -137h-94z" />
    <glyph glyph-name="uni1EE9" unicode="&#x1ee9;" horiz-adv-x="542" 
d="M348 87q-57 -97 -170 -97q-74 0 -109 45.5t-15 141.5l72 330h81l-68 -322q-6 -33 -6.5 -61t19 -45.5t58.5 -17.5q62 0 107.5 49.5t67.5 152.5l52 244h27v1q45 4 63.5 23.5t18.5 58.5q0 22 -3 37h80q2 -12 2 -30q0 -124 -117 -146l-67 -315q-13 -60 -26 -136h-81
q2 36 14 87zM442 746h114l-201 -152h-90z" />
    <glyph glyph-name="uni1EEA" unicode="&#x1eea;" horiz-adv-x="672" 
d="M169 696h87l-91 -427q-23 -107 17.5 -156t124.5 -49q92 0 134.5 45t66.5 159l92 428h25q45 4 63.5 23.5t18.5 58.5q0 22 -3 37h80q2 -12 2 -30q0 -120 -111 -145l-81 -379q-31 -148 -96 -209t-200 -61q-126 0 -188 69.5t-31 213.5zM249 890h110l137 -137h-87z" />
    <glyph glyph-name="uni1EEB" unicode="&#x1eeb;" horiz-adv-x="542" 
d="M348 87q-57 -97 -170 -97q-74 0 -109 45.5t-15 141.5l72 330h81l-68 -322q-6 -33 -6.5 -61t19 -45.5t58.5 -17.5q62 0 107.5 49.5t67.5 152.5l52 244h27v1q45 4 63.5 23.5t18.5 58.5q0 22 -3 37h80q2 -12 2 -30q0 -124 -117 -146l-67 -315q-13 -60 -26 -136h-81
q2 36 14 87zM183 746h96l109 -152h-77z" />
    <glyph glyph-name="uni1EEC" unicode="&#x1eec;" horiz-adv-x="672" 
d="M169 696h87l-91 -427q-23 -107 17.5 -156t124.5 -49q92 0 134.5 45t66.5 159l92 428h25q45 4 63.5 23.5t18.5 58.5q0 22 -3 37h80q2 -12 2 -30q0 -120 -111 -145l-81 -379q-31 -148 -96 -209t-200 -61q-126 0 -188 69.5t-31 213.5zM457 738h-84q81 48 81 86q0 32 -39 32
q-30 0 -60 -16l-13 48q40 27 94 27q44 0 67.5 -22t23.5 -52q0 -58 -70 -103z" />
    <glyph glyph-name="uni1EED" unicode="&#x1eed;" horiz-adv-x="542" 
d="M348 87q-57 -97 -170 -97q-74 0 -109 45.5t-15 141.5l72 330h81l-68 -322q-6 -33 -6.5 -61t19 -45.5t58.5 -17.5q62 0 107.5 49.5t67.5 152.5l52 244h27v1q45 4 63.5 23.5t18.5 58.5q0 22 -3 37h80q2 -12 2 -30q0 -124 -117 -146l-67 -315q-13 -60 -26 -136h-81
q2 36 14 87zM370 584h-84q81 48 81 86q0 32 -39 32q-30 0 -60 -16l-13 48q40 27 94 27q44 0 67.5 -22t23.5 -52q0 -58 -70 -103z" />
    <glyph glyph-name="uni1EEE" unicode="&#x1eee;" horiz-adv-x="672" 
d="M169 696h87l-91 -427q-23 -107 17.5 -156t124.5 -49q92 0 134.5 45t66.5 159l92 428h25q45 4 63.5 23.5t18.5 58.5q0 22 -3 37h80q2 -12 2 -30q0 -120 -111 -145l-81 -379q-31 -148 -96 -209t-200 -61q-126 0 -188 69.5t-31 213.5zM341 763h-60l4 25q8 51 30.5 70
t59.5 19q32 0 81.5 -25.5t64.5 -25.5t23.5 9.5t12.5 33.5l1 9h61l-5 -28q-9 -51 -31.5 -70.5t-61.5 -19.5q-30 0 -77.5 25.5t-65.5 25.5q-28 0 -33 -30z" />
    <glyph glyph-name="uni1EEF" unicode="&#x1eef;" horiz-adv-x="542" 
d="M348 87q-57 -97 -170 -97q-74 0 -109 45.5t-15 141.5l72 330h81l-68 -322q-6 -33 -6.5 -61t19 -45.5t58.5 -17.5q62 0 107.5 49.5t67.5 152.5l52 244h27v1q45 4 63.5 23.5t18.5 58.5q0 22 -3 37h80q2 -12 2 -30q0 -124 -117 -146l-67 -315q-13 -60 -26 -136h-81
q2 36 14 87zM251 608h-60l5 25q9 50 31 69t60 19q29 0 72.5 -24.5t56.5 -24.5q25 0 33 42l2 10h59l-4 -22q-9 -53 -31 -74t-59 -21q-27 0 -70 25t-60 25q-23 0 -31 -33z" />
    <glyph glyph-name="uni1EF0" unicode="&#x1ef0;" horiz-adv-x="672" 
d="M169 696h87l-91 -427q-23 -107 17.5 -156t124.5 -49q92 0 134.5 45t66.5 159l92 428h25q45 4 63.5 23.5t18.5 58.5q0 22 -3 37h80q2 -12 2 -30q0 -120 -111 -145l-81 -379q-31 -148 -96 -209t-200 -61q-126 0 -188 69.5t-31 213.5zM300 -181h-89l23 108h88z" />
    <glyph glyph-name="uni1EF1" unicode="&#x1ef1;" horiz-adv-x="542" 
d="M348 87q-57 -97 -170 -97q-74 0 -109 45.5t-15 141.5l72 330h81l-68 -322q-6 -33 -6.5 -61t19 -45.5t58.5 -17.5q62 0 107.5 49.5t67.5 152.5l52 244h27v1q45 4 63.5 23.5t18.5 58.5q0 22 -3 37h80q2 -12 2 -30q0 -124 -117 -146l-67 -315q-13 -60 -26 -136h-81
q2 36 14 87zM231 -184h-89l23 108h88z" />
    <glyph glyph-name="Ygrave" unicode="&#x1ef2;" horiz-adv-x="553" 
d="M256 0h-86l54 261q2 11 -1 18l-152 417h92q16 -47 64 -184.5t58 -170.5q18 28 59.5 83.5t119 155t90.5 116.5h96l-331 -422q-7 -9 -8 -18zM162 885h110l137 -137h-87z" />
    <glyph glyph-name="ygrave" unicode="&#x1ef3;" horiz-adv-x="478" 
d="M58 507h83q49 -353 54 -442h1q1 3 72.5 149t149.5 293h88l-282 -535q-33 -62 -59 -99t-54 -54.5t-51.5 -22.5t-63.5 -5q-34 0 -58 6l17 73q22 -4 46 -4q47 0 73 21.5t62 84.5zM133 743h96l109 -152h-77z" />
    <glyph glyph-name="uni1EF4" unicode="&#x1ef4;" horiz-adv-x="553" 
d="M256 0h-86l54 261q2 11 -1 18l-152 417h92q16 -47 64 -184.5t58 -170.5q18 28 59.5 83.5t119 155t90.5 116.5h96l-331 -422q-7 -9 -8 -18zM222 -184h-89l23 108h88z" />
    <glyph glyph-name="uni1EF5" unicode="&#x1ef5;" horiz-adv-x="478" 
d="M58 507h83q49 -353 54 -442h1q1 3 72.5 149t149.5 293h88l-282 -535q-33 -62 -59 -99t-54 -54.5t-51.5 -22.5t-63.5 -5q-34 0 -58 6l17 73q22 -4 46 -4q47 0 73 21.5t62 84.5zM354 -197h-89l23 108h88z" />
    <glyph glyph-name="uni1EF6" unicode="&#x1ef6;" horiz-adv-x="553" 
d="M256 0h-86l54 261q2 11 -1 18l-152 417h92q16 -47 64 -184.5t58 -170.5q18 28 59.5 83.5t119 155t90.5 116.5h96l-331 -422q-7 -9 -8 -18zM382 735h-84q81 48 81 86q0 32 -39 32q-30 0 -60 -16l-13 48q40 27 94 27q44 0 67.5 -22t23.5 -52q0 -58 -70 -103z" />
    <glyph glyph-name="uni1EF7" unicode="&#x1ef7;" horiz-adv-x="478" 
d="M58 507h83q49 -353 54 -442h1q1 3 72.5 149t149.5 293h88l-282 -535q-33 -62 -59 -99t-54 -54.5t-51.5 -22.5t-63.5 -5q-34 0 -58 6l17 73q22 -4 46 -4q47 0 73 21.5t62 84.5zM318 584h-84q81 48 81 86q0 32 -39 32q-30 0 -60 -16l-13 48q40 27 94 27q44 0 67.5 -22
t23.5 -52q0 -58 -70 -103z" />
    <glyph glyph-name="uni1EF8" unicode="&#x1ef8;" horiz-adv-x="553" 
d="M256 0h-86l54 261q2 11 -1 18l-152 417h92q16 -47 64 -184.5t58 -170.5q18 28 59.5 83.5t119 155t90.5 116.5h96l-331 -422q-7 -9 -8 -18zM262 760h-60l4 25q8 51 30.5 70t59.5 19q32 0 81.5 -25.5t64.5 -25.5t23.5 9.5t12.5 33.5l1 9h61l-5 -28q-9 -51 -31.5 -70.5
t-61.5 -19.5q-30 0 -77.5 25.5t-65.5 25.5q-28 0 -33 -30z" />
    <glyph glyph-name="uni1EF9" unicode="&#x1ef9;" horiz-adv-x="478" 
d="M58 507h83q49 -353 54 -442h1q1 3 72.5 149t149.5 293h88l-282 -535q-33 -62 -59 -99t-54 -54.5t-51.5 -22.5t-63.5 -5q-34 0 -58 6l17 73q22 -4 46 -4q47 0 73 21.5t62 84.5zM202 608h-60l5 25q9 50 31 69t60 19q29 0 72.5 -24.5t56.5 -24.5q25 0 33 42l2 10h59l-4 -22
q-9 -53 -31 -74t-59 -21q-27 0 -70 25t-60 25q-23 0 -31 -33z" />
    <glyph glyph-name="uni2007" unicode="&#x2007;" horiz-adv-x="546" 
 />
    <glyph glyph-name="uni2010" unicode="&#x2010;" horiz-adv-x="364" 
d="M63 294h253l-16 -76h-253z" />
    <glyph glyph-name="figuredash" unicode="&#x2012;" horiz-adv-x="546" 
d="M101 365h360l-16 -78h-360z" />
    <glyph glyph-name="endash" unicode="&#x2013;" horiz-adv-x="495" 
d="M63 294h384l-16 -76h-384z" />
    <glyph glyph-name="emdash" unicode="&#x2014;" horiz-adv-x="895" 
d="M63 294h784l-16 -76h-784z" />
    <glyph glyph-name="uni2015" unicode="&#x2015;" horiz-adv-x="895" 
d="M63 294h784l-16 -76h-784z" />
    <glyph glyph-name="quoteleft" unicode="&#x2018;" horiz-adv-x="199" 
d="M197 734h72q-36 -59 -66.5 -133.5t-42.5 -128.5h-85q15 65 51 141.5t71 120.5z" />
    <glyph glyph-name="quoteright" unicode="&#x2019;" horiz-adv-x="203" 
d="M143 472h-72q36 59 66.5 133.5t42.5 128.5h85q-15 -65 -51.5 -141.5t-70.5 -120.5z" />
    <glyph glyph-name="quotesinglbase" unicode="&#x201a;" horiz-adv-x="203" 
d="M-5 -129h-73q36 59 66.5 133.5t42.5 129.5h86q-15 -66 -51.5 -143t-70.5 -120z" />
    <glyph glyph-name="quotedblleft" unicode="&#x201c;" horiz-adv-x="358" 
d="M356 734h71q-80 -139 -108 -262h-82q15 66 50.5 141.5t68.5 120.5zM195 734h71q-83 -142 -108 -262h-82q16 68 51.5 144t67.5 118z" />
    <glyph glyph-name="quotedblright" unicode="&#x201d;" horiz-adv-x="362" 
d="M143 472h-71q81 141 107 262h83q-16 -67 -51 -142.5t-68 -119.5zM304 472h-71q81 140 108 262h82q-16 -68 -51.5 -144t-67.5 -118z" />
    <glyph glyph-name="quotedblbase" unicode="&#x201e;" horiz-adv-x="338" 
d="M-4 -129h-71q80 139 108 262h82q-15 -67 -50 -142.5t-69 -119.5zM157 -129h-70q35 60 65 133t42 129h83q-17 -69 -52.5 -145t-67.5 -117z" />
    <glyph glyph-name="dagger" unicode="&#x2020;" horiz-adv-x="489" 
d="M267 649h78l-52 -221l161 6l-16 -77l-159 6l-100 -495h-78l112 495l-163 -6l16 77l161 -6z" />
    <glyph glyph-name="daggerdbl" unicode="&#x2021;" horiz-adv-x="489" 
d="M169 154l50 235l-163 -5l15 76l161 -7l35 196h78l-47 -196l162 7l-16 -76l-159 5l-50 -235l161 5l-16 -76l-159 7l-42 -222h-78l54 222l-163 -7l16 76z" />
    <glyph glyph-name="bullet" unicode="&#x2022;" horiz-adv-x="365" 
d="M108 355h187l-44 -201h-186z" />
    <glyph glyph-name="ellipsis" unicode="&#x2026;" horiz-adv-x="810" 
d="M112 -1h-89l32 148h88zM385 -1h-89l32 148h88zM655 -1h-89l32 148h88z" />
    <glyph glyph-name="perthousand" unicode="&#x2030;" horiz-adv-x="1256" 
d="M1076 365q62 0 97.5 -36t35.5 -102q0 -97 -53.5 -167.5t-145.5 -70.5q-64 0 -98 38t-34 103q0 90 53 162.5t145 72.5zM1067 307q-56 0 -86.5 -57t-30.5 -116q0 -86 70 -86q40 0 68 31t39 68.5t11 73.5q0 86 -71 86zM274 668q63 0 98 -36t35 -102q0 -98 -53.5 -168
t-145.5 -70q-64 0 -98 38t-34 103q0 56 21.5 108.5t68 89.5t108.5 37zM265 610q-39 0 -67 -31t-39 -69t-11 -73q0 -86 71 -86q57 0 87.5 56.5t30.5 115.5q0 87 -72 87zM222 0h-75l548 658h75zM703 365q63 0 98 -36t35 -102q0 -97 -53.5 -167.5t-145.5 -70.5q-64 0 -98 38
t-34 103q0 57 21.5 109t68 89t108.5 37zM694 307q-56 0 -86.5 -57t-30.5 -116q0 -86 71 -86q57 0 87.5 56.5t30.5 116.5q0 86 -72 86z" />
    <glyph glyph-name="uni2032" unicode="&#x2032;" horiz-adv-x="224" 
d="M163 465h-69l97 269h84z" />
    <glyph glyph-name="uni2033" unicode="&#x2033;" horiz-adv-x="374" 
d="M156 465h-62l95 269h80zM313 465h-63l96 269h79z" />
    <glyph glyph-name="guilsinglleft" unicode="&#x2039;" horiz-adv-x="354" 
d="M347 453l-205 -199l114 -190h-79l-121 196l199 193h92z" />
    <glyph glyph-name="guilsinglright" unicode="&#x203a;" horiz-adv-x="358" 
d="M15 64l205 199l-114 190h79l121 -195l-199 -194h-92z" />
    <glyph glyph-name="fraction" unicode="&#x2044;" horiz-adv-x="229" 
d="M-104 0h-73l546 658h70z" />
    <glyph glyph-name="zero.sups" unicode="&#x2070;" horiz-adv-x="375" 
d="M242 828q63 0 97 -39t34 -108q0 -103 -49 -181.5t-143 -78.5q-63 0 -97.5 40.5t-34.5 110.5q0 61 19 117t64.5 97.5t109.5 41.5zM234 770q-38 0 -65.5 -36t-37.5 -79t-10 -84q0 -92 68 -92q31 0 54 21.5t35.5 54.5t18 65.5t5.5 61.5q0 88 -68 88z" />
    <glyph glyph-name="four.sups" unicode="&#x2074;" horiz-adv-x="356" 
d="M262 428h-66l22 104h-194l11 51l224 241h87l-52 -240h59l-16 -52h-54zM106 584h123l19 86q22 93 23 96q-17 -22 -165 -182z" />
    <glyph glyph-name="five.sups" unicode="&#x2075;" horiz-adv-x="368" 
d="M373 824l-19 -57h-185q-16 -56 -29 -100q36 24 86 24q57 0 88 -33t31 -82q0 -69 -46 -111t-121 -42q-67 0 -102.5 34t-37.5 84h66q4 -30 25.5 -47.5t52.5 -17.5q42 0 66 24.5t24 66.5q0 71 -68 71q-55 0 -87 -41l-56 13q21 60 64 214h248z" />
    <glyph glyph-name="six.sups" unicode="&#x2076;" horiz-adv-x="366" 
d="M370 722h-67q-8 51 -66 51q-44 0 -73 -35t-39 -92q42 44 106 44q56 0 88 -33.5t32 -84.5q0 -65 -45 -108t-115 -43q-65 0 -104 40.5t-39 116.5q0 59 19 113.5t65.5 95t110.5 40.5q59 0 92.5 -30.5t34.5 -74.5zM192 476q39 0 62.5 25t23.5 67q0 32 -17.5 50.5t-51.5 18.5
q-37 0 -63.5 -21t-26.5 -57q0 -35 17.5 -59t55.5 -24z" />
    <glyph glyph-name="seven.sups" unicode="&#x2077;" horiz-adv-x="332" 
d="M91 824h278l-10 -50q-64 -61 -127.5 -156.5t-100.5 -189.5h-78q34 88 101.5 187t125.5 152h-201z" />
    <glyph glyph-name="eight.sups" unicode="&#x2078;" horiz-adv-x="353" 
d="M178 421q-64 0 -100.5 30.5t-36.5 74.5q0 80 89 109q-42 21 -42 73q0 54 40 87t106 33q60 0 92.5 -29t32.5 -69q0 -35 -19.5 -61t-54.5 -37q26 -10 42 -32t16 -50q0 -62 -47 -95.5t-118 -33.5zM229 778q-32 0 -53.5 -17.5t-21.5 -49.5q0 -24 16 -38t45 -14q31 0 53 17
t22 48q0 24 -15 39t-46 15zM186 473q39 0 63 18.5t24 56.5q0 27 -19.5 42.5t-54.5 15.5q-37 0 -62 -19.5t-25 -54.5q0 -27 20.5 -43t53.5 -16z" />
    <glyph glyph-name="nine.sups" unicode="&#x2079;" horiz-adv-x="357" 
d="M37 530h69q8 -55 70 -55q78 0 105 129q-40 -37 -98 -37q-53 0 -86.5 32.5t-33.5 82.5q0 62 43 104t111 42q66 0 103 -38t37 -109q0 -45 -9 -87.5t-28.5 -83t-58.5 -65t-92 -24.5q-63 0 -96.5 32t-35.5 77zM213 773q-37 0 -59.5 -23.5t-22.5 -61.5q0 -30 19.5 -48
t50.5 -18q39 0 62.5 20.5t23.5 54.5q0 36 -19 56t-55 20z" />
    <glyph glyph-name="parenleft.sups" unicode="&#x207d;" horiz-adv-x="212" 
d="M197 871h66q-78 -76 -111 -144.5t-33 -164.5q0 -109 36 -198h-59q-39 88 -39 195q0 92 36 173.5t104 138.5z" />
    <glyph glyph-name="parenright.sups" unicode="&#x207e;" horiz-adv-x="212" 
d="M57 364h-66q78 79 111 147.5t33 164.5q0 105 -36 195h58q39 -88 39 -195q0 -91 -37 -174t-102 -138z" />
    <glyph glyph-name="n.sups" unicode="&#x207f;" horiz-adv-x="370" 
d="M45 261l48 226q13 61 21 106h63q1 -7 -7 -49q41 57 114 57q44 0 72.5 -31t14.5 -99l-45 -210h-67l42 197q18 85 -46 85q-38 0 -66.5 -28t-40.5 -83l-37 -171h-66z" />
    <glyph glyph-name="zero.subs" unicode="&#x2080;" horiz-adv-x="375" 
d="M115 227q63 0 97 -39t34 -108q0 -103 -49 -181.5t-143 -78.5q-63 0 -97.5 40.5t-34.5 110.5q0 61 19 117t64.5 97.5t109.5 41.5zM107 169q-38 0 -65.5 -36t-37.5 -79t-10 -84q0 -92 68 -92q31 0 54 21.5t35.5 54.5t18 65.5t5.5 61.5q0 88 -68 88z" />
    <glyph glyph-name="one.subs" unicode="&#x2081;" horiz-adv-x="240" 
d="M25 -176h-70l68 321q-37 -10 -79 -10l12 52q67 8 106 40h48z" />
    <glyph glyph-name="two.subs" unicode="&#x2082;" horiz-adv-x="349" 
d="M181 -175h-287l2 11q11 52 48.5 96t114.5 87q60 35 77 50.5t17 44.5q0 26 -16 41t-47 15q-63 0 -85 -71h-66q31 128 158 128q61 0 93.5 -31.5t32.5 -78.5t-26 -75.5t-94 -64.5q-89 -47 -112 -95h211z" />
    <glyph glyph-name="three.subs" unicode="&#x2083;" horiz-adv-x="359" 
d="M-93 -57h66q5 -32 26 -51t58 -19q36 0 59.5 18t23.5 55q0 27 -17.5 44t-54.5 17h-38l12 56h33q76 0 76 61q0 21 -14.5 35t-44.5 14q-32 0 -49 -15t-28 -41h-65q27 109 149 109q59 0 91 -27t32 -72q0 -34 -19 -57.5t-51 -32.5q22 -8 41 -30.5t19 -56.5q0 -56 -40.5 -93
t-118.5 -37q-79 0 -113.5 39t-32.5 84z" />
    <glyph glyph-name="four.subs" unicode="&#x2084;" horiz-adv-x="356" 
d="M135 -173h-66l22 104h-194l11 51l224 241h87l-52 -240h59l-16 -52h-54zM-21 -17h123l19 86q22 93 23 96q-17 -22 -165 -182z" />
    <glyph glyph-name="five.subs" unicode="&#x2085;" horiz-adv-x="368" 
d="M246 223l-19 -57h-185q-16 -56 -29 -100q36 24 86 24q57 0 88 -33t31 -82q0 -69 -46 -111t-121 -42q-67 0 -102.5 34t-37.5 84h66q4 -30 25.5 -47.5t52.5 -17.5q42 0 66 24.5t24 66.5q0 71 -68 71q-55 0 -87 -41l-56 13q21 60 64 214h248z" />
    <glyph glyph-name="six.subs" unicode="&#x2086;" horiz-adv-x="366" 
d="M243 121h-67q-8 51 -66 51q-44 0 -73 -35t-39 -92q42 44 106 44q56 0 88 -33.5t32 -84.5q0 -65 -45 -108t-115 -43q-65 0 -104 40.5t-39 116.5q0 59 19 113.5t65.5 95t110.5 40.5q59 0 92.5 -30.5t34.5 -74.5zM65 -125q39 0 62.5 25t23.5 67q0 32 -17.5 50.5t-51.5 18.5
q-37 0 -63.5 -21t-26.5 -57q0 -35 17.5 -59t55.5 -24z" />
    <glyph glyph-name="seven.subs" unicode="&#x2087;" horiz-adv-x="332" 
d="M-36 223h278l-10 -50q-64 -61 -127.5 -156.5t-100.5 -189.5h-78q34 88 101.5 187t125.5 152h-201z" />
    <glyph glyph-name="eight.subs" unicode="&#x2088;" horiz-adv-x="353" 
d="M51 -180q-64 0 -100.5 30.5t-36.5 74.5q0 80 89 109q-42 21 -42 73q0 54 40 87t106 33q60 0 92.5 -29t32.5 -69q0 -35 -19.5 -61t-54.5 -37q26 -10 42 -32t16 -50q0 -62 -47 -95.5t-118 -33.5zM102 177q-32 0 -53.5 -17.5t-21.5 -49.5q0 -24 16 -38t45 -14q31 0 53 17
t22 48q0 24 -15 39t-46 15zM59 -128q39 0 63 18.5t24 56.5q0 27 -19.5 42.5t-54.5 15.5q-37 0 -62 -19.5t-25 -54.5q0 -27 20.5 -43t53.5 -16z" />
    <glyph glyph-name="nine.subs" unicode="&#x2089;" horiz-adv-x="357" 
d="M-90 -71h69q8 -55 70 -55q78 0 105 129q-40 -37 -98 -37q-53 0 -86.5 32.5t-33.5 82.5q0 62 43 104t111 42q66 0 103 -38t37 -109q0 -45 -9 -87.5t-28.5 -83t-58.5 -65t-92 -24.5q-63 0 -96.5 32t-35.5 77zM86 172q-37 0 -59.5 -23.5t-22.5 -61.5q0 -30 19.5 -48
t50.5 -18q40 0 63 20.5t23 54.5q0 36 -19 56t-55 20z" />
    <glyph glyph-name="parenleft.subs" unicode="&#x208d;" horiz-adv-x="212" 
d="M70 270h66q-78 -76 -111 -144.5t-33 -164.5q0 -109 36 -198h-59q-39 88 -39 195q0 92 36 173.5t104 138.5z" />
    <glyph glyph-name="parenright.subs" unicode="&#x208e;" horiz-adv-x="212" 
d="M-70 -237h-66q78 79 111 147.5t33 164.5q0 105 -36 195h58q39 -88 39 -195q0 -91 -37 -174t-102 -138z" />
    <glyph glyph-name="colonmonetary" unicode="&#x20a1;" horiz-adv-x="508" 
d="M223 65q10 0 15 1l112 526q-18 2 -29 2t-17 -1l-111 -524q12 -4 30 -4zM114 226q0 -93 38 -133l103 483q-65 -38 -103 -137.5t-38 -212.5zM373 176h82q-27 -76 -71.5 -119.5t-113.5 -56.5l-19 -92h-46l18 87h-14q-11 0 -31 2l-19 -89h-46l22 101q-107 47 -107 216
q0 62 13.5 127.5t41 129t77 110.5t112.5 63l16 74h45l-14 -67q6 1 17 1t29 -2l14 68h45l-16 -77q54 -18 80.5 -63t24.5 -105h-79q-3 64 -42 92l-105 -499q46 21 86 99z" />
    <glyph glyph-name="franc" unicode="&#x20a3;" horiz-adv-x="485" 
d="M40 0l28 132h-86l13 60h86l99 466h352l-16 -73h-269l-43 -204h250l-15 -71h-250l-25 -118h137l-14 -60h-136l-28 -132h-83z" />
    <glyph glyph-name="lira" unicode="&#x20a4;" horiz-adv-x="495" 
d="M346 364h-146q-1 -9 -4 -32t-5 -38h141l-12 -54h-138q-23 -122 -74 -167h341l-26 -73h-441l14 65q79 34 104 175h-98l12 54h94q2 15 5.5 41t3.5 29h-89l12 55h83q1 6 2.5 18.5t2.5 17.5q28 213 200 213q87 0 126 -48t36 -115h-77q-3 96 -89 96q-51 0 -77 -35t-36 -107
q-4 -33 -5 -40h153z" />
    <glyph glyph-name="uni20A6" unicode="&#x20a6;" horiz-adv-x="503" 
d="M184 589q-8 -64 -26 -158h52l-21 158h-5zM319 82h6q8 62 28 170h-56zM68 0h-69l53 252h-51l12 55h51l14 68h-53l13 56h52l48 227h106l30 -227h115l49 227h69l-48 -227h49l-12 -56h-49l-14 -68h49l-12 -55h-49l-53 -252h-100l-34 252h-113zM363 307q2 12 7 34t7 34h-96
l9 -68h73zM227 307l-9 68h-71q-3 -12 -7.5 -35t-6.5 -33h94z" />
    <glyph glyph-name="peseta" unicode="&#x20a7;" horiz-adv-x="527" 
d="M11 0l90 426h-58l11 57h59l37 175h153q93 0 145 -48.5t52 -126.5h49l-12 -57h-42q-31 -182 -272 -182h-80l-51 -244h-81zM219 593l-24 -110h225q-3 110 -123 110h-78zM156 309h81q152 0 178 117h-233z" />
    <glyph glyph-name="dong" unicode="&#x20ab;" horiz-adv-x="532" 
d="M-7 -76h394l-13 -61h-394zM398 391l31 144h-222l14 60h221l16 72h80l-15 -72h62l-15 -60h-60l-81 -380q-5 -26 -15.5 -77.5t-16.5 -77.5h-73q2 21 11 70q-52 -79 -156 -79q-69 0 -111 48t-42 135q0 69 24.5 132t81.5 108.5t134 45.5q56 0 89.5 -21t42.5 -48zM270 392
q-51 0 -88.5 -34.5t-54 -81.5t-16.5 -97q0 -119 97 -119q54 0 98 42t64 131q17 80 -12 119.5t-88 39.5z" />
    <glyph glyph-name="Euro" unicode="&#x20ac;" horiz-adv-x="522" 
d="M392 146h83q-32 -81 -85 -118.5t-135 -37.5q-89 0 -132 60t-43 167q0 24 1 36h-67l12 55h59q6 42 10 63h-56l12 55h58q32 108 95.5 175t159.5 67q90 0 132 -51t40 -119h-78q-3 46 -28.5 74.5t-71.5 28.5q-112 0 -167 -175h199l-13 -55h-200q-4 -21 -10 -63h198l-12 -55
h-190q-1 -11 -1 -31q0 -164 104 -164q41 0 70.5 21.5t55.5 66.5z" />
    <glyph glyph-name="uni20B1" unicode="&#x20b1;" horiz-adv-x="537" 
d="M11 0l78 367h-61l10 52h62l11 51h-62l11 52h62l29 136h155q77 0 125.5 -36.5t62.5 -99.5h67l-11 -52h-51q0 -19 -4 -51h44l-10 -52h-49q-56 -140 -249 -140h-91l-48 -227h-81zM218 593l-15 -71h207q-24 71 -108 71h-84zM418 469v1h-226l-11 -51h232q5 25 5 50zM154 293
h90q108 0 150 74h-224z" />
    <glyph glyph-name="uni20B2" unicode="&#x20b2;" horiz-adv-x="535" 
d="M139 245q0 -138 73 -169l109 514q-47 -5 -84 -42.5t-57 -91t-30.5 -108t-10.5 -103.5zM520 494h-79q-10 79 -67 93l-111 -521h4q53 0 95 23l50 237h80l-59 -285q-34 -15 -55 -23t-55.5 -15t-73.5 -7h-1l-21 -99h-53l22 105q-69 16 -105 75.5t-36 157.5q0 63 14.5 130.5
t45 135t88 112.5t133.5 48l16 74h53l-16 -77q66 -11 99.5 -55.5t31.5 -108.5z" />
    <glyph glyph-name="uni20B4" unicode="&#x20b4;" horiz-adv-x="512" 
d="M185 508h-79q45 160 211 160q85 0 128 -43t43 -99q0 -58 -35 -103h52l-11 -52h-101q-27 -18 -115 -63h192l-12 -52h-273q-63 -45 -63 -108q0 -37 29 -63t75 -26q58 0 91 25.5t54 76.5h81q-30 -89 -86 -130.5t-153 -41.5q-78 0 -127 42.5t-49 108.5t42 116h-47l12 52h97
q33 22 110 63h-182l11 52h268q58 40 58 97q0 32 -24 56.5t-71 24.5t-76.5 -23t-49.5 -70z" />
    <glyph glyph-name="uni20B5" unicode="&#x20b5;" horiz-adv-x="508" 
d="M119 226q0 -130 72 -155l110 521q-83 -14 -132.5 -122t-49.5 -244zM207 -103h-53l21 101q-68 12 -104.5 70.5t-36.5 156.5q0 53 9 108.5t30.5 113.5t52.5 103.5t80.5 76.5t109.5 35l15 73h54l-16 -74q72 -10 109 -59t35 -118h-79q-5 91 -80 107l-111 -524q43 3 73.5 27.5
t56.5 77.5h82q-31 -87 -84.5 -130t-142.5 -47z" />
    <glyph glyph-name="uni20B9" unicode="&#x20b9;" horiz-adv-x="500" 
d="M519 478h-78q-6 -162 -189 -191l142 -287h-94l-135 282h-114l15 68h112q172 0 178 128h-263l13 55h242q-26 67 -112 67h-117l13 58h425l-12 -57h-149q29 -29 39 -68h95z" />
    <glyph glyph-name="uni20BA" unicode="&#x20ba;" horiz-adv-x="535" 
d="M362 358l-139 -42l-51 -246q97 0 156 46.5t88 141.5h79q-30 -119 -107.5 -188.5t-226.5 -69.5h-90l61 289l-105 -32l13 58l105 32l15 71l-106 -32l13 59l105 32l39 181h83l-32 -155l139 42l-12 -58l-139 -42l-15 -71l139 42z" />
    <glyph glyph-name="uni20BD" unicode="&#x20bd;" horiz-adv-x="590" 
d="M67 0l35 164h-78l13 62h78l16 74h-78l15 69h78l61 289h183q96 0 146 -46.5t50 -115.5q0 -196 -257 -196h-112l-16 -74h186l-13 -62h-186l-35 -164h-86zM277 588l-45 -219h109q156 0 156 120q0 46 -30.5 72.5t-88.5 26.5h-101z" />
    <glyph glyph-name="uni2113" unicode="&#x2113;" horiz-adv-x="407" 
d="M224 547l-45 -213q172 135 172 276q0 59 -43 59q-31 0 -50.5 -27.5t-33.5 -94.5zM289 161h76q-22 -87 -66 -128.5t-118 -41.5q-79 0 -108 46.5t-14 121.5l8 40q-21 -14 -57 -33l-12 61q38 21 85 50l54 252q24 116 68 162.5t109 46.5q52 0 83.5 -32.5t31.5 -93.5
q0 -109 -70.5 -198t-199.5 -172l-13 -64q-24 -113 48 -113q31 0 54.5 21.5t40.5 74.5z" />
    <glyph glyph-name="uni2116" unicode="&#x2116;" horiz-adv-x="1002" 
d="M107 0h-78l143 677h114q160 -510 172 -577h1q10 77 62 322l54 255h78l-143 -677h-105q-131 423 -177 594h-1q-19 -120 -64 -330zM864 629q65 0 103 -41t38 -110q0 -94 -56.5 -168t-153.5 -74q-63 0 -99 40t-36 109q0 97 55.5 170.5t148.5 73.5zM856 565q-58 0 -90 -56
t-32 -119q0 -87 73 -87q58 0 90.5 53.5t32.5 120.5q0 88 -74 88zM638 175h277l-14 -66h-277z" />
    <glyph glyph-name="uni2117" unicode="&#x2117;" horiz-adv-x="791" 
d="M408 705q148 0 244.5 -100.5t96.5 -255.5q0 -156 -96.5 -257.5t-244.5 -101.5q-151 0 -247.5 99.5t-96.5 259.5q0 153 98.5 254.5t245.5 101.5zM407 652q-125 0 -206 -82t-81 -224q0 -131 81.5 -216.5t205.5 -85.5q125 0 205.5 83t80.5 222q0 133 -80.5 218t-205.5 85z
M280 159v385h147q60 0 103.5 -29.5t43.5 -93.5q0 -63 -42.5 -96t-109.5 -33h-77v-133h-65zM346 488v-141h73q87 0 87 71q0 70 -85 70h-75z" />
    <glyph glyph-name="uni2120" unicode="&#x2120;" horiz-adv-x="471" 
d="M62 536h49q6 -46 54 -46q46 0 46 32q0 26 -57 39q-48 11 -65 28.5t-17 42.5q0 31 23 50.5t66 19.5q87 0 93 -74h-47q-7 38 -49 38q-38 0 -38 -28q0 -11 9 -19t37 -15q52 -13 73.5 -29.5t21.5 -46.5q0 -34 -24 -54.5t-74 -20.5q-45 0 -72 22.5t-29 60.5zM562 459h-48v74
q0 39 4 127h-2q-17 -53 -70 -200h-43q-48 144 -64 200h-1q3 -66 3 -132v-69h-47v237h78q7 -20 19 -54.5t21 -61t16 -49.5h1q39 107 60 165h73v-237z" />
    <glyph glyph-name="trademark" unicode="&#x2122;" horiz-adv-x="481" 
d="M73 696h213v-45h-80v-192h-52v192h-81v45zM584 459h-49v74q0 72 5 127h-2q-9 -28 -21 -62t-26.5 -74.5t-22.5 -63.5h-43q-48 144 -64 200h-2q3 -33 3 -132v-69h-47v237h79q7 -21 18.5 -54.5t20.5 -60.5t17 -50h1q5 13 26 73.5t33 91.5h74v-237z" />
    <glyph glyph-name="uni2126" unicode="&#x2126;" horiz-adv-x="720" 
d="M420 706q132 0 206.5 -80t74.5 -198q0 -122 -60 -213t-174 -140h174l-15 -75h-265l21 99q115 52 170 130t55 190q0 92 -46 152t-150 60q-117 0 -184 -85.5t-67 -205.5q0 -79 28.5 -144.5t80.5 -96.5l-21 -99h-264l15 75h187q-119 100 -119 262q0 96 41 179t123 136.5
t189 53.5z" />
    <glyph glyph-name="estimated" unicode="&#x212e;" horiz-adv-x="837" 
d="M794 309h-620q-4 0 -4 -4v-123q0 -7 8 -21q37 -56 101.5 -88.5t135.5 -32.5q75 0 129.5 26.5t99.5 87.5h95q-58 -79 -135 -122t-191 -43q-164 0 -267 99.5t-103 241.5q0 139 109 239t266 100q162 0 269 -101t107 -242v-17zM667 369v104q0 5 -10 23q-37 57 -102 89.5
t-135 32.5q-73 0 -138 -30t-103 -87q-9 -16 -9 -23v-109q0 -5 4 -5h489q4 0 4 5z" />
    <glyph glyph-name="onethird" unicode="&#x2153;" horiz-adv-x="806" 
d="M131 0h-73l546 658h70zM166 258h-70l68 321q-37 -10 -79 -10l12 52q67 8 106 40h48zM456 119h66q5 -32 26 -51t58 -19q36 0 59.5 18t23.5 55q0 27 -17.5 44t-54.5 17h-38l12 56h33q76 0 76 61q0 21 -14.5 35t-44.5 14q-32 0 -49 -15t-28 -41h-65q27 109 149 109
q59 0 91 -27t32 -72q0 -34 -19 -57.5t-51 -32.5q22 -8 41 -30.5t19 -56.5q0 -56 -40.5 -93t-118.5 -37q-79 0 -113.5 39t-32.5 84z" />
    <glyph glyph-name="twothirds" unicode="&#x2154;" horiz-adv-x="938" 
d="M254 0h-73l546 658h70zM328 259h-287l2 11q11 52 48.5 96t114.5 87q60 35 77 50.5t17 44.5q0 26 -16 41t-47 15q-63 0 -85 -71h-66q31 128 158 128q61 0 93.5 -31.5t32.5 -78.5t-26 -75.5t-94 -64.5q-89 -47 -112 -95h211zM565 117h66q5 -32 26 -51t58 -19q36 0 59.5 18
t23.5 55q0 27 -17.5 44t-54.5 17h-38l12 56h33q76 0 76 61q0 21 -14.5 35t-44.5 14q-32 0 -49 -15t-28 -41h-65q27 109 149 109q59 0 91 -27t32 -72q0 -34 -19 -57.5t-51 -32.5q22 -8 41 -30.5t19 -56.5q0 -56 -40.5 -93t-118.5 -37q-79 0 -113.5 39t-32.5 84z" />
    <glyph glyph-name="oneeighth" unicode="&#x215b;" horiz-adv-x="813" 
d="M138 0h-73l546 658h70zM170 258h-70l68 321q-37 -10 -79 -10l12 52q67 8 106 40h48zM594 -6q-64 0 -100.5 30.5t-36.5 74.5q0 80 89 109q-42 21 -42 73q0 54 40 87t106 33q60 0 92.5 -29t32.5 -69q0 -35 -19.5 -61t-54.5 -37q26 -10 42 -32t16 -50q0 -62 -47 -95.5
t-118 -33.5zM645 351q-32 0 -53.5 -17.5t-21.5 -49.5q0 -24 16 -38t45 -14q31 0 53 17t22 48q0 24 -15 39t-46 15zM602 46q39 0 63 18.5t24 56.5q0 27 -19.5 42.5t-54.5 15.5q-37 0 -62 -19.5t-25 -54.5q0 -27 20.5 -43t53.5 -16z" />
    <glyph glyph-name="threeeighths" unicode="&#x215c;" horiz-adv-x="911" 
d="M240 0h-73l546 658h70zM687 -6q-64 0 -100.5 30.5t-36.5 74.5q0 80 89 109q-42 21 -42 73q0 54 40 87t106 33q60 0 92.5 -29t32.5 -69q0 -35 -19.5 -61t-54.5 -37q26 -10 42 -32t16 -50q0 -62 -47 -95.5t-118 -33.5zM738 351q-32 0 -53.5 -17.5t-21.5 -49.5q0 -24 16 -38
t45 -14q31 0 53 17t22 48q0 24 -15 39t-46 15zM695 46q39 0 63 18.5t24 56.5q0 27 -19.5 42.5t-54.5 15.5q-37 0 -62 -19.5t-25 -54.5q0 -27 20.5 -43t53.5 -16zM50 377h66q5 -32 26 -51t58 -19q36 0 59.5 18t23.5 55q0 27 -17.5 44t-54.5 17h-38l12 56h33q76 0 76 61
q0 21 -14.5 35t-44.5 14q-32 0 -49 -15t-28 -41h-65q27 109 149 109q59 0 91 -27t32 -72q0 -34 -19 -57.5t-51 -32.5q22 -8 41 -30.5t19 -56.5q0 -56 -40.5 -93t-118.5 -37q-79 0 -113.5 39t-32.5 84z" />
    <glyph glyph-name="fiveeighths" unicode="&#x215d;" horiz-adv-x="909" 
d="M238 0h-73l546 658h70zM391 657l-19 -57h-185q-16 -56 -29 -100q36 24 86 24q57 0 88 -33t31 -82q0 -69 -46 -111t-121 -42q-67 0 -102.5 34t-37.5 84h66q4 -30 25.5 -47.5t52.5 -17.5q42 0 66 24.5t24 66.5q0 71 -68 71q-55 0 -87 -41l-56 13q21 60 64 214h248zM693 -6
q-64 0 -100.5 30.5t-36.5 74.5q0 80 89 109q-42 21 -42 73q0 54 40 87t106 33q60 0 92.5 -29t32.5 -69q0 -35 -19.5 -61t-54.5 -37q26 -10 42 -32t16 -50q0 -62 -47 -95.5t-118 -33.5zM744 351q-32 0 -53.5 -17.5t-21.5 -49.5q0 -24 16 -38t45 -14q31 0 53 17t22 48
q0 24 -15 39t-46 15zM701 46q39 0 63 18.5t24 56.5q0 27 -19.5 42.5t-54.5 15.5q-37 0 -62 -19.5t-25 -54.5q0 -27 20.5 -43t53.5 -16z" />
    <glyph glyph-name="seveneighths" unicode="&#x215e;" horiz-adv-x="843" 
d="M145 0h-73l546 658h70zM611 -5q-64 0 -100.5 30.5t-36.5 74.5q0 80 89 109q-42 21 -42 73q0 54 40 87t106 33q60 0 92.5 -29t32.5 -69q0 -35 -19.5 -61t-54.5 -37q26 -10 42 -32t16 -50q0 -62 -47 -95.5t-118 -33.5zM662 352q-32 0 -53.5 -17.5t-21.5 -49.5q0 -24 16 -38
t45 -14q31 0 53 17t22 48q0 24 -15 39t-46 15zM619 47q39 0 63 18.5t24 56.5q0 27 -19.5 42.5t-54.5 15.5q-37 0 -62 -19.5t-25 -54.5q0 -27 20.5 -43t53.5 -16zM106 657h278l-10 -50q-64 -61 -127.5 -156.5t-100.5 -189.5h-78q34 88 101.5 187t125.5 152h-201z" />
    <glyph glyph-name="uni2190" unicode="&#x2190;" horiz-adv-x="875" 
d="M828 322h-650q79 -68 344 -314l-47 -50l-428 398v3l428 403l47 -52q-58 -53 -193.5 -178t-150.5 -139h650v-71z" />
    <glyph glyph-name="arrowup" unicode="&#x2191;" horiz-adv-x="857" 
d="M388 -44v688q-210 -244 -292 -333l-49 50l378 418h2l384 -418l-52 -50q-47 51 -152.5 171t-143.5 162v-688h-75z" />
    <glyph glyph-name="uni2192" unicode="&#x2192;" horiz-adv-x="875" 
d="M47 399h650q-79 68 -344 314l47 50l428 -398v-3l-428 -403l-47 52q58 53 193.5 178t150.5 139h-650v71z" />
    <glyph glyph-name="arrowdown" unicode="&#x2193;" horiz-adv-x="857" 
d="M469 749v-688q210 244 292 333l49 -50l-378 -418h-2l-384 418l52 50q47 -51 152.5 -171t143.5 -162v688h75z" />
    <glyph glyph-name="partialdiff" unicode="&#x2202;" horiz-adv-x="541" 
d="M124 633l12 72q2 0 10 0.5t12 0.5q45 0 89.5 -11.5t88.5 -38.5t77.5 -65.5t54.5 -98t21 -131.5q0 -48 -6.5 -94t-25 -97.5t-48 -90t-79.5 -63.5t-114 -25q-91 0 -142 56t-51 139q0 100 61 168t164 68q65 0 105.5 -24.5t51.5 -50.5q2 14 2 33q0 113 -79.5 182t-185.5 71
h-18zM225 58q72 0 112.5 53.5t48.5 120.5q5 46 -30 84t-105 38q-69 0 -106 -49.5t-37 -119.5q0 -56 32.5 -91.5t84.5 -35.5z" />
    <glyph glyph-name="uni2206" unicode="&#x2206;" horiz-adv-x="616" 
d="M545 0h-575l10 54l370 642h106l99 -642zM80 75h384q-77 537 -78 545h-1q-17 -43 -305 -545z" />
    <glyph glyph-name="product" unicode="&#x220f;" horiz-adv-x="674" 
d="M176 696h506l-169 -796h-88l153 721h-329l-153 -721h-89z" />
    <glyph glyph-name="summation" unicode="&#x2211;" horiz-adv-x="503" 
d="M422 -100h-489l11 57l322 358l-162 324l12 57h444l-16 -75h-336l154 -310l-302 -337h389z" />
    <glyph glyph-name="minus" unicode="&#x2212;" horiz-adv-x="713" 
d="M630 244h-547v75h547v-75z" />
    <glyph glyph-name="uni2215" unicode="&#x2215;" horiz-adv-x="229" 
d="M-104 0h-73l546 658h70z" />
    <glyph glyph-name="uni2219" unicode="&#x2219;" horiz-adv-x="196" 
d="M101 199h-89l32 148h88z" />
    <glyph glyph-name="radical" unicode="&#x221a;" horiz-adv-x="573" 
d="M671 852l-393 -1050h-62l-83 431l-95 -37l-19 55l179 74q57 -325 65 -406q4 33 58 182t279 751h71z" />
    <glyph glyph-name="infinity" unicode="&#x221e;" horiz-adv-x="807" 
d="M213 118q-67 0 -112 48.5t-45 122.5q0 71 46.5 121.5t118.5 50.5q41 0 78 -18.5t59 -39.5t55 -59q52 59 95.5 88t104.5 29q67 0 111 -49t44 -123q0 -70 -46 -120.5t-118 -50.5q-55 0 -98.5 30.5t-93.5 87.5q-36 -39 -57 -59t-60.5 -39.5t-81.5 -19.5zM601 189
q46 0 72 28.5t26 71.5q0 44 -25.5 73.5t-69.5 29.5q-42 0 -74 -23t-79 -76q4 -4 15 -16.5t15.5 -17t15 -15.5t16 -15.5t15.5 -12.5t17.5 -11.5t17 -8t19 -6t19.5 -1.5zM220 189q43 0 76.5 25t73.5 73q-5 6 -23 26t-27.5 30t-26.5 23.5t-34 19.5t-36 6q-44 0 -71 -30.5
t-27 -72.5q0 -44 26.5 -72t68.5 -28z" />
    <glyph glyph-name="integral" unicode="&#x222b;" horiz-adv-x="290" 
d="M407 860l-21 -76q-30 6 -47 6q-22 0 -38 -9.5t-25 -20.5t-16.5 -36.5t-10.5 -42t-8 -51.5q-13 -89 -42.5 -326t-37.5 -294q-18 -129 -56 -185.5t-126 -56.5q-41 0 -63 12l23 79q25 -9 49 -9q33 0 52 20.5t25 43t16 83.5q2 11 3 17q13 83 43 332.5t35 285.5q7 54 18 92.5
t31 74t54 54t81 18.5q35 0 61 -11z" />
    <glyph glyph-name="approxequal" unicode="&#x2248;" horiz-adv-x="713" 
d="M154 108h-68v17q0 63 33 92.5t88 29.5q58 0 155.5 -35.5t143.5 -35.5q55 0 55 57v10h68v-19q0 -121 -119 -121q-61 0 -158.5 35t-138.5 35q-59 0 -59 -60v-5zM154 326h-68v16q0 123 122 123q57 0 154 -35t144 -35q30 0 42.5 14t12.5 44v8h68v-17q0 -124 -120 -124
q-60 0 -156.5 35.5t-139.5 35.5q-59 0 -59 -57v-8z" />
    <glyph glyph-name="notequal" unicode="&#x2260;" horiz-adv-x="713" 
d="M518 558l-53 -113h165v-75h-200l-81 -174h281v-75h-316l-52 -112h-70l52 112h-161v75h196l80 174h-276v75h311l52 113h72z" />
    <glyph glyph-name="lessequal" unicode="&#x2264;" horiz-adv-x="681" 
d="M83 385v76l516 236v-84l-425 -189l425 -195v-83zM83 76h516v-76h-516v76z" />
    <glyph glyph-name="greaterequal" unicode="&#x2265;" horiz-adv-x="681" 
d="M599 458v-78l-516 -234v84l424 187l-424 196v84zM599 0h-516v76h516v-76z" />
    <glyph glyph-name="uni25A0" unicode="&#x25a0;" horiz-adv-x="368" 
d="M69 141v229h230v-229h-230z" />
    <glyph glyph-name="triagup" unicode="&#x25b2;" horiz-adv-x="637" 
d="M601 0h-565l277 612h3z" />
    <glyph glyph-name="uni25B3" unicode="&#x25b3;" horiz-adv-x="637" 
d="M601 0h-565l277 612h3zM137 64h356l-179 402z" />
    <glyph glyph-name="uni25B6" unicode="&#x25b6;" horiz-adv-x="693" 
d="M51 14v565l611 -278v-2z" />
    <glyph glyph-name="uni25B7" unicode="&#x25b7;" horiz-adv-x="693" 
d="M51 14v565l611 -278v-2zM117 474v-355l399 179z" />
    <glyph glyph-name="triagdn" unicode="&#x25bc;" horiz-adv-x="637" 
d="M36 602h565l-278 -612h-2z" />
    <glyph glyph-name="uni25BD" unicode="&#x25bd;" horiz-adv-x="637" 
d="M36 602h565l-278 -612h-2zM499 538h-355l179 -402z" />
    <glyph glyph-name="uni25C0" unicode="&#x25c0;" horiz-adv-x="693" 
d="M642 579v-565l-611 278v2z" />
    <glyph glyph-name="uni25C1" unicode="&#x25c1;" horiz-adv-x="693" 
d="M642 579v-565l-611 278v2zM576 117v356l-399 -179z" />
    <glyph glyph-name="uni25C6" unicode="&#x25c6;" horiz-adv-x="403" 
d="M42 256l158 165l161 -170l-157 -162z" />
    <glyph glyph-name="uni25C9" unicode="&#x25c9;" horiz-adv-x="528" 
d="M265 328q31 0 52 -22.5t21 -52.5q0 -33 -20.5 -56.5t-51.5 -23.5q-34 0 -54 22.5t-20 57.5q0 31 20 53t53 22zM478 253q-2 -94 -62 -158t-150 -64q-92 0 -153 62.5t-61 159.5q0 92 62 156t153 64q89 0 150 -64.5t61 -155.5zM266 415q-66 0 -108 -47t-42 -115
q0 -71 42.5 -118.5t107.5 -47.5q66 0 107.5 47.5t41.5 118.5q0 67 -42.5 114.5t-106.5 47.5z" />
    <glyph glyph-name="lozenge" unicode="&#x25ca;" horiz-adv-x="572" 
d="M451 327l-135 249q-22 41 -30 59h-1q-3 -5 -13.5 -27t-16.5 -32l-134 -245l132 -251q27 -52 30 -61h3q2 6 7.5 18t12 25t8.5 16zM530 329l-206 -372h-82l-201 371l205 372h82z" />
    <glyph glyph-name="uni2610" unicode="&#x2610;" horiz-adv-x="1020" 
d="M161 783h755v-778l-65 -65h-747v785zM163 709v-709h675v709h-675z" />
    <glyph glyph-name="uni2611" unicode="&#x2611;" horiz-adv-x="1020" 
d="M682 647h84q-170 -219 -348 -597h-25q-88 135 -146 279l65 43q45 -140 92 -227q59 136 135 273.5t143 228.5zM161 783h755v-778l-65 -65h-747v785zM163 709v-709h675v709h-675z" />
    <glyph glyph-name="uni2713" unicode="&#x2713;" horiz-adv-x="698" 
d="M596 753h102q-217 -297 -462 -819h-28q-102 152 -176 346l78 50q47 -155 111 -273q188 432 375 696z" />
    <glyph glyph-name="uni2752" unicode="&#x2752;" horiz-adv-x="471" 
d="M63 354l78 79h265v-283l-73 -79h-270v283zM115 342v-216h204v216h-204z" />
    <glyph glyph-name="fi" unicode="&#xfb01;" horiz-adv-x="513" 
d="M114 -1h-83l92 439h-81l16 68h80l16 73q35 165 169 165q37 0 59 -8l-16 -71q-17 5 -41 5q-68 0 -88 -92l-16 -72h100l-15 -68h-100zM302 0l107 507h83l-108 -507h-82zM434 625l23 109h83l-23 -109h-83z" />
    <glyph glyph-name="fl" unicode="&#xfb02;" horiz-adv-x="513" 
d="M114 -1h-83l92 439h-81l16 68h80l16 73q35 165 169 165q37 0 59 -8l-16 -71q-17 5 -41 5q-68 0 -88 -92l-16 -72h100l-15 -68h-100zM384 0h-82l155 734h83z" />
    <glyph glyph-name="uni00470303" horiz-adv-x="700" 
d="M654 376l-77 -376h-70q1 27 16 106q-37 -57 -88 -86t-134 -29q-116 0 -178.5 76.5t-62.5 200.5q0 82 23.5 158.5t68 140t117 101.5t162.5 38q112 0 179.5 -59t69.5 -154h-85q-7 61 -50.5 100.5t-125.5 39.5q-84 0 -146.5 -53.5t-92 -133t-29.5 -169.5q0 -96 42.5 -154.5
t129.5 -58.5q54 0 95 18.5t67.5 52.5t42 72.5t26.5 88.5l1 3h-204l16 77h287zM344 772h-60l4 25q8 51 30.5 70t59.5 19q32 0 81.5 -25.5t64.5 -25.5t23.5 9.5t12.5 33.5l1 9h61l-5 -28q-9 -51 -31.5 -70.5t-61.5 -19.5q-30 0 -77.5 25.5t-65.5 25.5q-28 0 -33 -30z" />
    <glyph glyph-name="uni00670303" horiz-adv-x="557" 
d="M507 373l-69 -323q-28 -134 -82 -196.5t-177 -62.5q-189 0 -189 153h84q0 -38 28 -62.5t86 -24.5q74 0 109.5 46t58.5 146l10 45q-56 -92 -164 -92q-76 0 -120.5 51.5t-44.5 143.5q0 78 28.5 150t89 121t139.5 49q61 0 97.5 -25t45.5 -57q14 55 21 72h79
q-16 -64 -30 -134zM299 446q-81 0 -128 -73t-47 -170q0 -129 107 -129q67 0 111 54t63 140q17 79 -7.5 128.5t-98.5 49.5zM252 608h-60l5 25q9 50 31 69t60 19q29 0 72.5 -24.5t56.5 -24.5q25 0 33 42l2 10h59l-4 -22q-9 -53 -31 -74t-59 -21q-27 0 -70 25t-60 25
q-23 0 -31 -33z" />
    <glyph glyph-name="zero.slash" horiz-adv-x="553" 
d="M352 669q89 0 131 -56.5t42 -150.5q0 -58 -9 -119t-30.5 -125.5t-54 -114.5t-84 -82t-115.5 -32q-88 0 -132.5 57t-44.5 164q0 70 17 146t50.5 148t93.5 118.5t136 46.5zM340 597q-50 0 -91 -40.5t-64.5 -102t-36.5 -126t-13 -120.5q0 -20 1 -29l287 379q-27 39 -83 39z
M242 62q51 0 92.5 42.5t64 106.5t34.5 128t12 118q0 24 -3 43l-289 -386q26 -52 89 -52z" />
    <glyph glyph-name="zero.slashtab" horiz-adv-x="546" 
d="M350 669q89 0 131 -56.5t42 -150.5q0 -58 -9 -119t-30.5 -125.5t-54 -114.5t-84 -82t-115.5 -32q-88 0 -132.5 57t-44.5 164q0 70 17 146t50.5 148t93.5 118.5t136 46.5zM338 597q-50 0 -91 -40.5t-64.5 -102t-36.5 -126t-13 -120.5q0 -20 1 -29l287 379q-27 39 -83 39z
M240 62q51 0 92.5 42.5t64 106.5t34.5 128t12 118q0 24 -3 43l-289 -386q26 -52 89 -52z" />
    <glyph glyph-name="zero.tab" horiz-adv-x="546" 
d="M348 669q90 0 133 -59t43 -152q0 -46 -6.5 -95.5t-20 -103.5t-37 -101.5t-54.5 -85.5t-76 -60.5t-99 -22.5q-88 0 -133 58t-45 161q0 69 16 144.5t49 148.5t93 120.5t137 47.5zM337 597q-50 0 -89.5 -41t-62 -103t-34 -125.5t-11.5 -118.5q0 -148 102 -148q51 0 91 43
t62 108t33 129t11 117q0 139 -102 139z" />
    <glyph glyph-name="one.tab" horiz-adv-x="546" 
d="M424 0h-385l16 72h153l103 480q-20 -12 -64.5 -22.5t-75.5 -13.5l15 69q48 7 94.5 28t75.5 45h60l-124 -586h147z" />
    <glyph glyph-name="two.tab" horiz-adv-x="546" 
d="M445 0h-432l3 16q17 77 75 144.5t168 141.5l34.5 23t32.5 22t25.5 18t23.5 18.5t17 18t15 20.5t8.5 20.5t7 25.5t1.5 28q0 46 -25.5 74t-77.5 28q-56 0 -89.5 -31.5t-52.5 -98.5h-81q44 201 229 201q91 0 137 -49t46 -121q0 -29 -4.5 -53t-17 -45.5t-23.5 -35.5
t-37 -34.5t-42.5 -32.5t-54.5 -37q-10 -7 -15 -10q-81 -54 -124.5 -92.5t-64.5 -86.5h344z" />
    <glyph glyph-name="three.tab" horiz-adv-x="546" 
d="M196 501h-83q17 70 68.5 118.5t143.5 48.5q89 0 134 -44t45 -110q0 -61 -31 -101t-82 -57v-2q93 -40 93 -146q0 -96 -64.5 -157t-175.5 -61q-103 0 -153 52.5t-52 133.5h84q3 -50 33.5 -82.5t95.5 -32.5q70 0 108 41t38 102q0 115 -137 115h-40l14 72h36q148 0 148 116
q0 43 -26 67t-76 24q-84 0 -121 -97z" />
    <glyph glyph-name="four.tab" horiz-adv-x="546" 
d="M374 0h-81l36 172h-298l18 77l368 409h97l-89 -416h83l-24 -70h-74zM344 242l40 184q21 96 38 152q-16 -24 -66 -82.5t-126.5 -144t-97.5 -109.5h212z" />
    <glyph glyph-name="five.tab" horiz-adv-x="546" 
d="M522 658l-27 -73h-271q-35 -132 -57 -194q56 48 135 48q78 0 125.5 -50.5t47.5 -134.5q0 -111 -66.5 -187.5t-185.5 -76.5q-89 0 -142 48t-57 134h83q5 -51 35.5 -81t86.5 -30q76 0 117.5 54t41.5 128q0 57 -28 90t-86 33q-50 0 -80.5 -19.5t-58.5 -57.5l-69 23
q39 112 102 346h354z" />
    <glyph glyph-name="six.tab" horiz-adv-x="546" 
d="M529 513h-82q-10 85 -103 85q-137 0 -188 -236q61 75 163 75q83 0 129.5 -52.5t46.5 -139.5q0 -106 -64.5 -180.5t-172.5 -74.5q-100 0 -150.5 63t-50.5 171q0 52 9 108t30.5 117.5t54 109.5t84 79t115.5 31q49 0 85 -14.5t55.5 -38t28.5 -49.5t10 -54zM261 61
q69 0 108 52t39 128q0 53 -26 89t-88 36q-69 0 -111.5 -45.5t-42.5 -115.5q0 -59 30 -101.5t91 -42.5z" />
    <glyph glyph-name="seven.tab" horiz-adv-x="546" 
d="M136 658h425l-15 -71q-106 -117 -208.5 -277t-167.5 -310h-91q60 149 168 310t210 275h-337z" />
    <glyph glyph-name="eight.tab" horiz-adv-x="546" 
d="M236 -11q-95 0 -148.5 51.5t-53.5 127.5q0 69 42.5 119.5t111.5 69.5q-32 16 -54 48.5t-22 75.5q0 81 57.5 134.5t154.5 53.5q83 0 132 -43t49 -113q0 -63 -33 -105.5t-79 -57.5q39 -18 63 -55t24 -89q0 -93 -66.5 -155t-177.5 -62zM316 599q-57 0 -89.5 -32.5
t-32.5 -86.5q0 -40 27 -66.5t78 -26.5q60 0 91.5 32t31.5 85q0 42 -25.5 68.5t-80.5 26.5zM246 59q68 0 108 41t40 106q0 51 -30.5 80.5t-91.5 29.5q-68 0 -110 -41t-42 -100q0 -51 32.5 -83.5t93.5 -32.5z" />
    <glyph glyph-name="nine.tab" horiz-adv-x="546" 
d="M37 153h82q7 -46 31.5 -69.5t74.5 -23.5q141 0 191 257q-49 -74 -157 -74q-78 0 -128.5 49t-50.5 138q0 93 63.5 165.5t171.5 72.5q96 0 144.5 -61t48.5 -166q0 -48 -6.5 -100.5t-26 -117.5t-50 -115t-85 -84t-124.5 -34q-166 0 -179 163zM308 597q-67 0 -105 -48.5
t-38 -114.5q0 -57 31 -89.5t82 -32.5q65 0 106.5 41.5t41.5 107.5q0 60 -28 98t-90 38z" />
    <glyph glyph-name="zero.slashcap" horiz-adv-x="585" 
d="M367 706q188 0 188 -224q0 -76 -16.5 -156t-50.5 -158t-97 -128t-146 -50q-93 0 -140.5 60.5t-47.5 174.5q0 73 18 152.5t53.5 155t98 124.5t140.5 49zM359 635q-52 0 -95 -42t-68.5 -106.5t-39 -133.5t-13.5 -129q0 -14 2 -38l308 398q-26 51 -94 51zM255 61
q54 0 97.5 45t68 112.5t37.5 136t13 126.5q0 15 -2 41l-309 -401q28 -60 95 -60z" />
    <glyph glyph-name="zero.cap" horiz-adv-x="585" 
d="M367 706q188 0 188 -224q0 -59 -9.5 -122.5t-32.5 -130.5t-57.5 -119.5t-89 -86t-121.5 -33.5q-94 0 -141 60.5t-47 174.5q0 73 18 152.5t53 155.5t97.5 124.5t141.5 48.5zM358 633q-52 0 -94.5 -43t-67 -108.5t-37.5 -133.5t-13 -126q0 -158 111 -158q53 0 96 45.5
t66.5 113.5t35.5 136.5t12 125.5q0 72 -25 110t-84 38z" />
    <glyph glyph-name="one.cap" horiz-adv-x="357" 
d="M199 0h-86l125 583q-26 -17 -77 -30.5t-87 -17.5l17 72q53 9 108.5 35t87.5 54h60z" />
    <glyph glyph-name="two.cap" horiz-adv-x="532" 
d="M443 0h-456l3 15q20 84 81.5 157.5t176.5 149.5q11 8 35.5 24t33.5 22t27.5 19.5t25 20l19 19t16.5 21.5l10 22.5t8 27t2 29.5q0 46 -28 76t-85 30q-111 0 -149 -131h-85q48 204 243 204q95 0 143.5 -51.5t48.5 -127.5q0 -36 -9.5 -65.5t-20 -49t-40.5 -45.5t-46.5 -38
t-62.5 -43q-18 -13 -28 -19q-87 -59 -132.5 -101.5t-67.5 -92.5h364z" />
    <glyph glyph-name="three.cap" horiz-adv-x="541" 
d="M187 531h-86q20 74 75.5 124.5t151.5 50.5q93 0 139.5 -46t46.5 -114q0 -63 -32 -105t-89 -60l-1 -1q45 -18 73 -59t28 -99q0 -101 -68 -166.5t-184 -65.5q-107 0 -160.5 55t-54.5 143h83q5 -59 39.5 -92.5t99.5 -33.5q74 0 115 44.5t41 111.5q0 124 -145 124h-43l13 75
h40q157 0 157 123q0 44 -27.5 69t-78.5 25q-95 0 -133 -103z" />
    <glyph glyph-name="four.cap" horiz-adv-x="551" 
d="M382 0h-84l38 183h-315l18 80l389 433h102l-94 -440h88l-25 -73h-79zM352 256l42 194q21 98 40 162q-10 -15 -36.5 -46.5t-64.5 -75t-71.5 -80.5t-76.5 -85.5t-61 -68.5h228z" />
    <glyph glyph-name="five.cap" horiz-adv-x="549" 
d="M554 696l-24 -75h-287q-37 -134 -63 -208q57 51 143 51q85 0 133 -53t48 -144q0 -117 -70.5 -197.5t-197.5 -80.5q-93 0 -148 49.5t-56 144.5h84q4 -57 36.5 -89.5t91.5 -32.5q81 0 126.5 58t45.5 138q0 134 -120 134q-87 0 -148 -86l-72 26q39 113 108 365h370z" />
    <glyph glyph-name="six.cap" horiz-adv-x="566" 
d="M546 534h-81q-9 100 -114 100q-78 0 -126 -71.5t-68 -187.5q27 38 72.5 62.5t102.5 24.5q87 0 137 -53.5t50 -142.5q0 -114 -70.5 -195.5t-185.5 -81.5q-100 0 -154.5 62t-54.5 183q0 55 9 115t31.5 125t55.5 115.5t86 83.5t119 33q55 0 94.5 -16.5t59.5 -44t28.5 -55
t8.5 -56.5zM267 61q74 0 118.5 58t44.5 139q0 56 -28.5 93.5t-94.5 37.5q-74 0 -120 -51t-46 -129q0 -66 32 -107t94 -41z" />
    <glyph glyph-name="seven.cap" horiz-adv-x="493" 
d="M105 696h447l-16 -73q-114 -129 -221 -296t-175 -327h-94q62 157 177 332t219 289h-354z" />
    <glyph glyph-name="eight.cap" horiz-adv-x="543" 
d="M238 -12q-99 0 -156 50.5t-57 133.5q0 73 43 126.5t117 74.5q-35 16 -56.5 50t-21.5 80q0 84 60.5 143.5t162.5 59.5q89 0 140.5 -44.5t51.5 -119.5q0 -68 -33.5 -113.5t-84.5 -63.5q42 -19 66.5 -58t24.5 -91q0 -98 -68.5 -163t-188.5 -65zM324 637q-61 0 -97 -37.5
t-36 -95.5q0 -43 28 -72t83 -29q62 0 98.5 35.5t36.5 93.5q0 44 -28 74.5t-85 30.5zM245 60q75 0 119 42t44 112q0 54 -33 86t-100 32q-72 0 -117 -42t-45 -109q0 -53 33 -87t99 -34z" />
    <glyph glyph-name="nine.cap" horiz-adv-x="567" 
d="M43 165h83q15 -103 119 -103q146 0 197 278q-54 -80 -170 -80q-83 0 -134.5 52t-51.5 143q0 100 66 175.5t180 75.5q102 0 154 -64t52 -174q0 -38 -4.5 -81t-15 -100t-33 -107t-54 -94t-81.5 -70t-112 -26q-100 0 -145.5 50.5t-49.5 124.5zM324 634q-70 0 -110.5 -50.5
t-40.5 -123.5q0 -60 31.5 -94.5t89.5 -34.5q70 0 113.5 45t43.5 115q0 143 -127 143z" />
    <glyph glyph-name="period.sups" horiz-adv-x="145" 
d="M96 424h-69l23 109h69z" />
    <glyph glyph-name="comma.sups" horiz-adv-x="145" 
d="M34 351h-60q56 92 72 175h70q-12 -49 -34.5 -98.5t-47.5 -76.5z" />
    <glyph glyph-name="dollar.sups" horiz-adv-x="371" 
d="M180 361h-60l14 66q-106 21 -105 120h69q3 -36 28 -54t62 -18q36 0 62 15t26 47q0 21 -17.5 34.5t-66.5 29.5q-63 18 -91 42.5t-28 63.5q0 54 40.5 84.5t105.5 32.5l10 52h61l-12 -57q90 -22 92 -111h-68q-4 66 -84 66q-31 0 -53 -13.5t-22 -43.5q0 -20 18 -31.5
t64 -26.5q67 -20 94.5 -46.5t27.5 -67.5q0 -57 -42.5 -88t-111.5 -34z" />
    <glyph glyph-name="cent.sups" horiz-adv-x="372" 
d="M287 562h70q-33 -93 -140 -102l-13 -62h-61l14 64q-48 10 -75 46t-27 86q0 76 46 127.5t123 56.5l11 51h60l-11 -55q46 -10 68 -40.5t21 -64.5h-69q-2 26 -20.5 43.5t-52.5 17.5q-48 0 -77.5 -37.5t-29.5 -94.5q0 -40 20 -64.5t57 -24.5q56 0 86 53z" />
    <glyph glyph-name="hyphen.sups" horiz-adv-x="218" 
d="M60 650h158l-14 -59h-158z" />
    <glyph glyph-name="period.subs" horiz-adv-x="145" 
d="M-31 -177h-69l23 109h69z" />
    <glyph glyph-name="comma.subs" horiz-adv-x="145" 
d="M-93 -250h-60q56 92 72 175h70q-12 -49 -34.5 -98.5t-47.5 -76.5z" />
    <glyph glyph-name="dollar.subs" horiz-adv-x="371" 
d="M53 -240h-60l14 66q-106 21 -105 120h69q3 -36 28 -54t62 -18q36 0 62 15t26 47q0 21 -17.5 34.5t-66.5 29.5q-63 18 -91 42.5t-28 63.5q0 54 40.5 84.5t105.5 32.5l10 52h61l-12 -57q90 -22 92 -111h-68q-4 66 -84 66q-31 0 -53 -13.5t-22 -43.5q0 -20 18 -31.5
t64 -26.5q67 -20 94.5 -46.5t27.5 -67.5q0 -57 -42.5 -88t-111.5 -34z" />
    <glyph glyph-name="cent.subs" horiz-adv-x="372" 
d="M160 -39h70q-33 -93 -140 -102l-13 -62h-61l14 64q-48 10 -75 46t-27 86q0 76 46 127.5t123 56.5l11 51h60l-11 -55q46 -10 68 -40.5t21 -64.5h-69q-2 26 -20.5 43.5t-52.5 17.5q-48 0 -77.5 -37.5t-29.5 -94.5q0 -40 20 -64.5t57 -24.5q56 0 86 53z" />
    <glyph glyph-name="hyphen.subs" horiz-adv-x="218" 
d="M-67 49h158l-14 -59h-158z" />
    <glyph glyph-name="zero.numr" horiz-adv-x="375" 
d="M262 661q63 0 97 -39t34 -108q0 -103 -49 -181.5t-143 -78.5q-63 0 -97.5 40.5t-34.5 110.5q0 61 19 117t64.5 97.5t109.5 41.5zM254 603q-38 0 -65.5 -36t-37.5 -79t-10 -84q0 -92 68 -92q31 0 54 21.5t35.5 54.5t18 65.5t5.5 61.5q0 88 -68 88z" />
    <glyph glyph-name="one.numr" horiz-adv-x="240" 
d="M172 258h-70l68 321q-37 -10 -79 -10l12 52q67 8 106 40h48z" />
    <glyph glyph-name="two.numr" horiz-adv-x="349" 
d="M328 259h-287l2 11q11 52 48.5 96t114.5 87q60 35 77 50.5t17 44.5q0 26 -16 41t-47 15q-63 0 -85 -71h-66q31 128 158 128q61 0 93.5 -31.5t32.5 -78.5t-26 -75.5t-94 -64.5q-89 -47 -112 -95h211z" />
    <glyph glyph-name="three.numr" horiz-adv-x="359" 
d="M54 377h66q5 -32 26 -51t58 -19q36 0 59.5 18t23.5 55q0 27 -17.5 44t-54.5 17h-38l12 56h33q76 0 76 61q0 21 -14.5 35t-44.5 14q-32 0 -49 -15t-28 -41h-65q27 109 149 109q59 0 91 -27t32 -72q0 -34 -19 -57.5t-51 -32.5q22 -8 41 -30.5t19 -56.5q0 -56 -40.5 -93
t-118.5 -37q-79 0 -113.5 39t-32.5 84z" />
    <glyph glyph-name="four.numr" horiz-adv-x="356" 
d="M282 261h-66l22 104h-194l11 51l224 241h87l-52 -240h59l-16 -52h-54zM126 417h123l19 86q22 93 23 96q-17 -22 -165 -182z" />
    <glyph glyph-name="five.numr" horiz-adv-x="368" 
d="M393 657l-19 -57h-185q-16 -56 -29 -100q36 24 86 24q57 0 88 -33t31 -82q0 -69 -46 -111t-121 -42q-67 0 -102.5 34t-37.5 84h66q4 -30 25.5 -47.5t52.5 -17.5q42 0 66 24.5t24 66.5q0 71 -68 71q-55 0 -87 -41l-56 13q21 60 64 214h248z" />
    <glyph glyph-name="six.numr" horiz-adv-x="366" 
d="M390 555h-67q-8 51 -66 51q-44 0 -73 -35t-39 -92q42 44 106 44q56 0 88 -33.5t32 -84.5q0 -65 -45 -108t-115 -43q-65 0 -104 40.5t-39 116.5q0 59 19 113.5t65.5 95t110.5 40.5q59 0 92.5 -30.5t34.5 -74.5zM212 309q39 0 62.5 25t23.5 67q0 32 -17.5 50.5t-51.5 18.5
q-37 0 -63.5 -21t-26.5 -57q0 -35 17.5 -59t55.5 -24z" />
    <glyph glyph-name="seven.numr" horiz-adv-x="332" 
d="M111 657h278l-10 -50q-64 -61 -127.5 -156.5t-100.5 -189.5h-78q34 88 101.5 187t125.5 152h-201z" />
    <glyph glyph-name="eight.numr" horiz-adv-x="353" 
d="M198 254q-64 0 -100.5 30.5t-36.5 74.5q0 80 89 109q-42 21 -42 73q0 54 40 87t106 33q60 0 92.5 -29t32.5 -69q0 -35 -19.5 -61t-54.5 -37q26 -10 42 -32t16 -50q0 -62 -47 -95.5t-118 -33.5zM249 611q-32 0 -53.5 -17.5t-21.5 -49.5q0 -24 16 -38t45 -14q31 0 53 17
t22 48q0 24 -15 39t-46 15zM206 306q39 0 63 18.5t24 56.5q0 27 -19.5 42.5t-54.5 15.5q-37 0 -62 -19.5t-25 -54.5q0 -27 20.5 -43t53.5 -16z" />
    <glyph glyph-name="nine.numr" horiz-adv-x="357" 
d="M57 363h69q8 -55 70 -55q78 0 105 129q-40 -37 -98 -37q-53 0 -86.5 32.5t-33.5 82.5q0 62 43 104t111 42q66 0 103 -38t37 -109q0 -45 -9 -87.5t-28.5 -83t-58.5 -65t-92 -24.5q-63 0 -96.5 32t-35.5 77zM233 606q-37 0 -59.5 -23.5t-22.5 -61.5q0 -30 19.5 -48
t50.5 -18q39 0 62.5 20.5t23.5 54.5q0 36 -19 56t-55 20z" />
    <glyph glyph-name="parenleft.numr" horiz-adv-x="212" 
d="M217 704h66q-78 -76 -111 -144.5t-33 -164.5q0 -109 36 -198h-59q-39 88 -39 195q0 92 36 173.5t104 138.5z" />
    <glyph glyph-name="parenright.numr" horiz-adv-x="212" 
d="M77 197h-66q78 79 111 147.5t33 164.5q0 105 -36 195h58q39 -88 39 -195q0 -91 -37 -174t-102 -138z" />
    <glyph glyph-name="period.numr" horiz-adv-x="145" 
d="M116 257h-69l23 109h69z" />
    <glyph glyph-name="comma.numr" horiz-adv-x="145" 
d="M54 184h-60q56 92 72 175h70q-12 -49 -34.5 -98.5t-47.5 -76.5z" />
    <glyph glyph-name="dollar.numr" horiz-adv-x="371" 
d="M200 194h-60l14 66q-106 21 -105 120h69q3 -36 28 -54t62 -18q36 0 62 15t26 47q0 21 -17.5 34.5t-66.5 29.5q-63 18 -91 42.5t-28 63.5q0 54 40.5 84.5t105.5 32.5l10 52h61l-12 -57q90 -22 92 -111h-68q-4 66 -84 66q-31 0 -53 -13.5t-22 -43.5q0 -20 18 -31.5
t64 -26.5q67 -20 94.5 -46.5t27.5 -67.5q0 -57 -42.5 -88t-111.5 -34z" />
    <glyph glyph-name="cent.numr" horiz-adv-x="372" 
d="M307 395h70q-33 -93 -140 -102l-13 -62h-61l14 64q-48 10 -75 46t-27 86q0 76 46 127.5t123 56.5l11 51h60l-11 -55q46 -10 68 -40.5t21 -64.5h-69q-2 26 -20.5 43.5t-52.5 17.5q-48 0 -77.5 -37.5t-29.5 -94.5q0 -40 20 -64.5t57 -24.5q56 0 86 53z" />
    <glyph glyph-name="hyphen.numr" horiz-adv-x="218" 
d="M80 483h158l-14 -59h-158z" />
    <glyph glyph-name="zero.dnom" horiz-adv-x="375" 
d="M205 401q63 0 97 -39t34 -108q0 -103 -49 -181.5t-143 -78.5q-63 0 -97.5 40.5t-34.5 110.5q0 61 19 117t64.5 97.5t109.5 41.5zM197 343q-38 0 -65.5 -36t-37.5 -79t-10 -84q0 -92 68 -92q31 0 54 21.5t35.5 54.5t18 65.5t5.5 61.5q0 88 -68 88z" />
    <glyph glyph-name="one.dnom" horiz-adv-x="240" 
d="M115 -2h-70l68 321q-37 -10 -79 -10l12 52q67 8 106 40h48z" />
    <glyph glyph-name="two.dnom" horiz-adv-x="349" 
d="M271 -1h-287l2 11q11 52 48.5 96t114.5 87q60 35 77 50.5t17 44.5q0 26 -16 41t-47 15q-63 0 -85 -71h-66q31 128 158 128q61 0 93.5 -31.5t32.5 -78.5t-26 -75.5t-94 -64.5q-89 -47 -112 -95h211z" />
    <glyph glyph-name="three.dnom" horiz-adv-x="359" 
d="M-3 117h66q5 -32 26 -51t58 -19q36 0 59.5 18t23.5 55q0 27 -17.5 44t-54.5 17h-38l12 56h33q76 0 76 61q0 21 -14.5 35t-44.5 14q-32 0 -49 -15t-28 -41h-65q27 109 149 109q59 0 91 -27t32 -72q0 -34 -19 -57.5t-51 -32.5q22 -8 41 -30.5t19 -56.5q0 -56 -40.5 -93
t-118.5 -37q-79 0 -113.5 39t-32.5 84z" />
    <glyph glyph-name="four.dnom" horiz-adv-x="356" 
d="M225 1h-66l22 104h-194l11 51l224 241h87l-52 -240h59l-16 -52h-54zM69 157h123l19 86q22 93 23 96q-17 -22 -165 -182z" />
    <glyph glyph-name="five.dnom" horiz-adv-x="368" 
d="M336 397l-19 -57h-185q-16 -56 -29 -100q36 24 86 24q57 0 88 -33t31 -82q0 -69 -46 -111t-121 -42q-67 0 -102.5 34t-37.5 84h66q4 -30 25.5 -47.5t52.5 -17.5q42 0 66 24.5t24 66.5q0 71 -68 71q-55 0 -87 -41l-56 13q21 60 64 214h248z" />
    <glyph glyph-name="six.dnom" horiz-adv-x="366" 
d="M333 295h-67q-8 51 -66 51q-44 0 -73 -35t-39 -92q42 44 106 44q56 0 88 -33.5t32 -84.5q0 -65 -45 -108t-115 -43q-65 0 -104 40.5t-39 116.5q0 59 19 113.5t65.5 95t110.5 40.5q59 0 92.5 -30.5t34.5 -74.5zM155 49q39 0 62.5 25t23.5 67q0 32 -17.5 50.5t-51.5 18.5
q-37 0 -63.5 -21t-26.5 -57q0 -35 17.5 -59t55.5 -24z" />
    <glyph glyph-name="seven.dnom" horiz-adv-x="332" 
d="M54 397h278l-10 -50q-64 -61 -127.5 -156.5t-100.5 -189.5h-78q34 88 101.5 187t125.5 152h-201z" />
    <glyph glyph-name="eight.dnom" horiz-adv-x="353" 
d="M141 -6q-64 0 -100.5 30.5t-36.5 74.5q0 80 89 109q-42 21 -42 73q0 54 40 87t106 33q60 0 92.5 -29t32.5 -69q0 -35 -19.5 -61t-54.5 -37q26 -10 42 -32t16 -50q0 -62 -47 -95.5t-118 -33.5zM192 351q-32 0 -53.5 -17.5t-21.5 -49.5q0 -24 16 -38t45 -14q31 0 53 17
t22 48q0 24 -15 39t-46 15zM149 46q39 0 63 18.5t24 56.5q0 27 -19.5 42.5t-54.5 15.5q-37 0 -62 -19.5t-25 -54.5q0 -27 20.5 -43t53.5 -16z" />
    <glyph glyph-name="nine.dnom" horiz-adv-x="357" 
d="M0 103h69q8 -55 70 -55q78 0 105 129q-40 -37 -98 -37q-53 0 -86.5 32.5t-33.5 82.5q0 62 43 104t111 42q66 0 103 -38t37 -109q0 -45 -9 -87.5t-28.5 -83t-58.5 -65t-92 -24.5q-63 0 -96.5 32t-35.5 77zM176 346q-37 0 -59.5 -23.5t-22.5 -61.5q0 -30 19.5 -48t50.5 -18
q40 0 63 20.5t23 54.5q0 36 -19 56t-55 20z" />
    <glyph glyph-name="parenleft.dnom" horiz-adv-x="212" 
d="M160 444h66q-78 -76 -111 -144.5t-33 -164.5q0 -109 36 -198h-59q-39 88 -39 195q0 92 36 173.5t104 138.5z" />
    <glyph glyph-name="parenright.dnom" horiz-adv-x="212" 
d="M20 -63h-66q78 79 111 147.5t33 164.5q0 105 -36 195h58q39 -88 39 -195q0 -91 -37 -174t-102 -138z" />
    <glyph glyph-name="period.dnom" horiz-adv-x="145" 
d="M59 -3h-69l23 109h69z" />
    <glyph glyph-name="comma.dnom" horiz-adv-x="145" 
d="M-3 -76h-60q56 92 72 175h70q-12 -49 -34.5 -98.5t-47.5 -76.5z" />
    <glyph glyph-name="dollar.dnom" horiz-adv-x="371" 
d="M143 -66h-60l14 66q-106 21 -105 120h69q3 -36 28 -54t62 -18q36 0 62 15t26 47q0 21 -17.5 34.5t-66.5 29.5q-63 18 -91 42.5t-28 63.5q0 54 40.5 84.5t105.5 32.5l10 52h61l-12 -57q90 -22 92 -111h-68q-4 66 -84 66q-31 0 -53 -13.5t-22 -43.5q0 -20 18 -31.5
t64 -26.5q67 -20 94.5 -46.5t27.5 -67.5q0 -57 -42.5 -88t-111.5 -34z" />
    <glyph glyph-name="cent.dnom" horiz-adv-x="372" 
d="M250 135h70q-33 -93 -140 -102l-13 -62h-61l14 64q-48 10 -75 46t-27 86q0 76 46 127.5t123 56.5l11 51h60l-11 -55q46 -10 68 -40.5t21 -64.5h-69q-2 26 -20.5 43.5t-52.5 17.5q-48 0 -77.5 -37.5t-29.5 -94.5q0 -40 20 -64.5t57 -24.5q56 0 86 53z" />
    <glyph glyph-name="hyphen.dnom" horiz-adv-x="218" 
d="M23 223h158l-14 -59h-158z" />
    <glyph glyph-name="a.sups" horiz-adv-x="367" 
d="M360 482l-28 -139q-2 -13 -8.5 -45t-7.5 -39h-62q5 34 9 50q-39 -56 -111 -56q-47 0 -71.5 27t-24.5 63q0 28 11 49.5t27 34t41.5 21.5t47 12.5t50.5 6.5q42 2 63 2l2 11q6 33 -5.5 52t-54.5 19q-35 0 -50.5 -12.5t-24.5 -37.5h-64q22 100 145 100q65 0 96.5 -30.5
t19.5 -88.5zM285 416l1 8q-18 0 -50 -2q-55 -5 -83 -20t-28 -52q0 -18 12.5 -31t36.5 -13q89 0 111 110z" />
    <glyph glyph-name="b.sups" horiz-adv-x="370" 
d="M109 261h-64q3 12 13.5 61t15.5 72l73 347h66l-42 -197q42 57 112 57q45 0 76 -33t31 -91q0 -86 -47 -154t-133 -68q-35 0 -58 16.5t-30 41.5q-8 -34 -13 -52zM210 312q55 0 82 47.5t27 108.5q0 75 -63 75q-86 0 -111 -115q-10 -48 6 -82t59 -34z" />
    </font>
</defs>
</svg>
